<?xml version="1.0" encoding="UTF-8"?>
<svg id="Vrstva_1" xmlns="http://www.w3.org/2000/svg" version="1.1" viewBox="0 0 2381.1 841.89">
  <!-- Generator: Adobe Illustrator 29.7.1, SVG Export Plug-In . SVG Version: 2.1.1 Build 8)  -->
  <defs>
    <style>
      .st0 {
        fill: #040404;
      }

      .st1 {
        fill: #847362;
      }

      .st2 {
        fill: #44403b;
      }

      .st3 {
        fill: #262320;
      }

      .st4 {
        fill: #848f91;
      }

      .st5 {
        fill: #282320;
      }

      .st6 {
        fill: #606769;
      }

      .st7 {
        fill: #1d292d;
      }

      .st8 {
        stroke: #606769;
        stroke-width: 2px;
      }

      .st8, .st9 {
        fill: none;
        stroke-miterlimit: 10;
      }

      .st9 {
        stroke: #bbb8b6;
        stroke-width: 4px;
      }

      .st10 {
        fill: #1d1d1b;
      }

      .st11 {
        fill: #604337;
      }

      .st12 {
        fill: #aa967e;
      }

      .st13 {
        fill: #d4d4d4;
      }

      .st14 {
        fill: #2d2925;
      }

      .st15 {
        fill: #332f2b;
      }

      .st16 {
        fill: #383533;
      }

      .st17 {
        fill: #d7d7d7;
      }

      .st18 {
        fill: #7a8b93;
      }

      .st19 {
        fill: #d29f52;
      }

      .st20 {
        fill: #100e0e;
      }

      .st21 {
        fill: #473f3b;
      }

      .st22 {
        fill: #9ba2a4;
      }

      .st23 {
        fill: #7a5443;
      }

      .st24 {
        fill: #334046;
      }

      .st25 {
        fill: #35302d;
      }

      .st26 {
        fill: #a5a09a;
      }

      .st27 {
        fill: #d6ca92;
      }

      .st28 {
        fill: #ad9f68;
      }

      .st29 {
        fill: #afaeae;
      }

      .st30 {
        fill: #1c150f;
      }

      .st31 {
        fill: #94382c;
      }
    </style>
  </defs>
  <rect class="st18" x="-9.06" y="-23.11" width="2438" height="960"/>
  <path class="st22" d="M415.28,98s72-36,122-14,52,60,52,60c0,0,64-12,86,14s50,24,94,40,132,46,126,108-60,90-60,90c0,0,42-16,62,12s16,30,10,50c0,0,94-2,94,64s-118,76-118,76c0,0,74,36,118-10s42-114,88-114,48,66,48,66c0,0,2-78,32-82s64,8,52,56c0,0,142.67,38,152,98,0,0,40-52,66-38,0,0,16-38,46-26,0,0,4-30,44-36s74,44,70,60-4,174-4,174l-798,50-722-32-114-26L-24.72,128l440-30Z"/>
  <path class="st22" d="M-8.72-34l446,2s52-2,52,48c0,0,42-2,46,38s-20,56-20,56l-154,6L-14.72,112l-6-144,12-2Z"/>
  <path class="st22" d="M1547.28,492s-24-78,12-72,40,20,40,20c0,0-12-96,34-108s84,18,84,18c0,0-24-52-12-82s112-76,156,2,34,134,34,134l-80,124s-24,48-34,50-146-16-146-16l-88-70Z"/>
  <path class="st22" d="M1221.28,514s6-34,44-22,48,62,48,62l-78-6-14-34Z"/>
  <path class="st22" d="M873.28,602s8-84,60-68,86,40,84,62-80,42-102,38-42-32-42-32Z"/>
  <line class="st8" x1="657.28" y1="738" x2="1744.28" y2="811"/>
  <path class="st27" d="M-100.03,504.83c15,0,228.02,129.01,306.03,132.01s276.03,36,318.03,45,267.03,63.01,390.04,66.01,564.06-6,651.07,3c87.01,9,417.04,3,573.06,3h285.03l87.01,33,9,126.01-2562.26-3-57.01-405.04Z"/>
  <path class="st27" d="M1253.1,771.85c183.02-3,516.05-57.01,603.06-84.01,87.01-27,90.01-120.01,162.02-123.01s348.03-18,348.03-18l90.01,303.03-1083.11-24-120.01-54.01Z"/>
  <path class="st6" d="M1847.16,825.86s30-12,84.01-12,216.02-27,234.02-18c18,9,66.01,41.06,57.01,46.03s72.01-16.03,72.01-16.03l36,27s-51.01,27-72.01,27-360.04-12-369.04-12-63.01-3-63.01-3l21-39Z"/>
  <path class="st22" d="M2135.28,704s-86-6-94-20-10-34-10-34l-20-2-2,14-18,2-2-16-18-8,48-68,116,132Z"/>
  <path class="st22" d="M2167.28,614s0,92,52,116,134,20,134,12-36-142-36-142l-150,14Z"/>
  <path class="st6" d="M364.99,748.99c1.86,0,209.57,11.18,214.23,10.25s85.69,4.66,94.07,0-1.86-12.11-1.86-12.11c0,0-159.27-8.38-191.87-11.18s-116.74-8.69-116.74-8.69l2.17,21.73Z"/>
  <path class="st6" d="M135.87,721.98s94.07,10.25,109.91,7.45,44.71-19.56,34.46-22.35c-10.25-2.79-125.74-11.18-125.74-11.18l-18.63,26.08Z"/>
  <path class="st6" d="M-124,708.94c4.35,4.66,23.29,15.83,67.06,14.9,43.78-.93,122.95,0,136.92-6.52s-115.5-21.42-115.5-21.42l-88.48,13.04Z"/>
  <path class="st6" d="M2215.66,792.45s72-15,82.5-15,30,28.5,27,42c-3,13.5-84,52.5-84,52.5l-25.5-79.5Z"/>
  <path class="st15" d="M635.57,309.83s78.24-7.45,92.68-12.11c14.44-4.66,48.43-8.38,48.43-8.38,0,0-5.59,13.04-7.45,20.96s-42.85,58.21-62.4,58.68c-12.96.31-24.7-.41-33.31-.65-4.38-.13-7.96-.13-10.47.19-7.45.93-27.48-58.68-27.48-58.68Z"/>
  <path class="st14" d="M42.26,478.88s7.45,44.71-8.85,81.5c-16.3,36.79-6.52,55.88-4.19,58.68s15.37,14.9,17.7,20.96,9.31,20.49,8.85,21.89-2.33,23.29-5.59,27.94-5.59,14.9-1.4,20.03,20.49,5.59,20.49,5.59c0,0,19.56,6.05,30.74,4.19,0,0,45.64,11.18,60.54-6.05,0,0,.47-20.49-5.12-25.61,0,0-9.31-15.37-27.01-18.63,0,0-21.42-32.13-16.3-56.82,0,0,2.79-13.51,7.45-18.63,4.66-5.12,21.89-39.59,21.42-61.94l-.47-22.35-97.8-33.53-.47,2.79Z"/>
  <path class="st4" d="M1118.12,759.43c-3.32,0-50.87,3.32-50.87,3.32l-6.63,16.59,98.42,6.63-40.92-26.54Z"/>
  <path class="st2" d="M78.74,60.68c1.24-.31,2.48,7.14,58.68-21.11,0,0,18.94-7.14,39.12,6.52,20.18,13.66,100.28,29.81,100.28,29.81,0,0,20.49,11.18,50.3-11.8s112.08-13.04,134.74,16.45c0,0,15.21,10.56,21.73,13.35s34.77,26.7,55.26,52.47c20.49,25.77,36.64,51.54,46.26,71.41s16.77,34.46,21.42,41.91c4.66,7.45,4.97,11.8,7.45,14.9s6.52,9.94,7.14,12.42,3.73,4.97,13.04,12.11c9.31,7.14,11.8,15.83,12.11,18.94s4.35,18.63,8.07,24.22,23.91,54.02,23.6,59.61-16.45,20.49-18.01,23.29-5.28,12.11-4.66,37.26,15.83,70.17,18.01,74.51,11.8,41.91,12.11,46.88,0,123.26,0,127.29,1.55,8.07,1.55,13.97-17.7,58.06-134.43,28.25c0,0-51.85-33.84-59.92-81.34,0,0-28.56-53.4-35.08-63.03s-15.21-57.13-15.21-57.13c0,0-21.73-4.66-27.32-8.38,0,0-24.22,11.8-47.5,1.86,0,0-12.42,8.38-16.45,9.62,0,0,.93,75.13-.93,99.66s-2.48,40.05,2.48,45.02c4.97,4.97,21.11,16.14,22.66,24.84,1.55,8.69.62,23.29-2.17,23.6,0,0-5.9.93-8.07.93s-67.68,14.59-79.48,5.28c0,0-37.1,3.33-42.22-4.35-.62-.93-2.17-20.49,13.35-37.57,15.52-17.08,11.18-29.18,10.56-31.67s-1.55-33.22-3.1-37.57-25.77-65.2-30.12-72.96-10.25-23.6-10.25-23.6c0,0-117.67,2.79-229.13-90.04,0,0-22.35,14.9-24.84,23.6s-16.45,30.12-13.97,56.51c2.48,26.39,2.79,96.87,2.79,100.28s2.79,17.7,6.83,25.77,13.04,33.22,11.8,39.12-3.1,10.56-8.38,10.87-8.69.62-8.69.62c0,0-58.99,16.77-72.65.93,0,0-18.94,3.1-18.63-6.52s7.14-29.49,16.77-47.19c9.62-17.7,7.45-59.92,6.52-63.03s-12.73-58.37-12.42-69.55.93-47.81-2.48-54.02c-3.42-6.21-15.21-31.05-19.87-41.6-4.66-10.56-44.71-111.77-14.9-164.55,29.81-52.78,24.22-79.48,24.22-79.48,0,0,28.56-48.43,72.03-70.17S-13.47,71.54,8.88,64.09c22.35-7.45,69.86-3.42,69.86-3.42Z"/>
  <path class="st14" d="M497.1,373.11s31.92,34.26,61.08-4.74-3.85-59.56-3.85-59.56c0,0,2.75-2.64,8.25,3.16s20.36,35.31,3.3,55.87c-17.06,20.55-39.62,43.22-68.79,5.27Z"/>
  <path class="st14" d="M503.77,400.64s74.05,4.19,81.5-35.86c7.45-40.05,2.79-37.72,2.79-37.72,0,0,6.99,34.93-.93,47.5-7.92,12.57-24.22,38.19-83.36,26.08Z"/>
  <path class="st3" d="M683.3,350.81c6.75-8.38,48.67-52.39,55.42-54.95s15.37-8.62,38.19-7.45c0,0-12.81,56.58-40.75,72.18-27.94,15.6-65.9,7.68-65.9,7.68l13.04-17.46Z"/>
  <path class="st15" d="M435.32,228.8s51.23,40.05,59.14,47.97,28.41,27.48,39.59,29.34,20.49.47,26.08,17.23c5.59,16.77,3.73,49.83-26.55,58.21-30.27,8.38-34.93-30.74-34.93-30.74l-63.34-122.02Z"/>
  <path class="st3" d="M493.06,345.92c-.7-.23-47.04-10.25-55.19-66.36l-3.03-48.67s30.5,27.71,33.3,32.83,31.67,85.92,31.67,85.92l-6.75-3.73Z"/>
  <path class="st12" d="M646.79,574.8c-6.82-2.68-35.89-19.83-30.22-38.25s33.52-34.47,41.55-42.02c8.03-7.55,18.41-42.97,21.25-42.5s18.89,13.69,19.36,50.52c.47,36.83-16.53,71.3-16.53,71.3,0,0-22.19,6.14-35.41.94Z"/>
  <path class="st12" d="M638.29,686.23c-.98-1.74-26.91-60.44.94-98.68,0,0,17-19.83,47.22-9.92,0,0,21.72,6.14,36.36,1.89s61.38-44.86,68.94-53.36,12.28-12.28,16.53-10.39-5.67,51.94-12.75,65.63c-7.08,13.69-37.3,72.24-72.72,98.21-35.41,25.97-74.13,25.03-84.52,6.61Z"/>
  <path class="st15" d="M517.75,525.92c.47-1.39,34-9.78,48.9,5.12s11.64,41.91-6.99,45.64-57.75-4.19-41.91-50.76Z"/>
  <path class="st0" d="M530.79,543.15s10.94,1.63,12.34,2.79,5.59,3.73,6.29,5.82-.7,4.89-3.49,5.59-11.88.93-12.81-.7-2.33-13.51-2.33-13.51Z"/>
  <path class="st29" d="M540.88,556.66s5.59-5.9,4.81-7.76,4.58,2.87,3.92,4.07-2.37,4.46-4.23,4.46-4.5-.78-4.5-.78Z"/>
  <path class="st3" d="M528.69,540.12s11.41-.47,14.2,1.86,6.71,8.19,6.71,10.98c0,0-4.85-4.93-7.18-6.09s-13.74-1.63-13.74-6.75Z"/>
  <path class="st3" d="M547.2,555.69s-7.1,1.83-11.06-1.2-3.49-10.71-3.49-10.71l-3.96-2.1s-1.63,9.31,1.16,13.74,11.88,5.36,16.53,4.66,3.22-7.1,3.22-7.1l-2.41,2.72Z"/>
  <path class="st15" d="M555.31,704.91s2.48,24.84,12.42,29.18,17.39-1.24,16.14-8.07-18.01-13.66-21.73-19.25c-3.73-5.59-6.83-1.86-6.83-1.86Z"/>
  <path class="st3" d="M545.5,549.11s3.18,3.95,3.18,4.85.69.73.77.53.86-1.14-.33-3.67-2.16-3.91-2.16-3.91l-1.47,2.2Z"/>
  <path class="st3" d="M559.11,712.69s6.76,17.75,11.83,19.02c5.07,1.27,8.87.42,7.61-3.8s-8.03-7.18-11.83-10.57c-3.8-3.38-7.61-4.65-7.61-4.65Z"/>
  <path class="st15" d="M285.82,662.68s41.6,18.63,56.51,3.1c0,0-14.28,26.7-56.51-3.1Z"/>
  <path class="st15" d="M292.03,654.61s27.94,13.04,36.64,8.07c8.69-4.97,13.04-9.31,13.04-9.31,0,0-4.97,12.42-9.31,13.66s-35.39-2.48-40.36-12.42Z"/>
  <path class="st15" d="M292.03,638.47s11.18,12.42,19.87,13.04,13.66,1.24,13.66,1.24l-33.53-14.28Z"/>
  <path class="st15" d="M334.88,622.32c-1.62-.92,11.18,16.14,10.56,21.11s3.73-13.04-10.56-21.11Z"/>
  <path class="st15" d="M74.7,580.1s36.64,2.48,38.5,9.31l1.86,6.83s11.8-25.46-40.36-16.14Z"/>
  <path class="st15" d="M100.16,570.78s20.49,4.35,21.73,9.31,4.35,5.59,3.1-1.24-22.35-10.56-24.84-8.07Z"/>
  <path class="st15" d="M97.68,691.25l-1.24,27.94s8.07,3.1,8.07.62,1.24-19.25-.62-23.6-6.21-4.97-6.21-4.97Z"/>
  <path class="st15" d="M144.25,686.28c-1.46,2.1,11.18,1.71,11.18,1.71,0,0-5.59-9.78-11.18-1.71Z"/>
  <path class="st15" d="M282.1,727.26s-9.31,24.84-6.21,25.46,9.62,1.55,9.62,1.55l-3.42-27.01Z"/>
  <polygon class="st15" points="362.82 727.26 364.99 748.99 370.89 750.86 362.82 727.26"/>
  <polygon class="st2" points="349.16 611.14 364.06 545.01 354.75 530.11 342.64 551.53 349.16 611.14"/>
  <path class="st14" d="M1.74,210.64c-1.86.93-65.66,20.96-47.97,146.23,0,0,1.86,13.51,3.73,8.85s-4.19-42.38-2.33-52.62,14.44-68.46,25.61-76.38c11.18-7.92,22.82-20.49,22.82-20.49l-1.86-5.59Z"/>
  <path class="st14" d="M137.73,477.49s44.24,46.57,75.44,43.31l1.4,5.12s-46.1-3.26-76.84-48.43Z"/>
  <path class="st14" d="M163.81,423.93s14.9,32.13,30.27,32.13c0,0-1.4,17.7,7.45,19.56,0,0,21.11,69.7,22.2,70.94l-24.53-66.75s-10.71-15.83-8.85-20.03c0,0-29.81-20.03-26.55-35.86Z"/>
  <path class="st14" d="M213.17,474.23s14.9-8.85,31.67-9.31c16.77-.47,88.48,7.92,97.33,11.18,8.85,3.26,25.15,14.9,27.01,18.63s-14.44-9.78-23.75-12.57c-9.31-2.79-90.81-12.11-101.99-12.11s-30.27,4.19-30.27,4.19Z"/>
  <path class="st14" d="M200.6,447.21l2.33,1.86s10.25-11.64,18.63-12.11-12.11-.47-15.83,1.86-5.12,8.38-5.12,8.38Z"/>
  <path class="st14" d="M336.12,443.95c-1.39-.13,26.08,13.04,27.94,18.16s2.33-13.04,2.33-13.04c0,0-25.15-4.66-30.27-5.12Z"/>
  <path class="st14" d="M371.51,419.27s-10.25,39.12-4.19,61.94,17.7,54.95,27.48,59.14,11.64,1.4,11.64,1.4c0,0-13.97-3.73-18.16-12.57s-20.49-52.62-20.03-57.28,3.26-52.62,3.26-52.62Z"/>
  <path class="st14" d="M384.55,221.35s9.78,100.59,12.57,117.82,5.12,106.18,4.66,119.22-1.86,38.65,3.26,49.83c5.12,11.18,19.09,33.53,25.15,36.79,6.05,3.26,11.64,4.66,11.64,4.66l.93-2.79s-17.7-5.12-23.29-20.03c-5.59-14.9-12.57-26.08-12.57-38.65s-1.86-134.59-3.26-145.3-14.44-120.15-19.09-121.55Z"/>
  <path class="st14" d="M431.12,365.25s8.85,24.68,11.64,39.59c2.79,14.9-.93,73.58-.47,78.7s1.4,67.99.47,63.34,3.73-44.24,3.26-52.16,5.12-36.79,5.12-43.31-7.92-86.16-20.03-86.16Z"/>
  <path class="st14" d="M643.49,366.65s10.71,42.38,19.09,46.57l3.26.47,1.4-2.33s-2.79,0-4.66-3.26-19.09-41.45-19.09-41.45Z"/>
  <path class="st14" d="M523.33,510.09s-.47,8.38,13.51,10.25,27.94.93,29.81,5.12,5.59,4.66,5.59,4.66c0,0-5.12-13.04-13.04-13.04s-20.96,1.86-27.01-1.4c-6.05-3.26-8.85-5.59-8.85-5.59Z"/>
  <path class="st14" d="M513.55,558.36s13.97,30.74,29.34,27.94,15.37-5.59,15.37-5.59c0,0-4.66,3.26-14.9,1.4s-20.03-6.05-29.81-23.75Z"/>
  <path class="st14" d="M548.48,693.57c-1.3,2.38,15.37-4.19,26.55,4.66s19.09,9.31,22.35,19.09c3.26,9.78-6.99,22.82-9.31,23.75s25.15-8.85,13.51-25.15-12.11-12.11-20.49-18.16-27.01-14.44-32.6-4.19Z"/>
  <path class="st14" d="M550.81,717.79s10.71,22.35,16.77,24.22,8.85.93,8.85.93c0,0-11.18,0-25.61-25.15Z"/>
  <path class="st1" d="M675.62,683.33s11.18,5.59,14.9,6.05,9.31-.93,9.31-.93l-24.22-5.12Z"/>
  <path class="st1" d="M696.11,678.21c11.18.93,13.97,3.26,17.23-.93s3.26-2.79,3.26-4.19-10.71,3.73-15.83,3.26-11.64-4.66-11.64-4.66l6.99,6.52Z"/>
  <path class="st1" d="M641.16,673.55s-.93,9.78,13.51,14.44,31.2,5.12,31.2,5.12l-4.19,2.79s-34.93,4.66-40.52-22.35Z"/>
  <path class="st1" d="M657.46,549.67c1.86,0,10.25,3.73,18.16,3.73s9.78-2.33,9.78-2.33l-.93-1.86-27.01.47Z"/>
  <path class="st1" d="M677.95,500.31c1.4,0,13.51.47,13.51.47l1.4-2.79-13.51-1.86-1.4,4.19Z"/>
  <path class="st14" d="M591.65,426.63c2.46-1.64,15.57-35.23,24.58-32.77,9.01,2.46,21.3,29.5,21.3,29.5,0,0-18.84-27.86-21.3-23.76s-24.58,27.04-24.58,27.04Z"/>
  <path class="st14" d="M592.47,332.41c11.47-4.1,23.76-9.01,29.5-4.1s4.92-1.64,4.1-4.1-32.77-8.19-33.59-3.28,0,11.47,0,11.47Z"/>
  <path class="st14" d="M549.05,276.69c2.46,0,21.3,15.57,32.77,15.57s22.94-4.92,21.3-12.29c-1.64-7.37,1.64,0-12.29,3.28s-41.79-6.55-41.79-6.55Z"/>
  <path class="st14" d="M594.93,676.53s27.86,20.48,35.23,28.68c7.37,8.19,23.76,8.19,23.76,8.19,0,0-17.21-17.21-35.23-31.95-18.03-14.75-23.76-4.92-23.76-4.92Z"/>
  <path class="st27" d="M956.07,753.85s453.05-42,480.05-54.01l-2.77-55.27h16.5l1.5,12h10.5v-16.5h19.5l1.5,13.5,12,1.5v-18l12,3,3,48h13.5l-4.5-81,48-19.5,235.49,81,79.5,125.99-19.5,16.5-217.49,12-688.77-69.22Z"/>
  <path class="st14" d="M2015.28,601s29,64,79,90c0,0,42,67,46,73s17,35,15,49-9,25-16,34-37,16-39,32-1,39-1,39c0,0-1,5,8,18s64,26,89,8c0,0,39,5,61-4s23-31,23-43-26-34-31-49,1-53,2-65,2-40-10-66-26-35-27-54-1-32-1-32c0,0-88-53-91-53s-77-14-77-14l-30,37Z"/>
  <path class="st14" d="M1911.7,103.69s-18.34-46.77-21.09-57.78c-2.75-11.01,5.5-20.18-5.5-20.18s-52.27-4.59-61.45,25.68c-9.17,30.26-4.59,51.36-4.59,60.53s-2.75,57.78-2.75,70.62-9.17,39.44,5.5,41.27c14.67,1.83,101.8-98.13,101.8-98.13l-11.92-18.34v-3.67Z"/>
  <path class="st22" d="M1430,700.88s72.2-12.19,96.66-12.34,186.24-13.51,543.88,7.15l-66.23-102.49-447.95-15.04-149.43,72.05,23.07,50.67Z"/>
  <path class="st2" d="M1615.82,651.25s67.46-145.25,68.46-148.25,12-7,16-9,54-92,54-92c0,0,46-12,56-82s9-53,9-56-8-8-8-28,17-111,90-126c0,0,116-133,140-144s68-21,84-20,104-20,127-21,36,39,58,34,80-24,96-29,102-45,217,34,103,51,142,74,59,97,57,201-69,206-77,222-37,68-38,81-47,152-56,176-10,32-4,43,19,36,19,40-5,31-20,33-24-1-24-1c0,0-66,21-82,11s-28-11-28-26-11-18,11-29,41-59,42-67-2-35,6-58,12-44,17-60,5-30,5-30c0,0-51,27-57,28,0,0,11,43,14,54s14,24-2,51c0,0-5,0-15,11s-29,33-30,39,12,51,5,57-21,21-45,21-36-4-36-4l-34,4s-3,44,4,62,32,35,34,43,9,35-7,43-32,10-32,10c0,0-77,27-114-1,0,0-27,1-33-12s-12-33-7-37,41-42,42-58-8-73-7-84-7-51-2-58,25-45,18-59-5-27-14-31-33-21-33-21c0,0-19,21-60,9s-40-31-74-39-68-21-68-21c0,0-34,48-58,70s-96,82-96,82c0,0-12,15-15,18s-3,13-16,15c0,0-31,21-37,21,0,0-13,30-54,15,0,0-5,10-20,9s-65-10-70-18-17-40-25-59-22-50-22-57-3-24-3-24l-8.46-1.75Z"/>
  <path class="st16" d="M1956.63,175.22s-.08-18.62,1.96-23.71c2.04-5.09-.19-2.73,18.22-7.47,18.41-4.74,37.75-22.04,45.89-27.13,8.14-5.09,46.81-33.58,48.85-37.65s29.51-21.37,34.6-21.37,15.87-7.24,15.57-.06c-.31,7.18-13.53,17.36-17.6,29.57-4.07,12.21-16.28,71.23-34.6,82.43-18.32,11.19-45.01,20.99-45.01,20.99,0,0-61.68,33.56-67.87-15.59Z"/>
  <path class="st14" d="M1772.62,711.88s-38.58,14.29-43.58,20.01c-5,5.72-7.86,32.87,3.57,36.44,11.43,3.57,26.44,1.43,29.29-5,2.86-6.43,10.72-51.44,10.72-51.44Z"/>
  <path class="st14" d="M2024.79,189.07c-3.31-3.31,68.2-94.6,66.03-111.89-2.19-17.48,31.18-21.09,31.18-21.09,0,0,2.75,9.17-3.67,16.51-6.42,7.34-14.67,87.12-30.26,95.38-15.59,8.25-55.94,28.43-63.28,21.09Z"/>
  <path class="st14" d="M1956.63,175.22c-.71,9.19-10.09-25.68,2.75-31.18s22.93-6.42,39.44-12.84c16.51-6.42,115.92-101.78,123.2-74.79,0,0-12.23-4.99-59,35.36s-77.04,50.44-86.21,52.27c-9.17,1.83-18.34,7.34-20.18,31.18Z"/>
  <g>
    <g>
      <path class="st21" d="M1204.97,697.21s-1.17,14.53,5.15,22.49c6.33,7.97,16.64,13.12,21.56,18.98,4.92,5.86,7.97,9.84,10.54,12.18s25.77,1.17,29.99-1.41c4.22-2.58,4.92-7.5,2.81-8.44s-9.14-.7-13.82-6.09-18.28-21.32-18.28-21.32c0,0,2.11-17.57,1.17-21.09s-38.66-.47-39.13,4.69Z"/>
      <path class="st21" d="M1382.18,698.63s-9.21,26.69-26.31,27.63c-17.1.94-25.77-.7-34.91.47s-12.89.94-12.18-2.58,5.86-15,10.78-16.87,6.33-1.64,11.25-2.11,7.78-4.03,13.87-4.03-.48-1.36,5.14-9.33c5.62-7.97,32.37,6.82,32.37,6.82Z"/>
      <path class="st25" d="M1413.51,688.54s7.26,4.92,15,7.03,12.89,3.28,15.23,7.26,20.39,24.37,23.67,26.24,5.62,2.58,7.97,2.81,17.34.94,18.04-3.05-7.97-7.73-10.54-11.01-12.65-15.23-16.4-24.6c-3.75-9.37-28.35-30.46-28.35-30.46,0,0-22.73,16.87-23.9,19.21s-.7,6.56-.7,6.56Z"/>
      <path class="st25" d="M1134.91,709.86s-12.42,16.87-18.98,19.92-21.32,2.11-22.73,0-1.27-19.33,5.15-20.39c15.81-2.59,14.81-14.9,16.68-18.41s8.16-21.19,18.7-20.95c10.54.23,1.17,39.83,1.17,39.83Z"/>
      <path class="st25" d="M1141.24,670.5s-8.2-1.87-12.42,1.64-4.22,10.54-2.81,15-.23,14.06,3.51,18.51c3.75,4.45,5.39,4.22,5.39,4.22,0,0,4.45-4.69,7.97-4.69s6.09-1.17,11.95-3.51c5.86-2.34,40.54-12.89,42.88-14.53,2.34-1.64.94-6.8.94-6.8l-57.41-9.84Z"/>
      <path class="st25" d="M1429.68,667.92s1.17,1.41-.94,3.51-14.76,14.29-15,15.7l-.23,1.41s-10.31-7.73-12.65-10.08,28.82-10.54,28.82-10.54Z"/>
      <path class="st21" d="M1133.04,646.13s7.7,20.96,14.06,29.76c15.23,21.09,46.16,9.84,50.61,11.25,4.45,1.41,4.69,3.75,5.86,6.33s1.41,3.75,1.41,3.75c0,0,6.09-2.81,11.72-2.34,5.62.47,21.32-.47,24.37-1.41l3.05-.94s16.4,5.39,30.93,7.26c14.53,1.87,35.15,3.98,57.41-.94,0,0,14.06-2.58,16.64-5.86,0,0,.94,1.64,3.75,1.64,2.81,0-1.64-.47-1.64-.47,0,0,9.61,7.26,16.87,9.61s8.44,2.81,8.44,2.81c0,0,7.26-9.37,7.5-11.01l.23-1.64s15.46-11.01,18.28-13.12,16.17-8.2,24.84-10.54c8.67-2.34,10.78-7.5,10.78-7.5,0,0,5.39.47,13.59-2.81,8.2-3.28,11.48-9.14,11.48-9.14,0,0,4.45.94,6.56-2.11s-1.17-4.92,5.39-6.33l6.56-1.41s18.51,11.72,23.67,13.12l5.15,1.41s2.81,4.45,8.67,4.45c5.86,0,11.95-2.81,11.95-2.81l-20.85-56.47-6.8-21.09s-8.2-17.81-17.57-19.45-59.28,1.41-74.28,6.56c0,0-.94.47-11.72-2.34s-77.56-15.23-117.16-12.65c-39.6,2.58-65.61,11.95-88.1,20.62-22.49,8.67-64.2,51.31-67.01,54.83s-7.26,13.82-9.37,16.87-8.67,14.53-5.15,16.87,7.97,1.87,11.72-2.34,8.2-12.42,8.2-12.42Z"/>
      <path class="st5" d="M1494.12,566.69s1.64-3.98,1.17-5.86-4.45,2.58-4.45,2.58l3.28,3.28Z"/>
      <path class="st5" d="M1518.25,629.02s-2.58.94-2.81,7.26c-.23,6.33,3.28,14.29,7.26,17.1s8.44,3.75,8.44,3.75l-12.89-28.12Z"/>
      <path class="st25" d="M1481.7,570.44s-5.15,5.39-4.69,11.72,5.39,12.89,9.84,14.53,11.25,1.41,11.25,1.41c0,0,4.69,6.8,7.5,7.73s4.22,1.87,4.22,1.87c0,0,4.69,17.57,6.09,19.45l1.41,1.87s-2.34,4.92.47,13.59c2.81,8.67,11.25,15,16.4,15.46,5.15.47,16.64-8.9,18.51-13.82s1.41-13.36-.94-15.7-9.14-3.75-9.14-3.75c0,0-2.58-.47-3.98-1.87s-18.98-20.39-22.49-25.07c-3.51-4.69-18.75-35.15-25.31-34.44-6.56.7-9.14,7.03-9.14,7.03Z"/>
      <path class="st5" d="M1482.4,574.43s2.11-13.59,5.86-13.59c3.75,0,3.98,5.86,3.05,10.08s-5.86,7.97-7.5,6.56-1.41-3.05-1.41-3.05Z"/>
      <path class="st11" d="M1484.98,573.72s.47-10.54,2.58-10.31,2.11,3.75.94,7.03-1.17,3.98-2.58,4.22-.94-.94-.94-.94Z"/>
      <path class="st5" d="M1547.07,629.49s1.64,0,3.28,2.11,2.11,4.69,1.17,4.69-7.03-4.45-4.45-6.8Z"/>
      <path class="st11" d="M1550.59,634.41s-2.11-4.45-2.81-3.75.47,2.81,2.81,3.75Z"/>
      <path class="st5" d="M1499.51,584.5s7.26-6.56,12.89-3.28c5.62,3.28,1.87,13.12.23,15.46s-3.51,6.09-7.97,2.81-7.73-12.65-5.15-15Z"/>
      <path class="st13" d="M1512.86,588.6s0,3.4-1.41,4.33-6.09-.82-5.15-2.58,6.56-1.76,6.56-1.76Z"/>
      <path class="st10" d="M1510.64,588.25s-1.76,4.1-.59,4.92,2.93-1.29,3.51-4.45c0,0-2.46-1.29-2.93-.47Z"/>
      <path class="st25" d="M1506.3,590.36s4.57-1.29,5.62-.82,1.52.82,2.11.12,1.05-2.81-.12-2.93-6.91.35-9.14,2.93,3.63,5.15,5.27,5.27,3.63-.35,3.28-1.52-1.76-.7-3.16-.94-3.87-2.11-3.87-2.11Z"/>
      <path class="st5" d="M1542.85,630.19s-.94,4.1,1.41,5.86,3.16,1.99,2.81,2.23-4.57-.94-5.15-3.63c-.59-2.69.94-4.45.94-4.45Z"/>
      <path class="st25" d="M1411.64,566.69s-3.87,7.62-4.57,10.08,1.54-10.4,1.54-10.4c0,0,2.21.32,3.03.32Z"/>
      <path class="st25" d="M1463.19,650.81c-.58-.12-11.13-1.17-14.06-10.66-2.93-9.49-2.58-28.47-2.58-28.47,0,0,1.64,17.69,3.75,23.67,2.11,5.98,5.74,11.6,10.43,12.89s9.61-.59,9.61-.59c0,0-.47,4.57-7.15,3.16Z"/>
      <path class="st25" d="M1438.12,662.76s-8.32-5.27-11.25-11.01c-2.93-5.74.7,6.09,4.45,9.26s5.15,4.1,5.15,4.1c0,0,.7-.35,1.64-2.34Z"/>
      <path class="st25" d="M1256.96,751.33s-1.04-2.96,3.3-4,4.52,1.22,4.52,1.22c0,0-.35-3.83,3.65-4s4.17.52,4.17.52c0,0,.84-5.3,2.42-4.04s2.45,4.22.36,6.65-2.26,1.57-2.26,1.57c0,0-5.57,3.65-6.96,2.26,0,0-9.22,1.74-9.22-.17Z"/>
      <path class="st25" d="M1314.35,711.85s2.61.35,1.39,3.83l-1.22,3.48s1.57,1.22,1.39,3.65-1.91,2.78-1.91,2.78l2.09,1.74s-8.87.7-8.17-2.78,1.22-1.91,1.22-1.91c0,0-.17-4,.7-4.52l.87-.52s.87-4.87,3.65-5.74Z"/>
      <path class="st25" d="M1092.78,728.89s.52,4.7,3.48,5.22,10.61-5.57,10.09-5.57-8.17-18.78-8.17-18.78c0,0-7.13,2.61-5.39,19.13Z"/>
      <path class="st5" d="M1092.43,720.89s4.7.7,4.87,2.78-2.43,3.65-2.43,3.65c0,0,3.13,1.22,2.96,2.78s-1.04,2.43-1.04,2.43c0,0,3.13,0,2.61,1.04s-5.57,1.22-6.09-.52.35-1.74.35-1.74c0,0-1.57-2.43-1.39-3.65l.17-1.22s-1.04-5.04,0-5.57Z"/>
      <path class="st5" d="M1130.35,697.59s2.96,6.78,4.7,7.83,4,.17,4,.17c0,0-1.57.52-2.78-1.22s-5.91-6.78-5.91-6.78Z"/>
      <path class="st5" d="M1128.43,702.81s1.04,2.61,2.61,3.48,4,.87,4,.87l-2.61,2.78s-3.65-.7-4-7.13Z"/>
      <path class="st5" d="M1102.52,729.42s1.57-5.57,1.22-7.13,1.39-1.22,1.57-.7.7,8-2.78,7.83Z"/>
      <path class="st5" d="M1473.49,722.81s3.48-2.09,5.91-2.09,1.39-1.39,1.39-1.39c0,0-6.96,1.57-7.3,3.48Z"/>
      <path class="st5" d="M1456.1,694.98c.52-.52,6.09-4.17,6.96-4s1.22,1.39,1.22,1.39l-8.17,2.61Z"/>
      <path class="st25" d="M1355.57,717.94s2.78,5.91,4.87,6.09,3.3-1.57,3.3-1.57c0,0-6.78-3.3-6.78-5.74s-.35-4.17-.7-3.65-.7,4.17-.7,4.87Z"/>
      <path class="st25" d="M1322.7,720.55s-2.43,5.91-.7,5.39.7-5.39.7-5.39Z"/>
      <path class="st25" d="M1256.09,743.15s6.09-3.83,7.3-3.65-.35-1.91-.35-1.91c0,0-6.78,4.52-6.96,5.57Z"/>
      <path class="st25" d="M1233.13,716.2c-.83-1.11,7.13-1.57,7.83-1.74s1.39-.17,1.74.52-8,3.3-9.57,1.22Z"/>
      <path class="st25" d="M1485.33,720.28s8.25,1.79,10.17,5.74c1.91,3.95-5.74,5.86-9.21,5.86-3.47,0-.96-11.6-.96-11.6Z"/>
      <path class="st5" d="M1478.75,731.88s-2.03-3.47,2.63-4.78,4.43,2.03,4.43,2.03c0,0,1.91-3.83,4.19-3.11l2.27.72s.72-2.99,1.79-2.63,4.31,4.55.48,5.98c0,0-6.7,2.75-8.25,1.79,0,0-6.58,1.08-7.54,0Z"/>
    </g>
    <path class="st17" d="M1276.36,519.61s16.7-2.15,26.93,0c0,0,7.54,110.96-.54,207.92,0,0-19.39,4.31-26.39,0,0,0-7.54-132.51,0-207.92Z"/>
    <path class="st31" d="M1276.36,727.53s7.48,5.72,26.39,0c0,0,2.04-26.49,1.89-27.74,0,0-21.63,1.88-29.6-.15,0,0,.85,27.04,1.32,27.89Z"/>
    <path class="st31" d="M1274.06,671.4s22.4,2.15,31.77.04c0,0,.64-24.4.54-26.51l-32.98.24s.2,25.53.67,26.24Z"/>
    <path class="st31" d="M1273.03,616.68s31.09-.77,33.43-.07c0,0,.12-25.55-.35-26.73,0,0-28.81-2.81-33.02.23l-.06,26.56Z"/>
    <path class="st31" d="M1273.7,562.25s24.84-2.53,31.64-.19c0,0-.36-27.74-1.29-29.33,0,0-21.07-3.11-28.81-.07,0,0-2.25,28.65-1.55,29.59Z"/>
  </g>
  <path class="st14" d="M1926.37,221.99s24.76,47.69,52.27,49.52c27.51,1.83,41.27-9.17,41.27-14.67s-1.83-10.09-1.83-10.09c0,0-4.59.92-7.34,7.34-2.75,6.42-15.59,11.92-28.43,11.92s-55.94-44.02-55.94-44.02Z"/>
  <path class="st12" d="M1615.82,651.25s-131.48-110.11-136.99-226.58c0,0,6.42-7.34,13.76,0s45.85,33.93,66.95,40.35,114.64,31.18,122.89,33.93c8.25,2.75,21.09,10.09,18.34,25.68-2.75,15.59-19.84,122.03-84.95,126.61Z"/>
  <path class="st12" d="M1760.38,402.66c-6.1-.66-109.13-18.34-132.98-14.67s-39.44,11.01-35.77,18.34c3.67,7.34,99.96,87.12,116.47,94.46,16.51,7.34,64.2-25.68,68.78-44.02s-16.51-54.11-16.51-54.11Z"/>
  <path class="st14" d="M1764.28,802s47.46-22.41,54.79-35.25c0,0,4.59,17.42-7.34,30.26-11.92,12.84-38.05,18.23-47.46,4.99Z"/>
  <path class="st20" d="M1735.61,759.41c0-2.75-11.01-17.42,2.75-22.93,13.76-5.5,31.18-15.59,31.18-15.59,0,0-18.34,41.27-22.01,42.19s-11.92-3.67-11.92-3.67Z"/>
  <path class="st14" d="M1768.63,701.63s-44.02,9.17-49.52,22.01c-5.5,12.84-2.75,41.27-2.75,41.27,0,0-9.17-5.5-9.17-20.18s11.01-34.85,14.67-36.68c3.67-1.83,46.77-6.42,46.77-6.42Z"/>
  <path class="st14" d="M1829.16,738.32s5.5-10.09,11.92-11.92,21.09-8.25,28.43-16.51l7.34-8.25s-20.18,27.51-26.6,28.43-21.09,8.25-21.09,8.25Z"/>
  <path class="st16" d="M1807.15,491.62s-2.75-22.93,16.51-32.1,55.03-7.34,66.03,1.83c11.01,9.17,33.93,44.94,14.67,64.2-19.26,19.26-64.2,22.93-76.12,11.92-11.92-11.01-21.09-45.85-21.09-45.85Z"/>
  <path class="st30" d="M1848.94,493.33c-.38,1.14,1.67,13.67,5.67,13.67s10.33,0,14.33-3.33,8.33-7.67,5.67-10.67c-2.67-3-24.67-2.67-25.67.33Z"/>
  <path class="st26" d="M1841.28,500s2,2.67,5.33,5c3.33,2.33,9,2.33,9,2.33,0,0-7-13-5-16,0,0-10,4.67-9.33,8.67Z"/>
  <path class="st14" d="M1837.61,498s5-11.67,12.67-12.33,13.33-3.33,19-1.33c5.67,2,11,8,9.67,10-1.33,2-3.33.67-7.67.33s-10.67-.33-16.33,0-14,5.67-14,5.67l-3.33-2.33Z"/>
  <path class="st14" d="M1838.94,502.33s5.67,9,15.33,9.67,21.67-6,23-10c1.33-4,2-8,2-8,0,0-3.33-1-8,6.67-4.67,7.67-24.67,4.33-24.67,4.33l-5.33-5-3.33-2.33,1,4.67Z"/>
  <path class="st14" d="M1827.94,512.67s15.33,14,26.67,15.33c11.33,1.33,18,.67,21.67-4.67s3-6.67,3-6.67c0,0-.33,5.67-8,7-7.67,1.33-28-3.33-33.33-7-5.33-3.67-10-4-10-4Z"/>
  <path class="st14" d="M1818.28,513c-.71-.7,15.33,23.67,25,24.33s21.33-.67,22.67-1.67-.67-1-6-1-15,4.67-41.67-21.67Z"/>
  <path class="st14" d="M1820.94,478.67c1-1,4.67-14,16.67-14.33s31.33-.67,33.67,3c0,0-17-2.33-27.67,0-10.67,2.33-14.33,5-17,7.33-2.67,2.33-5.67,4-5.67,4Z"/>
  <path class="st14" d="M2202.32,143.6s4.5,91.5-16.5,134.99c-21,43.5-22.5,131.99-27,157.49-4.5,25.5-14.45,113.08-25.5,127.49-11.05,14.42-45,18-51,19.5s-42.05-2.08-42.05-2.08l-1.45,11.08s-1.5,3,27,3,57-6,75-19.5c18-13.5,46.5-118.49,45-160.49-1.5-42,10.5-90,16.5-116.99,6-27,0-154.49,0-154.49Z"/>
  <path class="st14" d="M2269.82,433.09s-15,90-27,103.49c-2.11,2.38-4.32,4.94-6.51,7.6-10.26,12.44-20.22,26.98-18.98,34.4,1.5,9,3,4.5,7.5,0,4.5-4.5,28.5-31.5,40.5-52.5,12-21,4.5-93,4.5-93Z"/>
  <path class="st14" d="M2271.32,551.58c34.18,4.88,42-28.5,58.5-30s81-7.5,107.99-7.5,40.5,6,40.5,6c0,0,12,4.5,12-6s18-16.5-31.5-16.5-107.99,1.5-125.99,7.5c-18,6-37.5,18-42,24-4.5,6-39,7.5-39,7.5,0,0-1.5,12,19.5,15Z"/>
  <path class="st23" d="M1772.28,798s27.67,6.67,39-23l-39,23Z"/>
  <polygon class="st14" points="2107.07 58.93 2115.91 61.16 2120.47 58.15 2121.24 56.31 2118.72 55.44 2107.07 58.93"/>
  <path class="st1" d="M1638.97,418.57s22.15,17.12,34.24,27.19c12.08,10.07,37.26,19.13,37.26,19.13l20.14-3.02s-12.08,12.08-24.17,13.09c-12.08,1.01-67.47-56.39-67.47-56.39Z"/>
  <path class="st1" d="M1618.83,617.95s42.29-31.22,42.29-47.33,3.02-31.22,3.02-31.22c0,0,8.06,28.19,4.03,37.26s-33.23,41.28-33.23,41.28h-16.11Z"/>
  <path class="st1" d="M1605.74,503.16s11.08,10.07,10.07,21.15-9.06,26.18-9.06,26.18c0,0,22.15,2.01,23.16-13.09,1.01-15.1,1.01-23.16,1.01-23.16l-25.17-11.08Z"/>
  <path class="st14" d="M1677.23,757.92c3.02-3.02,8.06,9.06,16.11-6.04s12.08-27.19,12.08-27.19c0,0-12.08,24.17-19.13,23.16s-9.06,10.07-9.06,10.07Z"/>
  <path class="st14" d="M2066.92,556.53c4.03,1.01,33.23-4.03,39.27-20.14,6.04-16.11,7.05-41.28,7.05-41.28,0,0-1.01,23.16-14.1,33.23s-28.19,13.09-28.19,13.09l-4.03,15.1Z"/>
  <path class="st14" d="M2108.28,602s29.13,17.96,49.27,28.03c20.14,10.07,44.31,10.07,44.31,10.07,0,0,21.15-9.06,1.01-9.06s-55.38-20.14-65.45-25.17c-10.07-5.03-29.13-3.87-29.13-3.87Z"/>
  <path class="st14" d="M2260.25,561.56s31.22,1.01,37.26-13.09c6.04-14.1,10.07-32.22,10.07-32.22,0,0-5.03,16.11-24.17,25.17-19.13,9.06-23.16,20.14-23.16,20.14Z"/>
  <path class="st14" d="M2103.17,426.63l4.03-41.28c15.1-25.17,35.24-58.4,36.25-77.53s15.1,13.09,3.02,31.22c-12.08,18.13-24.17,35.24-27.19,46.32-3.02,11.08-16.11,41.28-16.11,41.28Z"/>
  <path class="st14" d="M1948.1,79.23s37.26,23.16,55.38,18.13c18.13-5.03,22.15-11.08,22.15-11.08,0,0-14.1,15.1-32.22,5.03-18.13-10.07-41.28-26.18-41.28-26.18l-4.03,14.1Z"/>
  <path class="st14" d="M1928.97,161.8s25.17,68.47,45.31,70.49c20.14,2.01,29.2-3.02,29.2-3.02l-5.03-8.06s-5.03,1.01-18.13,0-51.35-59.41-51.35-59.41Z"/>
  <path class="st14" d="M1832.3,181.94s20.14-25.17,28.19-31.22c8.06-6.04,32.22-5.03,34.24-8.06,2.01-3.02-3.02-8.06-7.05-8.06s-33.23,11.08-40.28,20.14c-7.05,9.06-15.1,27.19-15.1,27.19Z"/>
  <path class="st14" d="M2040.28,581s62.23-80.32,69.9-124.45l7.67-44.13s-1.92,51.8-4.8,65.23c-2.88,13.43-39.33,80.58-44.13,93.05-4.8,12.47-13.43,24.94-13.43,24.94l-15.22-14.65Z"/>
  <path class="st9" d="M740.64,664l.38,6.76c.03.61.06,1.27-.23,1.81-.28.52-.82.86-1.36,1.11-4.12,1.99-9.23.76-12.89-1.99s-6.12-6.77-8.26-10.81c-6.27-11.84-10.55-24.62-14.8-37.33-2.3-6.89-4.62-13.84-5.44-21.06-.25-2.16-.35-4.38.2-6.48.67-2.55,2.26-4.76,4.02-6.73,3.23-3.63,7.04-6.55,11.35-8.79-2.89-.29-5.57-1.44-8.08.01-4.79,2.77-7.28,8.49-7.49,14.02s1.53,10.93,3.51,16.1c6.99,18.23,17.15,35.04,27.25,51.74,1.99,3.28,4.26,6.81,7.91,8.01s8.61-1.71,7.73-5.45c-.42-1.78-.23-3.43-.16-5.25"/>
  <path class="st9" d="M746.29,657.12c2.23,4.49,3.27,9.56,3.01,14.56-.08,1.5-.29,3.05-1.09,4.33-1.28,2.06-3.79,2.99-6.18,3.35-4.06.61-8.2-.01-12.2-.95-5.02-1.18-10.07-2.93-13.93-6.34-3.21-2.85-5.39-6.66-7.32-10.5-10.4-20.74-14.88-43.93-17.84-66.94-.32-2.47-.56-5.19.83-7.25.85-1.27,2.21-2.09,3.52-2.88,3.59-2.15,7.25-4.32,11.31-5.29s8.68-.56,11.93,2.08"/>
  <path class="st9" d="M745.8,666.12c5.68,5.82,11.89,11.12,17.34,17.15s10.2,12.95,12.26,20.81"/>
  <path class="st9" d="M741.76,665.37c1.69,7.15,6.42,13.13,10.23,19.42,3.46,5.72,6.24,11.85,8.25,18.22"/>
  <path class="st24" d="M1012.19,634.42l7.25,18.5s-2.75,4-6.75,2.25-8.75-9-8.75-9l1.5-3,6,6.25s2.25,2.75,2.75.5-5-12-5-12l-4.25-3.5h7.25Z"/>
  <path class="st24" d="M1112.19,611.67s-4.25,33-4.25,33.75,3.5,6.25,4.75,6.25,7.75-13.5,7.75-14.25-.25-6.75-.25-6.75c0,0-3.75,8.25-5.5,9.5s-1.75-5.5-1-6.75,4-21.75,4-21.75h-5.5Z"/>
  <path class="st9" d="M1541.61,572.67c26.02,7.36,51.29-15.76,64.84-39.16,4.12-7.12,6.77-14.99,9.02-22.91,2.74-9.68,4.8-20.57,0-29.41-5.23-9.65-14.46-12.45-24.18-7.35,4.3.28,8.6.57,12.9.85.93.06,1.94.16,2.59.83.45.47.62,1.12.77,1.75,4.37,18.81-2.76,38.17-9.76,56.17-2.4,6.17-4.84,12.4-8.59,17.86-9.64,14.04-26.97,21.2-43.94,22.66-2.02.17-5-1.08-4-2.84"/>
  <path class="st9" d="M1519.1,539.67c6.17-1.55,12.34-3.09,18.51-4.64,4.92-1.23,9.88-2.48,14.46-4.64,9.38-4.42,16.71-12.53,21.41-21.77s6.92-19.57,7.84-29.9c.27-3.04.38-6.28-1.13-8.93s-5.26-4.23-7.73-2.45"/>
  <path class="st9" d="M1647.87,456.2c4.69,9.73,7.18,18.66,18.62,14.4,8.06-3,16.76-12.02,21.38-19.03,7.34-11.14,8.84-25.9,3.91-38.29-4.93-12.39-16.17-22.07-29.16-25.12"/>
  <path class="st9" d="M1640.01,450.83c-.93-1.93-3.82-1.13-5.66-.04-12.57,7.42-24.74,15.5-36.44,24.21"/>
  <path class="st9" d="M1496.26,577.89c10.17-2.04,16.6-13.04,26.7-15.37,6.01-1.39,15.11,14.69,20.99,12.81-11.04,7.37-24.21,9.39-24.38,22.67"/>
  <path class="st9" d="M744.21,676.34c139.47-17.6,277.17-46.91,414.67-76.18,115.46-24.58,231.61-49.37,341-93.75"/>
  <path class="st9" d="M1663.64,388.94c-2.04-1.05-4.45-1.36-6.68-.85"/>
  <path class="st9" d="M1648.09,457.97c-1.03-1.42-2.92-1.87-4.66-2.06s-3.6-.27-5.04-1.25-2.14-3.31-.84-4.48"/>
  <path class="st9" d="M1573.63,466.39c-1.27.54-2.64.87-4.02.95"/>
  <path class="st27" d="M1134.87,749.57s10.5-28.5,72-28.5,64.5,13.5,113.99,19.5,155.99,16.5,112.49,25.5-298.49-16.5-298.49-16.5Z"/>
  <path class="st24" d="M810.9,666.57c3.71-.5,30.07,1.93,49.18,2.42,19.12.49,62.97-17.31,68.2-18.45s10.64-5.21,12.94-6.53,17.93-4,17.93-4l3.13,20.08,1.09,5.96s-19.59,6.84-31.06,13.47-13.99,34.45-13.99,34.45l-41.78,8.37s-15.03-29.69-31.95-30.03-26.45-.96-26.45-.96l-7.25-24.77Z"/>
  <polygon class="st12" points="817.16 642.12 821.64 676.5 829.86 676.5 827.62 641.37 817.16 642.12"/>
  <polygon class="st12" points="943.49 618 950.96 647.15 959.19 646.4 954.7 615.76 943.49 618"/>
  <polygon class="st18" points="820.55 657.66 826.67 657.1 825.93 654.69 820.36 655.24 820.55 657.66"/>
  <polygon class="st18" points="949.31 632.03 955.43 631.47 954.69 629.06 949.13 629.61 949.31 632.03"/>
  <path class="st19" d="M888.58,684.63s-14.33-6.25-11.76,2.2,14.7,14.7,14.7,14.7c0,0,9.92-13.23,9.92-16.9s-11.39-5.51-12.86,0Z"/>
  <polygon class="st24" points="997.94 630.92 1002.94 666.92 1008.94 667.92 1005.94 629.92 997.94 630.92"/>
  <polygon class="st24" points="1113.94 608.17 1120.94 655.17 1126.94 655.17 1119.94 606.17 1113.94 608.17"/>
  <path class="st24" d="M1002.94,666.92c6-3,60.25,6.5,66.25,16.5s8.75,7.5,3.75,18.5-71,11-73,5,3-40,3-40Z"/>
  <path class="st24" d="M1126.21,653.34c-6.49-1.7-55.71,19.06-59.52,30.08-3.81,11.02-8.93,8.84-1.78,18.58,7.16,9.74,71.74-3.85,72.47-10.13.72-6.28-11.17-38.53-11.17-38.53Z"/>
  <path class="st19" d="M1066.94,681.67s-3,17.75,3.5,22.75c0,0,2.25-17.25-3.5-22.75Z"/>
  <polygon class="st24" points="1119.44 657.67 1112.44 630.42 1110.94 636.17 1115.19 658.17 1119.44 657.67"/>
  <path class="st24" d="M1004.69,636.67c.25.75,12.5,33,12.5,33l5.25,1.5-16.75-38.25-1,3.75Z"/>
  <polygon class="st12" points="1000.44 641.17 1005.94 640.42 1005.94 614.67 996.94 613.92 1000.44 641.17"/>
  <polygon class="st12" points="1106.19 598.17 1111.69 618.42 1116.19 617.92 1113.19 595.92 1106.19 598.17"/>
  <polygon class="st18" points="1000.44 624.67 1002.94 624.67 1003.44 626.92 1000.69 626.92 1000.44 624.67"/>
  <path class="st4" d="M1444.39,732.32c1.62,0,22.2,1.08,20.04,4.87s-22.74,4.33-51.44,5.96-67.15.54-101.26,1.08-106.14,0-112.09-1.08-49.82.54-39.53-1.08,53.07-6.5,77.98-7.04,81.23-5.42,103.43-5.42,83.39,2.17,88.27,2.17,14.62.54,14.62.54Z"/>
  <polygon class="st18" points="1109.19 605.67 1112.94 604.67 1112.94 606.42 1110.44 607.42 1109.19 605.67"/>
  <path class="st19" d="M1197.1,645.85l25,69.5,15.5-4.5-23-69.5s-10-6.5-17.5,4.5Z"/>
  <path class="st24" d="M1225.1,758.35s-15-29.5-16-36,1-15,16.5-18,21.5-5,28,7,18.5,39.5,18.5,39.5l-3.5,16.5s-16,6.5-18.5,6.5-25-15.5-25-15.5Z"/>
  <path class="st7" d="M1238.1,714.35c-3,0-13,2-12.5,6s11,30.5,11,30.5l13.5,11.5s10.5,1.5,10.5-2.5-2-17-2-17l-15-29.5-5.5,1Z"/>
  <path class="st27" d="M1214.6,766.35c3-.5,6-7.5,14-7.5s10,3,16.5,3,10-4,16.5-4,3.5-9,12-9,17,2.5,18.5,3,24.5,15.5,27.5,18,27.5,9.5,14.5,11-78,5-86,6-34.5-8.5-34.5-8.5l1-12Z"/>
  <path class="st28" d="M1192.1,777.35c7-4.5,7-9.5,12.5-9.5s7,3,10-1.5,6.5-5.5,6.5-5.5l3.5-.5s-5,2.5-5,4-.5,7.5-6,7.5h-9l-12.5,5.5Z"/>
  <path class="st28" d="M1280.1,750.85c9,0,14,4,20,7s7,8.5,17.5,11.5,23.5,9.5,25.5,10.5,20.5,6,21.5,10,4,6,3.5,4,2-11.5-13-16.5-27.5-7-34.5-11-17-12-24.5-15-21.5-5.5-21.5-5.5l-2.5,5h8Z"/>
  <path class="st28" d="M1269.1,775.35c6,0,19.5,2,19.5,3.5s-8,5-10.5,4.5-10.5-4-16.5-5.5-15.5-1-15.5-4.5,4-8,10-4,13,6,13,6Z"/>
  <path class="st28" d="M1297.6,788.85c13.5-.5,23.5-1.5,31,1s11,3,11,4.5,5,7.5-7.5,3-9-6.5-20.5-4.5-15,2-15,2h-12l13-6Z"/>
  <polygon class="st7" points="1134.1 711.85 1109.44 771.85 1188.77 782.52 1200.1 723.19 1134.1 711.85"/>
  <path class="st24" d="M1134.1,711.85s21.33,15.33,66,11.33c0,0-32.67-15.33-66-11.33Z"/>
  <path class="st7" d="M1109.44,771.85s29.75,28.08,79.33,10.67l-79.33-10.67Z"/>
  <path class="st19" d="M1119.85,765.35s28.75,34.75,52.75,31.25,19.63-31.5,19.63-31.5l-1.23,4.39s-.9,9.62-5.65,16.12-18.25,7.25-20.25,6.75-28.5-11.5-40.25-28.5c0,0-5.5-5.75-5,1.5Z"/>
  <path class="st4" d="M853.83,768.28c4.42,0,19.9,4.42,42.02,4.42s19.9,2.21,32.07,3.32,26.54,1.11,26.54,1.11c0,0-5.53,9.95-18.8,6.63s-70.77-5.53-70.77-5.53l-11.06-9.95Z"/>
  <path class="st4" d="M1283.53,734.32c3.32-1.11,92.89-4.42,92.89-4.42l16.59-1.11-6.63,4.42-98.42,8.85-4.42-7.74Z"/>
  <path class="st4" d="M1006.43,766.07c13.27-3.32,66.35,4.42,66.35,4.42,0,0-33.17,3.32-45.34,4.42s-21.01-8.85-21.01-8.85Z"/>
  <path class="st22" d="M695.28,220s-22-94,16-88,50,54,36,70-52,18-52,18Z"/>
  <path class="st22" d="M779.28,222s-38-16-38-42,4-60,34-40,4,82,4,82Z"/>
  <path class="st22" d="M811.28,240s-70.86-62.46-26-66c15.95-1.26,76,18,56,50s-30,16-30,16Z"/>
  <path class="st22" d="M1125.28-34s-12,56,16,78,62,8,62,8c0,0-24,14-10,46s72,36,72,36c0,0-16,14,6,22s62,12,58-12,2-18,22-40,16-70,16-70c0,0-44,20-26,44s76,54,100,34,26-58,26-58c0,0,26,22,50,0s32-82,32-82l-424-6Z"/>
</svg>