<?xml version="1.0" encoding="UTF-8"?>
<svg id="Vrstva_1" xmlns="http://www.w3.org/2000/svg" version="1.1" viewBox="0 0 448 512">
  <!-- Generator: Adobe Illustrator 30.1.0, SVG Export Plug-In . SVG Version: 2.1.1 Build 136)  -->
  <defs>
    <style>
      .st0 {
        fill: #fff;
      }
    </style>
  </defs>
  <path class="st0" d="M259.65,266.68c18.71,0,25.21-11,29.7-22.82,4.53-11.27,4.84-18.97-4.93-18.97-15.08,0-26.26,20.07-31.57,32.17-2.43,5.22.65,9.35,6.81,9.62h-.01Z"/>
  <path class="st0" d="M402.49,32.54H45.58C20.7,32.54.54,52.7.54,77.58v356.92c0,24.87,20.17,45.04,45.04,45.04h356.92c24.88,0,45.04-20.17,45.04-45.04V77.58c0-24.88-20.18-45.04-45.05-45.04ZM132.9,240.4c-7.81,0-11.51,2.8-13.86,9.82l-4.37,13.04-1.02,2.74-7.72,22.41c-.09.24-.2.5-.29.76-.07.19-.1.37-.16.56l-3.21,8.87h.08l-10.5,30.94c-10.53,25.99-22.69,34.53-40.12,34.53-8.27,0-14.55-2.54-18.91-6.79-1.36-1.57-1.61-4.41-1.24-6.06.54-2.43,3.79-8.81,7.73-11.79,2.09-1.58,4.45-2.22,6.7-.03,0,0,0,0,0-.02.54.66,1.29,1.06,2.31,1.06,7.92,0,14.38-14.96,19.51-29.92l18.13-53.9,1.02-2.81,1.17-3.6c2.05-6.32-.68-9.82-7.41-9.82h-14.89c-5.32,0-6.86-3.86-5.09-9.11,2.1-5.61,5.74-10.24,11.76-10.24h14.89c7.81,0,11.51-2.81,13.86-9.82l2.97-8.45,2.76-8.13c11.35-33.38,25.07-45.09,44.45-45.09,8.27,0,14.55,2.55,18.91,6.79,1.55,1.5,1.61,4.08.99,6.2-.69,2.39-4.55,9.66-6.93,11.52-2.07,1.61-5.02,2.36-7.27.17v.02c-.54-.66-1.29-1.06-2.31-1.06-7.92,0-14.38,14.96-19.51,29.92l-.12.34h0l-2.76,8.21c-2.05,6.31.35,9.39,7.09,9.39l5.84-.2c5.32,0,6.34,5.34,4.57,10.6-2.1,5.61-5.21,8.77-11.24,8.77l-5.84.2h0ZM415.67,288.88c-9.48,20.39-20.21,36.28-43.33,36.28-17.17,0-33.48-13.01-20.46-50.94l6.01-18.21c1.46-4.34,1.54-6.5,1.46-7.58-.2-2.81-2.12-5.2-5.39-8.02-4-3.68-7.47-3.04-9.34,1.73-3.92,10.19-8.26,19.44-12.78,28.61-13.73,27.9-36.77,54.41-77.48,54.41-25.21,0-39.03-11.43-42.97-28.6-12.61,17.86-26.18,28.6-45.08,28.6s-33.15-14.52-19.98-53.54l36.03-95.39c2.18-6.72,5.96-9.32,13.22-9.32h10.79c6.61,0,9.03,3.25,7.03,9.32l-38.21,102.11c-8.22,24.5-2.63,26.17-.6,26.17,7.82,0,24.72-15.11,38.17-40.76,6.68-27.25,26.02-56.75,59-56.75,23.77,0,42.77,16.91,31.15,46.39-8.11,19.73-23.91,29.91-56.22,27.53-4.65-.43-7.54,2.39-7.21,7.16.3,7.58,4.02,16.15,21.83,17.03,14.29.71,36.1-11.37,51.82-38.67,3.87-6.73,7.91-16.26,12.03-26.67,2.63-6.5,7.4-15.16,5.2-19.34-1.47-2.17-2.29-4.56-2.48-7.15-.57-8.24,5.25-16.48,11.97-21.25,3.36-2.38,8.18-2.6,11.86-.43l1.84,1.09c5.04,2.81,6.13,5.85,4.49,10.84l-1.48,4.12c-1.64,4.99-.28,8.67,4.33,11.71,11.09,7.58,27.6,17.13,28.48,29.91.18,2.6-.26,5.85-1.9,10.84l-6.01,18.21c-8.42,24.71-2.93,27.74.37,27.75,5.92.02,11.4-7.45,19.88-25.36,4.08-8.59,17.29,1.02,13.98,8.15h0Z"/>
</svg>