<?xml version="1.0" encoding="UTF-8"?>
<svg id="Vrstva_1" xmlns="http://www.w3.org/2000/svg" version="1.1" viewBox="0 0 1190.55 1683.78">
  <!-- Generator: Adobe Illustrator 29.7.1, SVG Export Plug-In . SVG Version: 2.1.1 Build 8)  -->
  <defs>
    <style>
      .st0 {
        fill: #432613;
      }

      .st1 {
        fill: #465660;
      }

      .st2 {
        fill: #efc07d;
      }

      .st3 {
        fill: #c68f3f;
      }

      .st4 {
        fill: #474746;
      }

      .st5 {
        fill: #a28b26;
      }

      .st6 {
        fill: #364f36;
      }

      .st7 {
        fill: #564438;
      }

      .st8 {
        fill: #41672a;
      }

      .st9 {
        fill: #997991;
      }

      .st10 {
        fill: #b5c4c6;
      }

      .st11 {
        fill: #c7be80;
      }

      .st12 {
        fill: #d68016;
      }

      .st13 {
        fill: #d09c43;
      }

      .st14 {
        fill: #1d1d1b;
      }

      .st15 {
        fill: #709238;
      }

      .st16 {
        fill: #c6c6c6;
      }

      .st17 {
        fill: #ca9e67;
      }

      .st18 {
        fill: #3e5c40;
      }

      .st19 {
        fill: #4b694c;
      }

      .st20 {
        fill: #68707a;
      }

      .st21 {
        fill: #9f8096;
      }

      .st22 {
        fill: #4f7f2f;
      }

      .st23 {
        fill: #6d8933;
      }

      .st24 {
        fill: #54616b;
      }

      .st25 {
        fill: #998783;
      }

      .st26 {
        fill: #706f6f;
      }

      .st27 {
        fill: #aa869d;
      }

      .st28 {
        fill: #4a290e;
      }

      .st29 {
        fill: #af90a5;
      }

      .st30 {
        fill: #59361d;
      }

      .st31 {
        fill: #2a1807;
      }

      .st32 {
        fill: #9c8518;
      }

      .st33 {
        fill: #3c1f0c;
      }

      .st34 {
        fill: #777776;
      }

      .st35 {
        fill: #3b2617;
      }

      .st36 {
        fill: #4f2d13;
      }

      .st37 {
        fill: #46702c;
      }

      .st38 {
        fill: #619492;
      }
    </style>
  </defs>
  <path class="st15" d="M740.66,2762.45v10.43l-9.38,6.26s-4.18-5.21-32.34-40.69c-28.18-35.47-97.04-119.98-103.29-147.11-4.19-18.15-6.98-42.83-14-67.19-3.45-12.04-7.95-24.02-14.17-35.06-18.78-33.39-25.05-60.51-28.18-105.37-3.13-44.87-46.95-114.77-49.03-131.46-2.09-16.7,8.34-100.17,8.34-107.47s-16.69-82.42-10.43-135.63c6.26-53.2,68.86-170.06,68.86-170.06,0,0,2.09-32.36,15.65-75.13,13.56-42.77,43.82-95.99,51.12-108.5,7.3-12.53,11.48-22.96,9.4-51.12-2.09-28.18-19.83-79.3-38.61-127.3-18.63-47.58-60.83-116.7-61.54-117.87.64.68,21.24,22.6,45.89,68.84,25.05,46.96,44.87,93.9,60.52,157.54,15.65,63.63,9.38,42.77,4.18,60.51-5.22,17.73-64.7,127.3-66.78,145.03-2.08,17.73-2.08,48-10.43,61.55-8.35,13.56-51.12,119.98-58.43,147.11-7.3,27.12-11.48,38.6-1.05,107.45,10.43,68.87-1.05,76.18-3.13,125.2-2.09,49.04,25.04,70.95,39.64,107.79,14.61,36.84,17.73,104,21.91,117.57,4.18,13.56,22.96,30.26,28.17,62.6.72,4.5,1.53,8.96,2.42,13.38,5.56,27.34,14.51,53.15,28.89,77.39,16.69,28.17,115.81,145.02,115.81,151.29Z"/>
  <rect class="st10" x="-24" y="-19" width="1240" height="1726"/>
  <path class="st36" d="M727.4,560.73s-17.02,4.18-23.45,14.72c-6.43,10.54-9.54-2.11-16.95,10.54-7.4,12.65-10.57,37.95-22.16,45.33-11.6,7.38-23.91-1.05-37.26,12.65-13.35,13.71-14.78,14.76-29.88,32.68-15.1,17.92-47.78,6.33-60.43,26.36-12.65,20.03-26.92,38.62-19.26,55.68,7.66,17.06,3.48,26.05-3.92,41.06-7.4,15.01-18.99,18.17-14.78,32.93,4.22,14.76,26.85,23.27,18.7,54.33-8.15,31.06-8.15,48.98,12.93,61.64,21.08,12.65,27.02,36.9,33.54,51.66,6.52,14.76,20.9,24.25,33.21,36.9,12.31,12.65,8.1,22.14,20.75,35.84,12.65,13.71,50,13.71,59.26,22.14,9.26,8.43,32.29,21.08,62.94,15.81,30.66-5.27,56.04-13.71,78.14-15.81,22.1-2.11,45.29-53.77,64.27-69.58,18.98-15.81,42.17-22.14,65.36-29.52,23.19-7.38,29.52-9.49,37.95-25.3,8.43-15.81,14.76-52.57,23.19-80.05,8.43-27.48,22.14-41.19,30.57-62.27,8.43-21.08,12.65-21.34,14.76-55.48,2.11-34.14,7.38-52.06-13.71-75.25-21.08-23.19-113.86-55.88-124.4-73.8-10.54-17.92-63.25-44.28-85.39-44.28s-43.03-19.96-55.78-18.94-48.23,0-48.23,0Z"/>
  <path class="st28" d="M581.42,847.41s83.13,91.75,128.19,100.34,76.86-8.44,103.63-2.59c26.77,5.85,78.68-17.89,119.39-35.35,40.71-17.47,89.01-91.13,89.01-91.13,0,0,10.68,11.27-9.47,41.8-20.16,30.53-15.77,61.13-24.06,68.89-8.29,7.76,1.73,45.34-19.6,48.62-21.33,3.28-35.28,6.22-64.27,16.5s-38.11,45.97-55.56,55.67c-17.45,9.7-11.15,37.57-56.61,38.33-45.46.75-81.4,3.9-121.4-16.12-39.99-20.02-78.68-48.86-93.34-85.78-14.66-36.91-19.54-73.13-27.97-96.55s-6.56-62.58-6.56-62.58l38.62,19.96Z"/>
  <path class="st37" d="M548.53,279.19s-2.89,21.9-4.55,54.55c-1.65,32.65-.83,85.96,9.51,109.93,10.33,23.97,12.81,25.21,12.81,25.21,0,0-3.31-27.28,0-36.78s-5.37-104.14-7.44-122.33c-2.07-18.18-10.33-30.58-10.33-30.58Z"/>
  <path class="st8" d="M552.25,307.09s2.8,67.15,3.65,73.51c.86,6.37-.96-78.13-.96-78.13l-2.7,4.62Z"/>
  <path class="st18" d="M673.4-19.35s-46.59,56.96-21.17,60.84c25.43,3.88,29.96-47.1,28.54-55.7s-7.38-5.14-7.38-5.14Z"/>
  <path class="st18" d="M591.92,97.32s8.03-2.81,17.27-10.91c9.24-8.1,1.09-85.23-13.59-85.23s-22.77,46.45-15.53,71.17c7.24,24.72,11.84,24.97,11.84,24.97Z"/>
  <path class="st15" d="M94.06-31.15s-11.19,43.28-24.8,39.87c-13.61-3.41-25.64-16.2-14.37-17s12.28,3.12,10.57,4.6c-1.71,1.48-6.13.52-6.13.52,0,0,4.79.1,4.84-2.03.05-2.13-9.11-3.76-11.34-1.38s3.93,7.48,9.07,10.2,9.31,4.94,14.54.64C81.68,0,87.17-15.41,88.67-19.02s6.42-21.35,6.42-21.35l-1.03,9.23Z"/>
  <path class="st0" d="M55.65,905.25s30.39,17.9,28.06,23.17c-2.34,5.27-28.06,11.11-46.76,6.44s-33.9-9.2-35.07-13.95,53.77-15.66,53.77-15.66Z"/>
  <path class="st0" d="M537.12,814.2s-8.85,20.76,0,41.87c8.85,21.11,10.11,43.55,11.69,53.73s-2.84,24.93,10.44,50.02c13.28,25.08,48.69,46.76,48.69,70.82s12.12,19.92,42.95,33.57c30.83,13.65,39.71,13.66,47.07,20.29,7.36,6.63,67.81,0,67.81,0,0,0-66.95-4.23-88.04-28.31-21.09-24.08-28.03-32.93-28.25-44.73-.22-11.8,23.83-25.08,0-38.36-23.83-13.28-37.11-33.94-45.96-51.64-8.85-17.71-16.04-72.28-5.81-84.83,10.23-12.55-34.89-9.97-34.46-32.66.43-22.68,12.23-62.52,12.23-62.52,0,0-54.59,36.33-38.36,72.76Z"/>
  <path class="st15" d="M740.66,554.45v10.43l-9.38,6.26s-4.18-5.21-32.34-40.69c-28.18-35.47-97.04-119.98-103.29-147.11-4.19-18.15-6.98-42.83-14-67.19-3.45-12.04-7.95-24.02-14.17-35.06-18.78-33.39-25.05-60.51-28.18-105.37-3.13-44.87-46.95-114.77-49.03-131.46-2.09-16.7,8.34-100.17,8.34-107.47s-16.69-82.42-10.43-135.63c6.26-53.2,68.86-170.06,68.86-170.06,0,0,2.09-32.36,15.65-75.13,13.56-42.77,43.82-95.99,51.12-108.5,7.3-12.53,11.48-22.96,9.4-51.12-2.09-28.18-19.83-79.3-38.61-127.3-18.63-47.58-60.83-116.7-61.54-117.87.64.68,21.24,22.6,45.89,68.84,25.05,46.96,44.87,93.9,60.52,157.54,15.65,63.63,9.38,42.77,4.18,60.51-5.22,17.73-64.7,127.3-66.78,145.03-2.08,17.73-2.08,48-10.43,61.55-8.35,13.56-51.12,119.98-58.43,147.11-7.3,27.12-11.48,38.6-1.05,107.45,10.43,68.87-1.05,76.18-3.13,125.2-2.09,49.04,25.04,70.95,39.64,107.79,14.61,36.84,17.73,104,21.91,117.57,4.18,13.56,22.96,30.26,28.17,62.6.72,4.5,1.53,8.96,2.42,13.38,5.56,27.34,14.51,53.15,28.89,77.39,16.69,28.17,115.81,145.02,115.81,151.29Z"/>
  <path class="st15" d="M498.11,16.3l-5.81-9.07s-17.94-5.01-22.81-8.3c-4.87-3.29-111.06-69.85-117.88-71.89-6.82-2.04-90.33-34.09-101-36.4-10.67-2.31-85.3-.61-97.31.69-12.01,1.31-55.91,49.31-58.06,56.66-2.15,7.35-1.31,55,2.03,60.19,3.34,5.19,23.38,10.65,28.54,2.28s-4.02-9.8-4.02-9.8c0,0,5.26,1.6,4,6.47s-6.53,6.94-16.73,4.82c-10.2-2.12-10.32-5.86-11.73-16.06-1.41-10.2-1.35-42.77,1.13-47.55,2.48-4.77,40.18-50.67,54.89-52.79,14.7-2.12,81.35-3.37,94.49-.52,13.14,2.85,83.46,32.57,102.75,41.57,19.29,9.01,122.4,73.4,129.71,80.87,7.31,7.47,15.95,19.96,15.95,19.96l1.85-21.12Z"/>
  <path class="st15" d="M563.25,268.48s-22.88-10.14-44.82-15.57c-21.94-5.43-39.63-5.19-54.02-12.03s-98.02-28.88-129.03-32.55c-14.77-1.75-40.11-3.61-67.95,6.06-27.84,9.67-39.62,33.33-32.78,45.36,6.84,12.03,14.15,14.63,18.16,9.91,4.01-4.72-2.12-11.32-2.12-11.32,0,0,6.37,4.48,3.54,12.5s-14.56,1.18-21.2-10.14c-6.64-11.32.91-39.16,37.48-50.48,36.56-11.32,76.19-3.77,84.92-2.36,8.73,1.42,94.59,21.23,104.03,24.53,9.44,3.3,15.1,4.95,28.78,7.78,13.68,2.83,56.61,11.32,63.46,13.92,6.84,2.59,9.91,3.77,9.91,3.77l1.65,10.62Z"/>
  <path class="st15" d="M550.32,163.86s15.03-29.46,32.47-45.7c17.44-16.24,83.75-83.88,108.47-98.32,24.72-14.43,52.68-38.79,74.63-42.69,21.95-3.91,80.88-2.1,95.01,2.1,14.13,4.21,35.48,16.24,35.48,16.24,0,0-18.04-13.83-34.88-17.74-16.84-3.91-78.17-6.43-99.82-2.76s-81.48,46.96-109.44,66.5c-27.96,19.54-86.59,81.78-93.21,89-6.61,7.22-16.24,13.53-16.24,13.53l7.52,19.84Z"/>
  <path class="st18" d="M465.53,208.96s10.52.9,28.56,16.84c18.04,15.94,27.96,21.95,44.5,29.77,16.54,7.82,24.09,9.27,24.09,9.27,0,0-10.26-14.13-21.69-27.94-11.43-13.8-19.54-27.94-39.39-33.65-19.84-5.71-36.08,5.71-36.08,5.71Z"/>
  <path class="st5" d="M740.66,554.45v10.43l-9.38,6.26s-4.18-5.21-32.34-40.69c-28.18-35.47-97.04-119.98-103.29-147.11-4.19-18.15,4.98,14.59-2.04-9.77,3.54,2.49,8.56-7.03,11.68-5.01,1.13.72-.08,3.54,1.03,4.24,5.56,27.34,4.17,6.12,18.55,30.36,16.69,28.17,115.81,145.02,115.81,151.29Z"/>
  <g>
    <path class="st13" d="M723.33,561.16s11.59,12.2,11.59,19.72,9.92,13.83,15.94,22.25c6.01,8.42,10.82,28.26,1.5,54.72-9.32,26.46-19.54,32.47-21.35,38.18-1.8,5.71-6.61,30.97-15.33,51.71-8.72,20.75-5.11,36.98-2.1,46.6,3.01,9.62,11.43,11.12,21.35,9.92,9.92-1.2,14.07-2.6,22.67.36,8.6,2.95,11.61-.05,11.61,14.08s-20.14,49.01-32.17,61.33c-12.03,12.33-13.53,11.73-22.85,19.84-9.32,8.12-20.44,16.24-20.44,16.24,0,0,27.06-17.74,36.38-24.05,9.32-6.31,30.97-35.18,37.58-47.2,6.61-12.03,8.12-26.46,7.52-34.88-.6-8.42,3.31-11.12-4.81-15.94-8.12-4.81-14.73-4.21-20.44-3.61-5.71.6-9.02,3.91-16.84.6-7.82-3.31-11.43-3.01-12.33-7.82s-2.41-12.33,0-19.24c2.41-6.92,9.62-24.05,11.43-30.67s8.42-29.46,13.53-37.28c5.11-7.82,15.63-33.67,19.24-44.8s1.8-29.46,1.8-40.29-15.33-36.32-16.54-39.81c-1.2-3.49-5.05-20.03-9.59-25.74-4.54-5.71-11.26-7.46-11.26-7.46,0,0-3.51,1.44-3.51,5.35s2.71,9.02.6,10.52c-2.1,1.5-5.43,4.17-3.17,7.34Z"/>
    <path class="st3" d="M727.4,560.73s8.72,9.32,10.52,15.94c1.8,6.61,1.2,9.62,5.11,12.63,3.91,3.01,12.93,12.93,15.63,26.46,2.71,13.53.9,30.97-3.31,41.19-4.21,10.22-18.29,34.28-20.68,39.69-2.4,5.41-12.39,36.48-13.29,44.8-.9,8.32-11.1,20.14-9.31,31.57,1.79,11.43.75,22.84,7.88,25.25,7.13,2.41,6.83,1.72,17.96,2.06,11.12.35,18.94-.55,23.75,1.55s7.33,3.31,8.18,9.02c.84,5.71,5.47,6.01,0,19.24l-5.47,13.23s10.97-18.94,10-26.16-1.88-8.12-3.38-13.23c-1.5-5.11-6.61-5.41-15.63-6.92s-18.81-.6-25.49-1.2c-6.68-.6-10.29-4.44-11.79-9.13-1.5-4.7-3.61-17.32-2.1-23.34s10.22-14.66,9.32-21.16c-.9-6.5,9.62-39.88,12.63-45.29,3.01-5.41,15.94-24.65,21.05-41.79,5.11-17.14,7.82-26.76,2.71-42.69-5.11-15.94-12.03-19.54-16.24-27.06-4.21-7.52-8.76-17.14-10.24-24.65-1.49-7.52-2.99-13.23-2.99-13.23v-4.21s-1.37,4.51-2.34,9.62c-.97,5.11-2.47,7.82-2.47,7.82Z"/>
    <path class="st13" d="M761.68,649.73s7.22,24.05,6.61,36.68c-.6,12.63-4.21,21.35-13.83,29.46s-19.71,11.27-23.58,21.59c-3.87,10.32-9.19,13.59-13.4,19.9s-11.73,11.43-13.23,23.75c-1.5,12.33,8.42,27.66,8.42,27.66,0,0-12.93-17.44-10.22-30.97,2.71-13.53,9.02-17.44,15.63-24.95,6.61-7.52,16-28.26,22.58-32.47s17.71-8.72,21.32-20.44c3.61-11.73,3.01-25.86.6-34.28-2.41-8.42-3.61-10.52-3.61-10.52l2.71-5.41Z"/>
    <path class="st13" d="M754.91,668.89s5.27,25.34,14.89,26.54c9.62,1.2,17.14-3.01,24.05-3.01s21.35,8.72,30.37,22.25c9.02,13.53,12.63,30.97,14.73,47.5,2.1,16.54-24.05,48.11-33.37,64.64-9.32,16.54-15.03,24.35-13.83,36.38,1.2,12.03-18.94,21.35-18.94,21.35,0,0,15.33-7.82,16.54-19.54s3.91-23.75,12.33-36.98c8.42-13.23,28.86-42.99,31.57-53.82,2.71-10.82,3.91-16.24.6-28.56-3.31-12.33-10.42-24.75-13.83-32.47s-15.51-15.94-23.99-17.14c-8.48-1.2-21.34,5.11-27.69,4.51-6.35-.6-10.26-8.42-12.36-11.73-2.1-3.31-5.71-9.92-5.71-9.92l4.65-10.01Z"/>
    <path class="st13" d="M740.66,694.53s-3.94-4.81-13.56-4.51c-9.62.3-13.53-3.01-25.86,17.44-12.33,20.44-16.84,32.47-16.24,48.71.6,16.24,2.57,29.46,6.25,45.4s17.51,42.99,24.72,50.81c7.22,7.82,12.46,11.57,15.94,20.44,0,0-4.51-5.71-13.23-14.43s-22.55-34.88-26.16-44.8c-3.61-9.92-9.92-45.1-9.92-57.13s0-23.15,13.53-45.7c13.53-22.55,18.64-22.85,24.05-23.75,5.41-.9,13.23-.9,16.99,0,3.76.9,5.62,3.91,3.49,7.52Z"/>
    <path class="st13" d="M737.93,700.54s-14.43,4.51-28.86,4.51-15.94,2.41-26.46-4.51c-10.52-6.92-15.03-11.73-21.65-18.64-6.61-6.92-16.24-10.52-16.24-10.52,0,0,7.82,5.26,16.54,14.96,8.72,9.7,21.95,19.02,27.66,20.52s18.04,1.5,27.06,1.2c9.02-.3,18.7-2.1,18.7-2.1l3.25-5.41Z"/>
    <path class="st13" d="M734.01,716.17s-12.62,2.1-25.25,2.71c-12.63.6-13.53-1.2-31.57-1.5s-25.86-.3-34.28,4.21c-8.42,4.51-13.83,6.92-17.44,14.13-3.61,7.22-1.8,12.63-1.8,12.63,0,0,1.2-7.64,4.51-13.83,3.31-6.19,20.48-12.92,26.76-15.03s22.85.3,31.27.3,14.16,2.1,25.87,1.8c11.71-.3,20.13-1.8,20.13-1.8l1.8-3.61Z"/>
    <path class="st13" d="M730.44,727.99s-8.75,7.13-20.47,9.83c-11.73,2.71-10.06,5.11-18.71,2.1-8.65-3.01-7-6.01-13.54-2.41s-6.84,4.21-15.56,8.12-15.63,8.72-28.56,16.24c-12.93,7.52-48.71,14.43-48.71,14.43,0,0,36.38-6.31,49.91-12.63,13.53-6.31,21.95-13.23,32.47-18.04,10.52-4.81,11.6-6.11,15.33-5.71,3.74.4,6.01,4.51,15.94,3.61,9.92-.9,13.84-2.39,17.44-4.21s14.46-5.69,14.46-5.69v-5.65Z"/>
    <path class="st13" d="M714.48,767.89s-6.31,2.1-21.65,0c-15.33-2.1-14.43-9.32-36.68-2.1-22.25,7.22-27.66,7.52-40.89,6.61-13.23-.9-18.04-2.34-30.37-3.57-12.33-1.24-36.08,3.57-36.08,3.57,0,0,26.16-5.78,37.28-4.69,11.12,1.09,25.26,4.99,42.39,2.29,17.14-2.71,40.2-10.25,47.2-10.52,7-.27,11.62,5.15,21.65,5.41,10.02.26,18.64-1.5,18.64-1.5l-2.41,2.73.9,1.78Z"/>
    <path class="st13" d="M727.4,735.12s.68.11,1.71.46c3.1,1.04,9.41,4.2,10.32,12.77,1.2,11.43,4.51,24.35,10.52,27.66,6.01,3.31,15.94,2.71,21.05,9.32,5.11,6.61,9.92,10.82,21.65,9.32,11.73-1.5,33.07-3.6,35.18.3,2.1,3.9,24.95,15.93,24.95,15.93,0,0-18.64-8.99-22.85-12.03-4.21-3.04-3.91-4.81-13.53-3.91-9.62.9-26.76,1.61-34.28,2.1-7.52.49-10.82-9.92-15.33-12.03-4.51-2.1-19.84-2.71-22.25-8.72-2.41-6.01-4.81-10.52-6.61-20.14-1.8-9.62-4.38-14.33-8.07-16.21-.35-.18,8.64,2.45-3.29-1.01l.84-3.82Z"/>
    <path class="st13" d="M744.54,692.12s26.4,24.95,31.09,29.16c4.69,4.21,7.39,17.74,14.01,24.65,6.61,6.92,15.03,11.73,21.35,16.54,6.31,4.81,13.53,10.28,13.53,10.28,0,0-20.14-13.59-26.76-17.5s-9.02-6.92-13.23-14.13c-4.21-7.22-9.92-15.94-12.93-19.84-3.01-3.91-30.94-26.76-30.94-26.76l3.88-2.41Z"/>
    <path class="st13" d="M872.02,803.97s14.73-17.44,4.81-27.66c-9.92-10.22-17.74-10.52-26.16-18.94s-20.44-25.56-28.56-26.76c-8.12-1.2-20.14-5.11-27.06-4.81-6.92.3-23.45-4.51-23.45-4.51l-1.75-1.84s16.21,2.51,24.81,4.85c8.6,2.34,17.83.06,25.35,2.74,7.52,2.68,18.94,14.7,25.26,21.32,6.31,6.61,11.12,13.23,18.94,16.24,7.82,3.01,17.44,7.52,18.34,21.35.9,13.83-10.52,18.04-10.52,18.04Z"/>
    <path class="st13" d="M714,758.75s9.31,6.19,20.68,7.36c11.36,1.18,18.28-17.16,37.22-22.88,18.94-5.71,53.22-15.94,66.15-13.83,12.93,2.1,46,5.41,58.03,18.64,12.03,13.23,12.63,32.77,7.22,42.39,0,0,4.21-6.01,5.11-16.24.9-10.22-3.61-23.15-12.63-29.77-9.02-6.61-48.04-16.76-56.71-17.41-8.67-.65-32.89,3.88-49.13,8.09-16.24,4.21-27.06,8.42-33.67,13.23-6.61,4.81-14.47,11.99-21.06,13.36-6.6,1.37-17.98-7.31-17.98-7.31l-3.22,4.35Z"/>
    <path class="st13" d="M726.08,791.6s-17.62,4.25-34.76,4.25-17.44-11.43-39.39-8.72c-4.41.54-10.1,1.46-16.36,2.59-24.93,4.47-59.1,12.15-59.1,12.15l65.84-11.43s10.22-3.31,16.84-2.1c6.61,1.2,16.15,9.96,32.17,9.92s43.36-3.27,43.36-3.27l-8.6-3.38Z"/>
    <path class="st13" d="M738.79,801.86s-4.17,11.12.64,21.05,15.63,13.67,17.74,24.35c2.1,10.69,22.25,60.73,22.25,60.73l-25.26-62.24s-4.75-9.32-13.5-15.94c-8.75-6.61-6.95-27.96-6.95-27.96h5.07Z"/>
    <path class="st13" d="M766.49,840.65s8.72,21.05,18.94,30.37c10.22,9.32,19.84,11.73,25.56,20.44,5.71,8.72,7.82,33.37,7.82,33.37,0,0-4.21-30.37-12.03-35.48-7.82-5.11-23.15-16.24-27.36-21.65-4.21-5.41-15.03-24.35-15.03-24.35l2.1-2.71Z"/>
    <path class="st13" d="M768.33,837.34s-18.08-2.1-29.5.9c-11.43,3.01-14.13,1.5-30.07,7.82-15.94,6.31-36.38,14.13-46.6,16.84-10.22,2.71-34.58,12.63-34.58,12.63,0,0,43.6-13.53,46.9-14.73,3.31-1.2,35.48-13.23,41.49-15.03,6.01-1.8,24.35-4.21,27.96-5.11s18.44,0,18.44,0h4.11l1.84-3.31Z"/>
    <path class="st13" d="M764.39,848.47s13.53,25.26,16.54,34.88c3.01,9.62,6.16,26.46,6.16,26.46,0,0-8.42-27.96-11.35-34.28-2.93-6.31-14.06-27.06-14.06-27.06h2.71Z"/>
    <path class="st13" d="M756.49,856.07s-9.24,6.52-19.77,9.53c-10.52,3.01-15.91-.9-24.64,3.61-8.73,4.51-7.8,11.73-14.13,18.34-6.33,6.61-20.24,12.93-20.24,12.93,0,0,20.52-8.72,22.93-12.03,2.41-3.31,7.22-16.54,15.33-18.94,8.12-2.41,13.53.6,21.95-1.8,8.42-2.41,18.56-9.92,18.56-9.92v-1.71Z"/>
    <path class="st13" d="M750.26,867.11s7.82,9.92,7.82,14.13-1.36,11.43-1.58,14.13c-.22,2.71-5.64,6.31-9.84,12.63-4.21,6.31-5.08,13.83-5.08,13.83,0,0,3.61-8.72,8.25-13.83,4.65-5.11,9.76-10.82,9.76-13.53s-.9-10.22,0-12.93c.9-2.71-2.26-6.61-3.08-8.72-.83-2.1-3.53-9.92-3.53-9.92l-2.71,4.21Z"/>
    <polygon class="st13" points="729.88 887.02 702.08 894.47 729.88 888.75 729.88 887.02"/>
    <path class="st13" d="M737.03,880.03s2.71,12.03.9,16.24c-1.8,4.21-5.71,13.53-5.71,13.53,0,0,7.28-7.82,8.45-13.23,1.17-5.41-1.23-16.54-1.23-16.54h-2.41Z"/>
    <polygon class="st13" points="714.18 899.88 693.73 905.59 714.18 902.66 714.18 899.88"/>
    <path class="st13" d="M774.38,801.86s11.35,2.1,12.7,11.43-1.65,11.43,5.86,16.54c4.65,3.16,8.39,7.94,11.12,12.12,1.68,2.57,2.99,4.91,3.91,6.52,2.41,4.21,7.52,17.74,7.52,17.74,0,0-16.84-31.57-25.86-35.78-9.02-4.21-2.1-11.73-5.41-18.04-3.31-6.31-13.23-8.42-13.23-8.42l3.38-2.1Z"/>
    <path class="st13" d="M752.01,794.29s-5.06,19.9-7.17,25.91c-2.1,6.01-1.67,10.22-14.97,10.22s-13-1.2-21.41,3.61c-8.42,4.81-22.25,9.02-22.25,9.02,0,0,26.16-10.22,31.87-10.52,5.71-.3,15.4,1.5,22.58-2.71s6.58-8.42,7.49-13.53c.9-5.11,9.01-22.01,9.01-22.01h-5.15Z"/>
    <path class="st13" d="M718.08,786.72s-9.32,3.73-9.02,10.34c.3,6.61-.74,22.95-6.99,32.52s-13.76,12.27-20.97,15.88c-7.22,3.61-27.06,4.51-27.06,4.51,0,0,35.78,4.81,49.91-19.84,14.13-24.65,4.51-38.18,12.03-39.69,7.52-1.5,2.1-3.72,2.1-3.72Z"/>
  </g>
  <path class="st13" d="M793.25,943.39s7.59,14.76,7.59,34.79-6.18,53.77-6.18,53.77c0,0,.95-53.09,2.38-63.25,1.43-10.16-9.96-21.08-9.96-21.08l6.16-4.22Z"/>
  <path class="st13" d="M626.21,943.39c-2.74,0-22.33,13.98-26.18,29.83-3.85,15.85-5.03,30.76-5.03,41.95v26.1l-5.34,14.92s14.93-15.57,10.36-34.49c-4.57-18.92-2.19-39.16,5.03-49.41,7.22-10.25,27.34-25.17,27.34-25.17l-6.19-3.73Z"/>
  <path class="st36" d="M627.59,862.9c25.66,8.8,37.03,10.67,43.58,24.13,6.55,13.46,24.45,10.9,32.78,15.71,8.33,4.81,22.77,17.56,21.35,19.09s-17.03,11.02-21.35,11.02-34.9,6.12-42.8-8.01c-7.91-14.13-11.07-19.82-23.72-24.35s-21.75-9.41-24.58-15.94c-2.83-6.52,14.73-21.65,14.73-21.65Z"/>
  <path class="st13" d="M882.6,828.47s-18.4,21.69,0,37.73c18.4,16.04,42.65,30.04,50.03,43.6,0,0-1.61-9.48-12.94-17.44-11.32-7.96-30.2-23.18-37.09-29.46-6.88-6.28-3.96-18.35-3.01-22.25s5.19-8.61,5.19-8.61l-2.18-3.56Z"/>
  <path class="st36" d="M815.5,930.17c3.22-.47,16.43-.94,13.6-16.04-2.83-15.1-10.38-24.06-6.61-33.5,3.77-9.44,16.04-31.31,6.61-30.28-9.44,1.03-14.19-3.77-14.88,12.55-.69,16.32.25,22.72-4.94,32.02s-12.74,14.69-6.61,21.2c6.13,6.5,12.82,14.05,12.82,14.05Z"/>
  <path class="st13" d="M956.48,808.78c5.7.89,22.65,2.12,28.78,11.27,4.78,7.13,9.85,10.95,13.64,13.98,1.07.86,2.04,1.65,2.88,2.44,3.77,3.58,8.49,8.6,10.38,13.87,0,0-22.65-16.94-25-21.87-2.36-4.93-3.77-10.59-10.38-12.01-6.61-1.42-25.48-5.58-25.48-5.58,0,0,1.02-2.75,5.19-2.1Z"/>
  <polygon class="st13" points="966.39 836.62 966.39 814.2 970.17 814.2 966.39 836.62"/>
  <path class="st13" d="M756.49,1041.04s-.05-25.95,7.97-38.21c8.02-12.27,32.65-37.13,32.65-37.13v-7.69s-19.11,23-26.12,29.66c-7.01,6.66-18.13,23.56-15.63,29.78s1.13,23.59,1.13,23.59Z"/>
  <path class="st36" d="M584.89,1104.41s16.25-1.48,20.39,14.75-3.87,22.13-10.19,28.03c-6.33,5.9-18.65,13.28-32.41,5.9-13.76-7.38-15.23-10.22-31.46-22.82-16.23-12.6-25.08-17.09-25.08-25.91s-2.78-16.2,11.89-17.67c14.67-1.48,26.25-2.95,30.79,0,4.54,2.95,1.74,2.49,15.68-1.7,13.94-4.2,20.4,19.41,20.4,19.41Z"/>
  <path class="st36" d="M852.78,1091.13s-24.56.94-13.71,21.13c10.85,20.19,10.42,30.8,5.47,43.94-4.95,13.14-17.47,11.66-11.95,19.04,5.52,7.38,14.37,11.8,29.13,8.85,14.75-2.95,40.47-23.32,46.79-27.89,6.32-4.57,1.05-15.48,0-35.85-1.05-20.36,14.33-20.35,0-35.85-14.33-15.5-21.27-24.35-25.92-18.45s-4.33,29.51-8.18,33.94-21.64-8.85-21.64-8.85Z"/>
  <path class="st36" d="M951.3,1166.38s-9.28,20.66,0,25.08c9.28,4.43,7.8,8.85,18.87,0,11.07-8.85,22.38-2.95,11.56-25.08-10.82-22.13-15.25-26.56-24.1-25.08-8.85,1.48-6.33,25.08-6.33,25.08Z"/>
  <path class="st36" d="M920.74,1185.01s13.43,4.98,11.88,19.73c-1.55,14.75-6.34,19.18-17.96,13.28s-13.6-14.25-11.14-15.24c2.46-.99,7.53.38,5-6.21-2.53-6.59,12.22-11.56,12.22-11.56Z"/>
  <path class="st36" d="M970.17,1229.83s22.87-7.38,24.35,7.38c1.48,14.75-3.45,20.66-12.79,23.61-9.34,2.95-24.96-5.9-30.43,0-5.47,5.9-15.8,17.71-26.13,7.38s-21.02-6.61-10.51-18.06c10.51-11.45.58-9.97,18.09-12.92,17.5-2.95,37.42-7.38,37.42-7.38Z"/>
  <path class="st36" d="M1075.67,875.52s-20.66,3.14-10.33,22.32c10.33,19.18,8.85,20.99,10.33,36.32,1.48,15.33-4.43,38.93,7.38,43.36,11.8,4.43,29.51,22.13,32.46,0,2.95-22.13-4.43-26.22,0-43.36,4.43-17.14,14.75-24.02,13.28-47.14s1.48-35.7-7.38-46.38c-8.85-10.67-5.9-16.84-19.18-15.23-13.28,1.61-20.66-2.08-22.13,8.62-1.48,10.7-22.43,2.75-23.02,16.31s20.07,32.39,20.07,32.39l-1.48-7.22Z"/>
  <path class="st36" d="M1184.85,906.79s-48.69-.82-48.69,15.04,1.48,12.91,0,27.66c-1.48,14.75-2.95,26.56,5.9,28.03,8.85,1.48,20.66,10.33,30.98-5.9,10.33-16.23,2.95-15.36,20.66-27.6,17.71-12.24,16.23-14.06,19.18-27.9,2.95-13.84-28.03-9.32-28.03-9.32Z"/>
  <path class="st0" d="M882.6,988.42s20.08-3.89,32.06-.75c11.98,3.13,25,3.22,32.51-6.41,7.51-9.63,0-23.25,0-23.25,0,0,.29,26.99-14.55,23.25-14.83-3.73-50.03,7.16-50.03,7.16Z"/>
  <path class="st0" d="M511.59,1098.02s-.47,6.11,6.58,11.75c7.05,5.64,11.75,9.87,16.46,15.98,4.7,6.11,21.63,9.4,28.21,15.28,6.58,5.88,14.57,5.88,21.63,4.47,7.05-1.41,11.75-1.88,12.69-7.52.94-5.64,0-13.38,0-13.38,0,0-2.82,4.91-8.93,8.67-6.11,3.76-8.93,6.11-14.57,2.82-5.64-3.29-1.88-4.23-13.63-7.05s-20.22-6.58-24.45-11.75c-4.23-5.17-23.98-19.28-23.98-19.28Z"/>
  <path class="st0" d="M842.57,1107.43s15.98,27.74,17.4,33.62c1.41,5.88-4.7,13.4-5.64,19.98-.94,6.58,4.65,9.87,5.85,10.34,1.2.47,17.32-.94,22.42-5.17,5.1-4.23,16.86-10,16.86-10,0,0-5.64-3.17-11.75-3.64-6.11-.47-14.1-3.76-16.69-8.93-2.59-5.17-4.47-11.28-8.7-15.98-4.23-4.7-19.75-20.22-19.75-20.22Z"/>
  <path class="st0" d="M956.34,1149.27s2.82,11.28,2.82,15.04-3.29,12.22-3.29,14.1,2.82,5.67,5.17,6.59c2.35.93,9.4,2.83,11.75,0,2.35-2.83,7.52-4.24,2.82-6.59-4.7-2.35-6.55-.47-8.92-4.7-2.36-4.23-4.25-7.52-4.25-11.28s-6.11-13.16-6.11-13.16Z"/>
  <path class="st0" d="M914.66,1206.16s5.48,7.99,10.18,4.7c4.7-3.29,2.35-20.69-1.41-16.46-3.76,4.23-8.77,11.75-8.77,11.75Z"/>
  <path class="st0" d="M921.06,1254.58s2.72,13.52,16.48,9.87c13.76-3.64,14.57-7.99,24.45-9.87,9.87-1.88,16.93,7.05,20.22,0,3.29-7.05,3.9-10.34,3.9-10.34,0,0-8.7,3.76-19.47,3.76s-22.05,7.55-26.75,2.13c-4.7-5.42,8.46-9.65,2.82-9.65s-24.02,9.4-21.65,14.1Z"/>
  <path class="st0" d="M1072,853.88s.94-3.26,4.7,9.02c3.76,12.28-4.7,22.19-2.35,27.34,2.35,5.15,8.46,22.08,9.4,34.3.94,12.22-2.35,24.92-.47,30.09,1.88,5.17,2.82,11.75,7.05,15.51,4.23,3.76,16.93,11.11,16.93,11.11,0,0-13.48-28.42-14.26-37.87-.78-9.45,5.8-19.08,3.92-26.02-1.88-6.93-5.02-12.88-3.92-18.84,1.1-5.96-1.1-18.19,0-25.71,1.1-7.52-4.07-8.93,2.51-19.74,6.58-10.81,11.75-16.45,11.75-16.45,0,0-8.46-6.59-12.22-2.59-3.76,4-31.03,10.77-23.04,19.84Z"/>
  <path class="st0" d="M1145.34,924.83s-3.76,25.56-2.82,34.03-.47,10.81,5.17,12.69c5.64,1.88,12.69,2.22,12.69,2.22,0,0,1.88-5.05,0-10.22-1.88-5.17.47-13.63,2.82-18.34,2.35-4.7,27.27-14.93,28.68-20.39,1.41-5.47-3.76-9.7-10.81-9.7s-35.73,9.7-35.73,9.7Z"/>
  <path class="st0" d="M1128.93,1084.5s21.66-26.83,38.32,2.95c16.66,29.78-19.46,38.04,6.82,51.99,26.28,13.95,95.31.77,101.88,32.01,6.57,31.24-19.72,50.93-32.87,69.02-13.15,18.1-49.32,64.12-50.95,73.98-1.64,9.86-52.43,16.44-63.19-26.3-10.76-42.73.3-39.88-21.67-67.6-21.97-27.72-15.32-32.67-36.72-71.28-21.41-38.61,58.39-64.77,58.39-64.77Z"/>
  <path class="st36" d="M661.59,1120.35s28.96,16.88,63.71,19.09c34.76,2.21,40.47-48.22,57.29-9.54,16.82,38.68,12.67,57.32,4.39,92.53-8.28,35.21-57.99,51.78-82.85,37.28-24.85-14.5-39.35-12.43-70.42-37.28-31.07-24.85-33.66.4-36.14-37.41s41.79-40.16,34.83-60.4c-6.97-20.24,29.19-4.26,29.19-4.26Z"/>
  <path class="st36" d="M832.59,1264.95c14.45,7.18,42.06,23.75,50,65.18,7.94,41.42,23.12,60.06,0,80.78-23.12,20.71-40.73,10.36-70.24-18.64-29.51-29-46.72-14.95-52.62-48.9-5.89-33.95,35.42-60.59,40.65-71.09,5.23-10.5,32.2-7.33,32.2-7.33Z"/>
  <path class="st36" d="M932.75,1343.14s-.98-3.56,17.76,0c18.74,3.56,26.07-2.81,16.19-21.37-9.88-18.56-.03-26.85-33.95-22.71-33.92,4.14,0,44.08,0,44.08Z"/>
  <path class="st36" d="M1012.16,1386.05c8.87,2.07,39.94,12.43,21.3,18.64-18.64,6.21-61.96-8.28-77.58-18.64-15.62-10.36-30.13-22.78-11.49-22.78s67.77,22.78,67.77,22.78Z"/>
  <path class="st36" d="M994.77,1031.94s-3.91,31.46,17.38,32.26c21.3.81,20.9-6.14,44.92-16.13,24.02-9.99,90.29,4.19,94.44-7.04,4.14-11.23-25.16,1.19-70.57-23.66-45.41-24.85-24.7-45.29-55.77-27.82-31.07,17.46-30.4,42.39-30.4,42.39Z"/>
  <path class="st0" d="M693.73,1421.77s56.35-30.15,70.66,26.09c14.31,56.24,21.58,56.24,1.38,64.53-20.21,8.28-62.68,22.78-88.04-4.14-25.37-26.93-46.64-37.92-45.32-60.38,1.32-22.46,61.33-26.09,61.33-26.09Z"/>
  <path class="st0" d="M987.45,1483.39c17,0,18.9-2.07,78.01,12.43,59.12,14.5,93.87,6.23,108.6,27.97,14.73,21.74,10.13,63.16,0,63.16s-139.27-29-179.29-43.49c-40.03-14.5-62.81,8.28-60.74-20.71,2.07-29,53.42-39.35,53.42-39.35Z"/>
  <path class="st2" d="M730.91,757.46s-1.69,4.25,1.3,4.25,5.7,3,5.34-.7c-.36-3.7-5.07-7.09-6.64-3.54Z"/>
  <path class="st2" d="M715.98,761.71s-.54-.46-1.82,2c-1.28,2.46-.67,3.51.32,4.19s2.53.52,3.61-.6.15-5.58-.98-5.58h-1.13Z"/>
  <path class="st2" d="M747.5,751.34s-1.12,2.91,2.1,2.1,5.05-1.13,3.65-2.82-5.72-.98-5.75.72Z"/>
  <path class="st2" d="M691.33,764.98c.45.21.05.1,3.03,0s3.87.04,2.09-2.13c-1.77-2.17-2.68-3.78-5.12-2.17-2.44,1.61,0,4.3,0,4.3Z"/>
  <path class="st2" d="M664.33,761.67s5.71.76,5.38-1.64-4.83-2.57-5.8-1.92.41,3.57.41,3.57Z"/>
  <path class="st2" d="M674.23,757.78s-.32,1.43,0,2.25-2.09.98,1.29.98,3.63-.82,3.11-2.1-4.39-1.12-4.39-1.12Z"/>
  <path class="st2" d="M669.73,757.78s4.17.47,4.5,2.25c.32,1.78.65,2.07-2.25,1.64s-4.68-.37-4.19-1.89c.48-1.52,1.95-2,1.95-2Z"/>
  <path class="st2" d="M643.14,765.1s-1.51,1.51,1.58,1.52c3.09.02,4.54.73,2.61-1.64s-4.19.12-4.19.12Z"/>
  <path class="st2" d="M674.43,790.99s3.11,2.93,5.67,3.3,1.02-1.32,0-3.85c-1.02-2.53-7.42-4.02-5.67.55Z"/>
  <path class="st2" d="M712.09,818.67s-4.84.02-3.79,2.53c1.06,2.51-.23,3.94,3.79,3.33,4.02-.61,3.06-6.48,0-5.85Z"/>
  <path class="st2" d="M768.33,821.64s1.36,2.49,0,5.13c-1.36,2.64-1.69,4.02-3.94,1.7-2.26-2.32,1.56-7.25,3.94-6.83Z"/>
  <path class="st2" d="M811.26,792.88c2.82.55,7.03.36,5.23-1.69s-7.32-3.28-7.93-1.64c-.61,1.64,2.7,3.33,2.7,3.33Z"/>
  <path class="st2" d="M871.03,771.16s-6.42,1.81-3.56,3.25,1.68,2.71,5.52,2.31c3.84-.41-1.96-5.55-1.96-5.55Z"/>
  <path class="st2" d="M892.68,742.59s.72,2.15,3.1,1.85,3.4-1.38,2.17-2.99c-1.23-1.61-5.04-1.05-5.27,1.14Z"/>
  <path class="st2" d="M820.67,714.63s3.24,3.44,2.31,4.81-2.93,2.92-4.18,0c-1.25-2.92,1.87-4.81,1.87-4.81Z"/>
  <path class="st2" d="M751.29,716.17s-.44,5.17,2.44,3.27,2.4-.81,2.77-3.27-4.18-2.19-5.21,0Z"/>
  <path class="st2" d="M673.69,717.32s5.19,2.51,6.42.55c1.23-1.96,2.19-3.69-2.38-3.24s-4.03,2.69-4.03,2.69Z"/>
  <path class="st2" d="M770.25,839.51s-3.05,4.24.76,2.4c3.81-1.84,3.9-3.3,3.44-5.43s-4.2,3.04-4.2,3.04Z"/>
  <path class="st2" d="M744.13,838.23s1.66,2.86,3.18,0c1.52-2.86,1.27-3.89-1.88-4.19-3.15-.31-5.14,1.29-4.45,1.93s3.14,2.27,3.14,2.27Z"/>
  <path class="st2" d="M708.76,846.06s6.48.72,5.99-2.23-3.55-2.79-4.78-2.33-1.82,3.68-1.82,3.68l.61.88Z"/>
  <path class="st2" d="M753.28,866.2s-2.44,4.1,1.57,2.07c4.01-2.03,4.31-7.57,2.32-7.36-1.99.21-3.89,5.28-3.89,5.28Z"/>
  <path class="st2" d="M880.15,845.18s-3.76,2.09-2.86,3.28,4.69,3.06,5.31.81c.62-2.25-2.45-4.09-2.45-4.09Z"/>
  <path class="st2" d="M879.92,828.47s-3.06,1.64.29,3.33c3.36,1.69,2.23.58,4.56.23s3.97-1.24,1.92-3.56c-2.05-2.32-6.78,0-6.78,0Z"/>
  <path class="st2" d="M832.59,727.99s-3.37,1.62-2.35,3.26c1.02,1.64,2.25,2.05,4.3,2.05s2.66-.4,2.66-2.65-4.6-2.65-4.6-2.65Z"/>
  <path class="st2" d="M703.95,901.64s3.6-.72,4.2,1.89c.59,2.61-2.1,3.12-2.1,3.12,0,0-4.09-1.19-3.97-1.05s-2.49-1.35-2.08-2.86,3.96-1.1,3.96-1.1Z"/>
  <path class="st2" d="M740.66,793.15s-2.28,2.91.9,2.97,5.45.12,5.75-1.48c.29-1.61-6.65-1.48-6.65-1.48Z"/>
  <path class="st2" d="M750.52,797.11s.61,2.82,2.02,0-.53-2.82-.53-2.82l-1.49,2.82Z"/>
  <path class="st2" d="M771.86,794.29s.83,4.52,3.22,4.08,4.79-1.71,2.67-3.73c-2.12-2.02-5.89-.35-5.89-.35Z"/>
  <path class="st2" d="M702.08,834.03s-2.81,3.89,0,4.19c2.81.3,4.21.72,4.62-1.48.41-2.2-.2-4.22-.82-4.03s-3.8,1.32-3.8,1.32Z"/>
  <path class="st12" d="M660.27,799.63s1.25-.68,2.01,2.08,1.25,8.52,0,8.52-4.26-7.66-2.01-10.6Z"/>
  <path class="st12" d="M669.39,810.23s-.98.56-1.12,2.24c-.14,1.69-.42,6.1,1.12,6.5s1.55-2.7,1.55-5.65-1.55-3.09-1.55-3.09Z"/>
  <path class="st12" d="M668.15,791.25s-.73-.7-1.15,3.23c-.42,3.94-.26,4.5.58,4.5s1.84-4.08,1.97-6.32c.13-2.25-1.39-1.41-1.39-1.41Z"/>
  <path class="st12" d="M719.98,811.91s-5.34.56-4.36,1.26,7.4,1.41,7.78,0c.38-1.41-3.42-1.26-3.42-1.26Z"/>
  <path class="st12" d="M735.72,873.71s1.69-1.3,1.83,0c.14,1.3-1.69,6.93-2.95,6.22s1.12-6.22,1.12-6.22Z"/>
  <path class="st12" d="M778.17,875.44s.84,6.11,2.53,5.72c1.69-.38-.84-6.5-1.26-7.45s-1.26,1.73-1.26,1.73Z"/>
  <path class="st12" d="M652.36,908.8s7.47,1.86,8.03,2.66-7.03.65-9.14-.82,1.1-1.84,1.1-1.84Z"/>
  <path class="st12" d="M622.01,868.29s9.29-3.81,10.42-2.26-8.29,4.5-9.84,4.36-2.47-1.36-.58-2.09Z"/>
  <path class="st12" d="M807.63,831.31s-.13.29-.33.75c-.85,2-2.98,7.28-1.72,7.4,1.55.14,3.84-3.74,4.31-6.37s-1.08-4.54-2.26-1.78Z"/>
  <path class="st12" d="M803.32,833.96s.98,2.27.98,5.5.14,3.37-.98,2.53-2.86-7.27-1.85-8.49,1.85.46,1.85.46Z"/>
  <path class="st12" d="M855.04,773.83s-3.23,5.48-1.97,6.04,3.94-4.36,3.94-6.04-1.97,0-1.97,0Z"/>
  <path class="st12" d="M858.56,777.9s-.14,6.18,1.55,6.18-.98-9.98-1.55-6.18Z"/>
  <path class="st12" d="M861.79,779.92s-7.18,1.64-6.89,2.91,8.02.04,8.44-1.45-1.55-1.45-1.55-1.45Z"/>
  <path class="st12" d="M865.16,786.32s1.55,3.34,2.81,2.87-1.69-6.79-2.81-6.65,0,3.78,0,3.78Z"/>
  <path class="st12" d="M823.42,762.01s4.76-.12,5.2,1.41c.44,1.54-12.23.41-11.95-.71s6.75-.71,6.75-.71Z"/>
  <path class="st12" d="M804.31,773.08s6.6,2.86,6.74,4.68c.14,1.83-8.48-2.53-8.31-3.65.16-1.12,1.57-1.03,1.57-1.03Z"/>
  <path class="st12" d="M646.92,710.52s7.36-3.54,8.66-2.31c1.3,1.23-8.79,5.67-9.46,5s.81-2.69.81-2.69Z"/>
  <path class="st12" d="M646.65,703.93s-1.98,8.2,0,8.47,2.43-9.55,1.55-10.09-1.55,1.61-1.55,1.61Z"/>
  <path class="st12" d="M633.2,714.43s4.44,6.58,4.3,7.93-6.86-6.04-6.19-7.73c.67-1.69,1.88-.2,1.88-.2Z"/>
  <path class="st12" d="M644.1,726.39s-6.05,2.45-4.57,4.25,9.68-4.65,9.68-5.73-5.11,1.48-5.11,1.48Z"/>
  <path class="st12" d="M613.7,744.95s5.65,4.05,5.78,6.66-10.62-5.45-9.55-6.66c1.08-1.21,3.77,0,3.77,0Z"/>
  <path class="st12" d="M702.2,731.64s5.05,5.21,5.95,3.48-7.26-9.47-8.15-8.09c-.89,1.38,2.2,4.61,2.2,4.61Z"/>
  <path class="st12" d="M800.77,709.98s5.24,2.44,5.38,3.84-8.74-.54-8.47-1.92c.27-1.38,3.09-1.92,3.09-1.92Z"/>
  <path class="st12" d="M801.92,707.32s-3.7,9.95-5.44,9.27,2.02-8.16,3.23-9.27c1.21-1.1,2.42-.78,2.22,0Z"/>
  <path class="st12" d="M765.54,722.52s5.81,7.1,5.46,8.65c-.35,1.55-7.61-5.31-7.21-7.6.4-2.29,1.75-1.05,1.75-1.05Z"/>
  <path class="st12" d="M765,730.02s3.17,5.11,2.39,6.86c-.78,1.75-6.03-5.98-5.22-7.63s2.82.77,2.82.77Z"/>
  <path class="st15" d="M233.67,239.2s-13.87,25.91-28.8,19.64-11.76-18.08-6.33-19.64c5.43-1.55,7.69,3.87,7.69,3.87,0,0-8.59-4.07-9.5,1.81s4.27,12.7,14.92,10.85c10.65-1.85,17.43-17.23,22.02-20.8,4.59-3.57,7.94-7.59,7.94-7.59l-7.94,11.86Z"/>
  <path class="st15" d="M885.77-10.13s12.3,9.36,18.95,11.28c6.65,1.92,16.45-3.5,17.67-7.17s-1.05-9.97-5.25-11.2c-4.2-1.22-8.05-1.92-8.05,1.05s1.22,4.9,1.22,4.9v-4.9s5.95-.7,8.05,1.22,2.97,7.17,1.75,9.27c-1.22,2.1-8.47,6.09-14,5.6s-24.81-14.1-24.81-14.1l4.46,4.04Z"/>
  <path class="st15" d="M880.36-14.69s5.98,7.72,8.61,16.24c2.62,8.52,4.37,12.55,2.27,16.22-2.1,3.67-7.7,7.52-13.12,4.2s-7.17-3.32-6.12-5.77,3.32-4.37,3.32-4.37c0,0-5.25,1.57-4.37,5.95s4.72,8.05,14,7.17c9.27-.87,10.32-9.27,9.27-14.17-1.05-4.9-8.45-20.91-8.45-20.91l-5.41-4.56Z"/>
  <path class="st0" d="M411.53,851.88s14.69,37.49,15.86,19.32c1.17-18.17.77-42.4-4.88-48.99-5.64-6.59.2-15.82-16.16-13.54-16.37,2.28-26.89,1.11-28.06,4.62-1.17,3.51,33.24,38.59,33.24,38.59Z"/>
  <path class="st0" d="M356.49,864.68s6.11-4.27,10.07,8.02c3.96,12.29-28.77,25.96-41.63,20.29-12.86-5.67-30.39-17.26-30.39-20.23s9.35-9.68,23.38-8.08c14.03,1.6,38.58,0,38.58,0Z"/>
  <path class="st27" d="M863.4,1006.99s26.27,18.37,44.64,37.79c18.37,19.42,27.3,33.6,35.17,43.05,7.87,9.45,18.24,21,34.32,21.52,16.08.52,29.2,4.72,31.83-4.72,2.62-9.45-5.25-10.5-19.42-10.5s-27.17-6.82-34.06-17.32c-6.89-10.5-23.99-31.25-38.21-47.77-14.22-16.52-24.73-28.87-30.04-31.5-5.31-2.62-17.1-1.28-19.34,1.98-2.24,3.27-4.89,7.47-4.89,7.47Z"/>
  <path class="st36" d="M869.74,1016.1s-1.42-10.52,3.44-13.36c4.86-2.83,18.22-4.89,20.85-2.95,2.63,1.94,4.25,4.97,2.63,1.94-1.62-3.04-7.08-8.5-17.81-8.3-10.73.2-11.74-4.86-15.99,2.02-4.25,6.88-1.71,18.53,6.88,20.64Z"/>
  <path class="st0" d="M882.6,994.85s-10.92,1.45-14.31,4.67c-3.4,3.22-4.7,4.74-4.89,8.28s1.49,7.08,2.91,8.3,6.69,2.63,6.69,2.63c0,0-8.27,2-10.14-7.94-1.86-9.94,7.7-18.17,19.74-15.95Z"/>
  <path class="st0" d="M875.81,990.6s12.75-.53,17.61,3.88,6.27,5.31,6.27,5.31l-8.3-9.21s-3.39-1.59-12.32-2.91c-8.93-1.32-19.05,6.98-20.67,10.82-1.62,3.85-2.23,7.08-2.23,7.08,0,0,12.39-15.3,19.63-14.98Z"/>
  <path class="st21" d="M872.61,1010.84s22.83,17,34.98,29.96,35.22,43.92,40.89,49.59,11.13,13.16,22.67,15.38c11.54,2.23,25.3,3.44,30.77,2.02,5.46-1.42,6.27-6.07,6.27-6.07,0,0-8.1,1.62-19.23,2.23-11.13.61-31.57-8.3-35.62-14.37-4.05-6.07-41.74-51.21-49.81-60.72-8.07-9.51-16.37-18.42-15.36-22.16l1.01-3.74s-12.48-1.21-16.56,7.89Z"/>
  <path class="st9" d="M892.15,1004.79s-1.43-.6-5.84,4.41c-4.41,5-5.72,9.7-5.72,9.7,0,0-.48-11.13,11.55-14.11Z"/>
  <path class="st9" d="M877.27,1016.1s.36-5.72,4.17-8.46c3.81-2.74,8.34-3.68,8.34-3.68,0,0-2.14-.65-6.25.8-4.11,1.45-7.5,9.08-6.25,11.34Z"/>
  <path class="st9" d="M872.61,1011.83s3.1-6.43,7.04-7.87l3.93-1.44s-4.53.19-8.34,2.24c-3.81,2.05-2.63,7.07-2.63,7.07Z"/>
  <path class="st9" d="M885.48,1022.77s-1.31-6.55,4.29-9.77c5.6-3.22,6.31-3.05,6.31-3.05,0,0-3.45.07-7.5,2.69-4.05,2.62-3.1,10.12-3.1,10.12Z"/>
  <path class="st9" d="M889.77,1026.22s.83-6.31,6.31-8.46l5.48-2.14s-3.47.13-7.81,1.67c-4.34,1.54-3.98,8.93-3.98,8.93Z"/>
  <path class="st9" d="M895.66,1030.87s-.93-5.13,2.9-7.81c3.83-2.67,7.41-2.67,7.41-2.67,0,0-3.1-1.79-7.27.54-4.17,2.32-3.04,9.95-3.04,9.95Z"/>
  <path class="st9" d="M901.56,1036.35s-.6-6.19,3.93-7.38l4.53-1.19s-1.19-2.14-5.48,0c-4.29,2.14-2.98,8.58-2.98,8.58Z"/>
  <path class="st9" d="M908.23,1041.48s-.71-3.35,2.5-5.13c3.22-1.79,6.31-2.26,6.31-2.26,0,0-.36-.12-3.81,0-3.45.12-6.99,5.19-5,7.4Z"/>
  <path class="st9" d="M912.35,1047.9s2.07-5.57,6-6.42c3.93-.85,5-.45,5-.45,0,0,.78-1.34-5.5-.09-6.29,1.24-5.5,6.96-5.5,6.96Z"/>
  <path class="st9" d="M917.86,1054.09s1.33-4.76,4.79-6.19c3.45-1.43,5.36-1.67,5.36-1.67,0,0-1.79-.83-6.31.83-4.53,1.67-3.84,7.03-3.84,7.03Z"/>
  <path class="st9" d="M923.39,1060.88s1.04-5,4.61-6.19c3.57-1.19,5.24-1.25,5.24-1.25,0,0-2.26-.65-5.24,0s-4.61,7.44-4.61,7.44Z"/>
  <path class="st9" d="M928.88,1066.33s-.16-4.61,4.36-5.44c4.53-.83,6.43-.83,6.07-.83s-1.79-.36-6.07,0c-4.29.36-4.36,6.28-4.36,6.28Z"/>
  <path class="st9" d="M945.51,1069.46s-3.61-1.83-6.8,1.7l-3.19,3.53s1.66-3.8,4.52-5.71c2.86-1.91,5.48.48,5.48.48Z"/>
  <path class="st9" d="M950.51,1077.92s-4.16-.6-6.18,2.14c-2.02,2.74-1.67,5.12-1.67,5.12,0,0,2.38-4.94,3.91-6.07,1.53-1.13,3.94-1.19,3.94-1.19Z"/>
  <path class="st9" d="M958.73,1082.56s-3.33.71-5.72,5.12c-2.38,4.41-2.51,5.48-2.51,5.48,0,0,.25-5.12,2.87-7.98,2.62-2.86,5.36-2.62,5.36-2.62Z"/>
  <path class="st9" d="M965.64,1089.23s-5.08,2.12-5.64,5.82c-.56,3.71-.89,5.47-.89,5.47,0,0,1.79-7.12,3.26-8.08,1.48-.95,3.26-3.22,3.26-3.22Z"/>
  <path class="st9" d="M973.03,1093.16s-3.16,7.66-3.1,10,0,2.86,0,2.86l3.1-12.86Z"/>
  <path class="st9" d="M979.81,1096.02s-1.55,11.97,0,11.41,0-11.41,0-11.41Z"/>
  <path class="st9" d="M990.53,1097.92s1.89,5.84,1.19,8.1l-.7,2.26s2.42-.73,1.74-4.59c-.68-3.86-2.23-5.76-2.23-5.76Z"/>
  <path class="st9" d="M1001.01,1098.64s2.68,3.24,1.79,6.19c-.89,2.95-.8,3.56-.8,3.56,0,0,1.52-.59,1.76-3.68.24-3.1-2.74-6.07-2.74-6.07Z"/>
  <path class="st0" d="M872.44,952.91s14.12,6.76,18.28,5.09c4.16-1.67,10.49-4.87,19.3-2.41s18.71,6.36,22.6,2.41c3.9-3.95,9.33-12.51,12.89-17.07,3.56-4.56,3.69-10.69,1.06-10.77s-5.84,3.35-9.94,10.2c-4.1,6.85-2.82,8.56-9.17,9.13-6.34.57-10.91-1.71-17.75,0s0-1.14-13.69,2.28c-13.69,3.42-23.58,1.14-23.58,1.14Z"/>
  <path class="st0" d="M912.35,934.16s1.81,6.77,8.71,6.77,11.19-1.07,12.18-3.39c.99-2.32,4.99.53.99-2.32-3.99-2.85-10.8-4.42-13.39-5.06s-8.5,4-8.5,4Z"/>
  <path class="st0" d="M955.87,892.36c3.47.08,15.72,2.36,25.85-9.62,10.13-11.98,10.19-14.62,19.29-17.86,9.1-3.24,7.17-9.95,7.17-9.95,0,0-15.29,8.02-22.08,14.21-6.8,6.19-11.37,10.18-13.08,13.6-1.71,3.43-17.15,9.62-17.15,9.62Z"/>
  <path class="st0" d="M708.23,1036.35s-2.29,8.17,7.74,13.71c10.03,5.54,23.22,7.23,27.18,6.96,3.96-.28,19.98.61,24.24-1.54,4.25-2.16,12.22-9.32,8.24-9.45-3.98-.12-11.51-.82-22.58.67-11.07,1.49-21.94,1.16-26.49-.67-4.55-1.84-18.33-9.68-18.33-9.68Z"/>
  <path class="st0" d="M1017.53,744.41s10.27,6.55,11.41,16.25c1.14,9.7-5.7,17.4-7.42,19.26-1.71,1.85-16.68-.93-17.75,4.17s-13.23,15.47-13.23,15.47c0,0,12.87-22.68,17.65-22.51,4.78.16,15.05-8.22,16.19-10.31,1.14-2.08-6.85-22.32-6.85-22.32Z"/>
  <path class="st30" d="M842.57,622.03c2.1,0,19.96-2.85,31.85,6.28,11.9,9.13,18.74,11.41,25.02,13.12,6.28,1.71,14.26,2.28,14.26,2.28,0,0-19.28-4.42-27.32-12.19-8.05-7.78-20.21-16.9-27.82-16.33-7.61.57-15.99,6.85-15.99,6.85Z"/>
  <path class="st30" d="M690.24,629.44c.97-1.7,13.21-26.23,21.64-29.08,8.43-2.85,14.44-2.85,18.56-2.28,4.13.57,2.99,3.99,4.13.57s-.82-11.41-4.69-10.84-21.5,2.28-27.8,9.13-11.84,32.5-11.84,32.5Z"/>
  <path class="st7" d="M955.87,771.98s14.62,1.98,15.6,7.59-18.08,5.9-23.09.34c-5.02-5.56,7.49-7.93,7.49-7.93Z"/>
  <path class="st7" d="M866.47,921.83s5.78-2,5.97,5.98c.19,7.99-4.23,12.7-15.43,6.35-11.2-6.35-18.83-6.03-14.44-9.33s23.91-3.01,23.91-3.01Z"/>
  <path class="st7" d="M654.04,937.12c1.23.96,20.39,8.95,13.66,11.8-6.73,2.85-13.73,7.99-19.07,0s5.41-11.8,5.41-11.8Z"/>
  <path class="st7" d="M702.08,983.03s4.97.6,4.75,4.64c-.21,4.04-13.03,1.89-13.03,1.89l8.28-6.53Z"/>
  <path class="st7" d="M713.43,996.55s6.2,4.24,2.55,5.97c-3.66,1.73-6.65,2.99-9.15.37-2.5-2.63,6.6-6.34,6.6-6.34Z"/>
  <path class="st7" d="M525.2,924.83s5.13,5.28,7.98,5.27c2.86-.01,6.27-16.92,0-18.16-6.27-1.25-7.98,12.89-7.98,12.89Z"/>
  <path class="st7" d="M782.59,764.18s10.58-.2,10.66,6.99-9.4,6.35-15.5,1.92c-6.1-4.43,4.84-8.9,4.84-8.9Z"/>
  <path class="st27" d="M1114.55,1109.82s-11.1-8.46-13.22-22.2c-2.11-13.74,4.1-23.44,24.52-28.11,20.41-4.66,37.33-3.08,42.09,5.38,4.76,8.46-5.64,7.4-13.66,5.29-8.01-2.11-27.57,2.81-34.97,7.22-7.4,4.41,16.92,27.67,19.03,32.43,2.11,4.76-17.78,6.19-23.79,0Z"/>
  <path class="st21" d="M1135.04,1110.81s-10.05.99-15.27,0c-5.22-.99-24.86-24.88-12.89-38.66,11.98-13.77,44.8-14.87,50.35-12.49,5.55,2.38,9.52,5.15,8.33,5.75-1.19.59-8.13-4.36-17.64-4.36s-33.05,9.72-36.02,14.28c-2.97,4.56-.46,15.65,4.1,22.19,4.56,6.54,19.04,13.28,19.04,13.28Z"/>
  <path class="st9" d="M1114.31,1107.67s1.45,1.7,9.53,1.96c8.08.26,11.2-.98,11.2-.98,0,0-5.11.33-10.37.02-5.26-.32-11.22-2.02-11.22-2.02l.85,1.02Z"/>
  <path class="st9" d="M1107.39,1099.56s5.81,3.12,13.52,2.81l7.71-.31s-9.62.46-15.16-1.72c-5.54-2.18-6.85-3.12-6.85-2.65s.78,1.87.78,1.87Z"/>
  <path class="st9" d="M1103.08,1088.48s-2.09,2.81,6.81,3.12c8.9.31,9.68,0,9.68,0,0,0-11.08-.64-12.95-1.49-1.87-.85-3.53-1.63-3.53-1.63Z"/>
  <path class="st9" d="M1101.41,1078.06s4.58,4.8,9.81,4.95l5.23.16s-7.8-.58-9.83-2.55c-2.03-1.97-5.2-2.55-5.2-2.55Z"/>
  <path class="st9" d="M1108.93,1068.5s.33,3.11,3.54,6.16c3.2,3.05,4.61,3.4,4.61,3.4,0,0-4.37-4.57-5.15-6.6s-2.99-2.97-2.99-2.97Z"/>
  <path class="st9" d="M1117.62,1063.35s.08,4.68,2.89,7.65l2.81,2.97s-1.91-4.7-3.75-7.02-1.95-3.59-1.95-3.59Z"/>
  <path class="st9" d="M1128.62,1060.38s-3.65-.74,0,5.64,3.9,4.97,3.9,4.97c0,0-3.9-6.09-3.9-7.65v-2.97Z"/>
  <path class="st9" d="M1139.39,1058.67s-2.65,2.02-2.03,5.92,2.03,4.06,2.03,4.06c0,0-.89-4.99-1.06-6.74s1.06-3.24,1.06-3.24Z"/>
  <path class="st9" d="M1150.47,1058.67s-1.63,1.63-2.74,3.5c-.57.96-1,1.99-1,2.89,0,2.65,1.56,4.21,1.87,3.43s-1.09-4.01-.78-4.81,2.65-5.01,2.65-5.01Z"/>
  <path class="st9" d="M1159.05,1061.48s-2.97.89-2.5,4.27,2.5,3.79,2.5,3.79c0,0-1.14-2.17-1.27-3.79-.13-1.61,1.27-4.27,1.27-4.27Z"/>
  <path class="st9" d="M1164.83,1063.89s-2.96,3.37-1.4,4.61c1.56,1.25,2.35,0,2.35,0,0,0-1.86.94-1.4-1.4s.45-3.21.45-3.21Z"/>
  <path class="st18" d="M419.97,222.54s14.5-8.28,20.32-22.5c5.82-14.22,13.88-49.1,8.06-48.67-5.82.42-29.64,10.61-36.31,30.82-6.67,20.21,7.93,40.36,7.93,40.36Z"/>
  <path class="st18" d="M345.97,194.8s-1.06,12.55,11.12,13.89,22.94-27.34,25.18-49.74c2.24-22.41-11.37-22.41-25.18-17.03s-11.12,52.88-11.12,52.88Z"/>
  <path class="st18" d="M294.46,205.61c-1.99-1.91-13.99-27.09-4-36.68,10-9.6,24.39-.8,27.19,14.79,2.8,15.59-15.72,29.07-23.19,21.89Z"/>
  <path class="st19" d="M418.56,216.03s-2,7.85-19.02-10.95c-17.02-18.81-6.72-67.65,1.79-70.32s24.63,19.72,30.45,43.45-13.22,37.82-13.22,37.82Z"/>
  <polygon class="st5" points="415.22 222.54 404.11 149.27 419.97 222.54 415.22 222.54"/>
  <path class="st19" d="M352.87,202s-6.01,4.9-14.52-9.89c-8.51-14.79-3.14-54.67,10.31-56.91s22.41,26.25,24.2,44.49c1.79,18.24-19.98,22.31-19.98,22.31Z"/>
  <path class="st19" d="M291.11,201s-3.44,7.28-13.04,0c-9.6-7.28-30.39-32.43-18.79-38.84,11.59-6.42,35.58,13.19,38.78,23.98,3.2,10.78-6.95,14.87-6.95,14.87Z"/>
  <polygon class="st5" points="350.82 207.46 348.66 154.94 357.09 208.69 352.87 208.69 350.82 207.46"/>
  <polygon class="st5" points="291.56 205.61 271.27 173.73 294.46 205.61 291.56 205.61"/>
  <path class="st25" d="M498.43,880.03s7.33,18.36,2.49,18.49c-4.84.13-9.07-24.92-7.26-25.4s4.77,6.9,4.77,6.9Z"/>
  <path class="st25" d="M544.46,1000.47s12.53,12.03,11.71,15.89c-.82,3.86-22.96-21.01-19.45-21.88s7.75,5.99,7.75,5.99Z"/>
  <path class="st25" d="M536.34,973.78s-20.3,19.15-14.25,20.7c6.05,1.55,19.75-26.21,14.25-20.7Z"/>
  <path class="st25" d="M546.28,943.39s1.04,31.49,6.57,29.67c5.53-1.82-5.97-36.35-6.57-29.67Z"/>
  <path class="st25" d="M623.23,1070.65s-16.3,11.01-13.36,13.85c2.94,2.85,17.38-14.2,17.72-16.26.34-2.06-4.36,2.4-4.36,2.4Z"/>
  <path class="st25" d="M670.93,1087.86s10.77,7.64,10.19,15.66c-.58,8.02-14.95-17.57-10.19-15.66Z"/>
  <path class="st25" d="M784.58,1085.82s27.27,9.08,23,13.77c-4.27,4.69-25.97-8.48-26.31-10.36-.34-1.88,3.31-3.41,3.31-3.41Z"/>
  <path class="st25" d="M804.31,1046.03s-8.07,31.13,0,28.67c8.07-2.46,1.75-36.46,0-28.67Z"/>
  <path class="st25" d="M690.24,1019.73s32.53,2.2,33.19,7.09c.65,4.89-40.42-3.34-33.19-7.09Z"/>
  <path class="st25" d="M833.62,1025.3s12.52,20.65,8.94,22.6c-3.58,1.95-15.52-18.73-8.94-22.6Z"/>
  <path class="st25" d="M843.21,1028.33s-26.02,20.12-22.38,21.73,27.83-18.46,27.83-21.73-5.46,0-5.46,0Z"/>
  <path class="st25" d="M848.67,1050.15s-4.28,24.18-.93,21.32c3.35-2.87,6.98-32.51.93-21.32Z"/>
  <path class="st25" d="M927.46,992.97s20.55,12.44,18.05,18.03-26.19-18.03-22.12-18.03h4.07Z"/>
  <path class="st25" d="M979.13,916.11s-4.24,21.96.69,21,5.12-28.86,2.3-29.12c-2.82-.26-2.99,8.12-2.99,8.12Z"/>
  <path class="st25" d="M1015.58,929.36s-3.02,24.54,0,23.83,6.05-33.05,0-23.83Z"/>
  <path class="st25" d="M1029.06,948.25s-17.99,31.74-12.41,29.78c5.58-1.96,25.89-34.72,12.41-29.78Z"/>
  <path class="st25" d="M980.69,992.97s16.15-7.93,16.75-4.55-20.01,11.1-20.01,11.1l3.26-6.55Z"/>
  <path class="st25" d="M1036.15,873.13s.6,27.08,4.23,25.4c3.63-1.68-4.84-36.97-4.23-25.4Z"/>
  <path class="st25" d="M1024.59,814.62s24.25,17.23,20.62,20.1c-3.63,2.87-23.59-13.18-23.59-16.04s2.96-4.05,2.96-4.05Z"/>
  <path class="st25" d="M899.45,843.69s1.59,13.34,6.24,12.38-7.02-25.06-7.23-22.08c-.21,2.98.99,9.7.99,9.7Z"/>
  <path class="st25" d="M626.73,835.59s17.59,12.06,16.04,12.17-25.09-8.71-16.04-12.17Z"/>
  <path class="st25" d="M883.58,686.33s8.61,18.44,11.95,15.9-12.72-26.23-11.95-15.9Z"/>
  <path class="st25" d="M1048.24,1071.7s-8.33,24.85-2.65,21.46c5.68-3.39,4.55-27.58,2.65-21.46Z"/>
  <path class="st25" d="M1120.81,810.23s15.12,14.83,18.14,11.41-20.56-18.8-18.14-11.41Z"/>
  <path class="st25" d="M483.99,810.23s-7.26,25.25,0,24.48c7.26-.76,2.3-34.47,0-24.48Z"/>
  <path class="st16" d="M725.4,1056.19s7.87,4.54,10.54,10.14c2.67,5.59,4.03,9.63,5.05,12.48s.72,4.85,5.61,10.42c4.89,5.57,13.7,16.59,15.77,16.79,2.07.2,3.39-.1,3.39-.1,0,0-4.28-1.68-8.06-5.4-3.78-3.72-8.22-9.6-10.44-12.77-2.22-3.17-4.25-5.84-4.9-8.72s-1.99-10.1-5.76-14.82c-3.78-4.72-11.2-8.02-11.2-8.02Z"/>
  <path class="st16" d="M755.01,1069.7s4.76,1.13,4.73,6.56c-.03,5.44.19,5.69-1.14,9.56-1.33,3.87,1.11,8.97,0,10.2s-2.69,2.62-2.69,2.62l.75.81s2.53-2.33,3.08-3.81c.55-1.48.44-6.81,0-8.19-.44-1.38,2.2-8.03,1.05-12.62-1.15-4.59-5.77-5.13-5.77-5.13Z"/>
  <path class="st16" d="M723.44,1080.47s4.04,1.98,5.53,8.08c1.48,6.1.33,7.91,4.29,9.56,3.96,1.65,18.04-3.4,18.04-3.4v-1.55s-5.57,2.73-8.92,3.27-8.95,2.27-10.11,0-1.81-8.21-2.64-10.6-6.1-7.83-6.18-5.36Z"/>
  <path class="st16" d="M725.4,1063.11s4.55,2.02,7.69,5.15c3.13,3.13,5.24,3.44,5.24,3.44l1.03,2.6s-6.27-4.26-8.24-6.06c-1.98-1.79-9.27-5.18-5.71-5.13Z"/>
  <path class="st16" d="M849.18,1018.9s2.05-.42,5.03.46c1.79.53,3.93,1.54,6.15,3.4,5.94,4.95,6.76,5.54,11.05,5.57,4.29.03,8.7,0,8.7,0,0,0-.33,1.35-3.11,1.35s-8.22,1.42-11.69-1.35-6.93-6.6-9.89-7.41c-2.97-.81-8.69-.45-6.24-2.03Z"/>
  <path class="st16" d="M864.99,1019.73s3.3,2.53,4.95,4.34,2.5,5.11,2.5,5.11h1.78s-1.32-2.73-3.13-5.16-6.93-6.33-6.1-4.3Z"/>
  <path class="st16" d="M853.12,1034.96s.43,2.99,3.76,3.56c3.33.57,5.62-1.25,8.02-3.56,2.4-2.31,4.66-5.77,4.66-5.77h1.03s-2.82,5.07-5.7,7.48c-2.88,2.41-5.16,4.92-8.72,3.75-3.56-1.17-4.71-5.95-3.06-5.46Z"/>
  <path class="st16" d="M831.21,1059.85s2.94,5.45,2.61,13.36c-.33,7.91,1.98,11.38-5.11,13.52-7.09,2.14-8.24.99-10.39,3.79-2.14,2.8-3.3,5.09-3.3,5.09,0,0,.33,1.25,1.65.8s1.67-6.06,3.8-6.39c2.13-.33,10.59-2.33,13.45-5.21,2.86-2.87,1.21-6.95,1.38-10.52.16-3.57-3.57-16.27-4.09-14.45Z"/>
  <path class="st16" d="M823.27,1072.39s2.64,3.63,3.96,6.6c1.32,2.97,2.53,3.79,3.98,4.45s2.72,1.39,2.72,1.39l-2.25.61s-2.31-1.31-4.45-4.29c-2.14-2.99-6.1-8.92-3.96-8.76Z"/>
  <path class="st16" d="M802.99,1084.57s2.59,2.13,8.08,5.29c5.49,3.16,6.08,2.28,6.08,2.28v1.06s-2.86,1.6-5.58-1.53c-2.72-3.13-12.2-7.44-8.57-7.1Z"/>
  <path class="st16" d="M719.73,1093.62c-.16.53-1.48,5.81-8.24,8.12-6.76,2.31-10.06,3.13-14.01,2.14s-6.76.41-6.76.41c0,0,5.28.18,8.41.79,3.13.61,8.74-.05,13.85-2.36,5.11-2.31,6.98-5.75,6.76-7.09-.22-1.34,0-2.02,0-2.02Z"/>
  <path class="st16" d="M729.95,1106.09s-1.48,2.07-7.58,2.24c-6.1.16-8.51.99-10.6,0s-7.13-4.53-7.13-4.53l-3.04,1.28s3.73-.64,5.25,1.22c1.51,1.86,3.66,3.51,7.95,3.51s11.21-.33,13.19-1.32,1.98-2.4,1.98-2.4Z"/>
  <path class="st16" d="M692.19,1090.52s-.33,5.11,3.79,7.92c4.12,2.8,15.78,4.12,15.78,4.12l-2.75,1.24s-11.87-.88-13.85-3.2-4.78-9.58-2.97-10.07Z"/>
  <path class="st16" d="M654.27,1069.7c1.39.2-2.31,6.66,0,9.21,2.31,2.55,7.06,9.92,7.06,9.92,0,0-1.4.5-2.33-.55s-6.21-6.45-7.04-10.18c-.82-3.73.82-8.6,2.31-8.39Z"/>
  <path class="st16" d="M659.55,1074.3s1.59,3.25,1.79,5.53-4.09,4.74-4.09,4.74l.9.86s4.04-1.8,4.7-4.29c.66-2.49-2.47-8.06-3.3-6.84Z"/>
  <path class="st16" d="M633.49,1068.71s-1.32,5.66,2.8,8.79c4.12,3.13,5.28,4.95,8.74,6.1,3.46,1.15,6.7,3.05,6.7,3.05,0,0-5.55-1.07-10.33-3.38s-7-6.98-8.12-8.44c-1.12-1.45-1.94-6.01.2-6.12Z"/>
  <path class="st16" d="M685.03,996.55s-.3,5.68-12.61,15.41c-12.31,9.72-11.17,25.8-11.17,25.8,0,0-2.17-15.56,9.69-25.93s12.3-18.49,14.1-15.28Z"/>
  <polygon class="st16" points="681.14 1013.87 666.26 1018.79 664.1 1020.92 681.14 1013.87"/>
  <path class="st16" d="M655.58,1008.47c-.06-.9,0,7.14,2.56,10.33s4.31,6.51,4.31,6.51l-.41,1.52s-5.81-8.69-6.46-18.35Z"/>
  <path class="st16" d="M858.55,962.82s11.46-1.2,16.57,1.8,6.09,3.6,12.51,5.11,24.69,4.05,24.69,4.05l-.84-1.15s-21.93-2.63-26.13-4.45c-4.2-1.82-7.6-6.1-12.91-6.27s-14.71-.82-13.88.91Z"/>
  <path class="st16" d="M912.35,964.39s-4.16-.33-11.25.16c-7.09.49-6.49-.49-11.33.49s-9.17.25-9.17.25l-1.52-.37s3.57-1.69,11.64-1.36,21.51-.66,21.63.82Z"/>
  <path class="st16" d="M912.35,959.69s-5.38-2.89-10.79,0-9.41,3.92-9.41,3.92l-1.44-.04s9.06-4.22,11.53-5.16,9.81-.94,10.1,1.28Z"/>
  <path class="st16" d="M885.41,969.19s.61,3.61-2.81,6.9c-3.43,3.3-6.73,4.45-6.73,4.45,0,0,4.37-1.15,7.71-3.96,3.34-2.8,2.8-7.16,2.8-7.16l-.96-.24Z"/>
  <path class="st16" d="M971.5,955.32s1.8.98,5.93,4.37c4.13,3.38,6.82,15.1,5.47,17.02s-.39,1.69-.78-.95-1.38-9.51-3.52-12.83c-2.14-3.33-9.4-7.45-7.09-7.61Z"/>
  <path class="st16" d="M959.3,964.54s1.15,4.96,4.62,7.6,5.61,6.1,9.23,7.42,5.97,2,5.97,2c0,0,1.04,1.3-1.97.64s-11.59-3.77-13.89-7.33c-2.31-3.56-4.12-7.14-5.11-9.31s0-7.93,0-8.59,1.15,7.57,1.15,7.57Z"/>
  <path class="st16" d="M969.85,962.93s3.13,3.93,3.3,8.05-4.65,7-4.65,7l.86.14s4.62-2.19,5.11-6.15-4.62-9.04-4.62-9.04Z"/>
  <path class="st16" d="M980.69,953.21s2.27,1.28,2.56,6.48-1.14,12.29-1.14,12.29l.6,2.9s2.14-9.6,1.98-14.16c-.16-4.56-4.01-7.5-4.01-7.5Z"/>
  <path class="st16" d="M901.37,991.83c.38.43,6.81,3.09,9.04,7.69,2.23,4.61.68,9.46,0,9.75-.68.29,1.89-2.91,0-6.75-1.89-3.84-2.06-6.31-6.18-8.04s-2.86-2.65-2.86-2.65Z"/>
  <path class="st26" d="M181.22,794.51s13.4-6.7,22.53-.36c9.13,6.34,11,18.17,12.7,28.09,1.7,9.91-13.94,17.99-24.58,16.59-10.65-1.4-15.92-2.64-19.88-9.93-3.96-7.3-5.28-12.63-11.87-25.79-6.6-13.16,21.1-8.59,21.1-8.59Z"/>
  <path class="st26" d="M576.47,1684.26s2.84-36.93,13.2-42.21c10.35-5.28,25.94-18.47,37.93-15.83,11.99,2.64,10.11,14.43,14.35,31.32,4.24,16.89,12.11,18.8.92,31.99-11.19,13.19-15.17,11.02-30.33,12.76-15.16,1.75-36.07-18.04-36.07-18.04Z"/>
  <path class="st26" d="M1142.37,1647.78s-33.07-7.13-35.11,9.76c-2.04,16.89-3.36,29.36,5.88,33.31,9.23,3.96,9.23,13.19,27.7,6.6,18.47-6.6,11.06-51.17,11.06-51.17l-9.53,1.49Z"/>
  <path class="st32" d="M601.43,371.32s.34,14.26,4.3,25.23c3.96,10.97,106.38,141.76,110.07,148.03,3.68,6.26,5.53,10.32,7,8.84,1.47-1.47,1.47-5.53,0-8.11-1.47-2.58-65.58-86.51-74.43-96.68-8.84-10.17-39.05-48.24-39.79-55.36-.74-7.13-3.3-24.71-3.3-24.71l-3.85,2.76Z"/>
  <path class="st0" d="M633.77,1152.51s5.54,10.37,9.1,21.32c3.56,10.95.92,5.15,8.87,15.83,7.95,10.68-.52,11.1,12.36,16.36,12.87,5.26,12.87-2.23,22.67,10.44,9.79,12.67,16.22,25.35,27.41,27.08,11.19,1.73,34.04,6.59,34.04,6.59,0,0-23.34,11.77-46.14,0-22.8-11.77-29.68-19.72-45.54-29.58-15.86-9.85-22.18-5.39-22.77-14.54-.58-9.14-7.25-13.21-9.1-16.36s-7.31-4.16-3.72-12.01c3.59-7.85,12.82-25.13,12.82-25.13Z"/>
  <path class="st0" d="M771.86,1149.27s4.2,2.09,7.66,10.73,4.03,17.64,4.03,17.64c0,0,3.03-5.11,3.53-6.19.5-1.08-11.36-28.31-15.23-22.18Z"/>
  <path class="st26" d="M714.18,1196.58s.88,7.64,11.22,9.44c10.34,1.8,17.83,5.84,18.98-2.23,1.15-8.07,4.62-10.41-2.01-14.13-6.63-3.73-10.02-3.76-16.97,0-6.95,3.76-11.22,6.92-11.22,6.92Z"/>
  <path class="st0" d="M802.74,1300.58s-3.59,24.77,1.57,38.02c5.17,13.25,8.41,19.95,12.84,24.66,4.43,4.72,6.42,18.04,14.07,21.46,7.65,3.42,13.59,8.03,21.57,9.18,7.97,1.15,21-3.33,18.23,3.52-2.77,6.85-7.17,14.69-24.56,8.76-17.39-5.94-34.09-28.41-45.61-37.62-11.53-9.22-22.18-13.82-25.21-24.48-3.03-10.66,9.03-30.87,15.96-40.07,6.94-9.2,13.59-16.69,13.59-16.69l-2.45,13.26Z"/>
  <path class="st33" d="M1120.64,1196.58c1.68,1.45,11.3,25.65,18.59,34.29,7.29,8.64,14.78,17.79,22.27,19.26,7.49,1.48,15.56,4.36,29.38,6.09,13.83,1.73,28.23,0,28.23,0,0,0-10.37,21.89-20.74,27.08-10.37,5.19-39.75-7.63-51.28-18.79-11.52-11.17-24.1-36.4-26.45-43.95s0-23.98,0-23.98Z"/>
  <path class="st33" d="M977.53,1503.94s11.13,9.8,30.72,18.44c19.59,8.64,125.99,36.06,143.65,36.46,17.66.41,22.16,0,22.16,0,0,0,1.4,20.19-2.13,19.8s-141.92-33.68-163.75-41.8c-21.83-8.13-25.29-13.89-40.27-13.31-14.98.58-17.41-6.34-17.41-6.34l27.02-13.25Z"/>
  <path class="st33" d="M681.14,1441.83s.9,16.61,10.46,27.27c9.56,10.66,22.3,18.73,33.79,18.73,11.49,0,32.65-1.06,32.65-1.06,0,0,4.34,3.61,7.72,11.26,3.39,7.65-39.77,22.38-60.54,10.98-20.77-11.39-40.89-32.32-48.69-41.74-7.8-9.41-13.87-10.79-9.39-14.71,4.47-3.92,34-10.74,34-10.74Z"/>
  <path class="st33" d="M316.95,872.76s6.28,6.46,17.74,6.44c11.47-.01,19.25-6.59,21.69-3.01s-5.69,13.08-16.6,11.21c-10.91-1.87-22.83-14.64-22.83-14.64Z"/>
  <path class="st33" d="M397.61,817.41s19.48,29.55,21.55,30.61c2.07,1.06-5.42-28.48-5.42-28.48l-16.13-2.13Z"/>
  <path class="st34" d="M177.14,801.08s5.84,12.77,14.73,14.12,12.35-2.47,15.23,1.46,6.34,14.34-5.19,14.61-20.74-5.08-24.77-13.06c-4.03-7.99,0-17.13,0-17.13Z"/>
  <path class="st34" d="M584.87,1677.37s12.49-29.38,24.64-33.42c12.15-4.03,20.58-10.37,18.09-2.3-2.48,8.07-15.16,19.01-12.28,28.81,2.88,9.79,14.76,14.4,12.28,18.44-2.48,4.03-38.05,5.17-42.74-11.52Z"/>
  <path class="st34" d="M1119.59,1678.52s1.57-10.31,14.25-14.37c12.67-4.06,15.56,14.37,8.64,19.56-6.91,5.19-22.89-5.19-22.89-5.19Z"/>
  <path class="st34" d="M724.43,1194.16s12.46-.17,12.17,3.58c-.29,3.74-12.17-3.58-12.17-3.58Z"/>
  <path class="st17" d="M593.6,1093.16s4.47-1.57,3.87,1.72c-.6,3.28.81,4.68-3.87,1.64-4.68-3.04,0-3.36,0-3.36Z"/>
  <path class="st17" d="M582.83,1168.81s4.21,2.36,4.21,5.16-16.38,0-10.3-2.58l6.08-2.58Z"/>
  <path class="st17" d="M474.73,1063.11s6.08,1.88,7.49,5.6c1.4,3.72-7.49.36-7.49-1v-4.59Z"/>
  <path class="st17" d="M800.84,1124.61s.32,4.9,3.47,4.44-1.2-6.07-3.47-4.44Z"/>
  <path class="st17" d="M839.07,1223.11s6.66,5.15,4.14,8.42c-2.52,3.28-9.14-2.42-8.64-3.55.5-1.13,4.5-4.87,4.5-4.87Z"/>
  <path class="st17" d="M846.45,1302.2s.93,2.81,2.73,2.34c1.8-.47,0-6.52,0-6.52l-2.73,4.18Z"/>
  <path class="st17" d="M828.29,1317.17s9.18,7.96,5.64,9.36-5.64-2.81-5.64-2.81v-6.55Z"/>
  <path class="st17" d="M864.9,1350.87s3.87-2.81,2,0c-1.87,2.81-6.05,3.28-6.05,3.28l-3.97-2.26,8.02-1.01Z"/>
  <path class="st17" d="M871.01,1363.27s1.41,5.38-.42,5.38h-3.19s-5.85-4.69,3.6-5.38Z"/>
  <path class="st17" d="M933.24,1124.61s4.38,5.9,7.15,4.47c2.78-1.44-7.15-4.47-7.15-4.47Z"/>
  <path class="st17" d="M990.53,1124.31s.11,5.26,2.35,4.76c2.24-.5,3.16-1.42,4.57-4.47,1.41-3.05-6.92-.3-6.92-.3Z"/>
  <path class="st17" d="M959.11,1031.58s7.58.56,7.52,2.45c-.06,1.89-.03,3.38-4.26,2.63l-4.23-.75.96-4.34Z"/>
  <path class="st17" d="M768.33,1341.04s-1.68,12.13-2.57,6.77c-.89-5.36,2.57-6.77,2.57-6.77Z"/>
  <path class="st17" d="M546.28,1103.1s6.61.44,4.03,2.19c-2.57,1.76-4.03-2.19-4.03-2.19Z"/>
  <path class="st17" d="M581.22,1114.36s2.08,1.12,2.08,2.52-7.91,0-7.91,0v-2.52h5.83Z"/>
  <path class="st17" d="M500.47,918.46s7.16.73,5.45,4.11-8.25,3.96-8.02,2.27l.23-1.7,2.34-4.68Z"/>
  <path class="st17" d="M459.29,884.71s5.62-1.57,6.08,1.11,1.4,3.42,0,4.92c-1.4,1.51-6.08,0-6.08,0v-6.04Z"/>
  <path class="st17" d="M1081.81,744.41s4.29,11.77,7.09,5.24c2.8-6.53-7.09-5.24-7.09-5.24Z"/>
  <path class="st17" d="M1046.69,671.38s7.41-5.46,10.38,0,3.96,10.36,0,12.36-10.38-7.39-10.38-7.39v-4.97Z"/>
  <path class="st17" d="M1092.99,702.23s13.24.52,7.95,4.38c-5.29,3.86-11.55,5.01-11.55,5.01l3.6-9.38Z"/>
  <path class="st17" d="M1139.39,1160.58s16.64,5.69,9.21,7.31c-7.43,1.62-9.21-7.31-9.21-7.31Z"/>
  <path class="st17" d="M1095.8,1152.51s12.42,5.08,5.15,8.07c-7.27,2.99-5.15-8.07-5.15-8.07Z"/>
  <path class="st17" d="M1151.9,1099.98s11.11,9.61,11.07,4.44c-.04-5.16-11.07-4.44-11.07-4.44Z"/>
  <path class="st38" d="M826.23,879.13s-1.56,5.22,2.41,5.41c3.97.2,2.92-4.85,1.42-7.2-1.51-2.35-3.58.55-3.82,1.79Z"/>
  <path class="st38" d="M734.68,956.93s4.28,7.33,4.28,2.76-3.07-2.76-3.07-2.76h-1.21Z"/>
  <path class="st38" d="M806.9,805.98s-6.95,5.81-4.16,6.97,4.16-6.97,4.16-6.97Z"/>
  <path class="st38" d="M893.77,761s-1.9,4.92,1.76,5.73-1.12-14.59-1.12-14.59l-.63,8.86Z"/>
  <path class="st38" d="M691.33,689.79s-15.64-3.6-13.5,0c2.14,3.6,13.5,0,13.5,0Z"/>
  <path class="st38" d="M979.29,896.65s3.35,7.54,4.65,3.23-4.65-3.23-4.65-3.23Z"/>
  <path class="st38" d="M520.96,885.82s5.54.71,6.08,4.42c.54,3.7-4.05,5.68-6.08,2.12-2.04-3.56,0-6.54,0-6.54Z"/>
  <path class="st38" d="M567.04,1040.41s-18.95,26.48-4.36,26.34c14.59-.14,4.36-26.34,4.36-26.34Z"/>
  <path class="st38" d="M1041.29,1020.92s7.14-11.73,8.5,0c1.36,11.73,26.82,52.08,12.64,51.43-14.18-.65-15.73-33.84-15.73-33.84l-5.41-17.59Z"/>
  <path class="st11" d="M800.16,682.79s.1,4.02,6.31,6.58c6.22,2.56,9.69-.02,15.54,3,5.85,3.03,6.31,10.34,8.09,11.07s-2.24-7.71-4.8-11.44-9.95-3.18-9.95-3.18c0,0-6.03.55-8.83-1.65-2.79-2.19-5.35-3.29-5.54-6.22-.18-2.92-2.62-1.77-.83,1.83Z"/>
  <path class="st11" d="M643.78,808.29s-2.78,4.79-5.35,0c-2.58-4.79,1.49-6.38,5.35-5.85s6,6.03,6.35,9.57-3.3,6.5-9.6,6.71-13.15-6.71-12.77-10.61,5.05-8.15,5.05-8.15c0,0-7.32,2.81-6.91,9.38.41,6.57,8.25,11.18,15.51,11.36,7.26.18,11.28-3.72,11.3-7.62.02-3.9-4.86-12.41-7.91-13.12s-9.55.35-9.76,4.79c-.2,4.43,4.68,7.8,7.32,7.27s1.42-3.72,1.42-3.72Z"/>
  <path class="st11" d="M848.28,820.7s-2.71-.97-5.09-3.34c-2.37-2.37-1.86-3.18-7.12-3.37s-12.28-1.99-12.92,5.01c-.64,7-6.73,11.07-6.23,13.1s7.23-6.43,7.6-9.23c.36-2.8-.32-7.04,5.53-7.55s8.56-1.19,9.92.85c1.36,2.03,5.59,5.5,8.31,4.53Z"/>
  <path class="st11" d="M771.86,918.05s4.71-3.05,8.1-.51c3.39,2.54,8.52,3.77,11.63,5.02,3.11,1.25,7.89,3.01,9.57,6.79,1.68,3.78,10.04,8.53,11.54,8.53s-.28,1.06-4.22-.74-8.04-3.77-9.54-7.79-7.28-4.82-11.86-6.79-8.97-4.18-11.19-4.51-4.37,2.03-4.9,2.2.86-2.2.86-2.2Z"/>
  <path class="st11" d="M971.51,687.18s.85,3.71,4.91,2.62,4.41-9.23,4.92-13.3c.51-4.07,2.88-6.1,8.14-4.75s7.46-1.51,11.19-.42,4.02,2.4,4.02,2.4c0,0-3.85-1.47-6.39-1.13s-6.78,1.36-8.65.85-6.27-.51-6.44,2.37c-.17,2.88-.17,14.37-5.59,15.58-5.42,1.21-6.1-4.22-6.1-4.22Z"/>
  <path class="st11" d="M608.16,716.17s5.06-5.81,3.96-10.43c-1.1-4.62-4.84-8.57-10.77-6.6s-10.11.66-11.65-3.52c-1.54-4.18,4.18-8.57,4.18-8.57,0,0-4.18,5.06-3.08,7.25,1.1,2.2-.66,5.72,7.69,3.96,8.35-1.76,12.75-.12,14.73,3.35s-.88,9.96-1.54,12.21c-.66,2.25-3.52,2.35-3.52,2.35Z"/>
  <g>
    <path class="st1" d="M442.11,706.1s.39-1.14.29-1.59.07-1.11.07-1.11l-.32.57-.46-.61s-.45,1.7-.33,2.32.74.42.74.42Z"/>
    <polygon class="st1" points="449.74 710.63 451.9 709.55 451.59 710.1 452.2 710.44 449.56 711.74 449.74 710.63"/>
    <path class="st24" d="M448.09,704.9s-2.72-.42-4.72-.15-4.42,2.78-4.18,3.61.5.98.5.98c0,0-.71-.35-.78.31s.25,1.24.25,1.24c0,0-1.42-1.05-2.51.19-1.1,1.24-.73,3.45-.73,3.45,0,0-.87-.5-2.2.79s-.5,2.4-.5,2.4c0,0-1.45-.27-1.99.78s-.33,1.67-.33,1.67c0,0-1.46,1.08-1.63,1.84l-.17.75s-1.35,1.34-1.51,2.16-.08,1.11-.08,1.11c0,0-.94,2.03-1.08,3.25l-.14,1.23s-.68,5.13,2.18,7.09,7.67-.1,8.56-1.41c0,0,1.03-.67,1.8-1.6s1.13-2.02,1.13-2.02c0,0,.15-.32.81-1.25.66-.93.85-2.08.85-2.08,0,0,.49.07.79-.81s.64-1.74.64-1.74c0,0,.33-.41.68-1.22s.17-2.41.17-2.41c0,0,1.16.3,1.58-.72.42-1.02.51-2.52.51-2.52,0,0,.81-.2,1.31-1.27s.02-2.8.02-2.8c0,0,.54-.6.57-.93l.04-.33s1.36-.39,1.83-2.28c.47-1.88-.39-6.63-1.68-7.36Z"/>
    <path class="st1" d="M448.29,705.81s-1.03.22-.62,1.1,1.86.9,1.79.63.26-.43.26-.43c0,0,.68-.07.77-.32l.09-.25s1.13.04,1.38-.32l.25-.36s.75.17,1.22-.21.57-.53.57-.53c0,0,2.02-.07,2.29-1.17s-2.95.25-2.95.25c0,0-.33-.13-.68.32l-.35.45s-.72-.5-1.34-.12-.9.72-.9.72c0,0-.19-.46-.6-.19s-.65.44-.65.44h-.55Z"/>
    <path class="st1" d="M445.15,704.67s-.9.83.04,1.11,2.01-.35,1.91-.68-.07-.54-.07-.54c0,0,.11-.94-.06-1.19l-.18-.25s.11-.99-.05-1.43l-.15-.44s.11-.99-.04-1.18l-.15-.18s-.16-3.65-.98-3.16-.23,2.73-.23,2.73c0,0-.23.77,0,1.15l.24.38s-.14,1.02-.04,1.43l.1.41s-.5,1.45-.34,1.82Z"/>
    <path class="st1" d="M444.13,705.63s-3.3,1.41-3.24,3.09c.06,1.68,2.92,3.54,4.64,4.41s1.93,1.11,1.93,1.11c0,0-3.09-1.01-5.47-2.84-2.38-1.84-2.24-2.61-1.76-3.69.48-1.08,3.89-2.07,3.89-2.07Z"/>
    <path class="st1" d="M439.9,710.39s.39,1.09,3.08,2.81,3.85,2.16,3.85,2.16c0,0-3.13-1.21-4.92-2.21-1.79-1.01-2.01-2.76-2.01-2.76Z"/>
    <path class="st1" d="M437.05,711.63s-2.07,1.09,1.39,3.69c3.45,2.59,7.48,4.2,7.48,4.2,0,0-2.67-.55-6.02-2.53-3.35-1.98-4.47-3.81-2.85-5.36Z"/>
    <path class="st1" d="M434.61,715.62s-1.57.82.84,2.52c2.4,1.7,6.77,4,7.46,4.19s.88.39.88.39c0,0-.22.83-3.85-1.26-3.63-2.09-6.19-2.96-6.28-4.48-.09-1.51.94-1.37.94-1.37Z"/>
    <path class="st1" d="M431.85,718.83s-.53,1.21,1.9,2.87,7.86,4.12,8.56,4.26l.7.14-.38.67s-4.54-2.08-6.87-3.39-5.05-2.91-3.91-4.55Z"/>
    <path class="st1" d="M429.84,721.96s2.16,2.97,5.22,4.64,5.88,2.45,5.88,2.45c0,0-2.47.11-6.52-2.31-4.05-2.43-5.51-4.1-4.58-4.78Z"/>
    <path class="st1" d="M428.55,724.69s-.7,1.26,2.2,3.24,5.1,3.32,6.86,3.85l1.75.53s-3.49-.21-7.04-2.45c-3.55-2.24-5.2-4.33-3.77-5.17Z"/>
    <path class="st1" d="M427.2,728.79s-.77,1.07,1.71,2.96c2.48,1.89,7.62,3.88,7.62,3.88,0,0-4.84-1.02-7.39-2.9s-1.94-3.95-1.94-3.95Z"/>
    <path class="st1" d="M428.16,736.1s1.44.1,2,.72.67.78.67.78c0,0-1.15-.85-1.72-.97s-1.05-.34-1.05-.34l.11-.19Z"/>
    <path class="st20" d="M441.69,714.23l-1.05,1.87s-.74-.17-.94-.53,1.52-1.6,1.52-1.6l.47.26Z"/>
    <path class="st20" d="M438.95,716.9l.95.54-1.13,1.98s-1.32-.39-1.21-.68,1.38-1.84,1.38-1.84Z"/>
    <path class="st20" d="M437.68,720.94l-1,1.78s-.65.11-.69-.72.66-1.65.66-1.65l1.03.58Z"/>
  </g>
  <path class="st14" d="M976.47,625.64s-.22.11-.28.53-.53.86-.72.44.17-1.11.17-1.11c0,0-2.11.14-3.05.39l-.94.25s-.94,3.58-2.02,5.02c-1.08,1.44-1.44,1.86-1.5,1.5s1.8-2.8,2.36-4.1c.55-1.3.94-2.69.94-2.69,0,0,1.44-.55,2.58-.61s2.19-.31,2.19-.31l.42-1.48s-.17-.69.22-1.05,1.14-.8,1.58-.78.75.36.75.36c0,0,0-.94.25-1.11s.5-.36.5-.36c0,0-1.14-.78-1.55-.78s-.58-.14-.58-.14c0,0-.78,1.39-1.19,1.58s-.58.22-.58.22c0,0-1.03.78-1.98.92s-1.65-.17-1.65-.17l1.65-.06s1.29-.72,1.57-.86l.28-.14s1.58-1.83,2.25-1.94,2.55.8,2.55.8c0,0,1.08-.25,1.66-.25h.58s-1.25-1.36-1.41-2.19l-.17-.83s-.58.47-.8.31-.89-1.03-.89-1.03l.97.69s.58-.53.89-.42,1.28,2.66,1.5,2.99l.22.33s.55-.42,1.08-.36l.53.06s-.06-.72-.28-1.33-.33-4.52.61-4.69,2.72.58,3.44,1.03,1,.53,1.55.53,1.36-.97,1.36-.97c0,0-3.47.64-4.08.5s-1.91-.61-1.91-.61c0,0-.47,1.05-.28,2,.19.94.14,1.11.14,1.11,0,0,2.22-3.58,5.24-1.8s.94,4.19.28,4.35l-.67.17s2.94,2.86,3.91,3.72,1.11,1.08,2.05,1.19,2.19-.06,2.19-.06c0,0-1.33.64-2.22.31s-3.63-2.58-3.63-2.58c0,0-.69-.55-1.83-1.36s-.72-1.22-1.25-1.03-1.19.5-1.19.5c0,0-.53.06-1.05-.14s-.94-.11-1.08.03.58,1.05.75.94.61-1.28.61-1.28l.86.06s0,1.91-.69,2.14-2,.03-2,.03c0,0-.86,5.13-.8,5.66.06.53.06,2.52.06,2.52l-.17-.25-.17.14.06-2.72.36-4.49s-.36.64-.72.42-.47-.3-.47-.3c0,0-.11.31-.22.46s-1.03,3.44-1.19,4.42-.44,1.53-.44,1.53c0,0,.08-1.16.08-1.33s.83-5.41.83-5.41c0,0-.78.46-1.55.34s-.92-.15-.92-.15c0,0,.78.89.33,1.66-.44.78-1.66,1.91-1.66,1.91,0,0,2.41,1,2.58,1.58s.47,3.85,1.14,5.1c.67,1.25,1.36,2.16,1.36,2.16,0,0-1.33-1.16-2-2.69s-.8-4.35-.8-4.35l-2.5-1.36s.14,1.61-.36,1.55-1-.47-.72-.64.33-.78.33-.78c0,0-.36-.06-.72-.03s-.69-.06-.78-.17-.06-.28-.03-.5-.08-.69-.08-.69Z"/>
  <g>
    <path class="st0" d="M248.04,988.27c12.97,8.95,45.14,6.42,46.66,22.18,1.52,15.76,29.01,26.15-5.45,26.13s-19.05,21.33-60.93-3.84c-41.88-25.17-25.26-37.55-25.26-37.55l44.97-6.93Z"/>
    <path class="st33" d="M222.87,999.58s15.34,10.23,30.29,10.87c14.95.65,20.36-1.08,29.18,4.1,8.82,5.19,14.24,14.1,14.24,14.1,0,0-17.14,6.14-41.24,4.09-24.1-2.06-40.58-25.86-40.58-25.86l8.11-7.31Z"/>
    <path class="st36" d="M145.72,1132.24s-9.5-7.4-20.51-6.1c-11.01,1.3-15.8-3.13-12.81,4.77,2.99,7.9,6.91,7.43,16.22,10.02,9.31,2.59,17.1-8.7,17.1-8.7Z"/>
    <path class="st0" d="M201.1,1203.47s21.16,30.02,25.26,44.52c4.09,14.5-8.34,37.28-39.4,18.64-31.07-18.64-28.79-12.65-47.53-28.07-18.74-15.42-33.68-29.9-13.78-35.09,19.89-5.19,75.47,0,75.47,0Z"/>
    <g>
      <path class="st27" d="M66.89,1249.01s3.81,12.6,12.02,8.5c8.21-4.1,3.52-40.45,14.36-57.15s44.84-35.47,55.98-46.02c11.14-10.55,29.6-23.45,44.55-20.52,14.95,2.93,21.1,31.95,22.28,44.84s6.16,44.55,35.47,48.07c29.31,3.52,56.86-11.72,73.28-25.21,16.41-13.48,40.45-34.29,71.81-39.86,31.36-5.57,55.4-.88,62.72,4.1,7.33,4.98,15.83,1.17,12.31-7.62-3.52-8.79-31.36-20.81-67.41-16.12-36.05,4.69-86.76,35.76-104.34,48.07-17.59,12.31-31.95,16.71-43.09,9.09-11.14-7.62-15.53-27.26-15.83-38.98-.29-11.72-7.91-45.72-35.17-51.88-27.26-6.16-50.71-.88-61.55,13.78-10.84,14.66-20.52,26.09-39.86,37.22-19.34,11.14-36.34,38.69-39.28,53.05-2.93,14.36,1.76,36.64,1.76,36.64Z"/>
      <path class="st21" d="M83.01,1228.2s1.47-22.86,13.19-37.22c11.72-14.36,27.84-21.69,37.22-29.02,9.38-7.33,33.71-34.29,51.59-34.88s29.31,12.6,30.78,28.14c1.47,15.53,7.33,49.24,19.05,58.62,11.72,9.38,20.81,10.26,38.4,8.21,17.59-2.05,26.97-9.38,26.97-9.38,0,0-51.66,17.57-64.78-2.64-13.12-20.21-11.43-53.93-14.36-65.07-2.93-11.14-13.19-27.55-37.22-24.91s-42.79,27.55-51.29,35.47c-8.5,7.91-24.03,14.36-39.86,33.71-15.83,19.34-9.67,38.98-9.67,38.98Z"/>
      <path class="st21" d="M312.8,1203.88s23.74-20.52,35.76-28.14c12.02-7.62,32.53-15.83,51.59-18.76,19.05-2.93,42.79-2.93,53.05,2.64s15.83,3.81,15.83,3.81c0,0-9.67-5.36-20.81-8.39-11.14-3.04-33.71-6.05-60.38,0-26.67,6.05-52.76,24.52-63.31,33.6-10.55,9.09-14.36,12.02-14.36,12.02l2.64,3.22Z"/>
      <path class="st29" d="M237.77,1173.99s-2.64,25.79,15.83,32.82c18.47,7.03,21.4,6.45,35.47,1.17,14.07-5.28,29.6-25.2,43.09-33.99,13.48-8.8,46.6-24.04,65.36-26.97,18.76-2.93,24.03-2.34,24.03-2.34l2.05,1.76s-8.73-.1-25.5,2.34c-16.77,2.44-49.83,14.66-65.07,27.55-15.24,12.9-36.05,38.69-60.67,38.69s-31.95-12.02-36.34-23.45c-4.4-11.43-1.76-19.64-1.76-19.64l3.52,2.06Z"/>
      <path class="st29" d="M227.8,1135.88s-7.62-18.17-26.97-22.86c-19.34-4.69-26.97-3.52-42.21,8.21-15.24,11.72-23.15,22.57-33.41,27.55-10.26,4.98-21.98,15.24-21.98,15.24,0,0,16.41-7.95,24.33-12.48,7.91-4.52,23.74-20.94,31.95-27.09s15.44-11.21,31.51-10.26c16.07.96,26.53,10.84,29.17,16.12s4.4,10.55,6.45,9.97c2.05-.59,1.17-4.4,1.17-4.4Z"/>
      <path class="st9" d="M264.74,1205.87s1.74,9.16,0,15.24l-1.74,6.08,1.74-21.33Z"/>
      <path class="st9" d="M276.72,1203.88s2.43,6.19,2.66,12.66l.22,6.47s3.54-14.78-2.88-19.12Z"/>
      <path class="st9" d="M290,1199.54s4.18,1.51,6.46,7.82c2.28,6.31,1.95,7.66,1.95,7.66,0,0-3.54-10.17-8.41-15.48Z"/>
      <path class="st9" d="M300.2,1193.34s6.62,3.32,8.61,8.85l1.99,5.53s1.28-5.46-1.69-9.59c-2.96-4.13-8.92-4.79-8.92-4.79Z"/>
      <path class="st9" d="M312.8,1186.25s5.09,2.66,7.97,7.08c2.88,4.43,2.88,6.2,2.88,6.2,0,0-9.02-9.79-10.85-13.28Z"/>
      <path class="st9" d="M319.88,1179.82s6.9-.82,10.87,3.81c3.96,4.62,4.19,6.39,4.19,6.39,0,0,1.18-5.28-2.11-7.95-3.28-2.67-12.95-2.25-12.95-2.25Z"/>
      <path class="st9" d="M339.32,1169.71s1.61-.26,3.36,4.27c1.76,4.54,2.43,5.83,2.43,5.83,0,0,.23-4.76-1.11-7.51-1.34-2.75-4.69-2.6-4.69-2.6Z"/>
      <path class="st9" d="M353.75,1160.35s4.64,0,5.64,5.31,0,6.87,0,6.87c0,0-2.54-10.85-5.64-12.17Z"/>
      <path class="st9" d="M370.25,1155.25s4.08,2,4.08,5.99v3.98l-4.08-9.97Z"/>
      <path class="st9" d="M380.59,1151.46s3.7.93,4.59,6.02l.89,5.09s1.33-3.57,0-7.32-5.47-3.79-5.47-3.79Z"/>
      <path class="st9" d="M398.57,1146.85s2.78,2.43,3,7.08,0,5.53,0,5.53c0,0,1.06-4.53,1.11-7.93s-4.1-4.69-4.1-4.69Z"/>
      <path class="st9" d="M413.96,1144.62s2.91,3.07,3.32,6.83,0,5.56,0,5.56c0,0,1.05-3.62.18-7.95s-3.5-4.44-3.5-4.44Z"/>
      <path class="st9" d="M431,1144.62s3.98.98,2.43,6.92l-1.55,5.94s2.21-11.1-.89-12.86Z"/>
      <path class="st9" d="M444.51,1146.85s1.77,5.29,0,8.4l-1.77,3.11s4.43-1.99,4.21-5.2-2.43-6.31-2.43-6.31Z"/>
      <path class="st9" d="M457.79,1151.54s.22,3.06,0,5.94c-.22,2.88-1.51,3.66-1.51,3.66,0,0,5.27-2.48,1.51-9.6Z"/>
      <path class="st9" d="M254.36,1203.88s-2.88,5.3-5.53,12.66l-2.66,7.35s8.02-13.49,8.19-20.01Z"/>
      <path class="st9" d="M246.17,1196.88s-5.09.74-9.96,7l-4.87,6.26,14.83-13.25Z"/>
      <path class="st9" d="M240.41,1184.89s.55-2.84-9.08,0c-9.63,2.84-10.4,5.13-10.4,5.13,0,0,15.72-5.16,19.48-5.13Z"/>
      <path class="st9" d="M238.75,1170.98s1.44-2.88-8.08-2.66c-9.52.22-13.73,4.21-13.73,4.21,0,0,16.16-3.98,21.8-1.55Z"/>
      <path class="st9" d="M235.76,1155.25s-5.04-4.67-13.7-4.43c-8.66.24-8.22,4.43-8.22,4.43,0,0,6.42-3.57,10.96-2.22,4.54,1.35,10.96,2.22,10.96,2.22Z"/>
      <path class="st9" d="M231.34,1139.33s-1.77-6.2-10.4-4.65c-8.63,1.55-12.62,6.2-12.62,6.2,0,0,15.7-8.09,23.02-1.55Z"/>
      <path class="st9" d="M200.35,1134.43s.22-8.38,7.97-12.37c7.75-3.98,8.63-4.21,8.63-4.21,0,0-8.85,4.82-16.6,16.57Z"/>
      <path class="st9" d="M195.25,1107.67s-4.49,4.65-4.24,13.95l.25,9.3,3.98-23.24Z"/>
      <path class="st9" d="M168.69,1110.77s-1.35,6.58,1.32,13.27c2.67,6.68,5.76,8.21,5.76,8.21,0,0-7.53-16.82-7.08-21.47Z"/>
      <path class="st9" d="M147.44,1124.05s-1.77,11.07,2.66,15.5,6.86,5.08,6.86,5.08c0,0-8.85-10.83-9.52-20.57Z"/>
      <path class="st9" d="M125.22,1148.77s.82,5.14,5.99,7.92c5.17,2.78,6.27,3.66,6.27,3.66,0,0-11.69-10.32-12.26-11.58Z"/>
      <path class="st9" d="M109.33,1161.02s.92,6.42,4.91,9.52,6.2,3.45,6.2,3.45c0,0-11.19-10.95-11.11-12.97Z"/>
      <path class="st9" d="M94.31,1173.99s.59,6.56,4.74,8.08,6.55,1.56,6.55,1.56c0,0-9.64-3.87-11.29-9.64Z"/>
      <path class="st9" d="M84.35,1188.69s.88,4.09,4.63,5.66c3.75,1.58,4.17.89,4.17.89l-8.8-6.55Z"/>
      <path class="st9" d="M76.61,1205.87s2.35,3.04,6.25,3.32l3.89.28-10.14-3.6Z"/>
      <path class="st9" d="M69.96,1218.13s2.32,4.56,7.97,4.87l5.65.31-13.62-5.18Z"/>
      <path class="st9" d="M69.96,1234.73s3.76,2.43,7.97,1.99l4.21-.44s-7.97,5.98-12.17-1.55Z"/>
    </g>
    <path class="st33" d="M168.35,1213.44s-.81,10.17,11.29,21.29c12.1,11.12,28.54,15.73,28.67,21.49s-17.73-.58-29.25-9.22c-11.52-8.64-28.23-20.31-31.98-26.29-3.74-5.97,21.26-7.28,21.26-7.28Z"/>
    <path class="st36" d="M372.29,1178.81s-21.2-1.11-12.46,6.08c8.74,7.19,33.13,3.44,26.02-1.26-7.11-4.71-13.56-4.82-13.56-4.82Z"/>
    <path class="st36" d="M393.23,1157.48s-5.97,1.91.55,5.09c6.52,3.18,10.93,7.46,11,2.66.07-4.81-3.22-11.29-3.22-11.29l-8.33,3.54Z"/>
    <path class="st36" d="M318.22,1157.48c2.47-.11,24.48-12.62,30-4.87,5.52,7.75-11.68,7.27-18.41,8.41-6.73,1.14-21.27,6.65-24.17,3-2.9-3.65,12.58-6.54,12.58-6.54Z"/>
    <path class="st36" d="M161.48,1101.45c3.59-.94,14.11-.35,16.03-4.54,1.92-4.19-4.18-14.31-11.9-8.95-7.72,5.36-10.71,13.23-15.5,13.49-4.79.25-2.99,2.45,0,4.35s11.37-4.35,11.37-4.35Z"/>
    <path class="st36" d="M125.22,1177.71s8.92-2.37,6.13,2.11c-2.79,4.49-4.69,12.52-10.91,6.44-6.23-6.08,4.78-8.55,4.78-8.55Z"/>
    <path class="st36" d="M125.21,1161.22s6.35-6.25,17.12-.26c10.77,5.99,20.62,5.15,20.18,9.46-.43,4.31-14.8,5.5-23.18,5.5s-16.54,5.89-18.9-1.94c-2.36-7.83,4.77-12.76,4.77-12.76Z"/>
    <g>
      <path class="st14" d="M347.45,995.56s-.36-.59-1.22-1.39c-.86-.8-1.19-.93-1.19-.93,0,0,.18-1.03-.34-2.31s-.28-1.94-.4-2.04,2.28-1.7,2.73-2.92c.45-1.22.49-2.12.24-2.01s-.06,1.37-.67,2.15c-.61.78-3.02,2.1-2.91,3.01s.97,3.55,1.05,3.65-.09.44-.09.44c0,0-2.25.2-3.42,1.39-1.18,1.2-2.09,1.81-1.17,2.69s1.64,1.06,1.64,1.06c0,0-2.06.03-2.77.92-.71.9-1.55,3.18-1.55,3.18,0,0-.27-2.22.1-3.29s.05-4.75.02-6.11-.51-2.09-.51-2.09c0,0,.34,3.01.36,3.58.02.57-.08,3-.27,3.44s-.93,2.49-.68,3.36.67,1.7.67,1.7c0,0-.32.65-1.06,1.2s-.77.93-.77.93c0,0-3.95-2.12-5.09-2.16-1.15-.04-6.59,1.14-7.8,1.29-1.21.15-2.64-.23-2.64-.23,0,0,1.72.45,2.96.48s6.77-1.12,6.77-1.12c0,0,2.55,1.45,3.56,1.82s2.02.53,2.02.53l-1.12.53s-1.02-.8-2.2-.9-1.94-.38-1.94-.38c0,0-2.11,1.44-3.58,2.76s-4.04,2.79-4.59,3.14-2.85,1.18-2.85,1.18c0,0,2.17-.77,3.28-1.03,1.11-.26,7.34-5.14,7.34-5.14,0,0,1.41.2,2.02.53.61.32.94.5.94.5,0,0-5.61,5.48-2.33,8.06,3.28,2.57,6.78-3.78,6.78-3.78,0,0,.48,2.93.6,3.38l.12.45s-1.74,5.5-1.99,6.17c-.25.67-1.36,6.27-1.27,6.5l.09.23,1.39-6.76s2.15-6.24,2.22-6.42-.17-3.78-.39-4.35l-.22-.57s-.17-1.08-.08-1.44.29-1.02.29-1.02c0,0,.21.48,1.11.83.9.35,2.74.16,2.74.16,0,0,.19,3.8.45,4.12s.03,3.16.51,4.25.61,1.03.61,1.03c0,0-.6-1.69-.62-1.9s-.08-7.79-.46-8.1-3.5-.64-3.5-.64c0,0,.21-.97.38-1.23s.55-.75.55-.75c0,0,.89.27,1.84-.2.96-.47,1.53-1,1.53-1,0,0,1.93-.41,2.85-.82.92-.42,1.68-.68,2.16-.7h.48s-.91-.3-1.42-.15-1.9.62-2.39.75-1.87.14-2.36.46-1.48.58-1.48.58c0,0,1.83-1.33,2.24-2.45.41-1.13.42-2.18.42-2.18,0,0,.31,1.66,1.67,1.47s2.63-2.29,2.72-3.36l.09-1.07s.11-.58.6-.51,3.1,1.5,3.62.88c.52-.61.36-.7-.23-2.65-.59-1.95-.59-3.29-.32-3.59s.4-.11.27-.3-1.39.53-.81,1.68.99,3.84,1.01,4.01-2.57-.53-3.32-.37-1-.08-1-.08Z"/>
      <path class="st4" d="M344.16,994.15s-1.59.83-1.68,2.13c-.09,1.31.58,2.26.58,2.26,0,0-2.3-1.22-2.24-2.19s3.34-2.2,3.34-2.2Z"/>
      <path class="st4" d="M340.93,999.46s-1.83,2.53-2.58,3.98-2.84,3.61-2.84,3.61c0,0-4.14,3.49-4.33,5.27-.19,1.78.14,2.15.14,2.15,0,0-2.42-1.16-.77-3.9,1.65-2.75,5.58-5,5.58-5,0,0,1.4-1.73,2.12-3.2.72-1.47,1.81-2.9,2.68-2.91Z"/>
    </g>
  </g>
  <g>
    <polygon class="st1" points="824.34 658.19 823.93 661.99 824.34 661.67 824.66 662.22 825.26 658.19 824.34 658.19"/>
    <polygon class="st1" points="842.39 655.9 847.01 656.54 846.6 656.22 847.29 656.22 842.98 654.99 842.39 655.9"/>
    <path class="st24" d="M816.24,651.55s-.18-1.56.96-2.2,2.75-2.66,3.8-2.79,1.33.6,1.33.6c0,0,.37-.37.82-.32l.46.05s-.6-1.01,1.28-1.79c1.88-.78,3.02,0,3.02,0,0,0,.6-2.11,2.11-2.29s2.29.46,2.29.46c0,0,.09-.92,1.1-1.19s1.6,0,1.6,0c0,0,.78-1.24,1.79-1.33l1.01-.09s2.02-.92,2.66-.92h.64s2.66-.64,3.98-.64,1.42.37,1.42.37c0,0,4.17.46,5.4,1.14s1.83,1.88,1.83,1.88c0,0-.37,1.24.23,1.56l.6.32s.69,1.14-.5,3.11-3.11,3.75-3.11,3.75c0,0-.73,1.01-2.06,2.11s-2.15,1.05-2.15,1.05c0,0-1.68,1.14-2.66,1.37l-.98.24s-.31.82-1.5.54-1.42-.37-1.42-.37c0,0-.78,1.01-2.11.92s-1.65-.27-1.65-.27c0,0-.27.78-1.92.87s-2.66-.37-2.66-.37c0,0-.64,1.47-2.43,1.47s-3.25-1.28-3.25-1.28c0,0-.4,1.17-.98,1.11l-.58-.06s-.69.6-2.75.23-3.53-1.74-4.35-2.24-2.11-2.34-1.88-3.25.6-1.74.6-1.74Z"/>
    <path class="st1" d="M816.42,654.99s1.19.78.64,1.19c-.55.41-.92.37-.92.37,0,0-.15.46-.53.55l-.39.09s-.09,1.05-.55,1.01l-.46-.05s-.09.82-.46,1.01l-.37.18s-1.05,2.56-1.65,1.88.41-2.31.41-2.31c0,0,.05-.81.46-1.13l.41-.32s.46-.64.82-.92l.37-.27s.05-.64.55-.82l.5-.18s.74-.59,1.14-.27Z"/>
    <path class="st1" d="M815.64,653.29s-.5.14-.6-.32,0-.69,0-.69c0,0-.87-.18-1.01-.73l-.14-.55s-1.14-1.19-1.05-1.56l.09-.37s-1.14-1.24-1.05-1.56l.09-.32s-2.38-3.21-1.28-3.53,2.02,2.79,2.02,2.79c0,0,.46.55.6.96s.27,1.05.27,1.05c0,0,.46.41.8.92l.34.5s.5.46.64.78l.14.32s.82-.42,1.05.23-.92,2.06-.92,2.06Z"/>
    <path class="st1" d="M822.14,647.8s-.14,4.9.55,7.19c.69,2.29,2.32,3.45,2.84,3.13s.6-1.06.6-1.06c0,0,1.79,1.04,2.89,1.12s2.52-1.12,2.52-1.12c0,0,1.82.27,3.02.32s1.79-1.6,1.79-1.6c0,0,.77.7,2.06.78s1.56-1.1,1.56-1.1c0,0,.78.32,2.11.32s1.33-.66,1.33-.66c0,0-.08.23,1.44-.12s1.76-1.05,1.76-1.05c0,0,1.6-.96,2.75-1.56,1.15-.59,1.33-1.51,1.33-1.51,0,0,.44-.99,1.37-1.42s1.37-2.2,1.37-2.2c0,0-.78,1.81-1.69,1.75s-1.6-1.25-1.6-1.25c0,0-.27,3.3-1.1,3.85s-2.29-1.69-2.61-2.89-2.61-5.06-2.61-5.06c0,0,1.51,3.64,1.97,5.84s.18,3.89-.69,4.17-.92-2.89-1.88-5.4c-.96-2.52-3.85-5.77-3.85-5.77,0,0,2.61,3.11,3.02,6.87s-.23,5.58-.73,5.54-1.24-4.9-2.24-7.1-3.07-3.94-3.07-3.94c0,0,1.69,2.68,2.43,5.14s.73,5.44-.23,5.99-1.88-2.79-2.47-4.95c-.6-2.15-2.89-5.13-2.89-5.13,0,0,3.02,7.69,2.93,9.02s-3.16,2.38-3.57,1.28-3.21-8.38-4.08-9.02c0,0,3.07,7.42,3.11,8.79.05,1.37-3.39,2.66-4.21,1.56-.82-1.1-2.77-8.79-2.77-8.79,0,0,2.27,8.52,1.12,8.79s-2.7-3.3-2.7-4.9-.87-3.85-.87-3.85Z"/>
    <path class="st1" d="M817.88,654.62s2.11,2.06,3.07,2.11,1.37-.55,1.37-.55l1.37,2.02s-5.04-.37-5.82-3.57Z"/>
  </g>
  <g>
    <path class="st31" d="M559.94,630.07s.24-1.96-.46-3.28c-.71-1.32-.88-2.15-.88-2.15,0,0-1.13-1.18-1.5-1.66-.37-.48-2.66-2.65-3.95-3.67-1.3-1.03-1.31-1.47-1.31-1.47,0,0-3.53-2.5-5.05-3.14s-3.59-2.27-3.59-2.27l.38-.22,2.59,1.29s3.54,1.63,5.22,2.66c1.68,1.02,1.89,1.34,1.89,1.34,0,0,3.62,3,4.38,3.92,0,0,1.14.86,2.53,3.21,1.39,2.35,2.09,4.54,1.84,6.12l-.24,1.58-1.85-2.24Z"/>
    <path class="st31" d="M560.56,638.92s-2.71.81-3.05.84-4.05,1.17-6.44.91-2.89-.63-2.89-.63c0,0-3.17-.23-5.74-.62s-3.51-.9-3.51-.9c0,0-6.02-.99-7.01-1.52s-.6-.54-.99-.54-2.49-.18-2.49-.18l.4-.26-.55-.23,3.47.27s3.55.93,5.56,1.1c2.01.17,2.47.06,2.47.06,0,0,2.99.48,5.1.67s3.13.52,4.6.69,3.48.17,5.52-.3,4.14-1.22,4.14-1.22l1.95,1.11-.39-.77,2.13-2.86s2.1-.42,3.33.39,2.55,3.34,2.55,3.34c0,0,2.21,2.05,1.1,3.62-1.11,1.57-2.41,1.24-3.54.83s-3.9-.52-4.98-1.45c-1.09-.93-.75-2.33-.75-2.33Z"/>
    <path class="st31" d="M579.31,665.76l-.81-2.32-1.83-5.45s-2.38-4.36-3.23-6.01c-.86-1.65-2.04-2.59-2.04-2.59,0,0-.48-.94-1.32-1.53s-3.56-2.46-4.36-3.41-.6-2.55-.6-2.55l-1.13-.03s-.05,1.77.09,2.8c.14,1.03,1.7,2.46,3.01,3.23s3.08,2.13,3.08,2.13c0,0,2.18,2.64,2.5,3.19.32.55,3.07,5.4,3.07,5.4l3.02,6.94.14.32.4-.1Z"/>
    <path class="st31" d="M555.42,666s.89-1.56,1.3-2.14,2.26-4.35,2.48-4.58.43-.08.95-1.35c.52-1.27,1.63-7.15,1.63-7.15,0,0,.11-1.23.29-3.57.18-2.33,1.37-5.48,1.37-5.48l-1.29-.64s-.73,1.18-1.02,2.06-.41,3.59-.7,5.24-.34,4.19-.39,4.64-1.65,5.34-1.75,6.03-1.75,4.17-2.31,5.03-.97,1.61-.97,1.61h.32s.12.31.12.31Z"/>
    <path class="st31" d="M561.91,640.86l-1.53,1.54c-.57.58-1.31,2.24-2.95,4.47-1.63,2.23-2.1,2.61-2.1,2.61,0,0-2.18,3.1-3.14,4.44s-3.07,3.84-3.27,4.13c-.14.19-.71,1-1.08,1.53l-.34.47-.02-.51-.33-.07,1.8-2.55s1.86-2.4,2.6-3.68c.74-1.28.69-1.92,2.16-3.72,1.47-1.8,1.92-2.35,2.46-3.12s2-3.67,3.08-5.2c1.08-1.53,1.34-1.89,1.34-1.89l1.32,1.53Z"/>
    <path class="st31" d="M568.16,637.91s.45-.17,1.69-.39,3.1.18,3.98.63,3.1,1.49,3.45,1.46,2.5.57,3.95.67,6.7.42,6.93.32,7.57-.43,7.57-.43l-.29-.21.6-.23h-7.55s-1.55-.65-2.69-.47-5.03-.34-6.33-.6-2.04-.68-3.19-1.28-5.54-1.74-6.03-1.59-2.23.44-2.23.44l-1.02.21s.44-.24,1.37-1.16c.93-.93,7.26-3.77,7.91-4.07s4.34-2.88,5.7-4.11c1.36-1.22,6.69-6.13,6.69-6.13l-.76.38.18-.42-6.05,5.39s-.72-.07-2.59,1.5-4.86,2.85-4.86,2.85c0,0-3.06.84-5.09,2.24-2.03,1.4-4.15,1.16-3.53.51s1.86-2.01,2.63-3.17c.76-1.15.95-2.6,1.93-4.48s1.11-4.68,1.11-4.68v-4.32s.06-2.47.06-2.47l-.23.33-.3-.43-.05,2.92s.02,3.68-.44,4.33-2.28,7.08-2.7,7.44-2.3,2.09-3.16,3.39c-.87,1.3-1.4,2.67-1.4,2.67l4.73,2.97Z"/>
    <path class="st35" d="M562.22,637.03s.79-2.12.42-3.75c-.37-1.63-6.42-7.45-9.35-3.39-2.92,4.05,2.67,7.03,4.8,7.66s4-.11,4.14-.51Z"/>
    <path class="st31" d="M561.72,634.27s-5.6-4.29-6.78-3.54-1.66,1.72-1.66,1.72c0,0,.7-2.29,2.29-2.81s6.05,3.46,6.15,4.63Z"/>
  </g>
  <path class="st15" d="M631.39,376.91s72.14-33.64,113.08-44.58,68.5-15.81,118.75-15.81,93.63,2.03,111.46,15c17.83,12.97,16.21,25.13,32.83,34.45,16.62,9.32,22.7,10.94,20.27,17.02s-19.05,2.43-13.78-1.62c5.27-4.05,7.3.81,7.3.81,0,0-2.24-6.22-8.22-2.15-5.98,4.07,2.15,9.57,10.77,8.14,8.62-1.44,5.55-10.05,4.45-11.97-1.1-1.91-19.29-11.25-24.08-14.36-4.79-3.11-16.28-23.22-22.98-28.72-6.7-5.5-22.26-20.1-88.56-22.74-66.3-2.63-110.58,1.2-149.11,10.53-38.53,9.33-82.1,32.55-94.06,37.34-11.97,4.79-17.95,5.5-20.34,4.07s-6.51,18.59,2.22,14.59Z"/>
  <path class="st15" d="M933.13,316.37s-.57-61.39-2.96-66.18-5.66-1.08-6.38,1.56c-.72,2.63,0,4.31,1.91,4.07s1.68-4.07,1.68-4.07c0,0,2.15,7.18-1.91,5.74-4.07-1.44-4.78-8.62,2.87-10.77s6.46,69.65,6.46,69.65h-1.68Z"/>
  <path class="st18" d="M930.5,316.37s.72.48,10.29,0c9.57-.48,33.99-12.45,33.99-15.08s-4.31-11.97-9.33-11.25c-5.03.72-17.95,19.87-20.82,21.78s-14.12,4.55-14.12,4.55Z"/>
  <path class="st19" d="M952.64,307.99s20.7-8.38,22.14-6.7-25.91,19.84-44.28,15.08c0,0,17.47-7.9,22.14-8.38Z"/>
  <path class="st18" d="M859.9,229.96s-8.14,21.78-2.39,41.89c5.74,20.1,21.54,32.25,29.2,31.44,7.66-.8,18.19-26.18,13.88-38.86-4.31-12.69-34.7-38.3-40.69-34.47Z"/>
  <path class="st15" d="M862.29,234.99s24.41,77.55,27.76,77.55-27.76-77.55-27.76-77.55Z"/>
  <path class="st18" d="M829.26,301.07s-36.62-16.77-33.27-48.37c3.35-31.59,7.66-49.54,22.74-54.57s36.62,37.82,39.97,59.36c3.35,21.54-15.8,47.43-29.44,43.58Z"/>
  <path class="st15" d="M818.73,209.86s10.05,95.76,10.05,100.66v4.89h3.59s-1.98-29.44-4.94-55.29c-2.96-25.85-8.7-50.26-8.7-50.26Z"/>
  <path class="st18" d="M757.93,309.11s-37.34-22.19-26.09-68.38c11.25-46.19,30.64-60.55,32.79-60.55s20.1,21.3,28.24,43.8c8.14,22.5-11.97,76.83-20.58,82.33-8.62,5.5-14.36,2.8-14.36,2.8Z"/>
  <path class="st15" d="M764.88,187.24s-6.67,134.15-2.62,134.15,2.62-134.15,2.62-134.15Z"/>
  <path class="st18" d="M597.25,369.47s-23.22,16.75-26.09,29.44c-2.87,12.69,3.35,23.93,7.66,28.48s13.16,4.79,25.61,6.22c12.45,1.44,25.37-9.57,36.38-4.55,11.01,5.03,32.07,9.81,48.83,4.79,16.75-5.03,21.3-24.65,34.7-29.92s20.34-11.97,18.19-22.02-35.66-44.52-55.05-49.78-52.9-9.1-62.71,7.42c-9.81,16.51-27.52,29.92-27.52,29.92Z"/>
  <path class="st15" d="M605.17,399.07s5.74,7.18,13.4,5.03c7.66-2.15,27.76-6.22,37.1-5.03,9.33,1.2,62.23-5.03,62.23-5.03,0,0-47.5,3.11-59.53,3.11s-17.54-.72-22.8-3.11-4.55-6.46-11.73-7.9c-7.18-1.44-21.3.96-18.67,12.92Z"/>
  <path class="st22" d="M653.18,282.45s-15.08,81.38-18.19,113.21-5.74,84.73,0,83.05c5.74-1.68,18.19-76.11,22.98-118.71,4.79-42.6-.96-77.55-.96-77.55h-3.83Z"/>
  <path class="st15" d="M595.64,383.33s-20.25-17.77-21.9-32.23c-1.65-14.46-38.02-121.09-49.59-150.43-11.57-29.34-29.76-70.26-29.76-70.26,0,0,2.48,17.77,4.13,21.08,1.65,3.31,23.97,49.18,30.99,73.15,7.03,23.97,21.49,69.84,27.69,97.12s14.88,52.9,25.62,65.3c10.74,12.4,15.7,9.09,15.7,9.09l-2.89-12.81Z"/>
  <path class="st15" d="M595.64,383.33s2.07,2.46,9.64,6.2c7.57,3.74,14.7,4.89,12.49,10.71-2.21,5.82-12.05,4.81-12.05,4.81,0,0-13.38-7.91-16.58-15.52-3.2-7.61,6.49-6.2,6.49-6.2Z"/>
  <path class="st15" d="M992.63,351.7s-28.92,27.91-41.24,30.75c-12.32,2.84-20.59,18.86-5.6,20.92,14.99,2.07,4.2-10.14,4.2-10.14,0,0,4.47,5.52,1.55,7.95-2.92,2.43-9.88,1.16-11.05-3.1s1.94-11.24,9.5-13.18,25.78-15.31,27.52-17.05c1.74-1.74,17.25-16.14,17.25-16.14h-2.12Z"/>
  <path class="st23" d="M550.65,291.35v15.74l5.34-11.09s4.77,5.45,7.82,5.69c3.05.23,0-.94-1.41-5.4-1.41-4.46-2.67-20.2-10.14-22.79-7.47-2.58-8.65,12.23-8.18,19.74s-.75,12.68-.75,12.68l7.33-14.56Z"/>
  <path class="st22" d="M496.15,124.09s2.35,19.5-7.52,54.5-1.88,129.2,1.88,141.18c3.76,11.98,5.88,15.27,5.88,15.27,0,0,6.57-49.57,6.57-76.35s-4.46-79.4-4.46-88.56.47-26.08.47-26.08l-2.82-19.97Z"/>
  <path class="st37" d="M494.92,154.4s-5.17,64.13-5.4,94.9c-.23,30.77,3.76,70.47,3.76,70.47,0,0-1.46-76.35-2.02-78.23-.56-1.88,3.66-87.15,3.66-87.15Z"/>
  <path class="st15" d="M483.89,148.29s6.14-4.93,7.79-13.15c1.65-8.22,1.65-13.39,4-13.86s.23-4.46,3.29-4.46,2.35,5.4,2.35,5.4c0,0,1.17-.47,2.82,5.4,1.64,5.87-.7,8.93,2.35,14.56,3.05,5.64,5.64,8.69,5.64,8.69l-9.16-5.17-6.32,14.35.44-10.36-13.2-1.41Z"/>
  <path class="st15" d="M587.77,394.88s-67.57-29.34-112.59-40.19c-45.02-10.85-125.56-21.89-152.5-17.08-26.94,4.81-46.75,27.75-47.73,44.55-.12,2.1.1,4.54.58,7.18,3.37,18.52,19.71,47.3,23.62,42.74,4.47-5.21.93-9.76.93-9.76,0,0,2.03,9.91-3.06,7.29-5.1-2.62-20.01-29.16-20.72-46.1-.71-16.94,21.86-41.22,46.64-44.07,24.78-2.85,119.73,15.3,144.17,20.03,24.44,4.74,133.39,52,141.93,46.19,8.55-5.81-21.29-10.77-21.29-10.77Z"/>
  <path class="st5" d="M262.46,414.38s2.56,3.23,3.03-.13-5.06-4.94-7.95-1.79,8.69,14.18,19.26,15.86c10.57,1.68,15.66-.65,15.66-.65l-.05-1.21s-8.09,3.17-15.75,1.16c-7.66-2-19.36-8.89-18.69-14.67,0,0,3.11-2.49,5.31-1.03s1.8,4.37-.81,2.46Z"/>
  <path class="st15" d="M348.36,258.36s7.5-9.1-.4-9.68c-7.9-.58-25.27,88.92-25.27,88.92l2.01-.08s8.92-49.95,14.49-66.65c5.56-16.7,7.25-22.32,10.35-20.74,3.1,1.59-1.17,8.23-1.17,8.23Z"/>
  <path class="st18" d="M364.43,331.03s-24.97-24.71,3.89-44.71c28.86-19.99,30.05-13.38,31.14-8.88s-3.15,40.74-17.4,47.7c-14.25,6.96-17.63,5.89-17.63,5.89Z"/>
  <path class="st15" d="M393.74,278.28s-17.48,24.06-25.03,39.23c-7.55,15.16-3.34,21.65-3.34,21.65l3.03-.13s-3.63-7.12,3.03-21.64c6.67-14.52,22.3-39.11,22.3-39.11Z"/>
  <path class="st18" d="M415.29,337.08s-22.97-20.25-13.09-44.91c9.88-24.66,29.65-35.48,34.97-32.37s10,28.07,10.97,44.09-32.86,33.19-32.86,33.19Z"/>
  <path class="st15" d="M435.52,262.9s-15.41,43.84-18.79,58.06c-3.38,14.22-1.08,24.89-1.08,24.89l3.93-.16s-6.55-4.57-1.01-24.2c5.54-19.63,16.95-58.59,16.95-58.59Z"/>
  <path class="st18" d="M483.67,349.07s-38.47.4-47.28-29.24c-8.81-29.64,1.98-61.33,8.36-60.97,6.38.36,10.35,8.44,16.82,11.02s27.38,17.15,33.47,39.63c6.09,22.47-11.38,39.57-11.38,39.57Z"/>
  <path class="st15" d="M444.78,266.76s22.25,61.19,29.43,73.32c7.17,12.12,10.5,19.26,10.5,19.26l6.43,1.55s-16.24-26.11-20.82-34.19-25.54-59.93-25.54-59.93Z"/>
  <path class="st19" d="M481.09,359.79s-27.58-.06-49.18,5.09c-21.6,5.15-38.83,27.99-44.63,34.29-5.8,6.3,13.84-2.4,26.23-3.22,12.39-.82,71.52-31.54,67.58-36.16Z"/>
  <path class="st15" d="M415.51,385.86s15.23-5.48,33.97-13.84,31.61-12.23,31.61-12.23l2.48,1.41-68.06,24.66Z"/>
  <path class="st19" d="M422.39,347.39s-37.14,3.07-39.45,5.89c-2.31,2.82-17.83,8.32-22.28,17.9-4.45,9.58-5.33,32.07,1.31,31.32s44.53-22.03,55.1-30.35,5.33-24.77,5.33-24.77Z"/>
  <path class="st15" d="M371.14,390.14s27.64-27.52,38.8-35.86c11.17-8.35,13.3-8.74,13.3-8.74l3.91,1.65s-45.48,34.02-56.02,42.95Z"/>
  <path class="st19" d="M369.1,341.13s-26.68,28.69-47.75,32c-21.07,3.31-12.37-13.12,6.66-21.79,19.03-8.67,41.09-10.2,41.09-10.2Z"/>
  <polygon class="st15" points="370.52 338.95 318.1 368.11 372.12 341.01 370.52 338.95"/>
  <path class="st19" d="M321.26,337.88s8.18,11.58-15.26,23.47c-23.44,11.89-32.18,14.98-31.72,7.08.47-7.9,28.07-37.75,46.98-30.55Z"/>
  <path class="st15" d="M282.24,365.7s17.19-12.91,29.91-21.26c5.8-3.81,10.67-6.67,12.55-6.92l6.01-.81s-30.21,16.14-48.46,29Z"/>
  <path class="st15" d="M603.83,396.45s-17.48-12.1-23.65-29.35c-6.18-17.25-21.51-72.37-39.2-111.33-5.1-11.24-10.03-21.86-14.46-31.28-10.91-23.22-19-46.04-19-46.04-5.83-10.77,10.82,38.69,23.53,64.4,7.7,15.58,28.94,68.79,36.54,98.47,7.6,29.68,16.87,47.12,25.05,55.59,8.18,8.47,10.44,10.5,15.14,6.97s-3.95-7.44-3.95-7.44Z"/>
  <path class="st15" d="M493.56,218.53s4.25-5.13,13.65-5.53c9.4-.39,14.8,4.34,14.8,4.34l1.12,3.17s-11.62-5.21-18.79-4.91-7.43,6.01-7.43,6.01l-3.35-3.08Z"/>
  <path class="st37" d="M493.87,233.39s-3.58,9.93-.21,47.98c3.36,38.06,9.07,89.74,8.95,97.36l-.13,7.62s16.14-6.27,21.17-18.57c5.03-12.3,5.06-48.56-4.42-84.42-9.48-35.86-19.61-50.21-19.61-50.21l-5.75.24Z"/>
  <path class="st15" d="M497.23,217.51s-5.3-1.64-6.59,2.63c-1.3,4.27-2.38,8.03-8.99,10.04l-6.61,2.01s3.89,4.05,9.24,1.6c5.35-2.45,6.79-3.26,6.79-3.26l4.23,11.99,2.64-8.06,9.58,3.81s-7.01-7.64-6.91-11.11c.1-3.47,1.55-10.01-3.38-9.65Z"/>
  <path class="st22" d="M508.74,187.41s-7.78,18.42-10.28,69.21c-2.5,50.79,15.13,93.6,15.13,93.6,0,0,3.11-83.58,4.62-110.66,1.51-27.08-8.05-48.91-8.05-48.91l-1.42-3.24Z"/>
  <path class="st15" d="M502.24,171.33s4.11,3.53.59,14.22c-3.52,10.69-6.06,12.53-6.06,12.53l5.45-3.45.93,4.42,6.91-7.66,8.84,5.02s-4.97-6.24-4.46-11.71-7.8-20.49-12.21-13.37Z"/>
  <path class="st22" d="M554.67,301.41s.29,39.97,1.3,82.06,17.77,81.29,21,81.41c3.23.11,2.83-3.34,2.91-7.56.07-4.22-.83-61.39-5.04-96.93-4.21-35.53-15.46-67.53-15.46-67.53l-4.7,8.55Z"/>
  <path class="st37" d="M561.27,326.46s12.26,133.11,14.7,132.26-14.7-132.26-14.7-132.26Z"/>
  <path class="st15" d="M553.5,280.95s-1.98,3.63-3.24,10.64c-1.25,7.01-6.36,16.09-6.36,16.09l6.69-2.57,1.9,8.55,7.63-11.88,10.39,8.51s-8.75-13.08-8.99-18.8-3.86-18.55-8.02-10.54Z"/>
  <path class="st19" d="M591.58,87.56s-1.79,8.1-26.47-4.69c-24.67-12.79-29.79-82.52-16.58-81.32,13.21,1.2,45.3,29.33,56.74,50.21s-13.7,35.8-13.7,35.8Z"/>
  <path class="st19" d="M630.36-18.28s-11.13,63.5,12.21,56.83c23.34-6.67,22.51-28.85,14.1-49.16-8.41-20.31-12.67-30.54-18.64-26.28-5.97,4.26-7.67,18.6-7.67,18.6Z"/>
  <polygon class="st15" points="555.18 19.37 595.6 100.77 598.53 98.22 555.18 19.37"/>
  <polygon class="st15" points="640.16 -26.8 650.82 45.81 653.37 44.09 640.16 -26.8"/>
  <path class="st15" d="M593.6,373.56s4.12,30.65,14.18,30.32,10.11.31,9.09-9.29-11.45-33.72-11.45-33.72h-8.91l-2.91,12.68Z"/>
  <path class="st37" d="M653.45,339.17s-18.17,114.35-17.8,130.54c0,0,22.53-125.38,17.8-130.54Z"/>
  <path class="st23" d="M690.41,185.98s3.25,13.22,3.93,21.11l-2.42,6.36-1.51-27.47Z"/>
  <path class="st37" d="M651.14,293.62s.29,5,2.73,6.77c2.44,1.77,5.22,1.91,5.22,1.91l-.33-5.57-7.62-3.1Z"/>
  <path class="st15" d="M669.02,254.27s-6.9,7.18-13.84,12.21c-6.94,5.03-6.94,7.18-6.94,11.25s-9.33,15.32-7.06,14.12,8.98-3.83,8.98-3.83c0,0-.24,8.86,6.22,11.25s8.86,3.03,8.86,3.03c0,0-2.63-13.8-1.91-17.16s5.7-30.88,5.7-30.88Z"/>
  <polygon class="st23" points="666.66 256.63 664.6 258.58 662.46 298.35 666.66 256.63"/>
  <path class="st6" d="M747.11,300.07s9.15-22.01,18.88-30.8,27.96-20.76,27.96-20.76l-46.85,51.56Z"/>
  <path class="st19" d="M759.61,321.39s-23.46,2.63-11.49-23.7c11.97-26.33,60.55-62.23,61.99-58.16s-21.63,34.23-24.12,40.81c-2.48,6.57-10.83,43.2-26.39,41.05Z"/>
  <path class="st6" d="M835.95,301.07s4.02-3.99,3.35-7.44c-.67-3.45-3.32-40.33,17.21-42.27l-15.03,48.72-5.53,1Z"/>
  <path class="st19" d="M840.85,301.66s-1.79-35.55,8.38-46.12c10.16-10.57,34.7-1.91,34.7-1.91l-43.08,48.03Z"/>
  <path class="st19" d="M826.97,312.74s11.73-5.5,27.76-17.71,29.2-41.41,29.2-41.41c0,0-57.19,53.79-56.96,59.12Z"/>
  <path class="st6" d="M899.9,282.83s-.87.63-7.08,6.17c-6.21,5.54-11.22,12.65-11.22,12.65l15.8-11.51,2.51-7.31Z"/>
  <path class="st19" d="M936.02,270.68s-34.33,23.56-39.8,30.89c-5.47,7.33-1,7.4-8.88,9.08s-10.6-2.62-7.68-6.82c2.92-4.19,12.99-9.97,17.76-17.84,4.76-7.86,25.27-21.06,38.6-15.32Z"/>
  <path class="st23" d="M539.96,156.48s5.73,54.71,10.83,73.38c5.1,18.67,19.11,45.75,23.57,54.67,4.46,8.92,12.74,40.86,17.52,64.54s11.17,48.65,18.73,49.06l7.56.42s-7.67-4.32-13.32-16.01c-5.65-11.69-13.61-59.23-22.53-84.2s-19.37-39.41-23.86-53.37c-4.49-13.96-10.48-53.11-13.69-71.13-3.22-18.01.09-24.38-21.63-69.93-21.72-45.55-26.21-64.93-26.36-84.55-.14-19.61,7.82-58.63,7.82-76.39s-12.92-126.67-12.92-126.67c0,0,3.56,66.54,6.33,85.97,2.77,19.43,3.62,35.99,1.76,57.02-1.86,21.02-10.21,55.73-5.46,76.13,4.75,20.4,32.91,85.76,37.37,99.1,4.46,13.34,7.81,17.6,8.28,21.94Z"/>
  <path class="st23" d="M720.82,336.77s19.47-11.98,60.45-16.99c40.98-5.01,49.42-4.37,49.42-4.37,0,0-47.44-3.06-83.58,8.99l-36.15,12.05,9.86.31Z"/>
  <path class="st15" d="M682.78,148.35s3.35-6.7,6.46-3.59,0,79.94,0,79.94c0,0,3.83-25.85,15.08-28,11.25-2.15,11.25,1.44,11.97,4.55s5.98,5.27,11.01,4.07c5.03-1.2,5.74-2.97,3.59-7.59s-8.86-3.18-16.28-4.62c-7.42-1.44-17.23,1.44-17.23,1.44,0,0-.72-55.05-4.31-56.01-3.59-.96-8.86,5.27-11.73,7.18-2.87,1.91-8.14,3.83-4.55,5.03s7.42,1.91,5.98-2.39Z"/>
  <path class="st22" d="M718.44,217.04s-15.8,15.32-22.98,58.64c-7.18,43.32,1.68,95.26,15.08,108.42,13.4,13.16,13.16-40.93,15.56-64.62,2.39-23.7,8.62-65.14,6.94-83.43-1.68-18.29-14.6-19.01-14.6-19.01Z"/>
  <path class="st37" d="M700.49,296.02s3.35,66.06,8.62,74.68c5.27,8.62,9.1,6.22,9.1,6.22,0,0-3.47,6.5-5.09,5.52s-18.54-27.28-12.62-86.42Z"/>
  <path class="st37" d="M708.6,232.16l5.29-3.63s3.71,11.81,5.99,10.68,7.84-12.11,7.84-12.11l5.32,8.94s-1.19-10.67-4.18-14.44c-2.99-3.77-14.37-3.67-20.26,10.55Z"/>
  <path class="st15" d="M720.36,202.55s-3.35,3.09-7.18,10.69c-3.83,7.6-5.27,12.38-5.27,12.38,0,0,6.83-.56,7.65-1.83.82-1.27,1.92,13.08,4.79,11.96s6.94-12.94,6.94-12.94c0,0,11.49,9,13.16,9s-7.82-27.57-10.73-29.26c-2.91-1.69-9.38,0-9.38,0Z"/>
  <path class="st23" d="M717.17,197.72s.03,4.31,2.65,5.37l2.62,1.07s-5.42,6.65-7.98,12.88l-2.57,6.23,5.27-1.89,3.65,8.2,4.19-6.16s-2.28,2.44-3.56,1.29-2.99-5.89-2.99-5.89c0,0-1.85,1.95-2.14.71s7.97-15.92,7.97-15.92c0,0-4.26-1.43-4.55-3.85s2.85-3.42,2.85-3.42c0,0-4.42-3.04-5.42,1.4Z"/>
  <g>
    <path class="st22" d="M680.15,164.86s-7.29,47.39-12.38,83.53c-5.09,36.14-7.28,73.48-6.07,80.42l1.21,6.94s18.67-43.8,25.85-76.59c7.18-32.79,1.44-85.69-1.68-90.95-3.11-5.27-6.94-3.35-6.94-3.35Z"/>
    <path class="st37" d="M675.84,213.45s-12.45,95.25-10.05,96.33,10.05-96.33,10.05-96.33Z"/>
    <polygon class="st37" points="679.33 171.56 685.78 178.45 686.46 172.61 688.58 173.38 686.6 167.31 679.33 171.56"/>
    <path class="st15" d="M679.33,146.91s-6.12-.72-6.84,5.27c-.72,5.98.4,11.49-1.72,14.6l-2.11,3.11,6.94-2.39s-2.12-.48,3.73,4.07l5.85,4.55v-6.94l7.73,6.94s-5.1-7.42-5.1-12.92-.44-16.04-8.48-16.28Z"/>
    <path class="st23" d="M677.91,149.8s-2.88,2.72-2.32,7.33c.56,4.62,4.22,10.86,4.22,10.86,0,0-3.04-9.64-3.01-11.81.02-2.17,3.13-5.43,2.53-6.38s-1.42,0-1.42,0Z"/>
  </g>
  <path class="st6" d="M659.86,327.71s-3.8,50.04-6.73,68.83c0,0,9.81-42.95,6.73-68.83Z"/>
  <polygon class="st37" points="554.75 310.14 560.21 304.83 563.25 305.94 562.92 304.07 560.12 301.78 554.75 310.14"/>
  <path class="st23" d="M556.11,282.45s0,.8-3.1,9.76c-3.1,8.97-4.1,10.08-4.1,10.08l3.6-.52,1.7,4.83,2.99-4.3-2.54.65-.45-3.28-1.97.07,3.86-17.29Z"/>
  <path class="st23" d="M502.96,190.36s3.02-8.18,3.53-11.91c.51-3.74,4.37,1.73,4.37,1.73,0,0-2.41-.78-3.02,1.64s-4.88,8.54-4.88,8.54Z"/>
  <path class="st23" d="M498.21,124.09s-3.05-1.86-3.82,4.58-2.32,13.37-4.89,16.29l-2.57,2.92,9.84-1.34,1.44,4.19,3.55-4.55-3.04.97-1.34-3.28-6.1,1.7s3.07-8.14,4.04-13.98c.97-5.83,2.89-7.5,2.89-7.5Z"/>
  <path class="st37" d="M515.44,220.77s.79,26.22-1.33,30.34l-2.13,4.12s2.94,6.56,2.13,11.53-1.98,5.92-1.98,5.92c0,0,2.13,1.33,1.98,5.71s-1.98,9.16-1.98,9.16c0,0,4.43-6.6,3.46-11.21l-.97-4.62s2.71-5.44,1.11-11.05l-1.6-5.61s1.42-5.28,2.11-11.05-.79-23.25-.79-23.25Z"/>
  <path class="st37" d="M506.21,195.66s1.4-.96,3.54,0,4.36,6.79,4.36,6.79c0,0-2.65-10.68-3.95-11.39l-3.95,4.6Z"/>
  <path class="st6" d="M426.39,162.43s7.2,18.3,6.5,24.98c-.71,6.68-5.79,23.05-13.6,28.03,0,0,13.44-6.49,15.85-26.51s-8.75-26.51-8.75-26.51Z"/>
  <path class="st6" d="M359.91,140.9s10.59,20.38,11.53,32.95c.94,12.57-2.61,20.88-7.31,23.44,0,0,8.91-3.99,9.93-15.48,1.02-11.49-11.57-41.08-14.15-40.91Z"/>
  <path class="st6" d="M287.94,172.57s11.02,10.26,10,18.49c-1.02,8.23-4.37,8.52-4.37,8.52,0,0,5.53-2.36,5.68-10.64.15-8.28-11.31-16.37-11.31-16.37Z"/>
  <path class="st36" d="M658.14,796.02s4.26-7.79-2.45-10.13-9.33-2.73-14.92-2.54-3.83-.18-14.9-2.78-10.12-5.74-16.01-10.09c-5.89-4.35-1.36,2.23-13.81-5.49s-21.66-14.77-13.44-5.17c8.22,9.6,7.89,12.51,14.79,19.76,6.9,7.26,8.2,11.66,20.2,13.57,12,1.9-11.27,5.08-5.06,6.62,6.21,1.53,38.64-7.37,45.6-3.74Z"/>
  <path class="st0" d="M625.88,780.56s14.5-.22,21.27,5.32c6.77,5.54,6.9,8.4,6.9,8.4,0,0,4.16-.86,1.65-5.05-2.51-4.19-8.1-8.04-12.82-8.67s-16.99,0-16.99,0Z"/>
  <path class="st36" d="M857.01,724.65c2.62,3.36,1.05,7.82-3.59,12.49s-21.67,8.07-22.03,11.14c-.36,3.07-3.26,5.41,0,7.69,3.26,2.28,5.19,5.04,15.89,3.5,10.7-1.55,7.74,5.35,16.62-1.55,8.87-6.9,9.41-10.14,16.01-13.45,6.6-3.31,14.59-7.86,12.76-11.17-1.83-3.31-35.67-8.65-35.67-8.65Z"/>
  <path class="st0" d="M835.28,752.15s5.58,3.91,13,2.7,17.03-2.25,22.24-1.23c5.21,1.01,12.29,2.22,14.83-2,2.54-4.22.06-8.77.06-8.77,0,0-.66,5.05-5.5,6.12-4.84,1.07-15.99,2.6-22.9,2.65s-18.81,1.34-21.73.53Z"/>
  <rect class="st10" x="-24" y="-19" width="265.61" height="58.04"/>
  <path class="st23" d="M551.1,157.18s20.21-32.56,44.5-56.41c24.3-23.85,67.23-61.73,67.23-61.73,0,0-45.88,36.24-72.42,64.09-26.54,27.85-41.06,47.6-41.06,47.6l1.74,6.45Z"/>
  <path class="st23" d="M393.19-41.35S467.23,4.36,477.06,10.83c9.83,6.47,13.76,15.31,13.76,15.31l.47-12.88-91.55-52.32-6.54-2.29Z"/>
  <path class="st23" d="M581.36,396.54s20.22,4.95,27.16,4.9,9.64-2.88,9.64-2.88l-11.96-3.42s-5.41,3.56-13.56,1.78c-8.15-1.78-12.76-2.74-12.76-2.74l1.48,2.37Z"/>
  <path class="st23" d="M581.08,374.96s14.4,16.54,22.27,19.21l7.86,2.67-6.03,2.23s-20.34-12.56-24.09-20.2l-3.75-7.63,3.75,3.72Z"/>
  <path class="st28" d="M690.24,929.36s13.82-3.65,20.71,3.81,20.37,17.68,31.41,16.92,21.33.04,21.33.04c0,0-32.96,7.97-42.01,3.06-9.04-4.9-5.19-6.6-14.85-12.73s-16.6-11.1-16.6-11.1Z"/>
  <path class="st28" d="M833.62,929.36s24.68,11.49,32.85,11.1,24.24-13.09,24.24-13.09c0,0-15.71,20.02-31.11,20.38s-25.98-18.39-25.98-18.39Z"/>
  <path class="st28" d="M928.88,891.41s15.17,7.04,26.99,7.45,6.51,6.72,6.51,6.72l-16.87,3.21-16.63-17.39Z"/>
  <path class="st28" d="M899.7,894.23c-1.97.61,8.84,12.52-.35,25.73-9.19,13.21-15.77,15.56-15.77,15.56,0,0,45.55-15.19,43.88-18.99s-18.79-25.06-27.76-22.3Z"/>
  <path class="st28" d="M847.29,894.92s11.28-3.1,18.74-14.59,4.56-32.81,4.56-32.81c0,0,8.22,22.38,5.28,30.75-2.95,8.37-17.98,20.26-29.42,22.93-11.44,2.67-29.78,5.58-29.78,5.58l30.62-11.87Z"/>
  <path class="st28" d="M657.67,877.35c2.89-1.99,8.28,11.64,13.27,22.53s22.8,16.24,22.8,16.24c0,0-12.54-13.61-16.34-19.48-3.79-5.87-10.74-22.43-10.74-22.43l-8.99,3.14Z"/>
  <path class="st28" d="M987.44,751.63s1.4-18.63-5.73-29.1c-7.13-10.48-25.81-16.74-27.09-31.13-1.29-14.39-15.26-22.51-15.26-22.51,0,0,10.04,15.48,11.15,24.44,1.1,8.95,2.97,14,2.97,14,0,0,15.12,6.76,19.55,13.78s10.51,21.47,10.92,27.17-4.82,32.29-4.82,32.29l-4.62,12.58s13.73-26.17,12.94-41.52Z"/>
  <path class="st28" d="M624.67,686.33s1.21-7.76,7.85-17.45c6.64-9.68,14.01-15.21,21.53-15.03s19.63-10.14,19.63-10.14c0,0-17.44,6.46-31.72,9.83-14.28,3.37-17.28,32.8-17.28,32.8Z"/>
  <path class="st36" d="M274.27,693.32s21.91,15.98,34.83,14.63c12.92-1.35,37.65-4.45,45.3-14.63,7.65-10.18,2.85-10.96-5.1-24.37-7.95-13.42-2.94-33.56-36.5-34.53-33.56-.97-44.3,16.37-59.63,19.43-15.34,3.06-35.86-8.81-28.36,7.48,7.5,16.29,49.46,31.99,49.46,31.99Z"/>
  <path class="st36" d="M131.35,720.36s48.69,15.22,40.31,31.79-38.93,23.78-56.78,13.96-33.71-10.53-31.3-24.66c2.41-14.13,9.29-28.39,19.65-28.16s28.11,7.07,28.11,7.07Z"/>
  <path class="st36" d="M1129.93,500.94s-12.67,27.07,4.5,37c17.17,9.93,15.72,13.2,39.91,5.35,24.19-7.85,30.85-16.13,44.77-29.93,13.92-13.8,29.11-22.29,16.68-34.61-12.42-12.32-50.14-16.82-68.55-13.88-18.41,2.94-37.31,36.06-37.31,36.06Z"/>
  <path class="st33" d="M1174.06,478.75s-24.62,14.04-22.16,27.08-3.66,35.98,1.47,32.1,27.21-12.16,41.02-17.68c13.8-5.52,25.98-19.32,24.73-28.99s-45.05-12.52-45.05-12.52Z"/>
  <path class="st33" d="M250.26,665.02s30.71,20.43,55.38,22.03c24.67,1.61,35.71,5.75,35.71-6.68s-9.18-16.77-17.7-22.19c-8.52-5.42-10.27-19.79-18.37-8.46-8.1,11.33-55.01,15.29-55.01,15.29Z"/>
  <path class="st26" d="M436.54,553.71s13.81-.72,13.83,17.42-12.07,35.84-23.28,16.64c-11.21-19.2,9.45-34.06,9.45-34.06Z"/>
</svg>