<?xml version="1.0" encoding="UTF-8"?>
<svg id="Vrstva_1" xmlns="http://www.w3.org/2000/svg" version="1.1" viewBox="0 0 2381.1 841.89">
  <!-- Generator: Adobe Illustrator 29.7.1, SVG Export Plug-In . SVG Version: 2.1.1 Build 8)  -->
  <defs>
    <style>
      .st0 {
        fill: #455f26;
      }

      .st1 {
        fill: #bed3bf;
      }

      .st2 {
        fill: #26221f;
      }

      .st3 {
        fill: #c69440;
      }

      .st4, .st5 {
        fill: #1d1d1b;
      }

      .st6 {
        fill: #604337;
      }

      .st7 {
        fill: #dadada;
      }

      .st8 {
        fill: #4f6c2c;
      }

      .st9 {
        fill: #1c1815;
      }

      .st10 {
        fill: #1e1914;
      }

      .st11 {
        fill: #473f3b;
      }

      .st5 {
        stroke: #1d1d1b;
        stroke-miterlimit: 10;
      }

      .st12 {
        fill: #364c1c;
      }

      .st13 {
        fill: #3e5621;
      }

      .st14 {
        fill: #333330;
      }

      .st15 {
        fill: #35302d;
      }

      .st16 {
        fill: #856118;
      }

      .st17 {
        fill: #b5c4b5;
      }

      .st18 {
        fill: #3d3937;
      }

      .st19 {
        fill: #966a1d;
      }

      .st20 {
        fill: #828e7b;
      }
    </style>
  </defs>
  <rect class="st8" x="-40.03" y="-16.51" width="2520.25" height="879.07"/>
  <path class="st0" d="M1485.14,150.32c.5-2,2.5-8,2.5-8,0,0,11-5.5,11,3s-10,18-11,14.5-2.5-9.5-2.5-9.5Z"/>
  <path class="st12" d="M1050.61,434s-4-19.33,8.67-16.67-4,36.67-8,32.67-.67-16-.67-16Z"/>
  <path class="st0" d="M1458.14,626.32s-35-31-29-8,36,65,40,62-11-54-11-54Z"/>
  <path class="st15" d="M1600.88,478.1s9.73-48.04-2.43-43.17c-12.16,4.86-18.24,1.82-18.85,12.77s13.38,27.36,13.38,27.36l7.9,3.04Z"/>
  <path class="st10" d="M1460.02,651.22s-10.21,5.11,11.91,22.98,100.42,55.32,181.27,45.1c80.85-10.21,114.89-34.89,106.38-48.51-8.51-13.62-278.28-41.7-299.56-19.57Z"/>
  <path class="st15" d="M1778.3,686.11s-129.36,2.55-155.74-5.11c-26.38-7.66-81.7-24.68-110.63-24.68s-51.91,11.06-58.72,1.7c-6.81-9.36,3.4-100.42,47.66-130.21,44.25-29.79,79.14-48.51,85.1-55.32,5.96-6.81,13.62-21.28,10.21-32.34-3.4-11.06-11.06-17.87-3.4-20.42s13.62-28.93,45.96-33.19c32.34-4.26,81.7,3.4,92.76,5.11,11.06,1.7,76.59-20.42,108.93,12.77l12.77,10.21s17.87-44.25,38.3-28.93c20.42,15.32,27.23,57.87-4.26,74.04,0,0,51.91,40,58.72,79.14,6.81,39.15,10.21,100.42-21.28,124.25-31.49,23.83-58.72,47.66-110.63,49.36-51.91,1.7-35.74-26.38-35.74-26.38Z"/>
  <path class="st6" d="M1880.42,449.52s-8.51-1.7-13.62-11.06c-5.11-9.36.85-48.51,15.32-45.1,14.47,3.4,17.02,22.98,17.02,31.49s-18.72,24.68-18.72,24.68Z"/>
  <path class="st10" d="M1664.27,685.26s28.93-5.11,47.66-24.68c18.72-19.57,4.26-53.61,1.7-65.53-2.55-11.91,19.57-55.32,31.49-62.98,11.91-7.66,11.91.85,11.91,9.36s-34.04,27.23-34.89,36.59-3.4,22.98,2.55,30.64c5.96,7.66,5.11,43.4,0,54.47s-53.61,31.49-60.42,22.13Z"/>
  <path class="st2" d="M1858.3,478.46s-3.4,9.36-1.7,11.91c1.7,2.55,17.02,18.72,19.57,38.3,2.55,19.57,2.55,34.89,2.55,34.89,0,0,8.51-40-1.7-51.91s-17.02-22.13-17.02-22.13l7.66-17.87-9.36,6.81Z"/>
  <path class="st2" d="M1491.51,541.43c-1.08,3.23-2.55,15.32,11.91,14.47,14.47-.85,19.57-22.13,19.57-22.13,0,0,24.68-5.11,20.42-15.32s-34.04,2.55-38.3,5.96c-4.26,3.4-12.77,14.47-13.62,17.02Z"/>
  <path class="st6" d="M1504.27,530.37l-5.11,11.91s3.4,12.77,9.36,5.96c5.96-6.81,4.26-12.77,6.81-17.87s23.83-8.51,16.17-10.21c-7.66-1.7-27.23,10.21-27.23,10.21Z"/>
  <path class="st9" d="M1633.63,531.22s12.77-22.13,16.17-19.57c3.4,2.55,7.66,22.13,4.26,27.23-3.4,5.11-30.64,18.72-38.3,17.87-7.66-.85-17.02-2.55-14.47-8.51s25.53-16.17,32.34-17.02Z"/>
  <path class="st6" d="M1611.5,543.99s-12.77,6.81,1.7,7.66,34.89-12.77,37.44-18.72c2.55-5.96-.85-15.32-.85-15.32,0,0-5.11,11.06-9.36,15.32s-20.42,6.81-28.93,11.06Z"/>
  <path class="st2" d="M1698.31,549.09l-10.21,17.87s11.91,20.42,8.51,30.64c-3.4,10.21-17.87,21.28-17.87,21.28,0,0,3.4,3.4,9.36.85,5.96-2.55,23.83-25.53,17.87-34.89-5.96-9.36-11.91-17.02-11.91-17.02l21.28-27.23s-14.47,2.55-17.02,8.51Z"/>
  <path class="st2" d="M1836.81,440.09s7.75,34.2,12.77,34.2,3.65-3.65,3.65-3.65c0,0-14.14-29.64-14.14-34.2s-2.28,3.65-2.28,3.65Z"/>
  <path class="st11" d="M1736.6,469.95c0-2.55-.85-35.74,11.06-45.1,11.91-9.36,33.19-12.77,45.96-2.55,12.77,10.21,22.13,36.59,21.28,51.06s-10.21,18.72-38.3,23.83c-28.08,5.11-40-27.23-40-27.23Z"/>
  <path class="st7" d="M1768.86,460.16l.91,11.4,11.86,6.84,16.42-6.38s2.74-15.96,1.37-17.33-4.56-7.75-5.93-7.75-9.58-.91-9.58-.91l-10.94,4.1-4.1,10.03Z"/>
  <path class="st5" d="M1777.07,455.6s-1.37,7.75,1.82,12.77c3.19,5.02,3.19,7.75,6.38,7.75s10.03-13.23,9.12-18.24-.91-6.84-5.47-7.3-11.86,5.02-11.86,5.02Z"/>
  <path class="st15" d="M1754.72,472.47s-2.28-33.29,15.05-37.4c17.33-4.1,25.54-3.19,31.01,5.93,5.47,9.12,7.75,25.99,3.65,26.45-4.1.46-7.3-.91-7.3-4.1s-3.65-11.4-6.38-11.4-14.14,5.47-15.05,7.3-10.94,10.49-13.23,10.94-7.75,2.28-7.75,2.28Z"/>
  <path class="st15" d="M1759.74,467.46s7.75-2.74,10.94-.91,10.03,6.84,10.03,6.84c0,0,15.05-1.37,18.7-9.12,0,0,6.38-.46,6.84,2.74.46,3.19-4.1,19.61-20.07,21.43-15.96,1.82-30.55-10.94-31.47-15.96-.91-5.02,5.02-5.02,5.02-5.02Z"/>
  <path class="st12" d="M1855.96,659.45s7.3-40.13,26.91-36.03,23.26,12.31,22.35,17.79c-.91,5.47-28.27,27.82-36.94,28.73s-12.31-10.49-12.31-10.49Z"/>
  <path class="st0" d="M1890.62,628.44s-14.14-16.87-5.93-16.42c8.21.46,20.98,0,22.8,11.86,1.82,11.86,9.58,29.19,2.28,31.92s-19.15-27.36-19.15-27.36Z"/>
  <path class="st12" d="M1902.02,624.33s20.98-36.48,36.48-35.12c15.51,1.37,18.24,11.4,18.24,11.4,0,0,18.7,3.65,14.14,16.87-4.56,13.23-45.15,31.47-51.53,35.12s-8.21,10.49-14.59,5.93c-6.38-4.56-2.74-34.2-2.74-34.2Z"/>
  <path class="st12" d="M1899.74,617.49c0-2.28,20.07-43.78,23.71-45.6,3.65-1.82,10.03-1.82,10.94,6.84.91,8.66,1.82,26.45-8.21,33.29-10.03,6.84-26.45,5.47-26.45,5.47Z"/>
  <path class="st12" d="M1926.19,574.17s-54.72-25.08-47.88-31.47c6.84-6.38,31.01-4.1,40.59,7.3,9.58,11.4,17.33,24.63,14.59,26.45s-7.3-2.28-7.3-2.28Z"/>
  <path class="st0" d="M1921.18,600.62s1.37-30.55,9.12-29.19c7.75,1.37,19.15,18.7,19.15,18.7,0,0-17.79-5.02-28.27,10.49Z"/>
  <path class="st12" d="M1939.42,582.07c1.37-1.37,3.19-11.86,8.66-6.38s11.4,8.21,8.21,15.05c-3.19,6.84,5.47,8.21-3.19,6.84-8.66-1.37-13.68-15.51-13.68-15.51Z"/>
  <path class="st12" d="M1951.73,599.71s7.75-17.79,13.23-18.24,9.12,0,10.49,1.37,5.93,5.47,6.84,13.68c.91,8.21-15.05,20.98-15.05,20.98l-15.51-17.79Z"/>
  <path class="st0" d="M1963.59,621.14c.91-1.37,18.24-30.55,26.45-30.55s16.42-4.56,14.14,4.56,8.21,22.8,2.28,30.1-27.36,15.51-30.55,15.05c-3.19-.46-12.31-19.15-12.31-19.15Z"/>
  <path class="st0" d="M1747.59,664.56c.91-1.37,35.57-32.83,43.32-28.73,7.75,4.1,13.68,12.31,10.94,19.15s9.12,8.66-16.87,11.4c-25.99,2.74-37.4-1.82-37.4-1.82Z"/>
  <path class="st0" d="M1580.82,529.48s20.52,29.19,19.15,45.6-5.47,18.24-10.03,14.14c-4.56-4.1-18.7-52.9-19.15-57.01s10.03-2.74,10.03-2.74Z"/>
  <path class="st0" d="M1580.06,537.23s-12.31,36.03-16.87,35.57-13.23-3.65-8.66-16.87,20.98-25.08,23.26-24.17,2.28,5.47,2.28,5.47Z"/>
  <path class="st12" d="M1568.35,525.83c-1.37,0-8.66,7.75-15.05,7.3-6.38-.46-20.98-8.66-19.61,3.65,1.37,12.31-3.65,19.15,11.4,18.24s36.03-25.54,33.29-29.64-10.03.46-10.03.46Z"/>
  <path class="st0" d="M1570.94,503.94c-1.12.91-1.37,25.99,5.47,31.47,6.84,5.47,14.14,5.93,11.86-1.37-2.28-7.3-12.31-34.2-17.33-30.1Z"/>
  <path class="st12" d="M1575.04,529.02s-39.68,19.61-46.97,15.96-9.58-6.38-7.75-16.42c1.82-10.03,14.59-16.87,26.91-13.68,12.31,3.19,24.63.91,26.91,5.02s.91,9.12.91,9.12Z"/>
  <path class="st0" d="M1523.97,531.3s-9.58,5.02-16.87.91c-7.3-4.1-27.36-11.86-9.58-14.59,3.18-.49,6.24-.79,9.14-.93,13.32-.68,23.18,1.81,24.85,3.47,2.04,2.02-7.54,11.14-7.54,11.14Z"/>
  <path class="st12" d="M1504.81,503.48c5.47-4.1,7.3-10.03,21.43-5.02s31.47,7.3,32.83,12.77,3.65,11.4-5.93,11.86c-9.58.46-39.68-.91-46.06-5.02-6.38-4.1-2.28-14.59-2.28-14.59Z"/>
  <path class="st0" d="M1542.66,500.29s-15.05,7.75-11.4,12.77,37.85,9.58,37.85,9.58l10.03-6.84-36.48-15.51Z"/>
  <path class="st0" d="M1526.7,477.03c0,1.37,40.59,30.1,47.43,31.01,6.84.91,15.51-1.37,11.4-7.75-4.1-6.38-35.12-25.08-41.96-25.08s-16.87-.46-16.87,1.82Z"/>
  <path class="st12" d="M1548.59,480.68c-1.82-.91-12.77-12.77-8.66-15.96s5.47-6.38,23.71,4.1c18.24,10.49,29.64,16.42,30.55,22.35.91,5.93-12.31,13.23-25.54,6.38-13.23-6.84-20.07-16.87-20.07-16.87Z"/>
  <path class="st0" d="M1587.81,490.26s-28.73-.91-22.8,7.3,39.68-.91,36.03-4.1c-3.65-3.19-13.23-3.19-13.23-3.19Z"/>
  <path class="st0" d="M1570.48,440.55s20.52,47.88,24.17,46.52c3.65-1.37-11.4-49.25-15.05-50.16s-9.12,3.65-9.12,3.65Z"/>
  <path class="st0" d="M1583.71,428.24c-1.82,0-31.92,13.23-29.64,19.15,2.28,5.93-9.58,10.49,9.12,11.4,18.7.91,34.66-12.77,34.66-20.98s-14.14-9.58-14.14-9.58Z"/>
  <path class="st12" d="M1560.9,456.06s-20.07.91-8.21,10.03c5.01,3.85,10.91,6.65,16.64,8.35,7.84,2.33,15.36,2.62,19.84.77,7.75-3.19,16.42-13.68,11.86-18.7-4.56-5.02-40.13-.46-40.13-.46Z"/>
  <path class="st0" d="M1581.88,486.61c12.77-.91,20.52-10.94,6.38-18.24s-31.47-13.23-25.99-2.28,19.61,20.52,19.61,20.52Z"/>
  <path class="st0" d="M1604.68,427.32s-37.4,15.51-41.96,10.03-8.21-15.96.46-16.87,39.68.91,40.59,2.74.91,4.1.91,4.1Z"/>
  <path class="st12" d="M1565.47,422.76c-9.12,1.37-17.33,14.14-23.71,1.82-6.38-12.31-25.99-21.43-3.65-26.45,22.35-5.02,42.41,0,48.34,3.19,5.93,3.19,16.42,8.66,9.58,14.14-6.84,5.47-30.55,7.3-30.55,7.3Z"/>
  <path class="st0" d="M1573.67,425.5s-14.59-2.28-7.75-10.03c6.84-7.75,11.4-15.96,27.82-13.23,16.42,2.74,27.82,3.65,25.54,10.49-2.28,6.84-23.26,11.4-29.19,11.4s-16.42,1.37-16.42,1.37Z"/>
  <path class="st0" d="M1596.48,404.52c-2.28-.91-22.35-6.84-22.35-12.77s10.94-5.47,10.94-5.47l11.4,18.24Z"/>
  <path class="st0" d="M1583.25,393.58c-1.37-.91-25.54-9.12-19.15-12.77,6.38-3.65,8.21-5.47,13.68-3.19s14.59,14.59,14.59,15.96-9.12,0-9.12,0Z"/>
  <path class="st0" d="M1581.43,389.02c-1.82-1.82-22.35-20.52-20.07-29.19s-2.74-14.59,7.75-13.23,15.05,5.93,17.79,20.07,1.37,27.36,1.37,27.36l-6.84-5.02Z"/>
  <path class="st0" d="M1610.16,402.7c-1.37,0-32.83-25.08-31.01-40.13,1.82-15.05-3.65-19.15,5.02-16.87s29.64,20.07,29.64,20.07l-3.65,36.94Z"/>
  <path class="st0" d="M1617.91,399.96s-42.87-59.74-34.66-62.93c8.21-3.19,15.05-9.58,22.35-2.28,7.3,7.3,14.14,19.15,19.15,32.83s6.84,40.13,5.02,44.69c-1.82,4.56-1.37,9.12-4.56,3.65-3.19-5.47-7.3-15.96-7.3-15.96Z"/>
  <path class="st12" d="M1623.38,417.75c-1.82-.91-22.8-16.42-24.17-20.52s.91-15.96,10.49-15.05c9.58.91,13.68,2.28,15.05,14.14s-1.37,21.43-1.37,21.43Z"/>
  <path class="st0" d="M1634.78,387.65s-25.08-13.23-23.26-21.89c1.82-8.66,13.68-22.8,13.68-22.8,0,0,10.49-6.38,12.77,12.77,2.28,19.15-3.19,31.92-3.19,31.92Z"/>
  <path class="st0" d="M1623.38,350.71c-5.93-9.12-22.35-27.36-15.96-33.75,6.38-6.38,25.08-18.7,27.36-3.65,2.28,15.05,2.28,23.26.46,29.19-1.82,5.93-9.58,11.4-9.58,11.4l-2.28-3.19Z"/>
  <path class="st13" d="M1620.65,358.46s-27.36-26.45-25.54-30.55,3.19-14.59,14.14-5.02c10.94,9.58,18.24,31.92,11.4,35.57Z"/>
  <path class="st0" d="M1797.89,393.27s-10.94-4.86-25.54-2.43c-14.59,2.43-28.27,16.72-12.16,18.55,16.11,1.82,45.3-9.12,43.17-12.47-2.13-3.34-5.47-3.65-5.47-3.65Z"/>
  <path class="st12" d="M1803.37,382.94c-18.85-7.6-44.39-20.07-36.79-.91,7.6,19.15,27.06,19.76,37.7,18.55,10.64-1.22-.91-17.63-.91-17.63Z"/>
  <path class="st12" d="M1810.66,389.02c-.91,0-14.9,1.82-18.55,10.64-3.65,8.82-15.81,8.51-1.22,13.99,14.59,5.47,19.76-24.63,19.76-24.63Z"/>
  <path class="st12" d="M1805.8,382.33s-4.56,10.03,5.78,24.93,18.55,20.98,18.55,6.08-16.11-32.53-24.32-31.01Z"/>
  <path class="st12" d="M1824.95,413.95c0,1.22,12.47,17.33,22.19,22.8,9.73,5.47,16.72,6.08,13.38-3.65-3.34-9.73-30.71-32.83-35.57-30.4s0,11.25,0,11.25Z"/>
  <path class="st0" d="M1840.76,416.99c.91.3,19.76,10.64,13.99-7.9-5.78-18.55-41.65-37.09-38.61-24.63s24.63,32.53,24.63,32.53Z"/>
  <path class="st0" d="M1812.18,385.07s22.8-19.46,31.92-17.94c9.12,1.52,25.54,4.26,7.3,10.34-18.24,6.08-37.7,15.51-39.22,7.6Z"/>
  <path class="st0" d="M1844.11,375.64c.91,0,22.19-18.24,31.31-13.68,9.12,4.56,19.15,14.59,17.03,23.11-2.13,8.51-24.32,12.77-31.31,12.77s-50.47-9.73-45-13.38,27.97-8.82,27.97-8.82Z"/>
  <path class="st0" d="M1835.9,389.93c6.99,7.6,16.42,21.59,22.19,21.59s13.99-13.68,4.56-18.55c-9.42-4.86-26.75-3.04-26.75-3.04Z"/>
  <path class="st12" d="M1840.76,367.43s26.75-41.65,35.57-42.26c8.82-.61,20.07-3.65,22.19,6.69,2.13,10.34-47.43,45.6-54.42,43.78-6.99-1.82-3.34-8.21-3.34-8.21Z"/>
  <path class="st12" d="M1883.33,382.94c1.52-.3,22.19-14.29,32.83-2.13,10.64,12.16,24.32,19.15,6.69,20.98s-47.73-5.78-46.82-12.77c.91-6.99,7.3-6.08,7.3-6.08Z"/>
  <path class="st0" d="M1902.18,410.91c.91,1.22,4.56,18.85,15.2,18.24,10.64-.61,13.99-22.5,5.47-29.49-8.51-6.99-18.55-10.94-19.46-5.47s-1.22,16.72-1.22,16.72Z"/>
  <path class="st0" d="M1636.76,351.32c-2.13-5.78-11.86-33.14-1.82-35.57,10.03-2.43,13.99-6.69,22.5-5.78s14.59,3.04,12.77,19.46c-1.82,16.42-5.78,41.65-13.99,36.48-8.21-5.17-19.46-14.59-19.46-14.59Z"/>
  <path class="st0" d="M1628.25,314.53s.91-10.94,13.68-10.34c12.77.61,17.94.61,20.98,1.82s-1.52,54.12-10.03,48.04c-8.51-6.08-24.63-39.52-24.63-39.52Z"/>
  <path class="st0" d="M1667.16,330.04s9.73-10.34,13.07-10.03,6.38-11.86,11.55-1.82c5.17,10.03-8.21,69.93-12.16,66.58s-12.47-54.72-12.47-54.72Z"/>
  <path class="st12" d="M1657.13,385.37s-27.97-31.62-23.41-38.92c4.56-7.3,5.47-8.51,15.51-9.42,10.03-.91,11.86-12.47,18.24-3.34s3.04,59.89,1.52,59.89-11.86-8.21-11.86-8.21Z"/>
  <path class="st0" d="M1670.51,393.58c0-.91-25.23-32.23-10.03-35.57s17.94-4.56,24.02-2.74c6.08,1.82,8.21,19.15,6.38,24.02-1.82,4.86-2.13,40.74-10.34,28.27-8.21-12.47-10.03-13.99-10.03-13.99Z"/>
  <path class="st0" d="M1624.29,385.07c3.04-.3,29.79-18.24,35.27-3.95,5.47,14.29,19.46,46.52,10.03,42.87-9.42-3.65-45.3-38.92-45.3-38.92Z"/>
  <path class="st12" d="M1642.54,390.84c-.3-.91-34.05-32.23-18.85-34.66,15.2-2.43,29.79,17.63,30.1,25.54.3,7.9-11.25,9.12-11.25,9.12Z"/>
  <path class="st0" d="M1655.61,435.84c-2.74-6.08-19.15-28.58-13.07-32.83,6.08-4.26,19.15-23.41,24.93-.3s7.9,41.04,2.43,39.22-14.29-6.08-14.29-6.08Z"/>
  <path class="st0" d="M1697.56,393.88c0-1.22,6.38-64.45,9.73-62.93s18.55,11.86,22.5,21.28c3.95,9.42,7.6,13.68.3,23.11-7.3,9.42-23.71,45.3-27.36,38.31s-5.17-19.76-5.17-19.76Z"/>
  <path class="st0" d="M1654.09,428.85c-1.82-4.26-9.42-26.15-16.11-37.4-6.69-11.25-23.71-6.38-23.11,8.51.61,14.9,37.09,54.42,41.96,49.86,4.86-4.56-2.74-23.11-2.74-23.11v2.13Z"/>
  <path class="st12" d="M1659.56,451.95c-1.22-5.17-18.85-26.75-10.64-28.58,8.21-1.82,23.11,5.47,20.98,18.55-2.13,13.07-10.34,10.03-10.34,10.03Z"/>
  <path class="st12" d="M1648.01,439.49c-4.26-6.38-25.23-33.14-39.52-32.23s-39.83,9.73-20.67,25.84c19.15,16.11,66.28,24.02,67.19,21.89s-6.99-15.51-6.99-15.51Z"/>
  <path class="st12" d="M1653.78,444.05c-.91,0-41.35-21.89-55.03-13.68-13.68,8.21-.91,48.04,15.81,48.04s60.5-16.72,62.63-24.32c2.13-7.6-23.41-10.03-23.41-10.03Z"/>
  <path class="st12" d="M1669.9,449.21c1.28-.46,20.37-39.22,14.9-53.2-5.47-13.99-18.24-17.94-24.02-7.9s5.78,62.33,9.12,61.11Z"/>
  <path class="st0" d="M1672.03,441.01c0,1.22-9.73,31.01,5.78,26.45,15.51-4.56,15.2-19.76,11.55-24.93-3.65-5.17-17.33-1.52-17.33-1.52Z"/>
  <path class="st0" d="M1679.32,429.76c11.86-.3,9.12-2.13,27.36,3.34,18.24,5.47,30.4,13.99,12.47,13.68-17.94-.3-50.16,3.34-49.25-4.86.91-8.21,9.42-12.16,9.42-12.16Z"/>
  <path class="st12" d="M1695.44,433.1c2.43-1.82,8.51-50.77,4.86-56.85-3.65-6.08-11.55-10.94-18.85-1.82-7.3,9.12-11.55,41.35-3.65,51.99,7.9,10.64,17.63,6.69,17.63,6.69Z"/>
  <path class="st0" d="M1696.65,400.27c.61-1.22,24.02-23.11,34.05-18.55s29.49-.3,15.81,12.16c-13.68,12.47-52.9,36.79-55.33,28.27-2.43-8.51,5.47-21.89,5.47-21.89Z"/>
  <path class="st0" d="M1691.18,424.89c4.35,4.35,68.1-5.78,73.27-13.07,5.17-7.3,10.94-8.21-.61-10.94-11.55-2.74-30.4-3.04-46.82,3.04-16.42,6.08-31.01,15.81-25.84,20.98Z"/>
  <path class="st12" d="M1718.85,409.08c1.22-.3,19.76-30.1,36.48-26.45,16.72,3.65,28.27,2.74,20.07,14.59-8.21,11.86-80.87,30.1-81.48,25.54s24.93-13.68,24.93-13.68Z"/>
  <path class="st8" d="M1485.66,720.1s9.58-37.85,19.15-33.75,10.03,8.21,10.03,8.21c0,0,13.23,9.12,13.68,13.23s.46,8.21.46,8.21c0,0,2.74-10.03,10.03-10.94s17.33,2.74,17.33,2.74c0,0,8.21,2.74,8.66,5.02s8.21,4.1,8.21,4.1c0,0,12.77-3.65,16.87-2.74s17.79-10.49,21.43-5.93,6.38,16.87,6.38,16.87c0,0,4.56-16.87,9.12-16.87s7.3,2.74,7.3,2.74c0,0-.46-6.84,5.02-6.84s7.75,2.28,7.75,2.28c0,0,16.42-15.96,29.19-15.96s22.8,9.58,22.8,9.58c0,0,6.84-5.93,14.14-4.1,7.3,1.82,12.31,3.65,12.31,3.65,0,0,1.82-9.58,8.66-7.3,6.84,2.28,10.94,5.47,10.94,5.47,0,0,3.65-10.03,12.31-10.49,8.66-.46,18.7,1.37,18.7,1.37,0,0,13.68,5.47,15.05,10.49,1.37,5.02,25.08-10.94,29.19-10.49s22.35,5.47,22.35,5.47c0,0,20.52-13.23,24.17-.46,0,0,7.75-10.03,13.68-7.75,0,0-5.02-3.19,1.37-8.21,6.38-5.02,16.42-5.47,16.42-5.47,0,0-8.21-15.05,4.56-17.33,12.77-2.28,41.04-2.28,46.97,11.86,0,0,20.52-27.82,31.47-23.26,10.94,4.56,21.43,21.89,21.43,21.89,0,0-2.74-15.96,5.02-21.43s18.7-8.66,20.52-9.58c1.82-.91-3.65-15.51,4.56-27.82,8.21-12.31,13.68-13.68,13.68-13.68l.61,113.86s-17.03,68.1-88.78,79.05c-71.75,10.94-415.91,26.75-499.82-19.46-83.91-46.21-82.7-170.26-74.18-188.5,8.51-18.24,21.89,34.66,31.92,34.66s19.61,61.11,19.61,61.11c0,0,20.98,6.38,27.36,11.4,6.38,5.02-1.37-12.77,6.84-12.77s32.38,7.3,15.51,47.88Z"/>
  <path class="st11" d="M740.92,458.38s18.19-82.96,68.77-127.72c0,0,37.48-35.3,70.96-38.94s72.78,1.09,96.06,17.83c23.29,16.74,92.06,126.63,95.7,158.65,0,0-125.9,54.95-191.76,49.12-65.86-5.82-139.73-58.95-139.73-58.95Z"/>
  <path class="st15" d="M1006.25,389.32c1.57,1.05,29.32,47.65,32.46,53.41,3.14,5.76,21.99,27.75,18.85,33.51-3.14,5.76-17.8.52-19.9-3.67s-7.33-30.37-14.66-43.46-16.76-39.79-16.76-39.79Z"/>
  <path class="st18" d="M986.69,384.82s23.01,37.04,1.68,65.66l-16.84-12.91s-5.61-15.71-5.61-17.96,20.76-34.79,20.76-34.79Z"/>
  <path class="st18" d="M829,451.6c-1.68-1.68-11.78-17.4-11.78-38.16s17.96-32.55,17.96-32.55l9.54,37.6-15.71,33.11Z"/>
  <path class="st15" d="M820.92,337.78s-38.88-19.67-28.82-36.14c10.06-16.47,22.41-16.01,42.54,4.12,0,0,42.08-21.04,59.92-22.41,17.84-1.37,56.72,6.86,80.05,21.96,0,0,20.13-22.87,27.44-20.13s17.38,8.69,17.38,20.13-18.75,29.73-26.99,31.56l-1.83.46s7.32,16.92,8.23,30.19c.91,13.26-15.55,33.85-16.92,43s-3.66,20.13.46,28.36,12.35,12.81,15.55,21.04c3.2,8.23,14.64,34.76-10.06,43.45-24.7,8.69-157.35,6.86-164.67-6.4-7.32-13.26-10.52-24.24-10.06-36.14s15.55-20.13,19.21-30.19-1.83-21.96-1.83-25.16-29.73-30.65-9.61-67.7Z"/>
  <path class="st6" d="M828.23,314c-1.83-1.83-9.61-22.41-19.67-17.84s-6.4,22.41,2.74,28.36c9.15,5.95,16.92-10.52,16.92-10.52Z"/>
  <path class="st6" d="M987.87,319.49s-5.49-14.18,1.37-20.13c6.86-5.95,10.98-10.98,17.38-.91s-2.74,24.24-8.23,25.16c-5.49.91-10.52-4.12-10.52-4.12Z"/>
  <path class="st2" d="M838.75,445.27c1.37-.46,13.72-13.26,23.33-6.4s12.35,20.13,12.35,20.13c0,0,2.74,3.2,1.83-5.03s-27.44-39.79-39.79-7.78l2.29-.91Z"/>
  <path class="st2" d="M918.34,454.88c1.37.07,12.35-20.13,21.96-20.13s19.21,14.18,19.67,10.06-9.61-15.55-19.21-15.55-31.1,25.16-22.41,25.61Z"/>
  <path class="st9" d="M842.41,452.13c-.26-1.81,3.2-9.61,7.78-7.32s5.03,8.69,7.78,13.26,7.32,5.49,6.86,8.23-20.13,1.83-22.41-14.18Z"/>
  <path class="st9" d="M946.7,442.07s3.66-2.29,5.49,5.03-10.52,16.92-14.18,17.84-7.78,2.74-7.32-.91,6.86-6.4,8.69-11.89,0-9.61,7.32-10.06Z"/>
  <path class="st6" d="M850.97,452.22c0-.59-2.55-4.91-4.12-2.16s-1.57,9.82,5.3,12.37,8.25,1.96,7.27.79-8.05-7.46-8.05-8.25-.39-2.75-.39-2.75Z"/>
  <path class="st6" d="M935.6,461.45s6.28-4.32,6.48-7.85-.2-6.87,2.95-7.27,3.73,2.95,2.95,5.89-6.48,9.82-9.62,10.01-2.75-.79-2.75-.79Z"/>
  <path class="st11" d="M942.86,341.48c.01-.62,4.58-25.4,18.33-26.18s25.13,7.33,25.46,16.36c.29,7.99,8.05,28.67,5.3,35.74s4.85,19.13-25,18.59c-25.2-.46-24.48-23.1-24.09-44.51Z"/>
  <path class="st11" d="M823.28,339.71c-.2-.79,8.25-21.01,19.64-21.01s19.83,3.93,24.94,12.76,3.67,37.5,1.7,43c-1.96,5.5-11.13,17.67-20.55,17.67s-23.76-2.55-26.9-17.48c-3.14-14.92,1.18-34.95,1.18-34.95Z"/>
  <path class="st7" d="M970.94,340.89s-5.3,9.23-2.75,14.73,11,9.23,17.08,6.28c6.09-2.95,6.48-3.93,6.28-10.6s-.39-12.37-4.32-15.51c-1.7-1.36-5-.58-8.18.74-4.15,1.72-8.11,4.36-8.11,4.36Z"/>
  <path class="st5" d="M974.51,343.93c.02.71-2.36,9.23-.2,12.96s2.36,5.89,5.5,5.5,6.28-2.75,6.28-3.53,1.57-20.81-3.53-23.17-8.25,2.55-8.05,8.25Z"/>
  <path class="st15" d="M967.8,354.04s.2-10.6,5.11-12.37,11-2.36,15.12-2.16,5.11-1.77,3.53-5.11-4.71-11-12.17-11-14.33,7.46-18.85,16.3c-4.52,8.84-4.12,19.64-1.18,21.8s-1.77,7.27,9.62,10.01c11.39,2.75,26.9-2.55,26.51-11.78-.39-9.23-2.87-21.69-5.03-21.49s1.1,15.8-5.18,18.35-16.49-.39-17.48-2.55Z"/>
  <path class="st7" d="M824.26,344.03c.71-.43,3.34-4.52,9.62-1.57,6.28,2.95,20.03,19.05,14.53,23.37s-22.78,5.3-24.94,2.36-2.75-21.99.79-24.15Z"/>
  <path class="st5" d="M827.41,348.55c-1.37,5.89-6.28,16.1.2,19.05s9.03,3.73,11,1.18,2.95-18.06.39-21.99-11.58,1.77-11.58,1.77Z"/>
  <path class="st15" d="M846.65,358.76c-.25-.84-5.3-10.01-9.82-11s-13.35,1.77-14.73.59.98-17.67,6.28-19.64,23.17,12.37,27.1,22.78c3.93,10.41-1.37,13.94-1.37,13.94,0,0,2.55,4.12-2.55,6.68s-14.73,8.25-22.38,5.5-10.8-12.76-10.6-15.9,1.92-13.79,4.08-13.79-5.26,17.32,4.95,19.68,20.42-4.12,19.05-8.84Z"/>
  <path class="st15" d="M794.16,382.32s-20.94,40.84-26.7,47.65c-5.76,6.81-25.66,28.8-20.94,36.13,4.71,7.33,18.33,10.47,18.33,0s26.7-67.55,29.32-83.78Z"/>
  <path class="st2" d="M842.92,318.7s20.09-.52,25.85,14.92c5.76,15.45,1.57,32.46,1.57,32.46,0,0-1.31-25.66-7.07-32.73s-20.36-14.66-20.36-14.66Z"/>
  <path class="st2" d="M942.6,360.85s-2.88-31.94,7.33-40.06c9.86-7.84,17.28-5.24,17.28-5.24,0,0-11,6.02-14.66,11.26s-9.95,34.03-9.95,34.03Z"/>
  <path class="st15" d="M1543.26,144.88s-6.7-20.1.79-25.22c7.49-5.12,14.58-5.12,15.37-3.94s1.18,20.89,4.34,23.25-20.49,5.91-20.49,5.91Z"/>
  <path class="st15" d="M1619.72,151.58c0-1.18,8.28-9.46,16.16-4.34s9.85,7.88,9.85,9.06-1.18,9.85-1.18,9.85l-24.83-14.58Z"/>
  <path class="st11" d="M1484.53,185.87s38.23-39.02,48.48-43.35,33.5-11.43,53.6-5.52c20.1,5.91,34.68,15.37,43.35,17.34s44.54,18.52,56.36,22.07,31.53,9.85,39.02,9.85,7.88-1.18,14.58-1.18,19.71,5.52,24.04,16.16,7.49,26.8-5.12,31.92c-12.61,5.12-246.33-13.01-246.33-13.01l-28.77-22.46.79-11.82Z"/>
  <path class="st18" d="M1593.7,125.96s-19.31,20.49-20.89,29.95,11.43,20.49,18.92,19.31,11.43-8.28,11.43-21.28-5.52-29.56-9.46-27.98Z"/>
  <path class="st7" d="M1662.28,158.67c1.18,1.18,5.52,7.88,4.73,16.16-.79,8.28-16.16.79-15.76-4.34s11.04-11.82,11.04-11.82Z"/>
  <path class="st4" d="M1663.22,160.99c.96.48,8.3,4.79,3.79,13.84l-7.16-1.07s-2.17-8.67-.72-10.6c1.45-1.93,4.1-2.17,4.1-2.17Z"/>
  <path class="st20" d="M899.14,210.99l2.04,13.67s-.2,5.1-.2,6.32-3.88,21.01-3.88,21.01l3.88,1.22,5.92-20.19s1.02-.82,1.22-4.08-1.63-5.92-1.63-5.92l-1.63-11.02-5.71-1.02Z"/>
  <path class="st20" d="M931.37,217.92v3.67s-1.63.82-2.04,3.26-16.52,19.79-16.52,19.79l2.45,3.06,18.15-18.56s3.67-2.86,3.88-5.1,1.02-7.14,1.02-7.14l-6.94,1.02Z"/>
  <path class="st18" d="M1638.24,172.86c-.3-1.55-2.76-26.8,16.95-22.86,19.71,3.94,13.4,11.82,13.4,11.82,0,0-17.34,2.76-13.4,7.88,3.94,5.12,11.04,2.76,13.4,3.94s7.49,6.7,5.52,10.64c-1.97,3.94-32.32,6.7-35.86-11.43Z"/>
  <path class="st1" d="M876.29,125.52s2.24-11.02,11.63-10.81c9,.2,14.62,7.34,14.53,15.3,0,.34-.02.68-.04,1.02,0,0,1.22,1.43,4.28,1.43s13.26,5.71,15.3,7.55,18.36,63.03,19.79,65.89,4.08,12.44,2.86,13.26-10.81,3.67-16.32-2.45c-5.51-6.12-12.24-13.87-13.67-14.28s-7.55-.82-8.57-.82,2.86,14.07-.61,13.46-4.69.41-7.55-4.08-4.49-13.87-6.32-17.34-8.16-19.17-9.18-29.37,3.88-25.7,3.88-25.7l.61-1.43s-7.79-1.5-10.23-3.95-.37-7.68-.37-7.68Z"/>
  <path class="st17" d="M915.25,149.99s-3.67,14.69,3.88,23.25c7.55,8.57,14.07,13.67,14.69,17.95s7.96,13.87,7.96,13.87c0,0,4.28-28.56,2.65-31.41s-3.67-3.06-5.92-9.38-9.79-20.6-16.52-24.27-6.73,10-6.73,10Z"/>
  <path class="st19" d="M860.58,133.68s13.87-7.55,15.71-8.16,5.51,3.47,5.51,3.47c0,0-20.19,6.53-21.21,4.69Z"/>
  <path class="st16" d="M864.66,135.31c.61,0,14.28-1.43,15.3-2.45s1.84-3.88,1.84-3.88l-21.21,4.69s1.22,1.63,4.08,1.63Z"/>
  <ellipse class="st3" cx="886.66" cy="125.11" rx="2.67" ry="2.75" transform="translate(171.23 663.6) rotate(-45)"/>
  <ellipse class="st14" cx="886.79" cy="125.25" rx="1.56" ry="1.53" transform="translate(539.47 950.76) rotate(-75.22)"/>
  <path class="st0" d="M900.19,285.19s-1.05,4.71,3.93-4.97,5.5-23.82,18.06-15.45c12.57,8.38-6.55,23.04-12.57,24.35s-10.47,4.19-11,.79,1.57-4.71,1.57-4.71Z"/>
  <path class="st12" d="M876.1,285.98c1.57-6.28,3.67-32.46,12.83-30.11s10.73,16.49,6.81,22.25-10.73,14.14-15.45,12.3-4.19-4.45-4.19-4.45Z"/>
  <path class="st0" d="M937.63,265.29c.79-1.05-1.05-15.97,12.04-12.3,13.09,3.67,5.5,18.33-.26,22.78s-19.37,10.21-16.76,2.88,4.97-13.35,4.97-13.35Z"/>
  <path class="st12" d="M950.98,258.22c1.31-.79,10.47-10.73,14.4-1.83s-7.59,24.09-13.88,24.35-12.57-3.93-12.04-4.97,11.52-17.54,11.52-17.54Z"/>
  <path class="st12" d="M929.25,250.11c-.52-6.81,1.05-17.28,10.73-13.09s11.52,9.16,7.33,17.02-10.21,21.21-12.57,18.59-5.5-22.52-5.5-22.52Z"/>
  <path class="st0" d="M917.21,246.18c2.36-4.19,12.83-7.85,15.71-2.36,2.88,5.5,3.4,34.3-1.31,34.3s-14.4-31.94-14.4-31.94Z"/>
  <path class="st12" d="M899.66,254.04c5.24-2.88,10.21-7.07,13.88.52s-1.05,36.65-7.07,28.8-6.81-29.32-6.81-29.32Z"/>
  <path class="st0" d="M906.99,255.87c-.26-1.05,1.57-14.66,8.38-11.52s6.02,29.32,3.4,30.89-11.78-19.37-11.78-19.37Z"/>
  <path class="st12" d="M892.33,261.63c-1.05-3.14-10.73-11.26-.52-13.09s14.4,4.45,15.45,15.45c1.05,11,.26,25.13-5.24,19.9s-9.69-22.25-9.69-22.25Z"/>
  <path class="st12" d="M911.18,240.16c5.76-1.83,8.12-6.55,11.26,1.05s1.57,30.63-2.88,24.09-8.38-25.13-8.38-25.13Z"/>
  <path class="st12" d="M899.14,239.11c3.4.79,8.64-2.36,9.95,8.64,1.31,11-6.81,34.03-9.16,23.82s-.79-32.46-.79-32.46Z"/>
  <path class="st0" d="M919.82,287.81c.21,1.03,25.66,4.45,30.11.52s7.59-13.09-.26-13.88-30.37,10.73-29.85,13.35Z"/>
  <path class="st12" d="M917.99,287.81c-.52-3.67-5.76-19.9,4.97-18.06,10.73,1.83,13.09,12.57,7.85,17.02s-12.83,1.05-12.83,1.05Z"/>
  <path class="st0" d="M899.93,288.86s-13.35,4.71-15.45-4.19-.26-24.09,9.16-16.76,6.28,20.94,6.28,20.94Z"/>
  <path class="st12" d="M912.23,284.14c-1.05,0-29.06-2.09-29.85,10.73-.79,12.83,40.84-2.09,42.67-6.81s-12.83-3.93-12.83-3.93Z"/>
  <path class="st12" d="M929.25,288.07c.79-.26,12.57,9.42,17.28,10.21s5.24-6.28-.52-9.69-16.76-.52-16.76-.52Z"/>
  <path class="st12" d="M908.96,285.77c-.81,0-19.72,1.35-13.77-4.59,5.94-5.94,22.96,2.7,23.23,3.51s-9.45,1.08-9.45,1.08Z"/>
  <path class="st12" d="M924.09,283.06s.32-1.33.94-3.26c1.85-5.81,6.34-17.1,12.59-14.51,8.34,3.46-13.27,22.09-14.35,21.55s.81-3.78.81-3.78Z"/>
  <path class="st0" d="M923.76,262.73c3.2-2.3-.54,24.2-.54,24.2,0,0-4.88-20.04-2.92-21.97s3.46-2.22,3.46-2.22Z"/>
  <path class="st12" d="M898.7,280.63s-5.94,1.35-7.02-4.05,3.78-8.1,7.83-2.97,5.13,8.1,5.13,8.1l-5.94-1.08Z"/>
  <path class="st8" d="M891.86,490.16c-1.69-1.94-3.95-28.39,5.08-23.87s20.31,24.52,20.31,24.52c0,0,10.72-8.39,12.41-7.1s11.85,8.39,11.85,8.39c0,0,27.64-24.52,33.85-21.94,6.21,2.58,12.41.65,12.41.65,0,0,11.85-6.45,16.36-.65,4.51,5.81,6.21,16.13,6.21,16.13l17.49-.65s-18.62-14.19,6.21-11.61c24.82,2.58,36.1,3.87,36.1,3.87,0,0-1.13-17.42,1.69-19.36s10.72-4.52,12.41-3.23,12.98,14.19,12.98,26.45-54.72,34.19-101.54,37.42c-46.82,3.23-158.52,18.06-201.4-1.94-42.87-20-96.47-46.45-97.03-54.19s32.72-29.68,39.49-20.65c6.77,9.03,13.54,19.36,15.8,19.36s8.46-7.1,16.36-7.1,11.28,3.23,11.28,3.23c0,0,19.18-13.55,20.87-3.87s-9.03,17.42-9.03,17.42c0,0,23.13-22.58,27.64-13.55s2.26,25.81,2.26,25.81l24.82,9.03,20.87-3.87,7.33,8.39,16.92-7.1Z"/>
  <path class="st8" d="M1477.27,180.41c.78-.06,10.22,7.18,10.88,11.31.65,4.13,3.48,5,5,8.92s8.05,5.44,8.05,5.44c0,0,12.62,3.7,13.27,4.57s8.92-8.92,14.14-6.31,8.7,8.27,8.7,8.27l6.09-1.09s11.96-14.14,15.44-10.88,2.39,8.48,2.39,8.48c0,0,3.48-10.01,10.22-11.09,6.74-1.09,10.22,0,10.22,0,0,0,9.35-15.44,20.45-11.75,11.09,3.7,8.7,15.66,8.7,15.66l11.53,1.52s1.52-8.92,9.35-6.96c7.83,1.96,14.57,10.22,14.57,10.22l3.26,8.48s21.32-21.97,26.97-16.1c5.66,5.87,4.57,8.27,4.57,8.27,0,0,9.35.65,9.35,4.57s-1.96,6.74-1.96,6.74l5.22,6.53,10.88,1.52s2.39-14.36,8.27-11.96c0,0-1.96-23.28,7.61-21.1,9.57,2.18,13.92,9.14,13.7,8.48s10.01-13.92,15.01-8.7c5,5.22,4.57,17.4,4.57,17.4,0,0,13.05-3.48,13.92-1.74.87,1.74-.44-17.4,6.53-13.27,6.96,4.13,10.66,16.31,10.66,16.31l-.22,25.23-304.05-7.4s-29.5-47.56-3.32-49.59Z"/>
  <path class="st12" d="M1737.48,703.98s8.67-21.33,26.67-30.67,28.67,18,12.67,27.33-39.33,3.33-39.33,3.33Z"/>
  <path class="st12" d="M1621.48,734.65s-8.67-18.67-.67-26.67,19.33-2.67,19.33,8.67-3.33,37.33-11.33,34-7.33-16-7.33-16Z"/>
  <path class="st12" d="M1503.48,714.65c-4-2.67-22-27.33-6.67-31.33s32,11.33,34,24.67-27.33,6.67-27.33,6.67Z"/>
  <path class="st12" d="M1516.81,722.65s1.33-29.33,13.33-32,18.67,7.33,8,20.67-17.33,23.33-20,22-1.33-10.67-1.33-10.67Z"/>
  <path class="st12" d="M1828.81,707.98c-2-.67-34-16-22.67-24s36,.67,39.33,13.33c3.33,12.67,6,21.33-1.33,20s-15.33-9.33-15.33-9.33Z"/>
  <path class="st0" d="M1906.14,699.32c1-5,14-43,35-42s34,6,19,25-43,49-46,41-8-24-8-24Z"/>
  <path class="st12" d="M1913.48,660.65c-5.33-22-4.67-32,13.33-29.33s20,27.33,10,42-23.33-12.67-23.33-12.67Z"/>
  <path class="st0" d="M1585.64,208.32s-16-6-11,1,12,20.5,13.5,16-2.5-17-2.5-17Z"/>
  <path class="st12" d="M1728.28,641.33s-20-20.67-11.33-28.67c8.67-8,8-23.33,18.67-1.33,10.67,22,12.67,32,6,33.33-6.67,1.33-13.33-3.33-13.33-3.33Z"/>
  <path class="st12" d="M1804.14,715.98c.67-5.33,1.33-14,5.33-13.33s13.33,8,8,12.67c-5.33,4.67-13.33.67-13.33.67Z"/>
  <path class="st12" d="M1607.48,707.98s-10-16.67.67-16.67,8.67,5.33,12.67,16.67,6,33.33.67,26.67c-5.33-6.67-14-26.67-14-26.67Z"/>
  <path class="st12" d="M1622.14,729.98c-2-1.33-29.33-20-26-10.67,3.33,9.33,28,30,29.33,28s-3.33-17.33-3.33-17.33Z"/>
  <path class="st12" d="M1472.14,691.98c-.67-2.67,3.33-23.33-12.67-23.33s5.33,30.67,9.33,30,3.33-6.67,3.33-6.67Z"/>
  <path class="st12" d="M903.94,503.33c-3.33-2-23.33-17.33-16-38s25.95,19.61,29.31,25.47,12.69,22.53,8.69,22.53-22-10-22-10Z"/>
  <path class="st12" d="M937.94,510c2.67-5.33,8-18,3.33-25.33s-19.33-8-18-1.33,8,28.67,10.67,28.67,4-2,4-2Z"/>
  <path class="st12" d="M901.94,506.67l-36.67-20s-22.67-2-14,9.33,49.33,22,50.67,10.67Z"/>
  <path class="st12" d="M1031.94,486.67c-1.11-1.66-21.33-10.67-34.67-1.33s36,3.33,34.67,1.33Z"/>
  <path class="st12" d="M1952.81,670.65c.67-3.33,2-32.67,20.67-38,18.67-5.33,40.67,14,33.33,30.67-7.33,16.67-55.33,42-55.33,34.67s1.33-27.33,1.33-27.33Z"/>
  <path class="st12" d="M1581.64,205.82s-4.5-17,7-20.5c11.5-3.5,20.5-2.5,22,4s3,21-1,29-13.5,12-16.5,8c-3-4-11.5-20.5-11.5-20.5Z"/>
  <path class="st12" d="M1734.64,242.82s-18-2.5-16-30.5c0,0,15.56-10.3,25.53,7.85,9.97,18.15-4.03,26.15-4.03,26.15l-5.5-3.5Z"/>
  <path class="st12" d="M1493.15,200.64s-.14-15.43-8.01-17.83-3,17.5,2,19.5,6.01-1.67,6.01-1.67Z"/>
  <path class="st12" d="M1488.64,206.32s-1-11,3.5-14,7-8.5,9.5-3-9,20-10.5,20.5-2.5-3.5-2.5-3.5Z"/>
  <path class="st12" d="M1671.14,222.82s4-9.5,8-5.5-8,10-8,10v-4.5Z"/>
  <path class="st12" d="M1616.14,230.82s5-17.5,15-15,8.56-1.88,8.53,3.31c-.03,5.19-23.53,11.69-23.53,11.69Z"/>
  <path class="st12" d="M1582.14,214.82s-8-15-11-8,9.5,16,12,16-1-8-1-8Z"/>
  <path class="st0" d="M1477.64,152.32s-21-9-12.5-1.5,12.5,14.5,13,10-.5-8.5-.5-8.5Z"/>
  <path class="st0" d="M1472.64,152.82s-9.5-10.5-4.5-13.5,11.5-11,12.5,1-1,18-1,18l-7-5.5Z"/>
  <path class="st0" d="M1657.14,227.32c.5-3-2-14.5,2-16s7,1.5,6.5,8-8.5,8-8.5,8Z"/>
  <path class="st0" d="M1742.14,231.82s3.5-12.5,8.5-10.5,6.5,21-10.5,25l2-14.5Z"/>
  <path class="st0" d="M1873.14,169.32s-7-31,6-32,11,20,7,28-13,4-13,4Z"/>
  <path class="st0" d="M1894.14,165.32s8-7,12-7,8,3,2,8-14-1-14-1Z"/>
  <path class="st0" d="M900.28,516c-6,0-42,7-36-4s12-21,27-17,23,16,23,16l-14,5Z"/>
  <path class="st0" d="M786.28,480s23-14,19-26-26,3-29,8-19,27-13,27,23-9,23-9Z"/>
  <path class="st0" d="M670.28,368s-19-21-15-9,14,25,14,25l1-16Z"/>
  <path class="st0" d="M684.28,364s-12-16-8-23,12-3,15,9,4,33,0,29-7-15-7-15Z"/>
  <path class="st0" d="M686.28,404s-14-25-10-31,10,12,10,31Z"/>
  <path class="st0" d="M1677.14,751.32s-31.09-28.79-30.05-44.9,38.05-24.1,43.05-19.1,11,38,9,57-22,7-22,7Z"/>
  <path class="st0" d="M1431.14,653.32s-12-37-23-13,25,38,25,38l-2-25Z"/>
  <path class="st0" d="M1758.14,787.32s-45-51-33-64,24-19,35,0,8,66-2,64Z"/>
  <path class="st0" d="M1736.14,773.32s-21-31-20-17,15,34,20,31,0-14,0-14Z"/>
  <path class="st0" d="M1046.28,503c2-3,16.71-35.2,23.85-25.1s4.15,23.1-1.85,27.1-22-2-22-2Z"/>
  <path class="st0" d="M1055.28,514s8-7,15-1,9,15,3,14-18-13-18-13Z"/>
</svg>