<?xml version="1.0" encoding="UTF-8"?>
<svg id="Vrstva_1" xmlns="http://www.w3.org/2000/svg" version="1.1" viewBox="0 0 2381.1 841.89">
  <!-- Generator: Adobe Illustrator 29.7.1, SVG Export Plug-In . SVG Version: 2.1.1 Build 8)  -->
  <defs>
    <style>
      .st0 {
        fill: #26221f;
      }

      .st1 {
        fill: #83889b;
      }

      .st2 {
        fill: #d8d8d8;
      }

      .st3 {
        fill: #d19f5c;
      }

      .st4 {
        fill: #977a6f;
      }

      .st5 {
        fill: #ae8b7d;
      }

      .st6 {
        fill: #1e1a16;
      }

      .st7 {
        fill: #393330;
      }

      .st8 {
        fill: #dedede;
      }

      .st9 {
        fill: #332e2b;
      }

      .st10 {
        fill: #473f3b;
      }

      .st11 {
        fill: #765244;
      }

      .st12 {
        fill: #1a180f;
      }

      .st13 {
        fill: #1b0f09;
      }

      .st14 {
        fill: #f7f4bf;
      }

      .st15 {
        fill: #221e1b;
      }

      .st16 {
        fill: #554c48;
      }

      .st17 {
        fill: #dcdcdc;
      }

      .st18 {
        fill: #35302d;
      }

      .st19 {
        fill: #443d3a;
      }

      .st20 {
        fill: #e0e0e0;
      }
    </style>
  </defs>
  <path class="st18" d="M1304.43,200.47s16.66-21.95,25.2-24.79c8.54-2.85,12.6-2.03,10.57,6.1-2.03,8.13-.81,13.82-5.28,17.48s-11.79,7.32-17.07,7.32-13.41-6.1-13.41-6.1Z"/>
  <path class="st19" d="M1365.43,404.85s.49,19.11,3.43,31.85c2.94,12.74,14.7,52.93,14.7,58.81s1.96,16.66-6.86,20.58-66.65,1.96-66.65,1.96l50.48-115.16,4.9,1.96Z"/>
  <path class="st1" d="M802.19,768.76s2.46-.19,12.93-1.19c10.47-1,27.42,2.49,29.42-1.5s1.99-6.48,1.99-6.48c0,0,2.49,1.99,18.45,1s55.85-8.48,55.85-8.48c0,0-4.99-12.47-39.39-18.95-34.41-6.48-84.27.5-84.27.5l5.02,35.1Z"/>
  <path class="st1" d="M414.5,661.66s10.93,3.36,33.64,0c22.71-3.36,40.37-5.89,58.03-16.82s20.19-12.62,35.33-11.78c15.14.84,37.01,5.05,63.08,6.73,26.07,1.68,178.31,17.66,221.2,17.66s161.49,14.3,180.83,15.14c19.34.84,105.13,21.03,127,24.39s25.23,11.78,42.89,13.46c17.66,1.68,16.82-.84,46.26.84s85.79,21.87,103.45,27.76c17.66,5.89,31.96,3.36,72.33,13.46,40.37,10.09,51.31,9.25,70.65,12.62,19.34,3.36,19.34,5.05,24.39,5.89,5.05.84,8.41-3.36,24.39-4.21,15.98-.84,24.39,0,21.03,4.21-3.36,4.21-6.73,5.89-6.73,5.89,0,0,24.39,18.5,37.85,19.34,13.46.84,63.08,3.36,68.97,10.93,5.89,7.57-47.94,24.39-68.13,21.03-20.19-3.36-15.98-5.89-37.01-5.89s-29.44-3.36-45.42-10.93c-15.98-7.57-30.28-10.93-40.37-9.25-10.09,1.68-42.05,12.62-66.44,5.89-24.39-6.73-40.37-14.3-40.37-14.3,0,0-59.72-8.41-78.22-8.41s-15.14-9.25-44.58-13.46c-29.44-4.21-51.31-.84-51.31-.84,0,0-132.05-6.73-138.78-6.73s-52.99-10.09-79.06-10.09-93.36-10.09-131.21-10.93c-37.85-.84-174.94-23.55-259.89-39.53-84.95-15.98-127-21.87-138.78-21.87s-33.64,0-31.12-7.57,26.07-12.62,26.07-12.62Z"/>
  <path class="st18" d="M888.49,637.63s1.36,4.96,1.16,5.3-.61-.2-.61-.2l-1.5-5.51.95.41Z"/>
  <path class="st18" d="M781.17,700.99s-10.29,7.91-9.74,10.29,7.91,2.21,10.11,1.84c2.21-.37.37-12.13.37-12.13h-.74Z"/>
  <path class="st18" d="M856.36,694c.37.55,6.99,6.8,6.8,9.93s-12.32,3.31-12.5,2.39,5.7-12.32,5.7-12.32Z"/>
  <path class="st0" d="M858.33,701.97s3.43-1.84,4.29-.49,2.08,2.94,1.23,4.17-4.04,1.72-4.04,1.72c0,0-11.03,1.72-10.54.25s2.33-7.23,4.9-7.11,4.17,1.47,4.17,1.47Z"/>
  <path class="st0" d="M771.06,711.77s0-2.7,1.35-3.68,2.21-.98,2.94-.12.12,1.47,1.96.86,3.19-.12,3.92.37,1.72,2.08,1.47,3.19-7.84,3.8-11.64-.61Z"/>
  <path class="st10" d="M827.34,693.5s-13.65.55-13.65-.82c0,0-3.27,8.19-5.73,8.19,0,0-2.16,7.28-2.34,10.04s1.65,14.52,1.84,20.04-2.02,9.19-.92,11.95,5.33,6.62,5.88,8.82-3.13,5.15-4.78,6.43-8.64,5.52-10.85,5.88-9.38-1.29-9.38-1.29c0,0-13.42-9.19-13.42-9.93s.37-4.96.37-4.96c0,0,5.88-4.96,5.88-7.54s.74-13.79,0-18.02c-.74-4.23,1.1-14.71-2.21-20.77s-6.25-11.77-6.07-13.79c0,0-1.1-4.23-1.47-6.99,0,0-27.94-24.63-22.8-55.34,5.15-30.7,4.78-60.67,29.6-65.26,24.82-4.6,43.2-2.94,54.78,7.54,11.58,10.48,30.15,30.88,34.01,47.25l-8.64,77.21s-4.23,10.29-5.33,13.6-1.47,12.68-1.65,14.52.55,5.33.55,6.43,7.17,8.82,7.72,11.58c.55,2.76,3.31,5.7-6.43,10.66s-11.4,4.04-19.12.92-11.77-6.8-10.66-10.85,4.6-8.27,4.6-11.77.18-13.79.74-16.91c0,0-1.97-13.68-.53-16.86Z"/>
  <path class="st18" d="M774.37,747.86s-5.15,5.33-5.52,7.41-1.1,3.06,1.35,3.8,7.23.98,7.23.98c0,0-1.35,5.15,2.21,6.62,3.55,1.47,10.29.74,11.89-1.23,0,0,.86-.61,2.21.25s4.66,4.04,8.46,3.06c3.8-.98,7.35-3.43,7.35-6.25s-.25-3.68-.25-3.68c0,0,1.47,2.08,4.9,1.72,3.43-.37,4.41.37,3.68-3.19s-5.27-7.11-6.99-6.74-3.68,5.88-3.68,5.88c0,0-5.76-2.57-9.07-1.47s-4.29,4.9-4.29,4.9c0,0-2.08-5.15-6.37-5.27s-7.72,1.59-7.72,1.59c0,0-1.59-9.93-5.39-8.4Z"/>
  <path class="st18" d="M828.05,744.37s10.29-3.19,14.22,1.84l1.59,2.45s1.47-5.15,6.13-6.01,5.88.37,5.88.37c0,0,.12-4.41,1.47-5.52s1.96,0,3.55,2.57,2.7,5.27.98,5.88-3.92.61-3.92.61c0,0,1.59,12.99-13.73,6.25,0,0-2.7,2.33-6.74,2.21s-9.8-1.59-10.17-6.62c0,0-8.33,1.35-8.33-1.72s1.84-7.11,3.31-7.11,5.76,3.68,5.76,4.78Z"/>
  <path class="st18" d="M785.89,746.82c2.21.74,5.15,2.21,7.84,1.47s6.86-2.57,5.15-2.57-3.31,2.21-6.25,1.47-6.74-.37-6.74-.37Z"/>
  <path class="st18" d="M837,732.97c.37,0,3.31.61,5.88,0,2.57-.61,5.02-.49,4.53-1.23s-2.08.49-4.53.49-5.88.74-5.88.74Z"/>
  <path class="st18" d="M848.4,710.67s-5.15,4.66-8.95,4.78-7.72-.37-6.74-1.35,1.47-.61,4.17-.49,3.68.12,5.64-.86,5.88-2.08,5.88-2.08Z"/>
  <path class="st18" d="M838.35,717.53c.37-.25,4.78,0,7.11-1.23s3.19-1.59,2.82-.74-5.15,3.06-7.48,3.19-2.45-1.23-2.45-1.23Z"/>
  <path class="st18" d="M834.92,710.18c.37,0,1.47,1.47,4.9,1.35s4.53-.61,3.8-.74-4.66.12-5.64-.61-3.06,0-3.06,0Z"/>
  <path class="st18" d="M784.67,720.35s5.27,2.82,11.15,1.35c5.88-1.47,9.56-3.06,9.19-3.68s-3.55.98-5.76,1.1-1.96.74-5.76.61-5.27-1.47-7.11-.74-1.72,1.35-1.72,1.35Z"/>
  <path class="st18" d="M787.85,715.45c.05.49,6.25,1.23,7.97,1.1s4.41-.12,3.55-.61-3.92,0-5.39-.49-6.25-1.23-6.13,0Z"/>
  <path class="st18" d="M790.92,724.76s4.66,1.47,7.23.25,3.55-.74,2.57.12-5.88,2.21-8.09,1.72-1.72-2.08-1.72-2.08Z"/>
  <path class="st18" d="M813.71,651.96s-16.67,3.92-20.22-2.33c-3.55-6.25-1.47-9.93,2.45-11.64,3.92-1.72,12.87-4.04,14.83-4.78s4.78-.86,4.78-.86c0,0,7.97-14.46,20.22-16.91,12.26-2.45,26.84-5.76,37.87,4.17,11.03,9.93,12.01,12.38,12.13,12.87s3.06,12.13,3.06,12.13c0,0,3.8,6.99,4.29,10.79s2.82,5.27,4.04,9.44,4.9,14.83-3.92,19.85c0,0,.86,7.72-19.36,10.54,0,0-12.67.33-15.93-.49-.49-.12-7.23.61-20.96-5.52-13.73-6.13-23.9-11.28-23.29-37.26Z"/>
  <path class="st0" d="M851.09,681.99c.26-.36,8.95,6.74,15.44,6.37,6.5-.37,9.8-4.17,14.71-4.29s7.11,0,8.95,0,2.7.49,3.92,0-.86.61-.86.61c0,0-11.28-.12-14.09.86-1.54.54-4.56,1.74-7.41,2.75-2.36.84-4.6,1.55-5.82,1.66-2.7.25-15.81-6.62-14.83-7.97Z"/>
  <path class="st0" d="M874.63,666.3s-6.5,1.96-9.19.12-3.31-5.02-2.82-6.74,3.55-2.94,5.64-2.7,5.88,4.78,6.86,5.39,1.96,1.23,2.08,2.33-2.57,1.59-2.57,1.59Z"/>
  <path class="st11" d="M873.28,663.48s-2.21-1.84-3.8-3.31-3.43-1.59-4.04-.12-.86,2.7.86,3.43,5.39,1.47,6.5,1.23.49-1.23.49-1.23Z"/>
  <path class="st0" d="M887.37,662.87c.37-.12,3.19.98,4.53.25s2.94-2.57,2.7-3.8-.98-1.23-1.23-2.57-1.23-3.06-3.43-3.06-1.72,3.43-2.08,4.78-.86,4.53-.49,4.41Z"/>
  <path class="st11" d="M889.21,660.54s1.23-.12,2.33-.37,2.33-.74,1.59-1.84-1.1-2.33-1.84-2.33-.74.61-1.23,1.84-2.08,2.7-.86,2.7Z"/>
  <path class="st0" d="M837.12,665.57c1.81-1.09,11.52,2.08,12.13,5.15s.86,10.29,2.45,11.4,1.35,1.96.98,1.84-2.94-1.59-3.31-3.31-.12-7.97-1.1-9.44-5.52-3.92-7.35-3.92-4.41-1.35-3.8-1.72Z"/>
  <path class="st11" d="M814.82,642.52c-.36.07-5.64.37-7.97-1.1s-5.88-2.57-8.7-1.59-4.78,6.25-.74,8.7c4.04,2.45,13.73,1.1,15.81-.49s2.21-5.64,1.59-5.52Z"/>
  <path class="st0" d="M819.23,641.18s1.23,4.41-.25,5.76,1.23.74,1.47-.12-.12-5.39-1.23-5.64Z"/>
  <path class="st0" d="M872.66,619.97s8.46-5.15,10.79-4.04,3.55,4.29,3.31,6.86-2.21,7.97-2.7,7.97-11.4-10.79-11.4-10.79Z"/>
  <path class="st11" d="M881.73,618.87c-.21.39-.25,5.88,0,6.62s1.1,3.06,1.59,3.55,2.7-3.43,2.33-5.88-2.57-6.74-3.92-4.29Z"/>
  <path class="st0" d="M882.59,632.72c-.12.49.12,7.48,1.47,10.66s2.33,5.15,4.29,4.53,2.21-.98,1.59-2.82-1.96-5.52-2.21-7.23.25-3.8-.86-4.78-4.17-.86-4.29-.37Z"/>
  <path class="st2" d="M885.66,635.29c.38-.08,2.08,1.72,2.7,3.55s1.72,5.52-.12,5.39-3.19-1.1-3.31-3.19.12-5.64.74-5.76Z"/>
  <path class="st13" d="M886.15,641.67c.57,0,1.77.37,2.22-.98s-.55-3.92-1.22-4.41-1.33-.61-1.77-.25.44,5.64.78,5.64Z"/>
  <path class="st18" d="M884.06,639.58c.12-.37,1.23-2.45,2.21-2.08s2.5,2.51,2.62,1.9,1.3-3.86.07-4.47-4.29-.49-4.9.98,0,3.68,0,3.68Z"/>
  <path class="st18" d="M885.17,643.87c.12.37.74,2.57,2.45,2.21s3.55-.37,2.82-2.82-1.59-.37-2.45-.37-.98.49-1.72-.37-1.72-5.02-1.72-5.02l-.49,2.57,1.1,3.8Z"/>
  <path class="st0" d="M826.95,644.61s.37-7.35,7.48-9.31,12.62,4.17,13.6,8.09,2.21,16.06-6.62,17.77c-8.82,1.72-16.06-6.01-14.46-16.55Z"/>
  <path class="st2" d="M831.61,643.63l3.92-2.33s4.04,1.23,4.41,1.47,2.7,2.08,3.06,3.19,1.35,4.53,1.23,5.02-1.84,3.55-2.33,3.68-6.99,1.96-7.35,1.72-2.94-4.29-3.19-5.27.25-7.48.25-7.48Z"/>
  <path class="st13" d="M834.55,644.36s-1.47,4.9-.12,6.37,2.82,2.82,5.02,1.1c2.21-1.72,1.35-7.6,1.23-8.09s-.74-.98-.74-.98c0,0-5.39.74-5.39,1.59Z"/>
  <path class="st18" d="M842.64,648.9c-.61-.98-.86-3.06-3.06-4.29s-5.39-.37-6.25.61-.86,3.68-1.47,3.8-1.35.49-1.59-1.35-2.08-4.9,1.72-6.99,7.97-1.96,10.29.98c2.33,2.94,3.68,7.11,2.45,7.72s-2.08-.49-2.08-.49Z"/>
  <path class="st18" d="M843.37,648.28s-.61,3.92-1.96,4.9-7.72,1.84-9.07-1.84.25-4.29.25-4.29l-2.57-.61s-1.23,6.01,1.96,9.19,5.88,3.92,9.8,1.47c3.92-2.45,3.92-7.48,3.43-8.58s-1.84-.25-1.84-.25Z"/>
  <path class="st18" d="M770.51,680.76s.31-11.52-1.65-17.4-11.28-34.81-2.94-51.96l8.33-17.16s-4.41,13.73-5.88,23.04c-1.47,9.31.98,34.32,3.43,43.63s-1.29,19.85-1.29,19.85Z"/>
  <path class="st19" d="M494.07,461.06s10.85,15.78,10.85,25.65,9.86,45.87,8.88,56.23,9.86,17.76,12.82,26.63c2.96,8.88,68.06,80.39,76.94,86.31s22.19,12.33,23.18,17.26,9.86,11.84,35.51,13.32c25.65,1.48,62.64.99,62.64-5.43s-6.41-6.41-20.71-15.29c-14.3-8.88-28.11-27.62-32.55-33.04s-2.96-12.33-5.92-21.21c-2.96-8.88-22.69-49.81-23.67-57.7s0-14.8,0-14.8c0,0-137.11-84.83-147.96-77.93Z"/>
  <path class="st19" d="M935.98,540.96s-15.29,35.51-19.23,54.75c-3.95,19.23-9.37,73.49-3.95,101.11,0,0,7.4,12.82,7.89,17.76.49,4.93-13.32,4.44,1.97,10.85,15.29,6.41,82.86,15.29,92.72,9.37s-17.76-10.85-23.67-21.7c-5.92-10.85-12.33-18.25-12.33-29.1s-2.47-26.14,0-33.04c2.47-6.9,7.89-22.69,10.36-32.55,2.47-9.86-43.4-81.38-53.76-77.43Z"/>
  <path class="st16" d="M365.34,139.94s-66.91,77.64-64.39,177.31c0,0,1.89,64.34,11.35,95.88,0,0-1.26,20.82-3.78,28.39s-11.35,34.69-12.62,51.73c-1.26,17.03,5.05,48.57,5.05,51.73s3.78,82,5.68,89.57c1.89,7.57,4.42,10.72,4.42,10.72l-.63,25.86s12.62,10.72,29.02,10.72,73.17-3.78,73.17-10.09-17.66-34.69-25.86-36.59c0,0-7.57-51.73-2.52-64.97,5.05-13.25-1.89-16.4,5.05-22.08,6.94-5.68,4.42-29.65,8.83-33.43,4.42-3.78,18.92-27.12,32.17-35.33,13.25-8.2,21.45-20.19,34.69-20.82s28.39-1.89,63.71,24.6c35.33,26.49,51.73,50.46,119.85,63.71,68.13,13.25,58.03,18.92,275.03-6.31,0,0,14.51,5.68,30.28,21.45,15.77,15.77,49.2,96.51,58.67,109.76s17.03,29.65,18.29,41.63c1.26,11.99,4.42,35.96,19.56,47.31s109.13,9.46,110.39,1.26-7.57-13.25-18.29-23.97c-10.72-10.72-32.8-33.43-34.69-41s-3.78-18.92-8.2-30.28c-4.42-11.35-4.42-25.86-7.57-37.22s-13.88-27.76-16.4-33.43c-2.52-5.68-7.57-45.42-6.31-56.14s4.42-15.14,4.42-19.56c0,0,21.45-8.2,19.56-22.71,0,0,23.97-6.94,27.76-22.08,0,0,30.28,9.46,41.63,3.15l18.92-13.88-7.57-296.48-808.65-28.44Z"/>
  <path class="st19" d="M331.31,526.66c.29,1.45,15.78,15.29,35.51,15.29s28.11-5.92,26.63-8.38-2.96,0-8.88.99c-5.92.99-20.71,1.48-35.02-3.45-14.3-4.93-18.74-6.9-18.25-4.44Z"/>
  <path class="st19" d="M334.77,540.96c12.33,14.8,41.92,13.32,45.37,11.84,3.45-1.48,5.43-4.44,3.95-4.44s-7.89.99-14.3.99-20.71-3.45-28.11-7.4c-7.4-3.95-6.9-.99-6.9-.99Z"/>
  <path class="st19" d="M351.04,561.67c-1.01-1.08,20.71.99,26.63-1.97,5.92-2.96,4.93.99,4.93.99,0,0-24.17,8.88-31.56.99Z"/>
  <path class="st19" d="M342.66,633.68c-4.41,5.51,32.55-2.96,36.99-1.48s1.97-.99-1.48-3.95-29.59-1.97-35.51,5.43Z"/>
  <path class="st19" d="M311.58,659.82s.49-5.92,7.89-6.41c7.4-.49,14.8,8.88,17.76,15.29,0,0,1.48-15.29,9.37-17.76s12.82-.49,17.26,6.9,4.93,12.33,4.93,12.33c0,0-2.96-20.22,4.93-22.19s13.81,2.47,19.73,10.36,4.44,9.86,4.44,9.86c0,0-1.48-19.23,1.48-19.23s14.8,14.3,15.29,23.67-14.3,5.92-14.3,5.92c0,0-19.73,12.82-29.1,4.44,0,0-27.13,11.34-32.06.99,0,0-28.11-3.95-30.58-12.82s2.96-11.34,2.96-11.34Z"/>
  <path class="st9" d="M656.83,677.08s-.99-7.4,10.85-5.92c11.84,1.48,16.28,6.9,16.28,6.9,0,0,3.45-11.34,10.85-11.84,7.4-.49,21.21,1.97,28.11,8.88,6.9,6.9,6.9,8.38-.99,11.34-7.89,2.96-30.58,5.92-36,2.96,0,0-20.71,1.48-27.13-.99l-1.97-11.34Z"/>
  <path class="st9" d="M661.76,642.56c1.48,0,10.85,1.48,13.81,2.47s-5.92-6.41-5.92-6.41c0,0-18.25.99-18.25,2.96s10.36.99,10.36.99Z"/>
  <path class="st9" d="M637.1,589.29c7.4,0,21.21,4.93,21.21,4.93l1.97,4.93s-11.84-1.97-17.26-3.95c-5.43-1.97-7.4-2.47-9.86-.99s3.95-4.93,3.95-4.93Z"/>
  <path class="st9" d="M643.02,581.89c-4.78,1.2,12.93,7.11,12.93,7.11l-4.05-10.07s-6.9,2.47-8.88,2.96Z"/>
  <path class="st19" d="M1047.94,750.08s3.45-8.38,13.32-5.43,16.28,9.37,16.28,9.37c0,0-1.97-17.26,11.84-19.23,13.81-1.97,21.7,1.48,21.7,1.48,0,0,8.38-12.33,14.3-11.84s9.86,7.4,15.78,11.34,21.21,19.23,25.15,26.14c3.95,6.9,9.37,14.8.99,15.29-8.38.49-25.65-2.96-25.65-2.96,0,0-10.36,4.44-19.23,4.44s-30.58-2.47-34.52-5.92c0,0-35.02,4.44-40.44-3.45-5.43-7.89.49-19.23.49-19.23Z"/>
  <path class="st9" d="M974.77,715.51s2.47-5.92,15.29-1.48c12.82,4.44,29.1,15.29,26.63,21.21-2.47,5.92-29.1.99-29.1.99,0,0-36.5-.49-40.44-4.44-3.95-3.95,6.9-15.29,14.8-15.29s9.86,6.9,9.86,6.9l2.96-7.89Z"/>
  <path class="st9" d="M950.28,684.48c-.7,1.39,15.29-6.41,20.22-1.97,4.93,4.44,9.37,7.89,9.37,7.89l-.49-6.41s-21.7-14.3-29.1.49Z"/>
  <path class="st9" d="M950.28,637.63s16.28,4.93,20.22,4.93,9.37-1.97,9.37-1.97c0,0,2.96-3.95,1.48-3.95s-6.9,1.48-14.3.99-16.77,0-16.77,0Z"/>
  <path class="st19" d="M1057.31,714.07s24.66-11.34,34.03-11.34,17.76.49,16.28.49.99-6.9-5.43-8.38-41.92,12.33-44.88,19.23Z"/>
  <path class="st19" d="M1042.51,630.23c8.88.99,26.63,5.43,32.06,4.44s10.85-4.44,11.84-5.92,2.96-4.44-1.97-2.96c-4.93,1.48-14.3,5.92-23.67,3.45-9.37-2.47-18.25.99-18.25.99Z"/>
  <path class="st19" d="M1056.81,619.87c8.38.49,10.85,2.96,19.23-1.48,8.38-4.44,3.95-11.34,3.95-11.34,0,0,3.95.49-6.41,2.96s-19.23,6.41-26.14,3.95c-6.9-2.47,0,3.95,0,3.95l9.37,1.97Z"/>
  <path class="st19" d="M1070.62,641.57c2.96,0,4.93,2.47,10.85-.99s4.44-7.4,5.92-3.45,5.43,3.45,0,5.92-11.84,2.96-18.25,1.48,1.48-2.96,1.48-2.96Z"/>
  <path class="st9" d="M952.75,645.52c1.48,0,15.29,5.43,18.74,5.43h7.89l1.48-5.92-7.4,1.48-20.71-.99Z"/>
  <path class="st10" d="M1181.56,464.85s14.71.34,22.7.34,0-293.39,0-293.39l-30.27-3.43,7.57,296.48Z"/>
  <path class="st16" d="M1162.25,471.74s6.15,3.08,16.92,2.05l10.77-1.03s21.02,4.61,32.81,3.59l6.96-1.72s15.22,38.82,34.25,47.19c19.03,8.37,108.08,12.94,117.21-11.42,0,0,1.52-18.27-1.52-22.07-3.04-3.81-2.28,18.27-15.98,19.79-13.7,1.52-60.89,9.89-63.17,3.04s4.57-19.03,4.57-47.19,18.27-85.24,20.55-87.53,30.44-46.43,30.44-46.43c0,0-35.77-127.1-41.1-130.15-5.33-3.04-19.03-2.28-28.92-7.61s-5.33-7.61-21.31-13.7c-15.98-6.09-54.04-8.37-65.45-8.37s-123.3-28.92-135.48-25.88c0,0-6.09-1.52-24.36-9.89-18.27-8.37-170.49-54.8-196.36-60.13,0,0-149.94-69.26-267.15-33.49-117.21,35.77-239.75,92.85-257.25,159.83-17.51,66.98-12.18,192.56-1.52,212.35l845.1,58.75Z"/>
  <path class="st19" d="M1333.82,343.87s-26.34,40.2-30.15,50.6c-3.81,10.4-5.55,23.91-6.24,30.15-.69,6.24-14.21,52.68-16.98,60.31s-2.43,29.11,7.97,35.01c10.4,5.89,21.49,4.51,32.93,2.08s14.56-4.16,23.91-4.16,30.15-2.08,34.66-4.51,3.47-20.1,2.43-23.22-3.81-4.51-3.81-4.51l-44.71-141.75Z"/>
  <path class="st5" d="M1362.96,403.7s-.41,23.57,2.85,34.96c3.25,11.38,15.45,52.43,13.01,61.78-2.44,9.35-17.07,10.97-23.17,10.57-6.1-.41-20.73-1.63-31.3,1.22s-20.32,14.63-32.52,1.22c-12.19-13.41,2.85-42.68,4.47-50.4s8.54-28.45,9.35-46.34c.81-17.88,19.92-58.12,29.67-63.41s27.64,50.4,27.64,50.4Z"/>
  <path class="st4" d="M1348.74,389.47s-6.5-.41-10.57,19.92-2.44,36.99-3.25,38.61-6.91,2.85-9.76-8.13-5.69-41.46-9.35-45.93-3.83-1.21-3.83-1.21c0,0,15.21-38.63,23.34-39.44,0,0-1.22,6.91,1.22,16.26s12.19,19.92,12.19,19.92Z"/>
  <path class="st11" d="M1320.69,197.21c4.47-6.91,9.35-16.66,11.38-14.63s2.85,2.85.41,8.94-7.32,9.35-10.57,10.97-1.63,3.66-3.25,1.63,2.03-6.91,2.03-6.91Z"/>
  <path class="st19" d="M1332.89,359.39s2.85,23.57,10.57,32.11c7.72,8.54,15.85,15.85,30.08,17.88,14.23,2.03,40.24,2.85,69.5-21.14,0,0,.81-3.66,10.57-.81,9.76,2.85,21.54,3.25,27.64,2.85s6.5-53.25-1.22-73.57c0,0-4.06-29.67-36.99-21.54,0,0-21.54-8.13-28.45-10.57-6.91-2.44-36.18-25.2-45.52-30.89s-32.52-22.76-39.43-29.67-.77-21.12-20.28-26.41-55.32-2.45-77.27,10.96c-21.95,13.41-25.2,19.92-25.2,35.36s7.32,34.96,43.9,48.78c36.58,13.82,35.36,10.97,53.25,18.7,17.88,7.72,25.2,14.23,28.05,21.54,2.85,7.32.81,26.42.81,26.42Z"/>
  <path class="st9" d="M1219.08,234.61s5.69,1.22,10.57-2.44c4.88-3.66,6.1-12.6,3.66-16.26-2.44-3.66-5.69-6.91-4.47-13.82s3.25-13.82-2.85-14.23c-6.1-.41-28.45,14.23-26.01,31.3,0,0-1.63,8.94,5.28,11.79s10.16,2.03,11.38,2.85,2.44.81,2.44.81Z"/>
  <path class="st11" d="M1225.99,219.98s.41-3.66-.81-8.54,3.66-19.1-2.03-15.04-16.66,13.01-15.45,18.29,2.03,7.32,8.94,8.13,9.35-2.85,9.35-2.85Z"/>
  <path class="st9" d="M1404.42,301.27s7.72-2.44,15.04,0,13.82,2.85,17.88,5.69,7.72,5.28,2.44,9.35-12.6,7.32-20.32,4.47c-7.72-2.85-15.45-18.29-15.04-19.51Z"/>
  <path class="st11" d="M1412.15,306.55s2.44,7.72,8.94,9.35,11.38,4.47,12.6.41,4.06-5.28-2.44-6.5c-6.5-1.22-10.57-2.85-12.6-4.47s-6.5,1.22-6.5,1.22Z"/>
  <path class="st9" d="M1455.64,296.39c-1.1.67-6.5,9.76-.41,13.82s10.57,7.32,16.66,5.28,6.5-5.69,6.5-5.69c0,0-9.35-21.54-22.76-13.41Z"/>
  <path class="st11" d="M1464.58,298.02s-8.54,3.25-6.91,6.91,1.63,6.1,6.5,5.28,7.32-3.25,7.32-6.1,0-6.91-2.03-6.91-4.88.81-4.88.81Z"/>
  <path class="st9" d="M1389.38,323.22s-1.22,17.48,11.38,24.79c12.6,7.32,19.1,6.5,19.51,7.72s0,.81-4.47,1.63-19.51-3.25-26.01-16.26-.41-17.88-.41-17.88Z"/>
  <path class="st14" d="M1355.24,473.2s-2.03,7.72,1.63,10.16,26.83-1.22,33.33-22.36c0,0,2.44-4.47-1.63-3.66s-9.35,8.94-13.41,12.19-18.7,2.44-19.92,3.66Z"/>
  <path class="st14" d="M1294.83,503.33c1.69,0,3.38,2.19,5.92-2.74s3.81-4.93,2.54-16.44,5.07-24.12,2.11-25.76-10.15,29.6-11.42,32.89.85,12.06.85,12.06Z"/>
  <path class="st14" d="M1314.59,489.46s.41-4.47,9.35,1.63c8.94,6.1,11.38,12.6,6.5,13.82s-16.26-9.35-15.85-15.45Z"/>
  <path class="st14" d="M1331.67,489.05s-.81-4.47,2.03-4.88,15.04,8.13,14.63,13.01c-.41,4.88-4.06,4.47-6.5,2.85s-9.76-9.76-10.16-10.97Z"/>
  <path class="st9" d="M1363.16,245.59s-.39-1.75-.61-6.51c-.28-6.09,2.23-11.01-2.12-16.1-15.01-17.55-28.08-17.01-37.43-15.79s13.13,33.11,20.86,38.4,19.89,7.47,19.89,6.25-.58-6.24-.58-6.24Z"/>
  <path class="st19" d="M1362.46,238.67l1.63,1.63s1.47-13.49-1.38-15.92-3.18-.81-1.96,0,1.31,6.58,1.31,9.42.41,4.88.41,4.88Z"/>
  <path class="st17" d="M1358.6,223.14l-6.02,7.72,2.62,8.11s4.58,2.62,5.23,2.36,1.31-1.83,2.09-3.93-.13-12.43-.79-13.87-3.14-.39-3.14-.39Z"/>
  <path class="st13" d="M1355.93,226.69s0,9.82,2.09,10.08,4.71.26,5.1-2.09-.26-10.6-1.31-11.12-5.89,3.14-5.89,3.14Z"/>
  <path class="st9" d="M1248.99,236.92s-3.81-17.76,17.25-19.03c21.06-1.27,36.79,2.28,36.53,23.09s-9.13,25.62-31.97,26.13c-14.97.33-23.09-24.86-21.82-30.19Z"/>
  <path class="st17" d="M1261.68,238.95c1.01-.25,18.77-1.27,19.53-1.27s2.79,3.3,2.79,3.3c0,0,0,5.58-1.78,7.61s-11.67,2.79-11.67,2.79l-7.61-5.33-1.27-7.1Z"/>
  <path class="st13" d="M1271.23,240.74c0,1.01.76,5.84,3.55,6.34s3.81,2.03,8.63-1.27c4.82-3.3-.51-8.88-.51-8.88l-11.67,3.81Z"/>
  <path class="st19" d="M1260.92,240.47c1.52.25,13.7,2.28,20.04,1.52,6.34-.76,6.09-1.78,8.63-1.78s4.57-.51,3.81-2.03-3.81-.76-5.84-2.28-1.27-3.3-9.13-4.31-15.98,1.27-18.27,2.79-5.07,4.06-3.3,4.31,4.06,1.78,4.06,1.78Z"/>
  <path class="st19" d="M1282.99,239.96c0,1.01-.51,6.34-1.27,7.36s-5.84,2.28-8.88,2.54-8.37-2.79-8.63-4.31-2.03-5.84-2.54-6.6-4.82-.25-4.82-.25c0,0,.76,6.34,3.81,11.67,3.04,5.33,16.24,8.37,23.34,3.3s10.4-15.73,9.39-15.48-10.4,1.78-10.4,1.78Z"/>
  <path class="st19" d="M1204.59,433.28s18.39,36.52,21.06,37.8c3.74,1.79,7.56,3.54,3.94,4.51-2.52.68-21.44,4.37-26.52,1.07s-7.1-3.3-2.03-6.85,7.61-13.95,6.34-18.77-5.07-17.76-2.79-17.76Z"/>
  <path class="st19" d="M1110.03,390.91c.76-.27,38.56,80.93,54.8,83.47,0,0,5.84-2.79,4.31-.25s-9.64,3.55-12.94,2.54-53.28-83.21-46.17-85.75Z"/>
  <path class="st19" d="M1354.43,222.85c.07-.21,7.15-2.81,9.37,1.52,2,3.92,4.37,6.16,1.52,6.97s-8.74-2.13-9.15,1.52-2.25,5.81,1.82,6.21,5.28-4.88,6.5-.81c1.22,4.06-2.03,10.57-7.72,4.88s-11.28-15.42-2.34-20.29Z"/>
  <path class="st19" d="M1354.43,231.56s10.25,1.31,10.9-.22-3.71-2.4-6.76-2.61-4.14,2.83-4.14,2.83Z"/>
  <path class="st18" d="M767.71,626.91s15.67-35.91,46.69-39.83,39.4,4.36,38.7,3.58c-.88-.97-19.06-29.16-35.31-31.66s-46.25-2.75-56,9-11.5,30.75-11.5,34.25-2.75,18.75-3.25,21.5-7.03,28.53,23.49,57.01c0,0,.73-17.45.23-20.64-.36-2.34-5.86-29.8-3.04-33.21Z"/>
  <path class="st18" d="M769.78,652.41s-1.34-29.87,9.4-44.3-21.15-10.4-21.15-10.4c0,0,9.4,54.71,11.75,54.71Z"/>
  <g>
    <path class="st19" d="M1768.24,824.52s24.5,24.2,32.27,32.57c7.77,8.37,46.61,51.69,55.87,91.73,0,0,16.43,32.87,16.43,64.54s-3.88,61.25-14.94,65.14c-11.06,3.88-265.02,4.78-265.02,4.78,0,0-17.93-54.08-17.03-80.97s2.39-31.37,2.39-44.22,9.26-54.98,38.24-86.35c28.98-31.37,53.78-62.74,60.95-63.64s76.79.6,79.18,2.99,11.65,13.45,11.65,13.45Z"/>
    <path class="st9" d="M1657.69,788.06s-42.43-46.61-40.93-78.28c1.49-31.67-.3-52.59,66.93-60.95,67.23-8.37,97.4,2.39,109.95,10.76,12.55,8.37,36.75,19.72,16.13,78.58,0,0-10.46,25.99-23.31,38.84-12.85,12.85-13.15,16.13-15.24,18.52-2.09,2.39-2.39,11.35-2.69,20.62-.3,9.26.3,23.31,3.59,26.59,3.29,3.29,24.2,18.23,27.19,31.67,2.99,13.45,5.08,13.45,7.77,17.63s-4.78,11.65-14.94,12.25-27.19,4.18-45.42-.6c0,0-19.42,22.11-32.57,22.71s-28.38-21.21-28.38-21.21c0,0-55.57,0-60.06-11.95-4.48-11.95.9-7.17,2.69-14.04s-.6-16.73,7.77-24.8c8.37-8.07,17.03-15.24,18.82-18.82s8.96-11.65,8.96-16.73-3.59-29.58-6.27-30.77Z"/>
    <path class="st15" d="M1697.43,690.36s-4.78-5.98-13.74,3.29c-8.96,9.26-9.86,14.34-8.07,26.89,1.79,12.55,4.78,14.64,8.66,13.45s8.96-15.84,14.34-21.81c5.38-5.98,2.69-20.32-1.2-21.81Z"/>
    <path class="st15" d="M1723.72,688.87s5.68-4.78,15.54,4.18c9.86,8.96,11.35,27.49,9.86,34.96-1.49,7.47-9.26,9.26-13.45,4.48-4.18-4.78-8.07-14.94-11.65-20.62-3.59-5.68-3.29-21.81-.3-23.01Z"/>
    <path class="st11" d="M1681.59,724.12c.86-.38,2.99-9.56,8.96-14.04s8.07-6.87,5.68-9.86c-2.39-2.99-10.76-1.2-11.95,4.18s-8.07,22.11-2.69,19.72Z"/>
    <path class="st11" d="M1726.11,700.52s1.79-3.88,5.98-.9,12.85,23.01,11.95,26.59-1.49,3.29-3.59-.6c-2.09-3.88-10.46-16.13-11.65-18.52s-5.68-4.48-2.69-6.57Z"/>
    <path class="st15" d="M1664.98,878.37s22.8-23.31,18.24-29.89-20.27-10.64-27.87-9.63-22.29,41.55-24.32,44.59c-2.03,3.04-15.2,0-3.04,8.61s36.99-13.68,36.99-13.68Z"/>
    <path class="st15" d="M1750.1,842.91c2.15-.72,15.2-5.07,20.27-.51s13.68,23.31,19.25,30.91c5.57,7.6,3.55,9.63,8.61,12.16s11.65,5.07,6.08,7.6-28.88,4.56-44.08-11.15c-15.2-15.71-13.17-38-10.13-39.01Z"/>
    <path class="st15" d="M1672.07,745.63s0,8.11,14.19,4.05c14.19-4.05,17.23-10.13,25.84-7.09,8.61,3.04,28.88,8.11,31.41,8.11s7.6-5.57,7.6-5.57c0,0,4.05,5.57-3.04,8.61-7.09,3.04-26.35-6.08-35.97-5.07-9.63,1.01-23.31,10.13-31.41,7.6-8.11-2.53-8.61-10.64-8.61-10.64Z"/>
  </g>
  <g>
    <path class="st3" d="M1842.4,314.8s-7.38,22.14-.92,23.06,19.37-23.98,19.37-23.98l-18.45.92Z"/>
    <g>
      <path class="st3" d="M1901.4,546.75s8.6,26.46,14.55,25.79,9.26-15.87,6.61-21.17c-2.65-5.29-23.81-15.21-21.17-4.63Z"/>
      <path class="st16" d="M1958.76,358.47s-14.15-22.76-24.73-31.41c-10.58-8.66-78.17,1.2-91.64-12.26-13.46-13.46-9.62-31.74-1.92-48.09,7.69-16.35,35.59-53.86,51.94-53.86s18.27,7.69,27.89,0c9.62-7.69,34.62-7.69,48.09-1.92,11.35,4.86,87.03,31.49,125.49,39.73,7.16,1.53,13.03,2.43,16.96,2.43,25.01,0,35.56-12.7,48.06-3.09,12.5,9.62,25.88,21.52,37.42,25.37,11.54,3.85,22.12-.96,37.51-1.92,15.39-.96,31.74,4.81,34.62,4.81h106.76c10.58,0,104.83-47.13,180.81-63.48,75.98-16.35,207.74-73.09,226.98-73.09v690.55s-187.55-22.12-226.02-35.59-71.17-25.97-71.17-25.97c0,0-39.43,48.09-59.63,56.74-20.2,8.66-29.81,53.86-73.09,51.94-43.28-1.92-109.64-23.08-93.29-49.05,16.35-25.97,29.81-64.44,29.81-74.06s4.81-14.43-6.73-32.7c-11.54-18.27-17.31-37.51-36.55-50.01-19.24-12.5-24.04-21.16-30.78-27.89s-125.03-26.93-136.57-41.36c0,0-78.87,15.39-87.52,7.69,0,0-70.81,21.17-90.86-18.93,0,0,2.37-.3,19.68-30.12,17.31-29.81,38.47-91.37,38.47-110.6s-1.92-61.55-.96-74.06c.96-12.5.95-19.8.95-19.8Z"/>
      <path class="st19" d="M1995.98,311.95s-36.38,9.92-71.43,14.55c-35.05,4.63-84,1.98-94.58-25.79-10.58-27.78,45.64-85.32,58.87-88.63,13.23-3.31,29.1-.66,29.1-.66,0,0,16.54-8.6,31.09-8.6s35.72,13.89,35.72,13.89c0,0,97.23,34.39,105.83,34.39s107.15,18.08,99.21,22.71c-7.94,4.63-89.95,13.01-89.95,22.27s-46.3,72.09-74.08,72.09-30.42-46.96-29.76-56.22Z"/>
      <path class="st7" d="M2137.3,234.13c15.4-.96,32.19,4.85,43.65,21.17,11.46,16.31,8.82,18.52,8.82,18.52,0,0-118.71-20.72-82.46-20.72,2.2,0,15.87-18.08,29.98-18.96Z"/>
      <path class="st19" d="M2096.73,336.86s-11.02-19.4,10.14-21.17c21.17-1.76,20.28,4.41,31.31,3.97s12.35,1.76,12.35,11.91-10.14,34.39-26.46,35.72c-16.31,1.32-27.34-30.42-27.34-30.42Z"/>
      <path class="st11" d="M2104.67,328.05c4.41-3.97,12.35-7.94,14.55,0,2.2,7.94,5.29,23.81,2.65,25.57-2.65,1.76-10.58-11.02-13.67-15.43-3.09-4.41-3.53-10.14-3.53-10.14Z"/>
      <path class="st7" d="M1998.19,327.06s-8.17-55.9,20.05-60.75c28.22-4.85,40.13,0,48.94,16.76,8.82,16.76,1.76,59.53-29.1,66.58-30.87,7.06-39.89-22.59-39.89-22.59Z"/>
      <path class="st20" d="M2011.63,290.57s-3.53,11.46,1.76,16.76c5.29,5.29,1.32,9.26,10.14,6.17,8.82-3.09,13.67-14.11,9.7-20.72s-11.91-7.5-14.55-7.5-7.06,5.29-7.06,5.29Z"/>
      <path class="st12" d="M2018.25,293.65c-.19,1.75-3.97,8.38.44,11.91,4.41,3.53,5.29,4.85,9.7-1.76,4.41-6.61,3.97-12.35,3.53-13.67s-12.79-4.41-13.67,3.53Z"/>
      <path class="st16" d="M2009.43,287.92s17.64,5.29,22.49,11.02,7.94,10.58,7.94,2.2-3.97-16.76-11.46-18.96-19.4,4.41-18.96,5.73Z"/>
      <path class="st16" d="M2036.33,297.62s-6.61,12.35-10.14,13.23-9.26-.44-11.46-6.17c-2.2-5.73-.44-14.11-1.32-16.76s-1.32-.88-3.97,0-4.41,20.72.88,24.25c5.29,3.53,8.38,7.5,17.64,4.85s12.35-13.67,11.91-15.87c-.44-2.2-3.53-3.53-3.53-3.53Z"/>
      <path class="st7" d="M1933.15,215.61s17.2-3.53,24.69-1.76c7.5,1.76,11.46,3.09,7.5,3.97s-20.72,2.2-24.25,2.2-7.94-4.41-7.94-4.41Z"/>
      <path class="st7" d="M1919.04,226.63s.88.44,7.06,5.29c6.17,4.85,11.91.44,11.02,8.38s-10.58,7.06-14.99,0c-4.41-7.06-6.61-10.58-6.17-12.35.44-1.76,3.09-1.32,3.09-1.32Z"/>
      <path class="st11" d="M1922.56,235.01s4.41,6.17,6.61,5.73,1.76-3.09,1.76-3.09l-10.14-6.17,1.76,3.53Z"/>
      <path class="st19" d="M1895.67,244.71s11.46,18.96,36.16,19.4c24.69.44,41.89-8.38,41.01-15.43-.88-7.06-3.09-9.7-3.09-9.7,0,0-1.32-.88-3.09,5.29-1.76,6.17-6.17,12.79-23.37,13.67s-33.07-3.97-36.6-9.26c-3.53-5.29-11.02-3.97-11.02-3.97Z"/>
      <path class="st19" d="M1959.77,333.89c15,18,18.93,20.84,22.46,33.19,3.53,12.35,1.32,130.96-3.97,141.54-5.29,10.58-16.76,21.17-10.14,20.28s13.67-11.46,18.08-33.95c4.41-22.49,11.02-119.94.44-137.57-10.58-17.64-33.48-31.42-26.87-23.48Z"/>
      <path class="st11" d="M1941.51,215.28s14.21-1.58,14.73,0c.53,1.58-14.73,2.63-14.73,2.63v-2.63Z"/>
      <path class="st19" d="M1915.69,321.99s27.78,11.91,35.05,26.46c7.28,14.55,7.94,92.6,5.29,107.15-2.65,14.55-25.79,87.97-36.38,96.57-10.58,8.6-28.02,32.28-21.83,41.67,6.45,9.78,13.46,12.87,10.61,4.62-2.81-8.13,3.95-25.79,13.87-37.03,9.92-11.24,31.09-60.85,36.38-83.34,5.29-22.49,13.89-98.55,7.28-119.72-6.61-21.17-32.41-46.3-32.41-46.3l-17.86,9.92Z"/>
      <path class="st19" d="M2150.76,331s-26.46,46.96-25.13,64.16c1.32,17.2-23.15,59.53-21.17,60.85,1.98,1.32,23.15-16.54,27.12-35.05s-1.98-23.15,4.63-40.35c6.61-17.2,14.55-49.61,14.55-49.61Z"/>
      <path class="st19" d="M2194.4,388.01c-2.43,1.04-21.92,126.98-5.95,192.47,19.11,78.41,66.69,99.34,66.69,99.34l-3.86-16s-50.93-67.46-55.56-96.57,3.31-181.23-1.32-179.24Z"/>
      <path class="st19" d="M2376.66,278.88c2.28.71-52.62,42.33-67.17,81.36-14.55,39.02-52.91,115.75-52.91,115.75,0,0-6.61-21.83-5.29-28.44,1.32-6.61,76.48-183.92,125.38-168.66Z"/>
    </g>
  </g>
  <g>
    <path class="st14" d="M1859.74,748.85s-1.24,11.54,2.06,11.54,17.72-10.3,16.9-11.95c-.82-1.65-18.96.41-18.96.41Z"/>
    <path class="st14" d="M1890.24,755.86c0,1.24-6.18,18.55,0,19.78,6.18,1.24,10.72-14.01,10.72-14.01l-10.72-5.77Z"/>
    <path class="st5" d="M1954.13,850.25c0-1.65-1.24-47.81-2.06-54.41-.82-6.59-3.71-12.78-3.71-12.78,0,0,20.61,22.26,24.32,30.09,3.71,7.83,5.77,37.92,5.77,37.92,0,0,0,7.01-5.36,7.01s-18.96-7.83-18.96-7.83Z"/>
    <path class="st19" d="M1973.5,834.58c-1.75-8.74-7.83-18.14-12.37-28.44s-14.43-16.49-19.37-16.49-13.19-1.65-29.26-20.61c0,0-28.03-9.48-33.8-16.07-5.77-6.59-8.24,2.47-16.9-1.65-8.66-4.12-56.47-35.86-37.1-70.48,19.37-34.62,98.51-61.83,132.31-53.17,33.8,8.66,63.89,6.18,78.31,14.43,14.43,8.24,31.74,28.44,37.1,47.4,0,0,18.55,3.3,24.73,16.49,6.18,13.19,13.6,51.11,2.89,62.65,0,0,4.12,13.19,6.59,16.49s24.73,24.73,25.97,26.79c1.24,2.06,39.57,49.87,31.33,53.17-8.24,3.3-191.66-1.24-190.84-7.01.82-5.77.82-21.43.41-23.49Z"/>
    <path class="st9" d="M1965.26,667.65c-1.65-7.83-8.66-24.32-3.71-28.85s13.6-7.83,19.78-3.71c6.18,4.12,11.13,17.72,7.01,23.91s-13.6,19.37-16.9,16.49-6.18-7.83-6.18-7.83Z"/>
    <path class="st9" d="M2039.04,649.51s10.3,9.07,11.54,13.6c1.24,4.53,4.12,5.77,4.95,3.3.82-2.47-13.6-20.61-16.49-16.9Z"/>
    <path class="st11" d="M1971.85,665.59c-.55-1.11-1.65-15.25-2.89-20.2-1.24-4.95,0-8.66,4.12-8.24,4.12.41,13.19.82,10.72,11.13s-10.3,20.61-11.95,17.31Z"/>
    <path class="st9" d="M2132.19,816.86c-.47-1.41,21.85-14.84,41.63-13.6,19.78,1.24,30.91,5.77,38.33,23.49,7.42,17.72,2.06,30.5,2.06,30.5,0,0-47.4,7.42-60.59,3.71-13.19-3.71-15.66-7.01-17.31-20.2s-3.71-22.67-4.12-23.91Z"/>
    <path class="st9" d="M2013.07,804.49s18.55-23.49,39.57-16.07c21.02,7.42,39.98,31.74,40.81,46.58s-8.24,28.85-29.26,29.26c-21.02.41-41.63,7.01-49.87-19.78-8.24-26.79-1.24-39.98-1.24-39.98Z"/>
    <path class="st8" d="M2020.9,806.55l-2.47,22.26,12.78,2.47s4.95-10.3,4.12-13.6c-.82-3.3-9.07-11.13-9.07-11.13h-5.36Z"/>
    <path class="st6" d="M2031.21,819.33s-5.77,1.24-7.83-2.06-2.06-6.59.82-6.59,8.24,5.77,8.66,9.07-1.65-.41-1.65-.41Z"/>
    <path class="st16" d="M2017.19,810.68c2.21-2.45,6.18,14.43,10.3,14.43s6.59-3.3,7.42-.82c.82,2.47,3.71,11.54-3.71,12.37s-11.54.41-14.01-4.12-3.71-17.72,0-21.85Z"/>
    <path class="st9" d="M1953.3,718.76c0,2.47,6.18,11.95,11.54,22.26s6.18,17.72,6.18,13.6,4.12-14.43,2.89-17.72c-1.24-3.3-20.61-18.14-20.61-18.14Z"/>
    <path class="st16" d="M2018.43,813.97s1.24-5.77,4.53-6.59c3.3-.82,10.72,15.25,9.48,18.96-1.24,3.71,1.65,3.71,2.89,3.3s7.83-19.37-.82-24.32c-8.66-4.95-17.31,5.36-17.31,5.36l1.24,3.3Z"/>
    <path class="st9" d="M2092.62,744.73s6.18,21.85,7.42,23.91c1.24,2.06,6.78-15.57,5.95-25.46s-2.24-14.11-2.24-14.11c0,0-5.36,13.19-11.13,15.66Z"/>
    <path class="st9" d="M2064.17,699.6s6.81-6.81,11.2-5.84,8.76,1.46,1.95,2.43-4.87.97-7.3,4.87c-2.43,3.89-5.84-1.46-5.84-1.46Z"/>
    <path class="st9" d="M1940.31,667.02c.77.94,22.69,33.22,45.37,19.85,22.69-13.37,13.37-19.85,13.37-19.85,0,0-3.24,9.72-10.53,12.15-7.29,2.43-25.12,3.65-32.41-2.03-7.29-5.67-15.8-11.34-14.18-16.2s-5.27,1.62-1.62,6.08Z"/>
    <path class="st9" d="M2038.34,668.23s14.18,6.48,17.82,4.86c3.65-1.62,2.84-4.86,3.65-1.62s-11.34,10.53-21.47-3.24Z"/>
  </g>
</svg>