<?xml version="1.0" encoding="UTF-8"?>
<svg id="Vrstva_1" xmlns="http://www.w3.org/2000/svg" version="1.1" viewBox="0 0 1184.68 841.89">
  <!-- Generator: Adobe Illustrator 29.7.1, SVG Export Plug-In . SVG Version: 2.1.1 Build 8)  -->
  <defs>
    <style>
      .st0 {
        fill: #53392e;
      }

      .st1 {
        fill: #5f5e5e;
      }

      .st2 {
        fill: #7e8c85;
      }

      .st3 {
        fill: #d6d6d6;
      }

      .st4 {
        fill: #282320;
      }

      .st5 {
        fill: #555454;
      }

      .st6 {
        fill: #0c1613;
      }

      .st7 {
        fill: #26221f;
      }

      .st8 {
        fill: #d8d8d8;
      }

      .st9 {
        fill: #4d4d4c;
      }

      .st10 {
        fill: #604337;
      }

      .st11 {
        fill: #060c0a;
      }

      .st12 {
        fill: #14100c;
      }

      .st13 {
        fill: #1e1a16;
      }

      .st14 {
        fill: #473f3b;
      }

      .st15, .st16 {
        fill: #214634;
      }

      .st15, .st17 {
        opacity: .2;
      }

      .st18 {
        fill: #667b71;
      }

      .st19 {
        fill: #244b38;
      }

      .st20 {
        fill: #040706;
      }

      .st21 {
        opacity: .67;
      }

      .st21, .st17 {
        fill: #62766d;
      }

      .st22 {
        fill: #5c524e;
      }

      .st23 {
        fill: #554c48;
      }

      .st24 {
        fill: #dcdcdc;
      }

      .st25 {
        fill: #35302d;
      }

      .st26 {
        fill: #054220;
      }
    </style>
  </defs>
  <rect class="st18" x="-13.5" y="-6.99" width="2415.05" height="390.47"/>
  <path class="st2" d="M909.88,24.97s-49.17-.97-34.69,27.03,47.05,28,47.05,28c0,0-17.54,43.76,25.95,54.88,43.49,11.12,75.49-17.09,75.49-17.09,0,0,47.94,20.75,56.97-6.52l9.03-27.27s72.11,2.44,109.05-2.78,84.95-29.22,84.95-29.22l-10-42.04-363.79,15.01Z"/>
  <path class="st2" d="M191.06,116.75S298.67,6.69,365.74,28.69c67.06,22,74.09,63.79,74.09,63.79,0,0,29.31-24.21,48.14,0,18.83,24.21,3.23,33.67,3.23,33.67,0,0,87.57,35.51,96.58,68.03s-427.28,4.17-427.28,4.17c0,0-63.32-90.99,30.56-81.59Z"/>
  <path class="st16" d="M256.79,188.62s-34.32-7.56-49.23-42.87-27.36-68.63-27.36-68.63c0,0,47.67,70.46,53.47,74.34s-24.67-50.64-28.99-74.34-3.7-52.15-3.7-52.15l48.21,109.9s-19.02-93.31-12.59-103.98,36.47,35.55,36.47,35.55l4.75,85s64.76-61.3,74.24-60.12-28.44,60.12-28.44,60.12c0,0,22.01-28.12,29.96-24.56s-6.26,24.56-6.26,24.56h16.11l-49.3,43.07s44.18-8.44,49.3,2.45-46.93,13.62-46.93,13.62l-59.71-21.98Z"/>
  <path class="st26" d="M1079.04,207.48c-2.68-2.68-5.94-6.51-4.41-6.7s4.41,0,4.41,0c0,0-1.15-5.55,0-6.51s3.26,0,3.26,0c0,0-2.87-8.43-2.11-12.07.77-3.64,5.75,10.34,5.75,10.34v-10.95l1.53,1.75s.77-6.7,3.64-6.9,2.3,10.34,2.3,10.34c0,0,2.11-3.64,2.3-1.92.19,1.72,0,5.36,0,5.36,0,0,7.85-8.43,8.04-7.09.19,1.34-.77,4.79-.77,4.79l10.53,6.51s-1.92.57-3.64.38,2.68,1.34,3.64,1.15-2.87-5.81-6.32-8.81-9.19-9.58-7.28-9.77,6.51,3.64,6.51,3.64c0,0,.57-2.68,2.11-2.68s5.13,2.49,5.13,2.49c0,0,1.96-8.04,6.17-8.04s3.64,4.6,3.64,4.6c0,0,2.68,2.11,3.26,2.68s0,4.21,0,4.21c0,0-1.34,4.6,1.53,4.02s-1.72,20.69-2.87,22.22-42.9,3.64-42.9,3.64l-3.45-6.7Z"/>
  <path class="st9" d="M-13.5,106.14c8.37-1.2,122.76-9.58,133.53,15.57,10.78,25.14,41.91,44.8,51.48,51.73s33.52,15.44,53.88,17.78,49.09,5.94,49.09,5.94l-32.33,45.2L-29.63,216.46-13.5,106.14Z"/>
  <path class="st1" d="M-27.24,168.22s71.84,3.07,122.13,5.22c50.29,2.15,83.81,21.57,98.18,27.42,14.37,5.85,141.94,6.76,170.35,6.91s550.24,22.18,581.47,16.55,74.65-8.63,101.43-13.72,59.11-5.49,68.69-5.29-10.78-25.21,0-42.44c10.78-17.23,106.7-20.82,106.7-20.82l7.05,175.26L-35.62,337.02l8.38-168.8Z"/>
  <path class="st5" d="M-13.5,267.07c5.05.93,192.27,3.01,202.66,9.97s221.66,12.74,221.66,12.74c0,0,818.98-13.34,872.86-16.56s43.88-8.07,109.88-9.65c66-1.57,238-1.92,288-1.75,50,.17,38-17.53,86-30.68s232-26.18,248-11.67c16,14.52,402,10.36,402,10.36v117.09L-29.63,352.62l16.13-85.55Z"/>
  <path class="st16" d="M1198.84,292.28c-8.79,1.46-21.55,3.58-35.81,5.94-26.7,4.42-61.02.04-92.48,0-31.46-.03-45.77.03-68.65,0s-107.74,9.84-116.32,7.16c-8.58-2.67-39.09-1.78-52.44-1.78s-101.07.89-118.23.89-81.04-5.35-104.88-6.24c-23.84-.89-103.93,18.72-109.65,19.61-5.72.89-95.35-.89-101.07,0-5.72.89-16.21,0-40.04,0-21.32,0-43.39,4.28-47.81,5.18v.78s-30.97,3-108.97-1.17-215.99-19.9-215.99-19.9v645.06l324.96,10.66v-1.37h899.71V292.28h-12.32Z"/>
  <g>
    <path class="st25" d="M180.2,599.19s-7.32.17-8.89,1.96-.72,9.99,1.43,10.37,7.46-12.33,7.46-12.33Z"/>
    <path class="st25" d="M241.44,591.73s5.95-3.16,9.31,0c3.36,3.16,0,9.42,0,9.42l-11.41-8.27,2.1-1.14Z"/>
    <path class="st23" d="M166.09,656.87s-7.45,37.07-7.45,42.01-3.8,17.49-4.94,29.28,3.42,23.2,3.42,23.2c0,0-4.55,25.73-3.61,27.76s-.13,3.8-.13,3.8h122s-1.52-14.45-3.04-19.01c-1.52-4.56,4.18-11.79,3.04-13.69s11.41-40.31,11.79-44.87-.38-26.62-1.9-30.8c-1.52-4.18-14.45-26.62-14.45-26.62l-104.73,8.94Z"/>
    <path class="st14" d="M264.73,619.41s8.33,15.02,8.33,19.96-18.89,46.48-33.73,46.86c-14.83.38-58.69-5.16-68.34-15.63-9.64-10.47-11.22-26.48-9.32-35.23s10.27-22.06,10.27-22.06c0,0,7.23-18.25,20.53-24.72,13.31-6.46,27.38-8.75,43.73,0,16.35,8.75,28.52,24.72,28.52,30.8Z"/>
    <path class="st14" d="M177.57,702.97s11.64,17.3,19.24,14.92,21.26-21.25,17.23-28.49c-4.03-7.24-39.83-11.71-42.29-9.92s-11.41,12.74-9.4,19.12,10.29,14.67,15.22,4.37Z"/>
    <path class="st25" d="M210.02,688.43s-1.79,1.57-2.01,3.58,1.01,4.25,1.01,4.25c0,0-4.59-.24-7.27,2.34s-1.12,7.51-1.12,7.51c0,0-4.25-.9-5.59,2.46s-.9,5.78-.9,5.78c0,0-2.71.34-1.13,3.77s9.41-.23,9.41-.23c0,0,6.03-2.39,6.49-7.09,0,0,6.62-7.53,5.87-10.74,0,0,6.88-11.64-4.76-11.64Z"/>
    <path class="st25" d="M174.44,699.84s-5.37-5.37-4.59-8.28,4.59-8.95,4.59-8.95c0,0-1.12-.22-3.36,1.34s-4.7,7.38-2.91,10.29,6.27,5.59,6.27,5.59Z"/>
    <path class="st14" d="M271.92,646.59c.44-.09,10.15-.59,13.06,2.99s4.92,11.41,5.82,15.89,3.13,16.11,2.91,18.35-28.64,7.61-31.78,1.34-.67-18.35,0-21.48,5.88-16.27,9.99-17.09Z"/>
    <path class="st25" d="M282.75,679.08s-2.43-2.74-5.69-.95-4.38,4.46-4.38,4.46c0,0-7.17-3.2-9.62-1.11s-4,8.27-2.67,9.73,10.94,2.58,10.94,2.58c0,0,8.38,3.09,13.44-.9,0,0,10.74-3.27,10.96-6.67s-10.29-10.23-12.98-7.15Z"/>
    <path class="st25" d="M256.79,656.87s-11.19,14.55-27.08,16.78-44.67-4.42-48.34-9.4-1.34,3.13-1.34,3.13c0,0,29.31,15.89,52.36,8.28s24.39-18.8,24.39-18.8Z"/>
    <path class="st25" d="M212.48,593.77s3.82,1.57,7.84,0c4.02-1.57,9.23-3.71,16.77-3.44,7.54.26,12.08,9.93,12.08,13.06s-6.27,4.92-11.64,6.27-54.82,2.91-55.5,2.91-5.85-2.76-5.42-5.84-.05-8.13,7.27-11.77c7.32-3.64,22.76-3.64,28.58-1.18Z"/>
    <path class="st14" d="M199.05,601.15s-4.57-7.25-9.78-7.99c-5.21-.74-10.56,8.37-9.97,13.36s20.2,2.45,19.75-5.38Z"/>
    <path class="st14" d="M227.27,596.35s3.11-5.36,8.48-7.04c5.37-1.68,12.36,4.85,12.18,8.81-.35,7.83-17.07,8.08-20.67,3.83,0,0-.85-4.34,0-5.59Z"/>
    <path class="st25" d="M226.8,601.56c-.67.61-19.64,1-23,1.84s-3.85,2.13-7.21,1.96c-3.36-.18-8.17,2.96-8.17,2.96,0,0-13.53,23.5-10.18,34.68s11.42,19.47,26.41,22.82c14.99,3.36,51.69-9.62,53.48-24.84s-8.73-32.54-13.43-35.63c-4.7-3.08-7.16-4.31-10.29-3.92s-7.61.13-7.61.13Z"/>
    <path class="st12" d="M249.18,633.76c-.26.07-3.55,3.03-11.82.8-8.28-2.24-30.81-3.01-35.29,1.3s-12.19,6.91-15.55,6.69-8.86-5.67-8.44-7.89-.02,3.64-.02,3.64c0,0,2.64,6.49,8.91,6.49s12.98-7.02,24.39-8.65c11.41-1.64,25.29,1.34,29.31,1.53,4.03.19,17.93-4.11,16.66-8.74,0,0-5.78,4.19-8.15,4.83Z"/>
    <path class="st7" d="M227.91,613.31c.2-.98,2.44-6.23,4.9-5.29s-1.1,6.31-2.45,7.21-2.45-1.92-2.45-1.92Z"/>
    <path class="st7" d="M204.65,615.09c.41-1-4.48-5.31-6.94-3.75s6.05,5.94,6.94,3.75Z"/>
    <path class="st3" d="M187.35,602s-2.37-3.16-4.08-1.71-2.9,5.4,0,5.79,4.08-4.08,4.08-4.08Z"/>
    <path class="st7" d="M184.05,600.39s2.32.35,1.78,1.97c1.16-3.47-2.1,5.13-3.44-.11-.7-2.73,1.66-1.86,1.66-1.86Z"/>
    <path class="st25" d="M186.91,604.67s-1.98-3.05-3.41-3.31-2.19,1.64-2.19,1.64c0,0-.56-3.77,1.55-4.56s3.16-.36,4.48.74-.43,5.48-.43,5.48Z"/>
    <path class="st25" d="M186.45,600.35s1.97-.57,1.34,1.01-.75,5.77-3.36,5.9-5.3-1.32-4.23-3.55,1.36-3.81,1.36-3.81l.43,2.14s-.74,3.49,2.61,2.57c1.83-.5,1.85-4.27,1.85-4.27Z"/>
    <path class="st3" d="M242.65,593.84s-2.29-1.32-3.32,1.19-.11,5.04,2.53,4.17,2.63-5.07.79-5.35Z"/>
    <path class="st7" d="M242.59,595.24s.39,1.76-1.16,1.89-1.66-2.88-1.66-2.88l2.87-.41-.06,1.4Z"/>
    <path class="st25" d="M244.21,596.38c-.03.28-3.45-2.28-4.87-1.35s.16,1.58-1.42.92c-1-.42-.48-1.36.23-2.11.42-.43.9-.8,1.19-.96.8-.43,5.33-.81,4.87,3.5Z"/>
    <path class="st25" d="M239.33,597.14c2.13,1.31,3.87,1.14,4.16-.48.27-1.52.13-1.64.62-1.86,0,0,.48,6.6-2.14,6.58s-5.52-1.86-5.39-4.23,2.74-2.98,2.74-2.98v2.98Z"/>
  </g>
  <path class="st22" d="M1135.24,696.27s61.08,141.95,0,185.45c-61.08,43.5-309.71,79.12-315.99-173.09s315.99-12.35,315.99-12.35Z"/>
  <path class="st22" d="M628.25,793.45s2.07,4.78,5.99,43.24-5.99,55.46-5.99,55.46h-59.1s-9.91-40.7-8.95-49.35c0,0-23.5,11.78-31.87,11.78s-23.65-3.78-23.65-3.78c0,0-1.85,44.35-7.19,45.35s-74.64,11.48-74.64,1.48-27.6-65.83-15.61-72.37,221.02-31.8,221.02-31.8Z"/>
  <path class="st22" d="M737.48,457.02s-6.75,40.41-3.68,63.74,69.98,140.45,71.82,142.04,17.19,61.75,21.48,69.73c4.3,7.98,44.81,16.26,44.81,16.26l263.34-52.52s-28.24-365.8-132.59-370.71c-104.35-4.91-265.18,131.46-265.18,131.46Z"/>
  <path class="st13" d="M755.65,201.86s5-26.74,15.5-26.73,56.07,18.2,56.07,18.2l-7.57,11.98-64-3.45Z"/>
  <path class="st14" d="M737.48,414.57s-8.59,34.99,6.75,64.45c15.35,29.46,54.02,46.61,90.85,37.12,36.83-9.49,57.7-32.82,69.98-37.73,12.28-4.91,90.85-65.1,106.19-81.97,15.35-16.86-16.57-128.56-33.15-132.87s-92.69,145.44-108.04,154.97c-15.35,9.53-93.92,26.72-98.21,26.72s-34.37-30.69-34.37-30.69Z"/>
  <path class="st25" d="M796.01,617.75c4.84,4.4,11.88,9.25,19.8,8.81s24.65.43,32.57,8.36,70.86,42.69,99.9,23.33c0,0,5.72,19.36-40.49,12.76-46.21-6.6-63.37-26.85-68.22-32.13s-21.57-3.96-31.25-6.6c-9.68-2.64-12.32-14.52-12.32-14.52Z"/>
  <path class="st25" d="M836.94,670.56s24.21,6.16,40.05,10.56c15.84,4.4,28.17,14.08,51.05,11.88s58.53-25.97,56.77-25.09-38.29,18.92-56.77,18.04-70.86-17.65-80.54-18.07c-9.68-.42-10.56,2.66-10.56,2.66Z"/>
  <path class="st14" d="M886.23,700.5c2.2,1.74,24.91,9.67,47.88,9.67s110.55-49.73,118.03-76.58c0,0-72.62,72.62-115.75,69.54s-50.17-2.62-50.17-2.62Z"/>
  <path class="st14" d="M745.84,496.72s-21.12,27.11-23.77,50.09,6.6,66.84,18.48,82.54c0,0,11.44,26.25,22.01,31.54s26.41.88,27.29-7.04,3.08-8.78,3.08-8.78c0,0,10.14-5,9.91-15.72s-6.83-21.72-6.83-21.72c0,0,0-15.84-3.08-22.45s-.44-28.34-2.64-38.37-25.97-29.4-30.37-34.24c-4.4-4.84-7.48-19.36-14.08-15.84Z"/>
  <path class="st25" d="M735.08,602.34c5.04,1.32,11.64,8.5,21.77,3.81,10.12-4.69,13.13-6.58,13.13-6.58,0,0,4.48.71-3.88,6.58-8.36,5.87-18.92,8.68-22.45,5.73s-8.56-9.54-8.56-9.54Z"/>
  <path class="st25" d="M744.08,597.22s-2.6,2.36,9.04,0,12.4-6.02,12.4-6.02c0,0-3.84-1.9-8.68,0-4.84,1.9-11.5,3.44-13.01,3.11s.25,2.91.25,2.91Z"/>
  <path class="st25" d="M768.73,656.48c.88-1.32,6.16-6.16,11.44-6.16h5.28s0-11.88,4.4-14.52c4.4-2.64,12.89-4.27,12.89-4.27,0,0,3.4,3.83,3.4,8.23s-8.41,9.9-8.41,9.9c0,0-1.71,17.26-13.15,18.21s-13.4,0-13.4,0c0,0-8.6,4.94-13-1.9-4.4-6.84,10.56-9.48,10.56-9.48Z"/>
  <path class="st14" d="M814.5,546.81c.82-1.71,26.64,7.4,50.29,0s23.21-11.8,23.65-7.4-40.05,22.45-48.85,21.57c-8.8-.88-29.49-5.02-25.09-14.17Z"/>
  <path class="st25" d="M944.89,224.32c-45.36-16.61-66.84-42.5-95.08-37.85s-62.61,19.39-62.61,19.39l-41.07,157.21-23.61-.58-1.32,8.36s-2.2,4.84,0,18.92c1.08,6.92,4.83,15.64,14.21,22.84,1.08,12.99,5.7,39.59,25.4,47.38,0,0,15.35,4.37,36.22,0,44.32-9.27,85.94-22.71,119.08-55.25,33.15-32.53,57.09-106.19,60.16-115.4,3.07-9.21,13.99-48.41-31.37-65.03Z"/>
  <path class="st4" d="M744.96,378.24c-1.71.9,43.43,16.95,60.29,16.89s33.89-16.54,32.57-16.89-14.08,11.53-27.29,11.09-62.33-12.8-65.58-11.09Z"/>
  <path class="st4" d="M947.41,240.14s-6.6,46.86-6.16,58.64.42,21.02,3.07,17.94,4.41-33.01,6.61-44.89,5.72-31.69,3.52-34.33-7.04,2.64-7.04,2.64Z"/>
  <path class="st4" d="M905.6,246.12c-1.32,3.26-6.6,7.22-4.84,14.7s1.76,31.25-7.48,49.29-20.68,36.83-20.68,36.83c0,0-.96,5.86,2.6,2.34s26.44-42.04,29.09-50.51,7.04-28.24,4.84-35.29-.57-11.02.6-14.98-4.12-2.38-4.12-2.38Z"/>
  <path class="st4" d="M898.12,211.53c.88-1.32,24.65-8.36,33.01-6.16s25.2,11.98,21.82,22.41-25.34,16.32-34.58,14.12c-9.24-2.2-26.2-18.48-27.18-23.33s6.94-7.04,6.94-7.04Z"/>
  <path class="st10" d="M941.23,215.94c-5.26-.88-11.01-4.71-12.3-1.76s7.88,13.2,12.3,13.2,11.26-5.94,6.96-7.15-6.96-4.29-6.96-4.29Z"/>
  <path class="st25" d="M677.21,336.75c.03,1.11,27.49,31.02,53.02,32.71s74.31-37.51,74.31-37.51l-127.33,4.81Z"/>
  <path class="st4" d="M646.91,320.48s6.29,26.95,28.48,29.93,108.73-2.94,104.29-58.41c0,0,7.92-4.04,11.72-14.96s3.44-20.17,3.44-20.17c0,0,56.95-17.38,62.13-25.15s18.06-15.53,15.5-24.78-21.05-28.13-40.65-22.94c-19.6,5.19-19.12,10.21-19.12,10.21,0,0-56.69,6.49-75.55,2.77s-40.68-10.89-52.14-5.46c0,0-18.86-17.08-44.01,5.46s5.92,123.5,5.92,123.5Z"/>
  <path class="st12" d="M668.73,289.78s5.76.37,13.42,5.18,34.66,13.68,44.27,13.31c9.62-.37,47.71-15.53,53.25-16.27l.69,4.2s-16.6,2.46-30.28,8.75c-13.68,6.29-17.75,9.25-37.35,7.4s-48.45-15.9-48.45-15.9l4.44-6.66Z"/>
  <path class="st4" d="M800.39,289.78s-7.4,35.5-12.2,38.83,12.2-7.53,15.16-29.84-2.96-9-2.96-9Z"/>
  <path class="st12" d="M780.37,296.2s14.45-8.26,15.38-16.4-.91-22.93-.91-22.93c0,0-2.21,28.38-15.16,35.13s.69,4.2.69,4.2Z"/>
  <path class="st12" d="M684.88,197.61s-1.13-5.88,10.4-5.88,21.03,2.71,21.48,4.3-12.66,1.36-17.41,1.58-14.5,1.09-14.47,0Z"/>
  <path class="st10" d="M709.07,194.94s-21.25,1.4-20.12,0,18.98-2.38,20.12,0Z"/>
  <path class="st12" d="M660.46,191.21c.68-.73,10.89-.03,12.34-1.7s-10.76-3.01-12.34-1.68,0,3.38,0,3.38Z"/>
  <path class="st12" d="M631.17,203.32s24.23,8.4,37.23,33.44,6.09,36.46,6.09,36.46c0,0,7.31,41.93-30.87,52.21s-12.45-122.11-12.45-122.11Z"/>
  <path class="st12" d="M661.5,188.98c-.06-.29,7.98-.64,8.54,0s-8.26,1.31-8.54,0Z"/>
  <path class="st8" d="M836.99,206.9c0-.65,6.04-10.17,13.87-8.76s12.08,12.35,10.28,14.15-9.79,5.39-16.32,3.75-7.84-9.14-7.84-9.14Z"/>
  <path class="st12" d="M843.03,202.65c0,.66-1.47,9.09,1.47,10.43s10.45,3.95,11.26-3.07-.33-9.14-4.08-9.14-8.65,1.79-8.65,1.79Z"/>
  <path class="st25" d="M836.99,207.77c.31.33,7.6-4.97,12.94-5.12s8.57,5.78,10.08,6.7,4.73,2.29,5.06,0-5.55-22.73-19.26-15.86c-13.71,6.88-14.85,12.69-13.06,14.27s4.24,0,4.24,0Z"/>
  <path class="st25" d="M859.84,207.77s.04,3.82-5.23,5.31-14.03-4.05-15.99-6.83-5.88,1.52-5.88,1.52c0,0,2.77,7.95,7.67,10.07s23.87,4.4,24.65-8.49l-5.22-1.58Z"/>
  <path class="st0" d="M865.08,259.95c0,6.99-4.98,13.27-13.6,13.27s-15.61-5.67-15.61-12.65,6.99-12.65,15.61-12.65,13.6,5.05,13.6,12.04Z"/>
  <path class="st10" d="M861.56,258.86c1.04,4.66.2,11.05-12.22,10.34-6.52-.38-11.44-5.8-11.44-10.34s5.3-8.21,11.83-8.21,10.84,3.79,11.83,8.21Z"/>
  <g>
    <g>
      <g>
        <path class="st22" d="M654.78,610.18s0,85.99-4.91,103.18-14.74,37.34-17.69,53.56-3.93,26.53-3.93,26.53l-222.09,43.24s-23.58-79.6-26.53-102.2c-2.95-22.6-8.35-43.73-10.81-53.07s-10.81-93.36,0-117.43c0,0-.49-32.43,4.42-53.56s14.74-44.71,14.74-51.59,14.25-42.26,21.62-48.15c7.37-5.9,240.27-14.25,240.27-14.25,0,0,24.08,27.52,35.38,63.38,11.3,35.87-30.46,150.35-30.46,150.35Z"/>
        <path class="st14" d="M375.21,575.79s7.37,24.08,15.23,40.78,45.2,52.57,59.45,59.45l14.25,6.88s-31.45-.98-54.05-28.5c-22.6-27.52-41.27-72.72-34.89-78.62Z"/>
        <path class="st25" d="M471.02,657.84s12.78,6.88,26.04,6.88,30.96-9.83,30.96-9.83v4.91s-11.79,9.83-32.43,10.81-27.52-5.4-28.5-7.86,3.93-4.91,3.93-4.91Z"/>
        <path class="st25" d="M454.31,586.1c1.47.49,8.84,5.9,9.83,14.25s8.83,47.66,61.16,47.17h2.71s-33.18,17.69-61.06-18.18c-27.88-35.87-12.65-43.24-12.65-43.24Z"/>
        <path class="st14" d="M480.85,541.39s21.11-23.09,44.46-18.18,25.31,9.34,24.82,2.95-17.2-13.76-38.82-7.86-30.46,23.09-30.46,23.09Z"/>
        <path class="st14" d="M629.44,491.57s8.35-14.04,16.21-20.61,20.65-10.12,19.89-11.01-1.89-4.97-8.61-1.64-33.54,20.65-32.23,30.91c1.31,10.26,4.73,2.35,4.73,2.35Z"/>
        <path class="st25" d="M583.54,629.34s18.67-13.27,26.04-12.78c7.37.49,41.27-3.44,45.2-6.39,3.93-2.95-40.29-4.42-45.7-3.93-5.4.49-33.9,14.74-33.9,14.74l8.35,8.35Z"/>
        <path class="st14" d="M522.27,643.72s-57.29-6.98-47.74-59.86c9.55-52.88,59.13-42.97,64.63-38.19,5.51,4.77,12.85,17.99,19.1,24.61s20.2,11.75,31.58,50.68c11.38,38.93,6.98,63.9,6.98,63.9,0,0,0,13.22-11.38,15.42s-54.98-11.75-57.42-22.03-12.36-30.85-5.75-34.52Z"/>
        <path class="st25" d="M532.19,640.78s23.5,1.1,38.93-2.2,16.58-12.03,16.58-12.03c0,0,1.16,2.38,0,7.21s-42.65,25.76-55.51,7.03Z"/>
        <path class="st25" d="M541.37,633.43c4.04.37,14.69,1.1,25.34-2.2,10.65-3.31,13.96-12.24,13.96-12.24,0,0-8.25,10.3-20.46,10.35-12.22.05-24.57-3.36-24.64,0s5.81,4.09,5.81,4.09Z"/>
        <path class="st25" d="M525.3,682.9s-4.76,14.16,2.71,17.6,16.29,0,16.29,0c0,0-2.57,12.99,10.28,14.09s20.6-6.24,20.6-6.24c0,0,19.43,7.81,20.53-7.85,1.1-15.66-20.53-6.48-20.53-6.48,0,0-15.09-11.02-26.47-7.71,0,0-17.52-10.65-20.7-8.08s-2.71,4.66-2.71,4.66Z"/>
        <path class="st14" d="M647.13,545.3c.93-.7-12.85-8.08-14.32-24.97s17.84-55.51,35.99-53.25,33.42,18.36,36.72,50.68c0,0,2.94,14.69,0,19.83,0,0,3.67,6.98,3.67,16.89s3.67,48.11-8.08,56.92-53.6,0-56-11.02-6.8-48.48,2.01-55.09Z"/>
        <path class="st25" d="M663.66,545.66c1.1,0,24.24,2.57,31.22,0s7.34-6.98,7.34-6.98c0,0-5.51,3.35-16.89,4.06s-21.67,2.92-21.67,2.92Z"/>
        <path class="st25" d="M669.53,554.48s17.99,2.94,25.34,0,9.92-4.77,9.92-4.77c0,0,1.47,8.81-8.45,10.65-9.92,1.84-30.85-.73-32.68-2.94s5.88-2.94,5.88-2.94Z"/>
        <path class="st25" d="M646.77,597.81s-4,7.54-3.31,11.38,4.77,8.66,9.18,8.55l4.41-.11s-1.1,9.35,10.65,8.9,15.24-5.45,15.24-5.45c0,0,2.02-.23,10.83,0s21.01-19.04,13.63-21.16c-7.38-2.12-20.21,10.37-20.21,10.37,0,0-8.84-7.71-17.65-6.61-8.81,1.1-10.65,2.47-10.65,2.47,0,0-2.57-11.65-12.12-8.34Z"/>
        <path class="st14" d="M628.51,493.22s-10.39,23.42-8.19,35.54c2.2,12.13,12.69,32.69,23.05,35.63s4.97,5.12,1.74,5.14-29.2-12.87-31.41-40.77,13.03-46.12,13.03-46.12l1.77,10.58Z"/>
        <path class="st14" d="M645.12,365.71s16.7,14.45,11.56,30.73-37.83,82.38-122.66,75.77-141.76-42.23-132.21-103.93l244.95-2.57"/>
        <path class="st25" d="M404.39,374.53s15.79,39.29,66.47,48.84c50.68,9.55,60.59,8.08,70.88,9.55,10.28,1.47,81.53-8.81,100.99-51.05,19.46-42.23,4.41-69.78,4.41-69.78l-76.02-126.7s-32.01-17.26-41.9-18.73-48.81-4.04-59.83,0-39.66,34.15-44.44,40.4-12.87,27.65-16.17,34.21c-3.3,6.56-17.62,57.24-17.62,78.17s10.79,50.23,13.22,55.09Z"/>
        <path class="st4" d="M455.06,400.24s61.7,14.32,116.05,0,62.8-21.67,62.8-21.67c0,0,.73-1.47,0,1.84s-48.84,29.01-91.08,31.22-87.04-5.14-87.77-11.38Z"/>
        <path class="st14" d="M615.11,748.79s-30.77,42.9-53.62,57.66-95.26,13.98-121.12,0c-25.86-13.98-15.75,4.47,27.47,18.23,43.22,13.76,100.4-7.86,112.83-16.12s41.96-49.43,34.45-59.77Z"/>
      </g>
      <path class="st4" d="M484.08,293.37s-6.24,16.89,5.51,27.18,33.37,37.23,97.69,21.67c0,0,32.24-1.47,46.97-6.61s38.97-44.07,38.23-49.94-1.47-8.45-1.47-8.45c0,0,4.04-11.75,0-26.07s-43.33-61.7-52.52-63.53-6.61-7.78-14.69-7.38-26.19,8.11-26.19,8.11c0,0-13.11-.37-14.94,0s-9.55-6.24-20.93-3.67c-11.38,2.57-17.63,20.57-22.03,23.5s-18.73.73-28.64,8.81-18.73,61.33-6.98,76.39Z"/>
      <path class="st12" d="M487.75,295.94s10.28,2,19.83,2.84,59.13-16.43,74.55-23.77,33.79-10.28,47.74-8.45c13.96,1.84,41.13,10.65,41.13,10.65l.76,3.67s3.27-1.46-9.95-1.46-18.01-1.26-31.6-3.83c-13.59-2.57-29.92-2.1-49.75,5.24s-30.66,11.07-35.06,11.81-23.87,8.45-33.42,9.18-27.91.73-27.91-8.45l3.67,2.57Z"/>
      <path class="st12" d="M561.48,193.82s-5.33-7.67-16.83-7.33c-11.5.33-10.5,7.33-10.5,7.33,0,0,16.92,7.11,27.33,0Z"/>
      <path class="st10" d="M556.15,191.73c.86-.66-10-3.91-14.33-2.58s-4.33,2.6-4.33,2.6c0,0,11.33,5.55,18.67-.03Z"/>
      <path class="st12" d="M591.07,184.82s11.08-4.33,14.08-2.67,8.67,5.03,6,6.68-23.33,1.35-23.33,0,3.25-4.02,3.25-4.02Z"/>
      <path class="st10" d="M591.86,187.25c-1.26,1.25,16.16,2.76,16.02,0s-10.68-5.31-16.02,0Z"/>
      <path class="st25" d="M445.48,172.15c-1,0-7.67-1.97-16-7.65s-30.67-4.11-24,17.27c6.67,21.38,34.67,17.38,34.67,17.38l21-23.33-15.67-3.67Z"/>
      <path class="st25" d="M516.82,168.48c1.33-.33,7.67-12,7.67-14.33s2-4.67,7,0,4,19.67,4,19.67l-18.67-5.33Z"/>
      <path class="st10" d="M435.82,184.15c0-1.66-5.67-15.33-11.67-17.33s-13.33,2.66-13.33,8.66,6.67,16.96,18,14.48,7-5.81,7-5.81Z"/>
      <path class="st4" d="M539.15,173.82s-.28-12.33,7.69-13.33,30.63,21.16,25.97,27.75-34.27-9.07-33.66-14.41Z"/>
      <path class="st4" d="M488.82,181.77c-1.67-.29-24.33-31.25-45-3.44-20.67,27.82-.67,36.15,9,34.82s38.67-6.68,40.33-16.17-4.33-15.21-4.33-15.21Z"/>
      <path class="st12" d="M566.68,168.22s6.51,7.35,5.68,9.72-5.68-1.87-5.68-1.87v-7.85Z"/>
      <path class="st25" d="M559.64,163.1c2.59-1.56,9.33,5.65,9.33,5.65l-.59,8.18s5.21.39,5.4,3.44-4.51,3.63-4.51,3.63c0,0-16.3-16.88-9.63-20.9Z"/>
      <path class="st24" d="M461.15,186.47c-.67-.99-6.08-9.88-12.33-8.14-1.26.35-2.33,1.02-3.22,1.89-3.52,3.41-4.31,9.84-3.78,11.51.67,2.09,2.52,6.68,9.59,7.72s9.74-12.97,9.74-12.97Z"/>
      <path class="st12" d="M445.83,192.73c1.32,1.42,3.65,1.91,7.32,0s2.44-10.8,2.44-10.8c0,0-9.71-6.44-12.28.84s2.52,9.96,2.52,9.96Z"/>
      <path class="st25" d="M461.15,189.82s-4.63-9.63-10.09-9.62-9.38,9.81-9.38,9.81c-1.53-2.2-2.12-12.42,8.51-14.31,10.63-1.89,17.96,12.19,17.63,15.82s-6.67-1.7-6.67-1.7Z"/>
      <path class="st25" d="M467.83,196.98s-8.16,11.17-16.42,11.84-12.55-19.35-10.57-22.34,3.08,1.7,3.41,2.33,2.08,4.62,7.16,3.99,9.74-6.31,9.74-6.31l6.67,5.05v5.46Z"/>
    </g>
    <path class="st0" d="M469.47,247.32c.52,8.69-3.88,13.52-13.37,14.45-7.39.73-13.51-5.53-13.51-14.45s6.02-16.17,13.44-16.17,12.9,7.25,13.44,16.17Z"/>
    <path class="st10" d="M466.04,245.81c0,7.1-5.95,12.86-10.91,12.86s-8.99-5.76-8.99-12.86,4.02-12.86,8.99-12.86,10.91,5.76,10.91,12.86Z"/>
  </g>
  <path class="st14" d="M1052.15,812.72s-60.52,82.56-98.77,80.32c-38.25-2.24.83,8.09,15.81,8.88,14.97.8,90.95-63.7,82.96-89.2Z"/>
  <path class="st15" d="M1198.84,292.28c-8.79,1.46-21.55,3.58-35.81,5.94-26.7,4.42-61.02.04-92.48,0-31.46-.03-45.77.03-68.65,0s-107.74,9.84-116.32,7.16c-8.58-2.67-39.09-1.78-52.44-1.78s-101.07.89-118.23.89-81.04-5.35-104.88-6.24c-23.84-.89-103.93,18.72-109.65,19.61-5.72.89-95.35-.89-101.07,0-5.72.89-16.21,0-40.04,0-21.32,0-43.39,4.28-47.81,5.18v.78s-30.97,3-108.97-1.17-215.99-19.9-215.99-19.9v645.06l324.96,10.66v-1.37h899.71V292.28h-12.32Z"/>
  <path class="st14" d="M855.87,606.16c0-2.49,14.96-39.07,39.17-36.62s44.01,31.06,41.37,57.02-23.77,50.17-35.65,58.09c0,0-2.64,29.05-14.52,34.77,0,0-1.54,16.04-4.4,22.01-2.86,5.97-11,16.28-23.33,19.36s-55.45,3.96-65.58-14.52c0,0,11.71-19.81,18.92-29.05s15.4-16.08,20.24-23.88c4.84-7.8,9.24-27.61,13.2-31.13l10.56-56.04Z"/>
  <path class="st25" d="M808.78,748.79s6.16-10.02,15.4-6.06c9.24,3.96,12.76,13.2,12.76,13.2,0,0,15.48-11.73,22.74-9.98s10.27,15.18,8.51,16.54-28.17,10.16-31.25,4c0,0-29.49,1.76-30.81-6.16,0,0-18.04-4.17-18.48-11.55s9.24-13.54,14.08-11.78c4.84,1.76,7.04,11.78,7.04,11.78Z"/>
  <path class="st25" d="M838.7,696.27c.88,2.89,20.35,12.14,29.98,13.9s15.79,0,15.79,0c0,0-29.49-9.31-36.09-13.9-6.6-4.59-9.68,0-9.68,0Z"/>
  <path class="st19" d="M42.21,337.22c35.91-2.51,47.89,18.29,91,20.52s217.91,20.17,225.1,19.58c7.18-.59-112.55,21-149.66,13.8s-51.48-14.59-123.32-16.88-120.93,1.83-120.93,1.83c0,0,26.34-35.26,77.83-38.85Z"/>
  <path class="st19" d="M102.07,503.5c32.33-1.04,38.31,4.19,69.44,3.37s94.59-10.69,94.59-10.69c0,0-20.35,20.2-43.1,19.22s-135.3,0-135.3,0l14.37-11.9Z"/>
  <path class="st25" d="M854.99,689.49c2.64,1.32,15.4,8.29,24.65,6.79,9.24-1.51,12.76.21,12.76-3.29s-11.22-2.62-20.13-3.5-15.52-5.28-17.28-5.72,0,5.72,0,5.72Z"/>
  <rect class="st12" x="-13.5" y="-17.18" width="2415.05" height="54.29"/>
  <polygon class="st12" points="2417.55 771.36 -16.99 771.36 -16.99 1024.47 2417.55 1023.1 2417.55 771.36"/>
  <g>
    <path class="st20" d="M692.79,805.52s-6.72.75-7.84,0c0,0-1.88,2.36,0,7.49,1.88,5.12,3.92,6.33,3.5,13.56s3.13,8.74,0,13.56-7.05,5.42-7.05,5.42v9.8h-74.73s.6-3.47,2.41-5.88,1.81-6.93,1.21-12.66-1.51-17.18,4.22-22.6c0,0,2.11-10.85.6-15.37s-5.42-11.45-4.52-16.57-1.51-11.75-2.41-17.48-2.71-28.33-1.51-36.16c1.21-7.83,4.82-10.85,4.82-10.85,0,0,6.12-9.34,7.73-10.25,0,0-3.72-9.34,0-14.16,0,0-6.22-.3-9.84-1.81s-5.62-7.23-3.11-11.15c2.51-3.92,4.32-8.14,4.32-8.14,0,0,1.51,1.21.3-7.83-1.21-9.04-1.81-8.74-3.01-11.75s0-11.75,1.81-18.08,2.41-5.73.6-9.34.3-8.74,2.41-18.38c2.11-9.64,0-5.73,2.41-13.26,2.41-7.53,0-14.16,0-14.16,0,0-5.12-.6-5.12-2.71,0,0-6.03,6.03-10.85,6.03s-34.95-2.41-34.95-29.23c0,0,6.03-13.26,12.05-18.68,0,0,4.82-9.04,7.53-11.15s9.34-9.04,9.34-9.04c0,0,.6-9.43.6-10.4,0-.75-1.66-7.23-1.05-8.14,0,0,1.36-8.59,1.96-9.64,0,0,0-4.52,2.86-3.16s.9,4.67.9,4.67l-.3,6.48.9,4.07s-.15-1.96.45-2.86c0,0,1.66-5.73,2.41-6.48,0,0,.9-5.88,2.11-7.23,0,0,1.66-3.77,1.66-4.82s.6-2.86,2.56-3.01,3.62,2.41,3.01,3.62-1.51,3.77-1.51,3.77c0,0-1.36,5.42-1.51,6.18s.3,4.82.3,4.82c0,0,1.05-2.71,1.66-4.07s1.21-8.14,2.26-9.49-.15-6.33,2.26-7.08,5.21,0,4.56,3.31-.95,3.31-1.1,4.97-.6,5.42-1.05,6.93c0,0-.15,6.63-.9,8.89s.3,2.71.3,2.11,3.62-6.78,4.37-7.53,3.16-5.42,3.92-6.33,1.29-5.42,3.73-6.03,3.8,2.41,2.74,5.57l-1.05,3.16s-1.66,5.57-2.86,6.18l-.6,5.42s21.55.6,24.41,0,11.75-3.31,11.75-3.31c0,0-4.37-3.62-5.57-5.73s-4.67-6.93-4.97-7.38-1.05-3.16-2.41-3.47-3.31,1.36-6.63-3.92c0,0-3.62-3.92-4.67-6.33s-.9-3.16-3.62-6.48c-2.71-3.31-4.07-7.99-4.22-11.15s-.15-12.51.3-16.42-.15-12.2-.15-14.46,1.51-22.3,3.77-26.07,11.6-22.15,16.72-25.16c5.12-3.01,7.83-3.01,10.85-5.12,3.01-2.11,10.55-2.86,11-2.86s9.64-8.44,23.2-5.12c13.56,3.31,37.97,15.37,44.75,35.26,6.78,19.89.6,44.45.6,44.45,0,0,2.11,2.41,3.92,6.18s.6,7.99,0,10.4-3.47,10.85-6.93,13.41c0,0-1.81,4.37-3.77,5.27s-3.62,3.77-5.42,7.08-11.75,11-12.05,12.2-2.26,6.93-1.81,7.83,2.26,2.56,5.88,2.26,17.63.9,21.55,5.57c3.92,4.67,7.83,2.26,11,3.31,3.16,1.05,13.26,10.25,17.33,13.86,4.07,3.62,11.3,9.04,13.41,11.6s10.25,7.68,12.51,9.19c2.26,1.51,7.99,5.73,7.99,5.73l2.56.3s-1.36-2.41-2.41-3.77-3.01-4.52-3.62-5.88-.6-1.81-1.81-3.31-3.77-3.31-3.31-5.57,2.56-2.86,3.62-2.56.9,1.05,1.81,2.56,2.41,2.26,3.01,4.07c0,0,4.82,4.52,5.57,6.33,0,0,3.31,6.33,4.67,6.03s-.15-2.26,0-3.62-.15-1.51-.45-2.41-1.96-3.92-2.26-5.57-.6-2.71-1.36-3.77-1.66-4.07-.3-4.97,2.5-1.81,4.94,2.26c2.44,4.07,2.29,4.82,2.29,4.82,0,0,3.62,6.33,3.92,7.08s2.11,6.63,3.62,6.63.9-5.27.9-6.03.12-1.66.12-1.66c0,0-1.02-3.31-1.17-3.77s-.82-3.31,1.17-3.92,2.59-.75,3.5,2.41,1.51,4.37,1.36,5.27.45,5.12,1.05,6.03,1.21,5.88,1.21,6.33,2.41,10.4,2.41,11.15c0,0,9.49,7.08,9.49,10.55s-.3,14.31-1.66,16.42-12.66,12.05-19.13,12.05l-1.96-.9s-20.94,3.47-26.07-.75c0,0-.75-.45-3.77-1.36s-12.05-6.33-12.96-7.53-3.47-2.41-8.59-4.97-7.83-8.44-7.83-8.44c0,0-5.27,3.01-6.63,2.26,0,0-.6,14.77-1.36,17.18s-.15,3.77-.75,6.18-4.07,9.64-4.07,9.64c0,0,3.92,10.25,2.71,13.71s-4.67,6.78-4.67,6.78c0,0,3.92,7.99,3.92,12.66s-1.66,5.27,0,7.53,3.31,4.52,3.31,5.73,4.22,5.42,3.31,9.19-4.22,10.85-4.22,10.85l-.6.9s1.36,7.99,3.92,12.66,4.22,12.51,4.22,12.51c0,0,3.62,5.12,5.73,10.85,2.11,5.73-1.21,17.93-1.05,22s.6,21.7.6,26.82-2.11,16.42-3.47,19.29-1.21,16.42-1.81,18.98-.45,3.16-.15,4.82.75,3.47.3,4.82,3.62,6.33,3.31,7.83-.75,3.77.3,5.88,4.07,8.44,5.42,14.61-.15,12.96-.15,12.96c0,0-61.02.76-61.02,0s-.15-5.43,1.21-8.14c1.36-2.71.6-1.96.6-1.96,0,0-11-4.22-12.96-9.94s-3.77-7.99-3.77-11.75-4.2-16.93-3.38-18.03Z"/>
    <path class="st11" d="M619.22,812.38s-2.52,6.35,0,9.39,14.4,6.35,12.74,7.18-22.14-1.7-21.96-3.28,1.73-14.4,9.22-13.29Z"/>
    <path class="st11" d="M752.39,834.48c.98-.98,15.74-4.02,15.09-5.36s5.04,7.95,4.37,11.63c0,0,2.88,6.44.96,7.82s-13.24,2.49-13.24,1.11,1.19-3.04,3.36-3.04,2.72-1.93,4.93-3.04,4.7-2.92.28-3.95c-4.42-1.02-18.78-2.13-15.74-5.17Z"/>
    <path class="st11" d="M619.22,725.1s-5.28,5.25,0,6.91c5.28,1.66,14.4,0,14.68,2.21s-10.29,8.01-14.68,6.91-17.53-9.92-11.51-16.84c6.02-6.92,11.51.82,11.51.82Z"/>
    <path class="st11" d="M740.24,707.14c-.24-.79,20.82-8.36,21.66-5.2s2.22,6.15,2.22,6.15c0,0-22.77,2.64-23.88-.95Z"/>
    <path class="st11" d="M639.14,638.92c-.27-1.91-22.1,2.76-26.24,4.97s-5.4,1.4-5.45,3.32-1.98,2.44,2.01,9.36l1.13,15.72s4.18-2.44,8.63-2.44,14.4-3.04,11.36-4.42-8.84.28-9.12-1.66c-.28-1.93,3.59-5.02,8.56-8.17s9.94-6.47,5.25-6.19-11.49,3.87-12.24,1.66,16.38-10.22,16.1-12.15Z"/>
    <path class="st11" d="M621.47,580.08c.83.55,5.25,4.14,10.22,6.08s10.22,3.31,5.25,3.87-10.11,3.87-13.89,4.7c-3.78.83-7.93-1.08-7.93-1.08v-15.49l6.36,1.93Z"/>
    <path class="st11" d="M654.19,499.04c-.43.34-15.3.19-20.08.56-4.77.37-13.27,2.39-14.89,3.12s-3.83,4.22-5.84,6.61-1.65,4.59-6.06,6.61-11.19,14.86-11.38,16.88.55,6.42-2.75,4.77-9.36-1.1-14.31,3.12c-4.95,4.22-16.57,3.58-2.41,35.64,0,0-14.1-5.18-13.73-23.9,0,0,10.37-16.73,12.29-17.8,0,0,3.3-3.49,6.79-4.4,3.49-.92,14.13-13.4,16.33-16.15s5.31-5.5,8.71-6.42,5.42-5.83,9.64-8.24,10.64-2.22,13.21-3.14,5.32-1.65,10.64-1.28c5.32.37,15.67,2.56,13.84,4.03Z"/>
    <path class="st11" d="M759.99,576.35s6.79-2.98,5.87-4.27-7.52,3.12-7.52,3.12l1.65,1.15Z"/>
    <path class="st11" d="M811.92,565.48s-4.4-10.83-10.09-13.21c-5.69-2.39-8.44-2.75-8.99-3.67s-10.83-8.68-13.76-12.96-12.11-9.61-12.11-9.61c0,0,.45,3.12-4.82,4.04-5.27.92-21.42-5.5-22.7-8.26s-.55-8.99-.55-8.99c0,0-2.94-7.52-7.34-9.17-4.4-1.65-.11-3.7,7.1-1.03,7.21,2.68,5.38,4.33,8.5,4.33s3.49-1.1,13.03,4.04c9.54,5.14,25.7,21.17,26.61,23.49s17.98,12.48,18.53,13.03,7.89,6.24,10.46,7.34,25.51,9.73,28.63,12.84,3.18,13.39,1.52,18.17-7.76,5.87-7.76,5.87c0,0-.73,0-.73-2.94s2.39-12.66-3.3-17.98c-5.69-5.32-14.13-7.89-14.13-7.89,0,0-3.12,7.16-4.77,6.24s-3.3-3.67-3.3-3.67Z"/>
    <path class="st20" d="M672.05,362.33c-.66-.44-15.06-3.52-20.07,3.75-5.01,7.27-4.41,8.16-4.41,8.16,0,0,2.51-9.18,8.6-9.92,6.09-.74,14.77,0,14.77,0l1.1-1.98Z"/>
    <path class="st20" d="M668.5,363.5c-.68-.03-14.75,1.63-18.06,3.69-.6.37-1.07.9-1.45,1.51-1.13,1.84-1.39,4.48-1.43,6.05-.02.8.01,1.33.01,1.33,0,0-.04-11.25,20.93-11.25v-1.33Z"/>
    <path class="st20" d="M673.27,360.71c-.11.96-9.15-5.65-17.31-1.69-5.03,2.45-7.72,8.84-9.03,13.38-.82,2.82-1.11,4.92-1.11,4.92h1.74s.68-13.95,8.4-16.02,12.57,3.23,14.99,3.01,2.32-3.61,2.32-3.61Z"/>
    <path class="st20" d="M737.03,382.37s11.75,27.59,10.65,36.85-3.09,12.57-3.09,11.91.9-7.85,1.98-11.47-5.51-17.42-5.51-17.42l-4.03-19.87Z"/>
    <path class="st20" d="M742.39,405.17c6.61,15.15,4.53,21.91,2.44,23.76s-4.21,2.28-4.21,2.28c0,0,1.76-2.07,2.87-4.27s2.28-10.8.26-14.99-1.36-6.77-1.36-6.77Z"/>
    <path class="st20" d="M651.32,373.14s-14.11,13.67-16.32,18.74-2.67,24.13-2.53,28.04,2.09,7.02,2.09,7.02c0,0-4.85-13.67-5.07-18.96s6.17-22.1,9.92-25.6,11.91-9.24,11.91-9.24Z"/>
    <path class="st20" d="M597.48,483.35s2.38,1.37.9,4.67c0,0,.66,5-.3,6.48l1.05,1.98-.14,2.09-1.51-3.65s.25-5,0-6.96c0,0,1.22-3.58,0-4.61Z"/>
    <path class="st11" d="M594.05,488.52s-1.55,4.36-1.19,6.4-.19,3.65-.19,3.65c0,0,.59,3.75.88,4.8s.67-4.9.5-5.87-.6-1.56-.6-1.56l.6-7.43Z"/>
    <path class="st11" d="M604.12,481.8s1.46-.24,2,.19-1.51,1.85-2.16,2.39-.44,1.52-.44,1.52l-1.16.66s.81-3.93,1.76-4.76Z"/>
    <path class="st11" d="M599.13,496.42v.93s-1.24,4.33-1.38,4.54-.68-.33-.68-.65,1.52-4.93,1.52-5.47.53.65.53.65Z"/>
    <path class="st11" d="M593.59,503.25s.29.87,1.05.87,1.19.87,1.19.87c0,0-2.35,3.92-2.44,5.33-.09,1.41-.2-5.85.2-7.06Z"/>
    <path class="st6" d="M599.94,512.08c0,.5,8.24-2.33,10.41-3.64s3.36-4.88,6.07-7.15,7.48-2.28,11.27-3.36c3.79-1.08,10.11-2.26,12.06-2.26,6.2-.01-4.02-2.62-7.5-1.42-2.34.8-2.72,2.3-10.05,3.32-10.03,1.39-10.52,6.53-12.06,7.89-2.11,1.86-10.22,3.6-10.2,6.62Z"/>
    <path class="st11" d="M630.25,423.33c.59,4.23,4.17,10.51,6.12,12.57s.98.76,0-.87-1.52-2.28-1.52-3.04,1.73.33,0-3.14c-1.73-3.47-3.04-3.9-3.47-8.89s-.76-7.77-.76-7.77l-.37,11.13Z"/>
    <path class="st11" d="M630.25,428.81c-.06,3.97,1.13,5.61.59,6.89s1.19,5.02,1.19,5.02l2.6,2.22s-2.05-1.64-2.6-4.56.19-4.89-.45-7.12-.42-7.44-.42-7.44l-.92,4.97Z"/>
    <path class="st6" d="M744.68,509s3.28-3.04,8.87-1.58c5.73,1.5,22.86,13.65,20.97,16.36,0,0-5.67-1.87-10.44-5.23-4.77-3.36-5.85-6.5-9.97-6.61s-5.74,2.17-7.37.87-2.06-3.79-2.06-3.79Z"/>
    <path class="st11" d="M817.82,550.83s6.72,1.08,7.26,0,.81-2.99.81-2.99l.64-.49s1.15,2.18,1.8,3.16,5.8,2.59,5.89,3,1.7,4.56,1.43,6.31-3.96-2.7-7.21-3.78c-3.25-1.08-10.62.43-10.62.43,0,0-5.48-3.25-7.05-3.81s7.05-1.83,7.05-1.83Z"/>
    <path class="st11" d="M802.46,536.52s1.45-.65,1.73-1.01-.87-.22-.87-.79-.94-1.88-1.66-2.1,0-1.37,0-1.37h.75s2.8,2.87,2.83,3.78c0,0,3.06,3,3.86,3.96s-.72,1-1.23,1.21-.65-1.21-.65-1.21c0,0-1.68-2.11-1.89-2.18s-2.88-.29-2.88-.29Z"/>
    <path class="st11" d="M814.96,535.44c.29-.29,2.31-.51,2.31-1.45s-.89-4.14-.89-4.14c0,0,1.59,2.17,2.22,4.71,0,0,1.28,2.26,1.44,2.53s-1.3.29-2.54,0-2.54-1.66-2.54-1.66Z"/>
    <path class="st11" d="M819.3,542.09c.29-.36,2.93-1.03,3.09-.55s2.01,3.96,1.46,4.3-2.76.08-3.8-.5-1.98-1.68-1.19-1.85,2.02-.82,2.02-.82l-1.59-.58Z"/>
    <path class="st11" d="M833.23,547.35c-.42.02-2.44-.23-2.08-.83s1.41-.92,1.41-.92l.67,1.74Z"/>
    <path class="st11" d="M831.78,541.37l-.68-.29.43-2.52s.24,1.21.24,2.01.11,1.79.11,1.79l-.11-.99Z"/>
    <path class="st11" d="M717.56,489.83s-2.14,7.35-1.81,7.83,1.96,1.99,4.08,2.25c0,0-5.28.2-6.42-1.68s4.14-8.4,4.14-8.4Z"/>
  </g>
  <path class="st21" d="M1098.12,87.47s-40.04,52.23-35.37,55.96c4.66,3.73,13.06,8.56,13.06,8.56l-39.17,77.86s66.08-78.96,61.49-86.42,70.79-103.53,70.79-103.53c0,0-59.23,32.03-70.79,47.57Z"/>
  <path class="st19" d="M1052.74,323.93c49.1-3.46,133.55-11.43,145.99-11.04s30.02,4.43,30.02,4.43c0,0-19.16,14.13-53.88,14.62s-122.13-8.01-122.13-8.01Z"/>
  <polygon class="st17" points="99.67 578.56 -29.63 707.46 -29.63 753.36 99.67 578.56"/>
  <path class="st20" d="M450.16,850.3s13.3-57.66,39.4-60.82,68.59-8.46,91.1,31.23,23.62,43.88,23.62,43.88h-154.12v-14.29Z"/>
  <path class="st11" d="M464.57,812.31s3.18-26.02,45.97-25.75c45.12.29,48.89,10.83,54.82,15.61,7.74,6.23-.21.81-4.22-1-2.8-1.26-31.65-10.63-49.06-10.85s-29.85,6.09-34.59,8.7-12.91,13.29-12.91,13.29Z"/>
  <path class="st20" d="M501.17,793.45s-4.17-10.95-1.83-13.12,14.58-1.67,21.96-.83,10.88.83,11.04,3.33-5.12,12.83-5.12,12.83l-2.72-.83s3.6-8.67,2.72-10-22.22-2.33-24.05-2.17-.17,9.33-.17,9.33l-1.83,1.45Z"/>
  <path class="st11" d="M499.34,780.33s.77-1.04,3.39-1.55,26.51-.66,29.61,3.31c0,0,.04,1.09,0,1.2s-2.53-.22-4.82-.93-16.38-2.24-18.62-2.24-3.06-.49-4.15-.33-5.72,1.15-5.72,1.15l.31-.63Z"/>
  <polygon class="st12" points="251.67 20.08 251.67 829.16 329.67 829.16 329.67 -8.5 251.67 -8.5 251.67 20.08"/>
  <polygon class="st12" points="1164.24 20.08 1164.24 829.16 1242.24 829.16 1242.24 -8.5 1164.24 -8.5 1164.24 20.08"/>
</svg>