<?xml version="1.0" encoding="UTF-8"?>
<svg id="Vrstva_1" xmlns="http://www.w3.org/2000/svg" version="1.1" viewBox="0 0 1190.55 841.89">
  <!-- Generator: Adobe Illustrator 29.7.1, SVG Export Plug-In . SVG Version: 2.1.1 Build 8)  -->
  <defs>
    <style>
      .st0 {
        fill: #4c4241;
      }

      .st1 {
        fill: #635b55;
      }

      .st2 {
        fill: #c18732;
      }

      .st3 {
        fill: #045b4e;
      }

      .st4 {
        fill: #027668;
      }

      .st5 {
        fill: #262321;
      }

      .st6 {
        fill: #75a6b5;
      }

      .st7 {
        fill: #21201f;
      }

      .st8 {
        fill: #4c4642;
      }

      .st9 {
        fill: #b58a2b;
      }

      .st10 {
        fill: #3f3634;
      }

      .st11 {
        fill: #4c3122;
      }

      .st12 {
        fill: #b0cbd6;
      }

      .st13 {
        fill: #875447;
      }

      .st14 {
        fill: #473f3b;
      }

      .st15 {
        fill: #a65238;
      }

      .st16 {
        fill: #dce4f5;
      }

      .st17 {
        fill: #eaae4d;
      }

      .st18 {
        fill: #604236;
      }

      .st19 {
        fill: #056c5d;
      }

      .st20 {
        fill: #018e81;
      }

      .st21 {
        fill: #ae956e;
      }

      .st22 {
        fill: #bf9734;
      }

      .st23 {
        fill: #dddbdb;
      }

      .st24 {
        fill: #009388;
      }

      .st25 {
        fill: #35302d;
      }

      .st26 {
        fill: #806c4c;
      }

      .st27 {
        fill: #b2b1b1;
      }

      .st28 {
        fill: #00a19a;
      }

      .st29 {
        fill: #a16858;
      }
    </style>
  </defs>
  <rect class="st12" x="162.36" y="-182.9" width="865" height="1215" transform="translate(170.26 1019.47) rotate(-90)"/>
  <path class="st21" d="M-14.19,399.28s713.33,61.63,924.97-12.27c211.65-73.9,287.42-70.9,287.42-70.9v534.05H-14.19v-450.89Z"/>
  <path class="st26" d="M238.63,762.91c7.31.47,35.06,14.74,73.68,15.11s65.78-5,65.78-5c0,0,35.11,4.67,75.22,5.02s124.63,4.31,124.63,4.31l50.08-17.08-151.16-12.07-115.75,2.86-33.44-9.12-89.04,15.98Z"/>
  <path class="st26" d="M140.94,747.23s27-.02,30,8.81-96,25.35-93,11.84,63-20.66,63-20.66Z"/>
  <path class="st26" d="M-11.24,743.75s73.52-5.68,60.15,10.72c-13.37,16.41-73.45,23.54-73.45,23.54l13.29-34.26Z"/>
  <path class="st29" d="M863.79,719.52s-4.77,3.18,0,15.89c4.77,12.71,13.5,19.06,19.86,19.06s28.59-3.97,33.36-14.3c4.77-10.33,1.59-29.39,1.59-29.39l-54.8,8.74Z"/>
  <path class="st13" d="M888.41,718.73s2.38,19.86,4.37,21.84,4.77,3.18,4.77,3.18c0,0-1.59-.4-2.78-6.35s-1.99-20.25-1.99-20.25l-4.37,1.59Z"/>
  <path class="st14" d="M327.67,746.93c-.41-6.15-20.65-27.8-20.65-27.8l3.57,36.54s17.87,3.18,17.08-8.74Z"/>
  <path class="st25" d="M367.67,595s-18.44,11.96,6.48,70.75c0,0,8.97,42.85,9.97,51.32s4.48,23.42,5.48,26.41c1,2.99.5,24.41,1.99,24.41s28.9-.5,30.89-.5,36.87-3.49,39.36-4.48c2.49-1,1.93-.97,5.93-1.37,3.89-.39,7.28-1.94,8.83-8.47.74-3.1-18.75-19.56-19.24-24.54-.5-4.98-7.47-46.84-8.47-53.31-1-6.48-3.49-16.44-3.99-19.93-.5-3.49,9.22-25.66,9.22-33.63s-86.45-26.66-86.45-26.66Z"/>
  <path class="st25" d="M657.66,588.02s9.97,7.97,24.91,11.46c0,0,1,16.44,18.44,25.91,0,0,5.98,13.95,6.98,15.94s2.99,10.96,2.49,21.42c-.5,10.46-25.41,33.38-27.4,36.87s-3.49,5.98-11.96,7.97-19.43,14.45-19.43,14.45c0,0,.57,2.4,1.33,5.11.83,2.96,1.88,6.3,2.66,7.34,1.49,1.99,11.46,1.99,11.46,1.99,0,0-5.48,9.47-5.98,10.96s13.95,24.41,13.95,24.41c0,0,9.97.5,16.94-2.49,6.98-2.99,47.83-35.87,54.31-43.35,0,0,21.42-18.44,29.9-38.37,8.47-19.93,7.47-28.9,7.47-28.9l-29.9-70.75-53.31-43.85-42.85,43.85Z"/>
  <path class="st5" d="M653.01,727.16s14.8,5.47,16.59,10.03-5.96,12.11-5.96,12.11c0,0-12.73-19.27-10.63-22.15Z"/>
  <path class="st5" d="M662.5,748.89s9.88-4.67,18.67,1.65c8.78,6.31,3.57,21.14,3.57,21.14,0,0-23.06-20.86-22.24-22.78Z"/>
  <path class="st14" d="M954.12,668.24c0-5.98-3.18-26.36-6.17-35.32-2.99-8.97-9.28-16.99-10.77-23.47-1.49-6.48-8.47-17.44-8.47-24.41s-1-47.83-.5-55.31c.5-7.47.84-11.9,1.49-16.44.62-4.31-2.79-5.92-.5-6.98,0,0-4.32-5.43-3.32-9.42s-3.3-9.69-3.3-15.17-13.17-34.93-13.67-38.91c-.5-3.99,9.82-13.73,15.3-18.71,5.48-4.98,7.97-19.93,7.47-23.92-.5-3.99-6.48-13.95-17.94-14.95-11.46-1-18.93,22.42-18.93,22.42,0,0-5.98,1-6.98-.5-1-1.49-12.95-21.42-18.93-30.39-5.98-8.97-18.44-22.92-23.92-28.4s-30.39-25.41-30.39-25.41c0,0-84.7-76.73-146.49-91.68-61.78-14.95-83.21-7.97-127.05-9.47-43.85-1.49-40.36-6.98-86.7-9.47-46.34-2.49-88.19,25.41-88.19,25.41-108.62,42.35-140.01,146.49-150.97,188.34-10.96,41.85.5,113.6,1,119.58.5,5.98,4.98,21.92,7.47,41.85,2.49,19.93,16.44,57.3,16.44,67.76s3.49,69.26,3.49,75.73-2.99,21.92-5.98,29.4,28.4,2.99,32.39,2.49c3.99-.5,22.92-2.49,28.4-3.99,5.48-1.49,13.95-1.99,16.94-4.48,2.99-2.49,1-7.47-2.49-11.96-3.49-4.48,0-19.93-1.49-25.41-1.49-5.48-11.41-42.39-9.91-50.36,1.49-7.97,2.44-39.82,5.43-45.8,2.99-5.98,22.42-39.36,22.42-39.36,94.17,63.78,231.69,42.85,231.69,42.85-.5,5.98,18.93,86.7,18.93,93.67v46.84c0,4.48-2.99,12.95-1.99,17.44s25.91,4.48,30.39,4.48,17.44-5.48,20.93-5.98c3.49-.5,17.44,4.48,21.92,4.48s21.91-3.85,29.38-4.35c3-.2,4.59-1.18,5.37-2.45l.49.44c.47-.38.38-1.84.16-3.22-.04-.97-.29-1.91-.56-2.67,0,0,0-.03,0-.03h0c-.05-.13-.1-.27-.15-.4-1-2.49-16.75-16.71-20.74-22.19-3.99-5.48-8.77-18.27-11.46-24.41-2.49-5.68-6.47-29.64-2.99-44.84,3.56-15.55,1.99-36.87-1.49-46.84-3.49-9.96-1.99-28.4,1.49-30.39,3.49-1.99,25.41-18.93,30.89-22.42,5.48-3.49,23.42-18.93,23.42-18.93,10.46,35.87,48.33,55.31,51.32,61.29,2.99,5.98,15.94,30.39,15.94,30.39,0,0,4.98,18.44,5.48,21.92.5,3.49,14.45,23.42,14.45,23.42,0,0,9.24,23.6,17.71,25.59,8.47,1.99,41.08-.68,59.02-3.17,17.94-2.49,27.9-1.49,60.29-6.48,32.39-4.98,24.91-41.36,24.91-47.33Z"/>
  <path class="st28" d="M423.77,415.72l-3.57-57.19,26.21,4.77,2.38,52.42s-7.15,11.91-10.72,11.91-14.3-11.91-14.3-11.91Z"/>
  <path class="st25" d="M787.2,659.27s1.99-12.46,8.22-18.93c6.23-6.48,10.96-9.97,12.71-22.42,1.74-12.46.5-33.38-4.24-41.6-4.73-8.22-42.1-47.08-45.09-68.51s12.95-54.56,12.95-54.56c0,0-13.63-16.62-13.79-20.02-.16-3.4,1.83-16.11,8.81-20.84,6.98-4.73,10.96-9.22,15.94-7.72s8.47,11.46,9.22,18.19c.75,6.73,1.74,4.73,1.74,4.73,0,0,3.24-15.69,9.72-18.44s31.64-5.23,40.11-1.49c8.47,3.74,22.92-3.24,29.4-3.49,6.48-.25,15.05,3.2,15.05,3.2,0,0,6.14.19,6.89-.81.75-1,8.17-20.73,16.33-21.37,5.02-.39,13.05,1.29,17.78,11.51,4.73,10.21.75,22.42-2.99,26.16s-10.96,9.96-11.21,13.45c-.25,3.49-3.49,18.19,1.25,22.17,4.73,3.99,10.21,14.7,11.46,19.93,1.25,5.23.5,10.21.5,10.21,0,0,1.17.48,1.42,2.48.25,1.99-2.67,2.26-2.67,4.5s1.99,9.72,2.49,10.71.5,3.99.5,5.48-1.74,4.24-1.74,4.24c0,0-5.73,4.24-8.72,8.22s-3.24,22.17.75,42.1c3.99,19.93,14.45,39.86,15.94,43.1s11.46,12.95,12.21,20.43c.75,7.47,2.24,10.21,2.24,10.21,0,0,3.49,7.47,4.24,18.68.75,11.21,1.25,15.45,1.49,20.18s-.25,33.38-24.41,37.37c-24.17,3.99-61.04,6.23-74.74,8.47-13.7,2.24-41.35,5.23-53.06-1.49-11.71-6.73-13.45-24.41-13.45-24.41,0,0-13.95-13.7-13.2-18.68.75-4.98,9.97-20.93,9.97-20.93Z"/>
  <path class="st18" d="M910.55,420.88s-7.16-10.16-5.08-13.73c2.08-3.58,4.62-11.89,10.62-10.27,6,1.62,10.27,10.39,8.66,14.54s-8.19,12-10.27,12-3.92-2.54-3.92-2.54Z"/>
  <path class="st18" d="M772.39,441.31c-.51-.06-7.73-7.96-6.93-10.73s11.43-16.62,14.77-16.16,6.46,11.54,6.12,13.97-13.04,13.04-13.97,12.93Z"/>
  <path class="st1" d="M792.73,427.32s-2.93-16.03-5.47-18.46-8.99-4.38-15.57.12-15.12,20.66-13.73,24.24,10.38,15.97,11.42,17.01c0,0-12.92-12.74-13.5-15.62-.58-2.89.69-10.73,3.81-15.81,3.12-5.08,7.85-13.16,12.93-15.7,5.08-2.54,15.47-.69,17.43,1.96,1.96,2.65,4.3,19.72,2.68,22.26Z"/>
  <path class="st18" d="M863.18,656.53s-.5,23.67,10.46,25.41c0,0,10.71-3.74,5.73-9.47s-11.96-8.47-12.46-13.2-3.74-2.74-3.74-2.74Z"/>
  <path class="st18" d="M930.77,652.72s-1.53,4.8-3.27,7.63-4.8,11.34-2.18,13.09c2.62,1.74,5.02,1.96,6.54.65s3.71-16.36,3.49-18.1-1.09-8.29-3.05-7.2c-1.96,1.09-1.53,3.93-1.53,3.93Z"/>
  <path class="st1" d="M894.84,406.55s7.58-23.19,18.04-21.82,17.5,7.66,19.06,15.32-2.18,18.81-4.17,20.37c0,0,2.68-17.94-.56-23.17s-10.34-9.16-14.76-8.47c-3.84.59-17.6,17.77-17.6,17.77Z"/>
  <path class="st25" d="M705.15,563.09s-66.89-63.78-66.14-127.68l4.48,11.21s5.23,40.48,61.66,116.47Z"/>
  <path class="st25" d="M706.86,382.24s-10.09,28.4-10.09,50.07.75,57.17.37,70.63c-.37,13.45.37,47.46,7.85,60.91,0,0-5.61-53.44-4.86-60.91.75-7.47,1.49-73.62,1.49-78.85s5.23-41.85,5.23-41.85Z"/>
  <path class="st25" d="M522.53,575.07s14.57,19.06,17.94,25.41c3.36,6.35,10.65,13.77,12.72,15.72,2.96,2.8,6.33,8.2,7.83,8.2s7.55-24.25,10.46-29.4c0,0-8.01,13.1-9.51,16.84-1.49,3.74-6.93-24.81-6.93-31.91s0,29.15,0,29.15l-32.51-34.01Z"/>
  <path class="st10" d="M816.85,540.94s-28.65-8.97-30.14-22.17c-1.49-13.2,4.48-31.39,15.94-34.13,11.46-2.74,26.91-1.99,37.62,19.68,10.71,21.67-19.68,35.63-23.42,36.62Z"/>
  <path class="st10" d="M929.7,488.62s-3.24-7.47-6.98-9.22-20.18-4.24-21.18,7.22c-1,11.46,9.22,35.63,16.19,38.61,6.98,2.99,13.7-12.95,12.21-16.44s-3.24-9.72-1.74-11.71c1.49-1.99,1.49-8.47,1.49-8.47Z"/>
  <path class="st0" d="M802.4,497.59s-10.96,3.74-10.96,11.71,6.98,17.19,15.2,17.69,9.22-2.24,9.22-7.72-4.98-22.67-13.45-21.67Z"/>
  <path class="st0" d="M925.47,488.62c-5.73,2.49-7.47,10.96-6.48,15.69s2.24,10.96,4.98,10.96,4.48,1.25,5.73-1.99c1.25-3.24.25-4.24-.5-8.22s.5-9.47.5-11.71-4.24-4.73-4.24-4.73Z"/>
  <path class="st23" d="M798.22,506.37s-3.47,8.98,1.99,12.27c5.79,3.49,6.66,1.12,9.16-1.12s2.55-10.34-1.18-11.09c-3.74-.75-9.97-.06-9.97-.06Z"/>
  <path class="st23" d="M925.47,495.59s-2.22,5.62-.72,8.36c1.49,2.74,2.2,4.84,4.93,3.9,5.14-1.78,3.49-10.01,1.25-12.75s-5.46.49-5.46.49Z"/>
  <path class="st7" d="M808.53,506.52s-1.09,10.75-2.58,12.25-5.23,1-6.73-.25-4.24-9.47-1.49-11.96c2.74-2.49,10.81-.04,10.81-.04Z"/>
  <path class="st25" d="M930.16,498.69s.25-4.61-.85-4.64c0,0-2.57-.67-4.04,1.79-1.48,2.46-1.92,9.67,1.66,11.99,0,0,.96.79,2.75.03,0,0,1.15-2.45.49-9.16Z"/>
  <path class="st25" d="M607.85,786.94s-14.2,2.94-25.18-2c0,0-2.68-17.51,8.84-16.69s16.34,18.69,16.34,18.69Z"/>
  <path class="st25" d="M652.35,785.49s-34.21,4.47-43.27,1.73l-1.37-.27s6.04-23.88,20.31-21.69,24.33,20.23,24.33,20.23Z"/>
  <path class="st5" d="M391.08,767.58s9.86-18.46,16.72-16.81c6.86,1.65,14.68,16.62,14.68,16.62,0,0-30.3,3.48-31.4.19Z"/>
  <path class="st5" d="M459.88,763.39s-34.93,7.02-37.4,4c0,0,5.63-15.52,15.79-17.17,10.16-1.65,21.61,13.16,21.61,13.16Z"/>
  <path class="st5" d="M463.25,749.67c-4.39.82-4.04,13.71-4.04,13.71.24,0,.64-.12,1.11-.3l-.44.3s16.8.54,16.97-10.2c0-1.37-9.21-4.34-13.6-3.52Z"/>
  <path class="st25" d="M686.42,778.98c-2.47-4.94-16.13-16.83-24.09-13.81-7.96,3.02-10.16,20.31-10.16,20.31.09.02.21.02.31.03,1.35.24,17.76,2.87,33.94-6.54Z"/>
  <path class="st14" d="M311.37,717.07s1.56,12.33,3.37,18.22c1.59,5.15,8.37,13.08,8.22,16.5-.02.49-.18.88-.52,1.17-2.72,2.26-20.78,6.46-20.78,6.46l9.72-42.35Z"/>
  <path class="st25" d="M238.63,762.91s3.06,4.98,15.81,3.99c12.75-1,11.22-1.74,11.22-1.74,0,0,16.32-.5,25.5-2.24,9.18-1.74,11.98-3.49,11.98-3.49,0,0,18.74-2.82,20.02-4.81,1.27-1.99-3.62-11.23-11.86-11.88-3.89-.31-9.94,10.21-9.94,12.46,0,0-18.36-13.2-25.5-10.71-7.14,2.49-10.2,17.19-10.2,17.19,0,0-7.9-12.21-11.22-12.46-3.31-.25-16.32,10.71-15.81,13.7Z"/>
  <path class="st28" d="M423.77,415.72s2.57,227.48,139.57,223.91l-2.35-15.23s-10.93,1.01-49.06-33.54c-38.12-34.55-63.14-175.13-63.14-175.13h-25.02Z"/>
  <path class="st28" d="M649.65,605.04s21.81-130.24,19.32-174.79c-2.49-44.55-1.25-29.6-1.25-29.6l22.13,2.76s14.3,19.86-9.04,195.71c0,0,.1,1.66-1.29,1.86s-12.51-1.99-14.89-.99-13.11,7.55-13.9,7.35-1.08-2.29-1.08-2.29Z"/>
  <path class="st24" d="M560.99,624.39l2.35,15.23s-5.69.82-16.42.08c-10.72-.74-39.91-10.28-53.46-23.98,0,0,34.25,3.13,35.15,1.34s12.21-2.83,12.21-2.83c0,0,18.44,10.04,20.17,10.16Z"/>
  <path class="st24" d="M654.75,572.24l-5.1,32.8s.19,2.94.93,2.79,14-7.6,14.74-7.6,14.59,2.08,15.04,1.04,5.66-43.63,5.66-43.63c0,0-11.17,14.89-13.7,15.64s-5.96-2.83-6.85-2.83-8.34-13.25-8.34-13.25l-2.38,15.04Z"/>
  <path class="st20" d="M397.85,367.08s82.01,28.92,281.06,38.89c0,0,50-13.8,63.82-55.72,13.82-41.93,30.53-86.57,13.67-114.53-16.86-27.96-110.56-50.06-144.75-66.55-34.2-16.49-196.69-55.52-216.24-45.24-19.55,10.28-118.72,212.2,2.45,243.16Z"/>
  <path class="st19" d="M382.79,308.19s312.45,63.35,336.61,32.52c24.17-30.83,23.55-116.83,19.85-119.9,0,0,20.88,8.51,24.28,23.62,3.39,15.11.37,80.51-24.96,121.42-25.33,40.91-57.49,44.94-67.46,43.19s-209.13-14.56-287.07-45.99c0,0-12.52-32.04-1.25-54.85Z"/>
  <path class="st3" d="M384.04,363.04s-40.45-3.88-46.74-46.11c-6.29-42.23,16.34-166.48,58.1-193.01,0,0,3.41-6.71,47.08,1.77,0,0-76.04,144.75-58.44,237.35Z"/>
  <polygon class="st3" points="757.38 287.5 771.94 294.09 773.21 298.34 771.02 302.8 755.24 296.2 757.38 287.5"/>
  <path class="st4" d="M740.23,336.9c2.21,1.19,10.91,6.75,19.93,5.92s19.52-37.7,15.66-43.22l-3.87-5.52s-7.71,30.1-10.6,32.81-19.83-1.87-19.83-1.87l-1.28,11.87Z"/>
  <path class="st1" d="M385.86,314.78s201.14,35.94,236.96,38.6c35.82,2.66,79.4,2.46,90.13-3.52s19.93-17.06,22.79-29.87c2.85-12.8,15.17-65.68,8.58-97.08l4.28,3.17s3.78,61.14-9.55,95.7c-13.33,34.55-39,36.09-39,36.09,0,0-37.64,4.27-81.09.27-43.45-4-233.92-38.67-233.92-38.67l.82-4.69Z"/>
  <path class="st17" d="M461.66,113.99s-53.49,125.48-54.1,139.28c0,0,126.4,3.45,148.49,8.54,22.09,5.09,74.81,35.52,74.81,35.52,0,0,27.87-107,26.41-119.35-1.46-12.35-164.44-100.25-195.61-63.99Z"/>
  <path class="st2" d="M407.56,253.27s-3.95,25.92.33,29.09,202.97,39.28,211.49,38.96c8.52-.32,11.47-23.99,11.47-23.99,0,0,3.41-9.08-9.16-16.73-12.57-7.65-82.19-31.37-83.95-31.68s-130.19,4.35-130.19,4.35Z"/>
  <path class="st19" d="M663.99,372.1s-1.05,2.54-.62,3.52,1.69,2.41,2.49,1.34,1.36-4.3,1.36-4.3l-3.23-.57Z"/>
  <path class="st19" d="M675.09,374.35s-1.21,3.42-.19,4.5,3.42,1.21,3.14-.66-.5-4.02-.5-4.02l-2.45.17Z"/>
  <path class="st20" d="M584.01,154.21s11.91-3.57,15.49,4.77l-19.06,79.82s-14.89,7.15-20.25-7.15l23.83-77.44Z"/>
  <path class="st2" d="M407.56,253.27s98.82-15.08,130.19-4.35c31.37,10.73,34.95,27.41,34.95,27.41l-165.14-23.06Z"/>
  <polygon class="st1" points="590.57 158.38 569.12 232.25 573.89 233.44 595.33 157.19 590.57 158.38"/>
  <path class="st8" d="M570.91,226.89s-6.55,5.36.6,5.36,4.77-7.15,4.77-7.15l-5.36,1.79Z"/>
  <path class="st8" d="M570.61,229.86l-4.17,20.55s6.25,2.68,7.74.89-.6-21.74-.6-21.74l-2.98.3Z"/>
  <path class="st17" d="M569.12,245.35s.89,5.06,2.38,3.57,1.19-4.47,1.19-4.47l-3.57.89Z"/>
  <polygon class="st20" points="567.34 265.01 569.72 247.44 572.4 247.14 572.99 266.2 567.34 265.01"/>
  <g>
    <path class="st22" d="M547.78,360.85c-.64-.12-69.01-8.43-78.54-11.78-9.54-3.35-15.02-3.29-15.05,0s15.11,19.14,58.73,22.35c43.63,3.21,34.86-10.57,34.86-10.57Z"/>
    <path class="st11" d="M547.14,360.72l12.62-.87v3.19l-12.62,2.67s-2.36-4.83,0-4.99Z"/>
    <path class="st9" d="M461.93,351.13c.95.61,42.23,14.33,79.44,12.5l2.35.17s-12.11,3.61-47.22-2.4c-35.11-6.01-34.57-10.26-34.57-10.26Z"/>
  </g>
  <path class="st3" d="M433.63,329.61s-2.38,40.43,4.77,43.8,19.06,5.9,19.06,5.9l3.97-42.12-27.8-7.58Z"/>
  <path class="st3" d="M502.66,383.25l-46.83-4.18,4.22-42.24,46.84,10.04-4.23,36.38ZM458.44,376.91l42.12,3.76,3.71-31.93-42.12-9.02-3.72,37.19Z"/>
  <rect class="st3" x="474.2" y="335.8" width="2.38" height="48.56" transform="translate(-119.44 317.28) rotate(-33.03)"/>
  <rect class="st3" x="481.07" y="336.56" width="2.38" height="48.56" transform="translate(-118.75 321.15) rotate(-33.03)"/>
  <rect class="st3" x="487.17" y="337.11" width="2.38" height="48.56" transform="translate(-118.06 324.56) rotate(-33.03)"/>
  <rect class="st3" x="493.92" y="341.2" width="2.38" height="28.88" transform="translate(-113.64 323.52) rotate(-32.67)"/>
  <rect class="st3" x="497.31" y="343.62" width="2.38" height="18.75" transform="translate(-112.01 333.24) rotate(-33.45)"/>
  <rect class="st3" x="500.84" y="345.32" width="2.38" height="10.61" transform="translate(-110.17 337.37) rotate(-33.69)"/>
  <rect class="st3" x="469.73" y="337.77" width="2.38" height="45.72" transform="translate(-120.49 315.29) rotate(-33.06)"/>
  <rect class="st3" x="465.04" y="339.66" width="2.38" height="43.57" transform="translate(-121.8 314.17) rotate(-33.19)"/>
  <rect class="st3" x="460.73" y="341.2" width="2.38" height="41.58" transform="translate(-122.96 313.79) rotate(-33.37)"/>
  <rect class="st3" x="456.59" y="343.5" width="2.38" height="38.4" transform="translate(-123.67 307.71) rotate(-32.99)"/>
  <rect class="st3" x="452.99" y="345.44" width="2.38" height="36.37" transform="translate(-125.18 310.31) rotate(-33.42)"/>
  <path class="st3" d="M493.19,382.32l-8.45-.74,13.68-10.65-1.04-1.58-14.6,12.01-8.79-1.03,19.68-16.65-.63-.96-20.23,17.62-9.51-.35,19.42-16.66-20.27,16.09-5.82-1.11-.89-2.91,30.64-22.86-.7-1.07-30.05,21.93.92-7.92,26.02-18.77-.84-1.28-24.88,17.57.66-9.09,17.47-11.48-3.27-.65-10.85,6-1.15-2.08,11.61-6.43,9.82,1.96-21.34,14.03-.21,2.9,20.83-14.71-.42-.63,1.99-1.31.37.56.44-.31,8.26,1.76-5.27,3.8.49.75,5.64-4.12,7.99,1.45-10.33,7.71.74,1.12,10.58-8.4,5.18.57-13.37,11.47.81,1.24,13.62-11.86-1.61,9.5-8.72,7.38,1.1,1.68,7.51-6.18-1.18,9.77-2.63,2.05,2.39,3.65-10.82,7.21ZM490.99,379.74l1.58.14,8.15-5.44-.99-1.51-8.74,6.81ZM479.72,378.6l2.33.27,14.02-11.53-1.09-1.66-15.27,12.91ZM469.47,377.84l2.48.09,19.76-17.22-.82-1.25-21.42,18.38ZM458.58,376.26l3.24.62,26.64-21.15-.77-1.18-29.11,21.71ZM499.23,367.82l1.07,1.64,1.7-1.32.35-2.88-3.12,2.56ZM458.79,366.82l-.17,1.46,25.75-18.79-.5-.76-25.08,18.09ZM494.85,361.14l.65.99,7.83-6.63.35-2.06-8.83,7.7ZM487.6,350.08l.69,1.05,5.83-4.35-1.6-.29-4.91,3.59ZM483.91,344.44l.59.89.82-.59-1.41-.3Z"/>
  <g>
    <path class="st27" d="M720.83,273.39c6.71-1.42,13.18-2.79,19.4-4.14,73.74-15.92,112.57-26.62,118.75-30.45,10.66-10.31,13.79-16.97,13.82-17.04l-.05.11,16.3,6.93c-.42.98-4.47,9.97-18.1,23.05-2.3,2.21-6.15,5.9-51.57,17.32-30.97,7.79-68.08,15.88-93.75,21.3-1.31.28-77.3-1.81-4.81-17.09Z"/>
    <path class="st15" d="M869.66,226.29l16.04,9.58s16.58-20.03,15.65-27.74-28.83,6.08-31.69,18.15Z"/>
  </g>
  <path class="st20" d="M737.05,291.38l-29.89,2.71-23.52-10.43s14.82-18.75,16.17-17.46,35.7-2.75,35.7-2.75l4.73,5.81-3.18,22.12Z"/>
  <polygon class="st19" points="739.91 268.86 737.17 290.51 741.97 288.83 744.83 268.26 739.91 268.86"/>
  <path class="st1" d="M746.16,249.44l-9.55,66.66,10.38-30.18s-5.57-11.69,1.57-18.96l-2.4-17.52Z"/>
  <g>
    <path class="st8" d="M736.43,310.78s1.04,6.28,4.55,5.52c3.52-.76,5.64-3.37,3.9-4.79s-7.32-5.24-8.46-.74Z"/>
    <path class="st8" d="M739.13,314.79s-2.88,15.86-1.09,18.67,3.03,3.28,6.29,2.95c3.26-.33-2.29-22.52-2.29-22.52l-2.9.89Z"/>
    <polygon class="st2" points="740.15 330.73 743.7 331.28 747.05 346.42 740.76 343.87 740.15 330.73"/>
  </g>
  <g>
    <path class="st8" d="M744.93,229.29s-5.77,3.02-1.42,5.8c4.35,2.78,5.78,3.84,6,.25.23-3.59-4.58-6.05-4.58-6.05Z"/>
    <path class="st8" d="M745.48,235.33s-5.95,20.12-3.33,22.4c2.62,2.28,6.14,2.89,6.61.25s-.35-22.14-.35-22.14l-2.93-.52Z"/>
    <polygon class="st2" points="744.19 254.76 747.33 254.1 747.72 269.59 742.66 267.5 744.19 254.76"/>
  </g>
  <path class="st6" d="M901.79,220.7s-6.31,31.79,6.59,30.3c12.9-1.49-6.59-30.3-6.59-30.3Z"/>
  <path class="st6" d="M840.36,258.31s-10.99,14.04-8.52,18.98c2.48,4.94,15.88,9.07,8.52-18.98Z"/>
  <path class="st6" d="M874.81,282.77s-5.05,30.75,4.33,29.74-4.33-29.74-4.33-29.74Z"/>
  <path class="st16" d="M72.37,65.68s27.5,4.5,33.5,15.5l6,11s23.5-15.5,31.5-13.25,13.5,5.25,13.5,5.25c0,0-17-.5-25,4s-17.25,10.5-17.25,10.5c0,0-4.75,10.5-8.75,0,0,0,0-15.06-14.5-21.03s-19-11.97-19-11.97Z"/>
  <path class="st16" d="M156.87,122.02s19.17.67,25.17,6.67,17.33-2.67,20.67,0,11.33,11.33,11.33,11.33c0,0-9-9.33-14.67-7.67s-12.33,3.67-12.33,3.67c0,0-5.15,7.18-6.33-1s.06-1.85.06-1.85c0,0-4.06-6.48-23.89-11.15Z"/>
  <path class="st16" d="M207.87,58.68s27,1.5,29.5,7l2.5,5.5,2.5-5.5s22.28-11.18,27.28-8.68c0,0-18.78,4.68-21.28,8.68s-7.5,10.5-7.5,10.5l-7.5-8.96-25.5-8.54Z"/>
</svg>