<?xml version="1.0" encoding="UTF-8"?>
<svg id="Vrstva_1" xmlns="http://www.w3.org/2000/svg" xmlns:xlink="http://www.w3.org/1999/xlink" version="1.1" viewBox="0 0 100 100">
  <!-- Generator: Adobe Illustrator 29.8.2, SVG Export Plug-In . SVG Version: 2.1.1 Build 3)  -->
  <defs>
    <style>
      .st0 {
        fill: none;
      }

      .st1 {
        fill: #6e4777;
      }

      .st2 {
        clip-path: url(#clippath-1);
      }

      .st3 {
        clip-path: url(#clippath-3);
      }

      .st4 {
        clip-path: url(#clippath-2);
      }

      .st5 {
        fill: #ebd8f0;
      }

      .st6 {
        fill: #8e6b96;
      }

      .st7 {
        fill: #f6ebfa;
      }

      .st8 {
        clip-path: url(#clippath);
      }

      .st9 {
        fill: #e8bcb7;
      }
    </style>
    <clipPath id="clippath">
      <rect class="st0" x="-.56" y="-1.11" width="99.84" height="101.43"/>
    </clipPath>
    <clipPath id="clippath-1">
      <rect class="st0" x="25.13" y="17.57" width="50.33" height="61.19"/>
    </clipPath>
    <clipPath id="clippath-2">
      <rect class="st0" x="34.06" y="26.75" width="33.97" height="45.68"/>
    </clipPath>
    <clipPath id="clippath-3">
      <rect class="st0" x="23.61" y="17.55" width="54.06" height="62.39"/>
    </clipPath>
  </defs>
  <rect class="st9" x="-1.88" y="-.07" width="103.33" height="101.14"/>
  <g class="st8">
    <g>
      <path class="st9" d="M89.93,50.46c0-.43.36-.79.79-.79s.79.36.79.79-.36.79-.79.79-.79-.36-.79-.79Z"/>
      <path class="st9" d="M89.92,49.48c0-.43.36-.79.79-.79s.79.36.79.79-.36.79-.79.79-.79-.36-.79-.79Z"/>
      <path class="st9" d="M87.06,48.25c-.22-2.78-.04-6.27,3.55-6.38,1.95,0,3.56,1.62,3.57,3.56.22,2.78.04,6.28-3.55,6.38-1.95,0-3.56-1.62-3.57-3.57h0Z"/>
      <path class="st9" d="M92.15,29.47c-3.4-8.43-8.7-16.32-16.66-21.08C66.51,1.99,55.21-.85,44.4,1.95c-13.99,3.59-28.26,9.43-34.75,23.28C2.99,38.3-.29,54.3,4.64,68.47c5.53,15.6,19.87,28.77,36.84,29.67,3.43.29,6.9.21,10.31-.22,5.78.25,11.48-1.25,16.81-3.41,6.16-1.95,12.12-5.06,16.45-9.94,2.31-3.03,7.55-8.22,6.02-12.14,1.4-2.44,2.58-5,3.51-7.7,4.41-11.67,1.69-23.95-2.45-35.26h.02ZM73.53,80.19c-.49.4-.97.79-1.47,1.17.48-.41.94-.82,1.41-1.23.02.02.04.04.05.06,0,0,.01,0,0,0Z"/>
    </g>
  </g>
  <g class="st2">
    <g>
      <path class="st5" d="M30.36,51.46c-1.59-2.18-1.05-5.08-1.16-7.61.05-3.77.08-7.59.82-11.31.38-3.28,4.41-4.85,5.87-1.45.9-.38,1.84.06,2.17,1.01.21,2.07-.4,4.22-.51,6.31-.25,2.43-.51,4.7-.61,7.03.04.5-.39.95-.89.97-.4,2.06.61,6.49-2.75,5.96-1.06.35-2.25,0-2.97-.9h.03Z"/>
      <path class="st7" d="M74.23,70.84c-.38-2.88-.76-5.76-1.1-8.65.54-.61.56-1.52.47-2.31-.1-2.61.06-5.22.23-7.82.25-6.13.63-12.28-.18-18.39-.4-2.97.79-6.08-.18-8.94-.22-1.12.27-2.37-.57-3.31-2.35-2.59-5.82.31-8.71-.25-5.35-.84-10.18.27-15.45.34-2.03.04-4.04.29-6.05.23-1.26-.08-2.7-.16-3.65.83-2.99-.01-8.43-3.78-10.64-1.17-.03,0-.05-.01-.08,0-.67.02-1.39.11-1.87.64-.84.86-.43,2.04-.23,3.07.05.5.29,1.01.67,1.33.09.88.31,1.82.42,2.78-1.9,8.75-.11,17.93-.06,26.81.38,4.57-.37,9.15-.05,13.73.31,1.85-.1,3.89.37,5.66,1.66,3.09,6.21.7,8.98,1.13,2.56.48,5.07.99,7.68,1.14,2.24.11,4.94.16,6.73-1.36.67-.02,1.34-.04,2.01-.08.22.37.5.7.84.99,1.23,1,2.83.84,4.29.7,2.26-.22,4.48-.71,6.6-1.55,2.26.13,3.96.22,6.14-.62.89.76,2.5.53,2.96-.62,1.42-.9.54-2.92.47-4.29v-.02h-.04ZM39.2,68.5c-.24,0-.49.02-.73.04v-.11c.09-.06.16-.13.24-.19.24.11.49.19.76.25h-.27ZM41.04,68.43c.84-.23,1.6-.79,2.08-1.53.39.68,1.03,1.19,1.77,1.47-1.28.02-2.56.03-3.83.06h-.02ZM65.82,68.11c-.4-.06-.8-.13-1.2-.19-.52-.09-1.04-.13-1.56-.15.12-.83.25-1.68.37-2.51.09-.64.18-1.29.28-1.93,2.62-1.81,1.57-5.44,1.75-8.13-.29-2.52.86-5.77-1.34-7.65,0-.55,0-1.12.02-1.67.35.44.76.8,1.27,1.12.14.09.28.16.42.22.57,6.96-.29,13.94,0,20.91h-.01v-.02Z"/>
    </g>
  </g>
  <g class="st4">
    <g>
      <path class="st6" d="M62.39,71.32c-8.42-.8-3.75-11.35-3.83-16.78.51-2.97-.08-5.77.16-8.67.35-1.02.03-2.2.41-3.23-.92-1.35-2.1-2.63-2.55-4.25-.68-.7-1.32-1.47-1.73-2.38-1.44-.3-3.27.1-4.38-1.07-2.51.32-4.8,1.7-6.81,3.13-.97,1.22-1.71,2.62-2.71,3.83-.36.4-.89.68-1.43.52-2.12,2.61-5.19-.21-4.26-2.98,1.48-4.76,6.51-7.13,10.59-9.32,2.11-.89,5.84-3.12,7.12-.03,2.86-1.84,5.48,1.93,7.13,3.86,1.2-.88,2.77.06,3.09,1.42,1.49,2.3,2.29,4.93,2.53,7.65.19,2.03.21,4.06.37,6.09-.02,1.15.21,2.44-.55,3.41.25,3.36,2.22,19.62-3.14,18.78h0v.02Z"/>
      <path class="st6" d="M46.33,71.31c-5.36-1.25-10.78-1.91-10.32-8.89.55-3.07,1.03-6.65,3.51-8.84-.5-1.99,2.21-2.57,3.56-3.21,2.1-1.73,5.62-4.47,8.28-2.46,2.2-.7,6.51-1.45,7.86.93,1.23.58,2.31,2.23,1.15,3.39-.65.65-1.81.69-2.44,0h0c-1.36-.76-3.15-.57-4.67-.93-3.87,1.13-7.39,3.36-10.15,6.21-.68.75-1.33,1.56-1.47,2.59-.25,1.08-.04,2.37-.76,3.28.19.58.49,1.12.77,1.67,1.47.61,2.96,1.21,4.43,1.82,3.01.18,5.99-.52,8.6-2.04.99-.28,2.01-.78,2.87-.56.87.28,1.35,1.12,1.14,2.01-.25,1.03-1.26,1.36-2.16,1.65-1.43.67-2.82,1.39-4.39,1.69-.68.79-1.86.68-2.76,1.12-1.02.17-2.01.78-3.05.58h0Z"/>
    </g>
  </g>
  <g class="st3">
    <g>
      <path class="st1" d="M41.63,22.74c-4.63-.48-9.3-.7-13.96-.63-.05.08-.14.12-.26.12-.1,0-.21-.04-.3-.1-.84.14-2.42-.12-1.86-1.3.19-.31.49-.47.83-.54,1.82-.44,3.65-.78,5.52-.81,3.8-.1,7.6-.03,11.37.44,5.47.27,10.9-.22,16.32-.5,3.49.01,6.96-.04,10.43-.42,1.26-.11,2.51-.05,3.77-.09.91-.15,1.93.28,2.05,1.29.18,1.95-2.11,1.83-3.48,1.83-2.9.02-5.78.53-8.69.52-7.27-.15-14.5.82-21.75.18h.01Z"/>
      <path class="st1" d="M24.96,75.8c.21-14.54-.42-29.03-.17-43.57.13-1.44-.9-14.4,2.26-10.89h0c.11.23.15.49.17.74.02.24.04.49.04.73.09.09.13.23.1.35-.02.05-.04.11-.09.14.16,12.53.48,25.08.6,37.61-.03,4.28-.04,8.58-.11,12.86-.1,1,.29,2.21-.42,3.02-.84.88-2.4.23-2.39-1h.01,0Z"/>
      <path class="st1" d="M73.78,74.29c-.52-8.68-.16-17.45-.32-26.17-.37-8.86-.89-17.79.22-26.61-.04-1.44,1.54-2.39,1.97-.58,1.21,9.63.57,19.39,1,29.08-.02,6.56.08,13.14-.15,19.69-.34,1.61.89,5.37-1.43,5.57-.62,0-1.1-.41-1.29-.99h.01-.01Z"/>
      <path class="st1" d="M53.69,79.68c-7.54-.13-15.13-.27-22.62-1.14-1.71-.35-3.86.06-5.3-1.03-.82-1.27.75-1.99,1.83-1.93,6.66-.45,13.28.78,19.94.62,8.78.43,17.61-.66,26.36-.6.6-1.36,2.83-.54,2.36.89-.89,2.82-5.77,1.84-8.17,2.48-4.81.16-9.62.53-14.43.71h.03Z"/>
      <path class="st1" d="M66.47,71.8c-3.36-1.42-1.52-7.64-1.55-10.54.16-4.91.13-9.81.16-14.72-.05-2.79-.39-5.5-1.64-7.95-3.47-7.67-12.85-10.3-19.96-5.96-2.71,1.59-5.08,3.7-6.63,6.41-.52,1.18-.84,3.55-2.68,2.47-1.78-2.23.81-5.37,2.26-7.14,2.49-2.97,5.75-5.09,9.46-6.21,7.46-2.42,16.22,1.19,19.8,8.17,3.27,5.55,2.33,12.27,2.55,18.45.24,4.64-.28,9.27-.18,13.89,1.85,1.1.37,3.96-1.6,3.14h.01,0Z"/>
      <path class="st1" d="M44.14,73.66c-4.45-.61-7.94-4.21-9.89-8.07-1.44-4.24-.23-9.26,2.19-12.92,4.5-7.31,13.86-8.33,21.6-6.73.05-5.1-3.42-11.25-9.28-9.09-1.55.56-3.36,1.13-4.17,2.71-.38,1.08-.54,2.25-1.23,3.21-1.07,1.57-3.02,2.39-4.9,1.94-1.85-.21-4.14-1.31-4.08-3.44.08-.57.21-1.52.91-1.58.65.03.75.81.9,1.31.14.45.53.7.94.92,2.92.82,3.78-.4,4.84-2.89.74-1.23,1.92-2.17,3.17-2.83,9.38-4.86,15.03,1.05,14.76,10.63.62,1.01-.51,2.11-1.57,1.82-.68-.11-1.34-.22-2.03-.28-2.61-.05-5.28-.3-7.87.12-7.28.99-12.64,7.8-11.81,15.06,1.87,7.01,8.56,8.48,14.79,6.27,2.34-.86,4.2-2.35,6.43-3.34.81-.3,1.44.31,1.84.95.57.63.86,1.47,1.42,2.11.57.42,1.29.61,1.99.65,1.59.43,3.23-2.33,4.52-.49.71,1.3-.74,2.01-1.73,2.44-2.91,1.53-7.07.12-7.95-3.18-3.91,3.04-8.74,5.35-13.8,4.69v.02h0Z"/>
      <path class="st1" d="M49.11,65.09c2.44-.35,4.81-1.17,7.03-2.09.15-2.98-.22-5.96-.23-8.94-3.78-.12-7.6.61-10.47,3.16-4.52,4.9-2.92,8.29,3.67,7.86h0ZM46.24,67.66c-2.43.01-4.86-1.47-6.02-3.6-.96-2.68.38-5.65,1.87-7.87,2.21-3.26,6.18-5.16,10.07-5.31,2.13.12,4.53.06,6.39,1.26.69.39,1.56,1.45.64,2.08.06,2.87.49,5.78-.12,8.62-.17.71-.38,1.55-1.06,1.95-3.8,1.34-7.6,3.22-11.78,2.87h.01Z"/>
    </g>
  </g>
</svg>