<?xml version="1.0" encoding="UTF-8"?>
<svg id="Vrstva_1" xmlns="http://www.w3.org/2000/svg" version="1.1" viewBox="0 0 1417.32 708.66">
  <!-- Generator: Adobe Illustrator 29.7.1, SVG Export Plug-In . SVG Version: 2.1.1 Build 8)  -->
  <defs>
    <style>
      .st0 {
        fill: #82a0b9;
      }

      .st1 {
        fill: #d4edfc;
      }

      .st2 {
        fill: #f7a833;
      }

      .st3 {
        fill: #fff;
      }

      .st4 {
        fill: #0f4c59;
      }

      .st5 {
        fill: #fbceb4;
      }

      .st6 {
        fill: #ecf7fe;
      }

      .st7 {
        fill: #fee0bc;
      }
    </style>
  </defs>
  <rect class="st7" x="-33.37" y="-23.89" width="1484.93" height="754.46"/>
  <path class="st5" d="M430.6,230.43c6.4-5.61,76.9-23.95,105.62-23.95s28.72-5.56,42.62,0c13.9,5.56,20.22,8.34,44.85,4.63s34.73,3.88,49.6,6.11,55.64-3.16,76.95,0,54.41,13.21,54.41,13.21h-374.07Z"/>
  <path class="st0" d="M445.68,224.34s19.81-6.35,39.06-10.24c19.24-3.89,29.79-2.94,34.02,0s2.9,3.38,7.36,3.83,21.18-4.23,20.96-3.34-2.01,6.59-.89,5.75,32.11,2.63,33.89,0-.67-5.09,4.91-2.41,45.04,7.23,61.54,6.41,21.18-2.83,37.9-1.27,39.69,2.23,39.69,2.23c0,0-12.93,13.82-13.6,13.6s-264.83-14.56-264.83-14.56Z"/>
  <path class="st0" d="M1108.54,37.57s2.78.28,3.61.97.69,1.81.69,1.81v1.11s-.42-.97-.97-.97-1.95.97-1.95.97c0,0,2.66,2.78,2.93,3.89.27,1.11.84,7.78,0,7.78s-4.18-5.7-5.85-8.48l-1.67-2.78-5.42-.69-2.78.83s-2.22-2.5-.97-2.5,3.47.42,3.47.42c0,0,2.36-1.53,3.34-1.67,0,0-.42-1.95-.83-3.89-.42-1.95-1.53-8.9-1.53-8.9,0,0,4.03,4.73,5.7,6.39,1.67,1.67,2.22,5.7,2.22,5.7Z"/>
  <path class="st5" d="M887.1,143.41s20.5-3.44,29.09-3.44,60.12-33.87,70.18-35.09,20.12-2.21,24.29,0,28.47-3.68,62.33,2.7c33.87,6.38,54.23,8.83,63.56,8.83s29.45-10.06,37.55-10.55c8.1-.49,7.12,2.21,21.84,8.1s47.12,4.58,60.37,9.53c13.25,4.95,36.07,13.79,47.61,15.75,11.53,1.96,9.57,3.68,21.84,6.14,12.27,2.45,32.88,3.68,37.55,1.47,4.66-2.21,12.02-2.21,20.61-2.7s18.16-6.38,23.31-1.96,15.59,12.76,20.12,14.72l4.53,1.96,1.11,81.23h-672.4s73.37-57.18,86.14-63.07c12.76-5.89,35.85-32.9,40.36-33.62Z"/>
  <path class="st0" d="M887.1,150.77s5.28,5.64,16.57,11.29c11.29,5.64,42.7,3.93,47.61,2.94s13.01-7.26,21.6,1.03,10.55,18.11,21.1,20.56,12.02,2.21,16.2,7.36l4.17,5.15s17.67-19.63,25.52-19.63,2.45,1.72,10.8,7.61c8.34,5.89,19.39,1.96,36.32,12.02,16.93,10.06,32.39,13.25,36.56,13.01s12.52-7.85,12.52-7.85c0,0-13.99-20.85-14.72-22.82s-.74-7.86-.74-7.86c0,0,3.44,7.36,7.36,12.76,3.93,5.4,12.52,16.93,15.21,16.69s-30.41-34.11-38.64-43.93-14.61-20.86-23.2-29.2-17.67-16.44-15.71-15.95,7.36,1.47,15.95,6.14c8.59,4.66,34.85,23.56,45.64,36.56,10.8,13.01,26.49,32.15,32.27,38.04,5.77,5.89,2.83,7.12,9.94,9.08,7.12,1.96,22.33-7.85,26.01-6.14,3.68,1.72,12.76,5.4,16.44,2.21,3.68-3.19,4.91-7.36,8.34-5.64s19.88,7.61,23.07,6.63,3.68-2.94,2.94-3.68-5.89-3.44-1.96-3.44,6.87,1.72,6.14,1.23-7.85-6.87-12.52-15.21c-4.66-8.34-11.04-14.97-7.36-13.01,3.68,1.96,14.72,17.42,22.82,23.07s12.02,10.55,15.95,13.5c3.93,2.94,6.63,2.94,6.63,2.94,0,0-17.42-18.74-31.17-34.4-13.74-15.66-32.88-32.84-41.23-41.18-8.34-8.34-16.44-14.48-14.23-14.48s17.18,11.53,27.24,17.67,51.78,41.72,60.61,51.53c8.83,9.82,21.35,27.98,21.35,27.98,0,0,10.31,9.08,19.14,11.29s55.22-16.2,75.83-13.5c20.61,2.7,39.19,5.4,39.19,5.4l.32,23.56h-672.4s77.36-61.81,87.85-66.75,14.2-12.33,18.51-12.18,18.05,6.53,20.14,3.59-1.62-15.51,0-13.99Z"/>
  <path class="st0" d="M904.16,149.42s17.18,23.6,17.91,22.42,1.43-2.69,1.23-4.37-4.17-3.81-2.45-6.81,6.7-1.29,2.49-4.48-19.18-6.75-19.18-6.75Z"/>
  <path class="st0" d="M992.26,130.16c0,.74,4.66,5.89,6.63,10.55,1.96,4.66,2.21,3.93,1.47,6.14s.38,5.89.38,5.89c0,0,1.34-3.44,1.58-7.61.25-4.17,0-4.42-1.47-6.14-1.47-1.72-8.59-8.83-8.59-8.83Z"/>
  <path class="st0" d="M1071.28,138.5s29.2,39.51,35.58,46.63c6.38,7.12,15.21,15.21,15.21,15.21l-1.72-5.15s-15.21-20.86-18.65-25.77-30.43-30.92-30.43-30.92Z"/>
  <path class="st5" d="M1309.56,126.23c.34-.92-3.44.98-8.1,0s-19.14,2.45-17.91-1.23c1.23-3.68,11.78-8.83,14.23-7.12l2.45,1.72s7.12-1.47,9.33,0c2.21,1.47,9.57-.74,10.8.25s6.38-1.05,8.83,2.3-6.38,4.88-7.36,4.6-13.25,2.18-12.27-.52Z"/>
  <path class="st5" d="M1333.61,127.51s4.91-2.16,6.87,0c1.96,2.16,2.94-.19,6.87,0s1.96-.05,3.93.19,7.36-4.17,14.97-2.7,9.57,2.7,9.08,4.42c-.49,1.72,4.31,4.66.07,4.42s-7.68-2.94-7.68-2.94c0,0,.49,3.22-3.68,2.96l-4.17-.26s-4.66,2.51-7.12.27.49-4.12.49-4.12c0,0-9.33,4.09-14.23,2.62s-7.11-4.27-5.4-4.86Z"/>
  <path class="st5" d="M1402.32,133.1s-5.64-.08-3.19-3.35c2.45-3.27,5.89,0,5.89,0,0,0,8.1-.08,6.38,3.35s-9.08,0-9.08,0Z"/>
  <path class="st5" d="M1263.67,110.28s.74-3.93,4.91-3.19,4.91,1.55,4.91,1.55c0,0,5.4-1.55,5.15,1.64-.25,3.19-4.66,4.62-5.64,3.66s-10.8,1.98-9.33-3.66Z"/>
  <path class="st5" d="M1107.35,101.2s4.66-5.64,8.1-2.7,3.68,6.87,3.68,6.87c0,0,8.1,2.7,2.94,4.17s-11.04-2.64-11.04-2.55-13.01,3.34-14.36,0,10.67-5.8,10.67-5.8Z"/>
  <path class="st3" d="M1433,225.7s-236.71,8.4-322.82-.6c-86.11-9-276.6-3-402.59,0s-215.99-3.75-314.98-.38-406.78-4.38-406.78-4.38v502.49h1445.67l1.51-497.13Z"/>
  <path class="st1" d="M-10,627s13.33-4.67,26-4.67,14.67,7.33,20.67,0,12.67-9.33,20.67-7.33,23.33,8,38,12-16,6-34,6.67-71.33-6.67-71.33-6.67Z"/>
  <path class="st1" d="M130,639s21.33-11.33,34.67-10,23.33,4.75,30,4.71,20.67-6.26,39.33-4.82,44,2.86,50.67,4.82,31.33,5.29,31.33,5.29c0,0-62,5.33-88.67,4.67s-38,.06-38,.06c0,0-28-2.72-35.33-2.72s-24-2-24-2Z"/>
  <path class="st1" d="M0,670.33c17.33-2.67,25.33-3.33,28.67-4.67s6,2.67,9.33,0,9.33-18.67,38.67-16c0,0,6.37,5.03,22.52,10.18s12.81,3.82,20.81,5.82,15.33,0,8,2-3.63,2-28.81,2.67-21.19,6-50.52,6.67-58.67,0-58.67,0l10-6.67Z"/>
  <path class="st1" d="M332,597.75s13.33,1.87,23.33-4.06,6.67-10.6,21.33-10.6,16.67,2,25.33,4,17.33,3.47,17.33,3.47c0,0-23.33,2.4-33.33,3.13s-48,12.06-54,4.06Z"/>
  <path class="st1" d="M303.33,621.18c10.67-.85,39.33-7.64,46.67-6.91s14,6.42,28.67,6.91,43.33,2.81,43.33,2.81c0,0-32,7.69-56.67,4.68s-62-7.5-62-7.5Z"/>
  <path class="st1" d="M418,603.67s44.67-14.67,61.33-11.33,32.67,14,34.67,11.33-10,1.33-24,0-23.89,0-23.89,0c0,0,29.22,5.33,27.22,6s-80,1.33-75.33-6Z"/>
  <path class="st1" d="M162,681s19.33-4,25.33,0,26.67,13.33,47.33,17.33,32.67,7.33,32.67,7.33c0,0-48.67-6-65.33-6.67s-28-2.44-34.67-6.56-5.33-11.44-5.33-11.44Z"/>
  <path class="st1" d="M503.33,584.33s83.33-1.33,116-6,36.67-9.33,73.33-8,42.67-.67,86,3.33,130.67,13.33,130.67,13.33c0,0-83.33-6-85.33-4s34,9.33,42.67,13.33,48.67,15.51,78.67,16.09l30,.58s-37.33,8.67-116.67-9.33c0,0-24.67-4.32-53.33-11.83s-59.33-9.51-59.33-9.51c0,0-8,4.35,4,9.51s22.67,9.11,22.67,9.11c0,0-48.67,6.61-68.67,0s-28.67-10.09-34-8.35-1.33,10.3.67,8.35,0,8.05-18,2.72-15.33-6.99-34-11.83-72.67,0-72.67,0l70-7.51s-110.67,6-112.67,0Z"/>
  <path class="st1" d="M906,643.72s17.33-9.66,32.67-7.53,28.67,3.61,28.67,3.61c0,0-8.67,1.97-22.67,3.92s-38.67,0-38.67,0Z"/>
  <path class="st1" d="M934.73,315.5s330.15-22.71,385.74-18.16c27.14,2.22,59.03,3.39,84.56,4,26.75.64,46.53.67,46.53.67l-516.82,13.49Z"/>
  <path class="st1" d="M967.33,655s13.33-8.85,34.67-14.76c21.33-5.91,27.33-7.83,34-10.87s6.67-16.12,10.67-7.58.56,20.38,24.61,22.79c24.05,2.41,65.39,8.41,76.72,10.41s52.67,13.33,52.67,13.33c0,0-34.67-6-64.67-6.67s-79.33-8-99.33-8.67-69.33,2-69.33,2Z"/>
  <path class="st1" d="M1060.67,618.94s39.33-7.17,41.33-8.89,6.67-8.38,9.33-6.38c2.67,2,6.67,11.22,18,15.28,11.33,4.06,25.33-1.69,20,2.85-5.33,4.54-32-.54-48,0s-54.67,0-54.67,0l14-2.85Z"/>
  <path class="st1" d="M1189.33,615.09s67.33-1.91,88.67,0,59.33,8.61,59.33,8.61c0,0-24.67,2.03-61.33,0s-99.33-4.75-99.33-4.75l12.67-3.86Z"/>
  <path class="st1" d="M1287.33,610.05c2-2.38,129.33,2.45,121.33,5.03s-81.33-12.75-92-11.42c-10.67,1.33-29.33,6.38-29.33,6.38Z"/>
  <path class="st1" d="M1348.18,591.84c19.81-1.57,18.49-1.51,41.15-4.84,22.67-3.33,43.67-8.67,43.67-8.67v17.33s-17-2-20.33,0c-3.33,2-75.86-2.92-64.49-3.83Z"/>
  <path class="st1" d="M1010,551.67s35.33-10,44-13.33,33.33-16,47.33-20,13.49-11.33,20.74-4.67c7.26,6.67-1.41,11.31,15.92,17.65s38.67,9.68,38.67,9.68c0,0-35.18-2.67-54.59-1.33-19.41,1.33-15.41,5.33-34.08,8s-78,4-78,4Z"/>
  <path class="st1" d="M1240,545.67s95.33,7.33,85.33,6-90-.67-85.33-6Z"/>
  <path class="st1" d="M744.67,548.75l244.67-3.08s-233.33-1.84-244.67,3.08Z"/>
  <path class="st1" d="M332,675.67s47.6,7.33,85.8,8.67,145.53,0,145.53,0c0,0-166.48-4.74-178-4.04s-53.33-4.63-53.33-4.63Z"/>
  <path class="st1" d="M753.33,516.33l109.33,2.67s-109.33,2-109.33-2.67Z"/>
  <polygon class="st1" points="747.33 489 823.33 492.33 744.67 492.33 747.33 489"/>
  <path class="st1" d="M739.33,461.67s2.67-2,18,0,18,0,18,0c0,0-9.46-3.33-14.73-4.67s-21.27,4.67-21.27,4.67Z"/>
  <path class="st1" d="M736,444.33s36,3.33,48,4.67,28.67-2.33,28.67-2.33l-76.67-2.33Z"/>
  <path class="st1" d="M753.33,414.33s48.67-1.33,67.33-6,26-10.67,42-12.67,22-16,43.33-24.67,35.33-15.32,44-17.66,10-7.01,14-4.34,1.33,2,11.33,13.33,32,36.67,34.67,37.33,7.33-1.33,17.33,4,16,8,0,6.67-18.67-4.67-40.67-5.33-84.72,14-128.67,9.33-104.67,0-104.67,0Z"/>
  <path class="st6" d="M983.33,343.67c1.49,1.49,26,28.12,34.67,38.06s28.67,25.94,28.67,25.94l-9.46,4-43.21-11.33-34.14-51.64s15.76-12.73,23.47-5.03Z"/>
  <path class="st1" d="M1003.26,423.67s103.4-18,112.07-26.67c8.67-8.67,4-16.55,20-15.27s19.33-2.06,31.33,3.94-8-1.33,25.33,11.33,38.27,8.67,47.8,14.67c9.53,6-118.47,9.33-132.47,12s-137.33,8-132,7.33,27.93-7.33,27.93-7.33Z"/>
  <path class="st1" d="M1354.67,415.25c12,2.41,3.33-1.75,30,0,26.67,1.75,49.49-.44,49.49-.44v22.86h-64.82s30-9.52,18-11.43-64-4.57-52.67-4.57,20-6.41,20-6.41Z"/>
  <path class="st1" d="M1293.33,341.19s42.67-16.19,65.33-12.19c22.67,4,75.49,12.19,75.49,12.19v7.01s-15.6-9.48-50.55-7.01c-34.94,2.47-117.61,3.81-108.27,3.81s18-3.81,18-3.81Z"/>
  <path class="st1" d="M580.37,302.96c21.33-2.67,22.67,0,44-4.67s38-11.14,58.67-11.9,44.67,0,44.67,0l11.27,8.12s-14.86-3.79-33.93,0-2,9.12-38.67,11.79-90,0-90,0l4-3.33Z"/>
  <path class="st1" d="M420.37,310.29c3.33-3.33,5.67-13.53,5.67-13.53,0,0,11.02-20.47,18.34-18.47s2.66,11.86,8.66,15.93,19.33,16.07,19.33,16.07c0,0,41.33,3.98,29.33,5.99-12,2.01-29.33,0-29.33,0,0,0,38.37,12.68,31.52,12.68s-75.52,8.48-118.85,7.24-62.67.12-62.67.12c0,0,60.67-6.03,78-6.69s38.67-5.05,35.33-4.86-39.53,0-39.53,0c0,0,37.53-4.5,34.87-8.49s-10.67-5.99-10.67-5.99Z"/>
  <path class="st6" d="M457.03,291.55l24.67,19.74h-24.67l-12.66-33s3.88.28,12.66,13.26Z"/>
  <path class="st1" d="M840.09,467.52c2,0,63.33-17.22,94-9.94s78.67,27.97,75.67,28.62-51.67-11.06-64.33-12.87-23.33-1.23-17.33,2.48,20.56,7.51,20.56,7.51c0,0-20.56,9.14-46.56,0s-62-15.81-62-15.81Z"/>
  <path class="st1" d="M38.96,265.69c7.33.2,59.33-6.28,75.33-10.38s25.33-3.24,26.67,0,18.67,13.24,18.67,13.24c0,0-24.67,3.33-36.67,0s-84-2.86-84-2.86Z"/>
  <path class="st1" d="M-10,459.67s71.33-14.65,88-14.99,14-13.96,27.33-12.15,41.33,11.82,46.67,12.15c5.33.33,6,1.66-11.33,3.66s-2.67,8.39-32,11.2-117.33,13.47-118.67.14Z"/>
  <path class="st1" d="M367.7,263.3c6-1.01,39.33-7.62,51.33-12.31s7.35-6.69,25.34-8.69,32.43,7.01,48.21,10.5,42.45,2.88,65.11-.14,36-21.03,51.33-13.69,52.67,25.5,52.67,25.5c0,0-25.33-9.77-46.67-6.3-21.33,3.47-26.67,11.47-73.33,13.47s-174-8.33-174-8.33Z"/>
  <path class="st6" d="M631.7,244.29l30,20.17-71.46-24.45s20.29-9.95,41.46,4.28Z"/>
  <path class="st6" d="M1111.33,603.67s2-4.07,12-.37,52.67,22.43,50.67,20.4-38.67.9-38.67.9c0,0-34.67-11.6-24-20.93Z"/>
  <path class="st6" d="M1046.67,621.79s31.33,19.86,37.33,24.2-1.33,6.34-4,6.34-47.33-10.41-33.33-30.54Z"/>
  <path class="st6" d="M1118,510.98c-.47.02,6.67,2.02,14,5.36s13.01,2,18.5,8c5.5,6,13.58,14.26,13.58,14.26l-48.75-7.27,2.67-20.35Z"/>
  <path class="st1" d="M804.67,313.67s34-22,44-19.33,19.33,14,24,14.67-6.67-1.33-29.33.67-38.67,4-38.67,4Z"/>
  <path class="st1" d="M882,233.67c13.33-2,22.48-6.67,32.57-8.67s15.43,0,24.76,4.33,35.83,7,35.83,7c0,0-47.83.67-63.83,0s-29.33-2.67-29.33-2.67Z"/>
  <path class="st1" d="M1038.52,263c13.33-4.42,10-6.42,20-3.75s6.67-5.07,16.67-1.2,38,3.38,35.33,4.96c-2.67,1.58-25.82,1.99-35.91,2.45s-42.76,0-42.76,0l6.67-2.45Z"/>
  <g>
    <path class="st4" d="M1216.19,668.05s6.04,10.43,16.75,13.18,20.59,2.75,27.73,7.41c7.14,4.67,7.96,6.86,8.79,4.94s-3.84-13.45-5.49-14.55,7.14,4.67,12.08,5.22c4.94.55,10.98,5.77,13.73,4.67s-7.14-10.71-7.41-14.83c-.27-4.12-3.29-7.96-9.06-9.88s-30.47-6.04-36.24-8.79,29.65-29.93,29.65-29.93c0,0,9.33,20.04,19.77,22.79s16.47,1.1,21.14,1.65,6.31,3.29,19.49-3.02c13.18-6.31,17.3-15.37,23.61-15.37s8.51,1.65,10.16,0c1.65-1.65-3.57-6.04-3.57-6.04l3.89-3.29s7.91-1.37,11.76-1.92,8.79,1.92,10.43,0c1.65-1.92-10.71-8.79-13.18-9.61s-3.02-4.39-9.88-4.39-22.51,8.51-22.51,8.51l-22.51-.82-156.22,1.92s-8.51,3.84-10.71,7.41,0,3.84,0,3.84c0,0-.27,1.1-4.39,3.84s-18.67,9.61-18.94,12.63l-.27,3.02,4.12-1.37s-7.69,2.62-7.96,5.01l-.27,2.4,4.67-2.4-2.2,4.32h1.92s-3.29,5.49-2.47,5.49-6.04-.82,7.69,0c13.73.82,25.53-1.1,26.91-2.2s6.31,1.1,9.06,0,4.94,6.31,4.94,6.31c0,0,1.92-.82,1.92,0s4.39,7.69,4.39,7.69c0,0-.27-4.39.55-3.29s2.75,3.02,2.75,3.02c0,0,8.24,1.1,10.16,1.1s25.26-4.67,25.26-4.67Z"/>
    <path class="st4" d="M1135.48,537.1s11.81,23.89,13.73,26.08,12.35-37.34,12.35-37.34l-16.2-146.88,31.85-113.94,32.4-61.5s58.03,14,62.1,9.33c4.07-4.67,5.99-17.02,16.42-25.26s24.43-15.92,29.1-16.2,16.2-1.92,21.41,0c5.22,1.92,6.04,3.84,7.14,3.29s-3.29-18.12-33.49-17.57c0,0-5.22,0-16.2-4.94-10.98-4.94-31.3-16.75-49.69-15.92s-26.91,3.84-40.91,16.2c0,0-7.14,4.67-18.12,17.85-10.98,13.18-17.3,29.65-26.36,36.79-9.06,7.14-23.34,28.28-33.49,67.26,0,0-6.04,12.9-7.69,21.14-1.65,8.24,1.1,9.88-3.29,19.77-4.39,9.88-8.24,27.18-9.88,43.1-1.65,15.92-3.02,40.91-1.92,49.97,1.1,9.06,11.81,83.46,10.16,103.23-1.65,19.77-2.47,57.65,4.12,58.75,6.59,1.1,13.18-9.06,14.83-17.02,1.65-7.96,1.65-16.2,1.65-16.2Z"/>
    <path class="st6" d="M1143.16,495.09s3.84,22.79,6.04,37.61-3.84,12.63,1.92,44.2c5.77,31.57,12.63,60.13,14.83,66.71,2.2,6.59,6.59,17.02,6.59,17.02l1.1-1.65v3.02h1.65l4.12-1.37v-2.2l3.57,9.33v-2.75l2.47,2.75s4.94,6.31,6.86,7.41,4.12,0,4.12,0c0,0,1.65,2.35,2.75.49,1.1-1.86,8.51-1.86,8.79-2.96s3.57,1.1,3.57,1.1c0,0,12.05,4.61,12.07,2.58s-1.66-3.68,0-8.07c1.66-4.39,1.66-6.04,4.68-6.86s12.9-3.02,20.04-7.41l7.14-4.39v2.47l4.94-3.84c2.2-.27,3.02,7.69,5.22,6.31s11.53-1.21,14.83-4.32c3.3-3.11,4.67-9.68,4.94-12.98s2.47-7.69,11.26-9.33c8.79-1.65,14-2.47,18.12-5.49,4.12-3.02,23.06-7.69,23.06-7.69,0,0-12.63-12.9-15.92-14,0,0-3.29-37.89.27-59.58,3.57-21.69,7.41-101.86,6.59-129.86-.82-28-1.92-63.42-14-107.35,0,0-9.33-43.38-15.1-55.73s-12.25-28.55-27.95-35.42c0,0-6.92.82-17.9-4.12-10.98-4.94-29.38-9.61-33.77-9.61s-12.9.82-14.28-4.94c-1.37-5.77,3.29-21.69,1.92-25.81-1.37-4.12-1.65-12.9-20.32,1.92,0,0-17.85,23.61-16.47,29.93,1.37,6.31,5.77,13.73,5.77,13.73,0,0,4.12-8.79,13.73-10.16,9.61-1.37,14.28-2.47,13.45.55-.82,3.02-7.41,10.43-17.57,18.94-10.16,8.51-16.75,19.22-21.96,36.51-5.22,17.3-9.06,22.51-10.98,35.14s-4.39,38.99-8.79,51.07c-4.39,12.08-6.59,15.92-6.59,15.92,0,0,.82,43.38,2.75,55.18s4.39,70.01,2.47,77.97Z"/>
    <path class="st1" d="M1303.22,596.12s-4.67,18.39-7.14,22.79c-2.47,4.39-3.29,3.29-3.29,3.29,0,0,3.84.27-4.94,4.67-8.79,4.39-12.9,3.87-14.83,5.22-1.92,1.35-4.92,3.37-12.35,3.84s-11.03,3.32-14.92,7.08c-3.89,3.76-3.58,14.11-3.58,14.11l13.28-7.46v2.47l4.94-3.84s3.84,9.43,5.22,8.84-.66-.32,7.08-1.97c7.74-1.65,9.35-2.93,11.7-7.64s.21-16.25,7.39-18.11,14.44-3.35,22.96-6.91c8.52-3.57,17.19-6.14,17.19-6.14,0,0-18.84.93-20.49-7.58-1.65-8.51-4.94-16.47-8.24-12.63Z"/>
    <path class="st1" d="M1168.7,626.14s1.92,15.56,4.12,16.93c2.2,1.37.55,5.49,3.29,5.49s7.96,6.31,7.96,6.31c0,0,15.1,8.24,25.26,5.49s17.57-3.22,17.57-3.22l4.39-2s-10.98,2.47-20.32-3.02c-9.33-5.49-25.81-6.86-30.47-14.83-4.67-7.96-5.22-15.1-5.49-12.9s-3.02-1.92-3.02-1.92l-.29-6.74s-5.48,5.83-3.01,10.4Z"/>
    <path class="st2" d="M1193.4,170.31s4.4,25.22,9.06,25.81,7.16,2.14,7.16,2.14c0,0-5.95-2.9-2.58-19.68,0,0,4.75-22.08-8.15-16.55,0,0-6.43,3.48-5.49,8.28Z"/>
    <path class="st2" d="M1259.3,174.7s10.98-7.96,22.51-9.61c11.53-1.65,29.65-1.65,37.34,0,7.69,1.65-5.77,4.94-16.75,5.77s-23.61-1.1-28.83,0-14.28,3.84-14.28,3.84Z"/>
    <path class="st0" d="M1241.45,162.03s1.65-2.43,4.39-2.43,7.96-1.59,7.96,1.54-5.22,3.95-7.41,3.95-6.21-1.78-4.94-3.06Z"/>
    <path class="st4" d="M1244.2,162.14s2.32-4.04,4.67-1.01c2.35,3.03-3.65,2.74-4.67,1.01Z"/>
  </g>
  <path class="st1" d="M590.24,652.33s100.43,5.33,184.09,11,319,21.59,319,21.59c0,0-696.58-9.26-648.96-16.59s145.87-16,145.87-16Z"/>
  <path class="st5" d="M218.67,150.33s-6.61-8,7.7-7.33,14.3,7.33,14.3,7.33c0,0,18.67-.67,13.33,9.33s-17.95,0-17.95,0c0,0-47.38,14.67-17.38-9.33Z"/>
  <path class="st5" d="M280,179.67s4.67-7.33,12-5.33,14.05-5.68,17.03,2.49-14.51,7.51-14.51,7.51c0,0-21.85,5.33-14.51-4.67Z"/>
  <path class="st5" d="M27.33,85.67s13.33-12,20-5.33,0,10.67,0,10.67c0,0,24-7.33,18.67,6s-29.33,4.67-29.33,4.67c0,0-60.67,20.87-55.33,2.77s24.67-28.77,46-18.77Z"/>
  <path class="st5" d="M645.33,81.67s5.33-6.7,12.33-3.35,4.03,6.68,4.03,6.68c0,0,22.3-3.33,12.97,5.33s-22,4.74-22,4.74c0,0-24-1.4-7.33-13.4Z"/>
  <path class="st1" d="M609.53,538.59s122.56-7.03,165.81-7.27,106.67,0,106.67,0c0,0-265.54,16.29-272.47,7.27Z"/>
  <g>
    <path class="st4" d="M864.44,407.46s-4.09-5.73-4.91-8.74c-.82-3-.55-8.19,2.46-12.01s4.09-13.1,3.55-17.2-5.19-49.96,8.46-76.16c13.65-26.21,18.84-31.67,27.57-33.3s10.1-2.73,16.11-4.64,24.02-2.73,28.39,1.36c4.37,4.09,6.28,10.65,13.1,14.74s9.83,7.1,10.37,11.74c0,0-7.1-7.1-21.02-6.55,0,0-8.46,2.73-10.37,4.37s-25.66,30.03-25.93,34.4,0,30.03-.27,37.67-12.83,21.84-14.47,23.48,1.91,27.84,1.91,27.84l10.65,7.92s6.01-2.18,10.37-2.46,6.28,7.37,6.28,7.37l-3.28-3v6.55s-1.09-3.82-3-3-8.46,3.55-11.47,3-5.73-2.46-9.28-4.64-10.1-6.01-10.1-6.01c0,0-6.82,6.82-24.3,9.01-17.47,2.18-23.2-.82-23.2-.82,0,0,7.1-.55,11.47-2.73s7.64-9.01,10.92-8.19Z"/>
    <path class="st6" d="M888.74,371.7s-1.36,2.2,4.91,2.18c6.28-.01,14.47-16.38,15.56-24.02s1.36-18.02,0-31.39c0,0,0-15.29,5.46-21.02,5.46-5.73,10.37-19.93,10.37-19.93,0,0,3.82-2.18,2.46-5.19s-4.09-4.37-5.73-4.09-10.44,5.57-6.55-3.82c3.89-9.39,11.47-9.28,17.47-5.46,6.01,3.82-2.46,9.01-3,10.37s9.14,11.08,11.24,10.21,3.05,11.9,0,15.73-3.87,18.84-4.69,26.75-16.38,60.88-18.29,63.33c0,0-1.09,17.2-6.82,19.11,0,0,2.07,10.1-2.46,12.28s-5.73-1.91-5.73-1.91c0,0-2.73,3.82-5.73-3.55-3-7.37.27-16.38-4.09-22.93-4.37-6.55-10.1-16.65-4.37-16.65Z"/>
    <path class="st2" d="M946.89,271.79s13.98,2.09,16.92,5.73c0,0-18.02-4.37-16.92-5.73Z"/>
    <path class="st2" d="M923.68,256.52s4.91,1.07,4.91,4.62,1.09,8.19,1.09,8.19c0,0,15.83-11.42-6.01-12.81Z"/>
    <path class="st4" d="M745.7,415.38s-1.09,1.28,2.73,2.01,5.19,3.32,11.19,3.52,9.83-2.77,9.83-2.77l4.37,2.77v-2.76l3.28,1.32s-4.09-6.55-7.37-6.82-6.28,3-10.37,1.36-4.64-4.37-4.64-4.37c0,0,2.46,2.18,9.55,0,7.1-2.18,4.91-4.64,10.1-2.46s11.47,4.09,18.02,4.37,12.28-2.18,12.28-2.18l4.09.55v-3.58s3.82,1.12,4.91,1.94-.55-5.46-5.46-6.28c-4.91-.82-13.1,1.64-13.1,1.64l-31.94-34.94,17.74-19.93-1.14-42.31-4.05-37.13s-1.09-9.55.55-11.19,7.1-5.73,11.47-6.01,8.74,0,8.74,0c0,0-1.91-2.73-7.1-3.28-5.19-.55-9.55.27-13.38-2.46s-10.65-6.01-21.57,0c0,0-10.37,10.65-11.74,15.29,0,0-3.55,4.37-5.73,5.73-2.18,1.36-14.47,30.03-15.56,57.05-1.09,27.03,9.28,66.61,8.74,74.52-.55,7.92-6.99,11.47-8.82,14.47s-8.11,6.28-8.11,6.28c0,0,10.37,1.25,18.02,1.17,7.64-.08,14.47-5.54,14.47-5.54Z"/>
    <path class="st6" d="M759.62,374.16c-.12-1.09-2.13-10.65,3.98-13.92,6.12-3.28,8.51,2.71,12.67-13.38,4.16-16.09,3.28-26.48,0-31.94s-4.64-7.92-4.37-11.47c.27-3.55.27-9.83.27-12.83s2.18-14.2.55-18.84c-1.64-4.64-1.59-6.55-9.12-6.01,0,0-13.26-2.73-13.26-5.19s9.33-9.01,13.26-8.19,1.48,7.64,2.84,9.01,8.84-1.54,8.93,1.51c0,0,17.83,22.21,16.46,69.04,0,0-7.1,33.72-6.82,36.45s4.37,9.83,4.09,15.83,1.79,10.65,2.8,11.47,5.95,4.28,6.62,7.06-.96,7.69-4.24,7.41-6.01-3.28-6.01-3.28c0,0-7.89-2.46-13.77-8.74s-14.74-22.71-14.89-24.02Z"/>
    <path class="st6" d="M752.52,311.92s6.01,8.74,7.92,12.83,3.16,24.3,3.16,24.3c0,0-3.55-22.38-5.54-24.57s-5.54-12.56-5.54-12.56Z"/>
    <path class="st2" d="M776.54,253.84s6.28-5.52,13.1-3.61c0,0-11.19,2.58-13.1,3.61Z"/>
    <path class="st2" d="M766.44,261.42s-3.96-4.96-8.38-4.89-.35-4.73,7.02-4.7c0,0,3.82,7.4,1.36,9.59Z"/>
  </g>
  <g>
    <path class="st0" d="M688.57,353.73s3.01,9.64,0,14.26-7.84,6.23-8.44,10.04,4.42,15.87,4.02,24.51-1.41,13.46-7.23,15.87-39.98,1.81-46.21-2.41c0,0-15.67,7.03-28.93,7.23s-16.88-2.61-18.88-6.83-8.04-32.14-6.43-45.6,4.62-18.88,6.03-23.3,5.83-10.65,5.63-14.26-3.42-17.28,3.42-23.51c6.83-6.23,11.05-7.63,14.06-7.63s14.87,18.88,16.67,21.09,4.22,8.44,4.22,12.05c0,0,7.7,17.68,6.56,20.89,0,0,15.94-17.88,23.77-19.09,0,0,8.84-11.45,22.5-7.63,0,0,10.04,21.5,9.24,24.31Z"/>
    <path class="st3" d="M612.51,322.37s6.44,3.96,9.23.11-.04-10.19-1.1-13.27-8.91-6.11-13.25-3.83-11.06,17.07,5.12,16.98Z"/>
    <path class="st1" d="M601.78,350.72s-1.41,7.23-1.41,10.04-5.22,25.72-11.05,23.3c0,0-2.21-.6-2.21-8.24s-.2-9.43-1-13.15.5-8.64.5-8.64c0,0-2.17,3.57-1.37,8.64s1.03,12.37,1.03,15.23,1.37,7.54,3.65,7.65,5.71-4.34,7.77-10.16,3.2-12.11,3.31-13.48.78-11.2.78-11.2Z"/>
    <path class="st1" d="M644.4,364.09s-5.37,6.05-4.34,10.05,5.6,10.85,4.34,14.96-5.28,13.02-2.13,13.93,9.78-5.71,12.86-17.93v-6.62c0-3.54.11-6.85,2.28-9.36s3.54-5.02,3.54-5.02c0,0-5.37,8.11-4.91,13.13.46,5.02-.11,9.94-2.97,16.22s-8.34,13.02-11.99,10.28c0,0-3.65,1.48,2.97-15.87,0,0,0-3.2-1.71-6.05s-4.37-6.4-2.41-11.88,4.47-5.82,4.47-5.82Z"/>
    <path class="st4" d="M688.09,350.72s3.01-1.93,5.53-2.16,4.34.11,4-.91-3.2-3.54-4.74-4.45-3-4.8-4.78-6.74-5.54-6.39-8.77-7.03-9.69.98-13.11,4.52-1.37,12.68,1.37,15.53,12.79,5.02,15.65,5.02h3.88l.98-3.78Z"/>
    <path class="st3" d="M673.18,350.15s-2.97-4.2-1.83-8.27,6.47-6.12,9.69-4.87,5.48,4.12,5.39,6.38-4.8,3.32-4.8,4.24.69.23,1.94.46,4.21,1.45,4.52,2.62,1.19,3.78-.98,3.78-12.42-1.27-13.93-4.34Z"/>
    <path class="st1" d="M675.23,343.53s.8-2.17,3.2-2.17,4.11,3.52,3.31,4.21-7.54.93-6.51-2.04Z"/>
    <path class="st4" d="M676.6,343.69s1.6-1.3,2.63-.5-2.72,2.37-2.63.5Z"/>
    <path class="st4" d="M605.6,302.1s5.68-.94,10.25,1.35,9.02,8.79,11.08,10.05,6.08,3.08,6.13,4.23-3.84.46-5.1.91-5.95,4.23-6.21,3.85-3.27-4.31-4.29-4.65-2.11-.27-1.03-.91,4.34-2.17,4-4.11-6.97-6.28-10.28-5.48-4.86,7.42-4.54,9.48-1.62,2.7,2.26,4.04,6.74.98,6.28,1.67-8.45,2.29-11.53,2.29-12.94-5.33-10.12-15.91c0,0,5.3-7.22,13.12-6.79Z"/>
    <path class="st1" d="M610.82,313.35c.05-.24.51-1.94,3.28-1.93s4.03,2.54,2.54,3.62-6.4,1.25-5.82-1.69Z"/>
    <path class="st4" d="M612.51,313.6s1.54-2.26,2.45-.96,1.52.14,0,.96-2.45,0-2.45,0Z"/>
    <path class="st0" d="M610.14,420.73s9.29.47,9.75,2.52-1.22,1.29-1.22,1.29c0,0,.73-.03-1.39.14s-.59-.9-2.11.17-1.64,3.05-4.39.46-3.68-3.5-3.68-3.5l3.05-1.07Z"/>
    <path class="st0" d="M623.54,417.23c.46,0,8.23,3.13,9.51,1.67s-1.6-4.87-1.6-4.87l-7.92,3.2Z"/>
    <path class="st0" d="M673.63,418.45c.72.61,3.9,1.37,1.49,2.28s-5.45,0-5.45,0c0,0-3.96,2.13-4.11,0s8.07-2.28,8.07-2.28Z"/>
  </g>
  <g>
    <path class="st0" d="M457.44,303.8s-11.61,2.9-13.47,11.61-4.35,11.81-5.39,14.3-14.3,19.69-14.51,37.31c-.21,17.62,4.97,32.12,7.67,41.87s-3.32,13.06,7.25,15.13c10.57,2.07,24.87,1.87,27.15-1.45s1.87-4.15,9.33-7.88c7.46-3.73,15.75-11.61,13.89-25.08-1.87-13.47-8.29-32.33-6.84-37.1s2.49-12.02,1.04-18.03-7.25-10.36-7.25-10.36l-18.86-20.31Z"/>
    <path class="st4" d="M477.34,327.02s-14.25,3.11-20.49-.83-14.53-18.03.6-22.38,22.59,7.05,23.63,8.7,5.39,2.69,5.18,3.94-3.52.62-4.77,1.24-1.87,8.91-4.15,9.33Z"/>
    <path class="st3" d="M471.99,319.47c.53-1.8,2.32-7.59,0-9.45s-14.5-2.07-15.14,3.94c-.65,6.01,2.46,9.74,5.78,11.19s12.86,1.88,14.9,0,2.72-1.45.85-2.69-6.86-1.4-6.38-2.98Z"/>
    <path class="st1" d="M463.87,315.5s3.32-2.79,5.18-1.54,1.19,3.41-1.48,3.68-4.68-1.43-3.7-2.13Z"/>
    <path class="st4" d="M465.73,315.65s1.49-1.32,2.38-.35-2.59,1.83-2.38.35Z"/>
    <path class="st1" d="M458.69,346.7c-.63-.54-6.42,10.36-6.42,13.26s0,24.87-1.24,30.26-4.15,10.16-4.15,10.16c0,0,6.84-7.25,6.84-17.62s-.41-18.65,1.04-22.8,5.39-12.02,3.94-13.26Z"/>
    <path class="st0" d="M466.86,419.66c1.12.13,8.82.83,9.23,2.49s-12.48,1.99-12.48,1.99l3.24-4.47Z"/>
  </g>
  <g>
    <path class="st0" d="M555.85,339.68c0,.62,5.39,6.22,3.52,14.3s-7.88,15.34-4.97,23.83,8.91,13.26,7.05,21.97-7.82,11.61-7.82,11.61c0,0,8.94-2.9,8.18,0s-15.07,8.91-16.93,7.46l-1.87-1.45-4.97.62s8.29,1.87,6.63,3.11-19.9,2.49-20.1,0-11.81-.41-12.02-1.87,0-2.07,0-2.07c0,0-5.39-2.69-8.7-14.09-3.32-11.4,2.69-46.84,9.12-54.92,6.42-8.08,9.95-13.68,12.23-18.65s5.6-13.26,17.2-11.19,13.47,21.35,13.47,21.35Z"/>
    <path class="st4" d="M561.85,327.04s-9.93-11.63-22.78-9.03c0,0-8.71,4.68-5.18,12.76s5.8,9.12,12.23,9.74,11.04-2.27,9.56-2.17-1.48-3.84,2.46-3.84,4.77-2.69,6.42-2.9,3.52-.41,3.11-1.04-1.24-.41-2.69-1.45-3.12-2.08-3.12-2.08Z"/>
    <path class="st3" d="M544.87,336.37c-.32-1.2-3.52-7.88,0-10.36s7.05-3.94,11.19,0,0,6.63,0,6.63c0,0,3.05,3.94-.38,5.7s-10.42-.52-10.81-1.97Z"/>
    <path class="st1" d="M548.81,327.87s1.52-1.87,3.87,0-.51,2.9-2.29,2.49-1.58-2.49-1.58-2.49Z"/>
    <path class="st4" d="M549.64,328.75c-.08-.69,1.44-1.41,2.49-.56s-2.32,1.96-2.49.56Z"/>
    <path class="st1" d="M543.83,356.16s-3.21,4.15-6.63,6.53-6.53,13.16-6.42,16.17-1.14,7.88-3.01,8.39-8.5,0-8.81-6.53l-.31-6.53s-2.38,9.42,1.97,13.21,9.4.89,10.3-.56.97-7.98,1.45-10.05,3.69-11.61,5.76-13.16,7.36-7.36,5.7-7.46Z"/>
  </g>
  <g>
    <path class="st0" d="M234.32,320.29s7.13,6.67,10.13,16.8c2.99,10.13,3.91,65.36-5.06,71.81s-16.34,5.98-16.34,5.98c0,0,8.75,0,8.75,2.76s-20.94.69-22.32,0-18.64.46-23.47-2.3c-4.83-2.76-7.13-33.59-3.91-45.68,3.22-12.09,14.73-30.73,14.73-30.73,0,0,1.84-3.22,2.3-4.6s-4.37-12.2,3.45-17.26,31.76,3.22,31.76,3.22Z"/>
    <path class="st1" d="M222.35,348.36s-6.21,11.97-5.29,17.03,2.12,11.97-.09,19.1c-2.21,7.13-4.05,17.49-8.88,19.56-4.83,2.07,1.75,2.53,5.48-4.37,3.73-6.9,6.95-17.06,6.72-22.8-.23-5.74-1.84-11.03-.92-15.86.92-4.83,2.99-12.66,2.99-12.66Z"/>
    <path class="st4" d="M234.78,315.42s2.76-1.58,2.3-2.5-4.6-1.38-4.6-1.38c0,0-8.15-7.36-18.11-4.6-9.96,2.76-12.73,10.13-12.73,13.81s8.29,7.59,14.73,7.36,9.21-3.45,8.52-3.45-7.92,2.53-10.52,0-4.77-10.59,0-12.66,9.61-1.2,9.6,2.07.69,5.52,4.37,6.21,7.59,1.79,6.44-4.86Z"/>
    <path class="st3" d="M230.18,321.9s-3.17,2.28-5.29,2.76-9.67,3.68-12.43,0c-2.76-3.68-3.23-11.82,4.03-13.39,7.25-1.57,6.55,1.09,7.53,4.15s3.86,5.04,6.16,5.2,0,1.27,0,1.27Z"/>
    <path class="st1" d="M216.37,317.22s.68-1.68,3.02-1.79c3.66-.18,7.62,1.01-3.02,1.79Z"/>
    <path class="st4" d="M218.26,316.19s1.33-.47,2.24,0-1.38.14-2.24,0Z"/>
  </g>
</svg>