<?xml version="1.0" encoding="UTF-8"?>
<svg id="Vrstva_1" xmlns="http://www.w3.org/2000/svg" version="1.1" viewBox="0 0 841.89 595.28">
  <!-- Generator: Adobe Illustrator 30.7.0, SVG Export Plug-In . SVG Version: 2.1.4 Build 114)  -->
  <defs>
    <style>
      .st0 {
        fill: #623832;
      }

      .st1 {
        fill: #b38466;
      }

      .st2 {
        fill: #5b453b;
      }

      .st2, .st3 {
        opacity: .5;
      }

      .st4 {
        fill: #a9b6b1;
      }

      .st5 {
        fill: #9c6045;
      }

      .st6 {
        fill: #856f4f;
      }

      .st6, .st7 {
        opacity: .75;
      }

      .st7 {
        fill: #968774;
      }

      .st8 {
        fill: #899eaa;
      }

      .st3, .st9 {
        fill: #614445;
      }

      .st10 {
        fill: #c8cecd;
      }

      .st11 {
        fill: #915740;
      }

      .st12 {
        fill: #3e2021;
      }

      .st13 {
        fill: #dfcbb7;
      }

      .st14 {
        fill: #ae8473;
      }

      .st15 {
        fill: #804a37;
      }
    </style>
  </defs>
  <rect class="st4" x="-21.7" y="-8.5" width="888" height="636.37"/>
  <path class="st10" d="M448.66,172.07c.38-.81,85.98,0,79.19,1.75s-80.83,1.75-79.19-1.75Z"/>
  <polygon class="st10" points="730.33 474.82 788.39 476.82 733.19 478.78 730.33 474.82"/>
  <path class="st10" d="M4.23,319.2l30.71,2.35s-16.03-6.97-30.71-2.35Z"/>
  <path class="st3" d="M653.61,131.94s25.1,1.24,30.72.94l5.62-.3s-30.85,4.85-36.34-.65Z"/>
  <path class="st2" d="M639.98,115.59s.55,5.05,13.63,4.24,40.38-6.46,40.38-6.46c0,0-23.02,7.55-33.72,8.53s-23.74-1.5-20.29-6.31Z"/>
  <path class="st2" d="M643.43,123.87s39.56.52,45.88-.99l6.32-1.51s-49.83,9-52.19,2.51Z"/>
  <path class="st2" d="M612.65,339.71s24.83,6.17,43.41,8.67,22.23,2.77,22.23,2.77c0,0-18.62,1.51-41.49-2.26s-29.14-9.18-29.14-9.18h5Z"/>
  <path class="st10" d="M353.52,205.23c-1.67.98,36.62-3.32,45.52-2.9s11.66-3.61,11.66-3.61c0,0-52.61,3.81-57.19,6.51Z"/>
  <path class="st10" d="M377.14,191.99l43.8,2.86s-8.7-9.14-43.8-2.86Z"/>
  <path class="st10" d="M677.74,74.43h37.31s-37-3.07-37.31,0Z"/>
  <path class="st10" d="M656.06,138.94s-1.22,5.85,4.21,5.85h17.46s-37.53,6.94-21.68-5.85Z"/>
  <path class="st10" d="M645.64,128.91c1.08,1.04-.13,7.63,5.65,6.4s49.53-1.57,49.53-1.57c0,0-44.18,2.76-50.69,3.11s-4.49-7.94-4.49-7.94Z"/>
  <path class="st10" d="M636.17,115.59s-6.8,4.22,5.5,5.67,57.5,0,57.5,0c0,0-106.33,6.2-63-5.67Z"/>
  <path class="st10" d="M751.62,183.78c5.18.69,26.18,0,26.18,0,0,0,12.82.37,30.93,2.6s48.82.76,48.82.76c0,0-11.39,3.08-23.46,3.83s-20.41,1.66-33.32,0-49.15-7.18-49.15-7.18Z"/>
  <path class="st10" d="M657.72,196.89c12.12.68,28.06-1.72,38.55,0s43.64,5.44,43.64,5.44c0,0,17.37.61,25.93,0s16.79,0,16.79,0c0,0-34.5-2.56-53.8-6.07s-71.11.63-71.11.63Z"/>
  <path class="st10" d="M709.18,157.55c1.04,0,5.39-4.14,21.15-.35s46.71,6.41,46.71,6.41c0,0,1.24.68-17.61.24s-26.8-6.13-43.68-5.71c-.75.02-1.52.05-2.3.09-18.42,1.04-35.72,1.56-35.72,1.56l31.44-2.25Z"/>
  <path class="st10" d="M790.46,138.92c-.05.84,9.63-1.38,22.84,1.04s48.4,0,48.4,0v-3.11s-16.45,2.8-29.79,2.09-41.25-3.12-41.44-.02Z"/>
  <path class="st10" d="M534.58,280.9s24.64.28,38.72,1.78c14.08,1.5,44.49-3.91,44.49-3.91,0,0-23.56,1.79-38.37,1.01s-44.83,1.11-44.83,1.11Z"/>
  <path class="st10" d="M524.92,263s14.9.07,39.54,1.14,49.49.6,49.49.6c0,0-88.69-8.78-89.03-1.74Z"/>
  <path class="st10" d="M508.7,247.48s22.69-3.5,36.36-1.51,22.23,0,22.23,0c0,0-7.61-1.88-22.23-3.4s-43.9-2.77-43.9-2.77l7.54,7.68Z"/>
  <path class="st10" d="M651.29,213.11c3.71,0,10.55,1.32,20.76,1.7s39.93-5.79,39.93-5.79c0,0-25.34,3.44-36.33,2.9s-24.37,1.19-24.37,1.19Z"/>
  <polygon class="st10" points="678.3 224.6 700.82 224.6 700.82 220.87 678.3 224.6"/>
  <path class="st10" d="M484.25,203.1s6.16,1.38,27.21,4.14,67.98-1.73,66.25-2.07-43.82-.35-56.24-2.07-37.21,0-37.21,0Z"/>
  <polygon class="st10" points="553.93 324.5 577.71 324.5 555.28 321.54 553.93 324.5"/>
  <polygon class="st10" points="550.73 307.44 601.37 307.44 545.06 303.17 550.73 307.44"/>
  <polygon class="st10" points="555.28 391.05 557.63 391.05 586.21 391.05 582.41 397.89 555.28 391.05"/>
  <path class="st10" d="M577.71,355.46s19.74-4.16,42.13-2.52,94.51,7.08,104.34,7.46,13.54.49,13.54.49c0,0-57.47,3.66-72.1,2.13s-87.92-7.56-87.92-7.56Z"/>
  <path class="st10" d="M670.07,374.11s2.49-3.39,32.71-1.62,70.07-2.66,70.07-2.66l11.26.85s-14.56,4.35-35.6,6.03-55.78,3.52-59.98,3.12-14.24,0-14.24,0l-2.78-4.68-1.44-1.04Z"/>
  <path class="st10" d="M680.94,391.04c.29-.23,3.12-1.7,15.33.24s34.06.49,34.06.49c0,0-10.71,3.39-18.35,3.28s-23.82,0-23.82,0h-5.21l-2.02-4.01Z"/>
  <path class="st10" d="M728.04,395.06s17.55-2.24,19.01-2.38,35.28.31,35.28.31l-54.29,2.07Z"/>
  <polygon class="st10" points="241.05 305.64 284.75 304.4 283.8 302.22 241.05 305.64"/>
  <path class="st10" d="M204.19,297.64h58.71s-58.08-4.19-58.71,0Z"/>
  <path class="st10" d="M276.59,298.28l27.47-1.57s-26.75-3-27.47,1.57Z"/>
  <path class="st10" d="M239.21,300.82l54.04,3.58s-52.64,2.17-54.04-3.58Z"/>
  <path class="st14" d="M393.95,225.26c1.22-2.75,3.49-58.57,34.11-61.4s58.14,19.59,73.1,50.95,15.36,56.41,15.36,56.41l-122.57-45.96Z"/>
  <polygon class="st10" points="-10.67 474.5 48.31 477.34 -12.47 477.34 -10.67 474.5"/>
  <path class="st10" d="M762.8,553.16c1.29-.47,28.96.22,45.93,3.24s22.4,5.05,22.4,5.05c0,0-47.11-5.48-52.8-5.05s-20.25.84-20.25.84l4.72-4.08Z"/>
  <path class="st10" d="M759.44,540.52s11.84-1.81,35.17,0,41.7,3.88,41.7,3.88c0,0-72.73-10.87-76.87-3.88Z"/>
  <polygon class="st10" points="707.58 442.37 729.35 442.37 694.61 445.06 707.58 442.37"/>
  <polygon class="st10" points="686.37 416.19 740.57 418.55 688.53 420.78 686.37 416.19"/>
  <path class="st9" d="M358.82,586.58s9.58-31.45,39.03-36.6,52.83,54.46,52.83,54.46l-28.37,7.44h-43.44l-20.04-25.3Z"/>
  <g>
    <path class="st10" d="M477.16,534.5s-18.37,2.25-28.11,4.12c-9.75,1.87-20.99,1.87-20.99,1.87,0,0,11.24,2.25,19.12,1.87,7.87-.37,14.62-1.87,21.37-1.5,6.75.37,11.99-.37,11.99-.37,0,0-1.39-6.25-3.37-6Z"/>
    <path class="st10" d="M431.43,551.37s7.12.75,22.86,0c15.74-.75,28.11,1.87,28.11,1.87,0,0-50.23,3.75-50.98-1.87Z"/>
    <path class="st10" d="M385.7,538.46s5.25-6.22,19.49-3.96c14.24,2.26,27.74,0,27.74,0,0,0-10.5,5.63-19.49,5.63h-19.49c-5.25,0-8.25-1.67-8.25-1.67Z"/>
    <path class="st10" d="M435.93,526.63s7.12.37,18.37,0c11.24-.37,23.24,0,23.24,0,0,0-37.86-4.12-41.61,0Z"/>
    <path class="st10" d="M385.7,519.88c-.58-5.22,31.11,0,31.11,0,0,0-30.74,3.37-31.11,0Z"/>
    <path class="st9" d="M385.7,486.52s16.5-27.74,40.49-34.11c23.99-6.37,29.99-4.5,54.35-7.5,24.36-3,61.47-7.12,69.34-5.25s-41.23,75.34-41.23,75.34c0,0-2.25,2.49-36.73,2.55-34.48.07-71.59-10.05-80.96-10.05s-5.26-20.99-5.26-20.99Z"/>
    <path class="st10" d="M393.95,443.04s15.74-.75,27.36,0c11.62.75,18.37,0,18.37,0,0,0-42.35,4.5-45.73,0Z"/>
    <path class="st10" d="M423.94,429.18s4.12,1.12,21.74,0c17.62-1.12,40.11,0,40.11,0,0,0-16.49-4.12-29.05-3.75-12.56.37-11.06,1.6-18.55,2.11-7.5.51-14.24,1.64-14.24,1.64Z"/>
    <path class="st10" d="M516.52,425.4s3,1.62,20.99,2.14c17.99.51,27.74-1.07,27.74-1.07,0,0-44.98-4.47-48.73-1.07Z"/>
    <path class="st10" d="M482.41,403.69c-.32.68,19.87-.37,34.11,0,14.24.37,29.24,0,29.24,0,0,0-60.72-5.62-63.35,0Z"/>
    <path class="st10" d="M813.01,434.42s4.87-.75,14.99,0,19.12-.33,19.12-.33c0,0-30.74,4.46-34.11.33Z"/>
    <path class="st10" d="M396.2,392.82s1.12-.37,16.12,0,27.36,0,27.36,0c0,0-22.12-2.25-30.36-2.25s-15.37,1.21-15.37,1.21l2.25,1.04Z"/>
    <path class="st10" d="M796.52,390.57c1.12-1.12,6.37,1.5,16.49,0,10.12-1.5,17.05-1.87,17.05-1.87h-27.55l-6,1.87Z"/>
    <g>
      <path class="st5" d="M481.06,548.16s-2.96-8.43,1.82-18.68c4.79-10.25,45.8-63.12,45.8-63.12,0,0,45.12-80.44,50.13-84.08,0,0,15.27-40.79,54-36.91,38.74,3.87,48.53,39.42,51.95,48.08,3.42,8.66,8.66,30.08,11.39,32.81s29.39,67.68,33.95,85.68,3.19,35.09,1.37,36.23-26.2,14.36-105.96,13.22c-79.75-1.14-142.41-9.11-144.47-13.22Z"/>
      <path class="st11" d="M532.1,511.02s14.13-2.28,26.2,0,36.46,25.75,53.09,29.85c16.63,4.1,63.57-1.82,81.12-9.34,17.55-7.52,24.84-16.41,24.84-16.41,0,0-22.33,17.32-56.51,20.28-34.18,2.96-49.77,0-87.55-23.47,0,0-21.82-8.66-41.19-.91Z"/>
      <path class="st11" d="M566.28,480.49s25.75,13.67,38.51,22.1c12.76,8.43,20.74,13.44,34.18,16.63,13.44,3.19,26.66,2.51,26.66,2.51,0,0-12.99,5.47-36-3.42-23.01-8.89-34.86-19.82-43.75-24.84s-19.6-12.99-19.6-12.99Z"/>
      <path class="st11" d="M558.53,457.7s7.06,12.99,20.28,16.63c13.22,3.65,36.23,16.41,40.79,20.96l4.56,4.56s-4.79-10.48-23.93-19.37-25.07-10.03-30.08-13.22-11.62-9.57-11.62-9.57Z"/>
      <path class="st11" d="M570.38,444.03s18.91,17.32,29.62,23.93c10.71,6.61,34.86,21.42,65.62,14.58,0,0,11.17-2.51,12.53-5.47s-8.66,5.01-26.89,4.56c-18.23-.46-48.08-12.76-59.93-23.93-11.85-11.17-20.96-13.67-20.96-13.67Z"/>
      <path class="st11" d="M587.93,413.72s9.8,28.48,25.75,37.37c15.95,8.89,45.12,2.05,51.95-2.05,6.84-4.1,8.66-7.75,8.66-7.75,0,0-.23,12.53-25.75,16.41-25.52,3.87-56.51-5.7-60.61-43.98Z"/>
      <path class="st15" d="M604.33,452.01s6.61,10.94,17.32,14.81c10.71,3.87,22.1,2.73,22.1,2.73,0,0-25.29,2.96-39.42-17.55Z"/>
      <path class="st15" d="M573.29,408.94s4.61,22.67,8.03,27.17c3.42,4.5,13.9,15.89,13.9,15.89,0,0-12.08-15.28-13.44-18.24s-8.48-24.83-8.48-24.83Z"/>
      <path class="st15" d="M529.14,499.86s-6.38,3.42-10.71,17.55c-4.33,14.13-2.73,30.08-2.73,30.08,0,0-5.24-13.9,1.82-33.04,7.06-19.14,11.62-14.58,11.62-14.58Z"/>
      <path class="st15" d="M532.1,548.62c-.24.79.91-12.08,7.98-16.18s11.62-4.33,11.62-4.33c0,0-13.9,1.6-19.6,20.51Z"/>
      <path class="st15" d="M710.06,542.21s2.73-5.44,9.8-7.27c7.06-1.82,8.85-1.82,8.85-1.82,0,0-15.68-2.1-18.65,9.09Z"/>
      <path class="st15" d="M674.29,516.26s16.18-9.38,21.87-16.88c5.7-7.5,6.61-8.64,6.61-8.64,0,0-11.17,21.42-28.48,25.52Z"/>
      <path class="st15" d="M564.46,438.11c-.68-.23-5.24-9.57-5.92-12.53s5.92,12.53,5.92,12.53Z"/>
      <path class="st15" d="M586.33,395.04c.04.72.46-19.14,5.01-27.12,4.56-7.98,7.98-9.57,7.98-9.57,0,0-14.58,6.38-12.99,36.69Z"/>
      <path class="st15" d="M678.29,392.76s2.38,16.63,1.47,23.93c-.91,7.29-4.1,13.79-4.1,13.79,0,0,9.86-11.27,2.63-37.71Z"/>
      <path class="st15" d="M686.37,458.5s12.74-6.41,13.67-14.47,0-4.1,0-4.1c0,0,5.7,10.48-13.67,18.57Z"/>
      <path class="st15" d="M643.75,353.57s16.41,7.06,20.51,12.99l4.1,5.92s-3.19-13.22-24.61-18.91Z"/>
      <path class="st11" d="M601.59,397.74s-9.57-13.82,0-26.79,29.13-14.03,34.45-13.61,28.49,5.53,32.32,21.9c3.83,16.37,0,21.05,0,21.05,0,0-1.01,29.13-12.3,34.66s-41.92,5.07-47.66-4.48c-5.74-9.55-6.8-32.73-6.8-32.73Z"/>
      <path class="st13" d="M612.12,426.4c0,.79-4.94,41.52-5.45,48-.51,6.49,1.62,12.97,3.75,10.85s10.89-60.05,10.89-60.05l-9.19,1.2Z"/>
      <path class="st13" d="M655.09,427.41s5.62,38.7,5.2,48.06-4.26,11.75-4.78,10.19-2.36-34.43-4.21-40.6-3.44-21.45-3.44-21.45l7.23,3.8Z"/>
      <path class="st0" d="M633.7,378.92s-14.41-6.22-23.02,2.39c-8.61,8.61-13.72,20.25-12.44,33.49,1.28,13.24,11.8,15.79,19.3,13.56,7.5-2.23,8.77-11.48,17.38-11s11.48,6.06,12.76,8.61,6.22,5.49,16.27,4.5c10.05-.99,3.67-33.21-1.28-41.98-4.94-8.77-13.93-14.83-28.97-9.57Z"/>
      <path class="st0" d="M621.69,427.41s3.99-4.47,7.34-6.22,11.16-1.91,13.4,0,4.63,6.22,4.63,6.22c0,0-3.67-5.1-7.18-5.58s-10.39-1.89-18.18,5.58Z"/>
      <path class="st0" d="M628.07,436.11s7.77,1.05,15.69,0c0,0-10.26,2.48-15.69,0Z"/>
      <path class="st12" d="M632.85,397.89s.16-9.4-4.78-9.72,1.6,4.14,2.39,4.86,2.39,4.86,2.39,4.86Z"/>
      <path class="st12" d="M637.16,397.89s-.16-6.37,2.23-8.29,4.26-.8,4.36,0-2.35,1.44-4.36,3.15-2.23,5.13-2.23,5.13Z"/>
      <path class="st12" d="M634.37,382.11s-.88,18.5,0,18.34,0-18.34,0-18.34Z"/>
      <path class="st0" d="M607.65,380.52s-.97-8.56-5.32-5.32-1.38,6.91-1.38,6.91c0,0-.67,5.21,2.86,4.78s3.84-6.38,3.84-6.38Z"/>
      <path class="st0" d="M660.82,380.69c-.01-.6.16-6.17,3.3-5.49s2.87,5.49,2.87,5.49c0,0,1.81,4.4-.64,5.46s-5.42-.5-5.53-5.46Z"/>
      <path class="st12" d="M601.81,382.11s-1.28-3.93.53-4.15,2.98,1.28,3.08,3.51-1.81,4.01-3.62.64Z"/>
      <path class="st12" d="M661.99,380.97s-.19-3.01,2.24-3.02,2.12,5.36,1.27,6.04-3.12,1.29-3.51-3.02Z"/>
      <path class="st0" d="M626.24,366.69s3.8-.21,8.13,0,6.78-.09,6.78-.09c0,0-12.28-1.61-14.91.09Z"/>
      <path class="st14" d="M605.43,410.82s-3.3,14.03-3.51,20.31c-.21,6.27.32,13.15.74,12.9s-.47-13.54.99-20.88,2.53-12.65,1.78-12.33Z"/>
      <path class="st14" d="M609.04,409.65s-3.22,12.65-3.37,18.82c-.14,6.17.34,10.54,1,10.05s.25-10.9.67-15.26,2.87-14.03,1.7-13.61Z"/>
      <path class="st14" d="M612.12,410.81s-2.65,9.41-2.34,15.54c.32,6.13,1.65,9.09,1.91,8.29s-.88-6.96-.76-11.03,1.71-11.99,1.71-11.99c0,0-.37-1.42-.53-.81Z"/>
      <path class="st14" d="M614.99,410.65s-2.66,13.67-1.91,17.39.85,2.91,1.38,2.63-.45-3.69-.49-5.92,1.99-13.64,1.99-13.94-.96-.15-.96-.15Z"/>
      <path class="st14" d="M618.61,409.64s-2.66,11.05-2.23,14.46l.43,3.41s.03,1.09.74.85-.37-3.51-.08-7.23,1.78-9.66,1.78-10.52-.64-.98-.64-.98Z"/>
      <path class="st14" d="M621.69,410.81s-1.81,8.31-1.59,11.07.92,4.74,1.22,4.5-.71-5.03-.43-6.1,1.87-10.66.81-9.48Z"/>
      <path class="st14" d="M625.09,412.1c0,.32-1.03,6.74-1.05,8.69s.77,2.17.99,1.93.27-4.87.59-7.53c.32-2.66-.53-3.08-.53-3.08Z"/>
      <path class="st14" d="M628.92,413.72s-.57,4-.53,4.83.61-.72,1.16-3.16-.63-1.67-.63-1.67Z"/>
      <path class="st14" d="M605,409.64s-2.47,5.13-3.63,10.17c-1.16,5.04-1.11,12.88-1.4,13.96s-.82,4.3-1.35,5.19.66-4.11.7-6.66,1.19-13.29,2.05-16.8,3.2-7.04,3.63-5.86Z"/>
      <path class="st14" d="M602.51,407.95s-3.85,7.37-4.46,12.83-.5,8.86-1.13,8.54.04-9.46,1.13-13.13,4.29-9.52,4.46-8.24Z"/>
      <path class="st14" d="M599.97,407.77s-2.59,5.71-3.3,8.42-.92,3.5-1.03,2.36,2.28-11.04,4.33-10.78Z"/>
      <path class="st14" d="M667.63,407.2s2.87,3.08,3.4,4.89,1.28,2.02.53,1.81-1.91-3.69-2.95-4.27-1.62-2.7-.97-2.43Z"/>
      <path class="st14" d="M666.12,409.64c.49.06,3.74,4.75,4.8,7.81s1.37,7.88.95,7.76-.72-5.36-2.79-9.01-4.3-6.73-2.97-6.55Z"/>
      <path class="st14" d="M664.22,411.62s2.84,3.92,4.66,9.16,3.1,18.24,2.46,18.28-.36-10.38-3.48-17.08c-3.11-6.7-5.24-11.59-3.64-10.37Z"/>
      <path class="st14" d="M661.98,412.95s5.32,10.07,5.96,17.53.43,12.99,0,11.71-.55-13.5-1.83-16.94c-1.28-3.44-5.31-12.94-4.13-12.3Z"/>
      <path class="st14" d="M659.12,411.62s3.94,9.98,5.11,17.72c1.17,7.74.75,15.82,0,15.72s-.33-16.69-2.45-23.39-4.14-10.42-2.66-10.05Z"/>
      <path class="st14" d="M656.35,411.62s4.36,9.37,4.47,16.78-.21,12.94-.85,12.19.53-8.46-.85-15.39c-1.38-6.93-3.62-13.53-2.76-13.58Z"/>
      <path class="st14" d="M653.48,413.72s1.7,1.71,2.23,7.06,1.17,8.79,0,8.56-.3-5.8-.79-7.8-1.99-8.6-1.45-7.81Z"/>
      <path class="st14" d="M650.5,413.66s1.17,2.9,1.81,7.85-1.06,6.48-.9,6.14-.05-4.63-.9-8.87,0-5.12,0-5.12Z"/>
      <path class="st14" d="M647.05,413.61c.24.51,1.75,5.4,1.86,8.38s-1.22,3.12-.93,2.25-.77-6.29-.93-7.46-.48-4.19,0-3.17Z"/>
      <path class="st14" d="M642.95,413.97s.76,2.47.8,4.58-.59,1.27-.8.22-.21-5.58,0-4.81Z"/>
      <path class="st14" d="M633.66,414.43s-.7,1.92.04,1.76-.04-1.76-.04-1.76Z"/>
      <path class="st14" d="M636.36,414.43s.42,2.36.8,1.77-.8-1.77-.8-1.77Z"/>
      <path class="st14" d="M639.13,414.43s.75,3.25,1.33,3.01-1.33-3.01-1.33-3.01Z"/>
    </g>
  </g>
  <g>
    <g>
      <path class="st5" d="M326.57,268.65s-6.85,43.36-2.54,64.92,6.59,26.63,18.76,31.95c12.17,5.33,50.46,4.31,50.46,4.31,0,0,15.98,7.35,57.81,2.79s54.77-16.48,54.77-16.48c0,0,12.17.76,19.78-15.98,7.61-16.74-5.07-64.66-26.88-89s-51.98-43.11-96.61-42.09c-44.63,1.01-50.97.76-61.87,18.51l-13.69,41.08Z"/>
      <path class="st4" d="M318.71,323.67s2.79,8.11,16.99,13.69c14.2,5.58,87.99,3.8,132.37-2.79s42.85-16.74,42.85-16.74c0,0,16.86-4.56,16.93-10.4,0,0,8.18,35.5-1.97,46.15-10.14,10.65-19.02,7.61-19.02,7.61,0,0-17.74,19.27-82.03,16.23-64.29-3.04-98.32-8.37-102.23-18-3.9-9.64-3.9-35.75-3.9-35.75Z"/>
      <path class="st10" d="M316.18,328.49s6.85,9.38,16.23,12.93,12.68,4.06,12.68,4.06l1.27,2.28s-27.64-6.09-30.18-19.27Z"/>
      <path class="st10" d="M359.79,345.99s46.16-.25,65.05-1.27c18.89-1.01,61.49-10.65,61.49-10.65,0,0-30.93,11.16-61.49,13.69s-66.06,0-66.06,0l1.01-1.78Z"/>
      <path class="st10" d="M499.76,331.79s11.16-5.33,12.68-6.85,1.52-4.06,1.52-4.06c0,0,4.56,1.17,10.14-1.01s6.86-3.04,6.86-3.04c0,0-4.83,5.33-8.88,5.83-4.06.51-15.89,11.69-22.31,9.13Z"/>
      <path class="st10" d="M329.36,345.48s7.35,7.61,27.39,8.88l20.03,1.27s-7.61,1.52-14.2,1.27c-6.59-.25-19.02-2.54-24.09-3.3s-9.13-8.11-9.13-8.11Z"/>
      <path class="st11" d="M346.35,320.63s11.92,7.1,23.33,9.64c11.41,2.54,27.39-5.33,35.25-9.64,7.86-4.31,10.65-3.8,10.65-3.8,0,0-11.92,5.2-14.71,7.67s-13.19,10.33-25.1,9.57c-11.92-.76-29.41-11.41-29.41-11.41v-2.03Z"/>
      <path class="st11" d="M490.38,304.4s-20.79,21.8-29.41,26.11c-8.62,4.31-18.51,3.6-18.51,3.6,0,0,4.06,4.01,21.05-1.95,16.99-5.96,26.88-27.76,26.88-27.76Z"/>
      <path class="st15" d="M478.46,241.26c-.83-.77,17.5,24.72,21.3,36.32,3.8,11.6,5.58,19.21,5.58,19.21,0,0-2.04-32.46-26.88-55.53Z"/>
      <path class="st11" d="M340.27,227.57s4.72-7.6,12.81-7.12c8.09.48,18.6,7.41,20.52,14.1s1.6,22.95,3.19,27.73-2.14,18.25-9.65,22.35c-7.51,4.1-20.91.84-26.87-2.74-5.96-3.59-14.25-21.28-14.25-21.28l6.22-24.38s2.2-7.99,8.03-8.66Z"/>
      <path class="st11" d="M380.46,239.8s3.03,19.27,2.4,29.22c-.63,9.95-7.64,24.67-12.7,27.07l.94,2.19s12.48-8.96,13.42-30.95c.94-21.99-4.07-27.53-4.07-27.53Z"/>
      <path class="st13" d="M334.69,270.68s-1.52,10.65,1.52,28.4c3.04,17.75,13.69,58.07,16.86,53.25,3.17-4.82-11.54-74.3-11.28-78.61s-7.1-3.04-7.1-3.04Z"/>
      <path class="st13" d="M351.42,268.14c0,.76,14.47,41.23,37.78,73.34,0,0,3.55-1.32,0-7.41s-24.09-51.98-26.12-60.86c-2.03-8.88-11.66-5.07-11.66-5.07Z"/>
      <path class="st11" d="M351.42,268.14l-8.67-7.29h-11.49s-3.4,9.12,6.94,16.73c10.35,7.61,19.92,7.72,19.92,7.72l-6.7-17.16Z"/>
      <path class="st0" d="M330.73,238.38s-4.47,2.15-4.71,5.26c0,0-7.04,2.94-3.4,15.06,3.64,12.12,8.75,17.45,11.69,20.08l.1-4.71s-5.52-9.4-1.94-11.31c3.59-1.91,5.39,4.25,18.95,7.74,13.56,3.49,15.71.71,17.14-1.48s-.24-14.63-6.69-23.95-25.48-16.49-31.15-6.69Z"/>
      <path class="st12" d="M334.31,242.92s.5-6.47,2.92-6.22c2.42.25-2.92,6.22-2.92,6.22Z"/>
      <path class="st12" d="M332.95,242.92l1.36-6.23s-3.99-.22-1.36,6.23Z"/>
      <path class="st0" d="M342.51,230.96s11.95-2.66,17.93,5.72c5.98,8.38,7.41,11.01,7.41,11.01,0,0-9.08-17.45-25.34-16.73Z"/>
      <path class="st0" d="M341.72,227.28s3.03-1.15,6.37-1.88,11.9.94,11.9.94c0,0-10.3-4.47-18.27.94Z"/>
      <path class="st0" d="M360.82,232.29s1.2-4.15,5.43-3.55c4.23.6,3.86,6.16,3.86,6.16,0,0,.77,4.57-4.18,4.23s-5.12-6.84-5.12-6.84Z"/>
      <path class="st12" d="M362.39,233.68s2.09-1.6,4.49-.56c2.4,1.04,1.57,2.19,1.57,2.19,0,0-.9,1.59-2.96,1.37s-3.1-3-3.1-3Z"/>
      <path class="st11" d="M362.39,231.87s4.24-2.09,5.46-.52l1.22,1.57s-.21-5.43-6.68-1.04Z"/>
      <path class="st15" d="M358.12,215.58s6.46-1.67,12.52,2.19,9.82,7.52,9.82,7.52c0,0-10.06-13.87-22.33-9.71Z"/>
      <path class="st14" d="M356.44,252.34s1.49,4.18,1.69,8.51-1.69,7.47-1.69,7.47c0,0-.63,1.58,0-.98s1.42-8.41.71-10.5-1.75-5.01-.71-4.49Z"/>
      <path class="st14" d="M359.99,259.44s1.36,5.24,0,7.89-2.3,2.65-2.3,2.13,1.78-2.03,1.98-4.88-.52-5.46.31-5.15Z"/>
      <path class="st14" d="M352.37,250.35s1.25,3.45,1.78,8.56-1.04,7.52-1.78,7.2,1.25-2.14.94-6.71c-.31-4.57-2.09-9.79-.94-9.06Z"/>
      <path class="st14" d="M347.98,250.28s2.01,2.87,1.25,9.13-2.61,4.72-2.4,4.1,2.24-5.01,1.28-8.98-.13-4.25-.13-4.25Z"/>
      <path class="st14" d="M343.91,251.08s1.85,2.86,1.39,6.13c-.46,3.27-.87,4.31-1.39,3.64s1.14-3.71.51-6.21-.51-3.55-.51-3.55Z"/>
      <path class="st14" d="M327.41,251.71s-2.08,6.53-1.09,7.7-.3,1.2-.3,1.2c0,0-1.95-6.6,1.4-8.9Z"/>
      <path class="st14" d="M324.17,252.96s-.63,5.82,0,8.08.42,3.2,0,3.1-2.29-10.85,0-11.18Z"/>
      <path class="st14" d="M321.74,254.76s.82,8.96,1.31,10.95c.49,1.98-.55,2.1-.66,1.63s-2.36-11.46-.66-12.57Z"/>
      <path class="st14" d="M339.84,252.28s1.67,1.89,1.67,3.95-.84,2.33-.84,2.33v-1.94c0-1.46-.63-3.14-.84-3.14s0-1.2,0-1.2Z"/>
    </g>
    <path class="st1" d="M405.24,348.89s14.93-84.57,43.16-101.19c28.23-16.62,79.43-.82,98.84,43.86,19.41,44.68,18.9,65.36,18.9,65.36,0,0-4.55,9.46-38.29,13.04-33.73,3.58-108.31-2.04-119.55-4.09-11.24-2.04-3.06-16.98-3.06-16.98Z"/>
    <path class="st14" d="M267.51,342.6c.74-2.09,19.74-78.34,46.3-75.04,26.56,3.3,26.82,80.2,26.82,80.2,0,0-9.96,3.07-28.35,3.44-18.39.37-45.52-6.46-44.77-8.6Z"/>
  </g>
  <path class="st1" d="M620.08,580.9c1.31-1.01,21.2-114.94,60.86-120.04s65.2,12.15,71.33,23.44c6.13,11.3,23.5,93.02,23.5,93.02,0,0-2.55,6.13-13.28,8.68-10.73,2.55-49.33,6.13-73.95,6.64s-72.44-8.68-68.45-11.75Z"/>
  <path class="st14" d="M761.71,227.67c-.81-1.28-1.86-79.47,22.27-77.3,24.13,2.17,24.75,80.79,24.75,80.79,0,0-40.21,7.3-47.02-3.49Z"/>
  <path class="st9" d="M678.3,256.47s16.59-73.62,47.53-79.19,51.97,84.93,51.97,84.93c0,0-28.97,4.93-49.75,3.62-20.78-1.32-49.75-9.36-49.75-9.36Z"/>
  <path class="st1" d="M713.45,275.48s14.41-48.15,31.34-47.8,28.06,47.8,28.06,47.8c0,0-35.88,10.96-59.39,0Z"/>
  <path class="st9" d="M211.95,418.96c-.07-.17,15.17-60.96,38.17-61.94,23-.98,43.02,54.13,44.19,61.94s0,15.4,0,15.4c0,0-28.04,3.84-45.65,5.09-17.62,1.25-37.37-2.91-37.37-2.91l.67-17.58Z"/>
  <path class="st5" d="M114.51,535.65s-3.79-6.32,1.05-18.31c4.84-12,15.79-37.68,20-52.41s24.21-41.89,45.89-43.99c21.68-2.11,39.78,8,48.2,20.63,8.42,12.63,16.63,34.31,24,57.05,7.37,22.73,8,21.05,6.95,24.42s-14.31,10.31-40.42,14.95c-26.1,4.63-27.58,1.68-47.78-1.26s-28.42-3.79-40.21-4.42-17.68,3.37-17.68,3.37Z"/>
  <path class="st10" d="M115.14,539.44s8.42-3.37,21.26-2.53c12.84.84,34.1,6.74,34.1,6.74,0,0-9.89-.21-16.21-1.26-6.32-1.05-16.63-3.37-23.16-3.37s-16,.42-16,.42Z"/>
  <path class="st10" d="M188.19,547.02s7.16.84,19.58,1.05c12.42.21,33.89-3.16,33.89-3.16,0,0-11.76,5.26-25.88,5.05s-27.59-2.95-27.59-2.95Z"/>
  <path class="st10" d="M265.23,517.13s3.37,2.11,2.11,5.05c-1.26,2.95-6.34,5.05-6.34,5.05,0,0,9.92-3.16,8.65-6.53s-4.42-3.58-4.42-3.58Z"/>
  <path class="st11" d="M133.88,487.66s-1.92,17.5,8.95,32,19.29,15.59,19.29,15.59l-8.42-1.09s-26.76-7.13-19.82-46.49Z"/>
  <path class="st15" d="M247.97,491.03s1.68,14.75,1.05,20.43-1.05,7.99-1.05,7.99c0,0,4-4,3.16-11.58-.84-7.58-3.16-16.84-3.16-16.84Z"/>
  <path class="st11" d="M239.55,475.03s3.79,18.31,2.11,25.47-18.73,28.63-50.73,28.21c-32-.42-47.78-28.42-48.1-40s-1.16-15.79-1.16-15.79c0,0-4.7,17.26,5.75,34.52,10.46,17.26,22.03,25.26,42.66,26.31,20.63,1.05,40.42-10.74,46.31-16.63,5.89-5.89,8.21-20.84,7.58-25.05s-4.42-17.05-4.42-17.05Z"/>
  <path class="st15" d="M151.77,460.72s-.63,16,.84,22.94,1.89,10.31,1.89,10.31c0,0-3.58-10.74-4-17.89s1.26-15.37,1.26-15.37Z"/>
  <path class="st11" d="M158.93,477.34s-3.58-15.16-1.05-24.84c2.53-9.68,14.31-15.16,21.26-15.79,6.95-.63,12.21,1.26,18.31,1.26s9.26-2.32,17.47.42c8.21,2.74,10.95,8.63,11.37,10.95s.84,14.74,0,20-2.95,35.15-5.68,41.05-17.26,10.74-26.1,10.95c-8.84.21-30.47-6.53-32.39-17.05-1.92-10.53-3.18-26.94-3.18-26.94Z"/>
  <path class="st0" d="M193.87,446.19s-14.52-.84-21.26,2.11c-6.74,2.95-14.65,24-15.64,33.89s-.57,21.26,2.59,24.84,3.91,4.64,7.22,4.43c3.31-.22,12.78-16.22,18.46-19.37,5.68-3.16,16.63-2.11,20.63.63s11.16,12.42,12,15.37-.21,4.63,2.95,4.84c3.16.21,10.95-2.53,12.63-13.47s-6.04-26.9-6.67-28-5.96-20.63-11.85-23.58-21.05-1.68-21.05-1.68Z"/>
  <path class="st12" d="M195.09,472.92s.8-17.47,0-18.52-.89,17.26,0,18.52Z"/>
  <path class="st12" d="M191.87,464.71s2.84-10.61-6.21-10.36c0,0-1.22,2.99,1.39,3.2s4.72,1.26,4.82,7.16Z"/>
  <path class="st12" d="M197.66,464.71s-.63-10.19,2.32-10.36,4.21.68,4.21,1.94-4.21,0-4.63,1.05-1.89,7.37-1.89,7.37Z"/>
  <path class="st12" d="M182.08,452.29s-3.79,3.53-1.68,7.24c2.11,3.71,2.95,5.18,2.95,5.18,0,0-9.05-7.58-1.26-12.42Z"/>
  <path class="st12" d="M207.13,453.35s4,8.21-2.95,11.37c0,0,3.16-1.47,2.95-11.37Z"/>
  <path class="st0" d="M178.92,501.34s3.64,0,6.45-1.89,7.23-5.68,13.97-4,7.34,5.89,8.93,5.89h1.59s-5.17-7.16-12.27-7.37-13.2,4.84-14.26,5.05-4.01,1.05-4.42,2.32Z"/>
  <path class="st0" d="M183.35,509.13c-.31-.55,6.2,2.54,14.26,2.32,8.06-.22,10.68-2.32,10.68-2.32,0,0-3.79,3.81-10.68,3.8-6.89-.01-13.42-2.33-14.26-3.8Z"/>
  <path class="st0" d="M174.72,512.93s13.05,5.46,24.63,4.2c11.58-1.26,14.74-4.2,14.74-4.2,0,0-3.06,4.83-16.48,5.25s-24.15-5.25-24.15-5.25h1.26Z"/>
  <path class="st13" d="M176.82,498.82s-.42,37.97-3.37,41.4c0,0-5.05,1.62-5.47,0s2.53-36.84,2.53-36.84l6.32-4.56Z"/>
  <path class="st13" d="M217.45,505.24c-.17,1.45,2.11,34.25,1.47,35.7s-4.42.86-4.84,0-3.16-45.28-3.16-45.28l6.53,9.58Z"/>
  <path class="st0" d="M157.39,454.86s-1.72-6.86,2-8.94c3.72-2.08,4.63,4.9,4.63,4.9,0,0-.1,7.55-3.02,10.56-2.92,3.02-4.81-4.59-3.61-6.52Z"/>
  <path class="st12" d="M162.21,452.29s-4.38-5.9-5.71.54c0,0,.1,2.85,2.86,1.53s2.86-2.06,2.86-2.06Z"/>
  <path class="st0" d="M221.37,451.82s-.24-7.24,2.4-7.49,4,5.38,3.44,7.49c0,0,2.31,8.62-1.41,8.89-3.72.27-4.43-8.89-4.43-8.89Z"/>
  <path class="st12" d="M222.83,452.42s4.08-4.68,4.73-2.92.5,4.77-1.06,4.85-3.67-1.93-3.67-1.93Z"/>
  <path class="st15" d="M168.95,435.32s11.56-6.64,26-5.53c14.45,1.11,21.99,8.05,21.99,8.05,0,0-6.74-8.35-22.49-9.06-15.75-.7-25.51,6.54-25.51,6.54Z"/>
  <path class="st10" d="M253.05,541.82s27.13-7.51,44.66-14.58c17.53-7.08,17.77-11.2,20.65-14.3,2.88-3.1,3.6-7.69,3.6-7.69,0,0,7.68,8.16-7.44,16.95-15.13,8.78-55.95,19.45-61.47,19.64Z"/>
  <path class="st10" d="M225.37,575.86c1.51.24,15.67,1.2,41.13-4.08,25.45-5.28,59.31-16.81,82.12-20.17,22.81-3.36,49.22-1.64,49.22-1.64,0,0-27.37,1.16-48.02,5.72-20.65,4.56-63.39,15.85-85.48,18.97s-38.97,1.2-38.97,1.2Z"/>
  <path class="st10" d="M262.66,464.71s19.93,1.9,36.02,3.1c16.09,1.2,22.09,5.9,26.41,5.11s8.88,0,8.88,0c0,0-12.97-1.33-19.69-4.06-6.72-2.73-51.63-4.15-51.63-4.15Z"/>
  <path class="st10" d="M269.76,455.81s14.99,2.61,35.16,3.23c20.17.62,25.93,4.61,25.93,4.61,0,0-30.5-3.29-38.18-2.92-7.68.37-22.91-4.92-22.91-4.92Z"/>
  <path class="st10" d="M247.97,442.36s-.92-1.2,14.69,0c15.61,1.2,22.09,1.96,22.09,1.96,0,0-35.86-5.81-36.78-1.96Z"/>
  <path class="st10" d="M286.19,436.59s8.16.25,15.37,2.41c7.2,2.16,34.34-1.16,34.34-1.16,0,0-20.41,1-24.85,0-4.44-1-24.85-1.25-24.85-1.25Z"/>
  <path class="st10" d="M68.88,460.72c.96.61,6.96,3.08,17.77,1.36,10.81-1.72,33.14-1.37,33.14-1.37,0,0-17.29-2.39-23.77-2.21s-27.13,2.22-27.13,2.22Z"/>
  <path class="st10" d="M76.09,433.29s5.52,3.31,18.25,2.11,31.46-.92,31.46-.92c0,0-20.41-.89-24.85-1.18-4.44-.29-24.85,0-24.85,0Z"/>
  <path class="st10" d="M60.72,489.9s8.52,1.13,18.01,1.13h30.74s-21.61.27-28.33-1.99c-6.72-2.26-20.41.86-20.41.86Z"/>
  <path class="st10" d="M122.43,549.53s-42.74,11.69-52.11,10.96c-9.36-.72-41.54.03-41.54.03,0,0,37.94,3.75,48.98,2.46,11.05-1.29,44.66-13.46,44.66-13.46Z"/>
  <path class="st14" d="M162.11,480.52s-5.29,10.19-5.12,15.14,2.24,7.95,2.36,7.11-1.71-5.8-.88-8.8,4.35-14.88,3.64-13.45Z"/>
  <path class="st14" d="M224.64,481.82s4.01,7,5.18,12.15.83,10.97,0,10.47.36-6.94-1.9-12.78c-2.26-5.84-4.24-11.62-3.28-9.84Z"/>
  <path class="st14" d="M165.29,483.15s-1.83,9.72-2,14.51-.87,7.88.73,7.58c0,0,.44-11.06,1.27-13.58s0-8.51,0-8.51Z"/>
  <path class="st14" d="M227.92,481.49s7.39,13.88,7.39,16.17,1.16,1.16,1.16,1.16c0,0-1.77-4.62-2.78-7.79-1.02-3.17-6.57-11.07-5.77-9.54Z"/>
  <path class="st14" d="M221.37,483.15s3.23,6.01,4.01,10.82c.78,4.81-.98,12.63-.98,12.63,0,0-1.61-.11-.92-2.13s1.47-10.72,0-14.27-4.07-7.88-2.1-7.05Z"/>
  <path class="st14" d="M215.78,483.04s4.7,9.58,4.88,13.91-1.6,6.76-1.63,5.96.69-3.06,0-7.25-4.06-11.51-4.06-11.51c0,0,.23-2.3.8-1.1Z"/>
  <path class="st14" d="M170.28,483.04s-1.66,8.59-1.33,13.41c.33,4.82.65,7.57,1.55,6.92s-.61-4.5,0-10.12.06-11.79-.23-10.21Z"/>
  <path class="st14" d="M175.43,485.14s-2.92,2.69-1.98,9.06.66,9.01,1.98,8.71-1.5-7.72-1.08-10.25,1.08-7.52,1.08-7.52Z"/>
  <path class="st14" d="M212.35,485.14s2.69,5.38,3.42,9.68,0,9.28-.84,8.09-.02-4.36-.72-9.78-5.34-8.95-1.86-7.99Z"/>
  <path class="st14" d="M182.09,484.99s-4,5.65-3.17,8.14,1.88,1.81,1.53,1.07-.77-1.47.69-4.27.95-4.95.95-4.95Z"/>
  <path class="st14" d="M207.2,486.64s1.97,2.37,2.67,6.49-1.51,1.83-1.59,0-2.74-7.16-1.08-6.49Z"/>
  <path class="st14" d="M186.24,484.99s-1,3.48,0,3.23,0-3.23,0-3.23Z"/>
  <path class="st14" d="M204.19,486.61s.98,2.03,0,2.53,0-2.53,0-2.53Z"/>
  <path class="st14" d="M158.47,481.49s-3.96,6.59-3.96,9.54-3.13,4.28-2.03,2.1,3.12-14.03,6-11.64Z"/>
  <path class="st14" d="M229.15,480.52c-.25.53,3.58,5.67,4.53,7.14s1.62,1,1.62.57-5.32-9.45-6.15-7.72Z"/>
  <path class="st9" d="M275.6,495.66c-.49-1.33-.15-25.24,12.89-24.89,13.04.35,26.7,26.89,26.7,26.89,0,0-36.09,7.48-39.59-2Z"/>
  <path class="st9" d="M15,544.26c0-.74,13.86-49.43,19.65-62.52s16.66-36.36,40.1-35.98c23.44.38,41.51,7.76,44.22,29.76s9.33,71.42,9.33,71.42c0,0-24.88,3.8-46.82,5.33-21.95,1.52-66.47-8.01-66.47-8.01Z"/>
  <path class="st14" d="M743.15,436.17s14.13-11.55,34.65-5.7,30.93,13.85,30.93,13.85c0,0-60.74,15.7-65.58-8.15Z"/>
  <path class="st9" d="M566.28,177.04s6.61-15.19,40.32-12.95,45.86,12.95,45.86,12.95c0,0-86.2,22.71-86.17,0Z"/>
  <path class="st10" d="M485.78,556.4s31.01,10.79,46.32,12.19,72.23,5.11,72.23,5.11c0,0-35.89,3.18-62.45,2.75s-49.8-10.01-49.8-10.01l-6.3-10.05Z"/>
  <path class="st10" d="M616.33,581.13s-7.64,1.86,9.37,7.9,97.89,6.24,97.89,6.24l45.09,2.59s-34.32,9.03-80.15,5.91-101.83-18.46-72.2-22.65Z"/>
  <path class="st10" d="M768.68,589.04s18.59-1.86,18.59-7.9-1.86-9.3-1.86-9.3c0,0,6.97,3.72,6.51,9.3s-13.02,11.53-13.02,11.53l-10.23-3.63Z"/>
  <path class="st10" d="M743.15,448.73s1.36,3.27,20.42,5.08,35.33.53,35.33.53c0,0-51.99,7.49-55.75-5.61Z"/>
  <path class="st10" d="M401.26,363.02s7.16,8.19,11.34,8.09,99.48,7.47,122.26,2.99l22.78-4.48s-7.38,11.91-41.11,11.07-100.72-3.5-107.2-6.59-8.06-11.08-8.06-11.08Z"/>
  <path class="st10" d="M411.67,376.75s6.68,4.32,24.26,3.94,42.51.11,42.51.11c0,0-33.75,4.06-47,3.18s-19.76-7.24-19.76-7.24Z"/>
  <path class="st10" d="M466.42,384.46s36.83.43,53.1,0,25.54-.48,25.54-.48c0,0-31.59,5.21-50.65,5.88s-39.55,0-39.55,0l11.56-5.4Z"/>
  <path class="st10" d="M239.21,445.04s11.67-3.16,23.45-2.68,23.53-1.7,23.53-1.7l5.54,3.67s-12.18,4.95-25.38,4.4-24.7,0-24.7,0l-2.45-3.68Z"/>
  <path class="st10" d="M266.35,345.48s22.59,12.22,40.26,11.44,34.02-2.99,34.02-2.99l8.95-.36s-33.72,7.69-49.27,6.76-33.95-14.85-33.95-14.85Z"/>
  <path class="st10" d="M566.28,184.15s4.29,5.58,31.52,5.11,52.32-7.44,52.32-7.44c0,0-12.21,9.56-54.91,10.13s-49.46-4.82-49.46-4.82l20.52-2.99Z"/>
  <path class="st10" d="M782.62,239.13s23.59-2.39,30.39-2.42,10.52-1.97,10.52-1.97c0,0,1.39,6.42-7.44,6.5s-33.47-2.11-33.47-2.11Z"/>
  <path class="st10" d="M669.61,253.48s2.61,3.49,11.32,7.06,28.24,6.79,28.24,6.79c0,0-15.87-.71-22.81-1.27s-16.75-12.58-16.75-12.58Z"/>
  <path class="st10" d="M707.32,275.26s4.65,5.58,16.27,6.97,36.26,3.07,36.26,3.07c0,0-8.37,1.36-23.24,1.23s-27.43-1.23-27.43-1.23h-11.37l7.65-4.4,1.86-5.64Z"/>
  <path class="st10" d="M771.02,280.35s18.11-4.16,19.97-5.09,40.91,2.54,40.91,2.54c0,0-33.47.31-38.12.97s-22.76,1.57-22.76,1.57Z"/>
  <path class="st10" d="M777.79,245.97l25.32,1.73s-23.65,3.85-25.32-1.73Z"/>
  <path class="st10" d="M709.18,289.2c-2.19-1.79,23.24,1.93,39.05,2.36s36.84-2.36,36.84-2.36c0,0-58.22,14.41-75.89,0Z"/>
  <g>
    <path class="st1" d="M88.51,301.97s-15.19-76.71,28.01-76.71,62.69,76.71,62.69,76.71c0,0-63.91,16.71-90.7,0Z"/>
    <path class="st9" d="M121.14,319.43s2.87-73.63,44.88-65.63,44.17,65.63,44.17,65.63c0,0-67.93,23.63-89.05,0Z"/>
    <path class="st9" d="M28.78,374.47s12.68-18.11,40.1-8.12l27.42,9.98s-65.04,16.29-67.52-1.86Z"/>
    <path class="st9" d="M140.61,351.2s31.78-8.08,42.73,1.52l10.96,9.6h-61.58s-1.96-9.19,7.88-11.12Z"/>
    <path class="st10" d="M28.78,380.43s3.1,6.59,19.83,6.49,45.72-6.18,45.72-6.18c0,0-26.66,10.82-40.61,10.55s-24.94-4.89-24.94-10.85Z"/>
    <path class="st10" d="M132.57,365.91l63.24.43s-63.28,6.02-63.24-.43Z"/>
    <path class="st10" d="M119.79,324.5s4.13,9.81,24.59,9.57,61.86-8.6,61.86-8.6c0,0-37.17,12.77-58.81,12.66s-27.63-13.63-27.63-13.63Z"/>
    <path class="st10" d="M80.69,302.22s13.1,7.02,15.61,7.46-17.01-.49-15.61-7.46Z"/>
    <path class="st10" d="M85.92,314.77c-.26-2.7,27.18,5.15,27.18,5.15,0,0-26.19,5.17-27.18-5.15Z"/>
  </g>
  <path class="st1" d="M265.86,611.88c-.92-6.21,16.13-59.01,58.54-61.42s85.4,61.42,85.4,61.42c0,0,5.88-55.62,47.42-51.37s46.55,51.37,46.55,51.37h-237.91Z"/>
  <path class="st7" d="M90.7,306s5.66,3.58,15.89,5.1,13.2,2.18,13.2,2.18c0,0-27.56,1.77-29.09-7.28Z"/>
  <path class="st7" d="M83.95,309.77s3.14,2.58,8.71,4.43,8.28,2.5,8.28,2.5c0,0-15.94-.55-16.98-6.93Z"/>
  <path class="st7" d="M713.45,275.48s-2.51,3.89,4.68,5.42,19.59,2.71,19.59,2.71c0,0-37.45,3.47-24.28-8.13Z"/>
  <path class="st7" d="M746.01,284.28s12.82-.83,17.83-1.48,9.01-1.9,9.01-1.9c0,0-20.28,8.35-26.83,3.38Z"/>
  <path class="st7" d="M728.83,286.54s6.72,1.35,13.25,2.18,19.32,0,19.32,0l6.8.37s-9.14.46-13.06.9-12.02,1.39-15.27,1.14-11.04-4.58-11.04-4.58Z"/>
  <path class="st3" d="M123.78,324.5s6.2,6.97,23.09,9.51,37.41,1.9,37.41,1.9c0,0-53.97,10.7-60.5-11.41Z"/>
  <path class="st3" d="M177.75,331.31s25.9-3.24,32.43-5.64,9.14-2.61,9.14-2.61c0,0-36.86,11.19-41.57,8.25Z"/>
  <path class="st3" d="M179.21,333.3s12.9-.58,24-1.49,16.1-3.32,16.1-3.32c0,0-19.05,8.27-40.11,4.81Z"/>
  <path class="st3" d="M121.14,326.49s3.68,9.72,11.43,11.63,17.98,2.57,17.98,2.57c0,0-30.64,5.13-29.42-14.2Z"/>
  <path class="st3" d="M33.68,383.04s10.16,1.73,24.77,3.33-8.44,2.86-8.44,2.86c0,0-19.59-2.57-16.32-6.18Z"/>
  <path class="st3" d="M83.95,367.4l13.71,4.85s-6.31-5.12-13.71-4.85Z"/>
  <path class="st3" d="M25.41,384s5.01,5.01,10.45,6.09,11.1,2.61,11.1,2.61c0,0-22.42-3.05-21.55-8.71Z"/>
  <path class="st3" d="M149.68,367.4l31.56,1.49-35.47.93s1.07-2.55,3.92-2.42Z"/>
  <path class="st3" d="M186.24,363.34c.65.86,26.55,1.29,26.55,1.29h-28.51l1.96-1.29Z"/>
  <polygon class="st3" points="119.79 358.54 131.62 358.54 131.62 360.4 119.79 358.54"/>
  <path class="st3" d="M235.31,441.89s13.83,2.38,28.63,2.82,17.85,0,17.85,0c0,0-46.16,3.27-46.48-2.82Z"/>
  <path class="st3" d="M233.68,445.75c1.74.06,27.87,4.17,41.79,4.07l13.92-.1s-43.09,0-48.97.1-6.75-4.07-6.75-4.07Z"/>
  <path class="st3" d="M284.75,438.16c-.32-.79,16.02-1.94,15.56-4.87s2.1-.69,1.28,1.12-15.85,6.18-16.84,3.75Z"/>
  <path class="st3" d="M12.57,547.44s33.3,7.68,37.43,8.95,25.6,1.71,25.6,1.71c0,0-14.5,1.31-26.04,0l-11.53-1.31-25.46-9.36Z"/>
  <path class="st3" d="M82.87,556.4c.03-.87,45.44-3.33,45.44-3.33,0,0-45.65,10.11-45.44,3.33Z"/>
  <path class="st3" d="M28.78,562.99c.08-.14,17.3,6.22,17.3,6.22,0,0-18.74-3.72-17.3-6.22Z"/>
  <path class="st3" d="M20.19,562.99c.41-.58-2.58,4.7,17.21,7.52s34.26,2.83,34.26,2.83c0,0-59.8,1.48-51.46-10.35Z"/>
  <path class="st3" d="M-6.15,535.25s10.23-3.69,15.23-3.69,8.27-3.26,8.27-3.26c0,0-22.63.85-23.5,6.95Z"/>
  <path class="st3" d="M275.48,497.65s4.78,4.9,13.92,5.26,15.02.46,15.02.46c0,0-33.29,3.69-28.94-5.72Z"/>
  <path class="st3" d="M273.95,503.06s1.84,3.53,17.79,2.19c0,0-19.44,5.21-17.79-2.19Z"/>
  <path class="st3" d="M383.63,505.26s4.79,7.16,22.2,10.31,50.9,7.96,50.9,7.96c0,0-77.67-3-73.1-18.27Z"/>
  <path class="st3" d="M403.87,522.18c.87.45,20.68,8.29,38.74,8.29h25.15s-22.32,4.79-38.21,1.96-25.68-10.25-25.68-10.25Z"/>
  <path class="st3" d="M418.02,535.5s30.9,3.11,40.7,2.96l9.79-.15s-48.3,4.18-50.49-2.81Z"/>
  <path class="st3" d="M371.01,514.39s3.05,8.07,9.79,9.14,11.53,1.27,11.53,1.27c0,0-21.76,4.85-21.33-10.41Z"/>
  <path class="st3" d="M361.44,498.82s3.7-2.93,11.32-3.16,9.79-.22,9.79-.22v-2.46s-19.37-1.22-21.11,5.84Z"/>
  <path class="st7" d="M621.31,584.01c.54-.37,11.3,6.84,22.45,11.27s70.9,9.16,70.9,9.16h-42.87s-65.69-9.98-50.47-20.43Z"/>
  <path class="st7" d="M612.15,578.57s-11.32,3.7-10.23,7.4,22.81,15.02,22.81,15.02h-4.89s-42.73-14.15-7.69-22.42Z"/>
  <path class="st7" d="M757.31,591.41s18.58-1.09,23-2.61,5.51-2.18,5.51-2.18c0,0-21.98,11.1-44.83,12.41s-38.22,0-38.22,0l54.54-7.62Z"/>
  <path class="st7" d="M794.53,573.34c-1.04-.33,10.45,8.92,7.18,13.28s-26.99,12.99-26.99,12.99h8.92s43.53-16.03,10.88-26.26Z"/>
  <path class="st2" d="M742.29,444.03s8.51,5.89,16.54,7.98,13.5,2.45,13.5,2.45c0,0-30.89-2.57-30.04-10.42Z"/>
  <path class="st3" d="M680.06,260.17s1.73,4.57,7.82,8.05,13.28,5.01,13.28,5.01c0,0-32.19-1.09-21.1-13.06Z"/>
  <path class="st3" d="M696.37,268.22c.34-1.06,14.27,2.39,14.27,2.39,0,0-15.79,2.39-14.27-2.39Z"/>
  <polygon class="st3" points="782.62 264.74 790.46 261.26 810.85 261.26 782.62 264.74"/>
  <path class="st2" d="M774.94,234.74l26.52,3.25s-26.3,3.74-26.52-3.25Z"/>
  <path class="st2" d="M803.12,234.74c1.2.4,11.86-1.34,11.86-3.08s-4.14-5.66-4.14-5.66c0,0,14.15,6.01,8.92,7.58s-16.65,1.16-16.65,1.16Z"/>
  <path class="st3" d="M558.61,181.82s9.36,7.4,18.5,8.27l9.14.87s-27.44-.56-31.24-5.18,3.6-3.96,3.6-3.96Z"/>
  <path class="st3" d="M622.6,186.38s23.94-2.44,28.95-4.59,6.75-4.75,6.75-4.75c0,0-7.18,13.02-35.69,9.34Z"/>
  <path class="st3" d="M581.03,193.14c0-1.11,13.71,2.18,35.47,0s23.94-2.18,23.94-2.18c0,0-59.41,11.75-59.41,2.18Z"/>
  <path class="st3" d="M398.87,363.02s-.84,7.96,10.45,11.08,40.72,3.99,40.72,3.99c0,0-77.14,3.23-51.17-15.07Z"/>
  <polygon class="st3" points="438.48 384.46 486.33 386.92 429.56 386.47 438.48 384.46"/>
  <path class="st3" d="M489.19,378.32s46.48,2.77,54.52-.56,8.81-2.61,8.81-2.61c0,0-15.23,8.53-58.98,6.97l-43.74-1.56,39.39-2.24Z"/>
  <path class="st3" d="M407.14,386.47s-.22,4.04,28.07,6.44,40.26,2.15,40.26,2.15c0,0-91.62,3.89-68.34-8.59Z"/>
  <path class="st9" d="M486.87,64.04s5.36-25.31,38.7-26.71,69.74,31.5,69.74,31.5c0,0-117.19,10.12-108.43-4.78Z"/>
  <path class="st9" d="M298.32,124.92s64.86,4.5,92.47,0c0,0-67.05-21-92.47,0Z"/>
  <path class="st9" d="M19.39,181.79s74.9,7.43,93.71.03c0,0-107.23-45.16-93.71-.03Z"/>
  <path class="st9" d="M76.09,161.74s56.89,3.82,74.35,0c0,0-77.68-38.18-74.35,0Z"/>
  <path class="st9" d="M33.31,115.59s22.04,2.67,35.57,0c0,0-20.55-57.51-35.57,0Z"/>
  <path class="st14" d="M537.71,77.62s6.91-15.38,20.73-14.85,33.38,14.85,33.38,14.85c0,0-52.67,14.33-54.11,0Z"/>
  <path class="st9" d="M113.21,75.93s15.86-12,39.03-10.5c23.17,1.5,60.55,10.5,60.55,10.5,0,0-104.78,12-99.58,0Z"/>
  <path class="st14" d="M640.03,110.44s-2.35-43.49,24.74-46.15,29.95,46.15,29.95,46.15c0,0-55.94,17.51-54.7,0Z"/>
  <path class="st9" d="M652.93,130.52s-8.79-40.06,15.48-37.05,19.6,37.05,19.6,37.05h-35.08Z"/>
  <path class="st1" d="M660.27,140.69s1.12-32.7,9.61-28.13,9.11,28.33,9.11,28.33l-18.72-.2Z"/>
  <path class="st14" d="M505.34,130.52s14.54-29.14,36.54-27.12,31.41,27.12,31.41,27.12c0,0-75.01,10.8-67.95,0Z"/>
  <path class="st6" d="M138.8,535.5s3.32,9.51,16.55,11.95,17.91,2.95,17.91,2.95c0,0-42.08,3.48-34.47-14.89Z"/>
  <path class="st6" d="M163,538.46s2.14,4.26,7.51,5.2,7.41-.27,12.84,0,17.68.6,23.31,1.26,15.12-.04,17.99-1.84,3.28-2.95,3.28-2.95c0,0,1.93,9.18-23.73,7.32,0,0-15.81.21-23.05,0s-25.72-3.87-18.14-8.99Z"/>
  <path class="st6" d="M236.47,538.46c-2.34.11,25.92-7.26,26.19-17.11,0,0,2.68,15.72-26.19,17.11Z"/>
  <path class="st6" d="M137.88,550.65s12.92,7,26.45,8.08,24.21-1.74,31.12,0,20.63,2.71,20.63,2.71c0,0-8.99,2.31-18.48,1.49s-17.13-3.17-25.22-1.49-40.93-7.65-34.5-10.8Z"/>
  <path class="st6" d="M152.24,569.21s4.56,2.85,21.21,2.19,37.83,2,37.83,2l30.37-5.23s-24.6,10.84-31.79,10.51-17.22-3.06-23.62-2.19-22.83.12-25.04,0-8.96-7.28-8.96-7.28Z"/>
  <path class="st6" d="M152.47,580.77s10.32,4.53,23.32,5.53,48.85,1.32,48.85,1.32c0,0-35.72,2.65-45.72,2.98s-26.45-9.83-26.45-9.83Z"/>
  <path class="st6" d="M150.44,590.61s4.66,4.63,22.83,7.6,36.6,5.57,36.6,5.57h-12.27s-46.78-5.22-47.16-13.17Z"/>
  <path class="st6" d="M229.14,562.94s19.03-9.57,22.1-12.97,4.4-6.32,4.4-6.32l-26.5,19.29Z"/>
  <path class="st6" d="M478.44,545.25s3.95,8.25,9.57,11.9,33.48,12.92,33.48,12.92c0,0-31.71-4.67-37.23-8.63s-5.82-16.2-5.82-16.2Z"/>
  <path class="st6" d="M541.89,576.45s15.72,4.87,37.14,5.8,30.73.52,30.73.52c0,0-66.94,3.36-67.87-6.33Z"/>
  <path class="st6" d="M516.52,582.25s21.66,11.61,25.37,11.96,42.37,9.57,42.37,9.57l-15.83.66s-53.18-11-51.91-22.18Z"/>
  <path class="st6" d="M537.65,586.62s32.44,11.07,44.02,12.99,30.98,4.18,30.98,4.18l9.04.66-84.04-17.82Z"/>
  <path class="st6" d="M343.91,356.92s20.29,1.99,34.86,0,19.07-3.35,19.07-3.35c0,0-48.08,13.95-53.93,3.35Z"/>
  <path class="st6" d="M355.18,342.6s8.02,1.76,21.6,3.24,21.06,1.92,21.06,1.92c0,0-43.09,3.69-42.66-5.16Z"/>
  <path class="st6" d="M371.1,353.57h10.57s-9.96,4.27-10.57,0Z"/>
  <path class="st10" d="M140.61,547.69c-.2-1.33,4.4,6.19,20.59,6.77s49.87,1.43,49.87,1.43c0,0-68.06,8.03-70.46-8.21Z"/>
  <path class="st10" d="M140.61,566.75s14.14,6.39,25.05,6.69,21.39.91,21.39.91c0,0-15.8,4.02-24.94,2.11s-11.8-2.69-17.55-3.02-27.29,1.52-27.29,1.52c0,0,17.32-9.03,23.33-8.21Z"/>
  <path class="st10" d="M202.43,584.19c-.33-.97,14.84,2.18,26.71,1.5s25.61-.68,25.61-.68c0,0-50.08,5.87-52.32-.82Z"/>
  <path class="st10" d="M141.28,585.69s13.85,4.66,28.57,6.5,40.01,3.09,40.01,3.09c0,0-67.97,4.63-68.59-9.59Z"/>
  <path class="st10" d="M193.77,563.26s7.55.74,20.31-1.37,21.23-5.99,21.23-5.99c0,0-8.5,6.18-14.63,7.49s-6.34.89-14.96,1.51-25.56,1.03-25.56,1.03l13.61-2.66Z"/>
  <path class="st10" d="M238.34,549.53s8,.04,18.47-1.84,24.21-4.62,24.21-4.62c0,0-40.01,12.64-42.68,6.46Z"/>
  <path class="st10" d="M232.15,552.43s5.36.91,13.78.63,16.8-2.41,16.8-2.41c0,0-16.03,5.94-30.57,1.78Z"/>
  <path class="st10" d="M125.9,557.89s14.79,5.57,26.58,6.81,18.33,2,18.33,2c0,0-41.44-.45-44.91-8.8Z"/>
  <path class="st10" d="M122.43,576.96c-.51-.57,16.8,5.38,22.75,5.38h5.95s-22.11,1.97-28.7-5.38Z"/>
  <path class="st10" d="M178.81,580.77s26.87.64,37.27-2.08-37.27,2.08-37.27,2.08Z"/>
  <path class="st10" d="M266.35,507.8s17.49,1.26,20.57,6.59-17.16,15.51-17.16,15.51c0,0,25.93-7.96,19.64-15.51s-23.04-6.59-23.04-6.59Z"/>
  <path class="st10" d="M265.83,512.03s10.32,2.06,11.64,5.1-9.46,9.67-9.46,9.67c0,0,15.64-9.27-2.19-14.77Z"/>
  <path class="st10" d="M259.68,499.86s32.3,4.39,37.36,6.74,5.94,4.4,5.94,4.4c0,0-5.01-13.2-43.3-11.14Z"/>
  <path class="st10" d="M309.35,504.09c-.85.22,17.37-3.53,17.15-5.27s-5.5-2.96-5.5-2.96c0,0,4.84,4.03-11.65,8.23Z"/>
  <path class="st10" d="M271.7,493.13s-8.1.89-5.35,2.31,5.35,2.21,5.35,2.21c0,0-20.94-3.41,0-4.52Z"/>
  <path class="st10" d="M269.76,491.8s-13.14,1.69-10.09,3.59,6.15,2.26,6.15,2.26c0,0-24.88-3,3.94-5.86Z"/>
  <path class="st10" d="M318.81,491.03s18.68,4.69,15.17,7.79-13.63,4.65-13.63,4.65c0,0,17.9.55,15.55-6.22s-17.09-6.22-17.09-6.22Z"/>
  <path class="st10" d="M265.38,505.05c.43-.06,51.22,3.82,43.94,12.08s-19.92,9.67-19.92,9.67c0,0,21.49-8.73,13.58-12.41s-37.6-9.34-37.6-9.34Z"/>
  <path class="st10" d="M374.88,501.94s.66,5.82,5.72,9.06,8.36,4.57,8.36,4.57c0,0-31.45-6.12-14.07-13.62Z"/>
  <path class="st10" d="M340.8,528.11c.66-.03,6.82-.13,17.15,1.79s30.13,1.92,30.13,1.92c0,0-21.11-1.47-32.32-5.02s-35.62,3.1-35.62,3.1l20.67-1.79Z"/>
  <path class="st10" d="M373.12,540.94c.74.02,3.03,2.35,19.22,4.32s43.48,1.9,43.48,1.9c0,0-34.67,2.94-50.12.29s-47.33.25-47.33.25c0,0,24.41-7.1,34.74-6.76Z"/>
  <path class="st10" d="M289.4,544.92s.34-.06.99-.16c2.73-.41,10.99-1.47,23.58-1.68,15.61-.26,34.3-2.69,34.3-2.69,0,0-13.63.21-23.31.55s-34.85-.08-35.57,3.98Z"/>
  <path class="st10" d="M246.46,460.72s20.36-.95,25.24,0l4.89.95-30.13-.95Z"/>
  <path class="st10" d="M335.9,451.73c12.38,1.36,23.59,4.14,38.55,4.07s25.51,0,25.51,0c0,0-23.44,1.88-30.3,1.9s-33.75-5.97-33.75-5.97Z"/>
  <path class="st10" d="M332.22,467.17s-5.06.09,13.19,1.69,36.26,1.9,36.26,1.9c0,0-11.03-.37-20.24,0s-43.52-4.47-43.52-4.47l14.31.88Z"/>
  <path class="st10" d="M339.92,512.03c5.72-.44,7.7-.66,12.97,0s15.03,0,15.03,0c0,0-5.94-3.07-14-2.97s-14,2.97-14,2.97Z"/>
  <path class="st10" d="M8.53,547.15s-2.26,3.56,4.04,6.76,31.52,10.23,31.52,10.23c0,0-57.32-6.93-35.55-16.99Z"/>
  <path class="st10" d="M-3.56,558.69c.43-1.39,10.56,10.27,26.17,13.14s40.02,5.1,40.02,5.1c0,0-71.91.5-66.19-18.24Z"/>
  <path class="st10" d="M65.27,569.21c-1.89-6.32,15.17.66,26.17,0s30.98-2.51,30.98-2.51l-10.97,2.81s-44.86,4.11-46.18-.29Z"/>
  <path class="st10" d="M-3.88,582.58c1.42.04,6.7-2.48,30.89,1.42s80.7,3.32,89.06,3.39,23.09,0,23.09,0l3.67,3.22s-76.12-.51-96.74-1.39-52.51-1.32-55.8-.88,5.83-5.75,5.83-5.75Z"/>
  <path class="st10" d="M0,593.61c1.28,0,17.33-.88,41.74,0s71.36,3.58,71.36,3.58l-119.25,3.24,6.15-6.82Z"/>
  <path class="st10" d="M-6.15,514.67c.39,0,9.4-.84,14.68.9s10.86,1.08,10.86,1.08c0,0-5.58-2.16-11.74-3.72s-13.8,1.74-13.8,1.74Z"/>
  <path class="st10" d="M11.17,510.05h8.22s-6.48-3.35-8.22,0Z"/>
  <path class="st10" d="M503.77,556.4s75.78,9.92,95.82,10.05,21.48,0,21.48,0l-4.74,2.76-36.66-1.1s-76.64-8.87-75.9-11.71Z"/>
  <path class="st10" d="M500.88,578.57c-1.03-.74,5.06,15.05,23.75,19.88s51.19,4.18,51.19,4.18c0,0-49.87-6.12-74.94-24.06Z"/>
  <path class="st10" d="M567.29,589.77c-.56.76,65.09,11.21,65.09,11.21,0,0-63.12-13.92-65.09-11.21Z"/>
  <path class="st10" d="M784.11,559.75s13.62,1.3,24.62,6.7,18.26,17.55,18.26,17.55c0,0,1.1-11.95-10.12-17.55s-32.76-6.7-32.76-6.7Z"/>
  <path class="st10" d="M777.29,548.65s29.47,3.18,40.9,5.6,36.28,3.41,36.28,3.41c0,0-18.25-2.75-30.57-5.83s-46.62-3.18-46.62-3.18Z"/>
  <path class="st10" d="M774.72,529.84c-.4.74,20.19,2.64,30.84,4.4s16.15,3.35,16.15,3.35c0,0-44.5-12.37-46.99-7.75Z"/>
  <path class="st10" d="M782.79,514.45c-2.91,4.66,9.93,4.4,23.88,5.28s48.91,1.54,48.91,1.54v-1.1s-34.96-2.64-41.34-2.31-30.35-5.17-31.45-3.41Z"/>
  <path class="st10" d="M768.68,504.55s1.04-3.08,17.14,0,42.71,4.4,42.71,4.4c0,0-48.24-9.46-53.81-9.57s-16.64,2.56-16.64,2.56l10.6,2.61Z"/>
  <path class="st10" d="M774.72,482.78s15.54,3.33,27.42,2.88,65.31.44,65.31.44v-1.8l-92.73-1.52Z"/>
  <path class="st10" d="M782.37,491.58l12.07,1.54s-12.93.66-12.07-1.54Z"/>
  <path class="st10" d="M803.9,496.42s12.09-1.76,14.07-1.76,9.05,1.76,9.05,1.76h-23.12Z"/>
  <path class="st10" d="M735.51,449.39s.44,7.48,12.09,10.54,36.5,4.23,36.5,4.23c0,0-36.94,1.73-48.6-4.23s0-10.54,0-10.54Z"/>
  <path class="st10" d="M0,495.86c-.17-.1,20.58.32,21.34,1.39s2.31.56.77,1.07-33.04,0-33.04,0l10.93-2.46Z"/>
  <path class="st10" d="M-4.78,462.08c5.64-1.16,34.58,1.56,34.58,1.56,0,0-19.72-4.2-27.15-4.61s-17.93,1.27-17.93,1.27l10.5,1.79Z"/>
  <path class="st10" d="M5.92,523.53l-37.6,10.3s13.98-11.22,37.6-10.3Z"/>
  <path class="st1" d="M60.72,555.29s7.64-12.85,29.31-12.78,35.24,14.26,35.24,14.26c0,0-25.05,3.14-38.01,3.19s-26.54-4.67-26.54-4.67Z"/>
  <path class="st7" d="M56.69,555.65s11.27,7.72,23.05,8.5,37.53-.88,37.53-.88c0,0-22.56,4.27-41.19,2.84s-19.4-10.45-19.4-10.45Z"/>
  <path class="st14" d="M610.73,317.71s18.26-74.66,78.71-74.79,75.99,82.55,75.99,82.55c0,0,7.36,4.1-41.25,8.68s-118.39-1.86-113.45-16.43Z"/>
  <path class="st14" d="M823.61,342.6c3.33-10.94,1.14-50.38,23.51-59.22s39.26,69.34,39.26,69.34l-50.08,7.68-12.69-17.81Z"/>
  <path class="st14" d="M-41.32,298.28c2.7,1.93,38.3,4.86,58.68,21.64s24.37,26.74,15.96,27.84-41.47,3.1-55.01,3.45-19.62-52.93-19.62-52.93Z"/>
  <path class="st14" d="M51.1,348.89s.31-13.36,15.1-13.45,18.9,15.76,18.9,15.76c0,0-36.57,5.29-33.99-2.31Z"/>
  <path class="st14" d="M51.1,316.7s6.27-11.48,14.02-2.5l7.75,8.98s-23.95,10-21.77-6.48Z"/>
  <path class="st14" d="M-1.93,289.26s14.46-7.17,24.7-5.88,13.4,12.23,13.4,12.23c0,0-24.58,2.77-36.17,2.67l-11.59-.09,9.65-8.93Z"/>
  <path class="st1" d="M794.44,368.9s-6.03-30.99,3.43-42.4,39.04,8.23,49.25,26.45,8.38,19.57-5.23,20.25-46.56,1.43-47.45-4.29Z"/>
  <path class="st5" d="M509.13,604.5c.18-.72,12.79-22.02,43.23-19.7s30.15,8.54,30.15,8.54c0,0,5.76-3.31,31.67-3.92s32.2,15.08,32.2,15.08h-137.25Z"/>
  <path class="st5" d="M-15.28,369.82s19.41,1.85,27.58,10.87,9.8,25.1,21.02,35.6,12.77,18.47,12.77,18.47c0,0-24.39,10.11-46.09,11.16s-12.88,0-12.88,0l-2.41-76.1Z"/>
  <path class="st5" d="M467.77,370.17s7.66-45.42,22.62-59.4c14.96-13.98,67.06.34,75.75,46.15l1.15,17.55s-98.57,14.55-99.52-4.3Z"/>
  <path class="st5" d="M242.71-11.74s-18.61,27.98-6.24,30.58,43.12,3.9,45.31,0-5.19-35.14-5.19-35.14l-33.88,4.55Z"/>
  <path class="st5" d="M289.4,10.38c.3-1.98,1.78-20.17,8.92-22.77s24.74,0,24.74,0c0,0,4.94,14.31,4.4,22.77,0,0-39.07,6.7-38.06,0Z"/>
  <path class="st5" d="M353.52,48.3s5.97-25.18,22.87-27,24.87,24.21,24.87,24.21c0,0-.97,13.37-47.74,2.78Z"/>
  <path class="st5" d="M406.95,52.38s1.31-8.16,13.99-8.16,24.11,12.06,24.11,12.06c0,0-38.75,8.82-38.1-3.9Z"/>
  <path class="st5" d="M382.55,79.35s2.88-6.51,20.8-4.55,26.21,9.11,26.21,9.11c0,0-59.7,13.01-47.01-4.55Z"/>
  <path class="st10" d="M279.05,360.4s5.76,5.1,25.01,5.51,67.04-1.28,67.04-1.28c0,0-50.05,5.19-64.3,5.19s-27.75-9.42-27.75-9.42Z"/>
  <path class="st10" d="M356,358.54s9.56,3.28,26.81,3.78,20.54.7,20.54.7v4.37s-56.16-3.89-47.35-8.85Z"/>
  <path class="st10" d="M281.78,371.12s1.27,3.81,28.52,5.63,49.71,1.19,59.86,1.01,31.1,2.67,31.1,2.67c0,0-19.97,2.1-32.21,1.87s-89.04-2.79-87.26-11.18Z"/>
  <path class="st10" d="M302.8,399.82s-3.93,0,15.91,0,46.78,1.37,46.78,1.37c0,0-61.94,3.38-62.69-1.37Z"/>
  <path class="st10" d="M333.18,419.32c.36-.8,4.57-.84,25.6,1.33s56.8,3.48,56.8,3.48c0,0-86.27,3.7-82.4-4.8Z"/>
  <path class="st10" d="M334.31,433.29s13.77,3.82,22.76,3.3,17.25-.93,17.25-.93l-40.01-2.37Z"/>
  <path class="st10" d="M411.67,417.07s-9.12-1.75,19.38-1.75,48.39.88,48.39.88c0,0-66.64-6.37-67.77.88Z"/>
  <path class="st10" d="M125.7,410.57s12.51.25,34.81,0,45.72-5.5,45.72-5.5l-80.53,5.5Z"/>
  <path class="st10" d="M230.05,338.13c4.5-.55,22,0,22,0h-22Z"/>
  <path class="st10" d="M206.23,344.21s29.32.67,38.32.89l9,.22s-46.65.28-47.32-1.11Z"/>
  <path class="st10" d="M99.51,399.82l52.96-4.19s-51.75,1.44-52.96,4.19Z"/>
  <path class="st10" d="M135.82,401.19c-1.75.27,73.48-.1,73.48-.1,0,0-67.71-.79-73.48.1Z"/>
  <path class="st10" d="M96.3,407.88l40.5-2.81s-38.5.61-40.5,2.81Z"/>
  <path class="st10" d="M219.32,310.57c-1.1,1,43.34,1.04,43.34,1.04,0,0-37.57-6.29-43.34-1.04Z"/>
  <path class="st10" d="M224.64,319.07c-.58,4.98,33.41.95,39.16.85s9.25-.85,9.25-.85c0,0-47.83-5-48.41,0Z"/>
  <path class="st10" d="M216.94,315.32h24.11s-22.72-3-24.11,0Z"/>
  <path class="st10" d="M199.27,264.57s1.51-.25,13.53,0,33.06,0,33.06,0c0,0-46.13-3.25-46.59,0Z"/>
  <path class="st10" d="M211.28,277.07c6.27,1,23.52.5,26.77,0s-26.77,0-26.77,0Z"/>
  <path class="st10" d="M227.8,285.3c-9.54,4.45,23-4.23,33-3.73s25-.05,25-.05c0,0-40.25-4.49-58,3.78Z"/>
  <path class="st10" d="M243.8,286.57c16,3,37.95,0,37.95,0h-37.95Z"/>
  <path class="st10" d="M265.3,266.15c14.25,1.18,50.87-3.02,50.87-3.02l-50.87,3.02Z"/>
  <g>
    <path class="st10" d="M622.17,229.96s-14.25,0-11.75,1.25,24.6.75,23.68,0-11.93-1.25-11.93-1.25Z"/>
    <path class="st10" d="M612.15,228.81s-7.87,1.17-3.05,3.16,17.3,1.71,17.3,1.71c0,0-36.78-.02-14.25-4.87Z"/>
    <path class="st10" d="M625.42,228.43s11.25.04,11.75,2.53-8.5,3.36-8.5,3.36c0,0,12.2.13,10.48-4.37s-13.73-1.52-13.73-1.52Z"/>
    <path class="st10" d="M613.42,227.47s-17.01,1.26-13.01,4.5,23.26,3.69,23.26,3.69l7,1.4s-33.5,2.92-33.5-5.1,16.25-4.5,16.25-4.5Z"/>
    <path class="st10" d="M613.92,225.8s29.28-1.35,30.89.9,2.11,9.22-2.14,10.36l-4.25,1.14s6.28,1.12,8.77-4.56,1.93-10.47-8.04-10.45-32.07,0-32.07,0l6.84,2.61Z"/>
    <path class="st10" d="M600.41,223.19c-1.24.27-23.49,9.48-11.99,13.88s43.95,4.09,43.95,4.09h3.8s-61.25,6.04-53-6.83,17.24-11.14,17.24-11.14Z"/>
    <path class="st10" d="M597.17,227.47s-8.23,3.86-5.12,6.17,11.62,3.94,11.62,3.94c0,0-28-2.6-6.5-10.11Z"/>
    <path class="st10" d="M625.42,220.96s16.5,4.46,18.25,9-7.5,5.7-7.5,5.7c0,0,12.79-1.27,8.64-6.85s-19.39-7.85-19.39-7.85Z"/>
    <path class="st10" d="M612.15,220.96s-33.14-2.09-31.81,14.7,58.81,9.43,58.81,9.43l.17,1.61s-53.38,8.19-59.01-8.4c-5.63-16.59,16.85-17.84,31.85-17.34Z"/>
    <path class="st10" d="M641.67,242.07s12.75-2.12,13.5-7.74-2.51-8.52-2.51-8.52c0,0,12.49,4.16,2.63,11.78-9.86,7.63-10.47,7.51-10.47,7.51l-3.14-1.97v-1.06Z"/>
  </g>
  <path class="st10" d="M610.49,328.49s-1.47,7.67,31.18,9.64,52.94,3.35,52.94,3.35c0,0-118.29,1.64-84.12-12.99Z"/>
  <path class="st10" d="M710.06,338.13s51.93-4.25,58.13-7.7,6.53-5.93,6.53-5.93c0,0,8.32,6.82-6.53,10.52s-65.42,6.47-65.42,6.47l7.29-3.35Z"/>
  <path class="st10" d="M658.5,345.56s.63.03,1.81.08c6.43.27,29.07,1.05,53.16-.08,28.49-1.33,50.23-7.44,50.23-7.44,0,0-1.78,7.3-21.42,9.64s-66.62,3.45-66.62,3.45l-17.16-5.65Z"/>
  <path class="st10" d="M605.67,316.81s-12.06,9.51-9.31,15.36,11.29,9.31,11.29,9.31l-5.79,1.12s-26.89-21.12,3.81-25.79Z"/>
  <path class="st10" d="M793.3,371.88s-2.69,4.52,13.18,4.83,52.45.04,52.45.04l-8.54,3.08s-75.1,2.11-57.09-7.95Z"/>
  <path class="st10" d="M782.62,303.17s8.51.75,14.11,1.24,22.17-.62,22.17-.62l-36.28-.62Z"/>
  <path class="st10" d="M794.44,293.85h28.65s-27.23-1.38-28.65,0Z"/>
  <path class="st10" d="M772.33,316.83c-.57.4,50.76-.02,50.76-.02,0,0-45.58-3.57-50.76.02Z"/>
  <path class="st10" d="M565.25,301.44s37.06,2.07,38.56,1.73,7.39-4.89,7.39-4.89l-19.86,2.46-26.1.7Z"/>
  <path class="st10" d="M527.85,227.67c-.14,2.26,27.43-.97,27.43-.97,0,0-27.26-1.72-27.43.97Z"/>
  <path class="st10" d="M548.38,231.54l13.09,1.23s-13.48,2.91-13.09-1.23Z"/>
  <path class="st10" d="M818.9,250.28s24.15-3.19,38.65,0l14.49,3.19-53.14-3.19Z"/>
  <path class="st10" d="M816.14,258.22s.35-4.52,19.32-1,38.99,4.05,38.99,4.05c0,0-26.57.19-35.89,0s-22.43-3.04-22.43-3.04Z"/>
  <path class="st10" d="M827.53,209.02h35.2s-32.78-4.78-35.2,0Z"/>
  <path class="st10" d="M678.99,171.7c-5.65,8.05,22.17,0,22.17,0,0,0-20.96-1.73-22.17,0Z"/>
  <path class="st10" d="M808.73,155.61s4.91-2.64,12.2,0,13.5,4.2,13.5,4.2c0,0-11.39-.87-18.29-1.22s-17.25-1.47-17.25-1.47l9.84-1.51Z"/>
  <path class="st10" d="M501.16,132.89s1.68,5.73,11.68,6.05,61.76-6.05,61.76-6.05c0,0-50.72,8.97-63.49,9.92s-9.96-9.92-9.96-9.92Z"/>
  <path class="st10" d="M539.08,145.13c-.51,1.99,11.65-3.16,31-2.27s39.02,1.92,49.37,1.92,16.71-.87,16.71-.87c0,0-28-2.16-43.4-2.89s-52.97,1.34-53.68,4.1Z"/>
  <path class="st10" d="M494.9,155.61s-2.07-.3,11.73,1.51,34.94,0,34.94,0c0,0-12.88,1.83-23.39,2.69s-23.28-4.2-23.28-4.2Z"/>
  <path class="st10" d="M727.4,127.37c.41-.18,16.87,1.54,32.45,1.54s22.78-1.56,22.78-1.56h-55.23Z"/>
  <path class="st10" d="M709.18,138.94h45.83s-44.8-2.05-45.83,0Z"/>
  <polygon class="st10" points="711.98 94.75 737.47 93.31 790.46 93.31 711.98 94.75"/>
  <path class="st10" d="M761.4,99.58h59.53s-58.04-2.42-59.53,0Z"/>
  <path class="st10" d="M584.27,111.91c-1.19,1.27,29.68,0,29.68,0,0,0-28.3-1.47-29.68,0Z"/>
  <path class="st10" d="M559.77,98.51s17.75-.73,27.85,0,17.23,0,17.23,0h-45.08Z"/>
  <path class="st10" d="M587.62,83.37s15.42,1.73,23.11,1.73,17.02-1.73,17.02-1.73h-40.14Z"/>
  <path class="st10" d="M796.74,84.23c1.12.52,60.81-.86,60.81-.86l-9.66,5.17-51.15-4.31Z"/>
  <path class="st10" d="M406.95,130.52h65.87s-62.04-1.5-65.87,0Z"/>
  <path class="st10" d="M816.66,91.2c-2.42-.93,39.16,2.11,39.16,2.11,0,0-33.13.2-39.16-2.11Z"/>
  <path class="st8" d="M830.98,85.09c1.71-1.2,31.74.86,31.74.86l1.38-4.47-33.13,3.61Z"/>
  <path class="st10" d="M684.33,52.38s5.37-.28,16.49,0,60.58-.64,60.58-.64c0,0-50.15-1.36-77.06.64Z"/>
  <path class="st10" d="M418.52,120.18s10.48,1.25,34.23,1.59,46.48-1.59,46.48-1.59h-80.71Z"/>
  <path class="st10" d="M478.44,81.48h44.07s-14.63-1.54-44.07,0Z"/>
  <path class="st10" d="M491.89,88.54s27.16,0,40.96,0,22.43,0,22.43,0c0,0-47.42-3.11-63.39,0Z"/>
  <path class="st10" d="M395.18,111.26s15.3-.06,25.77,0,48.07.66,48.07.66c0,0-64.87-3.13-73.84-.66Z"/>
  <path class="st10" d="M448.66,36.21s8.97-1.43,26.22,0c17.25,1.43,44.86,0,44.86,0,0,0-69.36,3.4-71.08,0Z"/>
  <path class="st10" d="M428.13,25.17s27.95-3.45,40.37-1.73,43.63,1.73,43.63,1.73h-84.01Z"/>
  <path class="st10" d="M613.95,20.58s5.07.93,27.72.63c22.65-.3,39.97-.63,39.97-.63h-67.68Z"/>
  <path class="st10" d="M725.05,13.32s36.13.69,52.74,0c16.61-.69-52.05-2.42-52.74,0Z"/>
  <path class="st10" d="M718.15,25.74h13.95s1.24-1.73-13.95,0Z"/>
  <path class="st10" d="M772.84,34.71c-1.19.15,62.39.35,62.39.35,0,0-49.1-2.07-62.39-.35Z"/>
  <path class="st10" d="M788.2,39.2h35.41s-27.13-1.38-35.41,0Z"/>
  <path class="st10" d="M545.76,27.08c-5.3,2.19,36.55,0,36.55,0,0,0-30.2-2.62-36.55,0Z"/>
  <path class="st10" d="M645.34,6.42c-1.57.79,51.05,0,51.05,0,0,0-46.22-2.42-51.05,0Z"/>
  <path class="st10" d="M823.61,2.28s8.4-1.04,16,0,16.22,0,16.22,0c0,0-20.95-3.45-32.21,0Z"/>
  <path class="st10" d="M348.11,6.77s15.9.31,32.34-.71,26.49-.71,26.49-.71c0,0-57.94-2.02-58.83,1.42Z"/>
  <path class="st10" d="M315.13,177.04c8.97,2.26,62.4-1.76,62.4-1.76l-62.4,1.76Z"/>
  <path class="st10" d="M298.32,129.85s28.64-.14,53.26.67,26.92,1.26,28.88,0,6.79-1.6,6.79-1.6c0,0,4.83,2.43-13.8,3.97s-76.75-.38-75.12-3.04Z"/>
  <path class="st10" d="M579.42,30.24c1.05.02,12.77,6.32,28.64,7.04,15.87.72,45.08,0,45.08,0,0,0-32.32,3.14-44.74,3.83s-20.01-2.48-28.98-3.83-28.48-1.56-28.48-1.56c0,0,17.78-5.65,28.48-5.48Z"/>
  <path class="st10" d="M113.21,82.81s6.96,3.06,26.63,2.72,59.43-1.35,59.43-1.35c0,0-81.28,11.09-86.06-1.37Z"/>
  <path class="st10" d="M232.22,20.58s14.58,4.82,28.38,4.82h17.6s-36.06-3.09-45.98-4.82Z"/>
  <path class="st10" d="M289.38,19.19s1.1,1.74,8.94,1.73,23.83-1.73,23.83-1.73h-32.77Z"/>
  <path class="st10" d="M483.84,72.18l10.43,4.61h34.77s-17.25,2.1-28.98,2.53-16.22-7.14-16.22-7.14Z"/>
  <path class="st10" d="M531.11,85.73s1.38,3.31,12.08,3.33,41.2-1.71,41.2-1.71c0,0-51.2,11.96-53.27-1.61Z"/>
  <path class="st10" d="M349.4,52.38s9.54,5.11,23.69,3.9c14.15-1.2,20.86-1.86,20.86-1.86,0,0-38.56.78-44.55-2.04Z"/>
  <path class="st10" d="M402.37,59.25c1.09,1-.29,4.71,14.89,4.93s31.4.08,31.4.08c0,0-37.99-2.55-43.5-5.01s-2.8,0-2.8,0Z"/>
  <path class="st10" d="M377.14,85.09s.62,6.35,13.64,6.11,38.77-2.66,38.77-2.66c0,0-31.62,4.01-39.9,4.77s-12.51-8.22-12.51-8.22Z"/>
  <path class="st10" d="M33.31,117.59c2.08-1.1,7.49,3.66,14.74,3.66s17.6-1.83,17.6-1.83c0,0-9.44,3.08-14.56,3.83s-23.9-2.43-17.78-5.67Z"/>
  <path class="st10" d="M20.45,185.18s12.77,3.73,38.3,3.58,43.13,0,43.13,0c0,0-57.97,2.9-77.29,1.03s-42.79-1.99-42.79-1.99l6.61-2.69,32.04.07Z"/>
  <path class="st10" d="M-2.67,194.85s2.07,1.56,17.94,2.15,53.61,1.73,53.61,1.73c0,0-37.38,3.49-50.67,3.24s-26.72,0-26.72,0l5.83-7.12Z"/>
  <path class="st10" d="M88.08,163.62l44.49,1.53s-32.5.35-44.49-1.53Z"/>
  <path class="st10" d="M113.21,169.29s19.38.69,35.25,0,21.39,0,21.39,0c0,0-48.42-3.11-56.65,0Z"/>
  <path class="st10" d="M-11.59,300.82s16.51.42,26.86,0,19.67,0,19.67,0l-46.53,3.11v-3.11Z"/>
  <path class="st10" d="M-23.72,355.17c14.84-.25,26.93.94,41.93,0s23.63-2.45,23.63-2.45c0,0-2.76,4.95-20.01,5.82s-45.55,2.35-45.55,2.35v-5.72Z"/>
  <path class="st10" d="M52.88,354.52s5.88.56,12.77.66,19.43-.66,19.43-.66c0,0-30.42,5.63-32.21,0Z"/>
  <path class="st10" d="M52.88,327.44s-.69.84,7.25,1.05,12.74-.53,12.74-.53c0,0-21.32,1.84-19.99-.53Z"/>
  <path class="st10" d="M48.88,326.49s4,2.59,13.66,3.43,18.07,1.57,18.07,1.57c0,0-31.95,2.46-31.74-5Z"/>
  <path class="st10" d="M28.73,30.23s11.74-.69,36.93,0,61.41,0,61.41,0c0,0-95.92-1.38-98.34,0Z"/>
  <path class="st10" d="M7.34,35.4s21.74,4.49,34.51,4.49h49s-48.65,1.73-55.21,1.73-22.43-3.11-22.43-3.11H-14.75l22.08-3.11Z"/>
  <path class="st10" d="M0,9.53s15.27-.69,24.25,0,44.64,0,44.64,0L-14.75,11.94,0,9.53Z"/>
  <path class="st10" d="M141.53,9.22h69.9s-58.54-1.34-69.9,0Z"/>
  <path class="st10" d="M119.48,107.18c-7.96,2.39,36.76,0,36.76,0h77.8s-111.11-1.04-114.56,0Z"/>
  <path class="st10" d="M137.77,89.22c11.04.01,75.03,2.43,75.03,2.43l-87.79-1.21,12.77-1.21Z"/>
  <path class="st10" d="M33.31,130.52s11.98,1.54,26.47.66,42.1-.66,42.1-.66c0,0-63.98-.81-68.57,0Z"/>
  <polygon class="st10" points="-6.46 133.44 28.73 136.51 -20.27 136.51 -6.46 133.44"/>
  <path class="st10" d="M262.74,74.43c-1.57.63,29.52-1.69,43.02,0s52.36.03,52.36.03c0,0-86-3.8-95.38-.03Z"/>
  <path class="st10" d="M188.84,130.52s25.88,1.4,37.27.93,45.55-1.6,45.55-1.6c0,0-76.95-1.53-82.81.67Z"/>
  <path class="st10" d="M88.08,96.48h62.36s-57.18-1.04-62.36,0Z"/>
  <path class="st10" d="M-14.75,81.48c-8.04,2.18,15.18-.16,29.33,0s54.3,0,54.3,0c0,0-76.68-1.88-83.63,0Z"/>
  <path class="st10" d="M-20.27,71.73c1.73-.44,23.81,1.47,30.71,1.03s35.89-1.03,35.89-1.03H-20.27Z"/>
  <path class="st10" d="M67.6,75.19h18.33s-13.62-2.31-18.33,0Z"/>
  <path class="st10" d="M232.22,48.3c1.12-.47,3.54,1.95,18.72,1.95s42.44-1.95,42.44-1.95h-61.16Z"/>
  <path class="st10" d="M144.67,143.23s14.49.86,22.43,0,30.71,0,30.71,0c0,0-46.58-2.93-53.14,0Z"/>
  <path class="st10" d="M121.14,214.8c-10.75,6.45,91.66,0,91.66,0,0,0-87.59-2.44-91.66,0Z"/>
  <path class="st10" d="M-3.36,239.15c-1.36.28,36.58.78,45.2.65s34.14-.67,34.14-.67c0,0-64.85-2.92-79.34.02Z"/>
  <path class="st10" d="M285.8,99.58h73.34s-71.95-3.8-73.34,0Z"/>
  <path class="st7" d="M796.52,373.65s8.28,3.76,27.09,5.04l18.81,1.28s-46.86,1.36-45.91-6.32Z"/>
  <path class="st7" d="M828.53,375.14s22,1.04,26.47-1.5l4.47-2.54s-2.79,7.55-15.47,6.64-15.47-2.61-15.47-2.61Z"/>
  <path class="st7" d="M800.76,380.43s18.1,3.7,33.53,3.56,21.28-1.68,21.28-1.68c0,0-6.19,3.35-27.41,3.39s-27.41-5.26-27.41-5.26Z"/>
  <path class="st2" d="M609.35,323.11s-1.18,6.68,14.69,9.88,73.76,5.14,73.76,5.14c0,0-16.41,3.5-54.53.1s-33.93-15.11-33.93-15.11Z"/>
  <path class="st2" d="M697.8,342.6s65.81-3.85,70.39-9.61l4.58-5.76s-7.87,7.71-74.97,15.37Z"/>
  <path class="st2" d="M660.31,342.73s33.24,5.64,57.05,4.01l23.81-1.62s-14.29,7.01-47.57,3.77-42.3-6.16-42.3-6.16h9.02Z"/>
  <path class="st2" d="M680.94,354.6s58.6-.29,70.25-2.04,17.01-3.67,17.01-3.67c0,0-4.67,5.98-32.9,6.79s-54.35-1.08-54.35-1.08Z"/>
  <path class="st6" d="M482.41,383.99s25.54,3.87,49.69,4.57,36.88-2.86,36.88-2.86c0,0-23.52,7.16-38.02,6.98s-49.06-3.38-48.56-8.69Z"/>
  <path class="st2" d="M269.76,345.35s16.38,7.19,32.73,8.22,37.43-1.18,37.43-1.18c0,0-20.31,6.68-35.86,5.97s-34.3-13.01-34.3-13.01Z"/>
  <path class="st2" d="M269.76,355.46s4.01,5.04,20.56,4.94,39.04,3.58,39.04,3.58c0,0-24.88-1.64-34.03-1.02s-27-5.82-25.57-7.5Z"/>
  <path class="st2" d="M287.71,367.39s12.28,3.16,26.57,2.17l14.29-.99s-32.21,5.81-40.87-1.18Z"/>
  <path class="st2" d="M535.98,80.93s-.46,3.24,12.57,4.8,35.83-3.88,35.83-3.88c0,0-17.55,7.04-31.7,6.99s-16.7-7.91-16.7-7.91Z"/>
  <path class="st2" d="M545.88,89.33c1.08,1.2,17.31,2.77,25.7.51s12.79-2.5,12.79-2.5c0,0-10.45,5.23-24.2,5.04s-14.3-3.05-14.3-3.05Z"/>
  <path class="st3" d="M486.41,68.82s7.12,5.15,21.39,5.31,28.26.63,28.26.63l-2.75,2.03s-45.19.64-46.89-7.97Z"/>
  <path class="st3" d="M493.54,80.93c.91-.14,20.05,3.02,27.54,3.07s13.13,0,13.13,0v-2.15l-40.67-.92Z"/>
  <path class="st3" d="M304.06,126.92s51.23,2.63,61.43,1.99,15.29-.95,15.29-.95c0,0-67.94,3.83-76.71-1.05Z"/>
  <path class="st3" d="M308.28,130.8s18,4.52,29.58,4.52,24.54,0,24.54,0c0,0-50.22,5.25-54.11-4.52Z"/>
  <path class="st6" d="M380.78,87.85s10.02,2.75,23.43,1.37,19.87-2.06,19.87-2.06c0,0-39.26,7.97-43.3.69Z"/>
  <path class="st6" d="M389.66,93.31s9.86,1.19,20.04.05,14.38-2.44,14.38-2.44l-34.41,2.39Z"/>
  <path class="st6" d="M408.4,59.25s-1.19,1.14,9.11,2.23,17.51,1.73,17.51,1.73c0,0-25.49.79-26.62-3.96Z"/>
  <path class="st6" d="M355.74,51.73c-.1-.64,10.01,3.91,20.67,4.26s18.76.28,18.76.28c0,0-38.33,2.63-39.43-4.54Z"/>
  <path class="st6" d="M361.24,58.16s9.52,1.9,19.54,1.09,12.28-1.09,12.28-1.09c0,0-26.33,6.43-31.82,0Z"/>
  <path class="st6" d="M234.04,19.19s5.73,3.49,17.68,4.85,17.28,1.36,17.28,1.36c0,0-33.57,3.51-34.96-6.21Z"/>
  <path class="st6" d="M239.92,26.01s21.32,3.03,29.88,1.58,10.18-2.19,10.18-2.19c0,0-5.33,3.77-12.44,4.68s-27.62-4.06-27.62-4.06Z"/>
  <path class="st6" d="M239.92,29.62l17.93,2.5s-17.93,1.1-17.93-2.5Z"/>
  <path class="st6" d="M290.97,14.02s.48,1.13,12.28,1.62,20.51-1.62,20.51-1.62c0,0-30.53,6.78-32.79,0Z"/>
  <path class="st6" d="M291.94,17.04s3.51.93,10.18,2.15,13.41.87,13.41.87c0,0-23.58,2.58-23.58-3.02Z"/>
  <path class="st3" d="M115.06,81.26s12.92,3.89,32.47,4.13,21.37.39,21.37.39c0,0-51.25,4.21-53.84-4.51Z"/>
  <path class="st3" d="M160.29,89.25c-.44-.21,42.81-7.99,42.81-7.99,0,0-34.9,11.79-42.81,7.99Z"/>
  <path class="st3" d="M39.95,117.42s9.21,1.6,16.64,1.27,12.3-1.27,12.3-1.27c0,0-13.53,3.58-17.18,3.7s-11.08-2.44-11.75-3.7Z"/>
  <path class="st3" d="M37.2,120.4s4.46,2.15,11.68,2.97,13.52,0,13.52,0c0,0-18.41,5.03-25.2-2.97Z"/>
  <path class="st2" d="M505.81,135.32c-.12-.35,2.09,3.85,12.37,4.54s49.11-5.69,49.11-5.69c0,0-56.15,17.29-61.48,1.15Z"/>
  <path class="st2" d="M524.87,145.59s9.39,1.04,17.83-.38l8.44-1.43s-22.56,7.51-26.27,1.81Z"/>
  <path class="st7" d="M658.94,140.88s0,1.96,7.59,1.92,13.25-.96,13.25-.96c0,0-16.15,7.01-20.84-.96Z"/>
  <path class="st3" d="M19.1,182.77s16.29,3.02,31.14,3.74,49.48-.52,55.76-1.4l6.28-.89s-45.38,5.67-65.42,4.95-27.76-6.4-27.76-6.4Z"/>
  <path class="st2" d="M77.27,163.44s4.32,1.83,24.61,2.43,45.87-2.25,45.87-2.25c0,0-34.66,3.7-45.87,3.58s-24.61-3.76-24.61-3.76Z"/>
  <path class="st2" d="M81.74,166.11s13.62,2.77,24.02,2.64,24.5-1.55,24.5-1.55c0,0-17.98,3.38-26.55,3.14s-21.97-3.38-21.97-4.22Z"/>
  <path class="st3" d="M22.36,187.76s15.69,4.42,32.95,4.78,34.87-3.26,34.87-3.26c0,0-24.01,6.31-39.58,5.57s-28.48-3.93-28.24-7.09Z"/>
  <path class="st3" d="M25.01,194.35s5.18,1.57,16.83,1.57h17.81s-33.5,7.67-34.64-1.57Z"/>
  <path class="st2" d="M-8.5,298.78s-4.63.69,15.11.43,29.57-2.51,29.57-2.51c0,0-17.11,4.29-27.67,4.28s-17.01-2.21-17.01-2.21Z"/>
  <path class="st2" d="M-5.08,302.22s7.36,1.41,14.8.97,15.84-2.21,15.84-2.21c0,0-14.63,3.34-19.91,3.85s-10.73-2.62-10.73-2.62Z"/>
  <path class="st2" d="M52.82,325.7s6.76,2.86,12.39,2.34,9.09-1.85,9.09-1.85c0,0-8.05,2.93-13.59,2.99s-7.89-3.49-7.89-3.49Z"/>
  <path class="st2" d="M-22.83,352.72s9.35.77,24.15.68,34.85-4.16,34.85-4.16c0,0-9.78,4.77-22.57,6.15s-37.81.37-37.81.37l1.39-3.04Z"/>
  <path class="st2" d="M53.53,352.99s4.21,2.28,11.95,2.78,15.15-1.39,15.15-1.39c0,0-9.52,3.35-13.55,3.35s-13.34-3.69-13.55-4.74Z"/>
  <path class="st6" d="M-13.48,450.19s5.11,1.3,16.79-1.04,41.29-9.87,41.29-9.87c0,0-31.69,11.34-41.64,13.07s-17.83,0-17.83,0l1.39-2.16Z"/>
  <path class="st6" d="M-13.91,454.95s6.41,1.13,15.41.78,21.82-1.47,21.82-1.47c0,0-22.16,3.81-26.75,3.81s-10.82-1.47-10.82-1.47l.35-1.64Z"/>
  <path class="st6" d="M-2.49,461.3s4.59,2.19,11.6,2.34,10.56-.49,14.98,0,8.57.92,8.57.92c0,0-14.11.78-19.57.95s-13.76.95-13.76.95h-10.56l.87-3.79,7.88-1.38Z"/>
  <path class="st10" d="M-10.28,447.77s1.47,1.04,15.76-.43,30.21-6.49,30.21-6.49c0,0-16.24,7.27-28.44,8.4s-17.53,1.29-17.53,1.29v-2.76Z"/>
  <path class="st10" d="M-10.28,452.53s18.27.5,31.51-2,18.53-3.71,18.53-3.71c0,0-15.41,5.37-28.14,6.84s-21.9,1.75-21.9,1.75v-2.88Z"/>
  <path class="st10" d="M233.54,27.79s10.08,5.63,21.67,5.33,18.34-1.35,18.34-1.35c0,0-26.52,9.49-40.01-3.98Z"/>
  <path class="st10" d="M84.3,21.3l30.75-.38s-28-2.89-30.75.38Z"/>
  <path class="st10" d="M82.8,61.47h20.5s-18.5-2.35-20.5,0Z"/>
  <path class="st10" d="M108.3,134.97c-1.4.66,53.25,0,53.25,0,0,0-44-4.35-53.25,0Z"/>
  <path class="st10" d="M46.33,226.57c-.22.05,46.73,0,46.73,0,0,0-36.7-2.5-46.73,0Z"/>
  <path class="st10" d="M-13.2,270.82s24.23-2.98,49.49-3.36c25.26-.39,40.47,1.68,40.47,1.68l-93.16,3.93,3.2-2.25Z"/>
  <path class="st10" d="M-5.08,262.07l26.36,1.06s-17.75-3.81-26.36-1.06Z"/>
  <path class="st10" d="M30.19,308.48s19.45.66,17.16,0-13.52-1.84-17.16,0Z"/>
  <path class="st10" d="M-14.75,230.57H15.4s-28.45-3-30.15,1.25,0-1.25,0-1.25Z"/>
  <path class="st10" d="M50.97,437.84s-1.05,10.62-12.11,14.43-17.59,5.8-17.59,5.8c0,0,20.09-1.92,25.68-6.96s4.01-13.27,4.01-13.27Z"/>
  <path class="st10" d="M-16.39,472.92s30.14.15,37.67-1.1,13.67-4,13.67-4c0,0-24.11.33-36.87,1.04s-19.76,0-19.76,0l5.3,4.06Z"/>
  <path class="st10" d="M174.53,566.69c.78.38,12.74,6.69,27.9,8.63s18.94-1.89,18.94-1.89c0,0-3.03,6.82-28.42,2.44s-25.01-11.73-25.01-11.73l6.59,2.55Z"/>
  <path class="st10" d="M125.99,567.75s6.71,8.35,20.01,9.59,26.38,3.43,26.38,3.43c0,0-21.78,2.12-35.57-2.08s-10.81-10.94-10.81-10.94Z"/>
  <path class="st10" d="M477.54,560.91s12.94,12.66,26.23,15.54,36.04,5.8,36.04,5.8c0,0-21.57.04-36.04-2.36s-26.23-18.98-26.23-18.98Z"/>
  <path class="st10" d="M793.3,452.01s15.75-.62,21-3.28,56.25,0,56.25,0c0,0-42.69,2.46-48.84,3.28s-28.41,0-28.41,0Z"/>
  <path class="st10" d="M792.55,460.86s7.67.44,20.46-.92,55.54.49,55.54.49c0,0-61.68,4.33-70.34,3.73s-5.67-3.31-5.67-3.31Z"/>
  <path class="st10" d="M782.62,412.92s12.86.78,33.52.97,68.41-.28,68.41-.28c0,0-98.61-5.6-101.93-.69Z"/>
  <path class="st10" d="M739.91,406.07h25.93s-20.58-2-25.93,0Z"/>
  <path class="st10" d="M798.89,18.57h67.41s-64.58-3.25-67.41,0Z"/>
  <path class="st10" d="M751.22,73.74l50.24-.68s-46.83-2.64-50.24.68Z"/>
  <path class="st10" d="M814.05,119.23h50.05s-45.55-4.34-50.05,0Z"/>
  <path class="st10" d="M516.52,145.76s9.06,6.32,22.55,5.82,36.99-2.85,36.99-2.85c0,0-31.85,5.87-45.05,5.49s-14.48-8.45-14.48-8.45Z"/>
  <path class="st10" d="M662.48,154.43c-.88.73,28.58-2.11,28.58-2.11,0,0-25.4-.53-28.58,2.11Z"/>
  <path class="st10" d="M361.24,63.26s1.82,1.01,10.44,1.04,14.88,0,14.88,0c0,0-25.32,4.06-25.32-1.04Z"/>
  <path class="st10" d="M382.09,98.19s11.6,1.64,20.28,2.39,15.54-.48,22.86-.99,72.07,1.22,72.07,1.22c0,0-69-1.26-75,0s-39.44-.26-40.22-2.62Z"/>
  <path class="st10" d="M335.33,143.78c3.97.04,24.65-2.05,38.56-2.75s50.18-2.55,50.18-2.55c0,0-44.3,4.41-53.91,4.75s-37.83,3.26-45.59.55,10.76,0,10.76,0Z"/>
  <path class="st10" d="M515.3,93.82s7.5,2.75,17.5,4.5,46.77-5,60.51-4.5,39.54-.03,39.54-.03c0,0-47.5,2.53-58.77,3.78s-28.92,4.46-42.97,4.23-15.8-7.98-15.8-7.98Z"/>
  <path class="st10" d="M177.3,247.48l73.58-2.16s-68.83-1.18-73.58,2.16Z"/>
  <path class="st10" d="M85.92,201.84s16.89.51,29.14-1.5,64.15-1.93,64.15-1.93c0,0-44.77-.47-54.21-.53s-39.08,3.96-39.08,3.96Z"/>
  <g>
    <g>
      <path class="st5" d="M326.51,199.2s-1.75,9.12-24.64,12.61c-22.9,3.49-103.91,4.56-103.24-9.39s11.06-44.53,23.84-57.14c12.78-12.61,18.5-18.51,21.67-25.48s22.22-10.46,22.22-10.46c0,0,34.26,32.46,35.51,38.63,1.25,6.17,3.39,25.75,8.49,30.85s15.95,15.56,16.15,20.39Z"/>
      <path class="st11" d="M262.56,133.76s-6.09-2.49-5.1-11.93c.99-9.45,8.89-12.5,8.89-12.5,0,0,8.84-3.57,15.47-2.25s19.22,27.84,19.39,30.49-.5,11.43-10.61,13.92c-10.11,2.49-16.9,1.16-22.37-3.65s-5.68-14.09-5.68-14.09Z"/>
      <path class="st11" d="M269.9,152.72s4.47,3.91,15.25,2.58c10.77-1.33,12.93-4,12.93-4,0,0-1.99,5.16-12.93,5.82-10.94.66-15.25-4.41-15.25-4.41Z"/>
      <path class="st13" d="M273.71,138.07c0,.5,2.32,19.39,1.49,31.82-.83,12.43-3.15,19.55-1.49,19.39s5.47-10.61,6.46-21.38,1.82-29.33,1.82-32.48-8.29,2.65-8.29,2.65Z"/>
      <path class="st13" d="M301.22,137.58s2.32,4.81,6.96,25.02c4.64,20.22,3.15,27.35,1.99,26.68s-4.31-16.35-7.13-27.4c-2.82-11.05-4.47-19.23-4.47-19.23l-1.1-1.35,3.75-3.73Z"/>
      <path class="st11" d="M299.89,140.89s-2.23,5.77-6.96,8.45-11.6,1.84-11.6,1.84l.67-16.7,14.43-8.02s4.46,5.1,5.78,8.02c1.33,2.93-2.32,6.41-2.32,6.41Z"/>
      <path class="st0" d="M295.91,128.63s-16.58,12.43-22.79,12.93c-6.21.5-10.49-13.61-7.54-21.87,2.95-8.27,9.45-12.26,16.24-12.59,6.79-.33,16.74,2.65,21.71,9.78,4.97,7.13,6.3,11.93,6.46,16.57s-6.72,10.14-6.72,10.14c0,0-8.91-13.99-7.37-14.94Z"/>
      <path class="st12" d="M290.94,111.72s-4.32-2.68-5.06-1.75,5.06,1.75,5.06,1.75Z"/>
      <path class="st12" d="M293.1,111.72s-3.42-1.8-2.15-2.39,2.15,2.39,2.15,2.39Z"/>
      <path class="st0" d="M266.75,111.72s1.86-.27,0,5.26c-1.86,5.53-7.27,8.49-8.27,6.67s1.94-10.58,5.46-11.93,2.82,0,2.82,0Z"/>
      <path class="st12" d="M264.63,114.38s-3.66-.23-3.76,3.28c0,0,1.64-.63,3.76-3.28Z"/>
      <path class="st14" d="M297.47,125.78s3.98,5.67,4.43,9,.6,5.13.6,5.13h.48s-.08-4.99-1.75-8.66c-1.67-3.67-4.14-6.02-3.77-5.48Z"/>
      <path class="st14" d="M300.21,126.32s4.28,7.65,4.2,11.7-.46,4.68,0,4.68.74-5.22.65-6.57-4.29-10.17-4.85-9.81Z"/>
      <path class="st14" d="M304.41,129.2s2.99,7.72,2.81,12.15l-.18,4.44s.82-3.06.82-5.37-3-12.22-3.44-11.22Z"/>
      <path class="st14" d="M307.13,130.14s2.1,8.56,2.26,12.01.24,3.77.61,3.65-1.61-16.08-2.88-15.66Z"/>
      <path class="st14" d="M290.94,127.22s-2.22,3.14-2.56,7.29-1.06,4.96-1.06,4.96c0,0,.31-9.99,3.62-12.24Z"/>
      <path class="st14" d="M287.32,126.31s-2.25,3.39-2.79,8.2-.01,8.47-.55,7.75-.35-8.37.73-11.43,2.61-4.51,2.61-4.51Z"/>
      <path class="st14" d="M284.35,126.77s-2.88,3.51-4.14,8.46c-1.26,4.95-.91,7.83-.91,7.83h-.8s.72-6.48,1.44-9.36,3.69-7.38,4.41-6.93Z"/>
      <path class="st14" d="M280.57,126.74s-3.78,4.97-4.14,7.59,0,8.38,0,8.38h-.7s-.79-7.1,0-9.9,4.39-7,4.84-6.07Z"/>
      <path class="st14" d="M274.71,129.13s-3.06,6.73-2.88,10.33,1.29,5.76,1.29,5.76h-.48s-1.8-2.92-1.26-7.76,3.33-8.33,3.33-8.33Z"/>
    </g>
    <path class="st6" d="M214.32,212.97s20.49,4.83,51.41,4.38,48.54-5.91,48.54-5.91c0,0-11.87,9.79-49.64,9.33s-55.56-4.66-55.56-4.66l5.25-3.14Z"/>
    <path class="st6" d="M218.8,222.77s10.11,3.28,25.85,3.94,27.29-.93,27.29-.93c0,0-16.57,3.88-28.66,3.88s-26.55-2.95-26.55-2.95l2.07-3.94Z"/>
    <path class="st6" d="M265.73,229.67s18.47-2.28,32.34-4.56,30.75-16.65,32.57-19.61l1.82-2.97s-2.75,17.14-26.58,24.19-64.65,5.49-64.65,5.49c0,0-23.07-1.13-24.5-5.49,0,0,39.06,3.18,49,2.95Z"/>
    <path class="st10" d="M225.41,219.93s16.91,4.8,41.78,2.85,32.21-3.95,32.21-3.95c0,0-22.35,6.25-50.72,6.25s-34.87-3.12-34.87-3.12l11.61-2.02Z"/>
    <path class="st10" d="M276.95,225.07s21.45-1.75,34.4-6.25l12.96-4.5s-12.44,7.54-31.04,12.4-24.16,2.52-24.16,2.52l7.84-4.17Z"/>
    <path class="st10" d="M228.02,232.11s-1.53,3.22,30.25,2.47,41.93-4.77,41.93-4.77c0,0-13.47,9.61-41.93,9.94s-36.02,0-36.02,0l5.77-7.63Z"/>
    <path class="st10" d="M210.55,228.28c.75.29,24.83,2.75,34.54,1.52s14.26-4.73,14.26-4.73c0,0,1.36,4.57-19.72,7.03s-29.08-3.83-29.08-3.83Z"/>
  </g>
  <path class="st10" d="M123.8,92.19s18,2.38,34,2.63,29.25-1.57,29.25-1.57c0,0-45,7.31-63.25-1.06Z"/>
  <path class="st5" d="M-10.53,217.67s.17-.38.59-.95c1.41-1.9,5.67-5.86,15.92-4.07,13.28,2.32,16.18,23.6,20.63,29.01s26.41,15.41,27.81,19.4-26.7,6.77-44.18,6.25-24.99-4.2-24.99-4.2l4.22-45.46Z"/>
  <path class="st11" d="M-9.75,258.69s9.81,1.35,19.99,0,14.77-3.09,14.77-3.09c0,0-6.39,2.74-17.67,5.62s-17.09-2.53-17.09-2.53Z"/>
  <path class="st6" d="M-12.85,267.46s13.76,3.58,28.25,4.27,31.95-2.14,31.95-2.14c0,0-20.16,4.95-32.73,5.53s-29.36-3.22-29.36-3.22l1.9-4.45Z"/>
  <path class="st5" d="M-8.98,277.65s13.49,3.09,19.22,3.86,23.08-1.21,23.08-1.21c0,0-22.26-.35-25.22-.63s-17.07-2.02-17.07-2.02Z"/>
  <path class="st10" d="M15.4,276.85s17.27,2.69,28.16,0,16.14-1.66,16.14-1.66c0,0-22.18,5.74-35.47,3.61-13.29-2.13-8.83-1.95-8.83-1.95Z"/>
  <path class="st10" d="M37.19,286.57s3.08,1.13,16.75-1.97,16.19-7.76,16.19-7.76c0,0-14.62,5.77-21.62,6.37s-17.25.21-17.25.21l5.94,3.13Z"/>
  <path class="st5" d="M128.3,201.84s13.8-10.5,32.9-10.51,27.63,15.46,27.63,15.46c0,0-65.54,10.57-60.53-4.95Z"/>
  <path class="st6" d="M129,209.47s10.7,4.18,21.5,4.26,24.78-.97,24.78-.97c0,0-16.74,2.53-27.52,2.53s-18.76-5.82-18.76-5.82Z"/>
</svg>