<?xml version="1.0" encoding="UTF-8"?>
<svg id="Vrstva_2" xmlns="http://www.w3.org/2000/svg" version="1.1" viewBox="0 0 1417.32 1417.32">
  <!-- Generator: Adobe Illustrator 29.7.1, SVG Export Plug-In . SVG Version: 2.1.1 Build 8)  -->
  <defs>
    <style>
      .st0 {
        fill: #82a0b9;
      }

      .st1 {
        fill: #d4edfc;
      }

      .st2 {
        fill: #fff;
      }

      .st3 {
        fill: #0f4c59;
      }

      .st4 {
        fill: #fbceb4;
      }

      .st5 {
        fill: #ecf7fe;
      }

      .st6 {
        fill: #196374;
      }

      .st7 {
        fill: #fee0bc;
      }
    </style>
  </defs>
  <path class="st7" d="M787.46,290.65s-48.91-30.48-53.03-55.39-5.69-161.53,14.68-171.56c20.37-10.04,207.64-17.87,237.4-12,29.76,5.88,39.55,70.66,43.47,122.49s3.92,120.37-25.46,132.13c-29.38,11.75-208.85,9.8-217.05-15.67Z"/>
  <path class="st6" d="M434.01,824.67s-26.35-123.22-8-175.65c18.35-52.43,10.49-36.7,55.05-91.76,44.57-55.05,77.22-136.33,233.92-136.33s243.22,112.73,266.81,201.87c23.59,89.14,23.59,209.73,0,254.3-23.59,44.57-39.32,20.97-68.16,62.92-28.84,41.95-194,68.16-288.38,52.43-94.38-15.73-212.22-131.08-191.25-167.79Z"/>
  <path class="st7" d="M419.51,707.33h577.03s10.13-292.94-288.94-292.67c0,0-151.08-13.58-232.12,149.47,0,0-43.73,31.16-51.19,70.29-7.43,38.96-4.77,72.91-4.77,72.91Z"/>
  <g>
    <path class="st5" d="M463.73,774.13h18.75s10.38,11.92,13.39,14.89,306.62,10.43,316.66,6.7c10.04-3.72,12.05-10.29,12.05-10.29,0,0,41.84,1.63,45.52,0,3.68-1.63,96.07,4.61,97.41,0s-13.05-15.03-17.74-26.95c-4.69-11.92-16.4-58.09-16.4-58.09l-2.34-28.3-1-20.11-118.16,7.45s-232.64,12.66-240.68,14.89-32.47,13.41-33.47,13.41-10.38,2.23-10.38,2.23c0,0-4.35,2.98-7.36,8.19-3.01,5.21-13.72,10.43-16.4,17.13s-9.37,17.13-9.37,17.13c0,0-9.04,1.49-10.38,5.21s-20.08,36.49-20.08,36.49Z"/>
    <path class="st2" d="M620.38,678.06s37.83,5.96,50.88,7.45c13.05,1.49,77.99-11.92,77.99-11.92,0,0,17.41,3.09,21.09,6.02s67.28-6.02,67.28-6.02l5.69-5.96h56.57l30.13-15.64s-27.45-20.85-44.19-26.07-36.15-1.49-43.52-7.45-58.58-13.41-67.12-13.41-17.57,6.7-17.57,6.7h-7.7s-11.38-6.7-19.75-6.7-54.9,4.47-68.96,9.68-25.11,27.67-29.46,30.59-32.47,4.41-45.19,9.62-59.25,35-59.25,35c0,0,14.73,2.98,21.76,0s31.8-15.64,42.51-12.66c10.71,2.98,16.74,6.7,16.74,6.7l12.05-5.96Z"/>
    <path class="st2" d="M485.41,735.66l15.51-14.78s2.23-12.93,14.49-17.82l-2.14,7.77s-8.03,4.41-9.04,8.53-4.93,12.91-4.93,12.91l-13.88,3.39Z"/>
    <path class="st1" d="M572.18,783.81s9.37-12.66,15.06-26.81c5.69-14.15,11.05-17.36,16.74-21.34s17.41-13.39,18.75-11.29,15.4-9.07,15.4-9.07c0,0-15.73,26.07-16.74,26.07s-13.39,2.98-13.39,2.98c0,0-1.34.74-7.7,5.21-6.36,4.47-17.74,24.58-17.74,24.58l-10.38,9.68Z"/>
    <path class="st1" d="M657.87,761.47c1,0,8.37,2.23,16.74-4.47s16.4-7.45,16.4-7.45l8.03-13.89h26.44s23.1,13.15,22.09,13.89-21.09,4.44-24.1,12.27c-3.01,7.83-7.82,13.05-7.82,13.05,0,0,10.84-22.34,5.14-25.32-5.69-2.98-21.09,5.71-21.09,5.71l-10.04,9.93-14.39.74-17.41-4.47Z"/>
    <path class="st1" d="M883.15,681.78c-1,0-144.57,61.55-144.57,61.55l9.01,6.22,135.57-67.77Z"/>
    <path class="st1" d="M824.57,785.44s-10.04-40.58-5.36-49.78,8.7-13.66,9.04-4.73-.33,15.9,2.34,24.33,14.39,30.76,14.39,30.76l-20.42-.59Z"/>
  </g>
  <path class="st0" d="M491.23,802.2s9.68,11.29,31.46,11.29,273.45,7.26,273.45,7.26c0,0-254.09,7.26-274.26,5.65s-30.65-24.2-30.65-24.2Z"/>
  <path class="st0" d="M856.64,809.46c19.36-2.42,51.57,2.65,73.38,4.96s52.46-5.6,52.46-5.6c0,0-31.46,14.35-46.79,13.54s-79.05-12.91-79.05-12.91Z"/>
  <path class="st0" d="M546.89,836.89c3.23,1.61-15.33,27.43,36.3,27.43s29.85,2.42,61.31,4.03,148.17,1.61,195.08-5.65,70.36-9.65,70.36-9.65l65.18,5.62s-54.75-4.03-77.33.81c-22.59,4.84-106.48,19.36-132.29,18.55s-15.33.87-52.43.03-66.95-1.1-86.31.24-57.08,6.18-80.57-9.15c-23.49-15.33.71-32.27.71-32.27Z"/>
  <path class="st0" d="M617.01,903.84s-13.71,10.49,21.78,13.71,83.08,6.45,102.44,4.03,18.55-.81,31.46,0,33.52-12.91,33.52-12.91c0,0-17.38,16.13-28.68,18.55s-20.17-5.65-31.46,0c-11.29,5.65-61.31.13-68.56.47s-47.59,6.26-55.66,2.09-42.94-6.59-23.89-16.27l19.05-9.68Z"/>
  <path class="st4" d="M827.35,509.8c0,22.02-17.85,39.87-39.87,39.87-27,0-36.4-17.85-36.4-39.87s14.38-39.87,36.4-39.87c25.6,0,39.87,17.85,39.87,39.87Z"/>
  <g>
    <path class="st3" d="M655.25,664.86s-.68,4.62,3.42,5.3,12.14.51,14.53-3.59c2.39-4.1,29.23-5.98,29.23-5.98,0,0-1.71,4.62,5.81,3.76s8.21-8.89,7.69-9.23-47.66-128.25-47.66-128.25c0,0,.48-10.04-1.74-16.02s-8.38-19.49-24.62-18.97-17.44,21.03-15.56,26.84,10.77,18.97,11.11,20.17,17.78,125.98,17.78,125.98Z"/>
    <path class="st0" d="M639.35,564.86s-6.5,9.52-7.52,16.3-.34,23.87-1.71,28.49-2.56,21.88,0,35.21c2.56,13.33,9.23,21.54,14.87,17.78,0,0,2.73,3.76,13.5,5.3s16.07-1.03,16.07-1.03c0,0,22.74.51,30.43-4.27,0,0,14.36-6.15,16.75-15.38l1.08-4.37s5.29,3.66,6.92-1.22-7.73-39.89-15.26-55.76c-7.53-15.87-16.28-25.44-20.76-28.7s-6.92-3.66-7.94-4.48-6.31-10.18-10.18-16.28c-3.87-6.11-5.5-8.95-6.11-14.04s-2.26-8.78-2.26-8.78c0,0,2.46,13.06-1.4,17.13,0,0-10.18,5.09-18.93,5.9l-5.5-.41s-4.26,2.07-7.52-3.39c-3.25-5.46,3.04,6.24,2.63,9.09s2.17,21.01,2.82,22.92Z"/>
    <path class="st3" d="M638.78,598.12s1.63,6.11,1.42,12.62-1.59,25.44.02,33.99,4.66,13.64,4.66,13.64c0,0-4.68-16.28-3.05-30.12,1.63-13.84-1.63-28.7-3.05-30.12Z"/>
    <path class="st3" d="M702.48,581.16s4.27,15.93,7.33,22.45c.67,1.43,1.44,2.9,2.24,4.38,2.84,5.28,6.08,10.75,6.72,15.36.81,5.9,3.87,17.5,3.87,17.5,0,0-4.48-13.03-5.5-17.3-1.02-4.27-7.73-16.08-8.55-17.71s-6.11-24.69-6.11-24.69Z"/>
    <path class="st2" d="M629.39,505.79s3.33-.95,5.23,2.85.95,13.54,3.45,15.45,14.38,3.8,16.4-2.85-2.02-7.84-2.61-11.52c-.59-3.68.17-9.86,3.17-10.22s7.28,3.68,9.42,10.57c2.14,6.89,1.25,15.09-.95,18.89s-14.49,8.32-24,6.06-12.59-20.01-12.95-23.64,2.85-5.58,2.85-5.58Z"/>
    <path class="st1" d="M629.51,514.23s1.19,6.77,3.45,6.18,2.14-4.18.71-6.78-4.32-.19-4.16.6Z"/>
    <path class="st1" d="M655.29,511.61c.12-.48.71-5.11,3.33-4.75s2.38,6.06,1.54,7.25-5.45-.2-4.87-2.49Z"/>
    <path class="st3" d="M630.7,514.54s-.52-1.65,1.4-.92,1.8,5.12,1.09,5.47-2.49-4.56-2.49-4.56Z"/>
    <path class="st3" d="M657.08,512.44s-1.01-3.82.91-4.28,1.3,4.36.51,5.27-1.43-.99-1.43-.99Z"/>
    <path class="st0" d="M639.73,518.62c1.55-2.37,4.16-6.3,5.23-6.18s7.25,2.65,6.89,4-4.74,3.68-6.05,4-6.66-.91-6.07-1.82Z"/>
    <path class="st3" d="M641.61,519.12l4.17-1.57h3.97s-2.74,2.76-8.13,1.57Z"/>
  </g>
  <g>
    <path class="st7" d="M566.4,296.14s-270.8,28.92-356.17,12.29c-85.38-16.63-159.88-56.75-138.19-131.61C92.52,106.09,158.65,19.83,445.48,60.26c107.3,15.12,115.95-3.31,165.35,109.74,28.83,65.97,45.53,91.96-44.44,126.15Z"/>
    <g>
      <path class="st0" d="M414.89,143.84s20.18,14.38,24.88,29.3c4.7,14.93,4.98,22.67,4.98,22.67,0,0,10.23-3.59,40.08,7.46,29.86,11.06,40.91,21.33,61.09,23.66,20.18,2.33,22.12,2.61,23.5,6.2s-31.24,11.33-53.08,8.57c-21.84-2.76-42.3-14.61-58.05-14.77l-15.76-.16s2.76,23.5-27.64,31.24c-30.41,7.74-95.93,9.4-113.34-19.63l-17.42-29.03s-23.5-1.11-41.47,4.7c-17.97,5.81-59.99,19.9-68.28,12.72s-4.98-12.44,11.06-14.1c16.03-1.66,46.17-10.5,67.45-21.84,21.29-11.33,34.56-13.27,34.56-13.27,0,0,16.59-34,39.53-40.91s87.91,7.19,87.91,7.19Z"/>
      <path class="st3" d="M403.83,169s-3.87,11.06-14.93,12.44c-11.06,1.38-35.11-.55-46.72-6.22s-23.22-34.14-9.4-53.49c13.82-19.35,33.17-34.83,57.78-30.41,0,0,15.2,3.59,23.5,12.99,8.29,9.4,17.42,15.2,18.8,19.07s2.76,3.87,1.94,6.91-8.07,14.57-16.89,15.86-14.07,22.85-14.07,22.85Z"/>
      <path class="st2" d="M351.86,129.19s1.66-11.06,13.82-16.03c12.16-4.98,24.05-8.57,29.86-2.49,5.81,6.08,9.12,8.57,7.46,16.03s-2.19,12.04.43,14.87,19.95,2.38,22.79,0c0,0,0,2.14-6.49,6.08s-13.64,25.95-19.61,27.52c-5.97,1.57-38.04,3.23-44.12-1.19s-8.57-3.59-6.08-10.5,4.7-13.27,3.32-18.52-1.38-15.76-1.38-15.76Z"/>
      <path class="st1" d="M373.42,124.77s2.6-7.19,11.11-6.63c8.51.55,12.11,8.57,9.07,13.55s-11.61,4.42-15.76,1.38-4.42-8.29-4.42-8.29Z"/>
      <path class="st3" d="M377.85,126.74s3.32-5.57,8.29-3.36,6.36,3.32,5.25,5.25-13.77,5.35-13.55-1.89Z"/>
      <path class="st0" d="M453.59,125.6c.27-1.64-22.39-11.3-27.37-9.52-4.98,1.78-12.16,8.76-9.95,10.94s18.52,3.29,18.52,3.29c0,0,18.25-1.38,18.8-4.7Z"/>
    </g>
    <path class="st4" d="M134.86,117.4s-24.27-23.35-7.14-28.09c17.13-4.75,26.41.83,26.41.83,0,0-18.56-24.85,0-32.7s30.7-13.5,37.83,3.96,0,27.28,0,27.28c0,0,11.42-25.37,34.98-11.88,23.56,13.48,19.99,27.76,19.99,27.76,0,0,35.52-10.71,34.18,19.27-1.34,29.98-79.74,14.99-79.74,14.99,0,0-103.64,24.63-110.06,3.75-6.42-20.88,37.12-28.02,43.54-25.16Z"/>
    <path class="st4" d="M465.78,291.26s-23.66-9.28-12.19-24.98c11.47-15.7,30.03-9.99,30.03-9.99,0,0,39.26-19.99,54.25-4.28,14.99,15.7,7.14,25.7,7.14,25.7,0,0,35.52,10.71,2.06,26.41-33.46,15.7-54.17-16.42-54.17-16.42,0,0-16.42,3.57-27.13,3.57Z"/>
    <path class="st3" d="M210.22,191.32s22.84-13.28,37.83-14.49c14.99-1.21,19.27,0,19.27,0,0,0-25.28-22.63-57.11,14.49Z"/>
    <path class="st3" d="M165.97,229.15s2.86,8.57,13.56,8.57,59.25-11.42,59.25-11.42c0,0-54.97,23.65-65.67,19.68s-7.14-16.82-7.14-16.82Z"/>
    <path class="st3" d="M542.17,208.45s9.28,5.71,24.27,4.28,27.13,15.7,22.13,27.84c-5,12.14-22.63,18.56-22.63,18.56,0,0,35.48-7.85,33.34-25.34-2.14-17.49-25.7-26.77-57.11-25.34Z"/>
  </g>
  <path class="st4" d="M782.67,220.7s-31.33-30.13-9.21-36.26c22.11-6.13,34.09,1.07,34.09,1.07,0,0-23.96-32.07,0-42.21,23.96-10.14,39.62-17.42,48.83,5.11,9.21,22.53,0,35.21,0,35.21,0,0,14.74-32.74,45.15-15.34,30.41,17.4,25.8,35.83,25.8,35.83,0,0,45.85-13.82,44.11,24.88-1.73,38.7-102.92,19.35-102.92,19.35,0,0-133.76,31.79-142.05,4.84-8.29-26.95,47.91-36.16,56.2-32.48Z"/>
  <g>
    <path class="st7" d="M783.4,1250.54s-10.79-132.8,7.63-145.64,107.69-17.86,135.89-13.39c28.2,4.46,55.55,41.3,62.25,60.28,6.7,18.98,14.51,135.25,14.51,146.6s-104.51-10.73-104.51-10.73l-115.76-37.12Z"/>
    <path class="st6" d="M789.36,1315.31s3.91,40.18,32.37,49.11c28.46,8.93,118.88,2.23,144-5.02,25.12-7.26,37.95-61.02,37.95-61.02l-.28-6.51s-62.34-6.93-100.74-1.58c-38.4,5.35-113.3,25.02-113.3,25.02Z"/>
    <g>
      <path class="st0" d="M837.11,1150.15s-8,2.3-12.1,12.15c-4.1,9.85-12.31,34.48-16.42,43.24-4.1,8.76-1.64,37.76,4.93,41.32,6.57,3.56,12.22,3.83,10.08-1.37s-.59-27.64,0-29.28l.59-1.64s-.21,12.32,3.35,20.26,19.43,28.26,34.75,31c15.32,2.74,48.92,14.42,54.67,10.59s19.16-.27,21.35-13.14c2.19-12.86-7.42-33.11-16.3-44.61s-15.17-24.36-14.63-25.18,42.14-14.22,42.14-14.22c0,0-6.57-26.83-35.58-37.23,0,0-40.71-16.8-76.83,8.1Z"/>
      <path class="st3" d="M901.63,1172.7s4.38,4.93,3.56,9.03.65,33.93-1.73,42.14-8.12,28.19-7.85,34.48c.27,6.29-4.93,17.79-10.4,10.4s-6.02-41.94-6.02-46.83,5.47-15.02,5.47-15.02c0,0-7.94,10.33-7.94,15.02s1.92,50.39,10.95,51.76c9.03,1.37,10.4-15.6,10.13-16.42s3.56-20.8,4.65-23.53,3.32-11.2,2.84-17.79,2.36-34.18,2.36-36.66-6.02-6.58-6.02-6.58Z"/>
      <path class="st3" d="M922,1174.89c.42-.82-4.23-7.94,3.43-9.58s22.99.27,25.45,19.16-7.94,22.71-9.3,25.18-8.21,11.22-10.13,10.95-10.54-10.13-10.47-11.49,1.02-34.21,1.02-34.21Z"/>
      <path class="st2" d="M914.76,1184.47s8.48-7.12,8.48-9.85,4.93-3.56,8.21,0,11.22,4.65,13.41,9.85,2.46,15.84-1.37,19.96-7.94.53-10.13,0-8.9,6.58-12.39,4.67-15.53-17.51-13.34-19.43,7.12-5.2,7.12-5.2Z"/>
      <path class="st1" d="M939.94,1190.83s-4.07,2.39-3.82,5.95,2.17,6.02,3.82,5.47,7.12-8.61,0-11.42Z"/>
      <path class="st3" d="M939.8,1192.72s-2.42,7.14,0,7.07,0-7.07,0-7.07Z"/>
      <path class="st0" d="M932.82,1209.42c.6.75,3.56,4.49,3.29,7.42s-.82,8.95-3.29,7.58-4.35-6.04-4.35-6.04c0,0,2.7-11.02,4.35-8.96Z"/>
      <path class="st3" d="M919.41,1278.89s-.29,5.46,2.59,6.55,2.67,0,10.3,0,17.76,3.56,17.21,1.64-3.06-3.81-3.06-3.81c0,0,3.33,1.93,3.06,0s-3.06-4.38-3.06-4.38c0,0,.77-.56,0-1.93s-16.64-1.64-16.64-1.64l-10.41,3.57Z"/>
      <path class="st0" d="M899.16,1271.49c.82.55,13.14,10.4,24.08,9.58,10.95-.82,19.25-17.5,15.49-28.19s-39.57,18.61-39.57,18.61Z"/>
    </g>
    <path class="st5" d="M796.43,1252.8s32.56,2.54,41.3,3.72,16.37,1.49,22.32,3.72,34.6,2.98,40.93,5.59c6.33,2.6,11.91,16.74,13.39,23.81,1.49,7.07,27.7,17.86,26.5,19.35s-39.15-.37-56.27,3.35c-17.12,3.72-94.51,4.46-95.25,2.98s-5.21-59.59-5.95-64.77c-.74-5.18,13.02,2.26,13.02,2.26Z"/>
    <path class="st0" d="M943.5,1282.37s-4.4,16.57,2.96,15.83-2.96-15.83-2.96-15.83Z"/>
    <path class="st0" d="M932.3,1291.87s-6.85,12.8-1.93,13.02,1.93-13.02,1.93-13.02Z"/>
    <path class="st0" d="M949.54,1304.89s-.93,12.22,4.28,11.13-4.28-11.13-4.28-11.13Z"/>
    <path class="st1" d="M784.82,1265.83s16.07,4.11,26.49,11.35c10.42,7.25,65.41,19.53,65.41,19.53,0,0-71.74-6.13-76.2-6.41s-13.49,1.58-13.49,1.58l-2.21-26.04Z"/>
    <path class="st0" d="M971.86,1300.24s15.07-3.53,16.19,4.65-24.56,5.6-24.56,5.6c0,0,30.14,10.81,32.93,0,2.79-10.81-5.21-18.48-24.56-10.26Z"/>
    <path class="st0" d="M794.09,1334.53s44.94-.24,61.68-2.47,37.33-10.05,51.87-10.05h26.82s-40.18,3.91-52.46,10.05c-12.28,6.14-78.85,19.1-78.85,19.1,0,0-7.59-12.33-9.06-16.63Z"/>
    <path class="st0" d="M862.15,1356.61s37.16,5.02,47.77-2.79c10.6-7.81,32.28-8.37,32.28-8.37,0,0-27.26,21.77-45.67,19.53-18.42-2.23-34.37-8.37-34.37-8.37Z"/>
  </g>
  <g>
    <path class="st6" d="M49.64,555.17s-1.89-118.06,12.38-125.56c14.27-7.5,204.99-20,218.31-14.16,13.33,5.83,31.65,119.38,29.98,150.92s-20.24,92.37-39.27,99.03c-19.03,6.67-183.82,10-203.86,0s-17.54-110.24-17.54-110.24Z"/>
    <path class="st5" d="M50.16,522.21s25.16,7.94,35.09,2.49,33.14-8.05,36.1-5.12,19.45-2.58,23.51-1.8,9.5-4.16,20.87-4.01c11.37.15,12.28,2.35,24.15.89s17.57-.4,23.93-1.34c6.36-.95,15.87,4.46,15.87,4.46,0,0,19.23,5.7,27.28,3.59s21.37-2.81,27.73.89,24.61,18.89,24.61,18.89c0,0,12.82,29.57,1.12,63.64s-19.52,63.83-44.75,66.18c-25.23,2.35-181.87,16.51-204.27-6.83-22.4-23.34-11.24-141.93-11.24-141.93Z"/>
    <g>
      <path class="st5" d="M82.68,485.22h6.68s3.7,4.25,4.77,5.31,109.34,3.72,112.92,2.39,4.3-3.67,4.3-3.67c0,0,14.92.58,16.23,0s34.26,1.64,34.74,0-4.66-5.36-6.33-9.61-5.85-20.71-5.85-20.71l-.84-10.09-.36-7.17-42.14,2.66s-82.96,4.51-85.82,5.31-11.58,4.78-11.94,4.78-3.7.8-3.7.8c0,0-1.55,1.06-2.63,2.92s-4.89,3.72-5.85,6.11-3.34,6.11-3.34,6.11c0,0-3.22.53-3.7,1.86s-7.16,13.01-7.16,13.01Z"/>
      <path class="st2" d="M138.54,450.96s13.49,2.12,18.14,2.66,27.81-4.25,27.81-4.25c0,0,6.21,1.1,7.52,2.15s23.99-2.15,23.99-2.15l2.03-2.12h20.17l10.74-5.58s-9.79-7.44-15.76-9.29c-5.97-1.86-12.89-.53-15.52-2.66s-20.89-4.78-23.93-4.78-6.27,2.39-6.27,2.39h-2.75s-4.06-2.39-7.04-2.39-19.58,1.59-24.59,3.45-8.95,9.87-10.5,10.91-11.58,1.57-16.11,3.43-21.13,12.48-21.13,12.48c0,0,5.25,1.06,7.76,0s11.34-5.58,15.16-4.51,5.97,2.39,5.97,2.39l4.3-2.12Z"/>
      <path class="st2" d="M90.42,471.5l5.53-5.27s.8-4.61,5.17-6.36l-.76,2.77s-2.86,1.57-3.22,3.04-1.76,4.6-1.76,4.6l-4.95,1.21Z"/>
      <path class="st1" d="M121.36,488.67s3.34-4.51,5.37-9.56,3.94-6.19,5.97-7.61,6.21-4.77,6.68-4.03,5.49-3.24,5.49-3.24c0,0-5.61,9.29-5.97,9.29s-4.77,1.06-4.77,1.06c0,0-.48.27-2.75,1.86s-6.33,8.76-6.33,8.76l-3.7,3.45Z"/>
      <path class="st1" d="M151.91,480.71c.36,0,2.98.8,5.97-1.59s5.85-2.66,5.85-2.66l2.86-4.95h9.43s8.24,4.69,7.88,4.95-7.52,1.58-8.59,4.38-2.79,4.65-2.79,4.65c0,0,3.86-7.97,1.83-9.03s-7.52,2.04-7.52,2.04l-3.58,3.54-5.13.27-6.21-1.59Z"/>
      <path class="st1" d="M232.25,452.29c-.36,0-51.55,21.95-51.55,21.95l3.21,2.22,48.34-24.17Z"/>
      <path class="st1" d="M211.36,489.26s-3.58-14.47-1.91-17.75,3.1-4.87,3.22-1.69-.12,5.67.84,8.68,5.13,10.97,5.13,10.97l-7.28-.21Z"/>
    </g>
    <g>
      <path class="st3" d="M172.05,444.14s-2.05,2.91.86,3.12,5.49-1.56,5.49-1.56l8.4-.92s4.95,3.77,6.03,1.83-1.72-4.42-1.72-4.42c0,0-2.69-47.39-2.15-49.01s.75-5.49.75-5.49c0,0,1.29-7.43-.22-9.05s-6.03-3.45-9.59.43c-3.55,3.88-1.08,10.66-1.08,10.66l-6.79,54.39Z"/>
      <path class="st0" d="M177.11,391.56s-1.08,10.25-3.12,12.94-4.52,12.92-4.42,14.43l.11,1.51s-1.4,5.6-1.08,9.15,2.15,14.65,3.45,14.54,2.69-.11,3.55,0,1.4,2.15,4.74,2.26,5.39-1.62,7.43-1.72,3.77-.54,4.42-2.37.89-2.91.89-2.91c0,0,4.28-6.89,3.85-12.06s-.65-6.35-.65-6.35c0,0,3.55-2.48,2.91-5.6s-3.55-8.62-4.85-9.15l-1.29-.54s.22-3.45-1.29-5.39-1.83-3.66-1.83-5.17.43-6.25-.97-7.75-5.6-1.08-5.6-1.08c0,0,.65,2.91-.32,3.34s-4.87-3.02-5.02-5.6c0,0-2.15,5.53-.91,7.53Z"/>
      <path class="st2" d="M185.62,382.1c0-.43,1.08-4.2-1.18-3.66s-4.74,3.34-4.63,5.06,1.54,5.06,4.11,5.28,4.83.65,5.8-1.08.51-5.92.51-5.92c0,0-.73,1.18-2.02,1.29s-2.58-.97-2.58-.97Z"/>
      <path class="st3" d="M180.99,406.44s-.13,3.99,1.23,4.85c.68.43,2.6,2.53,4.36,4.72s3.36,4.45,3.4,5.2c.08,1.51.35.75.35.75,0,0,1.97-2.26,3.37-3.45s0-8.29,0-8.29c0,0,.06,6.46-.62,7.54s-1.86,2.05-1.86,2.05c0,0-3.23-5.71-5.17-6.89s-4.42-3.23-5.06-6.46Z"/>
      <path class="st3" d="M180.45,418.93c.32.22,5.92,5.39,8.72,5.39s5.15-.97,5.15-.97c0,0-5.17,2.91-6.67,2.58s-7.2-7-7.2-7Z"/>
      <path class="st1" d="M181.64,381.88s1.37-2.93,2.8-2.26.78,3.12-.52,3.23-2.28-.97-2.28-.97Z"/>
      <path class="st3" d="M182.82,381.67s.68-1.62,1.09-1.18-.55,2.05-1.09,1.18Z"/>
      <path class="st0" d="M187.39,380.41c.28-.68.71-1.33,2.11-1.76l1.4-.43s-1.36,2.6-1.76,2.97-1.76-.78-1.76-.78Z"/>
    </g>
  </g>
  <g>
    <path class="st7" d="M404.79,1253.3s-13.33-132.8,9.42-145.64c22.75-12.84,133.04-17.86,167.88-13.39,34.84,4.46,68.63,41.3,76.9,60.28s17.93,135.25,17.93,146.6-129.12-10.73-129.12-10.73l-143.01-37.12Z"/>
    <path class="st6" d="M396.55,1318.07s5.11,40.18,42.35,49.11c37.24,8.93,155.52,2.23,188.38-5.02,32.86-7.26,49.65-61.02,49.65-61.02l-.36-6.51s-81.55-6.93-131.8-1.58c-50.24,5.35-148.22,25.02-148.22,25.02Z"/>
    <path class="st5" d="M469.67,1255.56s32.56,2.54,41.3,3.72,16.37,1.49,22.32,3.72,34.6,2.98,40.93,5.59c6.33,2.6,11.91,16.74,13.39,23.81,1.49,7.07,27.7,17.86,26.5,19.35s-39.15-.37-56.27,3.35c-17.12,3.72-94.51,4.46-95.25,2.98s-5.21-59.59-5.95-64.77c-.74-5.18,13.02,2.26,13.02,2.26Z"/>
    <path class="st5" d="M462.6,1318.07s-66.14,7.62-66.06,0,8.24-64.77,8.24-64.77c0,0,38.84-2.26,51.86,0s33.28,12.84,33.28,12.84l-27.33,51.93Z"/>
    <path class="st0" d="M467.34,1337.29s44.94-.24,61.68-2.47,37.33-10.05,51.87-10.05h26.82s-40.18,3.91-52.46,10.05c-12.28,6.14-78.85,19.1-78.85,19.1,0,0-7.59-12.33-9.06-16.63Z"/>
    <path class="st0" d="M535.39,1359.37s37.16,5.02,47.77-2.79c10.6-7.81,32.28-8.37,32.28-8.37,0,0-27.26,21.77-45.67,19.53-18.42-2.23-34.37-8.37-34.37-8.37Z"/>
    <path class="st1" d="M458.07,1268.59s16.07,4.11,26.49,11.35c10.42,7.25,65.41,19.53,65.41,19.53,0,0-71.74-6.13-76.2-6.41s-13.49,1.58-13.49,1.58l-2.21-26.04Z"/>
    <polygon class="st1" points="458.07 1268.59 402.97 1266.23 398.52 1299.47 460.27 1294.63 458.07 1268.59"/>
    <path class="st0" d="M467.34,1337.29l-62.89-6.04s59.47,21.83,71.95,22.67c12.49.84,27.62-11.33,27.62-11.33l-36.68-5.29Z"/>
    <g>
      <path class="st0" d="M541.37,1159.36s-7.14,33.91-11.9,47.59c-4.76,13.68-21.42,53.84-29.45,57.7s-33.61.59-31.83-11.6c0,0-32.72-2.08-36.88-5.35-4.16-3.27-23.2-5.06-18.14-7.73s7.14-3.57,9.22-7.44,10.41-44.02,12.19-49.97c1.78-5.95,5.95-33.01,30.04-50.86,24.09-17.85,41.34-31.53,64.54-24.39,23.2,7.14,24.69,16.36,24.69,16.36,0,0-3.57,30.93-12.49,35.69Z"/>
      <path class="st3" d="M521.44,1155.49s-5.65,13.98-5.65,21.42-4.16,32.72-8.03,44.02c-3.87,11.3-26.17,30.04-19.93,8.63l6.25-21.42s-13.5,26.43-7.34,31.21,20.13-8.01,24.59-19.01c4.46-11,6.84-34.8,6.84-40.15s3.27-24.69,3.27-24.69Z"/>
      <path class="st3" d="M512.22,1227.77s-.88,9.05-2.97,18.21c-1.94,8.5-4.93,17.1-9.22,18.67-8.92,3.27-14.9,1.14-14.9,1.14l-8.39-2.1s-2.47-.45,0,2.79,9.6,2.94,14.66,2.64,3.84,4.16,11.88,4.16,10.13-1.49,8.94-2.68,3-4.06.31-4.41,2.37-.05-1.5-2.13-5.35-2.68-5.35-2.68c0,0,13.98-24.98,6.54-33.61Z"/>
      <path class="st3" d="M516.68,1247.99s2.97,1.78,1.78,2.53l-1.19.74s.3,1.78-.59,2.97-2.28,1.19-2.28,1.19c0,0,.5,2.38-1.88,2.68s-3.48-5.06-3.48-5.06l.51-8.41,7.14,3.36Z"/>
      <path class="st2" d="M545.91,1131.62s6.32-5.13,7.96-4.68,6.54,9.38,7.21,12.16,2.01,7.02,0,9.7-9.29,6.47-10.78,6.69-5.04-.07-4.39-1.32-1.26-8.49-1.26-8.49l1.26-14.05Z"/>
      <path class="st3" d="M548.81,1120.99s6.54.89,9.52,6.54c2.97,5.65,6.25,16.95,5.95,22.6s.59,6.84-5.06,7.44-8.92-2.08-8.92-2.08c0,0,2.38-2.97,3.57-5.35,1.19-2.38,8.63-3.19,5.95-10.81s-6.54-10.3-9.22-8.82-7.14,13.68-5.95,15.17-4.76-3.87-3.57-10.71,2.68-16.66,7.73-13.98Z"/>
      <path class="st0" d="M560.41,1155.49s2.42-3.57,3.89-1.78,4.15,5.58,2.14,6.25-7.77-2.62-6.02-4.46Z"/>
      <path class="st1" d="M549.03,1142.55c.46-.8,2.08-6.25,4.83-4.68,2.75,1.56,2.97,6.25,1.64,7.81s-8.25,0-6.47-3.12Z"/>
      <path class="st3" d="M550.41,1141.94s2.27-3.62,3.46-1.84,1.21,3.41-.47,4.68-3.85-1.69-2.98-2.85Z"/>
    </g>
  </g>
  <g>
    <path class="st7" d="M83.28,1228.77s-25.73-106.03,31.15-128.29,138.13-16.2,161.15,20c23.02,36.2,18.96,129.38,18.96,129.38H83.28v-21.09Z"/>
    <path class="st2" d="M83.28,1249.86s54.89-5.65,96.51-12.17,114.75,12.17,114.75,12.17c0,0,4.06,38.84-5.42,60.18-9.48,21.34-29.4,55.2-42.46,59.26-13.06,4.06-117.34,7.79-134.94-17.09-17.61-24.89-28.44-102.34-28.44-102.34Z"/>
    <g>
      <g>
        <path class="st3" d="M168.08,1292.98s-4.36,3.1,0,4.34l4.36,1.25s4.98,3.74,9.03,1.87l4.05-1.87s4.93,1.87,6.98-.31c2.05-2.18-3.56-10.9-3.56-10.9l10.87-6.85h7.34s-3.27,8.31,0,10.22,6.38,0,6.38,0c0,0,.31,4.72,4.98,5.03s6.54-2.45,6.54-2.45c0,0,4.67,1.29,7.78,0s-5.92-16.54-6.85-17.17-40.79-7.47-40.79-7.47l-17.13,24.3Z"/>
        <path class="st0" d="M144.42,1158.47s-1.25,21.48,0,26.78,0,3.42,0,3.42c0,0-14.63,20.95-13.7,32.89s.31,15.99,4.36,15.06-.11-5.6,2.75-10.27c2.86-4.67,7.15-9.34,7.15-9.34,0,0-4.91,7.78-5.22,23.04-.31,15.26,9.96,45.77,19.3,50.44,9.34,4.67,25.22,2.8,31.76,0s6.54-8.41,9.96-8.72,8.41,6.85,21.48,8.41c13.08,1.56,26.46-4.05,30.2-13.7s1.25-43.28-2.18-48.88c0,0,4.05,1.02,2.8-6.03s-19.61-37.87-27.4-45.35-12-15.57-18.92-17.75c0,0-1.94-14.63-9.41-17.75s-50.44,9.03-52.93,17.75Z"/>
        <path class="st3" d="M156.25,1113.01s11.21-5.6,21.79,0c10.59,5.6,21.75,19.98,21.77,29.29s-28,32.04-36.4,33.29c-8.41,1.25-16.19-12.45-18.99-17.12-2.8-4.67-3.42-25.22,0-31.13s8.13-12.96,11.83-14.32Z"/>
        <path class="st2" d="M164.65,1140.22s1.56-8.53,9.65-7.91,11.83,3.5,12.77,10.78c.93,7.28.62,13.82-7.78,19.42-8.41,5.6-18.99,8.53-24.28,7.84s-13.04-9.12-12.93-20.61-1.4-18.12,2.96-17.47-.1,18.79,1.51,23.26,10.95,6.66,15.93,1.99c4.98-4.67,2.18-17.31,2.18-17.31Z"/>
        <path class="st5" d="M170.94,1146.63s-.37-6.29,3.36-6.41,6.23,2.06,5.29,6.41c-.93,4.36-8.75,2.09-8.65,0Z"/>
        <path class="st5" d="M141.91,1143.09s1.75-1.4,3.13,1.58c1.37,2.98-1.97,6.44-2.44,6.68s-.69-8.25-.69-8.25Z"/>
        <path class="st3" d="M173.06,1144.67s-.17-1.84,2.3-1.91,2.08,2.69,0,4.29-2.3-2.39-2.3-2.39Z"/>
        <path class="st3" d="M142.11,1144.67s3.54,3.52-.03,5.08l.03-5.08Z"/>
        <path class="st6" d="M145.37,1192.71s4.34,4.36,4.34,7.16v2.8s3.42,0,2.18-4.98-6.52-4.98-6.52-4.98Z"/>
        <path class="st6" d="M210.11,1183.68s22.42,29.12,27.71,33.09c5.29,3.96,9.65,7.39,8.72,7.39s-16.81-10.9-22.11-17.44c-5.29-6.54-10.9-12.45-10.9-12.45l-3.42-10.59Z"/>
        <path class="st6" d="M207.15,1162.2s-3.58,4.36-2.64,10.27c.93,5.92,2.18,9.34,2.18,9.34l.07-6.15s-1.32-8.17.39-13.47Z"/>
      </g>
      <polygon class="st0" points="148.76 1155.89 154.36 1151.35 160.3 1154.39 154.53 1157.47 148.76 1155.89"/>
    </g>
    <path class="st5" d="M83.28,1249.86s10.83,34.86,18.96,50.06c8.13,15.2,18.95.47,28.43,15.97,9.49,15.49,27.72,22.09,40.27,24.21,12.55,2.12,54.31,6.66,62.54-7.8,8.24-14.46,15.01-22.62,28.55-28.02s32.5-54.41,32.5-54.41c0,0-.38,53.57-11.8,73.34s-39.6,48.65-63.95,48.79c-24.34.14-69.17,3.28-88.13-8.25-18.95-11.53-18.84-47.09-33.79-47.85-14.96-.76-13.6-66.03-13.6-66.03Z"/>
    <path class="st1" d="M261.59,1315.88s-8.13,14.14-18.96,29.04c-10.83,14.9-53.29,27.06-53.29,27.06,0,0,49.09,7.16,64.97-12.17,15.88-19.32,0-19.72,0-19.72l7.27-24.21Z"/>
  </g>
  <g>
    <path class="st7" d="M1361,1354.29s-99.26-3.26-126.76-2.33-113.24-20.04-126.76-38.68c-13.51-18.64-7.92-143.07-3.26-156.12,4.66-13.05,34.95-56.39,71.3-59.65,36.35-3.26,168.23,2.8,185.48,6.06s29.36,121.63,23.77,160.31c-5.59,38.68-3.75,91.02-23.77,90.41Z"/>
    <path class="st0" d="M1173.66,1248.04s-26.1-16.31-19.11-22.6c6.99-6.29,34.95-6.76,56.85,7.69,0,0,8.85-42.87,34.02-48.47,25.17-5.59,41.94-2.8,41.94-2.8l7.46,73.17s6.99,10.72,1.86,23.3-2.8,5.59-2.8,5.59c0,0,7.49,10.25,4.67,28.89s-4.71,39.63-4.71,39.63c0,0-80.59,3.75-105.76,0-25.17-3.75-42.25-18.64-42.25-18.64,0,0,20.35-41.03,25.94-44.29,0,0-11.81-14.91-25.94-18.17-14.14-3.26-32.31-2.33-28.12-14.45,4.19-12.12,43.34-15.38,55.92-8.85Z"/>
    <path class="st3" d="M1179.25,1248.97l14.43,3.26,14.48-14.91s-10.73,14.91-7.47,16.78,23.3,7.92,32.16,7.92,18.17,5.59,16.78,13.05l-1.4,7.46s-1.86-12.99-8.85-14.89c-6.99-1.89-35.92-10.28-45.69-10.75s-14.43-7.92-14.43-7.92Z"/>
    <path class="st3" d="M1223.52,1296.04c-1.4,0-16.31,1.4-27.5,2.8-11.18,1.4-24.23-9.32-24.23-9.32,0,0,7.92,14.45,17.24,14.45s34.49-7.92,34.49-7.92Z"/>
    <path class="st3" d="M1258.94,1237.32s-10.72-26.56-6.52-38.68,7.46-15.38,13.51-17.48,28.43-2.56,38.68,7.22c10.25,9.79,19.11,38.68,16.31,48.93s-3.73,11.65-11.65,12.12-9.32,5.13-14.45,5.59-34.01-12.6-35.88-17.71Z"/>
    <path class="st2" d="M1264.53,1233.12s.47-15.84,6.06-21.44c5.59-5.59,19-13.98,28.61-5.13s13.34,11.65,8.21,18.87c-5.13,7.22-10.36,11.42-8.21,14.68s10.07,9.32,10.07,9.32c0,0-8.51,6.9-14.45,5.59s-33.55-14.45-30.29-21.9Z"/>
    <path class="st1" d="M1281.31,1221.47s-2.62-7.7,5.68-7.11,10.53,4.32,12.21,8.98c1.68,4.66-8.4,8.85-12.21,8.39s-5.68-10.25-5.68-10.25Z"/>
    <path class="st3" d="M1286.44,1220.08s.79-2.8,4.82,0,3.43,9.82,0,8.87-4.82-8.87-4.82-8.87Z"/>
    <path class="st0" d="M1306.94,1237.32s12.23-2.33,14.5-2.33,12.99,13.51,9.26,13.05-9.26-4.19-9.26-4.19c0,0,8.8,7.46,4.14,7.92s-22.65-13.71-18.64-14.45Z"/>
    <path class="st4" d="M1147.9,1160.31s-4.9,20.73,23.89,12.09c28.79-8.64,29.66-19.86,29.66-19.86,0,0-.86,16.79,31.96,10.98s18.03-29.12,18.03-29.12c0,0,35.52,6.05,29.47-12.96-6.05-19-39.54-44.91-66.41-30.23s-25.14,25.91-25.14,25.91c0,0,15.82-21.95-17.57-22.2s-17.87,23.82-17.87,23.82c0,0-45.99,7.88-36.8,22.56,9.19,14.68,30.78,19,30.78,19Z"/>
  </g>
  <g>
    <polygon class="st3" points="1154.98 848.45 1174.81 962.24 1309.48 960.01 1323.35 843.43 1154.98 848.45"/>
    <path class="st0" d="M1146.15,985.3s2.23,16.29,143.84,5.4c141.6-10.89,13.01-45.78,13.01-45.78l-32.75,2.26-74.57,10.46-12.95-17.49-36.58,45.16Z"/>
    <g>
      <path class="st7" d="M1353.88,793.04c-17.58-33.2-109.16-22.31-136.74-19.6-27.58,2.7-75.11,15.8-88.99,31.32-13.88,15.52-29.6,126.95-24.05,147,3.41,12.3,20.07,25.31,42.05,33.55,20.99-26.56,36.58-45.16,36.58-45.16-1.51-4.86.6-39.5,19.32-61.84,18.71-22.33,40.14-16.6,56.14-18.41,16-1.81,29.28,0,30.18,0s-20.52,16.6-20.52,16.6l-2.11-2.41h-31.39l-8.15,19.01,44.37,52.51-.31,1.56c4-.87,7.28-2.16,10.57-2.47,6.34-.6,9.96,2.11,9.96,2.11,0,0,5.73,11.17,2.41,31.09-.88,5.28-2.02,9.47-3.21,12.8,25.18-1.18,44.47-2.25,44.47-2.25,0,0,13.88,2.46,26.83-4.54,12.95-7,10.18-157.67-7.4-190.87Z"/>
      <path class="st0" d="M1174.81,992.59c5.65.8,11.41,1.24,17.18,1.26,16.95.07,43.71-.82,69.48-1.89l8.79-44.79c-3.72.81-8.02-.62-13.58.25-11.2,1.74-1.47,1.48-18.11-6.04-14.67-6.62-39.54,2.04-55.83-1.24.42,1.35-2.91,22.52-7.93,52.45Z"/>
    </g>
    <path class="st0" d="M1290.78,946.82s2.55-4.74-.25-10.43l-2.81-5.68s1.85,14.96-17.16,14.9-8.04,13.51-8.04,13.51l28.26-12.31Z"/>
    <path class="st2" d="M1217.14,899.13s.3-26.26,12.68-30.48c12.37-4.23,31.09-3.32,33.8,0,2.72,3.32,3.92,8.45,4.83,18.41.91,9.96,5.73,21.43,14.49,28.07,8.75,6.64,13.16,13.96,11.3,25.02-1.87,11.05-34.23,4.26-40.27,1.54s-12.37-6.04-16-13.58-19.32-22.64-20.82-28.97Z"/>
    <path class="st1" d="M1230.19,883.77s4.76-12.41,13.21-7.88c8.45,4.53,11.47,9.96,2.11,14.49s-16.76-2.96-15.32-6.61Z"/>
    <path class="st3" d="M1233.44,883.35s2.11-5.94,8.45-3.23,2.93,8.15-1.25,8.15-9.11-2.24-7.2-4.92Z"/>
    <path class="st0" d="M1298.33,859.09s-17.2,14.39-20.22,21.63c-3.02,7.24-6.34,17.81,2.11,22.03s37.12,7.24,38.03,7.85-.3,5.13-4.23,5.43-14.43,7.55-25.63,6.94c-11.19-.6-23.87-23.13-24.47-31.18-.6-8.05-4.23-21.28,3.32-25.98,7.55-4.71,29.28-11.14,31.09-6.72Z"/>
    <path class="st3" d="M1222.53,938.49s20.88,12.94,31.09,13.26c10.21.32,35.11-.31,38.06-7.87,0,0-39.94,2.72-47.74-8.06-7.8-10.78-21.42,2.67-21.42,2.67Z"/>
    <path class="st4" d="M1318.53,864.41s-21.28,18.55-20.35,23.86c.93,5.31,31.56,11.81,31.56,11.81,0,0-15.81-7.89-15.8-13.46.01-5.57,4.58-22.21,4.58-22.21Z"/>
    <path class="st4" d="M1342.28,857.61s-16.25,18.3-14.39,21.8c1.86,3.5,28.4,10.14,28.59,10.07s-12.68-10.91-14.37-15.93c-1.69-5.03,5.74-20.12,5.74-20.12l-5.57,4.19Z"/>
  </g>
  <g>
    <path class="st6" d="M43.72,890.01s-20.11-54.7,0-78c20.11-23.31,10.89-43,27.44-54.52s95.62-19.56,122.09-26.85,81.31,12.47,102.91,29.61,39.2,124.14,35.43,156.75c-3.77,32.61-23.88,113.67-41.48,119.65s-207.42-2.78-225.02-12.23c-17.6-9.44-21.37-134.41-21.37-134.41Z"/>
    <g>
      <g>
        <path class="st5" d="M120.18,883.32h5.54s3.07,3.52,3.96,4.41,90.69,3.08,93.66,1.98,3.56-3.04,3.56-3.04c0,0,12.38.48,13.46,0s28.41,1.36,28.81,0-3.86-4.45-5.25-7.97-4.85-17.18-4.85-17.18l-.69-8.37-.3-5.95-34.95,2.2s-68.81,3.74-71.18,4.41-9.6,3.96-9.9,3.96-3.07.66-3.07.66c0,0-1.29.88-2.18,2.42s-4.06,3.08-4.85,5.07-2.77,5.07-2.77,5.07c0,0-2.67.44-3.07,1.54s-5.94,10.79-5.94,10.79Z"/>
        <path class="st2" d="M166.51,854.91s11.19,1.76,15.05,2.2,23.07-3.52,23.07-3.52c0,0,5.15.92,6.24,1.78s19.9-1.78,19.9-1.78l1.68-1.76h16.73l8.91-4.63s-8.12-6.17-13.07-7.71-10.69-.44-12.87-2.2c-2.18-1.76-17.33-3.96-19.85-3.96s-5.2,1.98-5.2,1.98h-2.28s-3.37-1.98-5.84-1.98-16.24,1.32-20.39,2.86c-4.16,1.54-7.43,8.18-8.71,9.05s-9.6,1.3-13.37,2.85-17.52,10.35-17.52,10.35c0,0,4.36.88,6.44,0s9.41-4.63,12.57-3.74,4.95,1.98,4.95,1.98l3.56-1.76Z"/>
        <path class="st2" d="M126.59,871.94l4.59-4.37s.66-3.82,4.28-5.27l-.63,2.3s-2.38,1.3-2.67,2.52-1.46,3.82-1.46,3.82l-4.11,1Z"/>
        <path class="st1" d="M152.25,886.19s2.77-3.74,4.46-7.93,3.27-5.13,4.95-6.31,5.15-3.96,5.54-3.34,4.55-2.68,4.55-2.68c0,0-4.65,7.71-4.95,7.71s-3.96.88-3.96.88c0,0-.4.22-2.28,1.54-1.88,1.32-5.25,7.27-5.25,7.27l-3.07,2.86Z"/>
        <path class="st1" d="M177.6,879.58c.3,0,2.48.66,4.95-1.32s4.85-2.2,4.85-2.2l2.38-4.11h7.82s6.83,3.89,6.53,4.11-6.24,1.31-7.13,3.63-2.31,3.86-2.31,3.86c0,0,3.2-6.61,1.52-7.49s-6.24,1.69-6.24,1.69l-2.97,2.94-4.26.22-5.15-1.32Z"/>
        <path class="st1" d="M244.22,856.01c-.3,0-42.76,18.2-42.76,18.2l2.66,1.84,40.1-20.04Z"/>
        <path class="st1" d="M226.9,886.67s-2.97-12-1.58-14.72,2.57-4.04,2.67-1.4-.1,4.7.69,7.2,4.26,9.1,4.26,9.1l-6.04-.17Z"/>
      </g>
      <g>
        <path class="st3" d="M196.68,847.78s.86,4.08,1.61,3.59.86-.91.86-.91c0,0,.32,1.05,1.07.95l.75-.09s1.13.8,1.98.48l.86-.32s.54.64,1.45.05,4.88-2.25,4.77-4.67-2.95-35.08-2.09-36.16,1.39-5.63.64-7.72-5.15-5.04-9.39-3.59c0,0-2.57.8-2.52,4.72,0,0-1.23,1.82-1.39,2.9s-.59,4.61-.59,4.61l1.98,36.16Z"/>
        <path class="st0" d="M194.24,810.39s-1.98,3-3.38,6.33c-1.39,3.33-.27,3.16-2.2,6.54s-2.9,13.84-2.31,16.47,1.77,3.22,2.25,1.45.64-4.67.64-4.67c0,0,.32,4.67,2.68,8.37s3.7,4.61,4.72,4.61,1.07-1.77,2.52-1.66,3.43-.75,3.43-.75c0,0,3.81.7,4.88,1.13s-.7,2.57,1.13,3.33,6.06-.48,7.78-3.22,2.25-10.57,2.15-16.09c-.11-5.53-3.16-14-4.35-15.99s-2.2-3.92-2.63-4.13c0,0-.64-3.33-.91-4.72s-1.62-3.46-2.07-4.4.67,5.95-.4,6.76-4.24,2.31-7.94,2.63-4.51-.93-4.83-1.5.21-1.72.21-1.72c0,0-1.04.68-1.39,1.23Z"/>
        <path class="st2" d="M200.52,808.52s-1.37-1.44-.97-2.7,1.94-3.56,4.46-2.52c2.52,1.04,3.09,4.89,2.37,6.01s-3.58,2.05-6.15,2.52-3.71-.07-4.1-.83-.18-1.98-.18-1.98l.9-.11s.32.97,1.73,1.01,2.34-.9,1.94-1.4Z"/>
        <path class="st1" d="M201.28,806.37s.23-1.22,1.34-1.12,1.43.65,1.18,1.58-2.43,1.22-2.51-.47Z"/>
        <path class="st3" d="M201.88,806.42s-.05-.34.73-.34.89.29.49.65-1.29.13-1.22-.31Z"/>
        <path class="st0" d="M196.7,806.9s-2.09.57-2.01,2.79c0,0,1.69.08,3.27-.24s1.91-.48,1.91-.48c0,0-2.52-2.06-3.17-2.06Z"/>
        <path class="st3" d="M210.04,824.03s1.16,8.09.94,11.22-1.56,5.29.03,5.72,4.07-2.16,4.29-3.56.23.15.23.15c0,0-3.2,6.74-5.49,4.38-2.11-2.18.03-7.01,0-8.31s0-9.6,0-9.6Z"/>
        <path class="st3" d="M189.83,824.03s-.86,9.28-.86,10.58c0,0-.86-8.53.86-10.58Z"/>
      </g>
    </g>
    <path class="st0" d="M75.67,886.88s-1.58,19.47,18.81,23.16c20.39,3.7,38.61,6.21,38.61,6.21,0,0-93.75,16.38-57.42-29.38Z"/>
    <path class="st0" d="M120.18,952.12c5.13-5.97,12.23,14.49,32.63,22.96,20.4,8.47,25.89-12.34,52.68,4.98,26.8,17.32,90.67-13.97,90.67-13.97,0,0-57.16,44.64-80.63,37.97s-20.02-8.99-26.78-12.24-90.18-14.56-68.58-39.7Z"/>
    <path class="st0" d="M253.43,936.95s7.41-.92,32.1-7.33,46.54-26.63,46.54-26.63l-.48,14.01s-16.34,13.57-30.17,19.95c-13.83,6.38-47.99,0-47.99,0Z"/>
  </g>
  <g>
    <path class="st7" d="M1121.16,512.24s-4.58-124.81,27.4-131.8c31.98-6.99,150.75-15.14,178.69,0,27.95,15.14,32.6,264.67,29.11,274.39-3.49,9.72-188.55,13.21-207.8,7.97-19.25-5.24-27.4-150.57-27.4-150.57Z"/>
    <path class="st2" d="M1124.43,555s39.01-18.25,73.07-22.54c34.06-4.29,157.14,4.73,157.14,4.73,0,0,6.97,119.31.06,125.62-6.9,6.31-199.78,9.9-213.54.84-13.76-9.06-16.74-108.65-16.74-108.65Z"/>
    <g>
      <path class="st3" d="M1192.54,633.36s-8.65,12.03-3.38,12.78,7.9,0,7.9,0c0,0,4.51-.08,7.14.33s4.89,4.85,8.65,0c3.76-4.85,4.89-15.37,4.89-15.37,0,0,19.93-18.8,21.06-18.8s30.08,12.41,30.08,12.41c0,0-10.53,23.59-3.76,24.02s4.14,3.34,12.78,0c8.65-3.34,12.03,4.18,12.03-2.58s-10.9-21.81-10.9-21.81c0,0-19.55-190.66-19.93-195.91-.38-5.25-5.26-36.03-27.82-35.49-22.56.54-27.07,35.93-24.82,43.43s-13.91,196.99-13.91,196.99Z"/>
      <path class="st0" d="M1155.69,432s-9.02-8.66-1.88-9.68c7.14-1.02,46.62,29.37,46.62,29.37l6.02-15.33s4.51,7.89,11.28,8.44c6.77.56,20.3-2.66,27.07-3.5,6.77-.83,14.29-12.88,14.29-12.88,0,0,5.64,15.89,4.14,21.19s.26,2.28.26,2.28c0,0,29.82-45.74,41.86-45.88,12.03-.14,0,12.22-3.76,18.26-3.76,6.04-28.95,48.9-26.7,51.16,2.26,2.26,25.94,63.92,28.58,86.48s-.6,73.01-14.96,78.62c-14.36,5.6-28.28,3.42-34.29,0-6.02-3.42-6.77-14.32-6.77-14.32,0,0-16.15,3.78-20.3,1.88,0,0-3.38,11.28-15.79,12.03-12.41.75-32.71-10.9-34.59-31.58-1.88-20.68,14.29-81.21,17.67-90.24,0,0-2.26-25.94-2.26-33.84s.38-9.78.38-9.78c0,0-12.41-20.06-19.18-25.07-6.77-5.01-17.67-17.63-17.67-17.63Z"/>
      <path class="st3" d="M1216.98,594.26s3.56,19.18,21.71,19.55,33.18-14.29,33.18-14.29c0,0-20.04,23.08-33.18,23.69s-23.97-21.43-21.71-28.95Z"/>
      <path class="st2" d="M1234.23,430.88s-1.43-6.12-3.42-9.09-2.87-11.01,3.42-14.68c6.29-3.67,13.98-1.05,17.65,9.09,3.67,10.14-.87,19.93-4.2,21.85-3.32,1.92-9.71,1.4-14.38,3.15s-10.32,2.42-16.21,1.57-11.26-8.6-11.17-11.36c.09-2.77,3.49-25.53,6.64-25.88,3.15-.35,1.38,15.05.16,18.81s-.35,14.41,6.12,15.81,15.59-8.44,15.38-9.26Z"/>
      <path class="st1" d="M1234.76,417.42c.06-.52,4.2-7.34,8.91-4.2s2.97,12.76,0,13.28-9.79-1.57-8.91-9.09Z"/>
      <path class="st3" d="M1238.69,421.96s1.6-8.2,4.63-6.29c3.04,1.91-.96,7.34-2.32,7.69s-2.32-1.4-2.32-1.4Z"/>
      <path class="st1" d="M1208.27,414.83c.73-.55,2.54,5.3,2.19,8.57-.35,3.27-4.34,5.01-4.34,5.01,0,0,.98-12.71,2.15-13.59Z"/>
      <path class="st3" d="M1207.53,418.75c1.04-1.07,2.85,2.16,0,5.58-1.46,1.75-1.88-4.81,0-5.58Z"/>
      <path class="st0" d="M1215,430c.7-.7,2.27-2.99,3.85-3.42s8.57,3.42,8.57,3.42c0,0-7.52,6.12-9.09,5.59s-3.32-5.59-3.32-5.59Z"/>
    </g>
    <path class="st3" d="M1151.06,448.26s18.27,16.38,24.82,22.27,7.86,15.44,7.86,15.44l-32.68-37.71Z"/>
    <path class="st3" d="M1313.44,435.63s-20.83,29-23.52,36.21,0,14.13,0,14.13l23.52-50.34Z"/>
    <path class="st3" d="M1160.16,485.96s12.45,8.49,16.38,18.47c3.93,9.98,3.59,14.12,3.59,14.12l-19.97-32.59Z"/>
    <path class="st3" d="M1308.2,478.91s-17.69,12.24-11.79,17.65c5.9,5.41,9.17,8.83,9.17,8.83,0,0-3.33-6.97-4.49-13.24s7.11-13.24,7.11-13.24Z"/>
  </g>
  <path class="st7" d="M1099.7,173.87s-4.63-102.7,14.42-113.54c19.06-10.84,188.04-19.71,212.98-8.87s17.72,29.84,29.85,48.44c12.13,18.59,38.27,107.31,9.57,124.07-28.7,16.76-243.03,5.57-252.39-7.57-9.37-13.14-14.42-42.52-14.42-42.52Z"/>
  <path class="st2" d="M1093.04,98.68s80.6-14.15,113.38-16.05c32.78-1.9,66.58-7.14,80.39,0s81.73,18.41,81.73,18.41c0,0,22.06,102.1,5.88,124.45-16.19,22.35-98.07,32.83-196.4,22.35s-80.48-49.99-84.64-65.71c-4.16-15.71-.34-83.46-.34-83.46Z"/>
  <path class="st5" d="M1137.3,162.68s-7.79,9.8-2.71,12.01-.63-.58,11.75,3.43c12.38,4.01,35.37,0,35.37,0,0,0,8.3,2.89,34.08,1.78,25.78-1.1,81.01-12.44,81.01-12.44,0,0,19.05,1.04,25.71,0s25.99-8.87,25.99-8.87l-211.2,4.08Z"/>
  <g>
    <path class="st3" d="M1131.3,173.73s-5.23-6.63-6.18-11.16c-.95-4.53,6.18-14.52,6.18-14.52,0,0,190.75-16.65,195.98-16.65s17.12,10.94,20.93,15.22,6.66,11.68,6.66,13.21-10.47-1.06-11.89,0c-1.43,1.06-20.45,2.04-25.69,2.74s-173.46,6.44-173.46,6.44c0,0-9.66,8.82-12.54,4.72Z"/>
    <path class="st0" d="M1125.02,148.52s-13.23-4.71-9.9-7.59,13.32-5.73,13.32-5.73c0,0,34.25-19.01,62.32-24.02s59.46-4.05,79.44,4.99c19.98,9.04,26.16,11.98,33.77,12.18s23.63,1.74,28.16,4.77c4.53,3.03-11.99,12.97-13.89,17.75s11.42,8.62-.95,11.7c-12.37,3.08-21.43.99-21.43.99,0,0-90.36,15.2-101.3,11.26l-10.94-3.94s-39.96,7.2-47.09-1.87-11.5-20.49-11.5-20.49Z"/>
    <path class="st3" d="M1180.77,159.83s-6.18-8.99,0-8.96,20.45,3.78,34.25,0,28.19-11.7,32.82-12.5l4.63-.81s-15.1,13.47-41.26,15.55c-26.16,2.07-28.54.65-27.59,3.98s4.8,10.38,4.8,10.38l-7.66-7.64Z"/>
    <path class="st2" d="M1331.52,153.11s5.74-8.83,10.07-8.86,6.91,10.94,6.91,10.94c0,0-4.07,4.22-5.52,4.64s-21.1,4.81-22.75,1.81c-1.65-3,11.3-8.53,11.3-8.53Z"/>
    <path class="st3" d="M1339.58,150.58s4.89,0,4.32,2.88c-.58,2.87-4.32-2.88-4.32-2.88Z"/>
    <path class="st0" d="M1351.03,160.18s2.44-5.03,2.98-3.46c.54,1.57,6.01,2.12,3.71,3.46s-6.69,0-6.69,0Z"/>
    <path class="st3" d="M1271.07,141.82c-1.92-.29,6.48,1.88,7.12,8.76.65,6.88-3.56,10.52-3.56,10.52,0,0,19.67-15.82-3.56-19.28Z"/>
  </g>
  <path class="st2" d="M1096.5,208.56s13.44-1.81,36.37,3.96c22.94,5.77,62.71.78,73.62,3.92,10.91,3.14,19.55-9.05,50.83-3.92,31.28,5.13,105.7-12.69,105.7-12.69,0,0,8.34,99.94,0,105.07-8.34,5.13-54.16,12.19-54.16,12.19,0,0-.57,10.91-23.56,10.91s-167.34-6.42-175.68-11.55-13.12-107.89-13.12-107.89Z"/>
  <path class="st1" d="M1132.87,226.3l65.88,20.13,40.38-12.71,23.38,25.41,43.83-12.71,42.14,56.55s-2.2,10.59-8.92,10.26-33.22-50.37-33.22-50.37l-49.54,6.91-19.37-23.8-45.52,5.95-59.07-25.63Z"/>
  <path class="st6" d="M217.97,513.43l-8.97,14.4-26.18,10.82,16.45,16.11-50.25,36.26,59.98-36.26-9.73-12.98,23.48-6.17v-7.79l12.97-13.3s-8.78-15.51-17.75-1.11Z"/>
</svg>