<?xml version="1.0" encoding="UTF-8"?>
<svg xmlns="http://www.w3.org/2000/svg" version="1.1" viewBox="0 0 1417.32 708.66">
  <!-- Generator: Adobe Illustrator 29.7.1, SVG Export Plug-In . SVG Version: 2.1.1 Build 8)  -->
  <defs>
    <style>
      .st0 {
        fill: none;
        stroke: #196374;
        stroke-miterlimit: 10;
      }

      .st1 {
        fill: #82a0b9;
      }

      .st2 {
        fill: #d4edfc;
      }

      .st3 {
        fill: #fff;
      }

      .st4 {
        fill: #ecf7fe;
      }

      .st5 {
        fill: #196374;
      }
    </style>
  </defs>
  <g id="Vrstva_1">
    <rect class="st4" x="-80" y="-73" width="1526" height="822"/>
    <path class="st2" d="M889.46,226.61l30.88,35.78s10.63-12.47,21.27-15.95,28.63-5.11,32.92-5.32,7.97-1.64,7.97-1.64c0,0,10.84,16.15,19.63,20.45,8.79,4.29,16.97,14.52,34.76,16.77,17.79,2.25,27.4,6.95,36.81,11.66s76.07,33.94,76.07,33.94c0,0,9.41-3.07,10.22-5.52.82-2.45-18.4-18.4-18.4-18.4l2.86-1.02s15.75,13.5,19.02,12.47,14.11-9.82,10.43-11.25-38.03-10.63-32.72-17.18c5.32-6.54,14.93-15.54,14.93-15.54,0,0,1.84,6.34,7.16,6.34s31.49-3.89,37.42.82,17.18,15.95,22.7,20.65c5.52,4.7,27.81,3.68,27.81,3.68l17.18-10.63s-52.96-31.29-60.32-35.78-23.52-17.99-24.54-16.36c-1.02,1.64-10.63,8.59-10.63,8.59l-8.79-2.25s-15.13-19.02-17.18-18.81-29.04,10.22-29.04,10.22c0,0,.2-8.79-1.84-13.5-2.04-4.7-8.18-8.18-10.43-14.11s-6.54-28.22-6.54-28.22c0,0-35.17,22.29-39.47,22.29s-29.85-.2-31.49-1.64c-1.64-1.43,4.18-19.62,4.18-19.62l-46.31,2.24-96.52,46.83Z"/>
    <path class="st2" d="M1203.95,244.2l25.97,21.88s21.68-2.25,31.49,1.23c9.82,3.48,6.54,4.09,11.45,5.52,4.91,1.43,26.79,1.64,26.79,1.64,0,0,24.33-6.34,34.35-4.7,10.02,1.64,16.56-31.9,12.47-31.29s-14.93,4.91-14.93,4.91c0,0-2.04,0-13.9.61s-24.54-4.24-32.1-7.44c-7.57-3.2-15.75-1.71-34.76,0-19.02,1.71-46.83,7.64-46.83,7.64Z"/>
    <path class="st2" d="M1342.59,270.78s14.93.82,16.15,1.23,24.95-2.25,22.29-6.13-11.66-16.56-15.75-15.13-22.7,20.04-22.7,20.04Z"/>
    <path class="st2" d="M1359.77,276.3s2.66,5.93,0,8.79-4.59,3.89,1.18,4.91,33.17,3.48,40.53,0c7.36-3.48,29.45-1.23,26.38-3.89s-14.72-2.66-21.47-4.91-11.04-10.84-20.45-10.43-25.28-4.2-26.17,5.52Z"/>
    <path class="st2" d="M1349.34,236.56s14.31-6.67,19.63-6.67h31.49s11.86-3.68,12.68-1.43c.82,2.25,0,10.63,0,10.63l32.1-14.52v52.14s-13.7,1.23-20.86-2.25-6.75-9-15.13-11.25c-8.38-2.25-10.84-.61-15.13-3.89-4.29-3.27-2.86-5.95-6.13-8.7s-42.94-10.52-42.94-10.52c0,0,1.78-2.42,4.29-3.55Z"/>
    <path class="st2" d="M1260.18,212.3s16.77-5.73,19.02-3.68c2.25,2.04,24.33,22.9,22.29,22.9s-20.45-8.38-23.11-10.43c-2.66-2.04,1.43-3.07-6.34-4.7-7.77-1.64-11.86-4.09-11.86-4.09Z"/>
    <path class="st2" d="M-5.72,201.8s-.25,4.5,1.75,7.25,7,7.25,8.75,13,4.25,10.5,4.25,10.5l-4.25,4.01-16.67-2.01s13.67,10.75,20.92,16.75,29.25,18.5,40.25,24.25,11,5.75,21.75,8.75,49.5,8,50.25,7.75,14-12,28-7.75,40.5,10,46.75,9.25-.25-.75,4.75-6,12.25-10.25,9-15.5-7-6-4-12.25,4.81-14.5,4.81-14.5c0,0-4.56,2.75-6.31,5.5s-3.25,4.25-8,5.5-12,4.5-15.75,7-22.25,9.5-37.5,10.5-13.75,3-25,.75-41-20.75-37.5-22.75,7.5-2,12.5.5,16,8.5,33.5,9.75,34.25-8.75,44.75-9.25,35.75-2,35.75-2l5.75-8.25s6.5,7.25,8.75,7.75,10.5-1.5,10.5-1.5c0,0-9.25-10.75-13.25-15.5s.75-10-6.25-9.75-33.25,3.75-55-2.25-39.25-23-53.25-32.5-33.25-54-33.25-54L1.53,154.3l-7.25,47.5Z"/>
    <path class="st2" d="M169.61,172.21s.92,10.33,5.67,12.33,7,3.75,7,3.75l1.5-23.25-14.17,7.17Z"/>
    <path class="st2" d="M133.53,218.3c.75-.25,28.25-4.5,40.25-9.5s19-8.25,19.25-12.75-1.5-15.25-1.5-15.25l13.5-25.25,45.75-5s-23.75,30.75-22,33.88,1.5,1.88,11.75,0,45-21.38,45-21.38l48.75-44,7.25,3.25s2.25,7.25,0,12.5-2,1-5.5,8.25-5.5,25.62-5.5,25.62c0,0,7.25-8.88,7.5-9.88s-7.25,5.25,2.25-8.5,3.75-13,9.5-13.75,9,2,12.25,1.25,7.75-2.25,8.5.5,0,7.75,7.5,10.75,14.25,9.25,15,12-2.25,5.5-2.25,5.5c0,0,1.99,12,2.37,21.75s-.37,19.75,1.63,24.75,2.5,14,8.75,18.5,11.25,11.5,11.25,11.5c0,0-8,0-14.75-1.25s-14.25-3.5-25-1.75-24.75,5.5-36,10.25-36.25,13-43.25,13.5-27-4-35.5-7.75-26.25-17.5-33.75-22-9.95-8.24-17.25-9-49.5,4-49.5,4l-26.25-10.75Z"/>
    <path class="st2" d="M382.53,260.3s28.5-10.25,33.5-14.75-.5-.98,15-8.99,38.25-19.01,38.25-19.01c0,0-.25,3.25,3.5,12.25s7,13.25,7,13.25c0,0,14.75-13.25,19.25-12s13.25,4.25,13.25,4.25c0,0,7-4,7-10.5s-1.5-9-1.5-9c0,0-8.25-.75-14-4.75s-20.25-18.5-24.25-24.75-6.5-13.75-6.5-13.75l-3.25-3.5s6.25,2.75,12,4.5,6.5-2.75,15.25,3.12,22.5,3.38,29.25,8.62,22,20.07,27.25,28.91,5.75,14.59,5.75,14.59l49.46-34.21,32.29-37.79,25.25-1.25s-2,6.75,0,9.25,3.75,3,2,7.75-14,13.25-18.75,22.75-7.5,16.75-7.5,16.75l-34.75-11.75s-.75,13.5-2.5,17.75-2.75,10.25-2.75,10.25c0,0,3-9.75,11.75-5.75s10.5,9.27,11.25,14.01,7.25,8.99,7.25,8.99l18.75-17.25s31.5,14.5,26.25,18.5-10.75,9-12.25,13.5.75,24.5.75,24.5c0,0,13.25,4.75,17.25,1.25s9.5-9.5,9.5-9.5c0,0,7,6.82,4.25,10.79s-17.25,10.96-17.25,10.96c0,0-11-3.5-15.5-1.5s-9.75,7.25-17.5,7.25-59.25-1.75-67.25-6.25-6.5-10.5-13.5-8-13.75,4.75-12,8.25,40.75,12.25,55.25,11.25,57.75-15.5,57.75-15.5c0,0,4,14.5,3,18.75l-1,4.25s-31-5.75-45.75-4-36,6-53.75,12.25-53.25,10-64.75,9.75-58-2-64.25-4.5-14.5-12.75-26.75-21.5-28.25-10.25-37-15.75-35-20.75-35-20.75c0,0,35.75-15,41-12Z"/>
    <path class="st2" d="M522.03,251.55s-31.5,15.25-46.5,18-36.25,7-49,11-31.75,22.25-31.75,22.25l-45.75-19.25s20.5-4.75,36.25-10.25-7.25-1,34-8,88-22.24,91-20.12,11.75,6.37,11.75,6.37Z"/>
    <path class="st2" d="M685.28,316.55s19.91-24.75,22.25-24.25,28.5,22.5,28.5,22.5v3.25s-40-.25-44.5,0-6.25-1.5-6.25-1.5Z"/>
    <path class="st2" d="M704.78,258.3l34.25-42.5,27.75,4.5s-3,10.5,3.75,12.75,10.5,4,10.5,4c0,0,3.75,14.5,6.25,14.5s12-2.13,12-2.13c0,0-2.25-3.87-8.25-9.37s-10.25-5.25-13.25-8.5-2.75-12-2.75-12l22.5-9.25s4.75,4.5,5,12.25,1.75,9.25,7.5,17.5,10,12.5,10,12.5c0,0,15.5-5.75,22.75-9.25s12.5-14.75,16.5-18,18.25-5.25,21.25-1.5,34,42.75,34,42.75l5.81-4.15s25.44-6.85,34.94-9.85,16.25-4.25,16.25-4.25c0,0,31.75,43.5,43.5,54.5s21,17.75,22.5,17.75-9.5,3.78-22.25,1.76-8,2.49-50-1.76c-42-4.25-70.75-7.25-86.75-6.75s-57.75,6.25-71.5,10.5-19.25,5.25-28.25,3.5-37.25-2.25-30.75-8,13.5-14.25.25-24-17.75-16.5-26.5-22-17-15.5-17-15.5Z"/>
    <path class="st1" d="M-11.89-14.17h1454.67v243.72l-17.5,7s-8.33-10.33-11-10.33-36,3.33-43.33,2-49.33-28.67-49.33-28.67l-70.67,6s-52-32.67-57.33-30c-5.33,2.67-40,43.33-50,42.67l-43.33-29.33-34.67,10.67-33.33-22-8.67,11.33-12,.67-5.33,2.67s5.33-6.67-10.67-1.33-45.33,45.33-54,45.67-39.33-7-60.67-7-30,7.01-30,7.01c0,0-22.67-5.01-38-10.34-15.33-5.33-12-16-22.67-11.33s-24,12.67-24,12.67l-4.67-3.33-17.33,6-78-74.67s-11.33,8-11.33,12-12.67,1.33-22,7.33-26,21.33-26,21.33l-20.67,5.33s-23.33-14.67-35.33-18-96-28-102.67-24.67-10.67,10-10.67,10c0,0-12-3.33-19.33-14.67s-25.33-27.33-39.33-28c-14-.67-31.33-4.67-36.67,0s-16.67,14.67-16.67,14.67c0,0-19.33,4.67-21.33,9.33s-21.29,21.33-21.29,21.33c0,0-5.38-14.67-12.71-14.67s-23.33-8.67-38.67,0-29.33,16.67-29.33,16.67c0,0-22-2.67-24.67-2s-8,.67-8,.67c0,0-8-5.33-15.33-5.33s-54.67-2-57.33-3.33-22-20.67-26.67-20-10,14-10,14c0,0-16.67-4-24,4.67s-11.33,12.67-20,20.67-21.33,17.33-23.33,16.67-4.84-2-4.84-2V-14.17Z"/>
    <path class="st1" d="M452.2,443.54s-27.46,27.46-28.3,39.11l-.83,11.65s-19.97,22.47-22.47,29.13,0,9.99,0,9.99c0,0-4.16,19.14-33.29,44.11s-79.06,130-86.55,145.31c-7.49,15.31,830.56,5.32,833.06,4.49s-9.99-49.93-13.32-54.09c-3.33-4.16.83-5.83.83-8.32s-11.65-25.8-33.29-54.09c-21.64-28.3-48.27-43.28-49.1-56.59-.83-13.32-38.28-67.41-39.95-69.91s.83-54.09-9.15-79.06-517.64,38.28-517.64,38.28Z"/>
    <path class="st3" d="M707.69,557.55s46.6.83,75.73-4.16,39.95-11.65,39.95-11.65c11.65,2.5,84.05-39.95,101.53-64.08s19.14-119.01,10.82-156.46-30.79-88.22-51.6-100.7-99.87,59.09-114.01,82.39-32.46,51.44-32.46,51.44l-93.21-9.83s-72.4-120.67-111.52-114.01c-39.11,6.66-61.58,54.09-73.24,96.54-11.65,42.44,6.66,128.99,16.64,143.14s57.42,47.44,68.24,50.77-4.99,1.66,19.97,10.82,58.61,31.62,143.14,25.8Z"/>
    <path class="st5" d="M517.94,252.96c2.47-.36,5.83-4.99,19.97,0s63.25,46.6,75.73,84.89c12.48,38.28,2.5,58.26,0,74.9s-14.15,32.46,18.31,52.43,120.67,21.64,143.97,6.66,19.72-58.74,17.35-64.74-1.65-49.28,1.73-70.91,36.67-84.05,53.32-90.71,42.44-6.66,53.26,20.81c10.82,27.46,30.79,119.84,29.96,149.8s-15.81,62.42-39.95,74.9-9.99,11.65-18.31,18.31-82.39,34.95-111.52,38.28-59.09,0-59.09,0l4.99,9.99-.1,7.8s55.03,4.08,89.15-6.85,64.91-25.92,70.74-25.92,37.45-26.63,69.07-44.11,31.97-36.62,38.04-64.91-5.58-114.85-24.73-154.79-44.11-79.89-64.91-109.85-108.19-65.75-116.51-69.07,8.32-14.98,8.32-14.98c0,0-41.61,12.48-47.44,9.99s-11.39-9.99-31.08-9.99-12.2,5.83-12.2,5.83l15.81,4.16s-35.79,0-54.93,3.33-19.14,7.49-19.14,7.49l14.98,2.5s-67.41.83-129.83,74.9-69.91,196.4-64.08,241.34,13.32,83.22,85.72,114.01,143.51,50.25,229.69,30.08c0,0-54.09-10.11-79.89-14.27,0,0,14.15,8.32,8.32,8.32s-91.54-14.15-119.01-26.63-82.62-49.89-97.37-78.23-5.83-134.82.83-149.8c6.66-14.98,11.65-12.48,18.31-22.47s9.57-20.59,22.47-22.47Z"/>
    <path class="st4" d="M587.02,382.78s1.66-9.99-7.49-18.31c-9.15-8.32-25.8-22.47-39.95-22.47s-19.97,2.52-19.14,12.49,0,24.12,11.65,28.28,20.81,1.17,26.63,5.99,24.97,5.66,28.3-5.99Z"/>
    <path class="st4" d="M817.54,382.78s.83-9.81,6.66-15.72,32.46-37.54,45.77-32.55,10.82,30.79,5.83,38.28-29.13,15.31-33.29,15.98-31.62,9.73-24.97-5.99Z"/>
    <path class="st1" d="M532.92,354.5c1.17-2.2,19.14-1.68,28.3,4.98s21.64,22.47,16.64,24.13-17.17-4.16-21.9-4.16-29.7-12.46-23.04-24.96Z"/>
    <path class="st5" d="M983.16,542.57s4.99,55.76,0,58.26-15.81,34.12-24.13,42.44-106.05,59.92-110.86,54.93-4.82,4.84-14.8.34-6.66-14.49,0-14.49,23.3-.83,53.26-17.48,41.31-35.79,53.94-35.79,19.29-11.65,25.95-24.97,16.64-63.25,16.64-63.25Z"/>
    <path class="st5" d="M473.84,584.18c2.5-.83,55.76,44.94,88.22,59.92s34.95,4.16,43.28,14.98,27.46,18.31,54.09,26.63,59.92,13.93,75.73,14.04-24.12,31.33-41.6,31.38-77.94-12.96-87.24-17.12-34.27-1.05-38.43-14.26c-4.16-13.2-4.16-19.03-4.16-19.03,0,0-17.48-1.66-26.63-8.32s-22.47,0-24.13-10.82-16.64-17.48-21.64-27.46-33.29-25.8-26.63-34.12,9.15-15.81,9.15-15.81Z"/>
    <path class="st5" d="M535,357.5s11.28-1.98,18.75,0,20.75,16,17.75,19-40.5-7-36.5-19Z"/>
    <path class="st1" d="M870.13,353.94c-1.17-2.2-19.14-1.68-28.3,4.98-9.15,6.66-21.64,22.47-16.64,24.13s17.17-4.16,21.9-4.16,29.7-12.46,23.04-24.96Z"/>
    <path class="st5" d="M866.48,359.3s-11.28-1.98-18.75,0-20.75,16-17.75,19,40.5-7,36.5-19Z"/>
    <path class="st4" d="M550.5,362.98s.64,1.14,2.82,4.08,6.18-4.1-2.82-4.08Z"/>
    <path class="st4" d="M844,366.83l8,1.23s1-7.9-8-1.23Z"/>
    <path class="st2" d="M-24.37,383.92c33,1.67,33-5.16,78,15.5s63,56.66,149.99,79.16,127.49,30,127.49,30h-63c-54,0-111.68-7.5-134.58-15s-75.41-24-75.41-24c0,0,24,10.5,15,13.5s-81,6-104.99,1.5,7.5-100.67,7.5-100.67Z"/>
    <path class="st2" d="M1217.44,605.58s41.64-13.59,70.14-31.82c28.5-18.23,78.72-15.57,93.53-35.83,14.82-20.26-11.82-20.26,0-34.44,11.82-14.18,79.31-82.24,79.31-82.24,0,0,32.55,173.41,9,173.41s-5.47-37.07-52.23-14.48c-46.76,22.59-60.26,18.97-103.76,26.86s-96-1.45-96-1.45Z"/>
    <path class="st2" d="M1153.61,558.5s-13.91.48-16.79-15.93c-2.88-16.41-2.4-31.28,12.95-38.95,15.35-7.67,33.57-11.03,45.08-5.28,11.51,5.76,36.93,33.09,30.69,47.48-6.23,14.39-71.94,12.68-71.94,12.68Z"/>
    <path class="st2" d="M1144.01,514.65c-.48-1.92-10.55-36.45,12.47-43.16,23.02-6.71,42.04-.27,46.04,17.74,4,18.02,1.44,23.02-5.28,25.42-6.71,2.4-53.23,0-53.23,0Z"/>
    <path class="st2" d="M1156.48,477.24c-2.76-4.75-15.83-28.3,2.88-31.65s33.01-7.19,32.13,10.07-1.84,24.46-10.51,25.42-24.5-3.84-24.5-3.84Z"/>
    <path class="st1" d="M1156.17,455.38s3.57,8.32,5.35,4.16-5.35-4.16-5.35-4.16Z"/>
    <path class="st1" d="M1180.98,451.21s-4.93,13.63,0,9.49,0-9.49,0-9.49Z"/>
    <path class="st1" d="M1167.47,465.49s-2.26,7.41,3.03,3.41c5.29-4-3.03-3.41-3.03-3.41Z"/>
  </g>
  <g id="Vrstva_2">
    <polygon class="st0" points="668.58 423.56 707.59 423.56 746.81 423.56 707.59 372.8 668.58 423.56"/>
    <polygon class="st0" points="707.59 447.7 668.58 423.56 746.81 423.56 707.59 447.7"/>
    <polygon class="st1" points="668.48 423.56 707.49 423.56 746.71 423.56 707.49 372.8 668.48 423.56"/>
    <polygon class="st1" points="707.49 447.7 668.48 423.56 746.71 423.56 707.49 447.7"/>
  </g>
</svg>