<?xml version="1.0" encoding="UTF-8"?>
<svg id="Vrstva_1" xmlns="http://www.w3.org/2000/svg" version="1.1" viewBox="0 0 1417.32 708.66">
  <!-- Generator: Adobe Illustrator 29.7.1, SVG Export Plug-In . SVG Version: 2.1.1 Build 8)  -->
  <defs>
    <style>
      .st0 {
        fill: #82a0b9;
      }

      .st1 {
        fill: #fff;
      }

      .st2 {
        fill: #0f4c59;
      }

      .st3 {
        fill: #fbceb4;
      }

      .st4 {
        fill: #ecf7fe;
      }

      .st5 {
        fill: #fee0bc;
      }
    </style>
  </defs>
  <rect class="st5" x="-24" y="-21" width="1467" height="756"/>
  <path class="st3" d="M344.61,265.71c4.34,14.43,48-26.89,63,0l15,26.89s25.5-18,27,0,0,25.39,0,25.39c0,0,122.99,10.6,119.99,25.6-3,15,21,17.21,12,25.1s-25.5-17.17-48-12.89c-22.5,4.28-63,12.49-79.5,12.89s-157.49.22-194.99-6.44-104.99-42.35-60-52.25,88.5,7.99,88.5,7.99c0,0,43.5-97.18,57-52.29Z"/>
  <path class="st3" d="M764.33,331s17.33-9.33,31.33,0,9.67,17,9.67,17c0,0,18.33,1.67,16,9l-2.33,7.33s23.67.65,23.67,3.49,11.33,3.84,7.67,7.18-7.67,2.33-7.67,2.33c0,0-7.33,5.68-15.67,4.34s-26,1.57-26,1.57c0,0-51.67,3.44-53.67-1.57s-1-15.51,3.33-17.09-44,9.25-37,0,16.33-7.58,16.33-7.58c0,0-11.33-15.33,1.67-13.67s12.67,4,12.67,4c0,0,12.33-27,20-16.33Z"/>
  <path class="st1" d="M1455,409c-3,0-87-16-107-11s-47-12-53-11-20,10.98-20,10.98c0,0-30,4.02-38,4.02h-38c-9,0-4-2.04-24-4.02s-35-1.02-56,0-61,5.02-61,5.02c0,0-121-8.04-125-5.02l-4,3.02s-19-8-22-9-21-3-29-1-33,6.98-33,6.98c0,0-37-22.98-79-16.98s-160,7-197-6-87-25-141-18-69-29-81-48,6-20-36-25-106-6-136,0S-14.17,354.33-14.17,354.33l-9.83,13.67v367h1467l12-326Z"/>
  <path class="st2" d="M554.75,638.75s-10.5-9.75-24-6.75-13.5,6.75-13.5,6.75c0,0-8.25-9-13.5,0l-5.25,9s-7.95-3.75-12.23,0,8.78-14.65,0-16.32-14.03,8.41-14.03,8.41c0,0-12,6.67-12,8.41s-1.85,1.25-3.55,0-14.45.52-13.7,1.13-7.56,6.61-.03,11.86-23.55,3.75-23.39,10.5c.17,6.75,13.73-9,7.7-16.5s-13.16.75-16.72,5.25-18.56.32-20.06,6.53c-1.5,6.22,0,10.72,0,10.72,0,0,2.01-4.5,5.51-4.5s-9.95,10.5-13.73,17.25-.34-3.75-3.94-6-11.03-6.75-20.44,0-7.1.75-11.25.75-4.86-8.25-15.76.75-6.37-23.28-15.76-24.02-33.39.76-33.39,9.01-9,5.25-9,5.25c0,0-16.72-1.5-15.86,7.5l.86,9s-29.25-9-35.25,0-3.92,24.75-3.92,24.75l.79,12s307.63,9.49,308.38,5.5,27-96.25,27-96.25Z"/>
  <path class="st4" d="M-27.06,451.55s193.87-74.18,263.24-78.59,83.69,27.43,111.03,52.76,123.33,86.01,175.83,80.42,72,15,37.5,20.45-133.91,43.01-205.7,69.23-202.71,32.22-269.99,50.22-139.28,21-139.28,21l27.37-215.49Z"/>
  <path class="st3" d="M1083,339.33s1.33-8,8-8,8.67,2,8.67,2c0,0,38.67-1,40.67,0,0,0,12-3.33,15.33,2,3.33,5.33-1.67,7-1.67,7,0,0,10.33-2,13,0s-.67,7-6,6.67l-5.33-.33s10,3,6.67,8.33-6.33,4.33-6.33,4.33c0,0-7,5.33-10.67,2.33-3.67-3,3-9.17,3-9.17,0,0-3.33,2.16-5.33-.17s5.67,2.67,4,6-26.06-.67-21.53-6c0,0-26.14,4.66-29.8,0,0,0-17.33,4.66-17.33,0,0,0-11.33-1.34-10,0,1.33,1.34-26.57,13.34-24.95,2.67,0,0-25.71,2.66-24.71-2.67l1.67-5s-117.33-1-117.33-8.67,39-19,42-14.67,0,5.67,0,5.67c0,0,11-13.67,19.67-11.67s8.33,4,8.33,4c0,0,12.33-10.67,17.33-10l5,.67s-23.67-4.33-22.33-11l1.33-6.67s-21-1.33-20-4.67-11.33,3.33-6.67-3.33,9.67-1.33,9.67-1.33c0,0-1-5.6,5.67-7.8l6.67-2.2s-10.33-3-6-7l4.33-4s-30.67,4-33.67-7.67.33-13.33.33-13.33c0,0-23.33-11.67-16.33-18l7-6.33s-25-4.67-16.33-13,13-5.67,13-5.67c0,0,6.33-15.33,26.33-12s19,10.67,19,10.67c0,0,15.33-34.67,62.67-34.33s50,16.67,50,16.67c0,0,6.67-21.33,31.33-19s26.67,3,26.67,3c0,0-5-18.33,25.67-24,30.67-5.67,51,36.67,51,42v5.33s61-29.33,68.67-22c0,0,51.33-14.67,45.33,22.67s-20.67,38.33-20.67,38.33c0,0,39-9,42,.67s0,12.33,0,12.33c0,0,16.67,5.39,9.33,10.86-7.33,5.47-40.67,2.47-40.67,2.47,0,0-39.33,11.33-51.33,8.33s-3-7.33-3-7.33c0,0-28.67,2.33-26.33,4,2.33,1.67,21,2.33,16.67,9-4.33,6.67-49,9.53-49,9.53,0,0,2,7.47-14,5.47l-16-2s10.33,5-4,7.33c-14.33,2.33-28,1-28,1,0,0-2.33,17.33-19.33,19.67s-28,3.67-28,3.67c0,0,12.33-.67,5.67,6-6.67,6.67-18.33,2-18.33,2,0,0-15.33,18.67-.67,16.33Z"/>
  <path class="st5" d="M1015.67,241.67s31.33-7.67,58,1.67c26.67,9.33,18.67,16,18.67,16,0,0,29-4,36.67,10s0,13.67,0,13.67c0,0,2.33-29.33-44.67-19,0,0-11.33-23-68.67-22.33Z"/>
  <path class="st5" d="M1152.67,226.67s18.33-1.33,30.33,7.67l12,9s17.67-3,30-2,22.67-1.74,28-6.37l5.33-4.63s-13.33,8-27.67,6c-14.33-2-30.33-3.74-31.33-1.37s-10-22.97-46.67-8.3Z"/>
  <path class="st5" d="M1054,185.67s2.67-3,11.33,2c8.67,5,8.7,9.33,8.7,9.33,0,0,2.96-17.33-20.04-11.33Z"/>
  <path class="st3" d="M1289.67,377s-.67-3,5-2.33,4.33.33,5.67.67,17.33-13,20.33-6-3.67,10.67-3.67,10.67c0,0-11.67,1.67-9.33-1.33,0,0-25.33,6.67-18-1.67Z"/>
  <path class="st3" d="M1112,369s4.67-9.17,8.67-4.42l4,4.75s11-5.4,13.67-2.03c2.67,3.37,1.33,4.7,1.33,4.7,0,0,7.67-2.33,12.33-2.67s15-10,29.33-9.67,14,3.33,14,3.33c0,0,14-1.01,15,2.83l1,3.84s24.33-7.67,22.67-.33c-1.67,7.33-12.33,4.91-12.33,4.91,0,0-11.33,9.09-17.33,3.42s-1-8.07-1-8.07c0,0-25,6.59-22.67,0,0,0-15,10.79-30.67,9.93s-17.59-3.53-17.59-3.53c0,0-12.74,8.67-14.74,1.67s0-7.64,0-7.64c0,0-8.96,3.4-5.67-1.03Z"/>
  <path class="st3" d="M1055.33,378.33s5.33-9,11.33-6.67l6,2.33s7-7.4,10-6.7,3.33-9.97,10.33-5.63,7,6.72,5.33,8.36c-1.67,1.64,7.83,6.77.91,10.37-6.91,3.6-9.91-4.06-9.91-4.06,0,0-5.33,2.33-8,1.67s-11,5.05-13.67,3.36c-2.67-1.69-1.67-5.03-1.67-5.03,0,0-17.2,8.4-10.67,2Z"/>
  <path class="st3" d="M918,362.33s-7-5.31,0-6.32,10.67.99,10.67.99c0,0,27.33-9.64,29.33-.99s-3,8.57-3,8.57c0,0,19.67,1.14,17,5.45l-2.67,4.31s18.33-3,15.67,2-12.67,4.06-12.67,4.06c0,0-15.33,6.4-16,0s4.67-6.15,4.67-6.15c0,0-24.67,1.39-22.67-3.09s6.33-6.57,6.33-6.57c0,0-39.67,6.08-26.67-2.25Z"/>
  <path class="st3" d="M1230.67,302.33s-14.67-.33-4.33-5.33c10.33-5,16-5,16-5,0,0,10.67-7.67,17.67-6.67s8.33,2.33,8.33,2.33c0,0,30.67-13.27,33-7.8,2.33,5.47-13,12.13-13,12.13,0,0,2,1-13.67,4.33-15.67,3.33-20.33,3-20.33,3,0,0-34,6.67-23.67,3Z"/>
  <path class="st3" d="M1304.89,336.67s15.11-5.67,18.78-4.67,33-7.57,36-.12-12.67,10.12-19,9.79-7.33.05-16.67.03-11-2.03-11-2.03c0,0-15.88-.37-8.11-3Z"/>
  <path class="st3" d="M997.33,388c0-1-.33-8.2,2.33-7.6s3,1.28,3,1.28c0,0,5.67-4.95,7.33-1.31s-.67,5.97,0,5.97,14.33-2,11.33,1.67-11.79,1.67-11.79,1.67c0,0-17.57,6.42-12.22.54,0,0-15.32,2.12-9.99-1.54s10-.67,10-.67Z"/>
  <path class="st3" d="M1043.38,388.67s-1.05-4.62,1.95-2.81l3,1.81s10,4.71,3.33,5.02-5.67-3.63-5.67-3.63l-2.62-.4Z"/>
  <path class="st4" d="M733.33,538.33s54-12.67,79-13.67,50.33-3.33,58.33-4.67,31.67-16.33,39.67-15.67,20,1.33,20,1.33c0,0,29-5,35.67-5.67s11.67-5,11.67-5c0,0,25.67,10,32.67,10s17.67-1,19-1,14.05-1.67,14.05-1.67c0,0,25.62,13.33,42.29,14.33s39.15,15.33,46.74,18.33c7.59,3,62.93,6.67,93.59,21.33s56.89,12.67,95.44,23.33c38.56,10.67,115.22,39.33,115.22,39.33l6.33,3.33v112.67H396s57.33-48,96.67-66,58-40,70.67-49.33,94-33.33,111.33-41.33,58.67-40,58.67-40Z"/>
  <path class="st0" d="M920.75,532.25s6-2.25,10.75-3.5,7.75-2,14.75-8.5,29.25-5.5,33.5-6.25,7-3.75,16-4,47.63-7.67,47.63-7.67c0,0,18.37,14.25,29.37,14.96s22,2.71,27.5,5.21,23.75,12.5,23.75,12.5c0,0-17.5,22.75-36.25,25.75s-40.5,4.25-63,8.25-43.25,4.25-55.75-1.5-20.5-13.5-30.25-19.25-18-16-18-16Z"/>
  <path class="st0" d="M871.63,519.79s23.12-.54,32.12-4.04,28.47-10.41,28.47-10.41c0,0-21.47-5.18-27.47-3.01s-33.12,17.46-33.12,17.46Z"/>
  <path class="st0" d="M919.5,517c-.25,0,14-6.66,14.75-6.2s17.75-1.8,17.75-1.8c0,0-14.5,6-21,8s-11.5,0-11.5,0Z"/>
  <path class="st0" d="M907.5,537.13s17,13.62,21.75,17.12,9.5,6.5,8.75,6.75,7.25,4.75,7.25,4.75c0,0-80.75,4.09-96.5,6.17s-38,6.08-43,7.83,45.75-17.87,57-21.31,20.5-2.44,25.25-9.44,19.5-11.87,19.5-11.87Z"/>
  <path class="st4" d="M848.5,401s3.5,3.25,10.25,4.25,17.25.25,27.25,4.5,34.75,5,34.75,5c0,0-13-1.5-20.25-4.5s-.5-5.75-13.75-6.75-25.25-.75-27.25-2.5-4.27-5.09-4.27-5.09l-10.23,2.07,3.5,3.02Z"/>
  <path class="st4" d="M956.5,407.75c6.75-3,6.5-1.25,8.25-3.75s5.5-6.18,8.25-8.09,3.75-.16,7.75,4.59,8.25,8.75,9.75,9.5,9.5,2.75,9.5,2.75c0,0-2,3.75-6.75,2s-7.75-2.25-16.25-2.25-28.6,4.5-26.92,1.25,6.42-6,6.42-6Z"/>
  <path class="st4" d="M1032.75,427s9.5-2,24.5-1.75,39.75,3.75,49.75,4,10-.75,21.75.25,24,2.75,24,2.75c0,0-29.5,1.25-38.25,1.25s-13.75,2.25-20.5,1.5-13.25-4.5-26.75-3.75-25.75,2.25-25.75,2.25c0,0,23.75,2.75,19.75,4.25s-23.75,1.25-23.75,1.25c0,0,10.16,2.25,5.7,2.5s-68.7,1.25-64.95-2.5,8.75-6.25,15.5-6.75,19.25.54,20.25,1.27,2.03-2.27,7.76-2.27,6.99-.25,6.99-.25l4-4Z"/>
  <path class="st4" d="M953.5,428c6-3.25,6.5-8.5,12.5-5.25s7.25,5.5,16.75,5.25,22.25,5.52,22.25,5.52c0,0-27.5-1.77-34.5-2.27s-22.25-1.5-22.25-1.5l5.25-1.75Z"/>
  <path class="st4" d="M751.25,426.5c1.5,0,49-9.3,68.5-4.77s53.5,24.52,67,32.02,36.75,13.25,52.75,20.25,24,9.75,24,9.75c0,0-67-19.75-73-22.5s-29.75-18.75-45.5-23-28-2.96-34.25-4.73-10.75-4.52-18-4.52-58.75,5.79-53.5,4.52,12-7.02,12-7.02Z"/>
  <path class="st4" d="M868.25,487c1.25,0,6.75,4,14.62,7s11.88,3,9.88,3-15.25-2-19.5-5-5-5-5-5Z"/>
  <path class="st4" d="M852.75,438c.75-.25,33.25-5.75,48-8s38,7.5,36.75,8-21.5-4.75-34.5-2.75-41.5,8-41.5,8l-8.75-5.25Z"/>
  <path class="st4" d="M1273.25,417.25c2.69-2.29,2.25,0,7.25-8.75s7.25-26.27,14.75-25.26,29.25,11.55,37.87,15.15c8.63,3.61,20.63,9.11,34.63,13.11s23.75,4.25,20,5.75-35.75,5.95-50.5,4.48-14.5-3.73-25.75-2.48-17.25,2.7-24.25,2.48-17.72-1.31-14-4.48Z"/>
  <path class="st4" d="M1275.25,423.5c8.75-5.75,12-9.57,19.25-8.28s5.95,1.87,12.47,4.58,15.03,3.16,9.28,5.43-21.83,1.27-27.92,1.02-13.08-2.75-13.08-2.75Z"/>
  <path class="st4" d="M1203.75,416.75c-6.98-5.48-1.5-11.53,3.25-14.14s5.75-5.36,11.25-4.36,7.5,2.25,7.5,2.25c0,0,9.52-3.98,14.26,1.39s2.99,8.61,2.24,9.11,17.75,1.75,15.25,5.75-4.86,4.65-14.31,4.08-21.69,2.42-21.69-1.08v-3.5s-14.25,3.25-17.75.5Z"/>
  <path class="st4" d="M1183.25,420.83c3.25-2.83,9.25-8.08,11.5-4.33s4.75,4.3,1,5.52-12.5-1.2-12.5-1.2Z"/>
  <path class="st4" d="M1130.5,408.75c-3.02-10.07,12.75-.25,22.25,0s30.5-.29,30.5-.29c0,0-52,2.79-52.75.29Z"/>
  <g>
    <path class="st3" d="M408.07,159.58s5.02,28.21,21.94,33.23c16.93,5.02,34.48,0,34.48,0,0,0-3.76,7.52,11.28,7.52h26.33s15.67,13.16,31.34,12.54c15.67-.63,17.55.02,17.55.02,0,0,29.46,11.89,47.64,13.77,18.18,1.88,12.54,10.03,23.19,10.03s45.76,6.27,50.78,0l5.02-6.27s8.78,8.15,21.31,0c12.54-8.15,13.79-15.67,13.79-15.67,0,0-11.28,12.54,8.15,19.43l19.43,6.9s-23.82,14.42,9.4,20.69c33.23,6.27,53.91-6.9,53.91-6.9,0,0,10.03,4.39,21.94,1.88l11.91-2.51s56.42,10.03,59.55-6.9c3.13-16.93-63.32-11.91-63.32-11.91,0,0,11.91-8.15-4.39-8.78-16.3-.63-34.48,5.64-34.48,5.64,0,0,3.13-15.86-7.52-20.78-10.66-4.92-18.81-9.31-18.81-9.31,0,0,13.79-7.52,8.15-19.43s-6.9-16.3-6.9-16.3c0,0,16.3,4.39,24.45-1.25l8.15-5.64s11.91,8.15,25.08-2.51l13.16-10.66s54.54,18.81,82.75-12.54c28.21-31.34,51.4-110.33-17.55-128.51-68.96-18.18-115.97,102.18-115.97,102.18,0,0-1.25-7.52-20.06-3.13l-18.81,4.39s25.7-50.15,13.79-61.43c-11.91-11.28,8.15-43.88-24.45-33.85-32.6,10.03-11.91,30.72-11.91,30.72,0,0-11.28-5.64-15.05,7.52s.63,22.57.63,22.57c0,0-32.6.63-23.82,23.82,8.78,23.19,26.96,31.97,26.96,31.97,0,0-15.05-6.9-15.67,20.69l-.63,27.58s-6.27-13.79-27.58-7.52l-21.31,6.27s4.39-50.78-31.34-51.4c-35.73-.63-38.87-.63-38.87-.63,0,0-23.82-19.43-40.12-18.81-16.3.63-67.7-59.55-90.27-35.11-22.57,24.45,37.61,45.14,45.76,35.11,0,0,30.09,32.6,50.15,34.48,20.06,1.88,28.84-1.25,28.84-1.25,0,0-28.21,6.27-26.33,16.3l1.88,10.03s-35.11-45.14-66.45-42c-31.34,3.13-33.85,15.67-33.85,15.67,0,0-26.33-45.76-47.02-31.34-20.69,14.42,3.76,51.4,3.76,51.4Z"/>
    <path class="st3" d="M656.95-1.53c1.47-1.17-23.19,52.66,0,47.02,23.19-5.64,16.59-23.3,16.59-23.3,0,0,5.35,11.18,12.88,0,7.52-11.18,7.52-18.69,7.52-18.69,0,0,47.02,6.89,58.3-10.67,11.28-17.55,8.78-30.72,8.78-30.72h-122.24s-3.76,53.91,18.18,36.36Z"/>
  </g>
  <path class="st3" d="M688.74,89.4s-57.65-64.38-44.15-85.39-5.83-41.9-5.83-41.9h324.73s7.92,103.38-18.25,109.38-64.49,4.5-64.49,4.5c0,0-62.17,51-107.17,51s-115.69-7.69-84.84-37.59Z"/>
  <path class="st3" d="M104.62,253.86s-4.5-21.05,16.5-15.16,15,22.15,15,22.15c0,0,21-2.76,15,9.24-6,12-22.91,8.45-22.91,8.45,0,0-25.09,15.95-37.08,0s13.5-24.68,13.5-24.68Z"/>
  <g>
    <path class="st2" d="M1102.94,460.53s-2.24-.26-4.38,0-4.12,2.77-4.96,2.82.89-3.13,3.08-4.28,7.31-1.46,8.3-1.41,1.25-7.72,1.25-7.72c0,0-.78-2.71-.31-3.44s2.19-1.41,2.87,0,.35,3.71.35,3.71l-.3,4.31,3.29,3.15s9.29,1.67,9.08,6.73c0,0-.57.47-.99-.21s-5.85-3.44-8.09-3.44l-2.37,14.86.43.68s1.2,1.06.42,1.16-2.45.42-2.51,0-.05-1.72-.05-1.72l-1.46-.05s.31,1.94-.42,1.99-2.87.21-2.77-.37,1.62-2.45,1.62-2.45l-2.09-14.3Z"/>
    <path class="st5" d="M1106.23,449.93s-.78,4.49-1.46,5.32-2.19,2.19-2.77,6.16c-.57,3.97-1.04,12.58,2.77,14.2s6.16.31,7.36-4.18c1.2-4.49.63-11.8,0-13.78-.63-1.98-2.04-2.3-2.45-3.81s-.57-3.76-.57-4.54-.26-1.67-.26-1.67l-2.61,2.3Z"/>
    <path class="st2" d="M1109.19,449.57s-2.92.61-3.06,0,1.17-2.35,1.17-2.35h1.74s.17,2.1.16,2.35Z"/>
  </g>
  <path class="st1" d="M-60.37,503.83c7.5-4.25,12-31.42,115.49-60.58s134.99-49.26,163.49-45.21,36.3-9.06,89.39,20.74c53.1,29.8,113.1,79.24,146.09,83.02s160.49,16.09,160.49,16.09l-790.46,204.94,115.49-219Z"/>
  <path class="st2" d="M-10.35,408.22c2.39,2.44,2.26,3.3,2.26,3.3,0,0,.85-2.32,2.08-2.32s1.95.67,1.95.67c0,0,4.88-3.85,6.71-2.87s1.22,2.18,1.22,2.18l4.27,2.34s1.22-2.08,1.83-.85.98,2.93.98,2.93c0,0,3.17-2.81,4.52-2.81s4.88-3.17,5.49-1.83,1.71,2.2,1.71,2.2c0,0,2.44-2.23,5.13-.93s3.66,2.15,3.66,2.15c0,0,3.05-3.21,3.91-2.15s1.95-1.75,4.03-.53,4.03,3.17,4.03,3.17l4.15.12s3.91-2.2,5.49-2.2h1.59s1.22-.89,3.91-.57l2.69.32s.73-3.05,4.88-2.08,7.14,6.47,7.14,6.47h2.38s2.44-9.03,5.25-8.67,3.66,1.46,3.66,1.46c0,0,.85-2.93,3.66-3.05s3.05.61,3.05.61c0,0-.61-1.71,0-1.95s5.25,1.1,5.86,4.64l.61,3.54,3.66,1.46,1.34-5.61s-1.46-3.78.61-3.42,5.61,5.17,5.61,5.17c0,0,1.34-2.12,3.66-1.15s2.69,1.15,2.69,1.15c0,0-.98-2,1.59-1.63s3.54.37,3.54.37c0,0,1.59-.37,2.32.49l.73.85s.98-3.91,3.66-3.91,4.76,6.47,4.76,6.47l4.27-1.59,2.08,1.22s3.05-2.32,5.37-.98l2.32,1.34s2.2-.37,3.3.12-1.1-2.56,2.69.24l3.78,2.81s.85.37,4.88,1.83,4.76,2.2,4.39,3.91,1.34,4.52,1.95,6.23c0,0,13.06,1.95,13.79,5.13l.73,3.17s-.98-4.39,1.83-5.13,5,4.76,4.76,5.13,1.59-.98,1.71,1.34,0,2.93,0,2.93c0,0,2.32-2.69,6.47,1.71s2.44,9.15,2.44,9.15c0,0,4.76,7.2,5.37,9.77s5.37,5.13,3.66,6.1-5.74,0-5.74,0c0,0-5.61.73-6.23,1.71s-19.29,5.25-25.88,6.71c-6.59,1.46-11.96,4.15-15.62,4.03s-11.11-1.46-11.84-3.42-1.71-3.91-1.71-3.91c0,0,1.71,8.42-3.3,12.21-5,3.78-17.21,1.83-17.21,1.83,0,0-15.5-2.2-16.84-6.1s-1.34-5-1.34-5c0,0,.98,10.86-6.59,9.52-7.57-1.34-8.42-2.69-8.42-2.69,0,0-7.93,3.78-12.57,2.81s-13.43,1.95-14.77-1.59c0,0-9.15,3.54-11.47-2.69s-1.95-7.81-1.95-7.81h-2.69s2.32,11.35-2.44,11.35-8.42-4.03-8.42-4.03c0,0-4.27,6.1-8.79,4.52s-4.39-2.93-4.39-2.93l-4.39.24s-8.91,3.17-10.99,1.1-2.32-4.88-2.32-4.88c0,0-9.4-3.42-9.77-3.54s-2.39,2.44-2.39,2.44v-67.87Z"/>
  <path class="st0" d="M125.47,482.12s3.01-12.36,7.48-5.47-3.14,8.66,4.47,6.89,6.94,2.51,8.96,3.39,8.98,3.81,8.71,9.05-33.73,3.92-33.73,3.92c0,0-8.54-27.06,4.12-17.78Z"/>
  <g>
    <path class="st2" d="M314.59,529.07s1.11,1.29,1.93,1.76,4.4.18,5.1,0,4.75-14.42,4.75-14.42c0,0,.53,1.58.53,2.76s-.41,3.22.53,3.17,1-6.74.76-9.15-2.76-6.16-2.76-6.16c0,0-5.22-9.97-5.22-10.26s.12-4.4-.88-5.69-3.75-1.41-4.34,1,.35,3.93.35,3.93c0,0-.29,1.17-.76,1.64s-2.58,1.7-3.46,4.4-2.05,7.74-2.4,11.84-1.11,9.44-.47,9.44,1.52-1.41,1.52-1.41l4.81,7.15Z"/>
    <path class="st5" d="M321.51,498.12s2.29.76,2.81,2.05,2.11,8.79,2.17,11.61c.06,2.81-.47,11.2-1.47,13.19s-1.64,5.39-2.52,5.63-.35-1.64-1-2.7-3.81-1.11-4.16-.53-.09,2.65-1.63,2.85-3.65-.03-4.7-3.32-1.29-16.53-.82-18.82-1.47-6.04,4.4-10.44l.76-1.64s1-.47,2.05-.53,2.8-.3,2.79-.53.67,2.35.79,2.53.53.64.53.64Z"/>
    <path class="st2" d="M331.95,495.89s-.47-2.4,1.23-3.05,2.4-.64,2.4-.64c0,0,0-4.05.76-4.98s2.05-1.52,3.11-1.29,2.7.7,2.7.7c0,0-1.35.06-1.58.41s.59,3.06.76,3.84,2.05,5.01,2.05,5.01c0,0,1.88-3.63,1.82-3.87s-.47-3.17.94-2.99,3.34,2.58,3.46,3.58,2.76,2.76,3.4,10.08-1.58,15.01-1.58,15.01c0,0,3.11,3.46,4.16,4.22s1,1.93.23,2.29-1.93.29-1.93.29c0,0-2.35,2.93-4.05,3.75s-1.41,1.23-3.05,1.06-12.6-5.16-12.6-5.16c0,0-1.99.35-2.29-.12s-4.22-3.4-4.28-4.69-1.23-9.91-.7-12.25,1.23-6.98,2.7-8.44c1.47-1.47,2.35-2.76,2.35-2.76Z"/>
    <path class="st5" d="M336.34,488.62c.18-.06,1.29-1.64,1.47-1s.06,1.52.59,1.47,2.36-.45,2.36-.45c0,0,1.4,4.43,1.68,5.09s1.14,1.76,1.14,1.76c0,0,1.46-2.93,1.54-3.2s-.04-1.91.31-2.12,2.23,1.79,1.99,2.61-.12,1-.76,1-1.58,4.4-2.11,5.8-.18,2.17-.18,2.17c0,0-.94,5.16-.76,6.39s1.35,2.93,1.99,2.76.94-.64.94-.64c0,0,.8.03.9.66s0,2.51,0,2.51c0,0-4.42-.41-4.65-.64s-.88-3.52-.88-3.52c0,0-.88,4.51,1.76,3.22,0,0-.64-.12-2.58.29s-4.51,2.76-5.39,4.05-2.52,4.63-1.58,5.28,2.05-1.7,2.93-1.17,2.11,3.63,2.81,4.4,1.19,1.29,1.71,1.58,3.2,1.77,3.2,1.77c0,0-6.25.22-7.6-.54s-2.64-3.81-3.05-4.28.06-1-.76-.88-1.41,1.47-3.05.76-2.37-3.62-2.37-3.62c0,0-.08-12.74,0-14.03s.55-5.86,1.78-6.92,2.58-3.11,2.76-3.11,3.63,1.23,4.69.35.53-1.99.53-1.99l.94.18s-.59-1.11-.59-1.41,1.23-2.35.64-2.7-1.93.41-1.93.41l-.41-2.29Z"/>
    <path class="st5" d="M352.52,521.22s-1.41,3.05-1.99,4.1,0,2.5,0,2.5c0,0,1.99.02,2.81-1.16s.82-5.57-.82-5.45Z"/>
    <path class="st0" d="M361.38,497.83s-1.82,1.7-2.23,4.81-1.88,13.95-.94,15.71,5.86,3.17,7.62,3.28,3.99-.18,4.51-.94.64-1.76.64-1.76c0,0,.41-2.05.7-2.93s-.76-13.54-1.7-15.71-1.64-3.63-2.52-4.92-2.46-2.7-4.1-1.93-2.4,3.52-1.99,4.4Z"/>
    <path class="st2" d="M417.48,496.3s-.53-4.34,1.23-4.69,3.34-1.06,3.75,2.35c.41,3.4.7,4.34,1.23,4.57s1.17-.12,3.34,4.69c2.17,4.81,2.05,17.53,1.82,18s-.64.53-.64,0-.53-2.64-.53-2.64c0,0-2.05,11.49-2.58,11.9s.53.94.06,1.17-3.81.94-3.87,0,.18-1.52.18-1.52l-4.06-.23s.6,1.11.43,1.23-4.1.53-4.16-.23.41-1.88.41-1.88l-2.11-11.96s-1,4.05-1.29,3.4-.06-7.8.53-10.49,2.52-9.32,3.58-10.96,2.7-2.7,2.7-2.7Z"/>
    <path class="st5" d="M418.71,496.3s3.88-.36,4.22.7.41,1.05.76,1.52,1.58,1.23,2.7,6.45,1.64,21.28-1.29,25.5c0,0-1.67.98-2.7.47s-.94-.82-.94-.82c0,0-3.26.53-4.06-.23,0,0-2.97,1.11-3.33-.88,0,0-1.76-9.15-2.11-11.96s.35-7.62.94-9.5,1.52-3.93,1.76-5.63,2.17-5.86,4.05-5.63Z"/>
  </g>
  <g>
    <path class="st2" d="M-7.31,488.93s2.35-2.85,4.58-2.72,7.8,1.36,7.8,1.36c0,0-2.23,1.12-2.97,1.36s-.74,1.98-1.11,2.23,1.86,3.22,1.86,3.22c0,0,1.73-.99,4.46.5s3.09,2.48,3.09,2.48c0,0,1.73-5.2,1.98-5.57s-.99-3.96,2.23-3.71,1.61,2.48,1.73,2.97,2.48,2.97,2.72,3.96l.25.99,2.97.37s.74-3.22,1.36-3.47.74-3.71,3.09-2.48,1.73,2.72,1.73,2.72c0,0,1.86.74,2.1,2.23l.25,1.49s2.23,1.61,2.97,2.6,1.11,2.6,1.11,2.6c0,0,.74-4.58,3.34-4.33s3.22,1.11,3.22,1.11c0,0,1.73-2.23,3.47-.99s.74,2.72.74,2.72c0,0,2.23,3.09,2.23,3.47s5.57,1.86,6.68,2.85,5.57,1.24,6.31.5-.12-6.93,2.23-8.29,4.83-3.16,6.81-2.08,1.49,2.2,1.11,2.2-1.36.25-1.36.25l2.23.74s.99-1.61,2.85-2.6,2.48-.59,2.48-.59c0,0,1.98-4.98,4.58-3.25s1.98,3.25,1.98,3.25c0,0,3.96-4.86,3.71-5.85s1.98-5.2,3.59-2.6,1.61,4.83,1.61,4.83c0,0,5.32-.87,6.06.5s.99,3.84.99,3.84c0,0,2.85-1.98,2.85-2.35s.74-4.33,2.85-2.85,2.48,2.97,2.48,2.97l1.36,1.51s3.34-3.74,2.48-4.36-3.34-2.72-3.34-2.72h3.49s1.71-1.61,3.94-.5,2.35,1.61,2.35,1.61l3.22,2.97s3.59-2.1,7.18-.74,3.71,5.2,3.71,5.2l2.48.62s3.71-6.81,3.34-7.67-1.61-5.33,1.61-5.2,2.72,5.94,2.72,5.94l3.09,3.84s2.6-4.7,5.2-4.95,2.35.37,2.6-.25,2.48-4.83,3.59-5.57,1.73-4.21,5.2-2.72,3.84,3.47,3.84,3.47c0,0,.62,2.85.99,5.82s0,4.83,0,4.83c0,0,1.73.37,2.97.74s4.46.99,4.83.99,2.97-.5,4.33.12,4.21.62,4.7.62,2.23-.25,6.19.5,4.83,1.49,4.83,1.49c0,0,2.23.12,3.59.12s6.19,1.61,6.19,1.61c0,0,2.35-1.11,5.69,2.23s3.34,9.65,2.85,10.15-6.56,1.86-9.16,1.73-6.44-.97-8.66,0-9.9.86-14.73,1.35-26.49,1.36-27.48,0-2.48-2.48-4.7-2.23-1.49.25-9.16.5-4.46-.74-11.14.12c-6.68.87-11.14,2.72-15.72,1.36s-4.83-1.73-5.32-1.73-8.04.99-12.5.5-4.08-.87-10.4-.5c-6.31.37-9.53,1.49-17.95,1.11-8.42-.37-7.67,3.47-19.68,3.09-12.01-.37-31.44-2.48-31.44-2.48,0,0-4.95,2.72-6.44,4.08s-7.55,2.1-14.23,2.1-5.07-15.84-5.45-15.84-8.04,7.43-6.56,3.34,5.07-14.36,7.18-16.21,3.09-6.56,3.09-6.56Z"/>
    <path class="st5" d="M88.49,493.63s1.73.25,3.47,4.83,1.61,13.74,1.11,14.85-8.54,3.84-10.89-1.24,4.33-20.25,6.31-18.44Z"/>
    <path class="st5" d="M99.01,512.32c.54-2.68.5-13.99,3.71-15.35s6.06,1.73,6.06,1.73c0,0,2.6-3.89,4.33-5.22s7.18-2.23,8.79,9.42,2.1,14.12-3.71,14.62c-5.82.5-9.78-1.86-9.78-1.86,0,0-10.89,3.96-9.41-3.34Z"/>
    <path class="st5" d="M69.93,503.16s-3.34,12.13-1.61,11.88,4.46-13.73,1.61-11.88Z"/>
    <path class="st5" d="M39.97,512.07c.13-.54,2.56-6.35,5.82-6.92s7.67,1.97,7.05,2.96-1.61,1.61-1.61,1.61c0,0,1.36,5.32-2.1,6.81s-10.15-.5-9.16-4.46Z"/>
    <path class="st5" d="M140.6,492.72s-4.08,9.54-3.22,11.54,2.35,3.11,1.73,5.33.12,6.93.12,6.93c0,0,8.54.5,9.16-.5s11.76,1.73,14.98-1.98,5.39-24.19,3.01-26.02c0,0-4.37.71-5.48,0s-5.45,4.61-5.82,7.95,0,9.53-1.49,10.89-2.1-2.75-2.72-2.61-4.83-15.29-10.27-11.54Z"/>
    <path class="st2" d="M218.57,511.45c0-.5,0-1.86.87-3.09s.5-8.54,4.21-9.41l3.71-.87s3.34-10.27,4.83-10.64c0,0-.12-3.84,2.48-4.21s4.83,0,4.83,0l-.99,1.24s1.36,2.23,1.86,5.32.5,3.71.5,3.71l6.68.12s-1.36.25-1.61,1.61-.25,2.02-.25,2.02c0,0,4.83,1.44,4.58-1.16s0-7.49,1.11-8.14,2.35-.77,2.85-.77,9.16-3.34,10.52,1.61,1.98,9.53,1.98,9.53c0,0,4.83-.37,5.69.87s3.59-1.36,5.07-.25,3.09,6.19,3.09,6.19c0,0,.37-11.02,3.84-12.25s10.52,3.34,11.14,6.44c0,0,2.23,1.24,3.47.74s4.08-4.13,6.56-2.81,2.23,3.3,2.23,3.3c0,0,5.32,1.98,6.06.74s9.65-9.78,11.14-11.51,2.23-4.33,4.83-3.09,3.47,2.48,3.22,3.09,2.48,3.22,2.35,4.95c0,0,4.13-4.41,4.7-5.57.37-.74.5-4.83,2.85-2.97s1.86,4.58,1.86,4.58c0,0,2.35,6.31,2.48,8.91s5.57-1.36,3.84,5.2-11.02,12.75-14.36,12.62-.5,4.58-6.93,5.69c-6.44,1.11-11.26,4.33-14.23,0s-2.23-7.55-2.6-7.55-5.57,2.97-9.53,2.23-3.47-.62-7.67-.5-8.42.25-18.19-1.36-15.1-1.73-15.47-1.61-13.12,1.49-18.44.99-2.85-.5-11.63.25-13.49-4.21-13.49-4.21Z"/>
    <path class="st5" d="M332.81,513.68s.5.5,2.23,0c0,0,9.9.25,10.89-2.23s1.24-16.58-1.11-18.19-5.23-.74-7.19,1.98c0,0-3.57-5.2-6.79-4.33s-4.95,6.93-4.95,8.42v1.49s-7.18-1.23-9.16,2.35-1.97,16.27-.74,18.93,13.61.99,14.36-2.23,2.48-6.19,2.48-6.19Z"/>
    <path class="st5" d="M234.54,486.95s6.19-.74,6.93,7.8c.74,8.54-.65,17.78-4.58,19.31s-9.18-2.54-8.79-10.89,5.34-16.25,6.44-16.22Z"/>
    <path class="st5" d="M256.69,487.97s3.96-2.51,4.08,4.43c.12,6.93-2.1,12,0,14.72s3.47,1.99,3.09,4.09-5.45,4.7-9.16,2.48-5.69-8.24-4.58-13.03,3.09-8.38,3.09-8.38c0,0,.99-6.25,3.47-4.3Z"/>
    <path class="st5" d="M289.61,498.58s2.35,2.72,1.11,7.67-3.71,8.66-3.22,9.16,4.33,1.49,5.69.5,8.42.99,9.16-2.35,3.09,3.48,4.7.81.99-15.24-1.11-13.72-4.33,7.34-4.33,7.34l-5.82-3.75s2.85-12.22-6.19-5.66Z"/>
  </g>
  <g>
    <path class="st5" d="M465.41,581.16s1.02,2.19,2.39,2.78,4.92,2.14,8.47,2.34,5.36-.29,6.23-.73,4.09-5.01,3.75-5.7-1.27-2.58-2.92-3.12-15.19,1.56-15.19,1.56l-2.73,2.87Z"/>
    <path class="st2" d="M456.69,583.15s.34-.88,1.22-.93,4.58-2.34,5.75-2.97,1.95-.83,1.95-.83c0,0,1.66-4.97,5.55-6.57s8.71-.97,11.93,2.48l2.48,3.8s4.09,1.9,6.82,3.12,3.41,1.66,4.53,1.9.49,1.66-1.27,1.51-5.99-2.77-6.67-3.19-1.41-.8-1.41-.8c0,0,1.07,1.02,1.22,2.09s-.1,1.29.19,1.91,1.41,3.06,1.41,3.06l-2.63-1.42s.93,2.39.63,2.39-2.04-2.01-2.58-2.39-2.53-1.55-2.87-1.6-1.61-2.53-.83-3.24.73-.55,2.04-.8,1.66-.98,1.17-1.37-1.8-1.46-3.31-1.17-3.51,1.17-3.02,1.36,2.09.79,1.75,1.17-6.48.73-7.3.8-1.02.02-1.8-.22-1.75-.14-2.58-.58-1.02-.81-1.02-.81c0,0-4.58,3.24-6.82,3.83s-4.48.24-4.53-.54Z"/>
  </g>
  <g>
    <path class="st5" d="M307.28,510.88s-1.86,6.97-1.06,15.28,1.06,12.99,2.61,14.69,3.89,3.35,3.89,3.35c0,0-1.76,1.6-.43,1.76s4.52-.59,5.8-.85-.64-36.46-.64-36.46l-6.92-4.52s-2.79-1.81-5.36.53,0,5.27,0,5.27l2.11.96Z"/>
    <path class="st2" d="M305.42,507.2s1.65-.43,2.18.53.43,3.09-2.18,4.52-.25,0-.25,0c0,0-2.36,2.4-2.52,3.57s-.32,2.34-.48,2.34-.69-1.44-.48-3.73.38-4.21-.05-5,.9-3.14,1.86-4.15,3.27-3.57,6.74-1.33c0,0,3.43.05,5.24,1.33s6.23,5.75,6.92,12.88-.8,23.63-.43,24.33,3.94,2.29,3.03,2.61-7.53-.19-7.67,0-.05-3.41.16-4.58,1.12-5,.48-5.38-1.92-.37-2.24-1.38.27-3.94.27-3.94c0,0-2.4-7.19-.75-11.66,0,0-1.28-3.73-.8-5.43s-.37-5.54-1.65-5.96-4.15.27-4.15-.16,2.61-1.33,2.61-1.33c0,0-2.76-2.13-3.86-1.78s-4.18,3.16-1.99,3.69Z"/>
    <path class="st2" d="M306.8,543.72s4.21,2,5.14,2.13,1.05-1.44.77-1.65-4.9-1.54-5.91-.48Z"/>
    <path class="st0" d="M297.43,520.08c0,.16-.69,2.98.96,5.86s3.41,3.67,3.17,5.75-1.3,3.19-1.3,3.19c0,0,.96,1.86-.21,4.68s-.64,5.59-2.5,5.64-2.82-.32-2.82-.32c0,0-1.7.69-3.25.59s-3.94-6.28-3.73-8.68,2.87-9.16,3.41-10.81.53-2.56.53-4.5.96-4.23.96-4.23l4.79,2.82Z"/>
    <path class="st4" d="M295.68,520.14s1.33.05,1.76-.05.63-3.26.3-3.69-2.8-.94-2.8-.94l-1.81,1.44s.47,4.14,2.56,3.25Z"/>
    <path class="st2" d="M295.2,520.3s-.8.85-1.49.37-1.54-2.66-1.06-3.89,2.02-2.4,3.46-1.7c.7.34,1.22.72,1.5,1.09.3.4.32.79,0,1.09-.64.59-2.08.64-2.18,0s.79-1.28-.24-1.28-1.58.75-1.44,1.92,1.47,2.4,1.47,2.4Z"/>
  </g>
  <g>
    <path class="st5" d="M369.08,494.74s1.35,13.57,4.67,19.39c3.32,5.82,10.29-5.1,10.29-5.1l.43-10.68-1.44-5.87s.82-.53,1.44-.43,4.14.1,5.15-.29,3.03-1.64,4.76-1.78,3.94.34,3.94.34l-2.16-3.03s-3.85-.82-4.86-.82-4.71,1.35-5.2,1.59-3.13,1.25-3.13,1.25c0,0-7.07-4.47-7.22-4.47s-4.28-.96-5.05-.43-2.84-.43-3.17-.43-2.41.48-2.36.91,0,1.3.43,1.44,2.07.29,2.07.29l1.4,8.13Z"/>
    <path class="st2" d="M371.92,487.96s-.1,1.35-.34,1.68-1.49,4.14-1.78,4.67-1.11,3.94-.91,4.57c0,0-.77-3.51-1.06-3.9s-1.54-3.08-1.59-4.14.96-3.9.96-3.9c0,0-2.26.14-2.36-.77s.1-2.18,1.73-2.45,4.01.83,3.65.83-2.15-.2-3.21-.2-1.73,1.11-1.25,1.44,1.78.43,1.78.43c0,0,.67-2.07,3.66-2.26s7.6-.43,10.34,1.97c0,0,1.57,2.16,1.4,2.69,0,0,7.22-2.5,7.99-2.5s4.95.1,7.07,1.83,1.97,2.36,1.25,2.6-3.43-.7-5.68-.14-5.29,2.02-6.54,2.07-2.69.05-2.84.05-1.91-1.25-1.91-1.25c0,0,4.84.72,6.19.38s4.67-1.97,6.4-1.97,2.84.53,2.5,0-3.89-3.34-6.35-2.93-7.7,2.36-7.65,3.03,1.44,4.23,1.59,4.62,1.35,6.64-.24,15.15c0,0,.14,8.61-.19,8.9,0,0,2.16,2.02,1.68,2.07s-14.24.63-14.24.43.72-.82.72-.82c0,0-1.01-.34-.67-.53s11.83-14.58,11.59-17.8-2.26-10.53-4.52-12.84-5.53-1.88-5.96-2.36.58-1.64.58-1.64c0,0-3.27-1.25-3.32.63s.43,3.37.77,3.13.77-.77.77-.77Z"/>
    <path class="st0" d="M377.21,506.39s-.34-3.51,1.35-4.71,5,3.99,5,3.99c0,0,.87,6.69.63,8.27s-.1,6.09-.72,7.06-1.64.83-3.61.87-7.99.34-7.36-.53.61-4.87.87-6.16,1.49-5.1,2.12-6.16,1.73-2.65,1.73-2.65Z"/>
    <path class="st2" d="M382.69,505s-2.45,1.67-2.84,1.14-1.78-3.85-1.11-4.91c0,0,1.15-.96,3.01-.19s2.47,1.88,2.47,1.88c0,0,.97.57.68.58s-2.21,1.5-2.21,1.5Z"/>
    <path class="st1" d="M380.91,504.13c.05-.19.35-2.42,1.36-2.31s1.33,1.3,1.24,1.68.34,2.6.05,2.17-1.78-.27-2.26-.66-.38-.88-.38-.88Z"/>
  </g>
  <path class="st2" d="M38.55,479.88c-.99,0,2.64,3.57-2.31,4.09s-6.6,1.96-7.92,1.9-7.59,4.25-10.23,2.09-17.15-3.2-22.43-4-6.01-7.88-6.01-7.88c0,0,12.94-21.95,18.88-21.95s32.66,25.73,30.02,25.73Z"/>
  <path class="st2" d="M84.4,479.88s5.28,4.87,0,7.05-9.57,1.21-10.56.54-.51,3.11-6.03,2.71-7.5-1.05-7.5-2.21-3.95,8.23-7.42,5.51,0-6.55,0-6.55c0,0-6.1.21,0-7.05s31.5,0,31.5,0Z"/>
  <path class="st2" d="M23.9,483.66c2.99-3.23,18.32,7.94,15.02,9.06s-.7,4.09-4.02,9.32-52.67.3-52.67.3l3.6-93.07,6.09,2.25,31.98,72.14Z"/>
  <path class="st5" d="M126.91,456.86s6.04,6.78,6.04,11.48-11.41-10.88-6.04-11.48Z"/>
  <path class="st2" d="M22.5,511.73s17.12-2.89,16.41,6.16,7.48,9.94,7.48,9.94l3.8,2.79s-2.07-4.88,8.67,1.51,9.92,8.57,19.01,5,1.65-6.88,9.09-3.57,4.59-1.83,6.43,5.29,8.45,7.14,8.45,7.14c0,0-4.13-11.89,3.31-8.85s14.9,8.85,14.9,8.85l2.45,8.24,2.96,9.92s-.3.83,3.74,0,8.61,4.29,8.05,6.89c-1.53,7.16-4.31,15.29-4.31,15.29,0,0,9.91,6.75,3.86,11.7s-18.45-9.31-18.45-9.31c0,0-4.95,4.36-14.87,6.01s-10.1-1.65-10.1-1.65c0,0-22.41,1.65-25.57,2.48s-30.44-.83-37.88-.83,3.31-13.24,3.31-13.24c0,0-15.62,14.89-18.96,10.76l-3.35-4.13s-17.16,15.32-25.11,10.96-3.4-87.36-3.4-87.36l40.08.03Z"/>
  <path class="st5" d="M63.81,471.36s-.7,11.79,4.01,10.77,6.58,5.37,11.58,1.56,2.84-12,0-12.33,1.13-12.94-8.24-8.31-7.36,8.31-7.36,8.31Z"/>
  <path class="st5" d="M8.09,491.3s8.06,22.93,0,24.15-4.28-24.62,0-24.15Z"/>
  <path class="st0" d="M117.51,469.22s-7.38,4.32,0,7.43,5.09-14.21,2.55-13.61-2.55,6.18-2.55,6.18Z"/>
  <path class="st0" d="M152.32,463.04c2.1,3.29,1.43,10.18,4.79,10.42s4.03-9.71,0-11.44-4.79,1.02-4.79,1.02Z"/>
  <g>
    <path class="st5" d="M43.91,601.16c-.37.12-5.75,1.5-6.06,2.87s-1.06,3.44-1.25,3.69-3.44,3.69-3.69,5.62-.37,3,.56,3.25,3.87-.37,5.87.31,22,2.56,26.81,2.75,9.5-3.06,9.94-4.69-.31-4.81,0-6,.56-11.37-.62-12.19-3.19-.81-3.81-.25-3.31,4.81-3.56,4.81-24.19-.19-24.19-.19Z"/>
    <path class="st2" d="M37.66,610.41s-3.06.87-3.12,2,1.06,2.31,5.94,2.06,10.87-3.75,10.87-3.75c0,0,5,.81,9.31.75s9.56-2,9.5-2.62-1.25-1.56-1.44-1.56-1.06-.75-1.06-.75c0,0-.12-3.44.94-3.5s1.81,1.44,2,2.37-.19,2.19.25,2.81,4.11,1.46,5.18,1.26c0,0,.7-1.21,1.26-1.58s2.81-2.56,3.75-2.68,2.87.06,2.87.06c0,0-1.94-1.31-3.06-1.56s-2.31-1.31-2.31-1.31c0,0,4.25-2.5,6.06-2.19s2.56.69,2.56.69c0,0-.37-1.06-1.37-1.62s-2.62-.09-3.12-1.2-2.44-2.99-4.56-3.11-6.06,1.17-6.06,1.17c0,0-12.62-2.61-19.37-.86-6.75,1.75-9.56,5.31-11.5,5.75s-2.44,0-3.44,1.06-1.54,3.43-.27,3.37,2.4-2.56,3.58-2.93,1.75-.69,1.75-.69c0,0-4.25,3.94-4.44,5s-.69,3.57-.69,3.57Z"/>
    <path class="st5" d="M72.47,601.47s1.62-.5,2.06-.5,1.23-4.56-.86-3.81-1.21,4.31-1.21,4.31Z"/>
  </g>
  <g>
    <path class="st5" d="M124.13,540.83c.13-.19,3.2-4.7,5.27-3.76s5.52,8.47,5.52,8.47c0,0,.13,4.64,0,5.9s.75,31.67.75,31.67l.69,4.01s7.34,2.2,7.9,3.2.63,1.57-.82,1.88-5.39-2.32-6.27-2.63-4.33-.69-4.33-.69c0,0,0,6.96-1.76,7.09s-12.17,1.32-17.75.5-14.74-4.26-14.93-4.33-5.02.38-5.39-1.88,1.13-5.02,1.13-5.02l5.83-2.76,16.75-9.66,2.32-25.34,5.08-6.65Z"/>
    <path class="st0" d="M123.01,572.81c.23-.02-2.12-2.4-3.85-2.55s-3.91-.76-2.92-1.78,6.33-.94,6.33-.94c0,0-2.7-1.38-1.76-2.32s6.33.94,6.33.94c0,0,1.63-5.39,4.52-5.9s4.83,0,4.83,0c0,0,.63,11.16.63,11.79s.06,4.01-.25,6.77-1.04,7.49-1,8.97.63,2.26-.38,3.07-14.93-13.86-14.93-14.05,1.82-3.95,2.45-4.01Z"/>
    <path class="st2" d="M129.9,542.77s.25,1.63,1.57,2.32,3.89.56,4.7.88,5.33,3.64,5.39,4.58c0,0-.94-3.57-1.82-4.83s-.94-1.69-.94-2.38-2.57-7.46-9.22-6.84c0,0-2.95,1-5.58,1.63s-5.33,1.32-7.84,4.58-4.7,10.03-4.64,15.18,2.07,16.24,2.07,16.24c0,0-4.58.06-9.22,2.32s-7.15,4.14-7.4,4.14-1.57-.5-1.57,0-2.13,1.13-2.44,3.2.53,2.98.53,2.98c0,0,4.85-1.62,5.05-2.66,0,0-.44,3.01.38,4.01s3.07.88,2.88.88-9.78,3.89-11.6,3.83-6.77-.25-6.52.63,12.1.59,14.42,0,8.34-2.45,8.91-2.45,1.13,2.07,3.95,2.01,3.45.19,3.14.06,2.38,3.01,6.21,2.01,3.51-4.39,2.82-4.7-.82-.88-.94-1.25.82-4.2,1.88-3.89.25,4.64.5,6.21,3.39,3.2,4.39,3.39,5.14,2.57,5.33,3.07c0,0-.63-3.14-.82-4.39s-.44-5.02.25-5.27,6.87.36,8.84,1.88l1.98,1.52s.97-1.08-1.1-2.33-8.4-2.51-9.22-2.57-4.45-2.45-4.77-2.82-4.39-5.64-6.65-6.77-4.95-1.82-4.95-1.82c0,0,2.95-10.1,2.38-14.11s-.63-9.78.5-12.42,4.77-5.71,6.33-5.77,1.94-.63,1.57-1.32-1.88-.88-1.88-.88c0,0-.44-2.2.75-2.82s3.51,1.07,3.39,2.32-1,2.45-1,2.45Z"/>
    <path class="st1" d="M136.3,568.48s-3.01-1.69-3.39-2.45,1.24-4.4,2.45-4.39,3.76,1.94,3.76,2.63-.31,3.2-.69,3.39-2.13.82-2.13.82Z"/>
    <path class="st2" d="M131.72,563.98s1.32-3.77,2.89-3.93,3.45.53,4.89,3.6c0,0,.5,2.38.5,2.57s1.19,2.01,1.13,2.26l-.06.25s-1.25-.69-1.94-.88-1.51-.47-1.76-1.02.88-.92.94-1.77-.68-2.67-2.32-2.23-2.51,4-2.51,4c0,0-1.98-2.29-1.76-2.85Z"/>
  </g>
  <g>
    <path class="st5" d="M262.14,679.36s-.84-8.39,1.54-9.79,2.53-2.42,3.79-1.72,5.9,7.02,6.74,8,6.6,8.61,8.85,13.78,2.81,9.53,2.81,9.53c0,0,2.67-4.63,3.65-5.48s2.81-3.37,2.81-3.37c0,0,5.76,2.53,7.58,4.49s5.06,12.36,5.06,12.36c0,0,4.77-36.79,6.18-38.34s7.72-5.06,8.14-7.16.7-3.65.7-3.65c0,0,8.57-1.4,8.85-2.81s1.97-3.79,2.95-3.23.98,8.43,2.95,11.37,6.6,4.49,7.3,8.14,4.77,34.97,4.07,42.41c-.7,7.44-3.51,18.26-3.37,21.77s-.42,8-1.26,8.85-7.58,1.4-9.55,1.4-4.35,1.54-8.57,1.69-7.02-1.54-8.85-1.54-3.79,1.97-4.49-.14-4.35-22.89-4.35-25.98-1.69,3.79-2.95,7.72-1.69,9.27-1.69,9.27c0,0,1.26,2.81-2.11,3.23s-10.67,1.26-12.5,1.12,1.12,1.4-3.51,3.37c-4.63,1.97-21.06,4.07-23.45,1.69s-3.37-8.99-3.37-8.99l-2.53-14.46s1.69-32.58,2.25-34.4,4.91-9.13,6.32-9.13Z"/>
    <path class="st2" d="M252.31,730.75s-.28-22.47,0-27.38,2.81-17.41,3.79-18.96,5.62-3.65,6.04-5.06,1.54-1.54,1.54-1.54c0,0-3.94,3.62-5.2,5.7s-3,34.19-3.65,38.54-2.53,8.71-2.53,8.71Z"/>
    <path class="st2" d="M274.07,671.5c.34-.38,3.37-4.21,5.62-5.48s5.9-1.97,5.9-1.97h-9.13c-1.97,0-6.6-2.53-9.97-.56s-5.42,7.24-5.24,11.48-.01,4.92-.01,4.92c0,0,1.18.45,2.44-.67s0-2.39,0-2.39c0,0-.98.98-.98-1.4s1.97-5.62,2.81-4.77-.56,1.83,1.69,2.11,4.56,1.32,6.88-1.26Z"/>
    <path class="st2" d="M290.64,694.53c-.14.4-1.54,6.18-2.11,9.13s2.25,22.61,1.05,24.29-2.32,2.81-2.32,2.81c0,0-.7-22.05-.84-25.56s-1.54-6.74-1.54-6.74c0,0,4.77-7.16,5.76-8.28s2.67-2.81,6.18-2.39,7.86,1.85,7.86,1.85c0,0-3.85-.16-4.8.96s-1.09,3.37-2.22,3.65-6.42-1.39-7.02.28Z"/>
    <path class="st2" d="M321.39,659.56c.42,0,4.07-.84,5.76-.42s4.07.14,3.79-1.12,1.43-4.55,1.54-3.89-1.13,8.38,0,9.65,8.71,2.81,9.41,12.08,4.66,41.85,4.29,44.23-1.14,5.9.02,5.76,2-24.85,1.58-27.8-3.79-18.82-3.79-21.2-2.25-8.57-4.21-10.53-3.72.03-6.84-9.18c0,0,1.79-4.3-1.02-6.96s-5.76-4.21-9.27-4.21-4.77,2.67-7.58,3.51-4.77,2.44-4.77,2.44c0,0,2.11-.06,4.07.65s4.21,3.37,4.21,5.2-1.12,4.49-2.67,5.62-4.91,2.95-5.62,4.49-3.65,17.83-4.63,23.87-2.67,28.65-2.81,32.3.84,3.51,1.26,3.09,2.95-11.51,2.95-12.78,4.89-42.41,5.34-44.65,6.88-5.29,7.72-6.93,1.26-3.18,1.26-3.18Z"/>
  </g>
  <g>
    <path class="st2" d="M186.16,604.42s-1.16,2.23-1.7,1.43-.8-8.84-.54-11.61,1.7-17.32,3.04-19.55,3.3-6.52,6.07-6.7,5.62-3.04,8.84-1.7,5.09,5.98,5,7.14-.45,3.48-.71,4.2-.18,7.41-.71,7.86-5.71,30.71-5.71,30.71l1.96,4.2s4.2,1.43,3.48,1.61-2.95.18-4.02.45-2.77.45-3.48-.45-1.16-2.23-1.16-2.23l-2.86.8s3.75,2.23,3.48,2.5-6.07.62-6.7,0-1.61-3.12-1.7-4.55-.98-6.87-1.52-8.04-1.07-6.07-1.07-6.07Z"/>
    <path class="st5" d="M188.03,583.17s.8-2.05.98-4.11,1.34-6.96,3.12-7.14,5.62.27,5.18-1.52-1.07-1.96-1.07-1.96c0,0,2.95-3.84,4.2-1.16s1.96,3.84.71,4.11-2.68-.45-2.68-.45c0,0-.27,2.18.62,3.81s3.66,4.05,4.11,4.76,1.43,2.59,1.52,4.11,1.34.98.45,14.11-3.39,16.87-3.39,16.87c0,0,.45,1.07.36,2.86s-1.25,2.95-1.25,2.95c0,0-2.41-.09-2.68,0s-.19-.09-2.86.71-3.3,2.59-4.9,1.96-.98-8.66-1.52-9.46-.71-8.39-.89-9.02-1.25-6.79-.62-9.02.62-12.41.62-12.41Z"/>
    <path class="st2" d="M207.76,601.47c0-.27.27-8.75.98-10.71s4.46-17.86,5-18.84,6.7-3.84,9.82-1.96,7.14,14.47,7.32,15.45,1.79,9.73,1.43,14.2-.36,7.68-.8,7.68-5.36,14.82-6.16,14.91-4.91,1.16-4.46,0l.89-2.32s-2.32,3.3-6.07,2.86-3.66-.36-3.66-.89-.62-1.07-.62-1.07c0,0-.54,2.94-2.23,2.01s-1.43-21.29-1.43-21.29Z"/>
    <path class="st5" d="M221.51,575.93s-.09-4.91,1.07-4.11.71,1.7.54,2.01-.71,1.21.36,1.47,3.48,2.14,3.84,4.82,1.16,6.25,1.43,7.32.45,15.09.89,16.52.73,1.76,1.16,2.77-2.13,15.32-3.57,15.09-4.37-.71-4.37-.71l-4.46.36s-10-18.93-9.73-21.25.18-9.2.62-9.64-.45-2.5.89-8.84,3.57-9.82,4.55-10,2.5-.36,2.5-.36c0,0-2.77,3.04-3.12,4.37s.54,4.55.18,6.61-.8,6.07-.8,6.07c0,0,2.86-4.82,3.66-5.8s3.57-2.68,3.93-4.2.45-2.5.45-2.5Z"/>
    <path class="st0" d="M209.82,596.61s-4.02,11.92-3.93,13.35.62,1.96.62,1.96c0,0-.81,4.37-.63,5.98s.36,3.67,2.41,3.93,3.12-1.07,3.12-1.07c0,0,2.67,1.73,6.25,1.11s4.37-9.95,4.37-9.95c0,0,.89-1.96.62-3.57s-4.2-14.02-5.89-14.37-2.95,0-2.95,0c0,0-3.15.02-4.02,2.64Z"/>
    <path class="st2" d="M215.71,591.92c-.09-.45-1.61-3.21-3.66-2.5s-2.41,2.62-2.05,4.39.55,1.54.55,1.54l3.29-1.38,1.87-2.05Z"/>
    <path class="st1" d="M213.04,592.33s.43-1.66-.64-1.57-1.79,1.61-1.79,2.41.75,1.51.75,1.51c0,0,4.16-1.03,4.78-.87l-.45-1.89s-.87,1.24-2.67.41Z"/>
  </g>
</svg>