<?xml version="1.0" encoding="UTF-8"?>
<svg id="Vrstva_1" xmlns="http://www.w3.org/2000/svg" version="1.1" viewBox="0 0 1417.32 1417.32">
  <!-- Generator: Adobe Illustrator 29.7.1, SVG Export Plug-In . SVG Version: 2.1.1 Build 8)  -->
  <defs>
    <style>
      .st0 {
        fill: #82a0b9;
      }

      .st1 {
        fill: #3a91b5;
      }

      .st2 {
        fill: #d4edfc;
      }

      .st3 {
        fill: #fff;
      }

      .st4 {
        fill: #0f4c59;
      }

      .st5 {
        fill: #ecf7fe;
      }

      .st6 {
        fill: #196374;
      }
    </style>
  </defs>
  <rect class="st0" x="-26" y="-28.67" width="1468" height="737.5"/>
  <path class="st5" d="M387.29-50.54s35.24-27.28,64.96,21.87-145.15,110.41-145.15,110.41l-65.96-154.78,146.15,22.5Z"/>
  <path class="st5" d="M259.11,70.94s88.5-43.5,161.99-27c73.5,16.5,49.34,54,49.34,54,0,0,54.35,12,40,51,0,0,16.38-100.49,97.76-85.5s85.88,24,85.88,24c0,0-31.18-46.47,39.91-47.23s78.31,11.24,78.31,11.24c0,0-56.16-44.09-8.45-70.79s399.39-9.31,399.39-9.31c0,0-12.86,310.8-135.02,343.94-122.16,33.15-825.62,109.64-809.12-244.34Z"/>
  <g>
    <path class="st4" d="M380.49,85.41c.78-2.14,33.96-56.63,61.85-63.41,27.89-6.78,62.31-2.23,85.73,22.53,23.42,24.76,33.64,65.16,18.35,94.15s-41.82,53.49-55.09,57.24-21.63-1.4-21.63-1.4l-89.21-109.11Z"/>
    <path class="st3" d="M392.69,86.47s24.75-36.01,40.44-43.85c15.69-7.84,38.41-9.73,41.81-2.44s-12.75,31.67-17.29,39.46c-4.53,7.79-10.35,9.79-14.41,13.63s-6.39,13.97,8.23,29.43c14.63,15.46,36.02,22.53,39.38,17.95,3.37-4.58.78-6.57,10.88-18.11,10.1-11.53,19.55-26.68,31.08-21.53,11.53,5.14,12.92,7.35,2.77,35.85-10.15,28.5-31.9,55.38-49.75,55.47-17.85.09-12.95,5.56-41.72-10.8-28.78-16.36-72.08-63.61-51.42-95.06Z"/>
    <path class="st0" d="M460.62,102.03c8.24-.78,14.86-5.02,20.53-1.25,5.67,3.77,5.31,25.6,3.19,26.32s-13.27-.7-19.23-5.53c-5.97-4.83-11.06-18.91-4.48-19.54Z"/>
    <path class="st6" d="M463.79,104.64s1.46,5.25,7.34,10.72c5.88,5.48,8.92,6.47,8.92,6.47,0,0-19.17-3.24-16.26-17.19Z"/>
    <path class="st2" d="M432.54,62.5s7.3-8.86,13.43-2.9c6.13,5.96,8.84,11.94,3.22,17.39-5.62,5.45-11.77,5.88-15.92,2.95-4.15-2.93-5.33-13.65-.73-17.44Z"/>
    <path class="st2" d="M506.96,130.29s6.54-8.63,12.49-5.44,8.09,10.52,1.8,18.17c-6.29,7.64-12.39,7.49-16.2,5.24s-5.22-12.3,1.91-17.96Z"/>
    <path class="st4" d="M435.31,65.27c.09-.07,3.51-5.28,8.36-1.54,4.85,3.74,4.49,7.51,2.15,10.22s-19.87-1.98-10.51-8.68Z"/>
    <path class="st4" d="M509.37,132.91c1.13-1.18,7.18-3.37,9.98.11s-.77,9.55-5.4,10.87c-4.63,1.32-9.54-5.79-4.58-10.98Z"/>
    <path class="st5" d="M438.44,67.21s.03,2.65,2.38,2.52c2.35-.13-2.38-2.52-2.38-2.52Z"/>
    <path class="st5" d="M513.45,134.93l3.59,3.79s-5.11,0-3.59-3.79Z"/>
  </g>
  <path class="st6" d="M-14.17-18.06h340.17s16,9.05,22,44.55,50,80.87,94,122.3c44,41.42,8,13.81,78,55.23,70,41.42,56,47.34,142,45.37s234-29.59,256-65.09c22-35.51-40-22.53,32-68.47,72-45.94,166-133.89,166-133.89h315.49v726.89H-14.17V-18.06Z"/>
  <path class="st2" d="M338.59,64.25s20.62,67.5,52.12,93,60.16,47.38,77.84,62.56,66.15,32.24,66.15,32.24c0,0,120.2,34.28,143.35,34.24s98.72-8.66,110.43-15.6,318.66-219.16,331.76-234.93c13.09-15.77,42.51-59,42.51-59h-56s-62.79,73.43-112.68,94.71c-49.89,21.28-190.12,153.28-235.5,159.28-45.38,6-115.81,11.74-164.26,2.74s-101.75-55.23-111.43-62.73-105.29-90.09-111.67-112.49-25.5-77.28-25.5-77.28l-7.12-4.22h-43.88l43.88,87.5Z"/>
  <g>
    <path class="st0" d="M1164.65,19.52s146.91-5.26,209.64,6.2c62.74,11.46,77.82,17.49,77.82,17.49l3.02,343.18s-263.23-19.19-290.57-24.65.09-342.23.09-342.23Z"/>
    <g>
      <path class="st0" d="M1164.56,361.75s-234.94,4.53-251.04-2.01c0,0-18.62,5.03-25.67,0,0,0-14.6-1.48-17.61,3.54s-24.66,23.64-27.18,24.14c0,0-67.44,1.01-67.44-5.54s1.01-20.13-4.53-30.2c-5.54-10.07-19.63-26.17-19.12-43.79.5-17.61-.5-56.37,42.28-93.61,42.78-37.24,162.56-109.71,176.65-120.79s61.4-39.76,81.53-47.31c20.13-7.55,98.14-24.66,105.18-25.67l7.05-1.01-.09,342.23Z"/>
      <path class="st1" d="M1091.7,310.97s14.51,13.1,26.68,16.38c12.17,3.28,53.35,27.14,62.24,32.76,8.89,5.62-18.71,1.69-18.71,1.69,0,0-34.64-19.26-46.8-24.75-12.17-5.49-23.4-26.08-23.4-26.08Z"/>
      <path class="st1" d="M1129.14,268.85s1.99-6.08,18.72-3.74c16.73,2.34,29.48,10.76,29.48,10.76,0,0-7.96-15.91-24.1-18.25-16.15-2.34-25.04,6.55-24.1,11.23Z"/>
      <path class="st1" d="M1126.8,257.23s1.76-7.57,10.24-8.04c8.48-.47,12.22,0,12.22,0,0,0-11.23.34-14.98,3.92-3.74,3.57-7.49,4.12-7.49,4.12Z"/>
      <path class="st1" d="M900.75,355.43c.94-2.34,8.89-27.61,3.28-60.37,0,0-11.23-28.67-28.55-41.95,0,0,22.46,31.18,24.8,47.56,2.34,16.38.47,54.76.47,54.76Z"/>
      <path class="st1" d="M872.67,266.55s16.03,20.08,18.08,33.19c2.05,13.1,2.05,15.91,2.05,15.91,0,0-3.28-21.91-20.12-49.1Z"/>
      <path class="st1" d="M927.9,295.52s7.96,19.66,4.68,35.57c-3.28,15.91-11.7,24.34-11.7,24.34,0,0,20.59-11.88,17.32-34.96-3.28-23.07-10.3-24.95-10.3-24.95Z"/>
      <path class="st1" d="M898.41,248.98s10.3,12.38,13.1,22.2,2.81,7.96,2.81,7.96c0,0,3.28-14.92-15.91-30.16Z"/>
      <path class="st1" d="M789.37,358.28s-13.47,14.95-13.76,23.6c-.28,8.65,2.06,19.88,20.78,20.35,0,0-.94-1.4,5.62,0s19.66,5.15,31.82-2.81c12.17-7.96,13.33-17.91,7.96-27.61-6.81-12.29-41.08-30.63-52.42-13.52Z"/>
      <path class="st4" d="M799.2,376.49s0,2.81,4.68,0c4.68-2.81,6.29-5.15,6.29-5.15,0,0,1.2,4.21,4.47,0,3.28-4.21,7.96-8.21,0-15.91-5.8-5.62-20.59-1.1-22.93,3.74-2.34,4.85-1.22,19.29.47,15.91,2.81-5.62,3.74-.47,3.74-.47l3.28,1.87Z"/>
      <path class="st4" d="M803.65,373.21s.24,13.57,0,16.85.64,7.02,6.52,7.49l5.88.47s-11.23,3.28-14.98-2.81c0,0-7.02,6.44-10.3,3.69l-3.28-2.75s11.23,5.62,11.7-5.15c.47-10.76.47-17.78.47-17.78h3.98Z"/>
      <path class="st4" d="M819.02,375.08s8.07,2.58,17.05,7.26c8.01,4.18,16.74,10.03,21.15,17.23l9.36,15.28s-15.44-27.61-41.18-34.63l-6.38-5.15Z"/>
      <path class="st4" d="M784.69,373.21s-18.25,9.83-23.87,21.76c-5.62,11.93,0,19.89,0,19.89,0,0-1.68-16.84,6.55-23.87s17.32-17.78,17.32-17.78Z"/>
      <path class="st4" d="M819.02,384.44s19.19,10.31,23.78,19.9,4.6,16.61,4.6,16.61c0,0,.14-16.82-28.38-36.5Z"/>
      <path class="st4" d="M787.5,382.1s-14.2,13.57-15.99,25.27c-1.79,11.7,0,15.44,0,15.44,0,0,1.54-20.67,9.91-28.78l6.08-11.93Z"/>
      <path class="st1" d="M828.92,322.32c-.35-1.4-7.37-19.89,5.97-26.79s33.46-6.9,40.6,20.12c0,0-3.56,26.32-24.36,24.92-20.8-1.4-22.2-18.25-22.2-18.25Z"/>
      <path class="st1" d="M782.93,323.37c-.56-2.84-3.51-24.92-14.74-24.92s-13.98,23.23-13.31,24.92,5.17,23.17,13.98,22.81,14.59-20.18,14.07-22.81Z"/>
      <path class="st4" d="M836.29,317.75s3.69-13.34,14.83-11.58,13.95,9.48,13.95,16.15-5.62,10.18-14.39,11.23c-8.77,1.05-16.48-11.08-14.39-15.79Z"/>
      <path class="st4" d="M760.82,312.84c1.1-.18,14.12-3,14.77,12.64s-13.5,11.44-14.77,11.57-5.62-5.24-4.21-12.09,2.07-11.78,4.21-12.12Z"/>
      <path class="st5" d="M842.81,316.14s1.91,6.18,7.7,6.17,8.25-2.51,8.25-2.51c0,0-5.41.55-7.97-.58s-7.97-3.09-7.97-3.09Z"/>
      <path class="st5" d="M760.47,325.47s5.58,3.51,8.41,2.11,2.63-5.26,2.63-5.26c0,0-3.54,3.14-5.53,2.8s-5.5.36-5.5.36Z"/>
      <path class="st4" d="M833.21,310.97c1.32-.94,7.12-13.22,17.91-10.41s15.47,11.98,15.47,11.98c0,0-6.15-19.75-21.75-15.84-15.59,3.91-11.63,14.27-11.63,14.27Z"/>
      <path class="st4" d="M760.47,309.33c-1.14.96,4.68-2.11,10.24,0s6.61,6.32,6.61,6.32c0,0-5.26-16.15-16.85-6.32Z"/>
    </g>
    <path class="st1" d="M1161.9,361.8s30.81,20.31,42.88,24.6l12.06,4.29s-1.69-15.67-54.94-41.59l-53.25-25.92,53.25,38.63Z"/>
    <path class="st0" d="M1177.34,275.87s15.38,19.2,50.36,35.03c34.99,15.83,97.12,56.75,121.25,91.79,24.13,35.04,30.77,51.33,23.53,59.17-7.24,7.84-25.94,0-25.94,0,0,0-.6,9.65-25.94-4.22-25.34-13.87-35.75-25.94-35.75-25.94,0,0,37.56,28.35,3.17,18.7-34.38-9.65-71.18-59.72-71.18-59.72,0,0-46.2-36.78-72.34-50.06-26.13-13.28-70.03-26.85-61.58-45.1,8.45-18.25,47.07-38.55,94.41-19.66Z"/>
    <path class="st1" d="M1201.16,286.32s111.29,76.42,125.77,91.52c0,0-104.66-91.52-125.77-91.52Z"/>
    <path class="st1" d="M1081.86,260.38s-7.99,25.64-6.18,43.89c1.81,18.25,40.42,27.81,40.42,27.81l6.03,4.97s-62.13-4.15-55.5-38.6c6.64-34.45,15.23-38.07,15.23-38.07Z"/>
  </g>
  <path class="st1" d="M323.61,550.91s13.5-3,13.5,39-10.5,79.5-13.5,101.99,13.5,47.43,13.5,47.43c0,0-4.5-30.93,0-41.43s51.49-136.33-13.5-146.99Z"/>
  <g>
    <g>
      <path class="st0" d="M244.48,750.44s-7.7-83.78.3-114.44,24-109.33,48.67-154.67,130.67-192.17,168.67-214.08,102.67-33.92,146.67-5.92,52,88.67,52.67,146,51.6,335.83,22.67,335.83c-3.33,0-439.63,7.28-439.63,7.28Z"/>
      <path class="st1" d="M472.78,422.66s33.33,30,82.67,24,81.33-58,81.33-58c0,0-19.33,70-87.33,66s-76.67-32-76.67-32Z"/>
      <path class="st1" d="M500.78,421.75s58.67,33.58,100.67-7.08c0,0-34.67,32.83-100.67,7.08Z"/>
      <path class="st1" d="M519.45,312.33s-27.5,33-22.5,54.5,48.5,21.83,48.5,21.83c0,0,53,2.67,65-10.33s9.97-40.18-25.5-77c0,0,31.5,37,27.5,55.5s-6,14-6,14c0,0,7.21-16.55-5-29.5-16.5-17.5-50.33-27.43-70,3.78-9.96,15.8-6,34.72-6,34.72,0,0-43.6-.52-6-67.5Z"/>
      <path class="st1" d="M496.34,290.33s-20.23.5-23.56,14.5c-3.33,14,2.45,43,23.56,34.5s22.61-36,20.11-41.5-16.76-7.82-20.11-7.5Z"/>
      <path class="st1" d="M584.95,301.33s9-13.5,20.5-14.5,33.17,13,31.33,26-16.28,22.35-30.31,15.68l-21.52-27.18Z"/>
      <path class="st4" d="M549.68,346.06s-10.63-10.15-3.38-13.9,37.47-4.33,38.65,0-9.18,18.95-11.59,17.98l-2.42-.97s-.48,6.76-2.42,6.76-10.14,0-10.87-5.31c0,0-6.38,3.95-7.97-4.56Z"/>
      <path class="st4" d="M562.47,351.59s3.13,20.77,0,26.57-12.15,6.28-12.15,6.28c0,0,9.85,0,13.54-3.86l3.69-3.86s2.42,9.18,12.56,7.73c0,0-7.73-3.38-9.18-9.18s-2.23-23.67-2.23-23.67h-6.23Z"/>
      <path class="st4" d="M482.45,315.58c.04-.24-.14-8.25,12.18-9.25s13.32,13,8.82,18-23.5,6.5-21-8.75Z"/>
      <path class="st4" d="M601.45,308.75s-.56-7.92,9.47-7.42,13.53,3.5,13.03,12-19.3,15.12-22.5-4.58Z"/>
      <path class="st5" d="M486.95,317.04s4.28-4.71,9.39-3.21,4.44,3.21,4.44,3.21h-13.83Z"/>
      <path class="st5" d="M606.95,311.47s4.22-5.31,10.11-5.19,3.39,5.19,3.39,5.19h-13.5Z"/>
      <path class="st6" d="M479.04,313.54c1.52,2.74-3.59-10.71,7.91-12.21s20.5,2.21,21.5,6.1l1,3.9s2-18-22.5-14.5c0,0-14.71,4.47-7.91,16.71Z"/>
      <path class="st6" d="M596.45,301.33s5.85-2.79,17.51-4.95,13.99,8.76,13.99,8.76c0,0,.46-14.92-15.75-14.84,0,0-18.25,6.03-15.75,11.03Z"/>
      <path class="st6" d="M482.22,330.72c-1.65-1.74,10.73,2.39,16.23,0,0,0-6.48,10.25-16.23,0Z"/>
      <path class="st6" d="M606.95,323.83s3.23,6.99,10.11,3.75,8.89-3.75,8.89-3.75c0,0-13.5,2.5-19,0Z"/>
      <path class="st1" d="M640.95,363.83s8.5-27.72,6.5-33.11,4.11,2.11.3,29.11l-6.8,4Z"/>
      <path class="st1" d="M443.95,317.04s-7.5,24.29,0,44.79l7.5,20.5s-23.5-34.08-7.5-65.29Z"/>
      <path class="st4" d="M547.27,355.93s-53.29,45.46-57.01,61.36c0,0,18.37-23.25,26.09-30.68,7.72-7.43,30.92-30.68,30.92-30.68Z"/>
      <path class="st4" d="M592.45,355.33s33.67,35,44.33,51.5,13.83,23.5,12.25,20-35.58-45.5-47.58-56.5-9-15-9-15Z"/>
      <path class="st4" d="M517.35,353.33s-15.87,12.5-27.09,24.5-31.81,24.5-31.81,24.5c0,0,11.73-3.61,29.45-20,17.72-16.39,29.45-29,29.45-29Z"/>
      <path class="st4" d="M505.9,345.11s-22.75,3.22-39.35,14.22-21.64,18.5-21.64,18.5c0,0,30.88-23.5,48.46-27l12.54-5.72Z"/>
      <path class="st4" d="M598.95,335.28s38.5,18.72,53,32.64,16,17.08,16,17.08c0,0-26.81-24.56-40-31.66s-29-18.06-29-18.06Z"/>
      <path class="st4" d="M603.95,353.33s22.05,15.36,31.06,24.81,32.94,33.19,32.94,33.19c0,0-45.87-39.39-53.99-46.26-8.11-6.88-10.01-11.74-10.01-11.74Z"/>
    </g>
    <path class="st0" d="M244.48,750.44s11.3,281.34,292.21,463.05c0,0,6.56,17.23-20.37,39.3-26.93,22.06-74.8,76.37-62.83,88.25s44.88,0,44.88,0c0,0,27.19,1.7,39.03-3.39,11.84-5.09,17.82,0,35.77-13.58l17.95-13.58s0,36.02,20.94,35.83c20.94-.19,35.9,8.3,35.9,8.3,0,0-2.99,0,17.95,8.49,20.94,8.49,8.98,22.06,38.9,15.27,29.92-6.79,23.94-45.82,0-62.8-23.94-16.97-101.73-83.16-89.76-91.65,11.97-8.49,44.88,27.16,59.84,25.46s23.94-33.94,23.94-33.94c0,0,47.87,93.35,80.78,115.41,32.91,22.06,41.89,35.64,56.85,27.16,14.96-8.49,0-64.49,0-64.49,0,0,8.98,16.97,35.9,16.97s71.81,10.18,86.77,0c14.96-10.18-29.92-52.61-119.68-86.56-89.76-33.94-113.69-40.73-119.68-71.28-5.98-30.55-35.9-230.82-47.87-261.37-11.97-30.55,19.7-161.01,19.7-161.01l-447.12,20.16Z"/>
    <path class="st1" d="M325.65,699.47s-14.46,48.45,0,76.95,14.46,69,6.96,78-54-9-54-9c0,0,39.76,36,61.88,19.5s-3.38-105.58-3.38-105.58c0,0-12.34-62.55,3.38-87.91l-15.72,25.36"/>
  </g>
  <path class="st0" d="M692.89,679.58s-21.29,183.38-15.13,213.13-1.12,66.32-1.12,66.32c0,0-114.52-270.46,16.25-279.45Z"/>
  <path class="st0" d="M513.17,194.07s18.9-4.94,30.61,3.22c11.71,8.16,79.37,20.8,92.18,27.7s14.01,13.18,9.04,13.05-53.16,1.6-79.76-5.62c-26.61-7.22-52.06-38.36-52.06-38.36Z"/>
  <path class="st0" d="M372.99,62.38s11.72-12.99,7.49-26.77-19.65-56.02-26.99-64.28c-7.34-8.26-20.57,5.42-20.57,5.42,0,0,28.71,85.04,40.06,85.63Z"/>
  <path class="st0" d="M91.12,19.52s27,7.98,40.5,55.21c13.5,47.23,70.56,124.54,109.53,140.63,38.97,16.09,53.56,22.78,53.56,22.78,0,0-95.59-19.09-130.09-34.64s-51-14.84-73.5-59.44c-22.5-44.6-9-36.53-43.5-62.31S-14.17,0-14.17,0l-11.83-46.04h94.62l22.5,65.56Z"/>
  <path class="st0" d="M-26,136.87S-.37,214.27,52.12,215.36c52.5,1.09,66.97-13.09,82.23,0s52.76,22.78,52.76,22.78c0,0-49.5,3.69-64.5,0-15-3.69-148.62,6.85-148.62,6.85v-108.12Z"/>
</svg>