<?xml version="1.0" encoding="UTF-8"?>
<svg xmlns="http://www.w3.org/2000/svg" version="1.1" viewBox="0 0 1417.32 708.66">
  <!-- Generator: Adobe Illustrator 29.7.1, SVG Export Plug-In . SVG Version: 2.1.1 Build 8)  -->
  <defs>
    <style>
      .st0 {
        fill: #82a0b9;
      }

      .st1 {
        fill: #3a91b5;
      }

      .st2 {
        fill: #d4edfc;
      }

      .st3 {
        fill: #f7a833;
      }

      .st4 {
        fill: #fff;
      }

      .st5 {
        fill: #0f4c59;
      }

      .st6 {
        fill: #ecf7fe;
      }
    </style>
  </defs>
  <g id="Vrstva_3">
    <rect class="st0" x="-13.18" y="-13.8" width="1445.67" height="736.63"/>
    <path class="st4" d="M1501,56.95c-.31.08-2.44-.6-5.93-1.68-18.39-5.72-74.54-22.71-101.02,1.68-31.5,29.02,0,47.4,0,47.4,0,0-76.66-13.88-82.58,20.62-5.92,34.5,13.58,68.61,57.08,72.56,43.5,3.94,137.39-21.76,132.44-32.16-4.95-10.4,0-108.42,0-108.42Z"/>
    <path class="st4" d="M642.33,197.53s-30.67.18-58-11.99c-27.33-12.17-13.33-22.17-13.33-22.17,0,0-.67,18-23.33,7.33-22.67-10.67-19.33-18.5-19.33-18.5,0,0-22.67,1.83-16.67-5.5l6-7.33s-69.33,10.67-44.67-8.67c24.67-19.33,40-8,40-8,0,0-3.97-38,42.01-28l45.99,10s44-35.33,51.33,2c0,0,47.67,6,61.5,24,13.83,18,13.17.67,40.5.67s44.67,5.57,40,24.78-31.33,33.22-31.33,33.22l-120.67,8.16Z"/>
    <path class="st4" d="M436.33,208.04s-4-13.02,7.33-10.51,11.33,10.51,11.33,10.51c0,0,16-10.67,18,0s-6,23.33-14,18.67c-8-4.67-8-8.58-8-8.58,0,0-22,7.25-14.67-10.09Z"/>
    <path class="st4" d="M378.33,74.71s-6.67-10.67,8.67-8.67l15.33,2s20.67-25.33,29.33-8.67-17.33,25.33-17.33,25.33c0,0,3.15,15.33-7.76,12-10.91-3.33-11.57-14.67-11.57-14.67,0,0-30.67,5.33-16.67-7.33Z"/>
    <path class="st4" d="M1205.07,80.46c2.18-4.07,10.31-16.92,19.24-15.13l8.93,1.79s24.67-18.67,27.33-6-17.02,22-17.02,22c0,0,27.69,20.67,13.69,22-14,1.33-24.11-13.33-24.11-13.33,0,0-27.51,19.33-22.7,4,4.81-15.33,7.47-14.83,7.47-14.83,0,0-30.33,32.16-12.83-.51Z"/>
    <path class="st4" d="M268.33,143.55s8-11.51,16.67-4.18,0,16.78,0,16.78c0,0,26.67,5.77,14,12.49s-26.52-3.94-26.52-3.94c0,0-52.81-6.3-4.15-21.15Z"/>
    <path class="st4" d="M312.83,355.82s12.74-10.07,28.74-7.41,14.22,7.41,14.22,7.41c0,0,10.07-2.07,11.85,2.37s-2.07,7.11-2.07,7.11c0,0,6.81-7.11,18.37-6.52s19.93,4.93,19.93,4.93l-19.33,10.18s-21.63,6.22-23.11,6.22-48.59-1.48-48.59-1.48l-26.07-11.85-6-5.33s1.56-6.52,12.82-4.15,11.55,6,11.55,6c0,0-.3-17.85,7.7-7.48Z"/>
  </g>
  <g id="Vrstva_1">
    <g>
      <polygon class="st2" points="708.42 69.03 881.46 368.76 535.37 368.76 708.42 69.03"/>
      <polygon class="st4" points="708.42 136.29 842.63 368.76 574.2 368.76 708.42 136.29"/>
      <polygon class="st2" points="708.42 210.54 799.77 368.76 617.06 368.76 708.42 210.54"/>
      <polygon class="st4" points="708.42 282.8 758.04 368.76 658.79 368.76 708.42 282.8"/>
    </g>
    <polygon class="st6" points="708.42 282.8 737.64 368.76 758.04 368.76 708.42 282.8"/>
    <path class="st6" d="M697.16,155.78s18.18,27.33,30.85,48.12,33.46,86.19,49.68,104.44c16.22,18.25,64.94,60.42,64.94,60.42l-134.22-232.47-11.26,19.49Z"/>
    <path class="st6" d="M708.42,282.8s.33,28.99,4.39,42.98,24.84,42.98,24.84,42.98l-29.23-85.96Z"/>
    <path class="st6" d="M679.85,214.55l17.31-58.77,14.63,10.1s5.07,9.63-7.1,23.32c-12.17,13.69-24.84,25.35-24.84,25.35Z"/>
    <path class="st6" d="M737.64,368.76h-51.2s12.67-22.91,14.2-23.92,7.1-8.11,7.1-8.11c0,0,10.65,18.76,10.65,22.31s19.26,9.73,19.26,9.73Z"/>
    <rect class="st4" x="-14.17" y="368.76" width="1445.67" height="354.07"/>
    <path class="st2" d="M814.09,390.09c-12-1.5-58.5,15-48,19.5s119.99,16.5,131.99,16.5,164.99,1.5,164.99,1.5c0,0-295.49,21-307.48-12s58.5-25.5,58.5-25.5Z"/>
    <g>
      <path class="st2" d="M466,319c-18-4.67-44-26-67.33-44-23.33-18-44.67-19.61-73.33-22.47-28.67-2.86-106.67-11.53-124.67-26.86-18-15.33-44.67-78.67-60.67-94.67S64.67,36.33,46,20.33-14.17-14.17-14.17-14.17v393.84s48.84,19.33,111.51,26c62.67,6.67,255.33-.67,280,0,24.67.67,158.03-36.9,158.03-36.9l37.14-64.33c-3.94,1.1-12.37,2.37-29.51,3.57,0,0-59,15.67-77,11ZM405.33,358.33c-1.33,14.67-24,26-40,26s-9.33,2.67-47.33,0-50.67-38.28-50.67-38.28c0,0,7.33-21.72,30-25.06,22.67-3.33,26.67-8.67,46-5.33,19.33,3.33,28.67,8,44,14.67,15.33,6.67,19.33,13.33,18,28Z"/>
      <path class="st2" d="M574.2,301.5l-1.69,2.93c5.95-1.66,1.69-2.93,1.69-2.93Z"/>
    </g>
    <path class="st6" d="M272.83,342.78s5.63,19.85,28.15,26.67,37.03,8.3,55.11,7.41,47.78-13.15,47.78-13.15c0,0-3.63,14.03-17.85,17.89-14.22,3.85-53.03,6.52-63.7,5.93s-22.22-4.74-33.78-9.18-21.2-32.28-21.2-32.28l3.54-7.08,1.96,3.81Z"/>
    <path class="st4" d="M476.98,319.84c.89-.05-2.68-11.12-7.13-16.46s-20.74-11.52-33.78-20.58-23.69-22.09-30.51-19.13-8.6,3.85-10.97,3.26-7.7-.89-22.52-13.04-25.04-17.78-35.63-16c-10.59,1.78-9.11,1.48-20.96.89s-16.59,1.78-16.59,1.78c0,0-6.38,1.78-18.15-7.7-11.77-9.48-25.99-14.52-25.11-26.67s-3.26-21.33-10.96-26.96-14.22-8.59-14.22-8.59c0,0-17.48-18.67-22.81-18.37,0,0,2.07-27.26,1.48-41.18s-2.07-28.74-4.15-36.44-4.74-16.3-4.74-16.3c0,0-15.7-23.41-25.48-33.18,0,0-1.78-14.81-13.93-26.67s-16.89-15.41-16.89-15.41L-14.17-14.17S.55-10.06,7.96,0s4.74,23.4,10.37,21.62,17.78-6.52,24-1.19,11.85,13.04,13.63,16.89,18.37,15.41,27.26,28.74,32,46.81,39.11,53.03c0,0,.3,3.26-13.93-.3s-37.03-31.41-37.03-31.41l-.59,12.74s29.92,26.37,40.29,36.74c10.37,10.37,11.26,9.18,10.96,17.78s-.3,17.18-.3,17.18l8.3,8.89s-.59-26.96,3.85-31.41,8-5.04,10.37-2.96,10.67,23.67,14.22,30.94,6.81,6.98,6.81,6.98c0,0-9.48,27.85,3.26,37.63s40.59,37.92,48,37.03,0-6.22,9.18-2.96c9.18,3.26-3.85,5.63,16,3.26s7.11-8.89,33.18-5.33c26.07,3.56,32.89,4.74,45.92,4.44s19.85-.59,31.11,1.19c11.26,1.78,15.11-2.37,30.22,10.07s38.81,39.41,53.33,46.22,34.96,4.41,41.49,4.01Z"/>
    <path class="st4" d="M-16.04,142.5c1.87-.3,44.74,33.78,49.77,39.41s8.3,15.25,8.3,15.25c0,0,45.33,29.49,46.22,29.78s17.18,18.37,17.18,18.37c0,0-23.11-12.15-25.18-12.44s5.33,6.22.89,7.11c0,0-2.67-1.19-8.89-5.93s-7.41-8.59-7.41-8.59c0,0-.89-4.44-5.93-9.78s-24.59-18.52-24.59-18.52c0,0,3.56-3.1-10.07-16.44s-40.29-32.29-40.29-32.29v-5.93Z"/>
    <path class="st4" d="M95.66,217.75s19.26,4.74,27.85,9.48,19.85,20.74,19.85,20.74c0,0-5.33-5.63-12.44-8.59s-16.3-6.81-20.44-10.67-14.81-10.96-14.81-10.96Z"/>
    <path class="st6" d="M401.12,280.86c3.59-1.18,23.7,3.26,28.74,4.74s30.81,16.59,34.96,18.67,7.5,2.75,7.5,2.75c0,0,4.38,8.24,4.66,12.82l.28,4.58s-23.7-2.96-40.29-13.33-35.85-30.22-35.85-30.22Z"/>
    <path class="st6" d="M250.91,217.75s-.3,13.33,3.85,18.96c4.15,5.63,6.85,7.51,6.85,7.51,0,0,28.24,4.23,30.28,4.5s-15.21-12.59-22.91-17.33-18.07-13.63-18.07-13.63Z"/>
    <path class="st6" d="M219.21,168.28s7.11,17.78,10.96,21.04,13.04,20.53,14.22,21.23,3.56,3.07,3.56,3.07c0,0,4.74-13.93,0-21.63s-28.74-23.7-28.74-23.7Z"/>
    <path class="st6" d="M204.39,193.9s0,7.56,7.7,14.67,14.76,8.51,19.38,10.33,16.17.25,14.99,0-11.61-12.7-14.99-17.73-7.82-12.15-7.82-12.15c0,0-2.37,6.81-9.18,4.89s-10.07,0-10.07,0Z"/>
    <path class="st6" d="M181.28,103.98s-7.41,21.33-6.81,24.89-3.85,40.29,6.81,49.77,16.89,16.59,16.89,16.59c0,0,.59-7.74,2.07-17.94s3.56-16.13,4.15-23.24,2.67-26.37,0-31.11-23.11-18.96-23.11-18.96Z"/>
    <path class="st6" d="M163.8,56.58s-.89,8.59,0,9.78,34.96,41.18,34.96,41.18c0,0,.59-5.63,3.26-4.74s2.37,4.74,2.37,4.74c0,0,2.06-16.59,1.33-20.74s-41.92-30.22-41.92-30.22Z"/>
    <polygon class="st6" points="169.73 31.4 180.1 49.17 186.91 49.17 169.73 31.4"/>
    <path class="st6" d="M89.73-11.86c3.85,4.44,18.07,21.33,25.18,43.26s11.55,37.03,17.78,46.52,23.11,26.07,23.11,26.07l7.6,9.78v-8.59s3.95,7.11,6.32,9.78-.79-16-6.32-30.81c-5.53-14.81-14.72-33.78-14.72-33.78l-2.37-1.19s.59,12.44-.3,11.26,6.52,21.92-8.59-10.07S95.66-14.17,95.66-14.17l-10.96-4.21,5.04,6.52Z"/>
    <path class="st4" d="M127.61,336.73s-74.94-21.06-110.28-43.06-44.67-33.33-44.67-33.33l-9.33,25.33s68.06,49.33,121.36,57.33,75.97,9.75,75.97,9.75l-33.06-16.02Z"/>
    <path class="st4" d="M-60,352.75s158.67,42.92,176,50.92,33.33,6.67,22.67,11.33-44.67,1.33-80,3.33-84.67,4.67-86.67,4.67-32-70.25-32-70.25Z"/>
    <path class="st2" d="M769.9,179.67s16.1,14,36.1,21.33-.07,14.41,36.63,9.54,40.7-10.21,68.03-10.21,115.33,7.63,157.33,11.81,363.49,52.85,363.49,52.85v163.33l-550.03-59.57-111.57-189.1Z"/>
    <g>
      <path class="st5" d="M97.86,533.87s-1.79,1.79,6.66,3.07c8.45,1.28,22.28,1.79,19.98-1.02s-8.19-5.89-8.19-5.89l-18.44,3.84Z"/>
      <path class="st6" d="M121.68,381.75s19.98,24.07,10.76,89.89-21.77,65.3-26.12,64.28-2.05-3.33-8.45-2.05-20.74,3.59-24.33-2.05-5.12-31.76-5.12-31.76l13.83-103.46s-4.35-29.19,2.05-35.85,19.72-14.34,30.73-12.04c11.01,2.3,26.63,12.29,27.4,18.44s-8.45,9.48-8.45,9.48c0,0-8.19,8.19-8.96,8.45s-3.33-3.33-3.33-3.33Z"/>
      <path class="st5" d="M83.78,442.96c-.53-.56,6.66,8.96,11.27,15.62s8.71,23.56,10.24,28.68,2.3,10.24,7.94,5.63,9.99-27.66,1.02-48.4c-8.96-20.74-16.9-18.69-17.67-29.45s-6.4-27.4-6.4-27.4c0,0-3.84-17.16-.26-22.54s13.83-13.83,21.26-9.22c7.43,4.61,8.96,8.19,9.22,4.35s-6.4-9.73-19.72-8.19c0,0,16.39-3.33,20.49-1.54,0,0-25.61-12.29-52.76,15.88,0,0-11.27,14.6-13.06,24.84s-.77,13.83-4.87,25.1-1.28,55.06-1.54,65.3c-.26,10.24,5.38,35.85,6.66,38.93s-10.5,10.5-11.27,11.01-8.71.51,2.05,1.79,16.39,1.02,21,.51,7.94.51,8.71,0-1.02-7.43-2.3-13.32,4.1-12.55,7.94-18.95c3.84-6.4,4.35-7.68,5.89-17.93,1.54-10.24.77-35.85-3.84-40.72Z"/>
      <path class="st5" d="M126.03,370.74s-.26-2.82,4.87-1.28,1.28-13.32,1.28-13.32c0,0,12.55,7.17,18.18,15.88s3.84,23.05,2.3,27.4-2.05,9.22-1.79,14.09-2.3,11.27-5.12,10.5c0,0,1.79-12.04-3.59-19.46s-16.39-17.41-17.93-21.26,1.79-12.55,1.79-12.55Z"/>
      <path class="st3" d="M142.68,393.53s1.79,11.78,3.07,14.09,2.56,8.19,2.56,8.19c0,0-3.59-20.23-5.63-22.28Z"/>
      <path class="st3" d="M128.34,368.18c.26-.77,7.68-8.71,11.27-5.12s6.15,9.73,2.56,11.01-13.83-5.89-13.83-5.89Z"/>
      <path class="st0" d="M146.01,387.39s-4.35-3.07-2.3-4.61,3.84.26,2.3,4.61Z"/>
      <path class="st5" d="M144.75,385.06s-.67-2.54.4-1.74.13,1.6-.4,1.74Z"/>
      <path class="st0" d="M119.66,379.32s-6.94-10.68-6.67-8.81,2.8,6.67,6.67,8.81Z"/>
    </g>
    <path class="st4" d="M842.63,368.76s73.37-22.3,199.37-32.03,389.49-5.73,389.49-5.73v168l-588.86-130.24Z"/>
    <polygon class="st4" points="623.83 282.8 535.37 368.76 574.2 368.76 623.83 282.8"/>
    <path class="st2" d="M842.63,210.54s28.3-34.97,38.83-54.75-16.54-44.82,0-51.8,58.54-11.91,121.54,3.56c63,15.46,57,3.63,71,21.55s35,18.58,81,22.75,102,28.5,135,33.33,49-7.61,79-16.89,62.49-12.49,62.49-12.49c0,0,4.49,124.82,0,127.02s-554.49-16.8-554.49-16.8l-34.37-55.46Z"/>
    <path class="st4" d="M877.07,107.54s82.93-10.13,116.93,7.66,32,23.02,70,34.41,54,17.75,89,18.67c40.87,1.07,188.34,34.52,151.68,16.89,0,0-128.68-43.8-146.68-41.99s-53.92-10.18-67.46-18.18c-13.54-8-16.54-18.03-36.54-21.02s-45-9.57-81-14.78-95.93,18.33-95.93,18.33Z"/>
    <path class="st4" d="M818.26,210.54s65.74,113.36,71.74,115.24,13.33,7.38,13.33-1.37-16.67-10.75-17.33-43.75-2.27-131.88-2.27-131.88c0,0-28.46,41.87-41.09,48.38s-24.38,13.38-24.38,13.38Z"/>
    <path class="st4" d="M934,136.29c4.67-1.29,9.33,4.41,9.33,6.89s2.67,105.82,0,99.82-1.48-88.44-4.07-94.22-5.26-12.49-5.26-12.49Z"/>
    <path class="st4" d="M972,143.18s11.33,123.11,15.33,139.8,4.67,19.56,4.67,19.56c0,0-10.67-91.23-10-105.38s-10-53.98-10-53.98Z"/>
    <path class="st4" d="M1006.67,177.29s-7.33,26.37,0,47.71c7.33,21.33,15.38,45.92,15.38,45.92,0,0-6.59-40.2-9.32-48.06-2.73-7.86,0-45.57,0-45.57v-9.63l-6.06,9.63Z"/>
    <path class="st4" d="M1090.54,165s12.79,14,22.79,14.67,8.67-2.67,10,.67c1.33,3.33-4,3.67-8,16.5s-4.59,52.16-8.29,52.16-.32,9.17-6.35-5.75c-6.03-14.92-10.16-78.25-10.16-78.25Z"/>
    <path class="st2" d="M1100.69,193.76s4.64-.5,8.64,0-2.29,67.36-2.29,67.36l-6.35-67.36Z"/>
    <path class="st2" d="M617.06,368.76s-6.02,10.88-31.11,18.84l-25.09,7.96s93.22-18.66,97.93-26.81-8.31-14.43-8.31-14.43l-33.42,14.43Z"/>
    <g>
      <path class="st5" d="M196.69,469.32s-4.99,15.14-5.5,19.44.17,25.46.17,28.55,4.47,18.06,8.43,17.72,4.47-3.44,5.68-8.26c1.2-4.82,2.24-14.79,3.1-16.68s7.22-23.39,7.22-23.39l-19.09-17.37Z"/>
      <path class="st2" d="M214.07,486.18s-4.99,19.61-6.71,24.6c-1.72,4.99-1.38,20.64-5.85,21.33s-8.77-13.59-9.12-15.48,0-27.87,2.41-34.92,4.13-10.49,4.13-10.49l15.14,14.96Z"/>
      <path class="st6" d="M245.03,517.48s-1.55,4.82-2.41,6.88-.86,5.68-.86,5.68c0,0-1.38.86-.86,2.06s16.17,2.92,19.26,1.55,4.13-3.61,4.13-3.61c0,0,6.19,1.89,9.29,1.03,0,0,1.38-.17.17,2.41s-2.92,3.44-1.89,5.16,2.41,7.57,6.36,7.4,7.22-9.98,10.84-9.29,27.52,3.27,35.09,1.55c0,0-22.53-8.94-22.88-12.38-.34-3.44,4.3-23.39,4.47-27.52.17-4.13-3.27-12.04-9.63-11.18s-10.49,2.92-10.49,2.92c0,0-.52-8.26-6.02-14.79-5.5-6.54-26.32-22.53-30.45-24.08-4.13-1.55-18.75-9.12-23.39-13.07s-24.08-20.3-24.77-22.36.86-5.85.86-5.85l-21.5,9.98s-2.58,12.56,0,18.92,4.47,18.23,17.89,33.71c13.42,15.48,46.79,44.89,46.79,44.89Z"/>
      <path class="st5" d="M225.08,540.7s-.86-3.96,4.47-5.16,8.94-1.03,13.07-3.27,2.92-6.19,6.02-6.36,8.43,1.03,8.94,3.78-2.75,9.98-9.46,11.7-12.21-.69-15.31-.17-6.36,2.58-6.02,1.2,1.38-2.41,1.38-2.41c0,0-4.64,2.75-3.1.69Z"/>
      <path class="st5" d="M253.11,547.24s2.58-5.33,7.57-6.02,6.02-.52,9.8-1.89,3.44.86,7.91.86,6.71-.69,6.71-.69c0,0-1.03,5.68-6.71,7.22s-13.93,1.38-13.93,1.38c0,0-6.02,1.55-6.02.17v-1.38s-6.54,1.2-5.33.34Z"/>
      <path class="st5" d="M294.39,527.46s-1.89-2.92,4.47.52c6.36,3.44,14.79,9.12,23.05,11.01s20.12,1.38,22.53.52.86-2.75.17-2.92-.17,0-1.2-3.27-12.38-7.91-16.51-11.01c-4.13-3.1-15.65-4.64-15.48-13.59.17-8.94,2.75-28.38,1.2-36.98s-14.62-40.08-39.56-59.51c0,0-19.26-13.76-41.8-16.51,0,0-13.76-4.13-21.84-5.33-8.08-1.2-20.81-9.63-33.89,5.16,0,0-4.3,9.63-9.63,11.7s-9.98,9.98-8.77,11.01c0,0,8.94-5.33,12.56-4.64s7.57,6.19,13.24,6.71,17.03-3.96,18.58-8.26c0,0-2.41,3.44-.69,6.88s14.1,12.21,18.75,15.65,11.52,11.18,8.43,24.42c-3.1,13.24-7.4,24.08-7.4,38.36s2.24,30.62,8.6,35.78,7.57,2.41,7.57-1.2-.17-24.08,3.1-30.79c3.27-6.71,2.75-15.82,4.99-18.75,2.24-2.92,4.99-11.87,4.47-16s-.34-12.21-.34-12.21c0,0,24.08,16.17,29.07,27.52,4.99,11.35,5.33,12.04,10.66,10.84s13.42-3.1,13.59,4.47c.17,7.57-6.02,25.11-8.08,27.35s-7.74,10.84-7.91,12.21,4.47,1.2,4.47,1.2c0,0,3.27-9.12,3.61-10.32Z"/>
      <path class="st3" d="M200.31,397.59s5.5-10.32,9.63-4.3,0,13.24-3.61,16.17-5.33,3.27-4.82,2.58,1.55-3.78.17-6.36c-1.38-2.58-1.38-8.08-1.38-8.08Z"/>
      <path class="st3" d="M164.19,413.07s7.91-6.54,20.12-3.78c0,0-11.01,2.41-14.28,3.1s-5.85.69-5.85.69Z"/>
      <path class="st0" d="M184.65,404.13s.17-.69,1.55-1.03,4.64-.52,4.82.52-6.19,3.96-6.36.52Z"/>
      <path class="st5" d="M185.69,404.3s3.27-1.72,2.75-.17-2.75.17-2.75.17Z"/>
    </g>
    <path class="st5" d="M125.36,532.16s-8.86,5.06-2.53,5.7,10.76-3.16,10.76-3.16l20.25-.63s2.21,4.11,4.43,2.85,2.53-6.01,1.58-6.01-34.49,1.27-34.49,1.27Z"/>
    <g>
      <path class="st0" d="M126.87,464.04l.23,5.44s-5.21,3.59-11.58,18.19c-6.37,14.6-7.18,18.65-5.91,19.58s3.48-.46,3.48-.46c0,0-4.63,10.19-4.52,17.03.12,6.84,5.1,12.74,12.98,11.47l7.88-1.27s2.9,4.29,13.09,3.59,14.6-4.17,14.6-4.17c0,0,8.92,3.24,13.9-1.51s-1.39-26.18-1.39-26.18c0,0,3.24,3.01,3.48-.12s-5.91-21.9-9.96-28.61c-4.05-6.72-7.65-8.8-8.92-9.96l-1.27-1.16s-2.2-10.08-4.98-13.44c-2.78-3.36-6.72-5.21-13.32-2.2-6.6,3.01-6.02,8.23-7.76,13.79Z"/>
      <path class="st5" d="M125.48,433.81s-4.29,5.33-4.05,12.16,6.14,15.76,6.14,15.76c0,0,2.55-8.34,5.33-9.85s12.05-3.24,13.44-1.04l-2.09-4.63s3.48-5.1,5.21-6.37,2.32-2.66,2.32-2.66c0,0,3.94-1.51,3.59-2.43s-2.2-2.09-4.52-1.97c0,0-10.54-5.33-13.67-5.21s-9.5,2.43-11.7,6.26Z"/>
      <path class="st4" d="M135.44,449.1s-3.13.58-3.24-2.09-2.09-6.14-1.97-8.11,1.85-7.99,7.18-7.76c5.33.23,6.95.58,7.76,3.13s-.7,3.71-.35,4.98,3.82,1.27,3.82,1.27c0,0-2.2,8.34-3.82,8.46s-3.82-.35-5.33-.12-4.05.23-4.05.23Z"/>
      <path class="st6" d="M135.21,437.51s1.16-3.36,3.71-3.01,3.71,1.85,3.48,3.24-2.2,2.2-4.05,2.2-3.82-1.74-3.13-2.43Z"/>
      <path class="st5" d="M137.41,437.4s1.16-2.2,2.32-1.27,1.39,1.74-.12,2.32-2.78,0-2.2-1.04Z"/>
      <path class="st5" d="M161.04,482.93s2.78,7.3,4.29,11.47,2.43,6.02,2.43,6.02c0,0-7.53-15.52-6.72-17.49Z"/>
      <path class="st5" d="M124.43,481.31s-4.05,12.05-6.37,15.76l-2.32,3.71s6.26-15.18,8.69-19.46Z"/>
    </g>
    <g>
      <path class="st5" d="M323.61,399.66s1.6-2.03,4.38-2.24,10.03-.32,13.13-1.07,13.55-5.66,16.86,8.11,2.03,17.18,15.37,17.08c13.34-.11,42.9.21,55.71,6.72,12.81,6.51,16.44,10.03,19.96,9.5s2.77-1.92,7.15-1.6,6.62,1.49,9.71,1.07c3.1-.43,11.31-1.17,11.74-2.56s.96-1.28.96-1.28c0,0,1.28.11,1.28,1.28s-6.4,6.72-8.97,7.15-7.9,3.2-7.9,3.2c0,0,7.68,2.13,8.22,2.77s3.63,2.99-.43,4.59-10.46,2.24-12.7,2.03-6.62,1.81-6.62,1.81c0,0,1.81,3.2-3.1,4.38s-10.99.75-10.99.75l-83.57-16.33s-9.71-19.32-9.71-19.64-1.28-6.83-.64-8.64-.75-7.26-2.99-9.18-9.5-7.47-11.21-7.68-5.66-.21-5.66-.21Z"/>
      <path class="st6" d="M431.94,444.38s.21-1.28,3.63-.96,7.58,1.07,12.7-.43,5.02-1.07,10.99-2.03,8.86-3.95,9.18-1.07-3.2,5.76-3.2,5.76c0,0,1.28,0-.21,1.17s-7.58,2.67-7.04,4.38,2.24,2.45.96,3.2-3.2.85-3.2.85c0,0-2.13,3.95-5.02,4.38s-2.24-1.6-5.34-.75-2.03,1.81-2.35,2.35-57.95,3.84-73.21,1.71-23.48-8.64-25.72-19-.64-27.22-.64-27.22c0,0,2.67,2.03,3.42,1.28s.75-6.83.75-6.83l5.98-.11s3.63,1.71,3.52,7.47c-.11,5.76-2.56,12.91-2.56,12.91,0,0-4.48-9.39-5.98-7.79s-.96,12.27,4.16,16.12,12.91,6.62,21.77,5.87c8.86-.75,13.55-2.13,18.57.43s17.18,9.5,28.6,6.94c11.42-2.56,12.49-5.76,11.74-7.04s-1.49-1.6-1.49-1.6Z"/>
      <path class="st3" d="M347.62,406.17s1.6-.64,3.2.96,2.77,3.95,2.77,3.95c0,0-5.76,3.63-6.08,2.35s-.53-7.04.11-7.26Z"/>
      <path class="st3" d="M327.88,399.13s3.1-.96,5.87.43,4.06,3.31,3.63,3.1-8.43-3.74-9.5-3.52Z"/>
      <path class="st0" d="M340.05,399.88s2.13-1.49,3.31.11-2.88,1.17-3.2.96-.11-1.07-.11-1.07Z"/>
      <path class="st5" d="M341.01,399.98s1.49-.75,1.49.11-1.49-.11-1.49-.11Z"/>
    </g>
    <path class="st2" d="M708.42,69.03s48.58,62.03,59.08,79.75-2.27,4.55,18.12,22.88,34.88,26.99,49.88,55.66,57.36,101.35,54.5,98.45-151.53-144.28-166.97-155.78c-15.44-11.5-29.2-8.44-29.2-8.44l14.59-92.52Z"/>
    <path class="st6" d="M842.63,368.76s-35.35,1.76-42.87,0-28.52-41.26-36.77-53.26-50.42-88.5-54.58-90.5-31.56,40.2-31.56,40.2l2.99-50.65s-.77-27.44,5.81-38.85,7.59-18.38,13.84-19.91,18.11-3.56,49.18,50.25,87.07,132.46,92.07,142.46,20.05,15.45,20.05,15.45c0,0-17.01,4.76-18.16,4.81Z"/>
    <path class="st2" d="M717.75,214.55s11.75,5.95,18.25,17.45,31.75,52.75,40.75,67.5,13.75,23.75,13.75,22.5-30-53.75-36.38-67.75-20.62-42.15-36.38-39.7Z"/>
    <path class="st6" d="M689.57,315.44s9.93-5.94,14.68-2.69,9.76,16.47,9.76,16.47l-5.59-46.42s-15.77,18.32-18.84,32.63Z"/>
    <path class="st6" d="M649,274.25s-12.75,21.5-23.75,37.75-36.25,46.75-36.25,46.75c0,0,7.75-.5,11.25-2.5s50.25-74.75,48.75-82Z"/>
    <path class="st6" d="M712.83,230.8s-1.85-7.65-16.49,12.45c-14.65,20.1-70.03,109.49-70.03,109.49,0,0,41.38-84.86,45.5-94.33s8.42-73.28,11.56-78.75,33.01,34.23,29.46,51.13Z"/>
    <path class="st6" d="M587.39,363.3c3.29-.7,10.29,0,10.29,0,0,0-18.12,13.3-27.18,19.47-9.06,6.18-18.94,6.58-18.94,6.58,0,0,25.99-16.57,28.03-19.81s7.8-6.25,7.8-6.25Z"/>
    <path class="st6" d="M271.56,340.31l1.02-3.89s-5.68,7.12-5.25,9.63,2.09,5.41,2.09,5.41l2.13-11.15Z"/>
    <path class="st6" d="M273.35,344.27s-.77-3.81-.65-4.97,1.04-4.39,1.04-4.39c0,0-5.54,6.31-6.24,9.82l5.85-.45Z"/>
  </g>
  <g id="Vrstva_4">
    <path class="st2" d="M664.72,651.48s10.78,20.07,53.03,12.3,123.84-25.27,143.05-27.52,589.2,33.75,589.2,33.75v59.5H-16.04v-14.38l680.77-63.63Z"/>
    <g>
      <path class="st2" d="M872.56,645.78s-77.74,5.44-63.04,18.66.61,2.4,80.91,14.72c80.3,12.32,94.23,34.39,272.75,17.95,178.52-16.45,211.3-27.52,198.66-22.73s-489.28-28.6-489.28-28.6Z"/>
      <path class="st0" d="M763.24,517.35s-12.44-51.99,10.22-72.43,61.33-19.58,86.66-20.23,56.44-4.21,75.55-8.65,99.99-13.78,176.42-6.67c76.43,7.11,124.87,20.44,143.09,21.77s38.52,4.44,38.52,4.44v199.08s-26.53,37.33-86.07,47.55-112.87,14.66-131.98,12.44c0,0-35.11,5.12-78.21.56-43.11-4.56-106.65-18.34-147.54-56.11-40.88-37.77-79.54-86.66-86.66-121.76Z"/>
      <path class="st5" d="M1020.98,441.36s4.89,13.33,24,19.55c19.11,6.22,24.44,1.78,53.77,16.89,29.33,15.11,99.54,68.44,110.65,68.88s10.67-19.19-4-37.59c-14.66-18.4-73.77-57.95-93.77-67.73l-20-9.78s33.77,9.78,69.77,33.77c36,24,62.21,51.99,59.55,70.66-2.67,18.66-4.89,19.86-16.44,15.93s-84.43-63.92-112.87-73.26-43.11-8.44-53.33-12.89c-10.22-4.44-17.33-24.44-17.33-24.44Z"/>
      <path class="st5" d="M986.76,664.44s-10.67-6.22,22.22-11.55c32.88-5.33,56.88-2.67,62.21-3.56s125.32-87.1,130.65-75.1c5.33,12-9.78,34.22-9.78,34.22,0,0,18.66-19.55,14.66-33.33-4-13.78-33.77,6.22-80.43,34.22-46.66,28-55.1,36.44-57.77,36.44s-74.4-1.78-83.42,5.78c-9.01,7.55,1.65,12.89,1.65,12.89Z"/>
      <path class="st1" d="M1059.64,689.77c1.78-.44,30.22-7.55,50.22-17.33,20-9.78,53.33-34.66,53.33-34.66,0,0-36,31.11-54.66,39.99-18.66,8.89-48.88,12-48.88,12Z"/>
      <path class="st1" d="M992.1,632.44s26.66-6.22,40.88,0c14.22,6.22,35.55,13.33,35.55,13.33,0,0-12.89-15.11-32.88-18.22-20-3.11-43.55,4.89-43.55,4.89Z"/>
      <path class="st1" d="M1003.21,640s19.11-6.67,27.11-2.22,5.78,4.44,5.78,4.44c0,0-16.89-8-32.88-2.22Z"/>
      <path class="st1" d="M987.65,428.92s-6.67,3.88,0,12.6c6.67,8.73,11.07,11.84,11.07,11.84,0,0-9.29-11.21-9.73-14.94-.44-3.73,2.72-6.84,2.72-6.84,0,0,.84-3.11-4.05-2.67Z"/>
      <path class="st1" d="M906.99,489.42s14.67,35.33,3.33,55.33c-11.33,20-35,25.14-43.67,25.9l-8.67.77s46.26,10.33,56.63-27.33c10.37-37.67-7.63-54.67-7.63-54.67Z"/>
      <path class="st1" d="M903.32,502.42s6.67,26,1.67,36-15.67,19.33-15.67,19.33c0,0,17-6,19.67-23,2.67-17-5.67-32.33-5.67-32.33Z"/>
      <path class="st1" d="M792.99,544.09s15.33,12.33,25.33,16l10,3.67s-13-7-22.67-14-11.67-9-15.33-10.33l-3.67-1.33s3.91,4.12,6.33,6Z"/>
      <path class="st1" d="M852.32,431.58s13.67,1.23,20.67,9.53,8.67,9.64,8.67,9.64c0,0-12.67-24.01-29.33-19.17Z"/>
      <path class="st1" d="M784.32,515.75s-5.67-12.33,2.33-13.33,12.67-.33,14,6.67-10,14.33-16.33,6.67Z"/>
      <path class="st1" d="M857.99,475.75s3.67-11,11.67-7.33,7,13.33,2,15.33-12.67-2.67-13.67-8Z"/>
      <path class="st1" d="M813.32,505.42s30-19,40-19.67,19-.33,25,11.67,7.67,21,4.33,26.67-14.67,14.33-24.67,12c0,0-15.67,18-31.67,12.33,0,0-11-5.04-15.33-17.35s2.33-25.65,2.33-25.65Z"/>
      <path class="st1" d="M840.66,544.09s6.33,10.03,15,9.68,19.65-3.14,18-11.68-2.33-12-2.33-12l-30.67,14Z"/>
      <path class="st5" d="M845.32,519.02s-15.33-1.04-19-8.48,9.67-16.6,19-17.86,12,3.67,12.67,9.38-6.67,15.49-6.67,15.49l6.67,18.55s8.68,3.23,11.17-1.22-1.17,10.63-9.51,12.29-15.06-.74-15.06-.74c0,0,8.06-3.67,8.73-8.33s-1-3.79-1-3.79l-7-15.28Z"/>
      <path class="st5" d="M840.66,509.09c-1.33,0-5.67-7.07-7.67-7.04s-2.33,5.04,0,7.04,7.67,0,7.67,0Z"/>
      <path class="st5" d="M847.82,507.42s-3.51-13.67,0-12.67,2.83,9.33,0,12.67Z"/>
      <path class="st5" d="M820.66,523.75s-18.75,9.9-23.21,19.95-3.46,20.05-3.46,20.05c0,0,2.33-18.65,9.67-25.67s17-14.33,17-14.33Z"/>
      <path class="st5" d="M836.01,527.42c-2.35,0-12.35.33-16.69,10.67s-3.67,23-3.67,23c0,0,2-21.33,8-26s12.35-7.67,12.35-7.67Z"/>
      <path class="st5" d="M865.32,512.42s26.78-5.12,34.1,6.6c7.32,11.72,5.24,8.4,5.24,8.4,0,0-4.67-7.43-9.33-9.88-4.67-2.45-9-5.12-30-5.12Z"/>
      <path class="st5" d="M869.93,502.05s14.39-6.35,26.72-.99,14.67,8.03,14.67,8.03c0,0-13.61-6.62-23.41-8.03-9.8-1.41-17.98.99-17.98.99Z"/>
      <path class="st5" d="M866.76,507.42s12.87-13.14,29.56-11c16.69,2.14,17.78,4.64,17.78,4.64,0,0-25.23-9.97-47.34,6.36Z"/>
      <path class="st5" d="M828.32,525.75s-21.56,3.56-32.48,11.95c-3.64,2.8-6.1,6.13-6.18,10.05-.33,15.67,0,10,0,10,0,0-.08-14.76,9.67-19.67s29-12.33,29-12.33Z"/>
      <path class="st1" d="M846.26,561.09s9.28,4,20.51,1.33c11.23-2.67,13.23-12.9,13.23-12.9,0,0-.13,25.56-33.73,11.56Z"/>
      <path class="st5" d="M785.32,509.98s-2.51-2.84,6.25-2.56,4.59,9.66,0,10.12-8.09-5.23-6.25-7.56Z"/>
      <path class="st5" d="M861.66,475.95s-.75-2.84,5.11-4.2c5.86-1.36,7.98,4.21,4.89,8.33s-8.85.71-10-4.14Z"/>
      <path class="st4" d="M786.66,511.31l4.91-.77s-4.38,4.14-4.91.77Z"/>
      <path class="st4" d="M865.32,476.74l4.61-.79s-2.7,4.49-4.61.79Z"/>
      <path class="st1" d="M783.49,504s2.67-5,13.2-5.09,16.63,6.51,16.63,6.51c0,0-3.43,11.39-3.21,10.24s-4.98-17.48-20.61-11.66h-6.02Z"/>
      <path class="st1" d="M850.04,484.05c.75-.94,7.06-16.22,15.28-16.26,0,0-9.22,11.34-8.08,17.78l-9.01,3.85,1.82-5.37Z"/>
      <path class="st5" d="M781.16,504s6.07-9.47,15.54-7.81,10.8,5.17,10.8,5.17c0,0-12.08-5.44-26.33,2.64Z"/>
      <path class="st5" d="M853.69,477.58s3.58-15.02,17.33-11.35l1.54.85s-8.21-1.82-18.88,10.5Z"/>
      <path class="st5" d="M878.63,572.37s26.21-.21,34.11-22.85c0,0-5.66,14.48-34.11,22.85Z"/>
    </g>
    <g>
      <path class="st2" d="M452.68,687.97s-23.02,25.47-40.86,32.6c-17.84,7.13-56.18,8.03-56.18,8.03l-291.63.89,388.67-41.52Z"/>
      <path class="st2" d="M313.16,717.25c4.5,0,97.5-6,119.99-15,22.5-9,30-19.5,30-19.5,0,0,122.99,36,170.99,19.5s28.5-64.5,28.5-64.5l-347.98,22.5-1.5,57Z"/>
      <g>
        <path class="st0" d="M122.66,566.49s21.46-8.91,46.57-13.77,47.78-31.18,126.75-40.49,112.98-6.48,112.98-6.48c0,0,24.3-12.96,25.51-21.46,1.21-8.5,9.31-75.32,37.66-93.95,28.35-18.63,34.42,1.21,33.61,19.84-.81,18.63-17.01,70.86-4.86,81.8s28.75,23.49,47.78,20.65c19.03-2.83,22.68-4.45,29.56-3.24l6.88,1.21s25.11-21.46,55.88-17.41c30.78,4.05,64.38,32.39,61.96,76.13s-19.84,47.78-27.13,57.1-6.88,38.47-30.37,54.67c-23.49,16.2-55.48,17.01-101.64,13.77s-49.81-5.26-56.69-4.86c-6.88.4-36.04,7.29-34.42-2.02,0,0-108.93,17.01-221.1,22.27s-108.93,4.86-108.93,4.86v-148.61Z"/>
        <path class="st1" d="M491.96,557.18s19.44,29.56,23.49,44.14-2.02,25.51,0,25.51,21.63,1.54,20.43,1.21-11.12-17.37-18.41-35.41c-7.29-18.04-16.2-28.57-17.82-33.83s-2.83-17.41-5.67-15.39-2.02,13.77-2.02,13.77Z"/>
        <path class="st1" d="M499.66,685.54s23.89-11.74,42.52-6.07c18.63,5.67,36.44,9.72,44.14,10.12l7.69.4s-36.04.81-47.18-3.64-17.74-7.56-47.18-.81Z"/>
        <path class="st1" d="M443.37,502.92s-2.83,9.72,15.39,10.93c18.22,1.21,23.89,0,23.89,0,0,0-27.54,5.13-36.85.54s-2.43-11.47-2.43-11.47Z"/>
        <path class="st1" d="M472.12,585.64s8.5,10.01,8.5,22.16v12.15s6.48-12.55,2.02-22.68-10.53-11.63-10.53-11.63Z"/>
        <path class="st1" d="M544.2,532.07s-11.74,11.34-6.88,32.8c4.86,21.46,2.85,27.54,2.85,27.54,0,0-7.31-25.11-7.31-37.66s5.26-23.08,11.34-22.68Z"/>
        <path class="st1" d="M573.76,526.4s-10.12,17.82-11.34,29.16,0,20.65,0,20.65c0,0-7.69-35.63,11.34-49.81Z"/>
        <path class="st1" d="M605.41,512.71s-4.52-7.36,3.57-9.79,18.63-.39,19.44,6.69-4.86,9.56-6.07,10.14-16.94-7.04-16.94-7.04Z"/>
        <path class="st5" d="M607.37,509.61s3.75-5.48,8.96-3.05,7.2,9.74,7.2,9.74c0,0-7.49,1.13-16.16-6.69Z"/>
        <path class="st1" d="M551.89,598.89s2.43,14.98,13.77,18.63c11.34,3.64,29.56-5.67,37.25-9.31s24.3-23.08,26.73-29.97c2.43-6.88,14.98-27.54,10.53-40.09-4.45-12.55-19.03-31.18-37.25-24.7-18.22,6.48-26.73,19.84-24.3,27.13l2.43,7.29s0,10.03-4.86,17.36-27.6,24.41-24.3,33.66Z"/>
        <path class="st1" d="M605.34,623.48c1.66-.37-26.73.1-31.59-3.54,0,0,1.62,10.32,31.59,3.54Z"/>
        <path class="st1" d="M638.55,639.79c2.46-.02-41.4-4.97-48.96-14.03l-5.7-2.28s.4,16.71,54.67,16.3Z"/>
        <path class="st1" d="M635.46,534.1s20.1-5.67,26.98,5.67c6.88,11.34,10.93,26.32,2.83,31.99-8.1,5.67-20.65-8.5-21.46-14.17s.4-14.4.4-14.4l-8.76-2.61v-6.48Z"/>
        <path class="st5" d="M649.89,546.65s4.45,14.08,8.5,18.58,5.67-6.94,1.62-12.35c-4.05-5.41-10.12-6.22-10.12-6.22Z"/>
        <path class="st4" d="M656.12,551.31s6.32,4.3,4.29,9.11-4.29-9.11-4.29-9.11Z"/>
        <path class="st4" d="M609.8,509.61s6.7-1.22,9.63,4.46l-9.63-4.46Z"/>
        <path class="st5" d="M583.88,546.65s4.05,2.02,8.1,0c0,0,6.93,17.41,12.17,23.89,5.24,6.48,12.18,10.53,12.18,10.53,0,0,2.69,10.12-1.72,13.36s-27.09,17.82-38.83,15.39-20.08-8.91-14.9-15.79c5.18-6.88,10.85-12.15,17.33-17.82s11.53-8.91,10.01-14.78-4.35-14.78-4.35-14.78Z"/>
        <path class="st5" d="M614.61,519.75s6.93,2.61,11.38,9.49c4.45,6.88-11.64,13.36-14.73,11.74s-3.9-3.64-3.9-3.64l-14.42,11.66-.96-2.34-2.39.77,14.57-11.3s-5.69-.43-5.29-4.06,7.25-18.19,15.75-12.31Z"/>
        <path class="st1" d="M660.82,619.94s13.77-4.32,17.82-9.85l4.05-5.54s-3.25,18.22-21.87,15.39Z"/>
        <path class="st1" d="M616.33,581.07s27.25-6.4,25.47-31.6-18.07-32.32-18.07-32.32l9.16,38.18-16.57,25.74Z"/>
        <path class="st5" d="M597.26,525.04s-3.82-7.64-14.25-8.91c-10.43-1.27-25.71,3.31-25.71,3.31,0,0,25.71-6.87,39.96,5.6Z"/>
        <path class="st5" d="M624.75,543.37s12.22,7.13,15.78,20.11c3.56,12.98.25,21.63.25,21.63,0,0,5.6-20.11-16.03-41.74Z"/>
        <path class="st5" d="M559.85,528.6s22.4-6.11,30.8.76l8.4,6.87s-11.71-11.2-39.19-7.64Z"/>
        <path class="st5" d="M615.84,547.18s8.91,7.13,14.51,20.11-2.04,33.85-2.04,33.85c0,0,10.94-26.21-12.47-53.96Z"/>
        <path class="st5" d="M644.22,543.19s8.53-2.11,13.87,2.47,6.11,9.16,6.62,5.85-10.69-16.4-20.49-8.32Z"/>
        <path class="st5" d="M625.51,517.15s2.29-7.13-1.78-9.67-4.33-3.82-2.55-3.82,9.16,3.31,4.33,13.49Z"/>
        <path class="st5" d="M590.65,547.18s-12.73-2.55-12.47-8.14c0,0,1.53,11.45,12.47,8.14Z"/>
        <path class="st5" d="M593.19,548.2s10.43,22.14,18.58,25.45c8.14,3.31,14.25,2.8,14.25,2.8,0,0-4.84,13.23-10.43,17.31s-26.47-40.72-22.4-45.56Z"/>
        <path class="st5" d="M460.78,656.79s25.11-31.18,61.96-26.32c36.85,4.86,54.26,24.3,72.08,29.56s31.18,4.05,35.63,11.74l4.45,7.69s4.86-13.77-14.17-17.82c-19.03-4.05-6.48,2.02-47.38-18.63-40.9-20.65-97.59-36.04-112.57,13.77Z"/>
      </g>
      <path class="st0" d="M122.66,566.49c-4.24,1.58-97.88,35.47-128.21,64.01-30.32,28.54-49.05,50.83-49.05,50.83,0,0,10.7-12.49-65.1-.89s-87.91,48.57-87.91,48.57c0,0,380.43-7.54,510.63-23.6,130.21-16.05-180.37-138.92-180.37-138.92Z"/>
    </g>
    <path class="st0" d="M452.68,687.97s-146.98,29.04-214.76,35.28-140.02,5.35-140.02,5.35l-305.52.41,411.64-87.81,248.65,46.77Z"/>
    <path class="st0" d="M1293.7,435.58s129.3,25.63,156.3,43.02v191.39l-242.38,12.22,86.07-246.63Z"/>
  </g>
</svg>