<?xml version="1.0" encoding="UTF-8"?>
<svg id="Vrstva_1" xmlns="http://www.w3.org/2000/svg" xmlns:xlink="http://www.w3.org/1999/xlink" version="1.1" viewBox="0 0 283.46 283.46">
  <!-- Generator: Adobe Illustrator 29.7.1, SVG Export Plug-In . SVG Version: 2.1.1 Build 8)  -->
  <defs>
    <style>
      .st0, .st1 {
        fill: none;
      }

      .st2 {
        fill: #502e27;
      }

      .st1 {
        stroke: #e2e2e1;
        stroke-miterlimit: 10;
        stroke-width: .41px;
      }

      .st3 {
        fill: #bf704c;
      }

      .st4 {
        fill: #844c40;
      }

      .st5 {
        clip-path: url(#clippath-1);
      }

      .st6 {
        letter-spacing: 0em;
      }

      .st7 {
        letter-spacing: 0em;
      }

      .st8 {
        fill: #fafafa;
      }

      .st9 {
        fill: #724033;
      }

      .st10 {
        fill: #040505;
      }

      .st11 {
        fill: #e2e2e1;
      }

      .st12 {
        fill: #faf7f7;
      }

      .st13 {
        fill: #5c5a5a;
      }

      .st14 {
        fill: #2d2d2d;
      }

      .st15 {
        letter-spacing: 0em;
      }

      .st16 {
        letter-spacing: 0em;
      }

      .st17 {
        fill: #1d1d1b;
        font-family: SebastianTextPro-Bold, 'Sebastian Text Pro';
        font-size: 20px;
        font-weight: 700;
      }

      .st18 {
        letter-spacing: 0em;
      }

      .st19 {
        letter-spacing: 0em;
      }

      .st20 {
        clip-path: url(#clippath);
      }

      .st21 {
        fill: #59342f;
      }

      .st22 {
        letter-spacing: .03em;
      }

      .st23 {
        letter-spacing: 0em;
      }
    </style>
    <clipPath id="clippath">
      <rect class="st0" width="283.46" height="283.46"/>
    </clipPath>
    <clipPath id="clippath-1">
      <rect class="st0" x="19.84" y="19.84" width="243.78" height="243.78"/>
    </clipPath>
  </defs>
  <g class="st20">
    <rect class="st3" x="19.84" y="19.84" width="243.78" height="243.78"/>
    <polygon class="st12" points="190.26 149.03 194.9 145.53 164.34 147.28 160.97 152.26 190.26 149.03"/>
    <g class="st5">
      <path class="st1" d="M226.23,114.79s27.73-6.73,37.71-.4"/>
      <path class="st1" d="M226.07,113.2s19.95-11.42,41.84.03"/>
      <path class="st1" d="M225.4,108.13s23.62-21.56,42.02-20.35"/>
      <path class="st1" d="M224.88,105s19.27-18.02,31.19-14.77"/>
      <path class="st1" d="M224.29,104.49s28.38-31.54,52.94-22.3"/>
      <path class="st1" d="M225.82,110.68s18.25-10,29.44-1.41c11.19,8.59,12.16,9.21,12.16,9.21"/>
      <path class="st1" d="M265.23,114.14c-13.62-3.24-39.41.65-39.41.65,0,0,9.25,1.86-11.42,37.94"/>
      <path class="st1" d="M225.82,118.48s25.87-1.42,27.41,25.74"/>
      <path class="st1" d="M225.4,122.49s15.67,3.97,19.24,20.35"/>
      <path class="st1" d="M225.82,116.09s11.76-1.95,8.6,21.65c-3.16,23.59-3.16,22.94-3.16,22.94"/>
      <path class="st1" d="M224.88,125.57s11.73,9.81,11.33,24.16l-.4,14.35"/>
      <path class="st1" d="M225.67,109.11s19.86-4.7,12.16,16.46c-7.7,21.16-6,17.27-6,17.27"/>
      <path class="st9" d="M18.61,200.94s11.88-3.82,14.07-6.56,16.73-10.66,17.82-10.66,2.49-2.19,3.58-10.11c1.09-7.93,5.75-114.28,64.26-124.12,0,0,45.66-1.64,55.23,0,0,0,10.12-10.66,14.77-11.48,4.65-.82,4.92.27,4.92,1.91s10.12,18.86,8.48,25.97c0,0,5.19,12.85,6.29,13.67,1.09.82,14.22,12.03,16.4,22.69,2.19,10.66,3.28,22.69-2.19,27.61-5.47,4.92-30.89,12.85-30.89,12.85l-56.87,17.22-23.24-12.85,11.27,71.63-2.25,46.75-43.47,62.32-16.4,15.17H18.61v-142.01Z"/>
      <path class="st12" d="M82.82,342.95s22.15-19,25.97-23.37c3.83-4.37,69.44-75.45,77.1-155,0,0,2.73-14.21,4.37-15.58,1.64-1.37-34.72,1.37-34.72,1.37,0,0-17.17-1.04-18.97-1.75s-18.21-11.65-20.39-11.92c-2.19-.27-7.11-10.12-12.3-7.93-5.19,2.19-3.55,9.3-2.19,9.84,1.37.55,6.44,15.79,9.02,18.59,2.58,2.8-12.58,9.57-16.13,9.57s4.1,11.76,4.92,13.4c.82,1.64-1.91,11.48,2.19,11.76,4.1.27,11.21,21.87,7.93,30.07-3.28,8.2-5.47,21.31-3.28,24.59,2.19,3.28-49.76,86.54-48.39,96.36h24.88Z"/>
      <path class="st11" d="M119.18,126s9.57,11.52,14.22,11.79c4.65.27,25.15,3.01,26.52,5.47,1.37,2.46,2.19,4.92,3.28,4.92s24.88,0,34.17-1.91c9.29-1.91,18.54-10.59,19.27-11.05.8-.5,8.42-6.64,8.76-10.9,0,0-10.26,8.56-14.63,8.56,0,0-3.55,4.1-9.02,3.69-5.47-.41-19.7,8.88-31.04,2.87-11.34-6.01-25.01-2.87-25.01-2.87,0,0-25.97-6.23-26.52-10.57"/>
      <path class="st2" d="M152.66,100.06s.96-7.17,6.12-7.84c5.16-.67,9.66,2.2,10.09,3.2.43,1,2.58,4.4,2.77,4.83.19.43,3.63,5.12-1.72,7.17,0,0-2.58,3.11-8.94,3.54-6.36.43-9.8-5.54-8.32-10.9"/>
      <path class="st10" d="M154.71,104.79s-.38-7.7,2.39-9.08c2.77-1.39,5.88-1.72,7.79-.57,1.91,1.15,5.35,5.83,3.3,9.13-2.06,3.3-5.26,4.59-8.65,4.45-3.39-.14-4.83-3.92-4.83-3.92"/>
      <path class="st4" d="M225.94,111.79s-8.92-11.91-11.01-14.09c-2.1-2.18-8.76-14.46-8.76-14.46,0,0-.81-8.81-1.29-9.89-.48-1.09,2.31,6.05,3.5,6.37,1.28.34,3.72,3.87,3.21,4.72l2.67,3.53s2.02-.17,2.41-.12c.39.05,7.39,9.86,7.76,14.41.37,4.63,2.55,7.31,1.51,9.54"/>
      <path class="st2" d="M205.94,83.62s-.8-1.77,0-1.8c.8-.02,1.68.34,1.68.34l8.47,14.55s-.81,1.95-1.99.38c-1.18-1.57-8.16-13.47-8.16-13.47"/>
      <path class="st13" d="M156.91,101.97s-.57-5.59,1.39-6.31c1.96-.72,7.27-.72,8.37,3.15,1.1,3.87-1.96,3.54-1.96,3.54,0,0-4.59.88-4.92,0,0,0-2.82.28-2.87-.39"/>
      <path class="st10" d="M206.17,83.25s1.94-2.12,4.64-1.24c2.7.89,5.51,4.35,5.56,5.84.05,1.5.67,4.13,0,7.66-.67,3.54-3.2-.13-3.2-.13,0,0-6.53-11.38-7-12.15"/>
      <path class="st13" d="M208.11,83.43s3.44-.76,4.68.86c1.24,1.63,1.53,3.25,1.48,3.68s-3.01,1.54-3.3,1.49c-.29-.05-1.23-.37-1.23-.37l-2.92-4.97s.85-.61,1.28-.68"/>
      <path class="st10" d="M200.9,122.6s-2.72-4.35-2.17-4.8c.54-.45,2.17-.18,2.9.45.72.63,9.33-4.17,11.41-4.53,2.08-.36,8.78-1.27,9.96.72s1,6.43,0,6.97c0,0-2.99,7.42-5.34,7.42s-2.26-.9-2.26-.9c0,0-6.79,4.53-9.78,1.36-2.99-3.17-4.71-6.7-4.71-6.7"/>
      <path class="st14" d="M202.26,121.15s.27-.54,1-.72,3.44-4.53,9.42-5.52c5.98-1,8.87-1.96,9.96,0,1.09,1.96,1.63,5.22-1.63,6.91-3.26,1.69-18.11,2.23-18.74-.66"/>
      <polygon class="st8" points="158.9 97.76 159.9 98.24 159.9 96.16 158.9 97.76"/>
      <path class="st4" d="M198.66,63.89s-9.1-14.01-9.76-14.92c-.65-.92-.44-8.9,1.42-7.85,1.85,1.05,9.71,18.59,9.84,20.94.13,2.36-.9,2.75-1.5,1.83"/>
      <path class="st9" d="M112.72,106.56c-.39-.01-10.73-1.85-14.14-7.54,0,0-10.99,4.51-10.21-4.58.79-9.09,6.15-33.04,22.25-35.79,16.1-2.75,24.08-1.44,29.19,2.62,5.1,4.06,8.64,6.02,7.07,7.98-1.57,1.96-29.37,12.7-29.08,14.92.29,2.23,1.73,22.64-5.08,22.38"/>
      <path class="st4" d="M104.7,99.55s2.68-10.54,3.16-11.19c.49-.65,4.86-5.27,4.95-5.84.08-.57,13.62-10.05,15.57-9.81,1.95.24,11.43-9.73,3.24-11.35-8.19-1.62-12.32-3-15.89-2.43-3.57.57-16.3,10.95-16.7,13.54-.4,2.6-.57,19.05,0,21,.57,1.95,2.84,8.67,5.68,6.08"/>
      <path class="st1" d="M170.71,116.05s-32.39,1.09-36.99,28.78l-4.6,27.69"/>
      <path class="st1" d="M159.71,116.05s-45.99-10.59-53.18,16.74"/>
      <path class="st1" d="M139.32,162.12c-1-16.8,23.29-39.63,23.29-39.63"/>
      <path class="st1" d="M153.12,116.05s-34.2-.46-40.4,20.21"/>
      <path class="st1" d="M168.83,126.94s-46.98,9.59-49.64,22.79l-2.66,13.2"/>
      <path class="st1" d="M176.72,126.15s-29,21.49-35,34.53"/>
      <path class="st1" d="M168.83,121.81s-47.5,23.11-53.9,32.91"/>
      <path class="st1" d="M159.71,119.72s-38.46,9.72-44.79,21.8"/>
      <path class="st1" d="M165.92,129.57s-40.2,13.35-41.8,28.35"/>
      <polygon class="st4" points="113.62 82.68 116.78 73.2 127.75 70.04 132.58 73.12 113.62 82.68"/>
      <path class="st9" d="M139.22,73.38l-15.14-2.27,8.23,2.37h-6.65,1.55-4.81l.49,2.46h-2.67l-5.31-1.41,6.5,2.72-7.06.53,3.19,1.54-8.39,4.96,7.61.59-.85,4.88s23.29-15.54,23.29-15.96"/>
      <path class="st21" d="M132.58,57.93s-18.28-2.84-21.41-.73c-3.13,2.11-15.28,12.86-15.81,13.84-.53.98.23,22.15.8,23.4.57,1.25-.24,4.08-.98,1.71-.73-2.37-2.63-25.56-1.68-27.27s15.46-14.83,19.23-14.83,19.7.14,19.85,3.87"/>
      <path class="st21" d="M131.65,57.8s4.7,3.24,4.98,5.18c.28,1.94,0,3.4,0,3.4,0,0,1.66-1.94,1.11-3.33s-6.58-6.78-6.58-6.78l.49,1.53Z"/>
    </g>
    <text class="st17" transform="translate(81.76 242.45)"><tspan class="st22" x="0" y="0">L</tspan><tspan class="st6" x="11.86" y="0">a</tspan><tspan x="21.16" y="0">s</tspan><tspan class="st19" x="28.98" y="0">i</tspan><tspan class="st7" x="34.06" y="0">c</tspan><tspan x="42.34" y="0">e </tspan><tspan class="st16" x="57.04" y="0">k</tspan><tspan class="st18" x="67.46" y="0">o</tspan><tspan x="78.64" y="0">l</tspan><tspan class="st23" x="83.82" y="0">č</tspan><tspan class="st15" x="92.24" y="0">a</tspan><tspan x="101.44" y="0">va</tspan></text>
  </g>
</svg>