<?xml version="1.0" encoding="UTF-8"?>
<svg id="Vrstva_1" xmlns="http://www.w3.org/2000/svg" xmlns:xlink="http://www.w3.org/1999/xlink" version="1.1" viewBox="0 0 141.73 141.73">
  <!-- Generator: Adobe Illustrator 29.7.1, SVG Export Plug-In . SVG Version: 2.1.1 Build 8)  -->
  <defs>
    <style>
      .st0 {
        fill: none;
      }

      .st1 {
        fill: #8e855f;
      }

      .st2 {
        fill: #110a0c;
      }

      .st3 {
        fill: #a1966b;
      }

      .st4 {
        fill: #736268;
      }

      .st5 {
        clip-path: url(#clippath-1);
      }

      .st6 {
        clip-path: url(#clippath-3);
      }

      .st7 {
        clip-path: url(#clippath-4);
      }

      .st8 {
        clip-path: url(#clippath-2);
      }

      .st9 {
        fill: #fff;
      }

      .st10 {
        fill: #afa475;
      }

      .st11 {
        fill: #3c3539;
      }

      .st12 {
        fill: #706f6f;
        font-family: AlegreyaSans-Bold, 'Alegreya Sans';
        font-size: 12px;
        font-weight: 700;
      }

      .st13 {
        fill: #32262c;
      }

      .st14 {
        fill: #3b2e35;
      }

      .st15 {
        letter-spacing: 0em;
      }

      .st16 {
        fill: #b9bf7b;
      }

      .st17 {
        clip-path: url(#clippath);
      }
    </style>
    <clipPath id="clippath">
      <rect class="st0" width="141.73" height="141.73"/>
    </clipPath>
    <clipPath id="clippath-1">
      <rect class="st0" x="22.83" y="87.67" width="92.46" height="11.7"/>
    </clipPath>
    <clipPath id="clippath-2">
      <rect class="st0" width="141.73" height="137.48"/>
    </clipPath>
    <clipPath id="clippath-3">
      <rect class="st0" x="20.68" y="57.26" width="13.14" height="13.46"/>
    </clipPath>
    <clipPath id="clippath-4">
      <rect class="st0" width="141.73" height="137.48"/>
    </clipPath>
  </defs>
  <g class="st17">
    <g class="st5">
      <path class="st9" d="M94.59,87.67h-.71c-.85,0-1.71,0-2.55,0-12.29,4.52-27.33,9.08-39.2,9.69-1,.05-2,.08-2.98.08-8.91,0-17-2.07-23.39-5.06-1.61.31-2.99.83-2.92,1.69.17,2,10.67,4.67,18.17,5.17,1.31.09,2.86.12,4.58.12,8.15,0,20.14-.82,28.25-.96,9.83-.17,38.33-6.5,41-8.17.31-.2.46-.38.46-.55h0c-.02-1.27-8.01-1.81-13.29-1.95-1.92-.05-4.62-.07-7.41-.07"/>
    </g>
    <g class="st8">
      <path class="st14" d="M10.38,59.62s2.38-6.25,4.38-8,4.75-7.62,17-7.25,15.75,3.62,29.12,5.5,22.25,2.12,35.38.75,23,2.38,23.62,9,.38,15.88-10.25,20.62-38.25,16.12-57.5,17.12-35.25-7.88-39.62-15.62-4.29-17.32-2.12-22.12"/>
      <path class="st16" d="M16.38,51s1.12,1.12,0,2.62-4.03,5.96-4.5,4.75c-.47-1.21,3.12-7.12,4.5-7.38"/>
      <path class="st2" d="M21.38,47.62s-4.45,2.76-5.62,5.62c-1.18,2.87-5.88,5.46-6.35,9.48-.46,4.02-1.65,8.77,6.72,13.02s20.12,4.88,22.38,5.62,12.88,1.5,27.25.75,27.62-7.75,32.5-9.62,8-7.14,6.88-8.51c-1.12-1.37-7.5-.06-10.88,1.04-3.38,1.1-26.38,2.85-36.12,2.22s-29-10.92-30.88-12.46c-1.88-1.54-2.88-3.04-2.38-3.79s2.25-1.75,2.25-1.75c0,0-3.02-1.74-5.75-1.62"/>
    </g>
    <g class="st6">
      <path class="st11" d="M26.77,57.26h-.03c-.38,0-.8.09-1.21.36-1.23.82-4.04,4.63-4.68,7.26-.64,2.63.61,3.61,2.46,4.3,1.33.5,4.12,1.53,5.91,1.53.68,0,1.21-.15,1.46-.53.92-1.38,3.04-7.71,3.15-8.9,0-.02,0-.03,0-.05v-.02c-.02-1.17-3.09-2.4-4.15-2.77-1.07-.38-1.53-.82-1.53-.82,0,0-.61-.36-1.37-.36"/>
    </g>
    <g class="st7">
      <path class="st14" d="M42.02,62.37s2.36,3.38,2.86,5,5,5.12,7.75,5.75,8.5,2.62,18.13,2.38c9.62-.25,13.37-4.6,16.12-6.55,2.75-1.95,4.5-2.77,4.88-3.79.38-1.03-49.59-4.03-49.73-2.78"/>
      <path class="st4" d="M23.53,46.62s3.84.38,3.72,1.5c0,0,5.12-1.5,10.62-1.5s9.12,1,14.25,2.75c5.13,1.75,19.75,4.01,29.63,3.19s23.6-2.17,26.99-1.57c0,0-5.8-1.75-26.61,0-15.33,1.29-37.63-5.41-44.63-6.64-7-1.23-14.66,1.16-14.66,1.16,0,0-.12,1,.69,1.11"/>
      <path class="st13" d="M100.12,58.58s4.62,1.29,6,2.67,7.62,9.25,7.62,11.75-1.33,5.75-1.33,5.75c0,0,5.6-2.82,6.15-7.1.55-4.28-6.64-19.82-6.64-19.82,0,0-2.55-.29-4.3,0-1.75.29-11,.91-11,.91,0,0-.12,1.15,2.25,1.46,2.38.3,3.5.59,3.5.59,0,0-6.25.83-5.75,1.83s3.5,1.96,3.5,1.96"/>
      <path class="st10" d="M105.35,54.5s-7.5-.33-7.52-1.08c0,0,3.58.25,5.92,0,2.33-.25,6.61-1.5,8.18-1.58,1.57-.08,4.24.75,6.32,1.92,2.08,1.17-1.08,4.08-1.08,4.08l1.71,13.07s.38,3.45-3.81,6.1c-4.19,2.65-2.64,1.75-2.64,1.75,0,0,2-2.25,2.08-3.67.08-1.42-.58-5.07-1.33-6.28-.75-1.22-4.8-6.13-5.57-7.3-.77-1.17-3.73-3.74-5.85-3.42-2.12.33-4.83-1.17-3.92-1.17s3.75-.42,5.17-.92c1.42-.5,2.35-1.5,2.35-1.5"/>
      <path class="st16" d="M133.08,59.75s-2.58-.58-4.83-.83c-2.25-.25-5.58-.67-5.58-.67,0,0-3.53-6.43-11.14-6.55,0,0,.31,2.96-1.19,3.46s-2.73.56-2.73.56c0,0,3.48,1.69,3.73,4.02l.25,2.33s3.33,3.17,3.58,5c.25,1.83.88,4.84,2.25,4.92,1.37.07,1.54,0,1.54,0,0,0,3.04-2.75,3.62-3.67.58-.92.33-2.02,2.08-1.72,1.75.3,7.83-1.87,8.42-2.2.58-.33,0-4.67,0-4.67"/>
      <path class="st10" d="M113.58,60.08s.83,3.15,1.5,3.91c.67.76.67,1.37.67,1.37,0,0,.71-.78,2.85-.78s7.98-.35,9.81-.59c1.83-.24,3.08-1.27,3.08-1.27,0,0-4.42.86-6.83.86s-4.92.41-6.75,0c-1.83-.41-4.33-3.5-4.33-3.5"/>
      <path class="st10" d="M130.58,60.08s-.25-.5,0,.67c.25,1.17-.11,4.64-.11,4.64,0,0,4.11-.74,4.36-1.39.25-.66-.33-3.08-.92-3.91-.58-.83-3.03-.77-3.03-.77,0,0-.31.1-.31.77"/>
      <path class="st3" d="M132.68,60.08s-.66,1.37,0,2.27c.66.89,2.15,1.64,2.15,1.64,0,0,.45-1.58.06-2.99-.39-1.42-1.81-1.25-1.81-1.25l-.4.33Z"/>
      <path class="st1" d="M133.72,60.66s-.2,1.28,0,1.68c.2.4.53.37.53.37l-.53-2.06Z"/>
      <path class="st2" d="M18.33,84.75s5.52,6.64,13.57,9.09c13.02,3.96,23.51,1.84,27.14,1.57,2.58-.19,5.92-.87,5.92-.87,0,0,.04-.54-3.37-.54s-17.42-.75-26.33-3.25c-8.92-2.5-15-7.5-16-7.5s-.92,1.5-.92,1.5"/>
    </g>
    <text class="st12" transform="translate(60.42 130.07)"><tspan x="0" y="0">lil</tspan><tspan class="st15" x="9.44" y="0">e</tspan><tspan x="15.05" y="0">k</tspan></text>
  </g>
</svg>