<?xml version="1.0" encoding="UTF-8"?>
<svg id="Vrstva_1" xmlns="http://www.w3.org/2000/svg" xmlns:xlink="http://www.w3.org/1999/xlink" version="1.1" viewBox="0 0 283.46 283.46">
  <!-- Generator: Adobe Illustrator 29.7.1, SVG Export Plug-In . SVG Version: 2.1.1 Build 8)  -->
  <defs>
    <style>
      .st0 {
        fill: none;
      }

      .st1 {
        fill: #0b0b0c;
      }

      .st2 {
        fill: #e08827;
      }

      .st3 {
        fill: #e5dbd2;
      }

      .st4 {
        fill: #8d8d8e;
      }

      .st5 {
        fill: #d8d8d8;
      }

      .st6 {
        fill: #dbdddd;
      }

      .st7 {
        fill: #432918;
      }

      .st8 {
        clip-path: url(#clippath-1);
      }

      .st9 {
        letter-spacing: 0em;
      }

      .st10 {
        letter-spacing: 0em;
      }

      .st11 {
        letter-spacing: 0em;
      }

      .st12 {
        letter-spacing: 0em;
      }

      .st13 {
        fill: #fff;
        font-family: SebastianTextPro-Bold, 'Sebastian Text Pro';
        font-size: 20px;
        font-weight: 700;
      }

      .st14 {
        fill: #f3924c;
      }

      .st15 {
        fill: #f2f2f2;
      }

      .st16 {
        fill: #69362a;
      }

      .st17 {
        fill: #916523;
      }

      .st18 {
        letter-spacing: 0em;
      }

      .st19 {
        letter-spacing: 0em;
      }

      .st20 {
        letter-spacing: 0em;
      }

      .st21 {
        fill: #c7c6c6;
      }

      .st22 {
        clip-path: url(#clippath);
      }

      .st23 {
        letter-spacing: .01em;
      }

      .st24 {
        letter-spacing: 0em;
      }

      .st25 {
        letter-spacing: .01em;
      }
    </style>
    <clipPath id="clippath">
      <rect class="st0" width="283.46" height="283.46"/>
    </clipPath>
    <clipPath id="clippath-1">
      <rect class="st0" x="19.84" y="19.84" width="243.78" height="243.78"/>
    </clipPath>
  </defs>
  <g class="st22">
    <rect class="st16" x="19.84" y="19.84" width="243.78" height="243.78"/>
    <g class="st8">
      <path class="st2" d="M113.25,87.93s-6.74-17.07,4.68-11.96c11.41,5.11,29.68,20.76,29.68,20.76,0,0,8.98.76,11.88,0,2.9-.76,24.64.22,30.08-1.41,5.44-1.63,16.96-4.02,19.02-4.13,2.07-.11,26.53-21.96,28.59-23.05,2.07-1.09,15-5.98,15.11,7.39.11,13.37-5.65,47.18-9.35,48.48-3.7,1.3-4.46,2.5-4.13,3.26.33.76,12.28,10.76,9.46,32.18,0,0,.98,76.03-23.7,104.17H28.03s25.55-32.85,54.79-45.35c0,0,6.09-4.46,9.67-7.72,3.59-3.26,28.7-30,31.42-32.07,2.72-2.07,5.33-15.22,5.44-15.98.11-.76-1.2-19.89,4.46-26.63,0,0,.33.33.11-1.74-.22-2.07-21.31-44.24-20.65-46.2"/>
      <path class="st3" d="M138.21,182.71s-10.74-14.93.91-20.75c0,0,5.64-2.46,7.28-1.46,1.64,1,5.37-6.36,10.92-3,5.55,3.36,17.29,13.83,17.75,14.65s.55,3.18,1.27,3.55c.73.36,9.19-18.57,29.58-2,0,0,2.46-.27,2-2.09-.46-1.82,4.79-24.5,18.38-17.93,0,0,2.28,1.27,5.64.82s15.11,4.71,16.29,10.5c1.18,5.79-2.26,86.04-23.66,98.62l-30.68-.12,2.18-6.82s-10.1-10.92-10.24-13.24c-.14-2.32-31.67,1.91-21.43-20.75,0,0,1.37-4.23.68-5.46-.68-1.23-29.18-31.37-26.88-34.52"/>
      <path class="st5" d="M156.2,181.46s3.77-9.99,17.45,2.03c13.68,12.02,37.84,1.07,37.84,1.07,0,0,14.08-1.9,15.44-1.97,1.36-.07-17.35,34.9-38.02,34.35-20.67-.55-32.71-35.48-32.71-35.48"/>
      <path class="st3" d="M113.28,79.24s1.29-3.52,6.97.47c5.68,3.99,26.19,21.18,26.66,22.33.47,1.15,5.48,19.69,4.87,20.57-.61.88-7.78,8.66-9.2,8.26-1.42-.41-12.65-15.16-13.4-17.46-.74-2.3-17.6-25.11-15.9-33.84v-.34Z"/>
      <path class="st3" d="M212.82,107.05s-6.84-5.07,2.37-15.23c9.2-10.15,24.5-22.26,26.8-21.86s9.47.27,8.05,11.98c-1.42,11.71-6.77,32.55-8.12,34.31-1.35,1.76-9.54,9.14-11.3,9.14s-12.99-10.15-12.99-11.37-3.32-7.04-4.8-6.97"/>
      <path class="st21" d="M181.27,193.96s3.98,8.3,11.39,7c7.41-1.3,10.15-6.11,10.15-7.34s.62-2.95-2.47-3.09c-3.09-.14-12.49-.48-15.71.55-3.23,1.03-3.5,1.3-3.36,2.88"/>
      <path class="st4" d="M181.85,192.6s11.7-4.47,19.35-1.11c0,0-3.19,3.84-8.06,4.8-4.87.96-11.29-3.7-11.29-3.7"/>
      <path class="st7" d="M158.57,148.74s-2.66,1.54-2.97,1.02c-.31-.51,0-1.95.92-2.87.92-.92,4.71-7.99,11.98-4.4,7.27,3.58,6.86,7.99,6.86,7.99,0,0-4.3,5.22-11.16,2.97-6.86-2.25-5.63-4.71-5.63-4.71"/>
      <path class="st7" d="M199.52,147.75s0-9.15,2.56-10.38c2.56-1.23,9.52-2.97,13.62.92,4.1,3.89,3.57,4.81,2.6,4.61-.97-.2-2.5-.2-2.5-.2,0,0-1.41,4.78-5.42,5.05-4,.27-10.89,1.26-10.86,0"/>
      <path class="st17" d="M160.62,147.2s2.15-4.4,5.53-3.28c3.38,1.13,5.53,3.57,5.53,4.45s-2.42,4.88-6.25,4.46c-3.83-.42-5.71-4.24-4.81-5.63"/>
      <path class="st17" d="M202.86,143.11s1.78-6.24,5.05-5.43c3.28.82,5.22,2.56,5.12,3.17-.1.61-1.33,6.04-4.4,6.24-3.07.21-5.94-3.49-5.77-3.99"/>
      <path class="st1" d="M163.2,143.82s2.54-.38,4.25.6-.52,6.48-.52,6.48c0,0-3.93,1.03-3.73-7.08"/>
      <path class="st1" d="M205.69,138.23s1.26-1.53,3.93,0c2.66,1.53-.37,6.93-.37,6.93,0,0-.66-.2-1.3-.51-.65-.31-2.26-6.42-2.26-6.42"/>
      <path class="st15" d="M176.29,173.54s-10.31-16.1-22.57-16.88c-12.26-.78-4.34,7.27-4.34,7.27,0,0-7.08-13.73-15.68.42-8.6,14.15,12.07,23.31,12.07,23.31,0,0,11.51-5.67,13.18-9.01,1.66-3.34,14.7,4.84,14.7,4.84l2.64-9.94Z"/>
      <path class="st15" d="M205.69,174.48s4.89-17.63,9.58-20.47c4.69-2.84,12.9-3.26,14.01,0,0,0,13.87,0,14.84,2.6.97,2.6,5.41,21.33-1.53,23.97-6.94,2.64-26.29,2.34-28.22,3.58-1.93,1.25-8.69,3.49-8.69,3.49v-13.18Z"/>
      <path class="st6" d="M161.69,147.11s3.65-2.13,4.34-1.95c.7.17.86,1.95.86,1.95h-5.2Z"/>
      <path class="st6" d="M204.57,141.73s3.78-1.94,4.11-1.94.56,1.94.56,1.94h-4.68Z"/>
      <path class="st15" d="M138.97,158.68s13.15-4.6,19.63-.92c6.48,3.68-2.25,10.89-2.4,10.89s-17.22-9.97-17.22-9.97"/>
      <path class="st15" d="M215.27,154.01s13.25-7.38,28.86,2.6l-15.27,5.88-13.59-8.48Z"/>
      <path class="st14" d="M176.29,173.54s.43-34.23,2.74-35.94c2.31-1.71,11.74-4.79,14.63,1.18,2.89,5.97,12.26,34.92,12.26,34.92l-29.63-.16Z"/>
      <path class="st15" d="M179.62,193.2s7.41-2.13,10.29-2.26,12.07.14,13.24,1.13c1.17.99,6.31-8.2,5.9-11.49-.41-3.29-6.59-15.44-18.52-14.89,0,0-15.78,1.65-17.15,15.85,0,0,1.03,11.39,6.24,11.66"/>
      <path class="st1" d="M184.42,174.27s6.52-4.73,12.21,0c0,0,5.01,4.67,0,9.19,0,0-5.63,3.77-12.9,0,0,0-4.25-6.24.69-9.19"/>
      <path class="st14" d="M177.35,139.79s-9.47-13.18-27.37,5.36c0,0-3.74-4.01,0-7.54,3.74-3.52,23.95-21.7,35.62-2.36l-1.99,4.55h-6.26Z"/>
      <path class="st14" d="M193.65,138.79s14.78-19.78,32.4,0c0,0,5.6-1.53,3.64-4.4-1.96-2.87-25.87-26.39-42.67.89l6.63,3.51Z"/>
      <path class="st14" d="M166.03,135.27s9.61,1.6,12.74,9.88c3.13,8.28,16.91-1.41,16.91-1.41,0,0,3.85-10.64,8.84-12.85,4.99-2.21-7.53-2.78-7.53-2.78,0,0-6.7,3.14-17.07.84-10.37-2.3-13.89,6.33-13.89,6.33"/>
    </g>
    <text class="st13" transform="translate(86.46 242.45)"><tspan class="st25" x="0" y="0">L</tspan><tspan class="st9" x="11.58" y="0">i</tspan><tspan class="st10" x="16.78" y="0">š</tspan><tspan class="st23" x="24.64" y="0">k</tspan><tspan class="st12" x="35.5" y="0">a </tspan><tspan class="st18" x="49.98" y="0">o</tspan><tspan class="st20" x="61.12" y="0">b</tspan><tspan class="st11" x="72.66" y="0">e</tspan><tspan class="st24" x="82.2" y="0">c</tspan><tspan class="st19" x="90.56" y="0">n</tspan><tspan class="st12" x="101.22" y="0">á</tspan></text>
  </g>
</svg>