<?xml version="1.0" encoding="UTF-8"?>
<svg id="Vrstva_1" xmlns="http://www.w3.org/2000/svg" version="1.1" viewBox="0 0 1190.55 1683.78">
  <!-- Generator: Adobe Illustrator 30.7.0, SVG Export Plug-In . SVG Version: 2.1.4 Build 114)  -->
  <defs>
    <style>
      .st0 {
        fill: #ccadac;
      }

      .st1 {
        fill: #e5b6b2;
      }

      .st2 {
        fill: #49383c;
      }

      .st3 {
        fill: #fde2d4;
      }

      .st4 {
        fill: #2e2323;
      }

      .st5 {
        fill: #b8767d;
      }

      .st6 {
        fill: #dba9a5;
      }

      .st7 {
        fill: #caa9b0;
      }

      .st8 {
        fill: #dfc1c6;
      }

      .st9 {
        fill: #cba9ac;
      }

      .st10 {
        fill: #d19b97;
      }

      .st11 {
        fill: #bda19f;
      }

      .st12 {
        fill: #392c2d;
      }
    </style>
  </defs>
  <rect class="st8" x="-10.31" y="-16.06" width="1212.31" height="1709.84"/>
  <path class="st9" d="M536.04,1610.65c-10.16-3.27-16.33-21.08-30.22-18.58s-10.01,4.61-17.94,2.29-5.2-31.81-20.52-32.51-23.82,18.25-28.16,15.63-4.89-20.36-15.67-18.78-7.82,3.98-26.49-15.19-20.7-12.13-31.29-18.5-21.56-7.31-25.48-17.43-16.89-26.2-16.6-28.25-22.05-11.92-17.16,0c4.89,11.92,1.91,33.8,4.56,43.93s-7.06,17.4-1.94,32.29,15.49,20.75,25.55,41.41,24.45,38.52,28.28,50.14,39.63,60.8,39.63,60.8l3.94,18.62s-42.2-25.71-66.25-17.07-18.12,28.14-9.56,31.94,9.56,16.76,9.56,16.76h802.91s20.16-27.99,17.33-36.13c-2.83-8.14-2.73-16.16-1.5-28.25,1.23-12.09,11.19-57.09-15.81-55.3-27.01,1.8-41.22,20.06-41.22,20.06,0,0,5.25-22.35-11.83-33.04-17.08-10.69-24.84-4.84-26.98-7.31-2.14-2.47-7.77-5.85-11.95-12.27-4.18-6.42-18.21-15.58-22.71-25.84-4.5-10.26-2.99-15.21-22.46-14.48s-31.66,4.56-31.66,4.56l-16.33-12.97s13.43-27.91,2.3-30.36-25.46,18.39-38.91,17.19-67.19-47.13-73.4-47.91-1.95-54.02-19.4-55.3-22,5.41-21.22,12.16-10.17,40.09-23.53,37.93-10.23-6.06-38.34,21.28-55.91,46.5-55.91,46.5l-15.92-2.76s.17-65.48-34.52-76.74-72.98-3.62-74.01,2.74,2.84,18.89,2.84,18.89c0,0,1.09,14.58,7.59,22.27s-17.54-1.81-20.81,14.49-7.87,78.67-7.87,78.67l-10.92-5.6Z"/>
  <path class="st9" d="M451.33,1581.12s10.5-164.63,11.14-182.74c.64-18.11,19.15-62.12,14.81-67.25-4.34-5.13,15.91-60.44,15.91-60.44l15.18,4.1s-20.13,101.39-24.98,119.38-13.32,19.61-9.27,42.5-1.01,103.9-1.01,103.9l-7.22,51.7-14.57-11.13Z"/>
  <path class="st9" d="M508.36,1596.75s-63.57-91.38-62.06-108.38-8.22-27.41,3.04-41.86,77.99-205.48,77.99-205.48h-18.94s-46.48,157.85-64.56,183.59-22.75,40.78-20.3,55.22,71.91,119.73,71.91,119.73l12.92-2.83Z"/>
  <path class="st7" d="M761.69,1292.19s18.81,14.9,25.22,33.47,40.82,126.67,40.82,126.67h-15.99s-13.2-57.59-23.34-77.28-21.88-42.4-23.54-49.39-12.58-27.39-12.58-27.39l9.43-6.08Z"/>
  <path class="st9" d="M827.72,1266.52c2.91,7.36,11.95,61.67,11.42,78.04s8.96,20.64,0,37.01-64.93,106.14-64.93,106.14l9.7,3.2s69.63-99.31,71.34-109.34,5.45-13.23,2.73-28.44-16.71-86.61-16.71-86.61h-13.54Z"/>
  <path class="st0" d="M458.99,1086.35l50.89,158.28s15.39,2.7,17.46-3.59-57.89-166.25-57.89-166.25l-10.45,11.56Z"/>
  <path class="st1" d="M347.89,956.37s3.04,10.65,8.75,10.65,20.15-15.6,20.15-15.6c0,0-1.89,9.89,3.06,9.89s34.66-44.89,34.66-44.89l-66.62,39.95Z"/>
  <path class="st0" d="M779.99,1005.83c1.19,1.59,48.22,75.76,53.46,84.88s2.12,13.88,1.9,21.42c-.23,7.54,1.16,17.06,1.16,17.06,0,0,18.45,7.54,22.81,0,4.36-7.54,3.17-23,0-32.52-3.17-9.52-76.77-107.12-76.77-107.12l-9.69,3.21,7.14,13.09Z"/>
  <path class="st11" d="M814.71,1039.15l-18.98,65.44s8.45,4.76,14.8,2.38,17.19-67.82,17.19-67.82h-13.01Z"/>
  <path class="st0" d="M509.85,886.08s-57.07,94.7-60.64,103.46c-3.57,8.76.79,16.88,0,28.29s22.76,62.57,22.76,62.57c0,0-9.15,9.92-12.98,5.95s-20.49-53.15-27.23-62.27c-6.74-9.12-9.61-16.26-7.58-25.78,2.03-9.52,65.88-102.42,65.88-102.42l9.46-13.48,10.33,3.69Z"/>
  <path class="st11" d="M468.49,915.36s.02.54.06,1.57c.61,15.58,5.65,142.32,9.78,152.37,4.4,10.71,6.59,17.45,6.54,22.21s-2.82,19.1-2.82,19.1l-16.15-10.77s-3.69-19.17-2.43-26.44-3.41-40.51-2.91-48.84-7.74-108.79-7.74-108.79l15.68-.41Z"/>
  <path class="st6" d="M154.62,427.91s32.34-4.19,58.21-12.17c25.87-7.99,77.23-8.75,100.44,6.09,23.21,14.84,82.18,95.11,82.18,95.11,0,0,5.33-17.5,10.65-11.41,5.33,6.09.38,24.73,12.94,38.05,12.56,13.32,15.22,15.6,15.22,15.6,0,0,0-15.6,16.36-10.65,16.36,4.95,27.39,15.22,27.39,15.22,0,0,15.22-15.98,20.16-16.74l4.95-.76s52.88-52.88,75.33-70c22.45-17.12,49.08-36.52,71.15-31.2,22.07,5.33,20.54,11.03,12.94,17.88-7.61,6.85-28.91,15.22-34.24,31.2-5.33,15.98-11.79,111.85-11.79,111.85,0,0,14.08-1.22,15.22,6.81,1.14,8.03-4.57,16.4,1.52,17.16,6.09.76,19.02-1.14,23.59,5.33,4.57,6.47,11.03,90.17,3.04,102.34-7.99,12.17-92.45,114.9-113.38,128.21-20.93,13.32-21.69,13.7-27.77,20.54-6.09,6.85-8.37,6.85-11.41,7.23s-17.12-5.71-14.46-8.75c0,0-8.37,3.08-11.41,8.77-3.04,5.69-3.42,30.04-13.7,33.46s-19.78-5.71-22.07-12.56c-2.28-6.85-4.19-9.51-4.19-9.51,0,0-17.5,20.93-24.35,20.54l-6.85-.38s-38.81,23.21-49.46,31.2c-10.65,7.99-14.46,6.47-14.46,6.47,0,0-9.13,35.38-16.36,35.38s-7.61-4.19-7.61-4.19c0,0,7.99,27.01-.38,27.77-8.37.76-9.13-27.39-9.13-27.39,0,0-1.14,12.94-6.09,8.75s9.89-56.31,9.89-56.31c0,0-13.32,7.99-19.4-6.47-6.09-14.46,59.35-83.7,59.35-83.7,0,0,18.26-35.38,22.07-37.67,0,0-5.71,1.14,6.47-15.6s28.91-32.34,28.91-32.34c0,0-4.42-4.57-2.97-9.51l1.45-4.95s-35,20.54-58.59,19.02c-23.59-1.52-42.23-3.8-34.62-12.17,7.61-8.37,18.64-14.46,18.64-14.46l20.54-16.36,3.42-155.99-17.5-24.35-34.62-11.03s-22.45-22.07-22.83-23.21-25.87-28.91-27.39-29.3-57.83-17.5-59.35-17.5-56.69-7.99-59.35-8.37-14.46-22.83-14.46-22.83l28.15-12.17Z"/>
  <path class="st12" d="M142.44,426.39s-.76,2.28-36.9,2.28-58.21-8.75-63.92-2.28c-5.71,6.47-5.71,23.97,9.7,30.44,15.41,6.47,42.81,9.51,42.81,9.51,0,0-33.48.76-36.9,12.94s9.13,25.11,42.23,24.73c0,0-33.48,13.32-14.46,26.25,19.02,12.94,26.63,6.85,26.63,6.85,0,0,4.95,9.89,20.16,10.65,15.22.76,55.17-40.71,55.17-40.71,0,0-22.83,32.34-20.54,38.43,2.28,6.09,16.74,7.61,16.74,7.61,0,0,0,10.65,15.6,14.08,15.6,3.42,31.2-9.89,31.2-9.89,0,0-4.95,9.13,2.28,17.5s7.23,6.09,9.89,12.56,4.95,28.91,10.65,31.58,15.6,0,15.6,0c0,0-4.19,7.61,2.28,12.56,0,0-8.37,10.65,0,15.98s30.82-10.27,30.82-10.27c0,0-1.14,38.05,5.71,49.46,6.85,11.41,16.36,10.27,16.36,10.27,0,0,.38,20.16,7.61,23.59l7.23,3.42s-6.85,24.73-.38,25.11c6.47.38,18.64-1.52,34.62-15.22,15.98-13.7,32.34-42.99,32.34-42.99,0,0,10.27-23.21,9.51-24.35s-19.4-8.75-19.4-8.75c0,0-3.42-3.42-3.42-7.99s-12.56-13.7-13.7-19.4,2.66-14.46,2.66-14.46c0,0-7.23-7.99-4.19-12.56,0,0-1.14-14.84-.38-25.87l.76-11.03s-8.37-4.19-8.37-11.03c0,0-9.51,1.52-11.41-6.85-1.9-8.37-1.9-15.22-1.9-15.22,0,0-1.14,3.42-8.75-11.03-7.61-14.46-10.27-23.97-10.27-23.97,0,0-16.74-16.36-17.5-27.01s-3.04-12.17-3.04-12.17c0,0-20.16,1.9-22.83-3.42,0,0-12.94,5.33-18.26,1.52-5.33-3.8-6.09-6.85-6.09-6.85,0,0-17.12-4.19-17.5-9.13,0,0-37.28-2.66-32.72-10.65,0,0-3.42,15.98-36.9,17.5-33.48,1.52-40.33-1.52-39.95-6.47.38-4.95,16.25-14.1,16.25-14.1,0,0-10.03-2.28-15.11-1.12Z"/>
  <path class="st2" d="M306.8,484.6s-7.61,21.31-2.66,33.86c4.95,12.56,9.51,11.41,13.32,9.51s0-18.64-2.28-27.39c-2.28-8.75-8.37-15.98-8.37-15.98Z"/>
  <path class="st5" d="M414.51,595.69s-22.87,9.43-22.87,17.08,7.99,7.65,7.99,7.65c0,0-12.36,2.03-14.08,10.27s0,10.11,0,10.11c0,0-12.56,1.3-7.61,8.53,4.95,7.23,56.31-12.17,56.31-12.17,0,0-47.56,21.69-50.22,30.06-2.66,8.37,12.86,8.09,21.49,4.57,8.63-3.52,12.37-4.95,12.37-4.95,0,0-16.43,21.11-16.59,30.15-.15,9.04,2.13,9.04,2.13,9.04,0,0-11.79,14.84-8.37,19.4,3.42,4.57,35.76-19.78,35.76-19.78,0,0-34.24,45.27-29.68,47.18,4.57,1.9,25.11-22.45,25.11-22.45,0,0-22.84,58.21-20.74,60.49s53.46-92.45,53.46-92.45c0,0-4.57-17.12,0-22.07,0,0-12.17-6.47-13.7-12.17-1.52-5.71,4.19-15.6,4.19-15.6,0,0-11.41-6.85-12.17-18.64s1.14-17.16,1.14-17.16c0,0-15.98,1.94-16.74-6.43s.76-10.65.76-10.65c0,0-7.15,6.47-7.95,0Z"/>
  <path class="st5" d="M399.25,591.51s-9.51,2.23-9.51-4.97,7.3-10.24,7.3-10.24c0,0-11.87-1.57-11.1-5.54.76-3.97,4.57-3.97,4.57-3.97,0,0-13.34-9.51-13.71-11.03s-2.27,4.95,5.72,7.99c0,0-5.8,12.56,5.28,14.08,0,0-13.27,18.64,11.46,13.7Z"/>
  <path class="st10" d="M352.84,504.76c.23-1.35,3.42,18.26,13.32,22.07l9.89,3.8s-6.11,7.23.75,11.41,15.99,13.47,15.99,13.47c0,0-21.31-10.42-22.07-15.75s0-7.61,0-7.61c0,0-21.31-7.61-17.88-27.39Z"/>
  <path class="st10" d="M275.6,433.62s1.52,5.71,10.65,6.47l9.13.76s-19.78,5.33-19.78-7.23Z"/>
  <path class="st10" d="M151.96,441.97c-1.95-.65,18.64,2.68,40.71-6.45,22.07-9.13,24.73-11.51,24.73-11.51,0,0-32.34,28.98-65.44,17.96Z"/>
  <path class="st2" d="M323.92,688.9s17.5-12.17,25.49-32.72c7.99-20.54,3.05-38.43,3.05-38.43,0,0-9.52,39.57-19.03,50.98-9.51,11.41-9.51,20.16-9.51,20.16Z"/>
  <path class="st2" d="M285.5,636.02s10.27.76,29.68-18.26c19.4-19.02,23.78-35.38,23.78-35.38,0,0-23.69,34.24-36.48,41.47s-16.97,12.17-16.97,12.17Z"/>
  <path class="st2" d="M255.06,605.96s11.41,3.42,24.35-7.99c12.94-11.41,23.06-24.05,23.06-24.05,0,0-29.15,38.43-36.76,38.85s-10.65-6.81-10.65-6.81Z"/>
  <path class="st2" d="M212.45,557.65c.38-1.14,6.09,3.04,22.83-22.83s19.78-31.96,19.78-31.96c0,0-21.31,45.96-31.58,52.66s-11.03,2.13-11.03,2.13Z"/>
  <path class="st2" d="M184.61,541.29l29.36-53.64s-27.9,41.85-29.36,53.64Z"/>
  <path class="st2" d="M127.99,531.01c-9.74,8.35,59.73-38.43,59.73-38.43,0,0-57.07,36.14-59.73,38.43Z"/>
  <path class="st2" d="M102.12,519.22c-1.36-.21,39.19-26.63,39.19-26.63,0,0-34.24,27.39-39.19,26.63Z"/>
  <path class="st2" d="M78.15,484.6l48.32-18.26s-41.85,21.31-48.32,18.26Z"/>
  <path class="st2" d="M54.18,441.97s15.22,2.64,41.47,0l26.25-2.64s-40.71,12.14-67.72,2.64Z"/>
  <path class="st2" d="M237.18,562.97c-.88.73,6.85-8.37,19.02-21.69,12.17-13.32,15.22-22.05,15.22-22.05,0,0,5.33,11.02-34.24,43.74Z"/>
  <path class="st5" d="M447.95,617.76s-.76,15.6,6.85,15.98l7.61.38s-7.99,13.7-5.71,19.21,10.27,8.94,10.27,8.94c0,0-25.13,0-9.52-26.25,0,0-19.77,2.28-9.5-18.27Z"/>
  <path class="st10" d="M490.94,595.69s9.51,6.47,19.78,6.09l10.27-.38s-21.69,8.37-30.06-5.71Z"/>
  <path class="st10" d="M661.01,451.88s4.19,7.99-5.33,12.17c-9.51,4.19-55.93,49.46-75.71,73.81-19.78,24.35-21.69,28.24-22.07,25.15s31.2-47.6,48.7-63.58c17.5-15.98,36.9-36.14,44.13-40.33,7.23-4.19-2.28-10.27-2.28-10.27,0,0,11.64-1.11,12.56,3.04Z"/>
  <path class="st1" d="M237.11,418.78c2.73-.38,46.1-.76,60.56,2.66,14.46,3.42,21.4,9.89,21.4,9.89,0,0-12.04-16.12-40.31-14.46s-41.65,1.9-41.65,1.9Z"/>
  <path class="st10" d="M307.94,445.59s14.08,10.47,22.45,20.74c8.37,10.27,19.02,26.25,19.02,26.25,0,0-24.73-29.3-28.53-32.72-3.8-3.42-12.94-14.27-12.94-14.27Z"/>
  <path class="st1" d="M338.95,761.57s4.77,3.04,13.52,1.9,44.58-21.31,44.58-21.31c0,0-34.68,24.35-44.58,24.73s-13.52-5.33-13.52-5.33Z"/>
  <path class="st1" d="M347.89,882.18s-44.13,42.99-42.23,52.5c1.9,9.51,6.56,7.23,6.56,7.23,0,0-8.01,2.08-9.75-6.47s45.42-53.26,45.42-53.26Z"/>
  <path class="st1" d="M409.15,878.75s14.46,11.79,21.69,12.17,8.37,0,8.37,0c0,0-23.21,10.65-30.06-12.17Z"/>
  <path class="st1" d="M362.73,895.87c0,1.52,3.04,27.77,7.23,29.3,4.19,1.52,6.84-8.75,6.84-8.75,0,0-3.03,21.31-11.4,7.23-8.37-14.08-2.66-27.77-2.66-27.77Z"/>
  <path class="st1" d="M486.38,861.25s5.33,7.99,14.46,9.89,18.26-4.95,18.26-4.95c0,0-12.94,11.41-25.87,12.56-12.94,1.14-6.85-14.84-6.85-14.84v-2.66Z"/>
  <path class="st1" d="M505.97,882.18c-7.04,0,17.31-9.51,17.31-9.51,0,0-7.23,9.51-17.31,9.51Z"/>
  <path class="st10" d="M629.81,642.11s11.41,6.09,18.26,13.32c6.85,7.23,13.85,31.58,13.85,31.58l.71-9.82s-9.62-36.97-32.83-35.07Z"/>
  <path class="st10" d="M447.95,570.75c-1.09.41,36.69,26.21,42.99,27.23,0,0-38.43-28.96-42.99-27.23Z"/>
  <path class="st10" d="M564.37,299.69s-18.64,18.64-17.12,37.67c1.52,19.02,7.23,52.12,15.22,64.3,7.99,12.17,39.34,33.1,47.44,51.36,8.1,18.26,25.22,55.17,19.9,113.38-5.33,58.21-11.03,58.45-1.9,75.64,9.13,17.19,19.05,17.57,25.5,39.26,6.46,21.69-10.28,49.08-10.28,49.08,0,0-52.88,3.04-71.53-2.28-18.64-5.33-30.06-30.06-30.06-30.06,0,0-10.27-4.95-12.17-12.94s-1.9-17.12-1.9-17.12c0,0-15.6-6.47-12.56-16.36s21.31-15.59,37.67-42.42c16.36-26.82,24.28-55.82,22.79-72.9-1.49-17.08-11.76-47.52-23.55-64.64-11.79-17.12-30.06-50.22-30.82-60.11-.76-9.89-7.61-72.67-3.8-101.2,3.8-28.53,7.61-44.51,12.56-59.73,4.95-15.22,14.08-22.83,23.21-26.25,9.13-3.42,28.53,0,28.53,0,0,0,21.31,32.34,17.5,46.04-3.8,13.7-19.4,28.91-34.62,29.3Z"/>
  <path class="st3" d="M564.75,252.52s1.52-19.4,3.8-23.21,25.11-11.03,25.11-11.03c0,0-8.32,12.3-7.41,13.9s1.72,2.45,0,8.54c-1.72,6.09,2.08,22.83,3.98,24.73s8.06,7.1,8.06,7.1c0,0-2.01,3.3-13.59,0-11.58-3.3-19.95-20.04-19.95-20.04Z"/>
  <path class="st12" d="M567.04,250.24s9.52-15.93,12.94-19.4c3.41-3.47,13.7-12.56,13.7-12.56,0,0,13.32-1.9,20.16,4.57,6.85,6.47,17.88,33.1,19.02,48.32,1.14,15.22-2.66,21.69-2.66,21.69l-11.79-2.66s-18.52-16.29-20.1-17.63-10.76-4.32-13.59-17.12,1.55-23.25,1.55-23.25c0,0-2.1-2.87-19.22,18.05Z"/>
  <path class="st2" d="M576.17,228.93s7.7-4.29,8.54-6.09c0,0-7.79,9.96-8.54,6.09Z"/>
  <path class="st5" d="M547.25,299.31s6.46.76,10.65,0l4.19-.76s-11.41,5.33-14.84.76Z"/>
  <path class="st3" d="M561.34,237.65c.25-.49,6.28-7.92,7.83-9.05s-3.82,24.31-3.82,24.31c0,0-9.05-5.5-4.01-15.26Z"/>
  <path class="st3" d="M548.4,247.95s-3.07-2.3-1.86-7.35,7.46-4.17,9.32-2.96,4.71-.55,4.82,3.07.55,5.92-3.07,7.24c-3.62,1.32-9.21,0-9.21,0Z"/>
  <path class="st2" d="M555.86,239.95s-4.71-4.39-7.78,0c-3.07,4.39.77,6.91,3.89,7.24s4.66-2.19,4.66-3.84-.77-3.4-.77-3.4Z"/>
  <path class="st3" d="M548.95,243.57s.21-3.9,2.83-4.28c2.63-.38,4.14,2.85,3.41,5.15s-5.92,2.19-6.25-.88Z"/>
  <path class="st4" d="M550.63,243.67s-1.16-2.88,1.87-3.05,2.43,4.16,1,4.58-2.87-1.53-2.87-1.53Z"/>
  <path class="st4" d="M589.43,230.63c.43,0,7.33-.43,9.48,2.44s20.54,47.12,20.54,47.12c0,0-14.22-42.96-17.24-47.55-3.02-4.6-8.62-3.56-10.63-4.08s-3.88,2.07-3.88,2.07h1.72Z"/>
  <path class="st6" d="M757.65,693.3s25.16,8.55,31.45,4.96,13.48-18.02,23.36-11.26c9.89,6.76,10.78,12.14,10.78,12.14,0,0,23.36-14.2,38.64-10.24,15.28,3.96,18.87,17.44,8.99,14.74-9.89-2.7-19.77-9.18-35.05.35-15.28,9.53-46.73,11.96-46.73,11.96l-31.45-22.66Z"/>
  <path class="st1" d="M668.75,278.14s47.19,0,54.72,3.77,24.85,29.87,29.87,47.69c5.02,17.82,7.53,64.62,5.27,80.5-2.26,15.89-22.09,67.09-33.64,86.67-11.55,19.58-23.85,49.2-21.08,81.08,2.76,31.88,4.02,64.68,22.34,84.43,18.32,19.74,36.64,25.86,61.62,36.48,24.98,10.62,45.31,12.63,60.88,12.63s32.38-5.02,54.22-16.57c21.84-11.55,69.19-37,87.16-49.58,17.97-12.58,19.77-23.21,46.13-27.48,26.36-4.27,72.49,14.82,91.06,44.51,18.57,29.69,17.37,57.85,17.37,57.85l.02,22.04-85.69,58.83-80.88,20.37h-46.73l-3.59,30.55s-19.99.6-21.08,11.98-4.68,29.5-4.68,29.5c0,0,35.95-4.51,33.55,2.46s-22.77,6.97-22.77,6.97c0,0-.6,5.39,5.39,5.39s65.45.99,57.67,7.25c-7.79,6.26-26.51,7.73-26.51,7.73,0,0,22.17,23.96,14.38,30.55-7.79,6.59-13.18-6.73-25.76-12.05s-20.97-5.32-20.97-5.32c0,0-22.77,20.97-53.92,37.74,0,0-13.78,11.38-19.77,16.18l-5.99,4.79s-1.2,46.13-7.19,49.72-17.37-3-17.97-5.99,1.8-31.75-8.99-40.14-16.18-7.19-16.18-7.19c0,0-2.4,10.18-14.98,5.39-12.58-4.79-41.94-46.61-55.12-54.76-13.18-8.15-28.76-29.98-28.76-29.98,0,0,2.4,12.54-8.39,16.29-1.32.46-2.87.88-4.55,1.27-12.03,2.76-31.4,3.68-31.4,3.68l-57.57-16.98-22.11-39-11.38-56.65s-1.2,37.74-5.99,34.15c-4.79-3.59-8.99-51.52-8.99-51.52,0,0-10.43,35.35-14.5,32.95s4.92-61.71,4.92-61.71c0,0-3-3.59-2.4-11.98s28.76-65.3,43.13-64.7,22.17,10.24,32.35,18c10.18,7.76,27.56,14.36,40.14,0,12.58-14.36,13.18-87.5,11.98-94.09s-8.39-24.9,4.19-80.75c12.58-55.85,41.94-74.1,56.31-95.53,14.38-21.42,10.78-64.56,5.39-72.35-5.39-7.79-31.15-17.97-47.33-31.75-16.18-13.78-28.16-26.96-28.16-26.96l24.92-36.4Z"/>
  <path class="st12" d="M1103.64,723.9s8.76,5.19,10.71,2.6c0,0,7.14,9.89,11.35.73,0,0,11.03,7.06,12.33-1.05,0,0,7,2.07,6.64-6.05l-.15-5.65s14.59,21.43,16.22,37-2.92,23.68-2.92,23.68c0,0,6.54,33.09,3.27,45.42-3.27,12.33-6.84,12.33-6.84,12.33,0,0-1.28,12.98-9.56,14.27-8.28,1.3-9.9,0-9.9,0,0,0-8.67,4.87-13.58,1.95-4.91-2.92-15.62-24.98-15.62-24.98,0,0,.65,41.52-13.95,36.01,0,0-4.87,10.38-9.73,3.89,0,0-9.73,6.81-14.92-.65,0,0-5.19,12.65-14.27,8.43,0,0-1.3,16.54-9.73,19.14l-8.43,2.6s1.95,10.38-4.54,12l-6.49,1.62s10.06,9.73-3.89,9.73-38.28-13.3-38.28-13.3c0,0,5.51,10.38,3.89,11.35-1.62.97-10.06-13.63-10.06-13.63,0,0-8.43-3.57-16.54-9.08-8.11-5.51-13.3-11.68-13.3-11.68,0,0,7.14,15.25,2.27,15.57s-21.09-33.09-21.09-33.09c0,0,.65,18.82-7.79,21.41-8.43,2.6,2.27-9.73,2.27-14.6s-7.46-10.71-7.46-10.71c0,0-8.98,20.61-8.35,16.36.63-4.25,8.99-28.04,6.4-35.17l-2.6-7.14s5.84,1.62,5.84-1.62c0,0,6.81,13.3,9.73,7.79s-.32-28.22-.32-28.22c0,0,10.71,3.89,11.03.65,0,0,10.38,4.87,11.68-2.27,0,0,14.92,9.06,17.84,6.15,2.92-2.91,3.57-4.85,3.57-4.85,0,0,6.81-1.95,6.81-5.19s-.97-5.51-.97-5.51c0,0,10.06,3.89,13.3.32,0,0,7.79,5.51,13.63,4.22l5.84-1.3s8.43,2.6,12,.97l3.57-1.62s2.92,3.24,8.43.65c5.51-2.6,3.89-2.27,5.51-2.6s6.81,1.62,12-1.3c5.19-2.92,5.51-4.87,5.51-4.87,0,0,12.98-7.79,12.98-11.35,0,0,5.19.97,8.43-5.84,3.24-6.81,3.89-8.43,3.89-8.43,0,0,4.87-.32,5.19-6.81s-2.92-17.52-2.92-17.52c0,0,6.16,13.63,9.73,9.08l3.57-4.54s4.54,3.57,7.14-2.6c2.6-6.16,1.62-22.71,1.62-22.71Z"/>
  <path class="st12" d="M674.12,935.09s-5.51,37.96-22.38,56.77c-16.87,18.82-26.6,26.28-51.58,25.95-24.98-.32-28.55-13.63-28.55-13.63,0,0-13.3-.32-8.76-4.54,4.54-4.22,18.82-12.65,18.82-12.65,0,0-4.22-9.41-.65-14.92l3.57-5.51s-5.51-5.19-3.24-8.43l2.27-3.24s-17.19,6.49-23.36-10.06c-6.16-16.54-2.27-24.66-2.27-24.66,0,0-2.27-4.22-4.54-18.49-2.27-14.27-5-47.24-5-47.24l3.06-38.74s4.22,12.01,9.73,11.37c0,0,2.6,36.16,10.71,50.36,8.11,14.2,14.33,14.2,14.33,14.2,0,0-1.35,16.22,4.16,17.52,5.51,1.3,7.79,1.3,7.79,1.3,0,0,14.92,4.22,22.71.32,7.79-3.89,13.95-12,13.95-12,0,0-.32,9.41,5.19,9.08l5.51-.32s-5.19,8.76-1.62,12.33c3.57,3.57,13.63,1.3,13.63,1.3,0,0,10.23,10.09,13.94,9.34l3.71-.75-1.1,5.37Z"/>
  <path class="st5" d="M736.41,717.74s11.03,34.39,21.25,37.96l2.76,1.62s15.25,52.23,29.85,60.02c0,0-5.84,2.92,8.11,21.09s22.38,19.79,29.85,27.9c7.46,8.11,19.79,24.98,19.79,24.98,0,0-20.11-17.19-29.2-25.63s-36.33-38.28-33.09-48.34c0,0-14.28-7.14-28.06-57.42,0,0-21.25-14.92-21.25-42.17Z"/>
  <path class="st5" d="M740.95,754.54s26.6,38.11,29.2,61.16c2.6,23.04,8.76,59.95,12,66.48l3.24,6.52s-9.34-47.26-12-69.75c-2.66-22.49-27.9-63.62-32.44-64.41Z"/>
  <path class="st2" d="M977.44,856.58c.32.97,13.3,21.09,14.92,21.09s0-6.16,0-6.16c0,0,6.81,14.6-.97,9.73s-13.95-24.66-13.95-24.66Z"/>
  <path class="st2" d="M959.6,875.08c-1.61-1.47,32.12,22.71,45.74,27.9l13.63,5.19s-21.31,1.62-59.37-33.09Z"/>
  <path class="st2" d="M1135.75,735.3s10.71,34.71,13.63,47.69c2.92,12.98,2.6,17.03,2.6,17.03l-16.22-64.72Z"/>
  <path class="st2" d="M1121.2,739.85s11.31,50.28,14.55,68.77l3.24,18.49s-19.05-78.83-17.8-87.27Z"/>
  <path class="st2" d="M1098.12,761.21c.32,1.62,12,29.2,14.27,43.31,2.27,14.11,2.27,15.41,2.27,15.41l-16.54-58.72Z"/>
  <path class="st2" d="M1084.17,787.97c1.6-.8,1.62,36.5,1.62,53.69v17.19s-3.89-69.75-1.62-70.88Z"/>
  <path class="st2" d="M1071.52,831.6s0,22.71,2.27,27.25l-2.27-27.25Z"/>
  <path class="st2" d="M1047.51,831.6s9.08,32.77,10.38,34.71c0,0-7.14-32.77-10.38-34.71Z"/>
  <path class="st2" d="M1003.07,852.69s23.36,25.34,26.6,29.54c0,0-27.57-25.97-26.6-29.54Z"/>
  <path class="st10" d="M884.01,761.21s27.9,24.33,32.77,32.77,11.03,12.65,11.03,12.65c0,0-8.76-11.03-11.03-16.06s-29.52-29.03-32.77-29.36Z"/>
  <path class="st10" d="M932.35,785.54c0-1.17,28.22,20.11,32.12,22.71,0,0-32.12-15.57-32.12-22.71Z"/>
  <path class="st10" d="M948.41,777.75c-.16,1.3,20.6,16.54,29.03,17.19s8.84,0,8.84,0c0,0-10.14,2.52-15.98.29-5.84-2.23-21.9-17.48-21.9-17.48Z"/>
  <path class="st10" d="M1109.15,659.02s22.38,31.47,26.6,39.58,5.84,11.68,5.84,11.68c0,0-32.44-48.01-32.44-51.26Z"/>
  <path class="st10" d="M1101.04,669.4c.97,1.3,17.52,22.71,24.33,35.68,6.81,12.98,7.79,17.19,7.79,17.19l-32.12-52.88Z"/>
  <path class="st10" d="M1085.79,669.4s24.01,29.52,28.87,40.88c4.87,11.35,6.47,12.98,6.47,12.98l-35.35-53.85Z"/>
  <path class="st10" d="M1083.46,695.84s8.82,24.25,10.44,35.4l1.62,11.15-12.07-46.55Z"/>
  <path class="st10" d="M1091.96,656.42c-.25-1,6.15,9.41,11.51,9.41h5.36s-12.98,6.16-16.87-9.41Z"/>
  <path class="st5" d="M998.85,769.64s9.41,8.43,14.92,8.11,0-15.25,0-15.25c0,0,7.79,20.44-14.92,7.14Z"/>
  <path class="st5" d="M1021.56,762.51s3.27,9.25,12.02,9.65,7.12-9.65,7.12-9.65c0,0-3.57,14.6-19.14,0Z"/>
  <path class="st5" d="M970.95,765.43c-.66-.71,16.22,16.55,21.09,4.71,0,0-11.68,5.35-21.09-4.71Z"/>
  <path class="st10" d="M967.34,751.48s11.07,8.43,20.48,6.49c9.41-1.95,9.08-3.42,9.08-3.42,0,0-12.73,5.04-29.56-3.07Z"/>
  <path class="st10" d="M995.12,744.34c-1.73-1.07,15.08,10.71,23.84,7.14,8.76-3.57,6.81-3.18,6.81-3.18,0,0-13.95,6.42-30.66-3.96Z"/>
  <path class="st10" d="M1018.97,734.61s13.63,5.51,20.44,1.62l6.81-3.89s-5.51,5.84-27.25,2.27Z"/>
  <path class="st10" d="M964.47,732.34s10.34,6.67,17.66,5.28c7.32-1.39,7.13-5.28,7.13-5.28,0,0-7.6,7.14-24.79,0Z"/>
  <path class="st10" d="M1003.05,715.96s8.14,6.32,15.92,6.32,10.71-3.16,10.71-3.16c0,0-7.84,4.15-26.63-3.16Z"/>
  <path class="st10" d="M929.43,733.63s13.95,15.2,23.03,14.58,10.06-2.25,9.08-2.57-6.16,8.76-32.12-12Z"/>
  <path class="st10" d="M1040.82,710.28s7.34,2.92,11.88,0l4.54-2.92s-7.55,4.87-16.43,2.92Z"/>
  <path class="st10" d="M1068.28,662.01s3.57,4.28,7.46,5.03,5.51-2.51,5.51-2.51c0,0-8.11,1.77-12.98-2.51Z"/>
  <path class="st10" d="M880.77,802.41c-1.03-.91,24.66,28.87,26.6,36.33l1.95,7.46s12-7.79-28.55-43.8Z"/>
  <path class="st10" d="M894.39,800.79s20.11,13.45,24.33,20.83l4.22,7.39s-4.54-20.44-28.55-28.22Z"/>
  <path class="st10" d="M835.35,823.41c1.62-.89,23.68,26.36,26.28,35.45s-1.95,12.33-1.95,12.33c0,0,10.38-1.95,4.22-14.6-6.16-12.65-28.55-33.18-28.55-33.18Z"/>
  <path class="st10" d="M868.44,838.09c.65.97,19.79,22.73,21.74,31.32s-2.27,10.86-2.27,10.86c0,0,6.81-.3,4.54-10.86-2.27-10.55-24.01-31.32-24.01-31.32Z"/>
  <path class="st10" d="M806.15,815.7c-.73-1.18,27.57,36.34,35.36,40.89l7.79,4.54s-12,5.17-43.15-45.43Z"/>
  <path class="st10" d="M522.23,597.97c-2.21.58,10.12-2.35,15.06-4.61,4.94-2.26,6.97-9.04,6.97-9.04,0,0-7.73,9.9-22.03,13.65Z"/>
  <path class="st1" d="M471.33,828.17c-1.19.14,7.26.87,10.75,6.97,3.49,6.1,4.07,13.95,4.07,13.95,0,0,2.61-22.95-14.82-20.92Z"/>
  <path class="st10" d="M522.23,672.44s-11.38,5.23-9.93,7.55c1.45,2.32,9.67-1.45,9.67-1.45l.26-6.1Z"/>
  <path class="st10" d="M528.57,698.88s-6.21,6.68-5.28,8.72,8.19-4.36,8.19-4.36v-4.36h-2.91Z"/>
  <path class="st10" d="M533.11,709.05s-4.83,7.43-1.64,6.91,6.1-6.91,6.1-6.91v-3.49l-4.46,3.49Z"/>
  <path class="st10" d="M517.2,688.9l-5.03,1.55s-7.43,6.39-2.78,6.97,7.81-4.13,7.81-4.13v-4.4Z"/>
  <path class="st10" d="M495.74,679.13s-8.72,1.45-7.26,4.07,9.88,0,9.88,0l1.16-2.44-3.78-1.63Z"/>
  <path class="st10" d="M510.55,710.77l-2.69,1.18s-4.15,4.3-1.89,5.78,6.2-1.78,6.2-1.78l-1.62-5.18Z"/>
  <path class="st10" d="M531.47,729.1s-7.26,6.39-5.52,8.72,7.16-4.36,7.16-4.36l.87-5.52-2.5,1.16Z"/>
  <path class="st10" d="M512.17,749.06s-6.13,4.49-4.31,5.48,4.31-5.48,4.31-5.48Z"/>
  <path class="st1" d="M403.35,830.2c.44-.75-9.12,21.79-6.31,28.47,2.82,6.68,2.86,7.84,2.86,7.84,0,0-14.28-6.1,3.44-36.32Z"/>
  <path class="st1" d="M387.95,900.22s7.26,6.68,19.76,6.39l12.49-.29s-31.67,8.72-32.25-6.1Z"/>
  <path class="st10" d="M341.75,924.33c.21-.85-16.78,36.9-17.83,31.38s4.76-20.92,4.76-20.92c0,0-10.17,22.37-6.97,23.82,3.2,1.45,12.78-4.65,20.05-34.28Z"/>
  <path class="st10" d="M319.67,979.54s3.2,4.65,7.55,1.74,14.53-26.73,14.53-26.73c0,0-11.94,29.47-22.08,24.99Z"/>
  <path class="st10" d="M341.76,946.41s3.23,8.03,12.22-4.27,8.99-13.69,8.99-13.69c0,0-16.17,23.75-21.21,17.96Z"/>
  <path class="st1" d="M358.32,872.66s-3.11,3.91,2.51,6.15c5.62,2.23,13.75-1.39,13.75-1.39,0,0-23.53,13.88-16.27-4.76Z"/>
  <path class="st3" d="M650.3,317.41s12.2-9.01,15.69-9.88,8.43-3.78,8.43-3.78c0,0,2.03-7.3,0-10.91-2.03-3.61-5.66-14.71-5.66-14.71,0,0-20.48-4.89-31.81-2.85s1.74,35.15,1.74,35.15l11.62,6.97Z"/>
  <path class="st12" d="M638.39,288.36s-1.8,9.53,2.91,16.27c4.7,6.74,9.01,12.78,9.01,12.78,0,0-16.56,8.13-22.66,14.24-6.1,6.1-15.98,12.49-17.72,10.75l-1.74-1.74s-2.61-4.07-2.91-9.01,5.13-24.73,14.19-38.8c9.06-14.07,8.17-17.13,17.48-17.56,0,0-.58,2.51,2.61,2.85,3.2.34,20.93,18.97,22.38,23.02s-.3,4.63-1.46,3.47c-1.16-1.16-18.88-20.63-22.08-16.27Z"/>
  <path class="st4" d="M625.6,288.65s4.61-6.39,8.26-6.39h5.68s-9.01-8.13-13.95,6.39Z"/>
  <path class="st2" d="M647.68,278.14s2.5,6.15,7.21,7.61c4.7,1.45,1.51,0,1.51,0l-8.72-7.61Z"/>
  <path class="st3" d="M668.89,299.86s1.81-5.69,6.42-5.69,7.81,1.49,9.56,6.99-3.49,7.83-7.99,7.83c-4.5,0-7.99-9.13-7.99-9.13Z"/>
  <path class="st2" d="M670.91,299.86c0-.11,2.05-3.84,5.74-3.75s5.76,2.89,6.72,6.39c.96,3.5-5.25,5.25-7.46,4.51s-4.87-3.78-5-7.15Z"/>
  <path class="st3" d="M673.05,301.58s-.5-3.26,3.36-3.76,5.74,3.69,5.66,5.33-4.92,2.95-5.99,2.79-2.95-1.51-3.03-4.36Z"/>
  <path class="st4" d="M674.38,302.24c.26-.45,1.75-3.53,3.84-2.31s2.08,3.86.8,4.85-5.5-1.08-4.64-2.54Z"/>
  <path class="st10" d="M677.88,311.44c.41-.28,6.89.52,8.28-2.45,1.39-2.97.74-5.86,1.39-5.31s2.87,4.81-.57,7.27c-3.44,2.46-10.41,1.39-9.1.49Z"/>
  <path class="st5" d="M545.29,238s-1.48,6.9,0,9.21c1.48,2.31,3.94,2.56,4.1,3.13s-4.92.14-5.9-3.13c-.98-3.27.33-9.18,1.8-9.21Z"/>
  <path class="st10" d="M702.89,356.37c1.45,2.61,9.76,7.38,13.12,8.28,3.36.9,7.05,9.43,8.28,9.27,1.23-.16-1.8-7.54-2.71-9.43-.9-1.89-1.89-5.74-2.05-6.56s-.69,3.36-5.8,1.89-12.08-5.66-10.85-3.44Z"/>
  <path class="st2" d="M601.07,986.95s21.79-8.76,29.88-22.02c8.09-13.25,9.44-16.85,9.44-16.85,0,0-4.49,12.36-21.79,23.81-17.3,11.46-22.47,15.05-22.47,15.05h4.94Z"/>
  <path class="st2" d="M646.45,930.11s-5.17,5.39,0,7.64c5.17,2.25,15.28-3.82,15.28-3.82,0,0-8.64,9.89-17.57,6.74-8.94-3.15,2.3-10.56,2.3-10.56Z"/>
  <path class="st2" d="M594.33,952.35c1.12,0,8.76-1.57,20.44-14.6,11.68-13.03,13.25-15.73,13.25-15.73,0,0-16.62,26.06-25.16,30.33s-8.54,0-8.54,0Z"/>
  <path class="st2" d="M582.19,941.28c-1.67,3.54,16.38-21.23,16.38-21.23,0,0-15.93,20.28-16.38,21.23Z"/>
  <path class="st5" d="M566.69,731.24s-16.85,29.02-22.47,44.75-7.02,15.28-6.65,13.93,5.75-32.44,29.12-58.68Z"/>
  <path class="st5" d="M568.26,763.63s-4.27,32.13-4.49,48.53c-.22,16.4,14.84,64.78,18.31,66.65,3.48,1.87,4.42.38,4.17,0s-17.55-38.3-16.65-70.56c.9-32.26-1.35-44.61-1.35-44.61Z"/>
  <path class="st5" d="M598.58,847.28c-.66,1.05-7.17,48.45-6.95,53.17s2.92,6.74,2.7,6.07,3.56-30.1,4.25-38.87c.69-8.76,0-20.37,0-20.37Z"/>
  <path class="st5" d="M575.03,722.97s-7.39,7.85,0,10.66,9.67,1.92,9.67,1.92c0,0-26.27,4.27-9.67-12.58Z"/>
  <path class="st5" d="M582.08,740.93s.78,9.47,5.5,10.92,11.3,0,11.3,0c0,0-22.52,9.29-16.8-10.92Z"/>
  <path class="st5" d="M595.25,759.14s3.34,8.76,12.1,10.78,25.16-1.12,25.16-1.12c0,0-35.66,13.25-37.26-9.66Z"/>
  <path class="st10" d="M608.48,727.94s21.12,17.72,29.21,26.71c8.09,8.99,11.68,14.38,20.22,16.18s24.71,11.23,30.1,18.2l5.39,6.96s-11.12-19.99-25.78-25.16-18.7-7.19-24.32-13.93c-5.62-6.74-34.82-28.96-34.82-28.96Z"/>
  <path class="st5" d="M682.62,718.12c10.11,3.72,18.42,6.87,30.78,23.94,12.36,17.07,25.84,39.54,25.84,39.54,0,0-14.38-36.54-26.73-48.49-12.36-11.95-29.88-15-29.88-15Z"/>
  <path class="st5" d="M685.09,814.9s-.45,8.72-2.47,17.26-9.21,15.13-9.21,15.13c0,0,7.19-2.77,11.68-14.91s0-17.48,0-17.48Z"/>
  <path class="st5" d="M648.69,879.73s-12.85,11.28-8,17.8c4.85,6.52,10.51,2.92,10.51,2.92,0,0-4.99,5.39,2.2,9.89,7.19,4.49,10.56,1.57,10.56,1.57,0,0-12.97,11.74-16.18-8.09,0,0-14.6-3.93-11.01-12.53s11.91-11.56,11.91-11.56Z"/>
  <path class="st5" d="M693.4,837.1s-17.3,51.9-17.07,56.39,5.17,4.06,5.17,4.06c0,0-5.84,13.69-2.47,14.59s10.11-3.82,10.11-3.82c0,0-13.67,13.71-13.91,3.93s3.58-13.14,3.58-13.14c0,0-6.29-.59-4.49-10.4,1.8-9.82,19.1-51.6,19.1-51.6Z"/>
  <path class="st10" d="M691.6,891.3s-2.25,5.81,5.17,6.25c7.41.44,18.42-17.28,18.42-17.28,0,0-21.12,24.12-23.59,11.03Z"/>
  <path class="st10" d="M715.19,809.69l-21.79,55.04s22.02-47.18,21.79-55.04Z"/>
  <path class="st10" d="M693.4,912.13c1.57.22,9.84-4.49,9.84-4.49,0,0-4.99,3.37,0,3.37s16-13.46,16-13.46c0,0,.67,11.88,14.83,11.44,0,0,17.97,10.89,32.58,11.06,0,0,11.01,9.06,23.81,21.58s19.99,13.41,18.2,14.31-23.36,11.43-47.4-1.7c-24.04-13.13-32.35-19.65-32.35-19.65,0,0,8.54,19.99,23.59,27.63s25.84,20.67,25.84,20.67c0,0-13.93-12.13-19.77-13.7-5.84-1.57-27.41-15.73-36.62-21.12-9.21-5.39-26.35-22.14-32.27-33.87l3.74-2.07Z"/>
  <path class="st10" d="M788.43,933.93c-.65-.62,5.84,1.35,11.68,0s10.11-6.96,10.11-6.96c0,0,19.99,4.04,36.4,3.15s19.24-1.8,19.24-1.8c0,0-23.05,8.76-54.51,1.8,0,0-14.38,11.91-22.92,3.82Z"/>
  <path class="st10" d="M782.59,916.92c-.61-2.59,5.17,4.2,14.6,5.09,9.44.9,11.73,0,11.73,0,0,0-23.64,6.44-26.33-5.09Z"/>
  <path class="st10" d="M824.6,986.95c1.03-4.4,9.44-.45,18.65-4.04,9.21-3.59,13.48-9.44,13.48-9.44,0,0-3.82,7.64-12.36,11.68,0,0-21.34,8.54-19.77,1.8Z"/>
  <path class="st10" d="M824.52,908.18c1.54-.16,38.72,7.78,53.78,13.84s54.05,9.83,54.05,9.83c0,0-19.01,2.07-34.51-1.74-15.5-3.82-25.84-8.09-25.84-8.09,0,0-54.76-13.08-47.49-13.84Z"/>
  <path class="st10" d="M885.71,912.58c3.37.67,32.85,11.68,43.72,13.03,10.87,1.35,14.69,0,14.69,0,0,0,2.07,4.04-14.69,1.35-16.76-2.7-43.72-14.38-43.72-14.38Z"/>
  <path class="st10" d="M821.46,787.96c.9.16,14.58,16.5,27.84,18.67,13.27,2.16,14.39,0,14.39,0,0,0-7.36.6-19.55-4.24s-22.69-14.43-22.69-14.43Z"/>
  <path class="st10" d="M836.51,776.21s8.99,11.41,16.62,14.35,9.44,2.95,9.44,2.95c0,0-16.62,2.02-26.06-17.3Z"/>
  <path class="st10" d="M862.57,783.92c1.12-.51,10.56,6.65,10.56,6.65l-10.56-6.65Z"/>
  <path class="st10" d="M856.95,748.21c-1.04.09,13.93,6.91,17.07,10.04l3.15,3.13s-11.01-13.99-20.22-13.18Z"/>
  <path class="st10" d="M807.75,757.12c-.35-.73,10.33,8.93,12.13,8.29l1.8-.65s-6.74,7.41-13.93-7.64Z"/>
  <path class="st5" d="M707.78,767.34s-3.15,4.38-1.8,14.27,5.17,26.17,1.8,34.09-6.96,10.62-6.96,10.62c0,0,12.36-4,11.68-18.07-.67-14.06-6.94-24.4-5.83-28.21,1.11-3.82,1.11-12.7,1.11-12.7Z"/>
  <path class="st10" d="M899.64,762.51s14.78,11.24,28.17,13.71c13.39,2.47,14.97-1.92,14.97-1.92,0,0,2.29,5.96-10.42,5.51s-32.71-17.3-32.71-17.3Z"/>
  <path class="st10" d="M867.85,725.22l9.32.9,8.76-3.84s-3.82,9.45-18.09,2.94Z"/>
  <path class="st10" d="M894.39,720.5c-.93-.39,5.05,2.25,10.76,0l5.72-2.25s-.83,8.76-16.48,2.25Z"/>
  <path class="st10" d="M1029.67,626.37s4.31-3.59,8.58-4.04,6.29,0,6.29,0c0,0-14.69-4.72-14.87,4.04Z"/>
  <path class="st10" d="M752.26,853.5s16.4,33.56,19.32,35.2,5.84,0,5.84,0c0,0-3.59,8.47-9.66,0-6.07-8.47-15.5-35.2-15.5-35.2Z"/>
  <path class="st11" d="M465.89,1099.83s25.03,174.39,25.05,182.74,17.88,3.21,18.9,0-29.63-182.74-29.63-182.74h-14.32Z"/>
  <path class="st11" d="M795.74,1104.59s-14.99,55.35-18.31,59.2-4.53,24.03-4.57,29.67c-.04,5.64-23.56,106.44-23.56,106.44,0,0,9.5,3.85,15.55,0l20.55-103.37s6.94-11.56,10.34-26.32c3.4-14.77,2.76-20.54,2.76-20.54l16.22-50.54-18.98,5.46Z"/>
  <path class="st0" d="M836.51,1129.18s5.15,6.36,4.11,17.92c-1.04,11.56-16.42,113.64-12.9,119.42,3.52,5.78,13.04,3.85,13.04,3.85l15.97-122.63,3.81-21.27-3.81-22.39-20.22,25.09Z"/>
  <path class="st8" d="M527.33,1252.23c-5.21,3.64-3.27,8.01-8.23,12.2l-4.96,4.19s6.44,4.47,4.96,9.93-8.12,15.37-10.73,19.36-5.05,4.59-6.34,8.5-1.26,9.34-2.71,13.35-18.19,1.99-11.43,7.44,15.43,9.43,14.14,13.9-10.25,15.31-11.06,19.11,2.43,2.84-3.08,14.45-2.75,12.6-3.62,16.05-16.53,26.38-15.42,29.59,12.46,10.16,11.01,14.63-6.92,21.35-6.92,23.83,2.2,8.94,2.2,8.94c0,0,4.68,48.66,4.72,47.17s47.48-262.65,47.48-262.65Z"/>
  <path class="st8" d="M759.41,1318.76c2.94.09,6.45,7.94,10.92,10.92s6.45.99,5.96,7.45-1.49,12.41,5.71,15.39,18.62-2.81,16.63,0-17.87,7.7-16.63,10.12.25,12,3.23,16.08,9,4.44,10.51,12.03,4.55,17.62,4.95,18.99-.56,14.77-2.05,12.78-39.22-103.77-39.22-103.77Z"/>
  <path class="st8" d="M831.16,1281.38c1.52,8.38,19.11,5.73,19.11,5.73,0,0-22.26,5.83-22.55,5.09s3.44-10.82,3.44-10.82Z"/>
  <path class="st8" d="M833.45,1321.24c2.42,9.93,11.46,9.43,10.41,13.41s-5.75,9.03-5.17,11.92.71,5.77,1.92,10.19,11.14,12.91,9.65,15.51-7.17,8.82-11.28,6.46-5.53-57.48-5.53-57.48Z"/>
  <path class="st8" d="M827.2,1273.08c-3.21-4.2,20.09,0,20.09,0,0,0-12.88,9.43-20.09,0Z"/>
  <path class="st8" d="M493.18,1292.26c8.05,1.18,27.32-2.45,27.32-2.45,0,0-4.53,5.07-10.66,5.84s-16.66-3.39-16.66-3.39Z"/>
  <path class="st8" d="M456.16,1365.61c17.01.5,12.52,6.8,37.03,6.65s27.32,0,27.32,0c0,0-35.91,4.11-45.38,2.85s-18.16-5.7-22.32-2.85,3.35-6.65,3.35-6.65Z"/>
  <path class="st8" d="M465.89,1398.63c15.78,1.5-2.23,2,27.29,2.5s52.03-.5,39.02,2.5-53.03.5-61.04,0-18.01,0-26.02,0,20.75-5,20.75-5Z"/>
  <path class="st8" d="M792.37,1398.63c1.22.34,2.33.64,3.36.88,15.9,3.78,11.02-3.7,33.37-.88,23.8,3,45.82-2.68,44.32.66s-20.44,5.02-40.49,5.8-18.83-.55-37.2,0-30.26,1.95-36.32,0,32.96-6.46,32.96-6.46Z"/>
  <path class="st8" d="M782,1440.67c25.38-.51,22.38,1.99,39.39.99s34.15-5.5,35.34-3.5-25.33,7.5-35.34,7.5-22.74-2.5-39.39-2-34.83,3.5-29.74,2,29.74-4.99,29.74-4.99Z"/>
  <path class="st8" d="M401.12,1449.66c29.52,3.5,35.47,3.34,58.26,2.67s35.8,2.33,43.8,2.33-14.71-2-29.39,0-23.14,2.5-43.66,3-41.03,0-41.03,0l12.01-8.01Z"/>
  <path class="st8" d="M364.1,1518.21c-10.38,1-17.12,5.89-3.5,8.01s13.51.5,34.52,2,52.81-11.51,78.94-5,42.14-1.5,55.15,0-7.64-5-19.33-5-45.71,2.5-79.73,0-66.04,0-66.04,0Z"/>
  <path class="st8" d="M644.78,1528.34c26.4,1.53,38.02,0,38.02,0,0,0,20.01,7.88,9.51,6.38s-24.52-1.19-42.03-3.1-26.52-3.29-26.52-3.29h21.01Z"/>
  <path class="st8" d="M827.72,1534.91c26.19-.69,22.34-2.31,45.78,0s43.96,0,43.96,0c0,0-25.52-2.38-35.52-3.29s-54.21,3.29-54.21,3.29Z"/>
  <path class="st8" d="M584.24,1634.28c31.02.5,44.53,3,70.05,3.5s30.02-3.5,69.04-1.75,57.54,1.34,54.54,1.79-58.04-.96-72.05,0-28.52,3.96-54.04,3.96-80.05-5.73-93.06-3.87,25.52-3.64,25.52-3.64Z"/>
  <path class="st8" d="M498.06,1662.8c17.14,0,41.15,1,73.17,2.5s71.05-6,102.07-5.5,177.13,3,177.13,3c0,0-162.48-1.83-183.31-.16s-61.36,5.17-91.38,5.17-77.68-5-77.68-5Z"/>
  <path class="st8" d="M873.5,1641.79c.53-.09,1.68-.38,3.42-.77,7.83-1.77,27.66-5.64,57.55-2.98,36.52,3.25,115.07,3.75,115.07,3.75l57.04-2.33-4.88,2.33s-110.7,3-136.71,3-32.52-7-56.54-3-78.55,3-78.55,3l43.6-3Z"/>
  <path class="st8" d="M366.1,1628.78c16.41-2.05,33.02,8.51,69.55,5.5s71.46-4.5,52.24-5.5-55.24,0-71.75,0-69.55-.44-69.55-.44c0,0-16.51,4.95,19.51.44Z"/>
  <path class="st9" d="M472.79,1275.87c-3.51,0,3.19-7.01,7.65-7.01s-20.93-3.82-18.11,3.51,18.64,5.27,18.64,5.27l-8.17-1.76Z"/>
  <path class="st9" d="M450.48,1272.88c-2.55.76-33.48-.2-48.13-2.43s-17.83-2.95-16.24-2.59,11.38,5.78,30.07,6.73,34.3-1.71,34.3-1.71Z"/>
  <path class="st9" d="M346.29,1272.88c-6.67,3.49,29,1.92,29,1.92,0,0-23.9-4.59-29-1.92Z"/>
  <path class="st9" d="M275.55,1267.86s-4.78,4.98,10.52,7.29,28.68-1.55,28.68-1.55c0,0-70.1,14.3-39.19-5.74Z"/>
  <path class="st9" d="M222.02,1275.15c.94-.28-17.21-.46-24.54-.35s-8.6-.03-8.6-.03c0,0,24.85,2.85,33.14.38Z"/>
  <path class="st9" d="M161.79,1280.33c7.33,3.82,9.24,4.14,27.08,5.74s46.84,4.46,46.84,4.46c0,0-46.2,2.23-58.31,0s-23.58-7.65-23.58-7.65l7.97-2.55Z"/>
  <path class="st9" d="M239.54,1256.11c-1.91,1.59-3.51,1.27,0,7.33s19.12,9.32,17.84,9.44-16.89-3.82-21.67-8.38,3.82-8.38,3.82-8.38Z"/>
  <path class="st9" d="M473.73,1283.5c-7.27-.91,17.82-1.5,16.54,2.6s8.98.59-16.54-2.6Z"/>
  <path class="st9" d="M478.59,1258.98s-11.17-2.55-19,0-11.05,2.85-11.05,2.85l30.06-2.85Z"/>
  <path class="st9" d="M744.55,1282.84c-2.55,2.25-7.33,4.78-3.82,5.11s3.82-5.11,3.82-5.11Z"/>
  <path class="st9" d="M869.86,1288.04c8.25.35,15.93-2.27,15.76,0s-6.73,3.56-9.03,3.55-6.73-3.55-6.73-3.55Z"/>
  <path class="st9" d="M882.1,1276.92c5.25,0,10.84.64,9.8-1.27s-24.73.2-19.1,1.38,9.3-.1,9.3-.1Z"/>
  <path class="st9" d="M921.15,1288.04c7.63-.28,22.07,2.24,20.26-.93s-20.26.93-20.26.93Z"/>
  <path class="st9" d="M928.78,1294.56c8.28-.11,25.84-2.12,22.48,0s-29.33,2.33-25.9,1.17l3.42-1.17Z"/>
  <path class="st9" d="M963.23,1288.72c13.34-.21,19.23-2.22,16.76,0s-20.26.05-16.76,0Z"/>
  <path class="st9" d="M855.05,1293.59c8.41.22,12.23-2.77,10,0s-18.8,4.82-16.89,2.84,6.89-2.84,6.89-2.84Z"/>
  <path class="st9" d="M791.66,1270.54c.74,4.48,1.67,7.34,2.8,8.3s9.07,7.13,7.01,7.07-10.66-2.56-11.3-7.68,1.49-7.68,1.49-7.68Z"/>
  <path class="st9" d="M779.33,1285.9c1.91,4.4,4.04,5.58,6.54,6.5s6.84,1.21,4.18,2.6-2.81,2.21-7.24-.45-3.48-6.87-3.48-6.87v-1.79Z"/>
  <path class="st9" d="M719.7,1303.57c3.98-.79,14.02.02,9.88,2.88s-14.66-1.93-9.88-2.88Z"/>
  <path class="st9" d="M575.99,1300.77c.32,1.22-12.03,2.2-7.29,2.82s12.07,4.18,12.7-.3-5.42-2.52-5.42-2.52Z"/>
  <path class="st9" d="M612.17,1305.97c-.18,1.11,8.43,3.72,9.06,1.3s-9.06-1.3-9.06-1.3Z"/>
  <path class="st9" d="M674.13,1305.71c5.06-1.23,12.73,1.28,12.73,1.28,0,0-25.47,1.81-12.73-1.28Z"/>
  <path class="st9" d="M409.15,1293.59c-9.69-4.52,42.41,12.12,42.41,12.12,0,0-16.1.16-42.41-12.12Z"/>
  <path class="st9" d="M389.85,1301.62c3.02-1.65,24.15,8.98,53.89,13.16s24.52,6.63,22.95,6.46-101.2-6.29-76.84-19.62Z"/>
  <path class="st9" d="M433.74,1282.84s2.16,6.82,17.82,9.97,25.06,2.93,25.06,2.93c0,0-71.46-2.42-42.87-12.9Z"/>
  <path class="st9" d="M368.81,1286.82s22.92,4.59,28.23,4.77-31.09,4.22-28.23-4.77Z"/>
  <path class="st9" d="M804.08,1306.99c-9.85-5.14,20.44-.54,20.44-.54,0,0-11.33,5.3-20.44.54Z"/>
  <path class="st9" d="M862.16,1304.55c-14.26-1.95,43.98-4.22,43.98-4.22,0,0-11.65,8.63-43.98,4.22Z"/>
  <path class="st9" d="M621.27,1286.42c16.1.27,26.7-2.04,49.29,0s53.96,0,53.96,0c0,0-25.82,3.55-37.66,3.53s-15.67-2.01-36.76-1.61-51.21,0-51.21,0l22.38-1.92Z"/>
  <path class="st9" d="M541.83,1278.54c6.28-.02,21.78-1.96,33.21-.64s36.14-.63,36.14-.63l-69.35,1.27Z"/>
  <path class="st9" d="M675.22,1271.29c-15.44-3.92,67.37.33,64.27-.75s-54.3,3.28-64.27.75Z"/>
  <path class="st9" d="M548.44,1264.5c-12.59,5.23,23.25,3.16,43.19,3.36s48.76-.09,48.76-.09c0,0-86.73-5.44-91.94-3.28Z"/>
  <path class="st9" d="M541.83,1311.35c-14.65-7.39,30.19,2.04,53.45,3.44s54.82,0,54.82,0c0,0-97.11,2.19-108.27-3.44Z"/>
  <path class="st9" d="M673.3,1321.24c-16.27,3.76,67.65,0,67.65,0l11.31-2.48s-73.71,1.27-78.96,2.48Z"/>
  <path class="st9" d="M508.36,1322.91c-4.39-14.06,60.41,4.42,90.52,4.42s44.76-2.21,44.76-2.21c0,0-133.17,4.52-135.28-2.21Z"/>
  <path class="st9" d="M1047.51,1275.46c-12.93-2.36,45.92,9.84,39.64,9.93s-57.48,5.7-57.48,5.7c0,0,58.4-8.24,17.84-15.64Z"/>
  <path class="st9" d="M608.08,1350.24c-20.68-3.71,71.57-1.99,110.4-4.78s46.37-2.79,46.37-2.79c0,0-137.94,10.95-156.77,7.56Z"/>
  <path class="st8" d="M611.17,1500.04c1.94.14,30.09,4.93,64.05,4.93,36.64,0,76.63-3.08,102.2-2.46,25.57.62,52.48,0,52.48,0,0,0-57.1,5.84-84.33,3.65-27.23-2.18-81.53,3.4-104.87.49s-46.37-2.87-46.37-2.87l18.78-3.6"/>
  <path class="st8" d="M687.09,1582.39c4.53-1.05,37.35-6.82,77.76-3.67,40.4,3.15,43.66,4.72,97.73,3.67s99.28.32,99.28.32c0,0-96.39,7.49-126.5,5.16-30.1-2.33-65.5-7.05-86.06-7.05s-62.21,1.57-62.21,1.57Z"/>
  <path class="st8" d="M871.6,1566.06c-3.02-6.41,52.72-2.16,79.8,0s130.84.62,130.84.62c0,0-206.13,8.96-210.65-.62Z"/>
  <path class="st8" d="M310.77,1588.32c17.74-2.4,128.43.54,128.43.54l-128.43-.54Z"/>
</svg>