<?xml version="1.0" encoding="UTF-8"?>
<svg id="Vrstva_1" xmlns="http://www.w3.org/2000/svg" xmlns:xlink="http://www.w3.org/1999/xlink" version="1.1" viewBox="0 0 141.73 141.73">
  <!-- Generator: Adobe Illustrator 29.7.1, SVG Export Plug-In . SVG Version: 2.1.1 Build 8)  -->
  <defs>
    <style>
      .st0 {
        fill: none;
      }

      .st1 {
        fill: #548931;
      }

      .st2 {
        fill: #b0cb2e;
      }

      .st3 {
        fill: #9ebc1d;
      }

      .st4 {
        fill: #765b22;
      }

      .st5 {
        fill: #a5c71c;
      }

      .st6 {
        fill: #8faf25;
      }

      .st7 {
        fill: #9bb52a;
      }

      .st8 {
        clip-path: url(#clippath-1);
      }

      .st9 {
        fill: #c0d238;
      }

      .st10 {
        fill: #d1da48;
      }

      .st11 {
        letter-spacing: 0em;
      }

      .st12 {
        fill: #497729;
      }

      .st13 {
        fill: #706f6f;
        font-family: AlegreyaSans-Bold, 'Alegreya Sans';
        font-size: 12px;
        font-weight: 700;
      }

      .st14 {
        letter-spacing: 0em;
      }

      .st15 {
        letter-spacing: 0em;
      }

      .st16 {
        clip-path: url(#clippath);
      }
    </style>
    <clipPath id="clippath">
      <rect class="st0" width="141.73" height="141.73"/>
    </clipPath>
    <clipPath id="clippath-1">
      <rect class="st0" x="2.13" width="137.48" height="137.48"/>
    </clipPath>
  </defs>
  <g class="st16">
    <text class="st13" transform="translate(54.71 130.07)"><tspan x="0" y="0">h</tspan><tspan class="st15" x="6.4" y="0">r</tspan><tspan x="10.46" y="0">รกลก</tspan><tspan class="st14" x="20.84" y="0">e</tspan><tspan class="st11" x="26.46" y="0">k</tspan></text>
    <g class="st8">
      <path class="st12" d="M92.32,63.44s23.66,6.95,27.38,7.55c3.73.6,8.86,2.72,8.86,2.72l-4.23,1.31-18.22-3.02-15.71-7.65,1.91-.91Z"/>
      <path class="st12" d="M118.3,69.23s10.27,4.08,12.18,4.48c1.91.4,2.42.6,3.32.5.91-.1-.71-.81-.71-.81l-16.01-5.74-10.97-2.32v.6l12.18,3.27Z"/>
      <path class="st1" d="M29.3,42.8l13.19-.81,53.05,9.16,21.34,7.65s8.05,4.13,10.07,6.14c2.01,2.01,1.81,3.85,2.42,4.85.6.99,4.43,4.42,4.43,4.42,0,0-4.83-1.51-7.95-2.72-3.12-1.21-5.8-2.82-8.46-3.02-2.65-.2-18.02-4.13-22.35-5.03s-53.56-15.81-58.49-17.72l-4.93-1.91-2.32-1.01Z"/>
      <path class="st5" d="M109.49,69.79s-2.17-3.71,0-7.57c2.17-3.86,7.9-2.19,9.06-1.42l1.16.77s1.37,1.34.84,4.83c-.53,3.49-2.83,5.28-4.76,5.41-1.93.13-5.57-1.54-6.29-2.02"/>
      <path class="st5" d="M44.47,48.32s.05-3.35,2.3-4.12c2.25-.77,6.37.26,7.27.77.9.51.84,4.89-.45,6.63l-9.13-3.28Z"/>
      <path class="st5" d="M43.61,47.76s1.03-2.57,0-3.84c-1.03-1.27-6.37-1.72-8.05-.82-1.67.9-1.51,1.65-1.51,1.65l9.56,3.01Z"/>
      <path class="st2" d="M110.37,65.35s.19-4.16,3.41-4.48c3.22-.32,5.6,1.74,5.79,3.41.19,1.67.33,3.72-.97,4.94-1.3,1.23-2.96,1.24-2.96,1.24,0,0,.77-1.8.51-3.6-.26-1.8-5.79-1.51-5.79-1.51"/>
      <path class="st2" d="M45.03,47.99s.26-2.31,2.25-2.79c2-.48,5.22.1,5.54,2.03.32,1.93-.69,3.49-.69,3.49l-7.1-2.21v-.51Z"/>
      <path class="st2" d="M37.88,45.49s.32-1.16,1.67-1.16,3.71-.01,3.54,1.6l-.17,1.61-5.13-1.61.08-.44Z"/>
      <path class="st10" d="M117,63.44s.97.97,1.1,1.55c.13.58.84,1.43,1.16.36.32-1.07-1.03-2.1-1.74-2.61s-.77.42-.51.7"/>
      <path class="st10" d="M51.73,47.57s-.98,1.64,0,1.71c.98.06.77-1.15.64-1.73-.13-.58-.64.02-.64.02"/>
      <path class="st9" d="M46.12,46.84l.32-.45s-.64.13-.32.45"/>
      <path class="st3" d="M52.07,44.33s2.43.68,2.92,1.97l.49,1.29-1.88,4.02s1.54-6.07-1.52-7.28"/>
      <path class="st12" d="M125.37,65.65s.45,2.04,1.03,3.2c.58,1.16,1.35,1.61,1.35,1.61,0,0-2.7-.74-2.38-4.81"/>
      <path class="st4" d="M132.22,76.33s.65-1.01.15-1.32c0,0,1.67.86,1.42,1.69-.25.84-1.57-.38-1.57-.38"/>
      <path class="st4" d="M132.52,74.21s1.61,1.36,1.87.81c.26-.56-1.36-2.24-1.36-2.24,0,0,.3,1.66-.51,1.43"/>
      <path class="st7" d="M19.79,37.19s.58-.46-1.55-.4c-2.12.07-5.09-.45-6.05-.58-.97-.13-2.83.26-1.48,1.74,1.35,1.48,4.34,3.22,4.34,3.22,0,0,1.01,1.44,2.42,1.46,1.42.02,2.65-1.18,2.65-1.18,0,0-1.81-1.63-1.36-2.6.45-.97,1.03-1.66,1.03-1.66"/>
      <path class="st4" d="M15.8,40.27s.58.58.9.9c.32.32,2.06-.16,2.06.82s-1.61,1.49-1.8,2.65c-.19,1.16.89,2.39.74,2.65-.16.25-2.43-1.33-2.52-3.37-.09-2.04.11-4.16.62-3.65"/>
      <path class="st7" d="M11.1,36.19c.17,0-1.61-.88-1.48-2.1.13-1.22,1.22-2.38.19-2.45-1.03-.06-2.57.26-2.51,1.48.06,1.22.59,2.56,3.41,4.83,0,0-.26-1.76.39-1.76"/>
      <path class="st5" d="M53.59,51.6s1.16-5.15,4.38-5.54c3.22-.39,5.99.04,7.15,1.5,1.16,1.46,1.01,2.17,1.01,2.17l-2.75,5.02-9.79-3.15Z"/>
      <path class="st2" d="M55.02,51.6s-.4-2.96,1.66-3.41c2.06-.45,5.99-.26,6.44,1.71.45,1.96-.11,3.6-1.35,3.77-1.24.17-6.74-2.06-6.74-2.06"/>
      <path class="st10" d="M61.38,50.34s.51-.28.71.49c.19.77-.19,2.5-.71,1.93-.51-.58-.4-2.41,0-2.41"/>
      <path class="st9" d="M56.49,49.28s-.32.51,0,.71.45-.84,0-.71"/>
      <path class="st3" d="M63.86,46.61s2.19,1.06,2.27,3.12l-2.75,5.02s1.19-4.8.84-6.47c-.36-1.67-1.19-1.99-1.19-1.99l.83.32Z"/>
      <path class="st5" d="M63.38,54.76s.58-4.64,3.8-5.47c3.22-.84,6.61.19,7.85,1.48,1.23,1.29,1.14,2.64,1.14,2.64l-3.32,4.7-9.46-3.35Z"/>
      <path class="st2" d="M65.36,54.76c-.2-.06-.95-3.15,1.49-3.73,2.45-.58,5.67.09,5.98,2.52.32,2.43-1.17,3.12-1.17,3.12l-6.3-1.9Z"/>
      <path class="st9" d="M66.14,52.56s.53-1.02,1.36-.96c.84.07.9.48.9.48,0,0-1.22-.09-1.48.33-.26.42-.98.45-.78.15"/>
      <path class="st10" d="M71.04,53.67s.64-.08.77.44c.13.51-.26,2.54-.97,1.85s.19-2.29.19-2.29"/>
      <path class="st3" d="M73.21,49.64c-.26-.05,1.2,1.49,1.31,2.76.1,1.27-2.16,5.52-2.16,5.52l3.81-4.53s.25-3.11-2.95-3.76"/>
      <path class="st5" d="M72.84,58.1s-.26-4.91,4.44-5.54c4.7-.63,6.95.84,7.98,2.77,1.03,1.94-1.55,7.41-1.55,7.41l-10.88-4.64Z"/>
      <path class="st2" d="M75.02,57.88s-.38-2.61,1.43-3.12c1.8-.51,5.41.87,6.05,2.82.64,1.95-.26,3.15-.71,2.94-.45-.22-6.77-2.63-6.77-2.63"/>
      <path class="st9" d="M75.61,56.66s.67-.91.55-1.32c-.12-.41-1.07,1.23-.55,1.32"/>
      <path class="st10" d="M80.63,58.1s.49-.39.92,0,.7,1.96,0,1.99c-.7.03-1.18-.9-.92-1.99"/>
      <path class="st3" d="M83.72,62.74s3.13-5.62,1.11-8.09c0,0,.61,1.11-.22,2.93-.83,1.82-1.89,3.49-1.89,3.49l1,1.67Z"/>
      <path class="st5" d="M84.49,61.96c0-.38-.32-3.84,1.92-5.32,2.24-1.47,4.16-1.15,6.21-.32,2.05.83,3.27,2.51,3.45,4.04.19,1.52-.03,4.3-1.15,4.97-1.12.67-10.44-3.37-10.44-3.37"/>
      <path class="st2" d="M86.67,61.83c-.04-.19-1.09-3.23.64-4.24,1.73-1.01,5.89-.12,6.79,2.19.9,2.31.26,4.55-.51,4.68s-6.74-1.85-6.92-2.63"/>
      <path class="st9" d="M86.93,59.78s.26-1.28,1.03-1.18c.77.09.45.61,0,.93s-.83.96-1.03.25"/>
      <path class="st10" d="M92.31,60.53s1.15-.18,1.22.75c.06.93-.28,1.53-.9,1.44l-.62-.09s-.47-.78.3-2.11"/>
      <path class="st3" d="M94.67,57.59s1.86,1.41,1.96,3.25l-.35,4.96-1.69-.15s1.69-5.42.08-8.06"/>
      <path class="st5" d="M96.28,65.8s-.64-3.84.9-6.02c1.54-2.19,4.64-2.06,7.15-1.67,2.51.39,3.77,2.99,3.8,5.33.02,2.34-.07,5.71-2.25,5.79-2.19.08-9.46-1.85-9.59-3.43"/>
      <path class="st2" d="M97.35,63.96c0-.06.16-3.83,2.08-4.95,1.92-1.12,6.5.12,7.21,2.47.71,2.35-.3,5.3-1.02,5.79-.72.49-1.74.28-2.39-.68-.65-.96-1.6-1.62-2.55-1.85-.94-.22-3.4.14-3.33-.79"/>
      <path class="st10" d="M104.06,61.64s.71.02,1.22.94c.51.92.13,1.97-.32,1.9-.45-.07-.97-.28-.9-1.04.06-.76-.79-2.18,0-1.79"/>
      <path class="st9" d="M98.91,61.58s-.19-.74.9-.76c1.1-.01.19.37,0,.76s-.9,0-.9,0"/>
      <path class="st3" d="M105.53,58.5s2.99.81,2.99,4.08c0,3.27-.21,6.18-2.14,6.64,0,0,3.71-6.21-.85-10.73"/>
      <path class="st9" d="M111.98,63.87s0-.87.47-1.13c.47-.26.73-.52.77-.15.04.37-.77,1.03-.62,1.28.15.25.24.6.24.6,0,0-.92-.11-.86-.6"/>
      <path class="st6" d="M31.9,43.1s15.71,5.61,18.54,6.54c2.83.93,30.66,10.26,33.68,11.19s15.21,5.24,18.02,5.96c2.81.72,14.29,4.83,19.57,5.79,5.28.97,8.5,1.22,10.17,2.12,1.67.9,1.67,1.8,1.16,1.8s-5.09-1.59-6.12-1.5c-1.03.09-4.96,1.89-11.2,2.02-6.24.13-37.21-9.13-52.02-14-14.81-4.86-26.98-10.58-29.65-13.39-2.67-2.81-1.12-3.19-3.64-4.61-2.51-1.42-5.54-2.54-7.21-3.04-1.67-.5-2.96-.57-3.99-.57s-1.8-2.51-1.42-3.09c.39-.58,1.67-1.35,2.45-1.09.77.26,5.73,3.09,7.47,3.54,1.74.45,3.86.97,7.27.26,3.41-.71,5.41-1.93,13.97-1.42,8.56.51,35.86,6.31,44.16,8.66,8.31,2.35,20.41,7.31,25.24,9.59,4.83,2.28,9.72,7.03,10.75,9.65,1.03,2.62,5.33,6.25,4.69,6.68,0,0-3.98-2.78-4.76-3.75-.77-.97-1.29-4.82-3.61-6.24-2.32-1.42-16.42-7.08-24.27-9.34-7.85-2.26-33.44-7.12-43.6-8.75-10.16-1.62-22.64-4.16-25.67-3.04"/>
      <path class="st6" d="M31.64,45.93s5.7,4.58,17.92,9.66c12.21,5.09,45.39,15.52,52.56,17.45s12.39,3.68,16.82,3.77c0,0-6.38.74-12.36,0-5.99-.74-46.36-14.85-51.93-16.71-5.56-1.86-23.58-9.15-23.01-14.17"/>
      <path class="st5" d="M64.7,77.46s2.96-2.93,6.11-2.22c3.16.71,6.66,4.11,6.49,5.89-.17,1.78-1.72,7.35-6.39,6.77-4.67-.59-7.12-1.79-8.1-3.97-.98-2.18,1.4-6.04,1.88-6.47"/>
      <path class="st5" d="M84.28,97.07s.4-2.56,2.76-3.5c2.36-.94,5.32-1.15,6.67.34,1.35,1.48,2.9,6.53,1.28,8.69-1.62,2.15-4.38,3.64-7.54,2.69-3.17-.94-3.47-7.23-3.17-8.21"/>
      <path class="st2" d="M66.5,77.56s2.81-1.85,5.21-1.22c2.4.63,3.31,3.98,3.26,5.37-.05,1.39-.7,2.39-1.67,2.11-.97-.28-1.08-1.73-3.11-2.28-2.03-.55-4.09-.45-4.35-1.72-.26-1.27.66-2.26.66-2.26"/>
      <path class="st2" d="M93.92,99.56c.02-.09.88-2.56-.4-4.17s-6.19-1.75-6.87-.47c-.67,1.28-1.55,2.95-.27,3.33s5.45,1.39,5.39,2.53c-.07,1.14,1.89-.14,2.15-1.21"/>
      <path class="st9" d="M69.97,78.15s-1.68.21-1.03.4c.65.19.88.11,1.03-.4"/>
      <path class="st10" d="M72.36,80.04s.13.53,1.08.88c.95.35,1.19-.71.8-.82-.39-.11-2.22-.53-1.88-.06"/>
      <path class="st9" d="M86.97,96.32s-.54,1.41,0,1.48c.54.07.34-1.35,0-1.48"/>
      <path class="st10" d="M90.67,96.73s1.89.68,1.75,0c-.14-.68-2.09-.6-1.75,0"/>
    </g>
  </g>
</svg>