<?xml version="1.0" encoding="UTF-8"?>
<svg id="Vrstva_1" xmlns="http://www.w3.org/2000/svg" xmlns:xlink="http://www.w3.org/1999/xlink" version="1.1" viewBox="0 0 283.46 283.46">
  <!-- Generator: Adobe Illustrator 29.7.1, SVG Export Plug-In . SVG Version: 2.1.1 Build 8)  -->
  <defs>
    <style>
      .st0 {
        fill: none;
      }

      .st1 {
        fill: #472f2f;
      }

      .st2 {
        fill: #bc9377;
      }

      .st3 {
        fill: #ce9b72;
      }

      .st4 {
        fill: #b08262;
      }

      .st5 {
        fill: #140c0c;
      }

      .st6 {
        fill: #fff;
        font-family: SebastianTextPro, 'Sebastian Text Pro';
        font-size: 20px;
      }

      .st7 {
        clip-path: url(#clippath-1);
      }

      .st8 {
        fill: #efc0a0;
      }

      .st9 {
        letter-spacing: 0em;
      }

      .st10 {
        fill: #7c6262;
      }

      .st11 {
        letter-spacing: 0em;
      }

      .st12 {
        fill: #a57351;
      }

      .st13 {
        fill: #ddac7e;
      }

      .st14 {
        letter-spacing: -.01em;
      }

      .st15 {
        letter-spacing: -.01em;
      }

      .st16 {
        letter-spacing: 0em;
      }

      .st17 {
        letter-spacing: 0em;
      }

      .st18 {
        letter-spacing: 0em;
      }

      .st19 {
        letter-spacing: -.01em;
      }

      .st20 {
        letter-spacing: -.01em;
      }

      .st21 {
        letter-spacing: 0em;
      }

      .st22 {
        letter-spacing: 0em;
      }

      .st23 {
        fill: #bc8863;
      }

      .st24 {
        letter-spacing: .03em;
      }

      .st25 {
        clip-path: url(#clippath);
      }

      .st26 {
        fill: #5e4242;
      }

      .st27 {
        letter-spacing: 0em;
      }

      .st28 {
        fill: #ba7765;
      }
    </style>
    <clipPath id="clippath">
      <rect class="st0" width="283.46" height="283.46"/>
    </clipPath>
    <clipPath id="clippath-1">
      <rect class="st0" x="19.84" y="19.84" width="243.78" height="243.78"/>
    </clipPath>
  </defs>
  <g class="st25">
    <rect class="st8" x="19.84" y="19.84" width="243.78" height="243.78"/>
    <polygon class="st2" points="19.84 214.6 19.84 263.62 263.62 263.62 263.62 153.76 19.84 214.6"/>
    <g class="st7">
      <path class="st4" d="M132.25,242.19s-36.82-20.64-46.01-29c-9.19-8.36-14.26-11.25-11.12-18.32,3.15-7.07,6.7-9.34.87-21.19-5.83-11.85-8.93-21.18-13.67-27.06-4.74-5.88-11.41-26.94-9.4-32.87,2.01-5.94-8.98-5.98-10.83-16.52-1.85-10.55-.52-12.63-1.24-19.28-.72-6.65-8.26-18.31-9.56-30.9-1.3-12.59,5.46-21.62,10.8-15.98,5.34,5.63,15.47,21.99,15.47,21.99,0,0,10.93-1.52,17.07.24,0,0,14.48-28.06,22.85-23.45,8.36,4.61,8.82,31.15,5.59,37.72-3.24,6.58-8.94,11.36-5.42,17.11,3.52,5.74,65.43-5.33,80.22,5.7,14.79,11.02,22.08,24.05,19.24,42.48-2.83,18.43-9.89,54.79-4.94,60.14,4.95,5.35,46.4,20.31,43.92,24.36-2.48,4.05-5.97,8.3-16.59,4.58-10.62-3.71-17.14-7.24-23.79-8.67-6.64-1.43-17.53-2.54-26.73-.61-9.19,1.92-19.35,27.35-19.35,27.35,0,0-10.46,2.24-17.4,2.2"/>
      <path class="st3" d="M111.93,174.01s5.77,14.67,8.78,17.8c3.01,3.13,4.33,7.58,6.37,11.78,2.04,4.21,3.85,4.21,3.13,7.82-.72,3.61-1.32,5.65-3.01,7.1-1.68,1.44-8.18,3.49-8.9,6.37-.72,2.89.84,2.77.84,2.77,0,0-.8.96,2.01,1.56,2.81.6,4.37,0,4.37,0,0,0,3.73.3,6.73.27s7.94-5.92,10.1-8.44c2.16-2.52,0-19.6-1.08-22s-2.04-8.66-2.04-8.66c0,0-22.73-19.48-27.3-16.35"/>
      <path class="st12" d="M118.78,223.89s-.61,2.06.23,2.23c.84.17,1.58-.28,1.58-.28,0,0-1.13,1.58.73,2.19,1.86.62,4.33-1.74,4.33-1.74,0,0-.45,1.33.73,1.85,1.18.52,5.52.78,6.36,0,.84-.78,1.35.18,1.35.18l-1.87,1.63s-6.23.29-6.63-.47c0,0-7.62,1.03-6.71-1.86,0,0-2.14-.66-.11-3.72"/>
      <path class="st23" d="M181.43,176.3s1.44,5.05,3.37,6.73c1.92,1.68,3.01,6.25,2.28,9.38-.72,3.13-4.45,9.86-7.09,11.66-2.64,1.8-6.61,5.53-4.81,6.97s2.65,1.32,2.65,1.32c0,0,.24.61,2.76,0,2.52-.6,5.89,1.2,8.78-.72,2.89-1.92,5.65-14.88,5.77-17.18.12-2.3,1.56-4.34,2.29-6.51.72-2.16,1.2-1.44,0-4.57-1.2-3.12-.96-6.73,1.68-11.18,2.65-4.45,8.06-8.3,12.63-9.38,4.57-1.08,6.97,1.2,7.7-1.92.72-3.13-3.61-6.97-6.85-6.97s-10.82,6.13-13.83,8.42c-3.01,2.28-17.32,13.95-17.32,13.95"/>
      <path class="st13" d="M100.87,132.17s-.36,4.09.96,6.37c0,0-3.49,33.55,17.56,39.08,0,0,2.77,6.25,10.1,10.58,7.33,4.33,10.94,2.89,12.39,4.45,1.44,1.56-1.44,12.26-1.68,18.16-.24,5.89.6,10.34-2.52,13.35-3.13,3.01-9.38,9.5-8.78,12.26.6,2.77,2.16,3.01,2.16,3.01,0,0-.84,2.05,1.2,2.77,2.04.72,3.37.6,3.37.6,0,0,2.52.26,5.41,0,2.89-.25,3.49-1.09,3.49-1.09,0,0,3.84-.12,5.59-2.17,1.75-2.04.43-11.54,1.51-14.07,1.08-2.53,4.93-13.59,6.49-22.12,1.56-8.54,1.56-11.9,1.56-11.9,0,0,9.14-2.61,16.47-8.16,7.34-5.55,16.2-10.33,24.39-13.11,8.19-2.78,14.29-2.91,16.25-5.43,0,0,3.73,6.01,7.34,9.5,3.61,3.49,5.05,6.97,6.13,11.3,1.08,4.33,2.65,5.89,3.25,9.98.6,4.09-1.08,10.7-2.53,13.35-1.44,2.64-5.29,5.53-5.17,7.82.12,2.29,1.56,2.65,1.56,2.65,0,0-.48.96,1.32,1.44,1.8.48,2.52,0,2.52,0,0,0,.61.72,2.41.6,1.8-.12,2.64-.72,2.64-.72,0,0,3.97,1.32,5.41-1.56,1.44-2.88-.12-6.61.84-10.46.96-3.85,1.44-14.19,1.32-16.23-.12-2.04,1.48-1.92.02-5.41s-2.06-5.29-1.22-8.78c.84-3.49,3.01-10.22,1.08-16.11s-2.52-12.51-3.01-17.31c-.48-4.81-5.65-27.18-29.1-32.47,0,0-3.61-1.32-18.04-.6-14.43.72-19.24,2.89-22.73,3.01-3.49.12-3.97-1.68-6.97-.6,0,0-4.09-4.33-8.18-4.81-4.09-.48-6.37,0-6.37,0,0,0-6.37-6.37-9.14-7.58,0,0,1.8-1.56,1.68-2.16-.12-.6,6.85-2.77,7.09-8.06.24-5.29.35-9.26,1.14-13.71.79-4.45,1.51-21.4-6.67-20.92-8.18.48-15.51,13.83-17.68,16.71-2.16,2.88-4.69,3.61-4.93,5.17l-.24,1.56s-3.25-.84-4.09-.48l-.84.36s-3.01-2.53-6.73-.36c0,0-4.45-.6-5.41.24,0,0-.72-1.08-1.56-1.08,0,0-7.57-20.56-17.43-20.56s-8.54,12.62-7.82,18.64c.72,6.01,1.92,6.25,2.52,11.18.6,4.93,3.25,9.38,6.25,11.42,0,0,2.04,2.52,1.32,5.29-.72,2.76-2.65,13.47,5.17,20.92,7.82,7.46,8.9,6.25,8.9,6.25"/>
      <path class="st23" d="M129.19,234.55s.29,3,1.31,3,2.25-2.42,2.25-2.42c0,0-1.97,4.05-.56,5.12,1.41,1.07,3.38.68,3.88,0,.51-.67,1.07-2.81,1.07-2.81,0,0-.79,2.84.84,3.48,1.63.63,4-.21,4.67-1.28.68-1.07.96-3.15.96-3.15,0,0,0,3.6,1.69,3.77,1.69.17,4.35-.26,4.35-.26,0,0-2.2,2.89-5.13,1.72,0,0,.22,2.5-8.9,1.08,0,0-6.27.93-4.57-3.37,0,0-3.9-1.53-1.86-4.88"/>
      <path class="st12" d="M175.32,208.51s.32,1.68,1.17,1.68,1.91-1.29,1.91-1.29c0,0-1.24,1.35-.34,1.86.9.51,2.93.28,4.5-.62,1.57-.9,2.31-1.62,2.31-1.62,0,0-1.01,1.76.34,2.51,1.35.75,2.56,1.2,3.87.8,0,0-1.46,1.47-5.62,1.12,0,0-.9-.29-2.76.05-1.86.34-2.93.33-3.1,0,0,0-2.11.18-2.29-.36-.18-.53-.35-.76-.35-.76,0,0-1.41-.45-.84-2.03.56-1.57,1.2-1.34,1.2-1.34"/>
      <path class="st23" d="M225.83,216.22s.41,1.68,1.15,1.85c.73.17,1.29,0,1.29,0,0,0,.39,1.52,1.69,1.52s1.63-1.01,1.63-1.01c0,0,.17,1.58,1.8,1.46,1.63-.11,2.7-2.7,2.7-2.7,0,0-.11,2.77,2.03,2.71,2.14-.06,2.99-.47,3.55-.94,0,0,.06,2.55-5.35,2.18,0,0-3.21,1.43-5.07.04,0,0-4.92.54-3.89-1.97,0,0-2.62-.93-1.53-3.12"/>
      <path class="st23" d="M97.68,81.51s1.24-1.13,1.18-4.16c-.06-3.04-7.99-14.97-10.98-16.55-2.98-1.58-7.54-2.25-9.18,1.46-1.63,3.72-1.8,11.88-1.13,15.48.68,3.6,2.25,7.77,2.42,9.91.17,2.14,1.01,6.02,2.81,7.99,1.8,1.97,3.26,2.7,3.26,2.7,0,0,.19-3.88,1.95-6.08,1.76-2.2,4.24-4.67,5.93-6.81,1.69-2.14,2.42-3.04,3.71-3.94"/>
      <path class="st23" d="M129.03,84.5s-3.04-2.25-3.38-4.95c-.34-2.7,2.65-7.37,4.22-9.96,1.57-2.59,6.87-9.17,9.57-10.53,2.7-1.35,5.63-1.29,7.21.48,1.57,1.77,3.15,8.38,2.93,11.77-.23,3.4-2.19,11.11-1.74,13.98.45,2.87.51,8.39-2.48,10.58-2.98,2.19-3.49,2.59-4.45,1.91-.96-.68-1.07-2.98-3.71-6.14-2.65-3.15-6.36-6.3-8.16-7.15"/>
      <path class="st28" d="M95.99,81.96s1.29-2.2-.34-4.67c-1.63-2.48-4.95-10.02-8.89-11.2-3.94-1.18-2.98,7.77-3.55,11.71-.56,3.94-.28,8.33,0,10.86.28,2.53.34,6.45,2.08,5.91,1.74-.54,1.35-2.7,3.6-5.12,2.25-2.42,2.76-2.98,4.17-4.5,1.41-1.52,2.67-2.37,2.93-2.98"/>
      <path class="st28" d="M137.61,90.92c-.1-.16-1.94-3.04-3.68-4.22-1.74-1.18-3.83-3.83-3.15-5.68.68-1.86,4.56-7.77,6.84-9.96,2.28-2.2,3.91-4.22,5.43-3.72,1.52.51,2.36,5.8,1.63,8.73-.73,2.93-.11,8.16-.84,11.65-.73,3.49-2.59,7.43-3.71,6.53-1.12-.9-1.65-1.97-2.51-3.32"/>
      <path class="st23" d="M91.67,125.63s-1.48-1.22-1.03-4.88c.45-3.66,2.14-7.43,2.14-7.43,0,0-2.54-2.98-3.1-5.46-.56-2.48-2.96-5.85-1.65-8.72,1.31-2.87,5.81-4.39,7-5.57,1.18-1.18,5.29-2.76,5.68-2.03.4.73-.84,1.63-.28,3.6.56,1.97,3.32,2.36,4.22,1.8.9-.56-.11-4.71-.84-5.59-.73-.88-3.04-.49-2.64-.94.39-.45,2.42-1.07,3.6.56,1.18,1.63,2.14,5.01,1.75,5.8-.39.79,1.69.45,1.91-.22.23-.68-.68-2.98-.56-4.95s1.24-7.43,1.41-6.14c.17,1.29-1.01,5.57-.45,7.04.56,1.46.73,2.03,1.46,1.63.73-.39.96-1.58,1.47-4.05.51-2.48-1.63-7.2-.68-6.7.96.51,1.41,3.32,1.52,6.13.11,2.82-.11,5.85-.39,7.04-.28,1.18,1.63,1.29,2.14.96.51-.34-.73-1.91,0-4.22.73-2.31,2.25-2.81,3.88-2.76,1.63.06,2.98,1.01,2.25,1.18-.73.17-1.69-.62-3.15,0-1.46.62-2.59,2.08-2.25,3.55.34,1.46.79,2.25,1.69,1.97.9-.28.73-3.55,1.69-4.17.96-.62,2.03-.73,4.73,0,2.7.73,2.53,1.86,4.05,2.76,1.52.9,4,1.86,4.78,4.45.79,2.59.45,4.95-.96,5.85-1.41.9-2.36,5.97-1.63,8.84.73,2.87,2.36,4.05.73,7.43-1.63,3.38-5.91,8.05-9.01,8.27-3.1.23-21.9-1.12-24.2-2.48s-5.27-2.55-5.27-2.55"/>
      <path class="st26" d="M108.21,100.26s-2.08-.39-4.17.68c-2.08,1.07-2.2,2.48-3.77,3.38-1.58.9-3.49,1.69-5.57,8.11-2.08,6.42-3.26,13.34-2.7,15.82.56,2.48,2.76,3.94,6.19,4.45,3.43.51,4.39,0,4.39,0,0,0,.06,1.07,4.9,1.74,4.84.68,9.96-.22,11.37-1.18,1.41-.96,1.69-1.57,1.69-1.57,0,0,2.98.84,6.36-.45,3.38-1.29-3.38-17.51-5.69-21.22-2.31-3.71-4.05-5.4-5.74-6.36-1.69-.96-1.58-1.3-2.65-1.97-1.07-.68-1.18-1.41-4.62-1.41"/>
      <path class="st26" d="M115.58,99.53s2.08.34,4.22,3.15c2.14,2.81,3.6,5.8,4.73,9.34,1.13,3.55,2.42,6.25,3.29,8.05.87,1.8.7,3.26.7,3.26,0,0,.79-.23.4-2.03-.4-1.8-1.69-3.21-2.31-5.52-.62-2.31-.45-5.35-1.69-7.49l-1.24-2.14s3.88.9,5.63-1.91c1.74-2.81,1.69-4.45,0-5.91-1.69-1.46-4.28-1.8-5.8-2.7-1.52-.9-2.98-2.31-4.17-.73-1.18,1.58-1.58,3.32-1.07,4l.51.68s-2.98-.79-3.21-.06"/>
      <path class="st26" d="M101.56,99.92s-4.17,2.42-5.35,4.9c-1.18,2.48-2.65,7.32-2.65,7.54s.28-3.66.56-4.9c.28-1.24-.28-.73-.28-.73,0,0-2.42.34-3.43-.9-1.01-1.24-1.91-4.05,0-7.09,1.91-3.04,3.55-2.2,4.73-2.87,1.18-.68,1.58-2.65,2.87-2.03,1.29.62.51,1.63,1.46,2.81.96,1.18,1.07,2.31,1.07,2.31,0,0,1.29-.39,2.08.06l.79.45s-1.26.08-1.86.45"/>
      <path class="st1" d="M97.45,100.82s-.45-3.21-2.93-3.21-4.05,1.41-4.11,3.21c-.06,1.8,1.24,4.11,3.52,4.05s4.38-1.93,3.52-4.05"/>
      <path class="st1" d="M120.76,102.51c-.13-.18-.34-3.88,1.8-4.9s4.33.06,5.26,1.58c.93,1.52.82,4.67-1.77,5.18-2.59.51-4.28-.45-5.29-1.86"/>
      <path class="st5" d="M95.48,103.64s-2.23,1.01-3.63-.59c-1.4-1.6.28-4.14,2.18-4.31,1.9-.17,2.37,1.27,2.44,2.6.07,1.34-.22,2.06-.99,2.29"/>
      <path class="st5" d="M121.94,101.34s.11-2.88,2.58-2.99c2.47-.11,2.99,2.42,2.77,3.77-.22,1.35-2.48,1.63-3.49,1.46-1.01-.17-1.97-1.52-1.86-2.24"/>
      <path class="st10" d="M123.57,100.19s.39-.77,1.46-.44c1.07.34,1.13,1.11.59,1.23-.54.12-1.32-1.09-2.06-.79"/>
      <path class="st10" d="M93.06,100.33s1.13-.52,1.86-.41c.73.11.73.94.73.94,0,0-.17-.24-1.12,0-.96.24-2.25.38-1.46-.53"/>
      <path class="st1" d="M100.66,105.55s-.39,1.74,1.07,1.97c1.46.23,4.17-.68,3.66-1.69-.51-1.01-.77-2.24.06-1.88s1.12,2.04.72,3.06-.11,2.43-.11,2.43c0,0-.73-1.35-1.35-1.41-.62-.06-5.75.85-4.05-2.48"/>
      <path class="st1" d="M108.71,110.79s.45-1.8.34-2.93c-.11-1.13.41-4.74.99-3.97.58.76.2,1.38,0,2.12-.2.73.58,1.63,1.6,1.52.68-.07,1.52.01,2.13-.22.3-.12.54-.31.69-.64.45-1,0-2.35,0-2.35,0,0,1.58,2.87-.62,3.6-2.2.73-3.79.11-3.79.11,0,0-.6,1.01-1.33,2.76"/>
      <path class="st1" d="M95.99,130.94s1.74.85,3.26-1.52c1.52-2.36.28-6.98,2.7-10.07,2.42-3.1,4.17-4.11,6.36-3.71,2.2.39,5.24,4.16,5.91,6.98.68,2.81,1.24,5.01,3.1,6.7,1.86,1.69,3.21,2.36,3.21,2.36,0,0-2.65-1.25-4.28-.99-1.63.26-1.13,2-7.26,1.83-6.14-.17-7.71-1.83-7.71-1.83,0,0-4.33,1.49-5.29.26"/>
      <path class="st23" d="M106.35,84.67s.78-4.23,4.05-3.86,4,3.86,4,3.86c0,0-1.83-3.05-4.02-3.15-2.19-.1-4.02,3.15-4.02,3.15"/>
      <path class="st3" d="M139.28,103.36s-.51,7.37.39,9.96c.9,2.59,1.69,9.63-3.94,14.92s-7.65,12.44-15.87,13.06c-8.22.62-10.86-.17-12.72-1.58-1.86-1.41-2.19-2.7-2.19-2.7,0,0,.45,4.73,7.43,5.52,6.98.79,11.6-.17,14.58-2.2,2.98-2.03,6.19-8.06,8.89-9.66,2.7-1.6,6.25-5.43,6.81-9.88.56-4.45-1.24-6.47-1.97-9.23-.73-2.76-1.41-8.22-1.41-8.22"/>
      <path class="st3" d="M119.38,177.62s9.38.35,15.73-3.95c6.35-4.3,9.23-9.09,9.83-15.44.6-6.35,0-9.71.6-12.82.6-3.12,1.56-4.19,1.56-4.19,0,0-.72,5.14-.48,8.68.24,3.54,2.51,21.03-10.79,25.47-13.3,4.43-16.45,2.25-16.45,2.25"/>
      <path class="st3" d="M149.02,136.66s2.16.38,4.91-5.98c2.76-6.36-.35-19.33-4.61-21.36,0,0,5.33.14,6.65,10.92,1.32,10.79-2.16,16.3-6.95,16.42"/>
      <path class="st3" d="M163.87,114.13s4.92,4.43,7.55,15.94c2.64,11.5,1.32,18.93,1.32,18.93,0,0,2.52-6.48.72-16.48-1.8-10-3.48-21.03-9.59-18.39"/>
      <path class="st3" d="M158.25,119.89s2.52.96,5.03,5.99c2.52,5.03,3.11,7.91,3.11,7.91,0,0-1.92-13.78-8.15-13.9"/>
      <path class="st3" d="M168.19,169.61s-1.8,5.51-3.84,7.31c-2.04,1.8-3.11,3.86-3.11,6.36s-.9,5.38-.9,5.38c0,0,1.61-1.56,1.97-3.83.36-2.28.78-4.79,1.95-5.69,1.17-.9,5.72-6.77,3.92-9.53"/>
      <path class="st3" d="M218.28,133.79s-3.24,2.88-4.67,7.43c-1.44,4.55-.72,9.95-.72,9.95,0,0-2.16-4.19-1.2-9.95.96-5.75,6.59-7.43,6.59-7.43"/>
      <path class="st3" d="M136.2,230s2.7-.11,6.56.97c3.86,1.08,4.34,1.92,4.34,1.92,0,0-1.8-2.63-5.45-3.41-3.65-.78-5.45.53-5.45.53"/>
      <path class="st3" d="M229.9,212.64s1.2-1.21,4.55-.61c3.36.6,4.79,1.92,4.79,1.92,0,0-1.44-2.79-4.67-3.07-3.24-.28-4.67,1.76-4.67,1.76"/>
    </g>
    <text class="st6" transform="translate(51.64 251.66)"><tspan class="st22" x="0" y="0">F</tspan><tspan class="st19" x="10.38" y="0">r</tspan><tspan class="st20" x="17.08" y="0">a</tspan><tspan class="st18" x="25.76" y="0">n</tspan><tspan class="st21" x="35.86" y="0">c</tspan><tspan class="st17" x="44.14" y="0">o</tspan><tspan class="st18" x="54.94" y="0">u</tspan><tspan class="st9" x="65.04" y="0">z</tspan><tspan class="st15" x="74.36" y="0">s</tspan><tspan class="st24" x="81.32" y="0">k</tspan><tspan x="91.52" y="0">ý </tspan><tspan class="st16" x="105.56" y="0">b</tspan><tspan class="st14" x="116.68" y="0">u</tspan><tspan class="st21" x="126.6" y="0">l</tspan><tspan class="st19" x="131.1" y="0">d</tspan><tspan class="st27" x="142.02" y="0">o</tspan><tspan class="st9" x="153.02" y="0">č</tspan><tspan class="st22" x="161.5" y="0">e</tspan><tspan class="st11" x="170.54" y="0">k</tspan></text>
  </g>
</svg>